<svg xmlns="http://www.w3.org/2000/svg" xml:space="preserve" width="188.673" height="81.399" viewBox="0 0 49.92 21.537"><defs><clipPath id="a" clipPathUnits="userSpaceOnUse"><path d="M-69.97-5.96H72.207v62.113H-69.97Z"/></clipPath><clipPath id="b" clipPathUnits="userSpaceOnUse"><path d="M-110.723-4.964H31.454v62.113h-142.177Z"/></clipPath><clipPath id="c" clipPathUnits="userSpaceOnUse"><path d="M-141.515-16.464H.662V45.65h-142.177Z"/></clipPath><clipPath id="d" clipPathUnits="userSpaceOnUse"><path d="M-4.459-54.79h142.177V7.325H-4.459Z"/></clipPath><clipPath id="e" clipPathUnits="userSpaceOnUse"><path d="M-137.59-54.79H4.589V7.325H-137.59Z"/></clipPath><clipPath id="f" clipPathUnits="userSpaceOnUse"><path d="M-27.713-51.826h142.177v62.113H-27.711Z"/></clipPath><clipPath id="g" clipPathUnits="userSpaceOnUse"><path d="M-28.003-46.212h142.177v62.113H-28.003Z"/></clipPath><clipPath id="h" clipPathUnits="userSpaceOnUse"><path d="M-14.854-47.475h142.177v62.113H-14.854Z"/></clipPath><clipPath id="i" clipPathUnits="userSpaceOnUse"><path d="M-16.684-47.29h142.177v62.114H-16.684Z"/></clipPath><clipPath id="j" clipPathUnits="userSpaceOnUse"><path d="M-17.98-47.475h142.177v62.113H-17.98Z"/></clipPath><clipPath id="k" clipPathUnits="userSpaceOnUse"><path d="M-18.196-27.024H123.98V35.09H-18.196Z"/></clipPath><clipPath id="l" clipPathUnits="userSpaceOnUse"><path d="M-18.145-27.826h142.177v62.113H-18.145Z"/></clipPath><clipPath id="m" clipPathUnits="userSpaceOnUse"><path d="M-131.527-53.025H10.65V9.088h-142.177Z"/></clipPath><clipPath id="n" clipPathUnits="userSpaceOnUse"><path d="M-131.132-53.025H11.045V9.088h-142.177Z"/></clipPath><clipPath id="o" clipPathUnits="userSpaceOnUse"><path d="M-126.852-48.227H15.325v62.113h-142.177Z"/></clipPath><clipPath id="p" clipPathUnits="userSpaceOnUse"><path d="M-126.457-48.227H15.72v62.113h-142.177Z"/></clipPath><clipPath id="q" clipPathUnits="userSpaceOnUse"><path d="M-131.465-43.53H10.712v62.113h-142.177Z"/></clipPath><clipPath id="r" clipPathUnits="userSpaceOnUse"><path d="M-131.07-43.53H11.107v62.113H-131.07Z"/></clipPath><clipPath id="s" clipPathUnits="userSpaceOnUse"><path d="M-136.327-48.184H5.85v62.113h-142.177Z"/></clipPath><clipPath id="t" clipPathUnits="userSpaceOnUse"><path d="M-135.932-48.184H6.245v62.113h-142.177Z"/></clipPath><clipPath id="u" clipPathUnits="userSpaceOnUse"><path d="M-23.26-34.08h142.176v62.113H-23.26Z"/></clipPath><clipPath id="v" clipPathUnits="userSpaceOnUse"><path d="M-124.393-25.79H17.784v62.113h-142.177Z"/></clipPath><clipPath id="w" clipPathUnits="userSpaceOnUse"><path d="M-124.424-26.942H17.753v62.113h-142.177Z"/></clipPath><clipPath id="x" clipPathUnits="userSpaceOnUse"><path d="M-128.1-32.846H14.079v62.113H-128.1Z"/></clipPath><clipPath id="y" clipPathUnits="userSpaceOnUse"><path d="M-13.77-47.486h142.177v62.113H-13.77Z"/></clipPath><clipPath id="z" clipPathUnits="userSpaceOnUse"><path d="M-126.893-32.89H15.284v62.113h-142.177Z"/></clipPath><clipPath id="A" clipPathUnits="userSpaceOnUse"><path d="M-27.59-46.957h142.178v62.113H-27.59Z"/></clipPath><clipPath id="B" clipPathUnits="userSpaceOnUse"><path d="M-27.386-48.85H114.79v62.114H-27.386Z"/></clipPath><clipPath id="C" clipPathUnits="userSpaceOnUse"><path d="M-114.49-46.864H27.687v62.113H-114.49Z"/></clipPath><clipPath id="D" clipPathUnits="userSpaceOnUse"><path d="M-114.692-48.757H27.485v62.113h-142.177Z"/></clipPath></defs><path d="m39.2 18.886-.013.006M1.57 1.83l.005.019M5.203.392v.055M1.624 1.776l-.013-.03h.007M1.63 1.903v.498M7.048.277h.036l.019.006.012.012M7.127.38l.018-.012M7.127.38v.34M2.097 2.23v-.424M6.884.471v.304M48.41 1.83l-.006.019M48.361 1.776l.006-.03M44.781.392v.055M48.404 1.849v.57M48.349 1.903v.498M42.937.277H42.9l-.018.006-.012.012M42.852.38l-.018-.012h.006M42.852.744V.77M42.852.38v.34M47.888 2.23v-.424M28.818.435h-.006l-.006.006-.006.012-.012.012M18.206.435 18.2.44l-.012.012-.006.012M20.324.435 20.31.44l-.005.012-.007.012M33.065.435l-.012.006-.006.012-.006.012M26.688.435l-.006.006-.012.012-.006.012M30.942.435h-.006l-.007.006-.005.012-.007.012M24.565.435l-.013.006-.005.012-.007.012M22.441.435h-.006L22.43.44l-.006.012-.006.012M7.715.435H7.71L7.703.44l-.006.012-.006.012M13.977.435h-.006l-.006.006-.006.012-.006.012M41.566.435 41.56.44l-.007.012-.005.012M11.89.435h-.006l-.007.006-.006.012-.011.012M9.797.435V.44l-.013.012-.005.012M20.645.465V.453l.006-.012.006-.006M18.528.465l.006-.012V.44l.006-.006M29.14.465V.441l.005-.006M14.299.465V.453l.006-.012V.435M27.01.465l.006-.012V.44l.006-.006M33.387.465V.453l.006-.012.006-.006M39.764.465V.453L39.77.44V.435h.006M16.416.465V.441l.006-.006M31.263.465V.453L31.27.44V.435h.006M24.886.465V.453l.006-.012.007-.006M22.763.465V.453l.006-.012V.435h.006M10.179.471l.006.006v.007M10.118.465V.453l.006-.012.006-.006M12.266.471l.006.006v.007M12.205.465l.006-.012V.44l.007-.006M41.893.465V.453L41.9.44V.435h.007M8.037.465V.453L8.043.44V.435h.006M9.778.465 9.73.538M9.742.477V.471h.006l.006-.006h.024M39.764.465h-.274M16.416.465h-.34M12.296.526l-.024-.042M10.203.526l-.018-.042M11.86.465h-.025l-.006.006-.006.007M11.86.465l-.043.061M12.248.496l-.006.03M12.2.526l.005-.06M10.16.496l-.005.03M10.106.526l.012-.06M8.019.538l.018-.073M41.875.538l.018-.073M39.751.538l.013-.073M20.633.538l.012-.073M22.75.538l.013-.073M26.998.538l.012-.073M16.404.538l.012-.073M18.515.538l.013-.073M33.375.538l.012-.073M29.127.538l.013-.073M31.25.538l.013-.073M14.286.538 14.3.465M24.874.538l.012-.073M7.691.465l-.049.073M7.655.477V.471h.006l.006-.006h.024M41.547.465 41.5.538M41.511.477V.471h.006l.006-.006h.024M33.04.465l-.048.073M33.004.477V.471h.006l.007-.006h.024M26.664.465l-.049.073" style="fill:none;stroke:#8a9199;stroke-width:.0423333;stroke-linecap:round;stroke-linejoin:round;stroke-miterlimit:10;stroke-dasharray:none;stroke-opacity:1"/><path d="m26.628.477.006-.006.006-.006h.024M22.417.465l-.055.073M22.38.477V.471h.006l.007-.006h.024M30.917.465l-.054.073M30.88.477V.471h.007l.006-.006h.024M20.3.465l-.05.073M20.263.477V.471h.006l.006-.006h.024M28.788.465l-.05.073M28.757.477V.471h.006l.007-.006h.018000000000000002M18.182.465l-.049.073M18.145.477V.471h.006l.007-.006h.024M13.953.465l-.055.073M13.916.477V.471h.006l.007-.006h.024M24.54.465l-.048.073M24.504.477V.471h.006l.006-.006h.024M8.134.538l-.03-.055M8.073.496l-.006.042M20.736.538l-.024-.055M20.688.496l-.006.042M18.625.538l-.03-.055M18.57.496l-.006.042M41.99.538l-.03-.055M41.93.496l-.006.042M29.23.538 29.2.483M29.176.496l-.006.042M16.507.538l-.03-.055M16.453.496l-.006.042M22.854.538l-.03-.055M22.805.496l-.012.042M27.107.538l-.03-.055M27.052.496l-.006.042M31.354.538l-.03-.055M31.306.496l-.013.042M33.478.538l-.025-.055M33.43.496l-.007.042M39.855.538l-.03-.055M39.806.496l-.012.042M14.377.52 14.36.484M14.341.496l-.012.042M24.977.538l-.024-.055M24.929.496l-.006.042M14.553.496h-.012l-.012.006h-.067M14.462.502h-.05999999999999999L14.39.496h-.013000000000000001M16.1.496h-.012l-.012.006h-.06M16.016.502h-.067l-.012-.006h-.012M15.585.496h-.013000000000000001l-.012.006h-.06M15.5.502h-.067l-.012-.006h-.012M15.07.496h-.013000000000000001l-.012.006h-.067M14.978.502h-.06099999999999999l-.012-.006h-.012M18.121.496h-.012l-.012.006h-.061" style="fill:none;stroke:#8a9199;stroke-width:.0423333;stroke-linecap:round;stroke-linejoin:round;stroke-miterlimit:10;stroke-dasharray:none;stroke-opacity:1"/><path d="M18.036.502h-.067l-.012-.006h-.012M10.373.593h-.006l-.036.006h-.013v.006M10.543.538V.58M23.024.587v-.03M24.898.587v-.03M13.206.599h-.018l-.012.006h-.006M13.413.605h-.006l-.013-.006h-.018M32.046.587V.574M32.046.587V.574M16.15.556l.035.061M14.292.617l.037-.06M14.365.556l-.036.061M16.15.617l-.037-.06M16.307.605l.018-.03M14.153.574l.018.03M32.404.593V.58M32.076.593V.58M32.088.593V.587M32.1.593V.587M17.478.617V.599M18.588.617V.599M26.336.605V.58M32.361.593V.587M32.33.593V.587M17.175.587h.018000000000000002l.006.006h.006l.006.006v.006M18.861.605V.599l.006-.007h.007l.005-.005h.013000000000000001M32.282.599V.593M32.252.599V.593M7.26.63 7.151.598M13.45.599h-.007l-.012.006M13.152.605l-.013-.006h-.005M7.351.617 7.357.61l.007-.006.012-.006h.018000000000000002M42.627.617V.61l-.012-.006-.006-.006h-.018000000000000002M33.071.58h-.085M10.294.605l-.006-.006h-.012" style="fill:none;stroke:#8a9199;stroke-width:.0423333;stroke-linecap:round;stroke-linejoin:round;stroke-miterlimit:10;stroke-dasharray:none;stroke-opacity:1"/><path d="M13.212.61h-.024L13.17.606h-.03l-.006-.006M39.49.556h.067l.013.006h.012l.006.007h-.006M7.266.63h.013M39.49.447h-.005M39.484.593V.447M13.225.61l.006-.005h.012l.006-.006M13.249.599V.61M13.334.599l.012.006h.006l.006.006M10.415.587h-.036l-.006.006h-.006M10.543.58" style="fill:none;stroke:#8a9199;stroke-width:.0423333;stroke-linecap:round;stroke-linejoin:round;stroke-miterlimit:10;stroke-dasharray:none;stroke-opacity:1"/><path d="M10.415.587h-.036l-.006.006h-.006M49.465 17.903l.116-.206M.932 2.85l-.006.006M1.035 2.935l-.06-.043-.05-.036M.926 2.856l-.018.212M1.035 2.935l.085.03H1.2l.121-.018.152-.049.164-.066.358-.14M48.95 2.935l-.085.03h-.085l-.115-.018-.152-.049-.17-.066-.352-.14M3.468 19.201l-.072.03-.025.02-.018.017v.018000000000000002l.006.006M4.014 19.153l1.444-.522M4.014 19.153l-.012.006-.018-.006h-.006M3.899 19.104l.079.05M3.899 19.104l-.012-.006-.006-.012v-.024l.006-.012.006-.012.012-.006M46.626 19.292v-.006h.006v-.018000000000000002l-.019-.018-.06-.037-.037-.012M46.074 19.032l.012.006.012.012.006.012v.018l-.006.012-.006.012h-.012M46.08 19.104l-.073.05M46.007 19.153l-.018.006h-.012l-.006-.006M45.97 19.153l-1.443-.522M4.36 19.632l-.079.03-.06.031-.03.018-.019.012-.006.006-.012.006v.013000000000000001l.006.006M5.822 19.214l.006.012v.012l-.006.018-.006.012-.012.006h-.006M4.827 19.626l.971-.352M4.827 19.626h-.03l-.006-.006M4.712 19.578l.08.042M4.712 19.578l-.012-.013-.006-.012-.006-.012.006-.012.006-.012.006-.012.012-.006M45.825 19.754v-.006h.006v-.007l-.012-.012-.043-.03-.151-.067M45.267 19.499l.012.006.006.012.006.012v.018l-.006.012-.006.012-.006.007M45.273 19.578l-.08.042M45.194 19.62l-.012.006h-.024M45.157 19.626l-1.025-.37M5.246 20.075l-.073.03-.097.037-.054.024-.025.019-.018.006-.006.006-.006.012H4.96v.006l.006.006M6.223 19.839l.006.012v.012l-.006.018-.006.012-.012.006-.007.006M5.646 20.093l.553-.188M5.646 20.093l-.018.006-.012-.006H5.61M5.531 20.045l.08.049M5.531 20.045l-.012-.006-.006-.012-.006-.012v-.019l.006-.012.012-.006.012-.006M45.018 20.22v-.012l-.006-.012-.049-.024-.194-.085-.036-.012M44.448 19.972l.012.006.006.012.006.012v.031l-.012.012h-.006M44.454 20.045l-.08.049M44.375 20.093l-.013.006h-.018l-.006-.006M44.338 20.093l-.606-.206M7.127.72 7.12.726h-.006M7.115.726l-.868.195-1.674.448-1.645.546-.855.322M42.864.726 42.852.72M46.517 19.201l-.358-.14-.086-.03" style="fill:none;stroke:#8a9199;stroke-width:.0423333;stroke-linecap:round;stroke-linejoin:round;stroke-miterlimit:10;stroke-dasharray:none;stroke-opacity:1"/><path d="m46.517 19.201.097.03.109.043.115.037.055.018M46.074 19.032l-.704-.267-.728-.255M3.092 19.329l.018-.006.115-.043.11-.036.133-.042M3.468 19.201l.352-.14.085-.03M3.905 19.032l.71-.267.722-.255M42.852.72v.024M7.54.72h-.41300000000000003M7.127.72l.006.024M7.54.75V.72M5.337 18.51l.006-.006v-.012" style="fill:none;stroke:#8a9199;stroke-width:.0423333;stroke-linecap:round;stroke-linejoin:round;stroke-miterlimit:10;stroke-dasharray:none;stroke-opacity:1"/><path d="m5.392 18.522-.013-.006-.012-.006-.012-.006-.018.006M44.593 18.522l.006-.006.019-.006.012-.006.012.006" style="fill:none;stroke:#8a9199;stroke-width:.0423333;stroke-linecap:round;stroke-linejoin:round;stroke-miterlimit:10;stroke-dasharray:none;stroke-opacity:1"/><path d="m44.636 18.492.006.006v.012M5.458 18.631l.037.067.036.055M5.398 18.504l-.006.012v.006M5.392 18.522v.006M5.392 18.528l.066.103M3.602 19.432l-.243-.14M5.531 18.825l-.855.304-.856.321M3.82 19.45l-.055.013h-.054l-.055-.007-.054-.024M45.625 19.632l-.273-.103-.085-.03M45.625 19.632l.163.055.17.06.17.061.08.024M45.267 19.499l-1.02-.364M3.778 19.832l.066-.018.17-.06.17-.061.176-.06M4.36 19.632l.273-.103.085-.03M4.718 19.499l1.013-.364M5.531 18.752l.049.067.042.049.006.012M5.531 18.825l.006-.006.006-.006.006-.006v-.018l-.012-.024-.006-.012M5.628 18.953l-.03-.043-.036-.048-.03-.037M46.383 19.432l.243-.14M46.159 19.45l.06.013h.055l.054-.007.055-.024" style="fill:none;stroke:#8a9199;stroke-width:.0423333;stroke-linecap:round;stroke-linejoin:round;stroke-miterlimit:10;stroke-dasharray:none;stroke-opacity:1"/><path d="m44.417 18.813.892.316.85.321M44.199 19.153l.006-.012.018-.006h.025" style="fill:none;stroke:#8a9199;stroke-width:.0423333;stroke-linecap:round;stroke-linejoin:round;stroke-miterlimit:10;stroke-dasharray:none;stroke-opacity:1"/><path d="m44.241 19.117.006.006v.012M5.731 19.135l.006-.013.007-.005" style="fill:none;stroke:#8a9199;stroke-width:.0423333;stroke-linecap:round;stroke-linejoin:round;stroke-miterlimit:10;stroke-dasharray:none;stroke-opacity:1"/><path d="m5.786 19.153-.012-.012-.012-.006H5.73M44.593 18.528l-.024.036-.018.03-.024.037M44.593 18.528v-.006M44.593 18.522v-.006l-.006-.012M44.314 18.94l.042-.054.03-.036.031-.037M44.526 18.631l-.018.036-.024.03-.043.068-.024.048M45.57 19.9l.255-.146M45.352 19.917l.06.013h.055l.054-.007.049-.024M44.053 19.45l.643.225.656.242M4.409 19.9l-.249-.146M5.926 19.45l-.638.225-.661.242M4.627 19.917l-.055.013h-.054l-.055-.007-.054-.024M44.733 20.075l-.2-.073-.085-.03M44.733 20.075l.273.091.194.067.194.067.103.036M44.448 19.972l-.601-.212M4.488 20.336l.163-.06.2-.067.195-.067.2-.067M5.246 20.075l.2-.073.091-.03M5.537 19.972l.595-.212M5.792 19.135l-.006.006v.012M5.786 19.153l.036.06M5.822 19.214l.03.042.073.127M44.132 19.256l-.024.036-.019.037-.036.054M44.199 19.153l-.025.036-.024.037-.018.03M44.199 19.153v-.012l-.006-.006M44.053 19.45l-.066.085-.03.043" style="fill:none;stroke:#8a9199;stroke-width:.0423333;stroke-linecap:round;stroke-linejoin:round;stroke-miterlimit:10;stroke-dasharray:none;stroke-opacity:1"/><path d="m44.053 19.384-.012.024v.03l.006.006.006.006" style="fill:none;stroke:#8a9199;stroke-width:.0423333;stroke-linecap:round;stroke-linejoin:round;stroke-miterlimit:10;stroke-dasharray:none;stroke-opacity:1"/><path d="m43.956 19.51.037-.054.054-.06.006-.012M5.926 19.384l.048.06.043.049.012.018" style="fill:none;stroke:#8a9199;stroke-width:.0423333;stroke-linecap:round;stroke-linejoin:round;stroke-miterlimit:10;stroke-dasharray:none;stroke-opacity:1"/><path d="m5.926 19.45.006-.006.006-.006.006-.006v-.012l-.006-.018-.012-.018M6.029 19.578l-.043-.055-.03-.036-.03-.037M40.03 7.485v-.157M10.063 7.4v.158M9.942 7.485v-.51M39.91 7.4v.158M43.798 19.778l.013-.006.012-.012h.024M43.84 19.741l.007.013v.005M6.132 19.76l.006-.006v-.012" style="fill:none;stroke:#8a9199;stroke-width:.0423333;stroke-linecap:round;stroke-linejoin:round;stroke-miterlimit:10;stroke-dasharray:none;stroke-opacity:1"/><path d="m6.18 19.778-.006-.006-.012-.012h-.03M5.228 20.366l-.261-.145M6.326 20.075l-.425.146-.46.17M5.44 20.39l-.049.013h-.054l-.06-.012-.05-.025M44.757 20.366l.261-.145M44.539 20.39l.054.013h.055l.054-.012.055-.025M43.653 20.075l.425.146.46.17M6.186 19.76v.012l-.006.006M6.18 19.778l.043.06M6.223 19.839l.03.048.08.121M43.732 19.887l-.08.121M43.798 19.778l-.024.042-.018.03-.024.037M43.798 19.778v-.013000000000000001l-.006-.005M43.653 20.008l-.013.025v.036l.007.006h.006M43.55 20.136l.042-.049.06-.078M43.653 20.075l-.08.11-.017.018M6.326 20.075h.012v-.006l.006-.012v-.012l-.006-.019-.006-.018M6.43 20.203l-.074-.085-.03-.043M6.332 20.008l.036.05.061.078M43.817 18.28l-.037.06M6.205 18.34l-.043-.06M43.817 18.28h.006v-.031l-.006-.012-.006-.012-.012-.006" style="fill:none;stroke:#8a9199;stroke-width:.0423333;stroke-linecap:round;stroke-linejoin:round;stroke-miterlimit:10;stroke-dasharray:none;stroke-opacity:1"/><path d="m43.84 18.273-.012.006h-.011M6.162 18.28H6.15l-.006-.007M6.186 18.219H6.18l-.012.012-.006.012-.006.012v.012l.006.012M9.608 7.313l.844.482M6.253 18.358l-.012.006-.012-.006-.018-.006-.007-.012" style="fill:none;stroke:#8a9199;stroke-width:.0423333;stroke-linecap:round;stroke-linejoin:round;stroke-miterlimit:10;stroke-dasharray:none;stroke-opacity:1"/><path d="M6.199 18.358v-.006l.006-.012M43.78 18.34v.012l.006.006M43.78 18.34l-.012.012-.012.006-.012.006-.012-.006M10.185 7.079l-.122-.067M10.294 7.14l.012.012M10.294 7.14v-.007M10.318 4.907l-.012-.006M43.647 18.546l-.073.11M6.405 18.655l-.036-.06M6.368 18.595l-.012-.006h-.012M6.393 18.528l-.006.006-.013.006-.012.012v.031l.006.012M6.405 18.655l.012.006.012.012h.025M6.399 18.674l.006-.013v-.005M43.574 18.655l-.006.006-.012.012h-.031M43.574 18.655l.006.006v.012M6.611 18.97l-.042-.06M43.41 18.91l-.055.085M43.41 18.91l.006-.006v-.03l-.006-.012-.006-.012-.012-.006M43.434 18.898l-.012.006-.012.007M6.569 18.91l-.006-.006h-.007l-.005-.006" style="fill:none;stroke:#8a9199;stroke-width:.0423333;stroke-linecap:round;stroke-linejoin:round;stroke-miterlimit:10;stroke-dasharray:none;stroke-opacity:1"/><path d="M6.593 18.844h-.006l-.012.012-.006.012-.006.012.006.012v.018M6.66 18.983l-.013.006-.012-.006-.018-.006-.006-.006M6.605 18.983v-.006l.006-.006M6.811 19.28l-.036-.06M43.21 19.22l-.043.06M43.21 19.22v-.006l.006-.012v-.013l-.006-.012-.013-.012-.012-.006M43.228 19.214l-.006.006h-.012M6.775 19.22h-.012v-.006H6.75" style="fill:none;stroke:#8a9199;stroke-width:.0423333;stroke-linecap:round;stroke-linejoin:round;stroke-miterlimit:10;stroke-dasharray:none;stroke-opacity:1"/><path d="M6.8 19.159h-.007l-.012.006-.006.012-.006.018v.013l.006.012M6.811 19.28l.013.013.012.005h.024M6.805 19.299l.006-.006v-.012M43.167 19.28l.006.013v.005M43.167 19.28l-.006.013-.012.005h-.03M43.004 19.535l-.037.06M7.018 19.596l-.037-.06M43.004 19.535l.006-.006v-.03l-.006-.012-.006-.006-.019-.012" style="fill:none;stroke:#8a9199;stroke-width:.0423333;stroke-linecap:round;stroke-linejoin:round;stroke-miterlimit:10;stroke-dasharray:none;stroke-opacity:1"/><path d="M43.028 19.53h-.013l-.012.005M6.981 19.535l-.012-.006h-.012" style="fill:none;stroke:#8a9199;stroke-width:.0423333;stroke-linecap:round;stroke-linejoin:round;stroke-miterlimit:10;stroke-dasharray:none;stroke-opacity:1"/><path d="m7 19.468-.007.006-.012.007-.006.012-.006.012.006.018.006.012M7.066 19.614h-.024l-.012-.006-.012-.012M7.012 19.614v-.012l.006-.006M42.967 19.596v.006l.006.012M42.967 19.596l-.012.006-.012.012h-.025M42.76 19.905v.006M42.803 19.85l-.042.055M7.224 19.911l-.006-.006M7.218 19.905l-.036-.054M44.193 19.135l-.025.036-.042.067-.043.066-.127.207M44.193 19.135l.006-.013.012-.005h.03M45.358 19.517l-.091-.036-.522-.188-.504-.176M45.358 19.517l.036.012.516.194.297.11M46.207 19.832l.073.037.024.018.019.006.006.012.012.007v.024" style="fill:none;stroke:#8a9199;stroke-width:.0423333;stroke-linecap:round;stroke-linejoin:round;stroke-miterlimit:10;stroke-dasharray:none;stroke-opacity:1"/><path d="m46.037 20.166.164-.127.079-.06.06-.044M45.71 20.215l.079.018h.09l.085-.024.073-.043M43.956 19.578l.983.351.77.286M43.956 19.578h-.006l-.006-.006-.006-.013v-.012l.006-.018.012-.018M43.792 19.76l-.018.036-.042.06-.037.061-.145.22M43.792 19.76l.013-.013.012-.005h.024" style="fill:none;stroke:#8a9199;stroke-width:.0423333;stroke-linecap:round;stroke-linejoin:round;stroke-miterlimit:10;stroke-dasharray:none;stroke-opacity:1"/><path d="m45.497 20.336-.079-.03-.704-.255-.182-.067-.175-.06-.182-.067-.182-.061-.152-.054M45.497 20.336l.073.03.043.025.024.012.018.012.006.006.006.006.006.006v.006l-.006.006M45.346 20.682l.182-.133.14-.104M45.024 20.73l.085.018h.085l.079-.024.072-.042M43.556 20.203l.6.212.868.315M43.556 20.203h-.013v-.006l-.005-.007v-.012l.005-.024.007-.018M44.587 18.504l-.024.042-.042.067-.043.067-.164.26M44.587 18.504l.006-.006.012-.007.019-.005.012.005M46.893 19.329l-.237-.091-.667-.255-.686-.255-.667-.237M46.893 19.329l.066.036.013.013.006.012.006.006v.012h-.006v.006M46.705 19.638l.273-.224M46.365 19.693l.079.018h.09l.092-.024.079-.049" style="fill:none;stroke:#8a9199;stroke-width:.0423333;stroke-linecap:round;stroke-linejoin:round;stroke-miterlimit:10;stroke-dasharray:none;stroke-opacity:1"/><path d="m44.314 18.94.746.262 1.305.491M48.622 18.188l.164-.224.121-.261.134-.546.048-.564v-.559M49.09 16.034l-.098-1.583-.11-1.602M48.883 12.849l-.08-1.135-.084-1.14M42.858 20.755l1.025.163 1.014.17M44.897 21.088l.127.013.127-.013.116-.042.109-.067M45.376 20.98l1.147-.862 1.092-.922 1.007-1.008M6.029 19.51l-.067-.102-.085-.134-.018-.036-.025-.03-.018-.037-.024-.03v-.006M6.029 19.51l.012.031v.031l-.006.006h-.006M4.275 20.215l.213-.08.85-.315.69-.242" style="fill:none;stroke:#8a9199;stroke-width:.0423333;stroke-linecap:round;stroke-linejoin:round;stroke-miterlimit:10;stroke-dasharray:none;stroke-opacity:1"/><path d="m3.941 20.166.08.043.084.024h.091l.08-.018M3.644 19.936l.128.097.17.133M3.644 19.936v-.006h-.006v-.012l.006-.007.018-.018.116-.06M5.744 19.117l-.51.176-.528.194-.558.206-.37.14M5.744 19.117h.024l.012.006.012.012M6.43 20.136l-.134-.212-.043-.061-.042-.067-.025-.037M6.43 20.136l.011.03.006.012-.006.013v.006l-.006.006H6.43M4.96 20.73l.116-.048.48-.17.873-.31M4.64 20.682l.072.042.079.025h.085l.085-.018M4.312 20.445l.14.103.187.134M4.312 20.445v-.018000000000000002l.012-.012.079-.042.085-.037M6.138 19.741l-.146.055-.182.06-.176.062-.182.066-.352.128-.612.224M6.138 19.741h.03l.012.013.007.005M5.628 18.88l-.127-.2-.042-.067-.037-.067-.024-.043M5.628 18.88l.018.03v.031l-.005.006-.007.006h-.006M3.62 19.693l.394-.152.813-.303.801-.285M3.274 19.638l.08.049.09.024h.097l.079-.018M3.007 19.414l.267.224M3.007 19.414l-.006-.006v-.012l.006-.013.024-.024.061-.03M5.343 18.492l-.667.236-.692.255-.516.2-.376.146M5.343 18.492l.018-.006.012.006.012.006.013.006M1.363 18.188l-.17-.224-.115-.261-.134-.546-.055-.564.007-.559M4.603 20.98l-1.14-.862-1.093-.922-1.007-1.008M5.082 21.088l-.121.013-.128-.013-.12-.042-.11-.067M7.12 20.755l-1.024.163-1.014.17M1.096 12.849l.085-1.135.079-1.14M.896 16.034l.097-1.583.103-1.602M42.803 19.85v-.005l.006-.019-.006-.012v-.012l-.012-.012-.012-.006M42.822 19.839l-.013.006-.005.006M7.181 19.85l-.012-.005-.012-.007" style="fill:none;stroke:#8a9199;stroke-width:.0423333;stroke-linecap:round;stroke-linejoin:round;stroke-miterlimit:10;stroke-dasharray:none;stroke-opacity:1"/><path d="M7.206 19.784H7.2l-.012.012-.007.012-.006.012v.013l.006.018M42.658 17.848l1.134.37M43.798 18.219l.013-.006h.005M6.186 18.219l1.141-.37M6.162 18.212h.013l.012.006M7.224 19.911l.006.006.012.007.012.005.019-.005M7.218 19.924v-.006l.006-.007M42.76 19.911l.007.006v.007" style="fill:none;stroke:#8a9199;stroke-width:.0423333;stroke-linecap:round;stroke-linejoin:round;stroke-miterlimit:10;stroke-dasharray:none;stroke-opacity:1"/><path d="m42.712 19.924.013.006.012-.006.012-.006.012-.007M7.436 17.982l-1.183.376M6.253 18.358l-.006.012v.006M43.738 18.376l-.006-.006v-.012M43.732 18.358l-1.184-.376M42.621 17.854h.006l.013-.006h.018" style="fill:none;stroke:#8a9199;stroke-width:.0423333;stroke-linecap:round;stroke-linejoin:round;stroke-miterlimit:10;stroke-dasharray:none;stroke-opacity:1"/><path d="M42.652 17.836v.006l.006.007M7.327 17.848v-.012M7.364 17.854h-.006l-.019-.006h-.012M7.364 17.836v.019M7.364 17.854l.079.05M42.536 17.903h.006M42.542 17.903l.08-.049M42.621 17.854v-.018000000000000002M7.442 17.903h.037M7.442 17.903l.013.006.005.012.007.012-.007.012-.005.019-.007.006-.012.012M7.473 17.982h-.037M42.549 17.982h-.037M42.549 17.982l-.013-.006-.005-.012-.013-.012v-.012l.006-.019.007-.012.005-.006M42.506 17.903h.03M46.359 15.057l-1.7 2.876-1.801 2.822M48.72 10.574l-1.148 2.263-1.213 2.22M48.707 10.367l.006.103.006.104M48.58 8.784l.06.789.067.794M1.278 10.367l.06-.795.067-.788M1.26 10.574l.012-.103.006-.104M1.26 10.574l1.147 2.263 1.22 2.22M3.626 15.057l1.699 2.876 1.796 2.822M41.9 19.96l-.08.049M41.905 19.96H41.9M8.164 20.008l-.085-.048M39.673 5.563v-.615M40.03 4.785v.556M39.673 5.386v-.4M10.185 4.858v.552M10.306 5.477v-.576M39.673 5.026v-.078M39.788 4.925l-.116.06M10.306 4.9l-.006.086M10.185 4.95v-.092M9.712 5.16v-.12M9.948 4.75v.54M9.712 4.646v.394M9.82 5.228v-.516M40.03 4.785l-.115.067M40.158 5.282v-.57M39.91 5.416V4.84M10.063 5.246v-.454M10.063 5.246v.091M40.273 4.646l-.115.066M10.185 5.41v-.09M10.3 5.386l.006.091M39.788 4.925v.55M10.185 4.925v.394M10.3 5.386v-.4M40.273 5.04v.163M40.273 4.646v.394M39.673 5.563v-.106M10.452 15.634V15.3M39.612 18.486h-.03M10.452 15.3l-.14-.127M10.452 8.693l-.753-.437M39.527 15.021v-.661M39.575 19.22h-.018l-.012.006-.012.012-.006.012v.012M10.452 18.589v.012l-.006.012-.013.012-.012.006M39.527 19.262v.073M39.527 19.262l-.012-.012-.006-.006M10.063 7.388v-.376M40.831 18.152l-.006.006-.012.012v.031l.006.011.012.012.013.007M10.312 14.894l.14.127M40.546 20.008l.085-.048M40.395 4.592v.63M40.395 5.222h-.013M40.382 6.805v.48M40.382 7.285l.013.006M39.673 7.203v-.006M39.673 7.197v.497M40.947 18.097h-.018l-.013.006M39.66 15.5v-.327M9.954 18.23h-.006l-.012-.005h-.018M8.2 17.976h-.005l-.013-.006H8.17M10.312 12.916l.14.127M10.397 19.596l-.127.036-.134.03-.127.037-.134.037-.12.036-.134.036-.128.037-.133.036M39.952 18.358l-.013-.006-.012-.006-.006-.012v-.031l.006-.012.012-.012M10.452 15.634v.14M10.312 15.5l.14.134M39.527 18.546v.043M41.82 20.008v.018000000000000002M41.82 20.008h-.006l-.012.006h-.018M39.527 18.892v.067M10.452 18.959v.012l-.006.018-.013.006-.012.006M10.312 13.953l.14.128M10.397 18.486h-.036000000000000004M40.631 19.96l.013-.006.005-.012.006-.012-.006-.019-.005-.012-.007-.012-.012-.006M40.668 19.954h-.006l-.03.006M40.152 6.947v.314M40.152 7.26v-.012M40.152 7.419V7.26M40.152 7.425v-.006M40.152 7.419l.006-.103M39.527 13.328l.133-.127M40.024 18.23l.018-.005h.013M39.575 19.596h-.018l-.012.006-.012.006-.006.012v.018M40.62 19.881h.005M40.625 19.881h.024l.012-.006M39.563 19.578l.013.012v.006M39.575 19.596h.006M40.62 19.881l-.128-.036-.128-.037-.133-.036-.128-.037-.133-.036-.127-.036-.134-.03-.127-.037M39.527 19.711v-.006M39.527 19.638v.067M39.527 19.638l-.012-.012-.006-.006M9.068 18.103l-.006-.006h-.03M39.66 14.894v-.662M39.764 14.797l-.103.097M39.66 14.894l-.133.127M39.527 15.021l-.006.006M39.557 19.377l-.012-.006-.012-.012-.006-.012v-.012M39.509 19.347l.006-.006.012-.006M40.158 7.315v-.358M39.557 18.631l-.012-.006-.012-.012-.006-.012v-.012M39.509 18.6l.006-.005.012-.007M10.312 12.916l-.103-.091M10.312 9.039v3.877M10.063 7.297v-.2M40.03 7.321v-.318M40.03 7.03v.2M39.557 19.748l.122.036.115.03.121.03.122.037.121.03.115.037.122.03.12.037M8.08 19.96h-.037000000000000005M8.08 19.96l-.007-.006-.012-.012v-.031l.006-.012.006-.006.012-.012M40.395 7.291l.006.425M40.152 7.419v.006M39.515 7.795l.864-.492M10.21 15.076l.102.097M10.312 15.5l-.103.049M10.312 15.173v.327M9.354 19.96l.079.049M9.354 19.96h-.006M39.527 18.892l-.012-.012-.006-.012M39.575 18.85h-.018l-.012.006-.012.006-.006.012v.018M9.068 18.085v.018000000000000002M9.147 18.152l-.079-.049M10.452 19.262v-.006l-.006-.012-.006-.012-.012-.006-.012-.006h-.019M10.452 8.577v.116M10.452 13.043v-4.35M10.452 13.043v.006M10.397 19.596l.013-.018h.005" style="fill:none;stroke:#8a9199;stroke-width:.0423333;stroke-linecap:round;stroke-linejoin:round;stroke-miterlimit:10;stroke-dasharray:none;stroke-opacity:1"/><path d="M10.452 19.638v-.006l-.006-.012-.006-.012-.012-.012h-.031M8.195 20.015h-.019l-.012-.006M8.158 20.027v-.013l.006-.005M40.03 7.003v.076M39.509 8.226l.006-.431M39.527 7.783l-.012.012M39.521 7.788l.022-2.834M39.527 15.3l.133-.127M39.66 15.173l.103-.097M10.452 7.048h.006M10.452 7.783V7.17M10.452 7.783l.006.012M10.452 4.828h.006M10.458 5.629v-.801M10.458 5.629h-.006M41.814 17.97l1.833.576M43.665 18.54l-.006.006h-.012M39.527 14.36l.133-.128M39.66 14.232l.103-.097M39.527 14.36h-.006M39.66 9.039l.62-.359M39.557 19.748l-.012.012h-.006M39.557 19.748l-.012-.006-.012-.007-.006-.012v-.012M39.509 19.717l.006-.006h.012M9.7 8.256v.425M40.273 6.897v.351M40.273 7.249v.103M40.273 7.352v.006M40.273 7.358v-.013M40.273 7.346v-.158M40.273 7.182v.006M40.28 8.256l-.753.437M39.915 7.297v-.2M39.915 7.137l-.006-.074M39.91 7.063v.325M39.788 7.17v.46M39.557 19.001l-.012-.006-.012-.006-.006-.012v-.018M39.509 18.97l.006-.005.012-.006M9.147 18.152h.03l.013.006M9.147 18.152l.013.006.006.012.006.012v.019l-.006.011-.013.012-.012.007M9.469 20.015H9.45l-.018-.006M9.432 20.027v-.018M10.452 15.021v.006M10.452 15.021v-.661M9.712 7.358l-.006-.013M9.596 7.285l-.006.006M9.596 6.725v.56M9.596 5.222H9.59M9.59 4.421v.801M9.59 4.421h.006M41.905 19.96l.006-.006.007-.012.006-.012v-.019l-.006-.012-.013-.006-.012-.012M41.942 19.96h-.037M10.312 13.953l-.103-.097M10.312 13.2v.753M10.452 19.711v.013l-.006.012-.013.006-.012.006M10.464 19.62l-.006.006-.006.012M10.452 19.705v-.067M10.452 19.705v.006M10.452 19.711h.006l.006.006M9.348 19.96l-.025-.006h-.012M9.348 19.96l-.006-.006-.007-.012-.005-.012v-.019l.005-.012.013-.012.012-.006M9.323 19.875l.03.006h.007M39.764 15.549l-.103-.049M39.527 15.634l.133-.134M41.814 17.97h-.018000000000000002l-.012.006M41.814 17.958v.012M9.954 18.219v.012M10.033 18.28l-.079-.05M10.033 18.28h.006M8.2 17.964v.012M8.2 17.976l.086.049M39.764 9.1l-.103-.061M39.66 12.916V9.039M39.764 12.825l-.103.09M39.66 12.916l-.133.127M10.21 9.1l.102-.061M9.7 8.68l.612.359M6.393 18.528l1.778-.558M8.17 17.97v-.013000000000000001M6.368 18.522l.006.006h.019M40.03 7.23v.091M39.91 7.388l.005-.09M10.063 7.012v.085M10.452 14.36l-.14-.128M40.158 7.018l-.006-.071M39.582 18.486l-.037.024M39.582 18.486v-.013000000000000001M40.382 8.08l-.103.176M40.28 8.68v-.424M40.382 8.741l-.103-.06M39.66 13.953l-.133.128M10.452 19.335v.012l-.006.012-.013.012-.012.006M10.464 19.244l-.006.006-.006.012M10.452 19.335v-.073M10.452 19.335l.006.006.006.006M10.397 18.473v.013000000000000001M10.428 18.51l-.03-.025M10.458 7.795l.006.43M9.712 7.352v.006M9.584 7.716l.006-.425M39.527 18.546l-.018-.012M39.527 18.546v-.018000000000000002l.006-.006.006-.006.006-.006M39.533 18.498l.012.012M39.66 13.2l.103-.102M39.66 13.953v-.752M39.764 13.856l-.103.097M40.795 18.158l.006-.006h.03M40.916 18.103l-.085.049M40.916 18.103v-.018000000000000002M39.52 15.773l.007-.14M39.527 15.634V15.3M39.527 15.3h-.006M10.04 18.28l.03.005h.006M10.04 18.28l.005.012.007.012.005.012v.012l-.005.012-.013.012-.012.006M9.827 7.419v.006M9.827 7.425v-.006M39.903 18.285h.006l.03-.006M40.024 18.23l-.085.05M40.024 18.23v-.012M9.469 20.015l.115-.037.122-.03.115-.036.121-.03.115-.037.122-.03.121-.031.121-.037M9.469 20.015l-.006.012" style="fill:none;stroke:#8a9199;stroke-width:.0423333;stroke-linecap:round;stroke-linejoin:round;stroke-miterlimit:10;stroke-dasharray:none;stroke-opacity:1"/><path d="m10.434 19.76-.013-.006v-.007M10.452 18.959v-.067M10.452 18.959l.006.006.006.006M10.428 18.51l.018-.013M10.452 18.546v-.012l-.006-.006v-.006l-.006-.006-.012-.006M40.546 20.008l.006.006v.012M40.546 20.008l-.012.006h-.018M40.516 20.027v-.013M39.527 13.043v-4.35M39.527 8.693l-.006-.116M39.527 13.043l-.006.006M10.464 18.534l-.012.012M10.452 18.589v-.043M10.452 18.589l.006.006.006.006M10.185 7.17v.358M10.185 7.17v-.091M10.185 7.461v-.382M10.185 7.467v-.006M10.185 7.467v.158M10.185 7.637v-.012M10.185 7.625v.012M10.185 7.625v-.097M10.452 18.892v-.006l-.006-.018-.006-.006-.012-.012h-.031M10.464 18.868l-.006.012-.006.012M39.673 7.203v-.006h.012M39.673 7.276v-.073M10.063 7.297v.091M10.21 14.135l.102.097M10.312 14.894l-.103-.097M10.312 14.232v.662M10.452 14.08v.007M10.452 14.08v-.752M10.21 13.098l.102.103M10.452 13.328l-.14-.127M10.452 13.328v-.006M10.306 7.152v.376M10.306 7.152l-.006.085M10.3 7.594v-.358M10.3 7.594l.006.103M10.306 7.698v.006M10.306 7.704v-.006M10.306 7.698V7.54M10.306 7.528v.012M39.527 14.08v-.752M39.527 13.328l-.006-.006M39.527 14.08l-.006.007M41.7 18.024l.084-.048M41.784 17.976l-.006-.006v-.006M9.82 7.413v-.498M9.712 6.897v.44M43.531 18.692v-.013h-.006v-.005M43.525 18.674l-1.814-.57M41.711 18.103h-.006M8.274 18.103l-1.82.57M6.453 18.674v.012l-.006.006M8.055 19.881h.031M8.086 19.881h.006M8.092 19.881l.248-.073M10.397 19.22l.013-.013.005-.005M8.334 19.796l.006.012M10.397 19.22l-.26.072-.256.067-.254.073-.261.073-.255.073-.261.072-.255.08-.255.078M39.563 19.201l.013.018M39.575 19.22h.006M41.644 19.808l-.254-.079-.261-.078-.255-.074-.261-.072-.255-.073-.26-.073-.262-.067-.255-.072M41.893 19.881h.037M41.65 19.796l-.005.012M41.644 19.808l.25.073M7.181 19.778h.013l.012.006M7.206 19.784l1.134-.352M10.397 18.85" style="fill:none;stroke:#8a9199;stroke-width:.0423333;stroke-linecap:round;stroke-linejoin:round;stroke-miterlimit:10;stroke-dasharray:none;stroke-opacity:1"/><path d="m10.397 18.85.013-.018h.005M8.334 19.414l.006.018M10.397 18.85l-.26.066-.256.073-.254.067-.261.073-.255.072-.261.073-.255.08-.255.078M42.779 19.784l.012-.006h.012M41.644 19.432l1.135.352M39.563 18.831l.013.013v.005M39.575 18.85h.006M41.644 19.432l-.254-.079-.261-.079-.255-.073-.261-.072-.255-.073-.26-.067-.262-.073-.255-.066M41.65 19.414l-.005.018M6.981 19.462l.006.006H7M7 19.468l1.34-.418M10.36 18.486l.007-.013v-.005M8.334 19.038l.006.012M10.36 18.486l-.254.066-.255.067-.249.067-.248.073-.255.072-.255.073-.255.073-.249.073M42.98 19.468h.017l.007-.006M41.644 19.05l1.335.419M39.612 18.467v.018M41.644 19.05l-.254-.073-.25-.073-.254-.073-.255-.073-.255-.072-.254-.067-.256-.067-.254-.066M41.65 19.038l-.005.012M9.918 18.225v-.013h.006M9.918 18.225l-.194.054-.195.055-.2.054-.2.055-.2.06-.194.055-.2.061-.195.055M6.775 19.147l.012.006.012.006M6.8 19.159l1.54-.485M8.334 18.661l.006.013M40.055 18.212v.013M41.644 18.674l-.2-.055-.194-.06-.2-.055-.194-.061-.2-.054-.2-.055-.2-.055-.201-.054M43.186 19.159l.012-.006.012-.006M41.65 18.661l-.005.013M41.644 18.674l1.541.485M6.569 18.837h.012l.012.006M6.593 18.844l1.747-.547M9.032 18.097v-.012M8.334 18.285l.006.013M9.032 18.097l-.085.025-.091.024-.085.024-.085.03-.09.025-.086.024-.085.024-.085.024M41.644 18.297l1.742.547M43.392 18.844l.012-.006h.006M40.947 18.085v.012M40.947 18.097h.006M41.644 18.297l-.085-.024-.09-.024-.086-.024-.084-.025-.085-.03-.091-.024-.085-.025-.085-.024M41.65 18.285l-.005.013M41.705 18.103h-.018l-.018.006M41.705 18.103l-.006-.006-.012-.012-.006-.012-.006-.012.006-.012.006-.012.012-.013" style="fill:none;stroke:#8a9199;stroke-width:.0423333;stroke-linecap:round;stroke-linejoin:round;stroke-miterlimit:10;stroke-dasharray:none;stroke-opacity:1"/><path d="m41.663 18.03.03-.006h.006M8.286 18.024h.018l.018.006M8.286 18.024l.006.006.012.012v.031l-.006.012-.012.012-.013.006M8.31 18.11l-.012-.007h-.024M10.434 19.39l-.013-.013M8.34 19.966l.255-.073.261-.079.26-.079.262-.072.26-.073.256-.073.26-.073.267-.066M39.952 18.358l.212.06.212.055.213.061.212.06.213.056.206.06.212.067.213.06M39.952 18.358l-.03.006h-.007M43.125 19.317v-.006l-.006-.012M43.119 19.299l-1.474-.462M41.638 18.85l.006-.013M8.34 19.966l-.145.049M8.195 20.015v.012M8.34 19.984v-.018M39.557 19.377l.261.067.261.073.261.073.26.072.262.074.26.078.262.08.26.072M39.557 19.377l-.012.006-.006.007M42.718 19.942v-.006l-.006-.012M42.712 19.924l-1.068-.334M39.557 19.001l.261.073.261.067.261.073.26.072.262.073.26.079.262.073.26.079M39.557 19.001l-.012.013M41.638 19.608l.006-.018M42.925 19.632l-.006-.012v-.006M42.919 19.614l-1.275-.4M39.557 18.631l.261.067.261.073.261.067.26.072.262.073.26.079.262.073.26.079M39.557 18.631l-.012.006v.007M41.638 19.226l.006-.013M41.79 20.027v-.006l-.006-.007M41.784 20.015l-.14-.05M41.638 19.984l.006-.018M43.362 19.013l-.006-.006v-.012M43.355 18.995l-1.71-.534M40.844 18.23h-.037M41.638 18.473l.006-.012M40.844 18.23l.103.025.097.03.103.03.097.031.103.024.097.03.103.03.097.031M8.34 18.837l-1.474.462M6.86 19.299v.012l-.006.006M10.063 18.364l-.03-.006h-.006M8.34 18.837l.207-.06.212-.067.212-.06.213-.055.212-.061.213-.06.206-.055.212-.061M8.34 18.85v-.013M8.34 18.461l-1.68.522M6.66 18.983l-.006.012v.006M9.178 18.23H9.14M8.34 18.461l.097-.03.103-.03.098-.03.103-.025.097-.03.103-.03.097-.031.103-.024M8.34 18.473v-.012M8.34 19.59l-1.068.334M7.272 19.924l-.006.012v.005M10.434 19.013l-.013-.006v-.006M8.34 19.59l.255-.08.261-.072.26-.079.262-.073.26-.073.256-.072.26-.067.267-.073M8.34 19.608v-.018M8.34 19.214l-1.274.4M7.066 19.614v.006H7.06v.012M10.434 18.643l-.013-.012M8.34 19.214l.255-.08.261-.072.26-.08.262-.072.26-.073.256-.066.26-.073.267-.067M8.34 19.226v-.013M42.445.75l.4-.006M7.54.75 7.132.744M7.12 20.755l.177-.025.182-.018M42.858 20.755l-.176-.025-.176-.018M9.596 8.08v.661M9.596 8.08l.856.497M10.452 13.05V8.576M10.21 12.825l.242.224M10.21 9.1v3.725M9.596 8.741l.613.358M10.464 8.226l-.88-.51M10.21 14.135v.662M10.452 14.36l-.243-.225M10.452 15.027v-.667M10.21 14.797l.242.23M10.452 15.3l-.243-.224M10.452 15.773V15.3M10.21 15.549l.242.224M10.21 15.076v.473M10.21 13.856l.242.23M10.21 13.098v.758M10.452 13.322l-.243-.224M10.452 14.087v-.765M39.2 19.826l-.007.037-.012.036-.018.03-.018.03-.03.025-.037.018-.036.012-.037.007M10.974 20.02h28.031M10.974 20.02l-.043-.005-.036-.012-.03-.019-.031-.024-.024-.03-.018-.03-.013-.037v-.037M10.78 1.903v17.923M10.78 1.903v-.042l.012-.037.018-.03.024-.03.03-.024.03-.019.037-.012h.043M39.509 8.226l.892-.51M39.52 13.322l.244-.224M39.764 13.098v.758M39.764 13.856l-.243.23M39.52 14.087v-.765M39.764 15.549l-.243.224M39.52 15.773V15.3M39.52 15.3l.244-.224M39.764 15.076v.473M39.52 15.027v-.667M39.52 14.36l.244-.225M39.764 14.135v.662M39.764 14.797l-.243.23M40.382 8.741l-.618.358M39.764 9.1v3.725M39.764 12.825l-.243.224M39.52 13.05V8.576M40.382 8.08l-.861.497M40.382 8.08v.661M10.434 19.76l-.122.03-.121.036-.121.03-.122.037-.121.03-.116.037-.127.036-.121.03M9.463 20.027l-.013.006-.012-.006h-.006M9.432 20.027l-.12-.073M9.311 19.954l-.012-.006-.006-.012v-.031l.006-.012.012-.012.013-.006M9.323 19.875l.134-.036.14-.037.139-.042.127-.037.14-.036.133-.036.14-.037.14-.036" style="fill:none;stroke:#8a9199;stroke-width:.0423333;stroke-linecap:round;stroke-linejoin:round;stroke-miterlimit:10;stroke-dasharray:none;stroke-opacity:1"/><path d="M10.415 19.578h.025l.012.006.012.012v.024M10.464 19.62v.097M10.464 19.717v.018l-.006.013-.012.006-.012.006M40.516 20.027l-.121-.03-.122-.037-.121-.036-.122-.03-.12-.037-.122-.03-.122-.037-.127-.03M39.54 19.76l-.013-.006-.006-.007-.006-.018-.006-.012M39.509 19.717v-.097M39.509 19.62l.006-.018.006-.012.012-.006.012-.006h.018000000000000002M39.563 19.578l.14.036.133.036.14.037.14.036.133.037.14.042.133.037.14.036M40.662 19.875l.012.012.012.006.006.018v.013l-.006.012-.007.012-.012.006M40.668 19.954l-.116.073M40.552 20.027h-.036M41.644 18.085l-.006-.012v-.012l.006-.012v-.006M8.34 18.043v.018l.006.012-.006.012M8.34 18.285l.085-.024.085-.03.091-.025.085-.024.085-.024.091-.024.085-.025.085-.024M9.032 18.085l.018-.006.012.006h.006M9.068 18.085l.122.073M9.19 18.158l.006.006.012.012v.031l-.006.012-.012.006-.013.006" style="fill:none;stroke:#8a9199;stroke-width:.0423333;stroke-linecap:round;stroke-linejoin:round;stroke-miterlimit:10;stroke-dasharray:none;stroke-opacity:1"/><path d="m9.178 18.23-.103.031-.11.03-.103.03-.103.031-.103.03-.103.03-.11.031-.103.03M8.34 18.661l.195-.06.2-.055.2-.06.194-.055.2-.055.2-.054.2-.055.195-.055M9.924 18.212h.024l.006.006M9.954 18.219l.122.066M10.076 18.285l.012.013.006.012v.024l-.006.012-.012.012-.013.006M10.063 18.364l-.218.06-.206.056-.219.06-.218.06-.212.062-.219.06-.212.067-.218.06M8.34 19.038l.25-.073.254-.079.255-.073.255-.067.255-.072.248-.073.255-.067.255-.067" style="fill:none;stroke:#8a9199;stroke-width:.0423333;stroke-linecap:round;stroke-linejoin:round;stroke-miterlimit:10;stroke-dasharray:none;stroke-opacity:1"/><path d="M10.367 18.467h.012l.012.006h.006M10.397 18.473l.049.025M10.446 18.498l.006.006.006.006.006.012v.012M10.464 18.534v.067M10.464 18.6v.013l-.006.012-.012.012-.012.006M10.434 18.643l-.261.067-.267.067-.255.073-.26.072-.262.08-.267.072-.26.079-.262.073M8.34 19.232v-.006M8.34 19.414l.255-.08.261-.072.26-.079.262-.073.26-.073.25-.066.267-.073.26-.067M10.415 18.831l.013-.006.012.006.012.006.012.012v.019M10.464 18.868v.103M10.464 18.97v.019l-.006.012-.012.006-.012.006M10.434 19.013l-.261.067-.267.073-.255.073-.26.072-.262.073-.267.08-.26.078-.262.079M8.34 19.79l.255-.079.261-.073.26-.079.262-.072.26-.073.25-.073.26-.067.267-.072M10.415 19.201h.013l.012.006.012.007.012.012v.018000000000000002M10.464 19.244v.103M10.464 19.347v.012l-.006.012-.012.012-.012.006M10.434 19.39l-.261.066-.267.073-.255.073-.26.073-.262.073-.267.078-.26.08-.262.078M41.644 19.984h-.006M41.638 19.984l-.26-.079-.261-.079-.261-.079-.261-.072-.261-.073-.267-.073-.26-.073-.268-.066M39.54 19.39l-.013-.006-.006-.012-.006-.013-.006-.012M39.509 19.347v-.103M39.509 19.244l.006-.012.006-.012.012-.012.012-.006h.018000000000000002M39.563 19.201l.261.073.261.067.261.073.26.073.262.073.26.078.256.073.26.079M41.644 19.608h-.006M41.638 19.608l-.26-.079-.261-.079-.261-.079-.261-.072-.261-.073-.267-.073-.26-.073-.262-.066M39.545 19.013l-.018-.006-.006-.012-.006-.012-.006-.012M39.509 18.97v-.102M39.509 18.868l.006-.013.006-.012.012-.012h.012l.012-.006.006.006M39.563 18.831l.261.067.261.073.261.067.26.072.262.073.26.08.256.072.26.079M41.644 19.232l-.006-.006M41.638 19.226l-.26-.073-.261-.079-.261-.073-.261-.079-.261-.073-.267-.072-.26-.067-.262-.067M39.545 18.643l-.018-.006-.006-.012-.006-.012-.006-.012M39.509 18.6v-.066M39.509 18.534v-.006l.006-.006.006-.012.006-.006.006-.006M39.533 18.498l.049-.025M39.582 18.473l.012-.006h.018000000000000002M39.612 18.467l.255.067.255.067.254.073.255.072.255.067.255.073.249.079.254.073M41.644 18.85h-.006M41.638 18.85l-.212-.061-.218-.067-.213-.06-.218-.061-.212-.06-.219-.061-.219-.055-.212-.06M39.915 18.364l-.018-.006-.012-.012-.006-.012v-.012l.006-.013.006-.012.012-.012M39.903 18.285l.121-.066M40.024 18.219l.013-.006h.018000000000000002M40.055 18.212l.2.055.2.055.2.054.195.055.2.055.2.06.194.055.2.06M41.644 18.473h-.006M41.638 18.473l-.103-.03-.103-.03-.103-.03-.103-.031-.11-.03-.103-.03-.103-.031-.103-.03M40.807 18.23l-.018-.005-.006-.007-.006-.018-.006-.012.006-.012.006-.012.012-.006M40.795 18.158l.121-.073M40.916 18.085l.013-.006h.012l.006.006M40.947 18.085l.09.024.086.025.085.024.09.024.085.024.085.025.091.03.085.024M24.99 20.694h16.654M24.99 20.694H8.34M42.852.744l-.036.37M47.918 2.267l.037.213.036.212M2.06 2.267l1.657-.6 1.693-.51L7.133.744M2.06 2.267l-.066.425M7.133.744l.036.37M43.817 18.212l-.389-.133-.394-.128-.382-.115M43.817 18.212l.012.006.012.007.006.018v.012l-.006.012v.006" style="fill:none;stroke:#8a9199;stroke-width:.0423333;stroke-linecap:round;stroke-linejoin:round;stroke-miterlimit:10;stroke-dasharray:none;stroke-opacity:1"/><path d="m43.786 18.358.018-.03.03-.049.007-.006M43.786 18.358l-.012.012-.012.006h-.024M42.512 17.982l.37.115.443.146.413.133M42.512 17.982l-.012-.006-.012-.012-.006-.012v-.012l.006-.013.006-.012.012-.012" style="fill:none;stroke:#8a9199;stroke-width:.0423333;stroke-linecap:round;stroke-linejoin:round;stroke-miterlimit:10;stroke-dasharray:none;stroke-opacity:1"/><path d="m42.621 17.836-.042.025-.06.036-.013.006M42.621 17.836h.031M43.58 18.674l.012-.018.037-.061.036-.055M43.58 18.674l-.006.006-.012.012h-.031M43.531 18.692l-1.862-.583M41.669 18.11l-.013-.007-.012-.012v-.006M41.644 18.285h.006M43.41 18.837l-.358-.115-.82-.261-.582-.176M43.41 18.837l.012.006.012.013.006.012v.012l-.006.012v.006M43.362 19.013l.036-.054.03-.055.006-.006M41.644 18.473l.534.164.789.25.394.126M41.644 18.661h.006M43.21 19.147l-.322-.103-.752-.237-.485-.146M43.21 19.147l.012.012.006.006.006.012v.03l-.006.006M43.173 19.299l.018-.03.037-.05v-.005M43.173 19.299l-.006.012-.012.006h-.03M41.644 18.85l.431.133.722.225.328.109M41.644 19.038h.006M43.004 19.462l-.292-.09-.685-.219-.376-.115M43.004 19.462l.012.006.012.012.006.013v.012l-.006.018v.006" style="fill:none;stroke:#8a9199;stroke-width:.0423333;stroke-linecap:round;stroke-linejoin:round;stroke-miterlimit:10;stroke-dasharray:none;stroke-opacity:1"/><path d="m42.973 19.614.018-.03.03-.055h.007M42.973 19.614l-.012.006-.012.012h-.024" style="fill:none;stroke:#8a9199;stroke-width:.0423333;stroke-linecap:round;stroke-linejoin:round;stroke-miterlimit:10;stroke-dasharray:none;stroke-opacity:1"/><path d="m41.644 19.232.316.097.334.097.327.11.304.096M41.644 19.414h.006M42.803 19.778l-.267-.085-.31-.103-.315-.097-.26-.08M42.803 19.778l.013.006.005.012.007.012v.025l-.007.006" style="fill:none;stroke:#8a9199;stroke-width:.0423333;stroke-linecap:round;stroke-linejoin:round;stroke-miterlimit:10;stroke-dasharray:none;stroke-opacity:1"/><path d="m42.767 19.924.018-.025.037-.055v-.006M42.767 19.924l-.006.012-.018.005-.012.007-.013-.007M41.644 19.608l.195.055.303.097.303.097.273.085M41.644 19.79l.006.006M41.93 19.881l-.03-.012-.122-.037-.127-.036M41.93 19.881l.012.006.012.012.006.012v.025l-.012.012-.006.012M41.82 20.027l.043-.025.054-.03.025-.012M41.82 20.027h-.03M41.644 19.984l.043.013.06.018.043.012M42.506 20.712l-.43-.018h-.431M48.58 8.784l-.28 1.074-.358 1.037-.43 1.068-.45 1.007-.497 1.013-.522 1.007-1.098 1.948-1.183 1.906-1.256 1.868M47.991 2.692l.588 6.092M47.991 2.692l-.176-.067M47.815 2.625l-1.632-.6-1.669-.504-1.699-.407M42.815 1.114h-.37M41.644 18.043l.013-.013h.005M41.778 17.964l-.036.018-.05.03-.03.018M41.778 17.964l.012-.006h.024" style="fill:none;stroke:#8a9199;stroke-width:.0423333;stroke-linecap:round;stroke-linejoin:round;stroke-miterlimit:10;stroke-dasharray:none;stroke-opacity:1"/><path d="m43.665 18.54-.45-.146-.709-.224-.692-.212M10.986 1.114H8.34M24.99 1.114H10.968M24.99.75H8.34M8.34.75h-.8M7.54.75v.365M24.99 1.114h16.654M42.445 1.114h-.8M42.445.75v.365M41.644.75h.795M24.99.75h16.654M24.99.75v.365M8.34 18.085l-.012.012-.012.006-.006.006M8.31 18.11l-1.863.582M6.447 18.692h-.012l-.012-.006-.012-.007-.012-.005M6.344 18.589l.006.006.03.048.019.03M6.344 18.589l-.006-.013v-.018l.006-.012.006-.012.012-.006.007-.006M8.17 17.958l-.436.133-.71.218-.656.213M8.17 17.958h.031v.006M8.322 18.03l-.024-.018-.055-.03-.042-.018M8.322 18.03l.012.006.006.007M7.54 1.114h.8M7.17 1.114h.37M2.164 2.625l1.638-.6L5.47 1.52l1.7-.407M1.994 2.692l.17-.067M1.994 2.692l-.073.65M1.63 6.223l-.225 2.56" style="fill:none;stroke:#8a9199;stroke-width:.0423333;stroke-linecap:round;stroke-linejoin:round;stroke-miterlimit:10;stroke-dasharray:none;stroke-opacity:1"/><path d="m1.405 8.784.28 1.074.357 1.037.431 1.068.45 1.007.49 1.013.522 1.007 1.105 1.948 1.183 1.906 1.256 1.868M7.479 20.712l.43-.018h.431M8.195 20.027l.042-.013.06-.018.043-.012M8.195 20.027l-.013.006-.018-.006h-.006M8.043 19.96l.03.012.05.03.035.025M8.043 19.96l-.012-.012-.006-.012-.006-.018.006-.013.006-.012.012-.006.012-.006M8.334 19.796h-.006l-.121.036-.121.037-.03.012M8.334 19.796l.006-.006M7.266 19.942l.273-.085.304-.097.303-.097.194-.055M7.266 19.942l-.018.006-.012-.006-.012-.006-.006-.012M7.157 19.839l.006.012.037.048.018.025M7.157 19.839l-.006-.013v-.012l.006-.018.006-.006.013-.012h.006M8.334 19.414l-.26.079-.316.097-.316.103-.26.085M8.334 19.414h.006M7.06 19.632l.298-.097.333-.11.328-.096.321-.097M7.06 19.632h-.012l-.018-.006-.012-.006-.007-.006M6.957 19.53l.006.005.03.055.019.024M6.957 19.53l-.006-.019v-.024l.012-.013.012-.012h.006M8.334 19.038l-.382.115-.686.218-.285.091M8.334 19.038h.006M6.854 19.317l.334-.11.722-.224.43-.133M6.854 19.317H6.83l-.012-.006-.013-.012M6.75 19.214l.007.012.036.048.012.025M6.75 19.214l-.005-.013v-.018l.006-.012.006-.012.012-.006.006-.006M8.334 18.661l-.485.146-.753.237-.321.103M8.334 18.661h.006M6.654 19.001l.364-.115.788-.249.534-.163M6.654 19.001l-.013.006-.018-.006-.012-.006-.006-.012" style="fill:none;stroke:#8a9199;stroke-width:.0423333;stroke-linecap:round;stroke-linejoin:round;stroke-miterlimit:10;stroke-dasharray:none;stroke-opacity:1"/><path d="m6.55 18.898.006.012.03.049.02.024M6.55 18.898l-.006-.012v-.03l.012-.007.012-.012M8.334 18.285l-.582.176-.825.261-.358.115M8.334 18.285h.006M7.327 17.836l-.425.134-.394.127-.346.116M7.327 17.836l.018-.006.012.006h.006M7.479 17.903l-.03-.018-.055-.024-.03-.025M7.479 17.903l.012.012.006.012.006.018-.006.013-.006.012-.006.006-.012.006M6.247 18.376l.425-.14.449-.145.352-.11M6.247 18.376h-.03l-.012-.006-.007-.012M6.144 18.273l.006.013.03.048.019.024M6.144 18.273l-.006-.012v-.03l.012-.013.006-.006h.006M8.34 8.371l.17.316.134.333.073.352.03.358-.03.358-.073.346-.134.34-.17.31M1.63 6.223l-.134-.4-.066-.419.024-.874.212-.746.255-.443" style="fill:none;stroke:#8a9199;stroke-width:.0423333;stroke-linecap:round;stroke-linejoin:round;stroke-miterlimit:10;stroke-dasharray:none;stroke-opacity:1"/><path d="M39.666 6.879V5.756M39.666 5.756l.577-.334M40.243 6.545l-.577.334M40.243 5.422v1.123M39.666 4.628V3.087M39.666 3.086l.577.334M40.243 4.294l-.577.334M40.243 3.42v.874" style="fill:none;stroke:#899099;stroke-width:.0423333;stroke-linecap:round;stroke-linejoin:round;stroke-miterlimit:10;stroke-dasharray:none;stroke-opacity:1"/><path d="M10.968 1.727h-.037l-.03.013-.03.012-.025.024-.024.024-.012.03-.012.03v.037M10.798 1.897v17.93M10.798 19.826v.037l.012.03.012.03.024.025.024.024.03.018.031.006.036.007M10.968 20.002H39.01M39.011 20.002l.03-.006.03-.006.031-.018.03-.024.019-.025.018-.03.006-.03.006-.037M11.623 3.323v15.078M11.623 18.4h26.733M39.181 4.015h.018M39.2 3.499h-.019M39.181 5.131h.018M39.2 4.615h-.019M39.181 6.248h.018M39.2 5.732h-.019M39.181 7.364h.018M39.2 6.848h-.019M39.181 8.486h.018M39.2 7.97h-.019M10.798 4.494h-.018M10.78 4.888h.017M10.798 5.32h-.018M10.78 5.714h.017M10.798 6.144h-.018M10.78 6.539h.017M10.798 6.97h-.018M10.78 7.364h.017M10.798 7.795h-.018M10.78 8.19h.017M10.798 8.62h-.018M10.78 9.014h.017M10.78 9.53l.017.03M10.78 9.451h.005l.007-.006h.012M39.181 15.19h.018M39.2 14.675h-.019M39.181 16.307h.018M39.2 15.792h-.019M39.181 17.43h.018M39.2 16.914h-.019M39.2 3.457h-.019M39.181 4.045h.018M10.78 4.1h.017M10.798 4.033l-.018-.03M39.193 18.534h-.012M39.193 18.534h.006M39.181 18.765l.018.03M10.798 4.458h-.018M39.2 4.579h-.019M10.78 4.925h.017M39.181 5.168h.018M10.798 5.283h-.018M39.2 5.695h-.019M10.78 5.75h.017M10.798 6.108h-.018M39.181 6.284h.018M10.78 6.575h.017M39.2 6.812h-.019M10.798 6.933h-.018M10.78 7.4h.017M39.181 7.4h.018M10.798 7.758h-.018M39.2 7.928h-.019M10.78 8.226h.017M39.181 8.517h.018M10.798 8.583h-.018M10.78 9.05h.017M10.798 9.409h-.018M10.78 9.603l.017.03M39.2 12.4h-.019M39.2 14.639h-.019M39.181 15.227h.018M39.2 15.755h-.019M39.181 16.344h.018M39.2 16.872h-.019M39.181 17.46h.018M39.181 18.837l.018.025M39.2 18.498h-.019M39.2 18.498v-.025M10.78 11.053l.017-.03M10.798 10.24l-.018-.03M39.181 10.24l.018-.03M39.2 11.053l-.019-.03M10.78 6.587h.017M10.798 6.09h-.018M10.78 4.937h.017M10.798 4.44h-.018M10.798 6.921h-.018M10.78 7.412h.017M10.798 5.265h-.018M10.78 5.762h.017M10.78 8.238h.017M10.798 7.746h-.018M10.798 8.571h-.018M10.78 9.063h.017M10.78 9.633l.017.03M10.798 9.397h-.018M10.798 4.003l-.018-.03M10.78 4.112h.017M39.181 18.874l.006.018M39.2 18.473l-.019.006M39.187 18.892l.012.006M39.181 8.541h.018M39.2 7.91h-.019M39.2 4.555h-.019M39.181 5.186h.018M39.181 4.07h.018M39.2 3.438h-.019M39.181 6.302h.018M39.2 5.677h-.019M39.181 7.419h.018M39.2 6.794h-.019M39.181 16.362h.018M39.2 15.737h-.019M39.2 12.382h-.019M39.2 14.615h-.019M39.181 15.246h.018M39.2 16.853h-.019M39.181 17.478h.018M39.2 11.071l-.019-.03M39.181 10.222l.018-.025M10.798 10.222l-.018-.025M10.78 11.071l.017-.03M49.52 17.83l.067-.133M29.728 20.002v.018M10.798 19.256h-.018M39.181 19.153h.018M29.813 20.002l-.006.018M49.587 17.697l.054-.103.043-.11M.932 2.82l.018-.037M.932 2.82l-.012.03M.92 2.85l-.006.03M3.893 20.894l-1.402-1.08M44.241 21.35v.012M1.624 1.776l-.013.006-.006.006-.006.006-.006.012-.006.012-.006.007v.012l-.006.012M5.203.399V.386v.007M1.654 1.806l-.024-.024-.006-.006M1.575 1.849l.03.03M1.654 1.806l-.018.013-.018.018-.006.018-.007.024M1.678 1.83l-.018.013-.018.018-.006.024-.006.018M1.63 1.903l.036.018h.049l.084-.012.122-.036.176-.067M7.042.301h.012l.018.006.012.007.013.012.012.012.006.012.012.012V.38M7.042.447 7.127.38M1.678 1.83l-.024-.024M2.073 1.733l-.158.061-.097.036-.067.019h-.036l-.037-.019M7.042.301l-.08.055-.011.006" style="fill:none;stroke:#8a9199;stroke-width:.0423333;stroke-linecap:round;stroke-linejoin:round;stroke-miterlimit:10;stroke-dasharray:none;stroke-opacity:1"/><path d="M7.048.277V.29l-.006.012M6.95.362l.02.006h.011L7 .38l.012.006.012.012.006.019.012.012v.018M6.95.362v.006L6.928.38l-.025.006-.03.006" style="fill:none;stroke:#8a9199;stroke-width:.0423333;stroke-linecap:round;stroke-linejoin:round;stroke-miterlimit:10;stroke-dasharray:none;stroke-opacity:1"/><path d="m6.884.471.06-.006.05-.006.036-.012h.012M6.872.392v.006l.006.007v.041999999999999996l.006.012v.013M6.872.392 5.203.72l-1.176.322-1.16.382-.795.31" style="fill:none;stroke:#8a9199;stroke-width:.0423333;stroke-linecap:round;stroke-linejoin:round;stroke-miterlimit:10;stroke-dasharray:none;stroke-opacity:1"/><path d="m2.073 1.733.006.013v.018l.006.018.012.024M2.097 1.806l.789-.303 1.153-.383L5.216.8 6.884.471M48.361 1.776l.006.006.012.006.006.006.006.012.006.012.006.007v.024M48.33 1.806l.025-.024.006-.006M48.404 1.849l-.025.03M48.38 1.879l-.031.024M48.33 1.806l.019.013.012.018.012.018.006.024M48.349 1.903l-.036.018h-.05l-.084-.012-.121-.036-.17-.067M48.306 1.83l.018.013.013.018.012.024v.018M42.943.301h-.018l-.012.006-.012.007-.013.012-.012.012-.012.012-.006.012-.006.018M42.937.447 42.852.38" style="fill:none;stroke:#8a9199;stroke-width:.0423333;stroke-linecap:round;stroke-linejoin:round;stroke-miterlimit:10;stroke-dasharray:none;stroke-opacity:1"/><path d="M42.937.277 42.93.29l.012.012M42.943.301l.073.055.012.006M47.906 1.733l.164.061.097.036.06.019h.043l.036-.019M48.306 1.83l.025-.024M44.781.447l1.833.6 1.717.759M43.028.362l.006.006.018.012.03.006.025.006M43.1.471l-.06-.006-.049-.006-.042-.012h-.012M47.906 1.733v.013l-.006.018-.006.018-.006.024" style="fill:none;stroke:#8a9199;stroke-width:.0423333;stroke-linecap:round;stroke-linejoin:round;stroke-miterlimit:10;stroke-dasharray:none;stroke-opacity:1"/><path d="M43.107.392 44.78.72l1.178.322 1.158.382.79.31" style="fill:none;stroke:#8a9199;stroke-width:.0423333;stroke-linecap:round;stroke-linejoin:round;stroke-miterlimit:10;stroke-dasharray:none;stroke-opacity:1"/><path d="m47.888 1.806-.789-.303-1.153-.383L44.77.8 43.101.471M20.712.483l-.006-.006V.471M18.594.483V.477l-.006-.006M29.2.483V.471M14.36.483V.471M27.077.483V.477L27.07.471M33.453.483V.477l-.006-.006M39.824.483V.471M16.477.483V.471h-.006M31.324.483V.471M24.953.483V.477l-.006-.006M22.823.483V.471M41.96.483V.477l-.006-.006M8.104.483V.477L8.098.471M10.118.465h-.34M8.037.465h-.346M29.14.465h-.352M41.893.465h-.345M33.387.465h-.346M27.01.465h-.346M20.645.465H20.3M22.763.465h-.346M31.263.465h-.346M18.528.465h-.346M14.299.465h-.346M24.886.465h-.345M12.272.483l-.006-.006h-.012v.006l-.006.013M10.185.483l-.006-.006h-.013000000000000001l-.006.006v.013M12.205.465h-.345" style="fill:none;stroke:#8a9199;stroke-width:.0423333;stroke-linecap:round;stroke-linejoin:round;stroke-miterlimit:10;stroke-dasharray:none;stroke-opacity:1"/><path d="M12.205.465h.018l.007.006h.006l.006.007v.006l.006.006v.006M10.118.465h.012l.006.006h.006l.006.007.006.006.006.006v.006M8.073.496V.483L8.067.478 8.061.47h-.006L8.05.465h-.012M41.93.496V.49l-.006-.007V.478L41.917.47h-.005l-.007-.006h-.012M39.806.496 39.8.49V.483l-.006-.005-.006-.007h-.006l-.006-.006h-.012M20.688.496V.49l-.006-.007-.007-.005L20.67.47h-.007l-.006-.006h-.012M22.805.496 22.8.49V.483l-.006-.005-.006-.007h-.006l-.006-.006h-.012M27.052.496V.49l-.006-.007V.478L27.04.47h-.006l-.006-.006h-.018000000000000002M16.453.496V.49l-.006-.007V.478L16.44.47h-.006l-.006-.006h-.012M18.57.496V.49l-.006-.007-.006-.005V.47h-.006l-.006-.006h-.018000000000000002M33.43.496V.49l-.007-.007-.006-.005L33.41.47h-.006l-.006-.006h-.012M29.176.496V.49L29.17.483V.478L29.164.47h-.006l-.006-.006h-.012M31.306.496 31.3.49V.483l-.007-.005-.005-.007h-.007l-.006-.006h-.012M14.341.496 14.335.49V.483l-.006-.005-.006-.007h-.006L14.31.465h-.012M24.929.496V.49l-.006-.007-.007-.005-.005-.007h-.007l-.006-.006h-.012M8.104.483 8.098.477h-.012l-.007.006-.006.013" style="fill:none;stroke:#8a9199;stroke-width:.0423333;stroke-linecap:round;stroke-linejoin:round;stroke-miterlimit:10;stroke-dasharray:none;stroke-opacity:1"/><path d="m20.712.483-.006-.006h-.013000000000000001l-.006.006v.013M18.594.483l-.006-.006h-.012l-.006.006v.013M41.96.483l-.006-.006h-.018000000000000002v.006l-.006.013M29.2.483l-.006-.006h-.012v.006l-.006.013M16.477.483 16.47.477h-.012v.006l-.007.013M22.823.483V.477h-.012l-.006.006v.013M27.077.483 27.07.477h-.012v.006l-.007.013M31.324.483V.477h-.013000000000000001l-.006.006v.013M33.453.483l-.006-.006h-.012l-.006.006v.013M39.824.483V.477h-.012l-.006.006v.013M14.36.483V.477h-.019000000000000003v.019M24.953.483l-.006-.006h-.012l-.006.006v.013M14.462.465h.05499999999999999V.46h-.10300000000000001v.006h.048M14.978.465h.055V.46h-.10300000000000002v.006h.048M16.016.465h.047999999999999994V.46h-.10300000000000002v.006h.05499999999999999M15.5.465h.048999999999999995V.46h-.10400000000000002v.006h.05500000000000001M18.036.465h.048999999999999995V.46h-.10400000000000002v.006h.05500000000000001M32.392.568V.562M32.076.568V.562M25.105.593V.556M23.23.593V.556M25.948.593V.556M26.154.593V.556M18.588.599h-1.11M32.392.568V.562M32.076.568V.562M24.668.593V.556M24.65.605V.568M24.504.593V.556M24.522.605V.568M32.446.58V.569M32.028.58V.569M32.046.587V.574M32.046.587V.574M32.046.587V.574M32.052.587V.574M32.052.587V.574M24.935.587V.58M23.06.587V.58M32.422.587V.574M32.41.593V.58M25.711.587V.58M23.448.61V.576M19.134.587V.58M26.391.58V.557M26.397.61V.58M32.052.587V.574M32.076.593V.58M32.076.593V.58M32.404.593V.58M32.398.593V.58M32.076.593V.58M32.392.593V.58M32.392.593V.587M32.392.593V.587M32.082.593V.58M32.392.593V.587M32.082.593V.587M32.082.593V.587M32.088.593V.587M32.094.593V.587M32.094.593V.587M32.1.593V.587M17.478.562V.6M18.588.562V.6M32.386.593V.587M19.207.574V.562M32.1.593V.587M32.343.593V.587M32.343.593V.587M32.343.593V.587M32.337.593V.587M32.337.593V.587M32.337.593V.587M24.158.587V.562M24.243.61V.588M24.025.61V.588M24.11.587V.562M32.125.593V.587M32.33.593V.587M32.137.593V.587M23.6.605V.587M23.448.593V.556M32.33.593V.587M32.137.593V.587M32.143.599V.593M24.631.574h-.09M24.54.61V.576M24.54.574 24.59.6M24.589.61V.6M24.631.61V.576M24.589.599l.042-.025M32.149.599V.593M10.276.556l.006.006h.006L10.3.57l.006.006V.58l.006.006.006.006v.012M32.307.605V.599M32.258.605V.599M32.264.605V.599M32.27.605V.599M32.307.599H32.3M32.3.599h-.005M32.295.599h-.006M32.288.599h-.012M32.276.599h-.012M32.264.599h-.006M32.258.599h.006M32.264.599h.006M32.27.599h.006M32.276.599h.013000000000000001M32.288.599h.013000000000000001M32.3.599h.007M26.907.61V.6M26.81.61V.6M25.711.61V.6M24.935.61V.6M25.062.61V.6M23.06.61V.6M23.187.61V.6M26.403.61V.6M26.524.61V.6M19.068.61V.606M19.201.593V.587M16.337.574l-.018.03M14.159.605l-.018-.03M39.57.568h.012M19.11.61V.606M24.025.593h-.085M24.334.593h-.09M23.86.593h-.096M23.448.593h-.085M23.69.593h-.09M26.907.593h-.097M25.948.593h-.05499999999999999l-.006.006M26.215.599l-.006-.006h-.05500000000000001M25.984.593h-.036M26.154.593h-.036M25.808.593h-.097M24.504.593h-.006M24.674.593h-.006M24.668.593l-.018.012M24.54.605h-.018M24.65.605h-.019M24.522.605l-.018-.013M23.284.599l-.006-.006h-.048M23.23.593h-.042M25.16.599V.593h-.05500000000000001M25.105.593h-.043M26.622.593h-.098M26.403.593h-.006M39.424.605h.006M19.025.61V.6M18.867.599h.006l.007-.006h.012M17.175.593h.017l.007.006h.006M33.508.617V.61l-.055-.012-.097-.012-.133-.006h-.152M32.986.58l-.14.007-.114.006-.074.012-.03.012M7.357.617h.006M42.627.617h-.006M18.121.55h-.03l-.012.006h-.091L17.975.55h-.03M14.553.55h-.03l-.012.006h-.091L14.408.55h-.031M15.07.55h-.031l-.012.006h-.091L14.923.55h-.03M16.1.55h-.03l-.012.006h-.091L15.955.55h-.03M15.585.55h-.031l-.012.006h-.091L15.44.55h-.03M13.45.599v.006h-.037L13.4.61h-.067M13.334.61h-.085M13.249.61h-.036000000000000004M10.082.526h-.019000000000000003M10.063.526l-.14.012M9.924.538h-.018000000000000002M9.906.538H7.163M7.163.538h-.012M7.151.538l.243.06M7.394.599l.012.006-.018.006-.024.006M42.621.617l-.03-.006-.012-.006.012-.006M42.828.538h-.013000000000000001M14.893.538h-.34M15.409.538h-.34M15.925.538h-.34M17.945.538H16.1M42.815.538h-3.324M23.024.556h-.03l-.013.006h-.018000000000000002M23.23.556h-.207M23.284.562h-.012L23.26.556h-.03M23.284.605V.562M23.23.61l.024-.005h.031M23.024.61h.206M22.963.605h.041999999999999996l.018.006M22.963.593v.012M23.06.593h-.097M23.06.599V.593M23.187.599h-.127M23.187.562V.6M23.06.562h.127M23.06.58V.563M23.133.58h-.073M23.133.587V.58M22.963.587h.17M22.963.562v.025M23.86.556h-.096M23.86.61V.557M23.764.61h.097M23.764.556v.055M24.407.556l.127.055M24.504.556h-.097M24.522.568l-.018-.012M24.65.568h-.128M24.668.556 24.65.57M24.765.556h-.097M24.637.61l.128-.054M24.534.61h.103M24.898.556h-.03l-.012.006h-.018000000000000002M25.105.556h-.207M25.16.562h-.013l-.012-.006h-.03M25.16.605V.562M25.105.61l.024-.005h.03M24.898.61h.207M24.838.605h.041999999999999996l.018.006M24.838.593v.012M24.935.593h-.097M24.935.599V.593M25.062.599h-.127M25.062.562V.6M24.935.562h.127M24.935.58V.563M25.008.58h-.073M25.008.587V.58M24.838.587h.17M24.838.562v.025M32.119.599h.024M32.125.599h-.006M32.13.599h-.005M32.143.593h-.006l-.006.006M32.149.593h-.006M32.167.599 32.15.593M32.234.599h-.067M32.252.593l-.006.006h-.012M32.282.593h-.030000000000000002M32.319.599l-.013-.006h-.023M32.33.599h-.011M32.319.599h.012M32.282.605h.025l.012-.006" style="fill:none;stroke:#8a9199;stroke-width:.0423333;stroke-linecap:round;stroke-linejoin:round;stroke-miterlimit:10;stroke-dasharray:none;stroke-opacity:1"/><path d="m32.252.599.012.006h.018000000000000002M32.234.599h.018000000000000002M32.143.599h.09M16.592.587h-.042M16.55.587h.042M16.513.587h-.042M16.47.587h.043M26.81.599h-.11M26.81.556V.6M26.907.556h-.097M26.907.599V.556M27.01.599h-.103M27.01.61V.6M26.7.61h.31M26.7.599V.61M25.948.556h-.03l-.012.006h-.019M26.154.556h-.206M26.215.562h-.012L26.19.556h-.037M26.215.61V.563M26.118.61h.097M26.118.562v.049M25.984.562h.134M25.984.61V.563M25.887.61h.097M25.887.562v.049M17.478.562h1.11M18.588.562h.15200000000000002l.048.006h.037l.03.007h.025l.012.006v.006M18.892.587v.006M18.892.593l-.006.006h-.019l-.024.006-.042.006h-.097l-.055.006h-.06M18.588.617h-1.11M17.478.617h-.055l-.06-.006h-.097l-.037-.006-.03-.006h-.019l-.006-.006M17.175.593V.587M17.175.587 17.18.58l.012-.007h.024l.03-.005h.037l.042-.007h.15200000000000002M33.071.544h.17l.073.006h.073l.06.006.049.006.03.006.025.006.006.006-.006.006-.025.007-.03.006-.048.006-.061.006h-.073l-.073.006h-.334L32.828.61h-.066l-.06-.006-.05-.006-.036-.006-.024-.007-.006-.006.006-.006.024-.006.036-.006.05-.006.06-.006h.066l.08-.006h.163M39.43.605h-.013l-.011.006h-.122M39.582.568l-.152.037M12.466.617h-1.923M10.543.617h-.091L10.373.61h-.06l-.031-.006-.006-.006M10.276.599V.556M10.276.556l.012-.006.043-.006h.066l.085-.006h.06M16.15.617l.175-.012M16.15.617h-.037M16.113.617h-1.748M14.365.617h-.036000000000000004M14.153.605l.176.012M14.153.605h-.012M14.14.574v.03M14.14.574h.013000000000000001M14.329.556l-.176.019M14.329.556h.036000000000000004M16.113.556h-1.748M16.113.556h.036000000000000004M16.325.574 16.15.556M16.325.574h.012M16.337.605v-.03M16.337.605h-.012M19.134.58l.043-.005.048-.007.091-.006M19.298.58h-.164M19.11.605l.049-.006.072-.012.067-.007M19.17.605h-.06M18.995.617l.176-.012M19.025.599l-.018.006-.006.006-.006.006M19.068.605l-.043-.006M19.201.587l-.133.018M19.037.587h.164M19.207.562l-.085.013-.042.006-.043.006M19.316.562h-.109M26.288.556l.11.025M26.391.556h-.103M26.5.58l-.11-.024M26.5.587V.58M26.403.587h.097M26.403.599V.586M26.524.599h-.12M26.524.556V.6M26.622.556h-.098M26.622.61V.557M26.367.61h.254M26.306.605h.041999999999999996l.019.006M26.306.587v.018M26.336.58h-.024l-.006.007M26.397.58h-.061M32.276.562h-.041999999999999996M32.3.562h-.024M32.319.562H32.3M32.392.562h-.073M32.446.568h-.012l-.012-.006h-.03M32.464.574l-.006-.006h-.012M32.458.574h.006M32.458.58V.576M32.44.58h.018000000000000002M32.434.58h.006M32.434.587V.58M32.428.587h.006M32.422.587h.006M32.416.587h.006M32.41.593l.006-.006M32.404.593h.006M32.38.593h.024M32.367.593h.013000000000000001M32.35.593h.017M32.33.593h.019M32.325.593h.006M32.33.587l-.005.006M32.337.587h-.006M32.343.587h-.006M32.361.587h-.018000000000000002M32.386.587h-.025M32.392.587h-.006M32.392.58v.007M32.398.58h-.006M32.404.58h-.006M32.41.58h-.006M32.422.574l-.006.006h-.006M32.41.568h.006l.006.006M32.373.568h.037000000000000005M32.313.562h.03l.03.006M32.234.562h.07899999999999999M32.197.562h.037M32.18.562h.017M32.161.562h.018000000000000002M32.1.568h.013l.018-.006h.03M32.094.568h.006M32.058.568h.036000000000000004M32.046.574h.006l.006-.006M32.052.574h-.006M32.076.58h-.018000000000000002l-.006-.005M32.082.58h-.006M32.082.587V.58M32.088.587h-.006M32.094.587h-.006M32.1.587h-.006M32.125.587H32.1M32.137.587h-.012M32.143.593l-.006-.006M32.137.593h.006M32.125.593h.012M32.119.593h.006M32.106.593h.013000000000000001M32.088.593h.018000000000000002M32.064.593h.024M32.058.593h.006M32.058.587v.006M32.052.587h.006M32.046.587h.006M32.04.587h.006M32.034.58v.007h.006M32.028.58h.006M32.022.58h.006M32.01.58h.012M32.003.574h.006V.58M32.028.568h-.019l-.006.006" style="fill:none;stroke:#8a9199;stroke-width:.0423333;stroke-linecap:round;stroke-linejoin:round;stroke-miterlimit:10;stroke-dasharray:none;stroke-opacity:1"/><path d="M32.076.562h-.018l-.012.006h-.019M32.149.562h-.073M32.234.562h-.08499999999999999M16.671.587h-.042M16.628.587h.043M25.808.556h-.267M25.808.61V.557M25.542.61h.267M25.542.599V.61M25.711.599h-.17M25.711.587v.012M25.566.587h.145M25.566.58v.007M25.711.58h-.145M25.711.562v.019M25.542.562h.17M25.542.556v.006M24.03.556h-.09M24.03.58V.557M24.025.587h.006V.58M24.11.562l-.085.025M24.158.562h-.049M24.243.587l-.085-.025M24.237.58v.007h.006M24.237.556v.025M24.334.556h-.097M24.334.61V.557M24.237.61h.097M24.14.58l.097.03M24.134.58h.006M24.03.61l.104-.03M23.94.61h.09M23.94.556v.055M23.448.556h-.085M23.6.587l-.152-.03M23.594.587h.006M23.594.556v.03M23.69.556h-.096M23.69.61V.557M23.606.61h.085M23.448.574l.158.037M23.454.58l-.006-.005M23.454.61V.58M23.363.61h.091M23.363.556v.055M16.47.593v.012M16.507.593h-.036M16.507.605V.592M16.738.605h-.231M16.738.587v.018M16.69.58l.048.007M16.647.58h.042M16.47.58h.177M16.659.58h-.188M16.774.587 16.66.58M16.774.605V.587M16.47.605h.304M16.343 1.727V1.71M33.714 1.71v.017M33.684 1.727l.006-.018M39.157.417V.404M39.181.417V.398M39.066.41V.406M39.139.417V.41M39.436.399h.018000000000000002l.006.006.012.006.006.006v.012l.007.006v.012M35.48.417l-.018.006M39.181.417h-.06M39.12.417l.018-.006M39.139.41h-.091M39.048.41l.018-.005M39.066.405h.09M39.157.405l.024-.006M37.1.593l-.006.006h-.043000000000000003M13.249.599h.085" style="fill:none;stroke:#8a9199;stroke-width:.0423333;stroke-linecap:round;stroke-linejoin:round;stroke-miterlimit:10;stroke-dasharray:none;stroke-opacity:1"/><path d="M45.716 6.781v-.315h-.589V6.32h.589v-.163l-.34-.037-.34.037v.624m0 0c-.047-.005-.089-.028-.133-.042v-.698l.473-.066.48.066v.698l-.14.042M46.608 4.318h.473l.48.067v.279l-.165.037c-.004.013-.003.032.002.038.052.008.104.026.162.034v.273l-.48.073h-.248v-.14h.249l.34-.03v-.133c-.13-.006-.237-.023-.358-.03h-.231v-.134h.237l.352-.03v-.134l-.34-.03h-.34v.661h-.133z" style="fill:#899099;fill-opacity:1;stroke:#8a9199;stroke-width:.0423333;stroke-linecap:round;stroke-linejoin:round;stroke-miterlimit:10;stroke-dasharray:none;stroke-opacity:1"/><path d="M43.598 4.7q-.187-.18-.37-.364c.053-.02.11-.024.164-.036l.31.297.309-.297.164.036q-.188.18-.37.364l.376.358-.17.043-.31-.304q-.157.15-.31.304c-.057 0-.108-.028-.163-.043zM45.073 2.746l.309.292.31-.291c.054.012.108.028.163.036l-.406.382v.382c-.047.012-.093 0-.14 0v-.382l-.406-.382c.055-.02.113-.024.17-.036" style="fill:#8a9199;fill-opacity:1;stroke:#8a9199;stroke-width:.0423333;stroke-linecap:round;stroke-linejoin:round;stroke-miterlimit:10;stroke-dasharray:none;stroke-opacity:1"/><path d="M6.927 7.94v.006M5.634 11.514v-.006M6.927 11.43l.176-.08.163-.097.158-.109.146-.134.127-.139.11-.158.096-.164.08-.176M5.634 8.031l-.176.073-.163.097-.158.115-.14.128-.127.14-.116.157-.097.164-.073.176M7.982 9.081l-.079-.176-.097-.164-.109-.157-.127-.14-.146-.127-.157-.116-.164-.097-.176-.073" style="fill:none;stroke:#8a9199;stroke-width:.0423333;stroke-linecap:round;stroke-linejoin:round;stroke-miterlimit:10;stroke-dasharray:none;stroke-opacity:1"/><path d="m5.634 8.159-.151.072-.14.085-.133.097-.128.116-.11.121-.102.14-.085.14-.073.15M4.712 10.373l.073.152.085.146.103.133.11.121.126.116.134.097.14.085.151.073M6.927 11.296l.151-.073.146-.085.133-.097.122-.115.115-.122.097-.133.085-.146.073-.152M7.849 9.081l-.073-.152-.085-.14-.097-.139-.115-.121-.122-.115-.133-.097-.146-.085-.151-.073M5.634 7.94v.006M5.67 7.892l-.017.012-.013.012M5.634 7.94l.006-.012v-.012M4.494 9.081H4.5M4.47 9.087l.017-.006h.007M6.92 7.916l.007.012M5.67 7.892v.006M4.501 10.367l.006.006h.006M5.64 11.526v-.012l-.006-.006M6.927 7.934v.013000000000000001" style="fill:none;stroke:#8a9199;stroke-width:.0423333;stroke-linecap:round;stroke-linejoin:round;stroke-miterlimit:10;stroke-dasharray:none;stroke-opacity:1"/><path d="m5.634 7.946.006-.006v-.018000000000000002l.007-.006.005-.006.007-.006h.006l.006-.006M4.519 10.355v.018000000000000002h-.006M4.513 10.373h.222M8.061 10.373h-.22M8.061 10.373v-.012h-.006v-.006M6.927 7.946v.231M6.927 7.946l-.006.006h-.007M5.634 11.508v-.225M6.933 11.522v-.224M5.634 11.508h.006v-.006h.012M4.72 9.081H4.5M4.506 9.1V9.08H4.5M5.634 7.946h.006v.006h.012M5.634 8.163v-.217M8.061 9.081v.012h-.006V9.1M7.827 9.081h.234" style="fill:none;stroke:#8a9199;stroke-width:.0423333;stroke-linecap:round;stroke-linejoin:round;stroke-miterlimit:10;stroke-dasharray:none;stroke-opacity:1"/><path d="m5.67 7.898-.005.006h-.007v.006l-.005.006v.037M5.67 7.898h.007" style="fill:none;stroke:#8a9199;stroke-width:.0423333;stroke-linecap:round;stroke-linejoin:round;stroke-miterlimit:10;stroke-dasharray:none;stroke-opacity:1"/><path d="M5.677 7.898H5.67l-.007.006-.006.006v.012l-.006.012v.006l.006.013M5.677 7.898v.012l.006.006M8.061 10.355h-.006M6.908 7.952h.006M8.055 9.1h.006M6.914 11.502h-.006M5.659 11.502h-.006M5.652 7.952h.006M8.019 10.3l.024.03.018.025M4.519 10.355l.017-.03.017-.024M5.659 7.952l.024.019.024.018" style="fill:none;stroke:#8a9199;stroke-width:.0423333;stroke-linecap:round;stroke-linejoin:round;stroke-miterlimit:10;stroke-dasharray:none;stroke-opacity:1"/><path d="M5.659 7.952V7.94l.006-.006v-.006h.006v-.006l.006-.006h.006M4.542 9.154l-.018-.03-.018-.025M4.506 9.1l-.006.005h-.007l-.006.007-.006.006h-.006l-.006.006M8.061 9.1l-.024.03-.018.024M6.908 7.952l-.03.019-.024.018M6.884 7.916l.006.006.007.006.005.006v.012l.007.006M5.707 11.466l-.03.024-.019.012M5.707 7.989h.036M5.707 7.989v-.006l.006-.006V7.97h.006v-.006l.006-.006.006-.006M8.019 10.3v-.036M8.055 10.276v.006H8.05l-.006.007v.005h-.006l-.006.007h-.012M5.744 11.466h-.037M5.707 11.466v.006l.006.006v.005l.006.007.006.006.006.006M4.542 10.3v-.036M4.542 10.3H4.53v-.005h-.006l-.006-.007-.006-.005-.006-.007M6.854 7.989h-.036" style="fill:none;stroke:#8a9199;stroke-width:.0423333;stroke-linecap:round;stroke-linejoin:round;stroke-miterlimit:10;stroke-dasharray:none;stroke-opacity:1"/><path d="M6.83 7.952h.006l.006.006v.007l.006.006.006.006v.012M8.019 9.154v.036M8.019 9.154h.006l.006.006h.006l.006.006.006.006h.006v.006M4.542 9.154v.036M4.506 9.178l.006-.006.006-.006h.006l.006-.006.006-.006h.006M6.817 11.466h.037M4.506 9.178l-.037-.055M5.683 7.916l.049.036M6.884 7.916l-.054.036M5.744 11.466v.012h-.006v.018000000000000002l-.007.006M6.817 11.466l.006.006v.011l.007.007v.012M8.055 9.178H8.05l-.006.006H8.03l-.006.006h-.006M8.055 10.276H8.05l-.006-.006H8.03l-.006-.006h-.006M5.731 7.952l.006.006v.019000000000000003l.007.006v.006M6.83 7.952v.013000000000000001l-.006.006v.012l-.007.006M4.506 10.276h.006l.006-.006h.018000000000000002l.006-.006M4.506 9.178h.006l.006.006h.018000000000000002l.006.006M10.798 12.424h-.018M39.2 12.424h-.019M39.181 14.402h.018M10.78 14.402h.017M10.986 1.727V1.71M12.017 1.727V1.71M11.386.61h.013000000000000001M11.398.605V.61M11.344.61l.006.007h.012M11.398.605h-.041999999999999996" style="fill:none;stroke:#8a9199;stroke-width:.0423333;stroke-linecap:round;stroke-linejoin:round;stroke-miterlimit:10;stroke-dasharray:none;stroke-opacity:1"/><path d="M11.356.605 11.35.61h-.007.007v.006h.024M11.429.617h-.031L11.392.61h-.006.006l.006-.006" style="fill:none;stroke:#8a9199;stroke-width:.0423333;stroke-linecap:round;stroke-linejoin:round;stroke-miterlimit:10;stroke-dasharray:none;stroke-opacity:1"/><path d="M11.295.61h.013l.042-.005.067-.006h.17l.072.006.043.006h.006M11.253.61l.006.007h.006M11.744.617h.006V.61" style="fill:none;stroke:#8a9199;stroke-width:.0423333;stroke-linecap:round;stroke-linejoin:round;stroke-miterlimit:10;stroke-dasharray:none;stroke-opacity:1"/><path d="M11.732.617 11.75.61l-.012-.006-.048-.006-.085-.006h-.207l-.079.006-.054.006-.006.006.012.006" style="fill:none;stroke:#8a9199;stroke-width:.0423333;stroke-linecap:round;stroke-linejoin:round;stroke-miterlimit:10;stroke-dasharray:none;stroke-opacity:1"/><path d="M11.32.617 11.3.61l.006-.006.043-.006h.066l.086-.006.085.006h.072l.043.006.006.006-.018.006M11.526.617h-.043M11.429.605h.024M11.453.605h.006M11.453.605" style="fill:none;stroke:#8a9199;stroke-width:.0423333;stroke-linecap:round;stroke-linejoin:round;stroke-miterlimit:10;stroke-dasharray:none;stroke-opacity:1"/><path d="M11.459.605h.121l.025.006h.012M11.647.617h.006L11.66.61" style="fill:none;stroke:#8a9199;stroke-width:.0423333;stroke-linecap:round;stroke-linejoin:round;stroke-miterlimit:10;stroke-dasharray:none;stroke-opacity:1"/><path d="m11.635.617.018-.006h.006l-.018-.006h-.036l-.05-.006h-.11399999999999999M11.44.599h-.011l.006.006h.018000000000000002M11.453.605h.006" style="fill:none;stroke:#8a9199;stroke-width:.0423333;stroke-linecap:round;stroke-linejoin:round;stroke-miterlimit:10;stroke-dasharray:none;stroke-opacity:1"/><path d="M11.459.605h.146l.012.006-.018.006h-.025M10.349.61V.606h.006V.599h.006V.593h.006M10.543.58h-.055l-.024.007h-.048l-.013.006M12.879 1.727V1.71M12.406 1.71l.006.017M12.654 1.727l.006-.018M10.78 2.486h.017M10.41.599V.593" style="fill:none;stroke:#8a9199;stroke-width:.0423333;stroke-linecap:round;stroke-linejoin:round;stroke-miterlimit:10;stroke-dasharray:none;stroke-opacity:1"/><path d="M10.543.58h-.03l-.025.007h-.06699999999999999l-.006.006h-.006M10.349.61V.606h.006V.599h.006V.593h.006" style="fill:none;stroke:#8a9199;stroke-width:.0423333;stroke-linecap:round;stroke-linejoin:round;stroke-miterlimit:10;stroke-dasharray:none;stroke-opacity:1"/><path d="M10.543.58h-.055l-.024.007h-.048l-.013.006" style="fill:none;stroke:#8a9199;stroke-width:.0423333;stroke-linecap:round;stroke-linejoin:round;stroke-miterlimit:10;stroke-dasharray:none;stroke-opacity:1"/><path d="M10.543.58h-.097l-.025.007h-.006M11.295.61h.013l.042-.005.067-.006h.17l.072.006.043.006h.006M11.253.61l.006.007h.006M11.744.617h.006V.61" style="fill:none;stroke:#8a9199;stroke-width:.0423333;stroke-linecap:round;stroke-linejoin:round;stroke-miterlimit:10;stroke-dasharray:none;stroke-opacity:1"/><path d="M11.732.617 11.75.61l-.012-.006-.048-.006-.085-.006h-.207l-.079.006-.054.006-.006.006.012.006" style="fill:none;stroke:#8a9199;stroke-width:.0423333;stroke-linecap:round;stroke-linejoin:round;stroke-miterlimit:10;stroke-dasharray:none;stroke-opacity:1"/><path d="M11.32.617 11.3.61l.006-.006.043-.006h.066l.086-.006.085.006h.072l.043.006.006.006-.018.006M11.386.61h.013000000000000001M11.398.605V.61" style="fill:none;stroke:#8a9199;stroke-width:.0423333;stroke-linecap:round;stroke-linejoin:round;stroke-miterlimit:10;stroke-dasharray:none;stroke-opacity:1"/><path d="m11.344.61.006.007h.012M11.398.605h-.041999999999999996" style="fill:none;stroke:#8a9199;stroke-width:.0423333;stroke-linecap:round;stroke-linejoin:round;stroke-miterlimit:10;stroke-dasharray:none;stroke-opacity:1"/><path d="M11.356.605 11.35.61h-.007.007v.006h.024M11.429.617h-.031L11.392.61h-.006.006l.006-.006M11.453.605h.006M11.429.605h.024M11.459.605h.121l.025.006h.012M11.647.617h.006L11.66.61" style="fill:none;stroke:#8a9199;stroke-width:.0423333;stroke-linecap:round;stroke-linejoin:round;stroke-miterlimit:10;stroke-dasharray:none;stroke-opacity:1"/><path d="m11.635.617.018-.006h.006l-.018-.006h-.036l-.05-.006h-.11399999999999999M11.44.599h-.011l.006.006h.018000000000000002M11.453.605h.006" style="fill:none;stroke:#8a9199;stroke-width:.0423333;stroke-linecap:round;stroke-linejoin:round;stroke-miterlimit:10;stroke-dasharray:none;stroke-opacity:1"/><path d="M11.459.605h.146l.012.006-.018.006h-.025M11.526.617h-.043M12.412 1.727V1.71M12.66 1.71l-.006.017M10.78 2.486h.017M12.879 1.727V1.71M1.563 1.83v.589M1.618 1.746l-.013.006-.024.024-.012.024v.03M7.151.78V.369M7.145.368V.356L7.14.32 7.115.296M48.416 2.419v-.588M48.416 1.83v-.024l-.018-.036-.025-.025h-.006" style="fill:none;stroke:#8a9199;stroke-width:.0423333;stroke-linecap:round;stroke-linejoin:round;stroke-miterlimit:10;stroke-dasharray:none;stroke-opacity:1"/><path d="m48.391 1.758-.63-.316-.516-.236-.395-.164-.327-.128L46.195.8l-.346-.11-.46-.139-.608-.158M42.87.295l-.024.025-.012.03v.018M20.742.538l-.036-.067M22.86.538l-.037-.067M33.484.538l-.037-.067M31.36.538l-.036-.067M39.86.538l-.036-.067M27.107.538 27.07.471M24.983.538l-.036-.067M29.237.538 29.2.471M18.625.538l-.037-.067M14.377.514 14.36.47M16.513.538l-.042-.067M12.296.526l-.03-.055M10.21.526 10.178.47M8.14.538 8.098.471M41.996.538l-.042-.067M28.818.441H28.8l-.018.006-.019.018-.006.012M18.54.435h-.334M33.399.435h-.334M29.146.435h-.328M22.775.435h-.334M8.05.435h-.335M20.657.435h-.333M18.206.441h-.012l-.018.006-.025.018-.006.012M16.095.441h-.019l-.018.006-.012.012M20.324.441h-.013l-.024.006-.018.018-.006.012M27.022.435h-.334M33.065.441h-.012l-.024.006-.019.018-.006.012M30.942.441h-.018l-.019.006-.018.018-.006.012M26.688.441h-.012l-.018.006-.024.018-.006.012M31.275.435h-.334M24.898.435h-.333M24.565.441h-.013l-.024.006-.018.018-.006.012M22.441.441h-.018l-.018.006-.019.018-.006.012M13.977.441h-.018l-.018.006-.019.018-.006.012M7.715.441 7.703.435l-.018.012-.018.012-.012.018M14.305.435h-.328M41.566.441 41.56.435l-.019.012-.018.012-.012.018M39.776.435h-.292M41.905.435h-.34M16.422.435h-.328M12.217.435h-.333M11.89.441h-.019l-.018.006-.018.018-.012.012M9.797.441H9.79l-.025.006-.018.018-.006.012M10.13.435h-.333M20.706.471l-.019-.018-.012-.012-.018-.006M18.588.471 18.57.453l-.012-.012-.018-.006M29.2.471l-.018-.018-.018-.012-.019-.006M14.36.471 14.34.453l-.018-.012-.012-.006M27.07.471l-.012-.018-.018-.012-.018-.006M33.447.471 33.43.453l-.012-.012-.018-.006M39.824.471l-.018-.018-.018-.012-.012-.006M16.47.471l-.012-.018-.018-.012-.018-.006M31.324.471l-.019-.018-.018-.012-.012-.006M24.947.471l-.018-.018-.012-.012-.019-.006M22.823.471l-.018-.018-.018-.012-.012-.006M10.179.471 10.16.453l-.013-.012-.018-.006M12.266.471l-.012-.018-.018-.012-.019-.006M41.954.471l-.018-.024-.018-.006h-.013M8.098.471 8.079.447 8.061.441H8.05M9.742.477 9.7.538M11.823.477l-.03.05M7.655.477l-.043.061M41.511.477l-.042.061M33.004.477l-.042.061M26.628.477l-.043.061M22.38.477l-.042.061M30.88.477l-.041.061M20.263.477l-.042.061M28.757.477l-.048.061M18.145.477l-.024.037M13.916.477l-.042.061M24.504.477l-.042.061M14.553.496l-.006-.013-.006-.005-.006-.007-.006-.006h-.006V.46h-.049" style="fill:none;stroke:#8a9199;stroke-width:.0423333;stroke-linecap:round;stroke-linejoin:round;stroke-miterlimit:10;stroke-dasharray:none;stroke-opacity:1"/><path d="M14.475.46h-.067l-.006.005h-.006l-.012.013v.006l-.006.012M14.377.496V.55M14.553.55V.496M15.07.496l-.007-.013-.006-.005L15.05.47l-.006-.006h-.006V.46h-.049" style="fill:none;stroke:#8a9199;stroke-width:.0423333;stroke-linecap:round;stroke-linejoin:round;stroke-miterlimit:10;stroke-dasharray:none;stroke-opacity:1"/><path d="M14.99.46h-.066l-.006.005h-.007L14.9.478v.006l-.006.012M15.925.496V.55M16.1.55V.496M16.1.496l-.005-.013-.007-.005-.005-.007-.007-.006L16.07.46h-.048M16.022.46h-.067l-.006.005h-.006l-.006.013-.006.006-.006.012M15.409.496V.55M15.585.55V.496M15.585.496l-.006-.013-.007-.005-.005-.007-.006-.006-.006-.006h-.049M15.506.46h-.067l-.006.005h-.006l-.006.013-.006.006-.006.012M14.893.496V.55M15.07.55V.496M17.945.496V.55M18.121.55V.496M18.121.496l-.006-.013-.006-.005-.006-.007-.006-.006L18.09.46h-.049" style="fill:none;stroke:#8a9199;stroke-width:.0423333;stroke-linecap:round;stroke-linejoin:round;stroke-miterlimit:10;stroke-dasharray:none;stroke-opacity:1"/><path d="M18.042.46h-.067l-.006.005h-.006l-.012.013v.006l-.006.012M32.422.587V.574M32.307.605V.599M32.258.599v.006M39.57.568l-.146.037M13.43.605h-.017l-.03.006h-.049M13.334.61h-.085M13.212.61l-.036-.005h-.024M18.588.617h-1.11M7.382.61l-.013.007h-.012M42.627.617 42.603.61M12.466.617h-1.923M10.543.617h-.11L10.355.61l-.049-.006h-.012M39.49.593V.447M4.496 10.367H4.5M6.927 7.934v-.006M11.398.61V.606M11.429.599v.006M11.66.61" style="fill:none;stroke:#8a9199;stroke-width:.0423333;stroke-linecap:round;stroke-linejoin:round;stroke-miterlimit:10;stroke-dasharray:none;stroke-opacity:1"/><path d="M10.415.587h-.024l-.03.006-.006.006v.006l-.006.006" style="fill:none;stroke:#8a9199;stroke-width:.0423333;stroke-linecap:round;stroke-linejoin:round;stroke-miterlimit:10;stroke-dasharray:none;stroke-opacity:1"/><path d="M10.415.587h-.024l-.03.006-.006.006v.006l-.006.006M11.398.61V.606M11.429.599v.006M11.66.61" style="fill:none;stroke:#8a9199;stroke-width:.0423333;stroke-linecap:round;stroke-linejoin:round;stroke-miterlimit:10;stroke-dasharray:none;stroke-opacity:1"/><path d="m0 0 .557 1.536c.186.512-.496.324-.648.207-.12-.092-.338-.303-.418-.524L-.951 0h-.961l.556 1.536c.186.512-.495.324-.647.207-.12-.092-.338-.303-.418-.524L-2.863 0h-.961l.884 2.437c.306 0 .471-.07.611-.207a.4.4 0 0 0 .099-.184c.18.11.34.191.447.233.2.078.449.158.755.158s.471-.07.61-.207a.4.4 0 0 0 .1-.184c.181.11.34.191.448.233.199.078.448.158.754.158s.472-.07.611-.207c.138-.136.135-.385.085-.524L.961 0Zm1.449.437q.45-.083.925-.084h.001c.324 0 .559.073.584.293.013.105-.086.18-.268.28-.207.115-.382.172-.562.293s-.258.31-.197.511c.07.236.235.372.487.501.294.15.528.206 1.097.206q.538 0 1.047-.099l-.122-.337q-.45.082-.925.083c-.324 0-.56-.072-.586-.292-.012-.105.087-.181.269-.281.208-.114.382-.171.563-.292s.258-.311.197-.512c-.071-.235-.236-.371-.488-.5C3.177.057 2.943 0 2.375 0h-.001q-.538.001-1.047.1Zm3.48 1.901L4.8 1.984c.503.1.998.1.998.1l.129.353s-.5 0-.998-.099M5.042 0l.668 1.84s-.499 0-.998-.1L4.081 0Z" clip-path="url(#a)" style="fill:#899099;fill-opacity:1;fill-rule:evenodd;stroke:none" transform="matrix(.35278 0 0 -.35278 24.62 19.633)"/><path d="M38.343 18.402H11.637V3.337h26.706z" style="fill:none;stroke:#8a9199;stroke-width:.0677333;stroke-linecap:butt;stroke-linejoin:miter;stroke-miterlimit:10;stroke-dasharray:none;stroke-opacity:1"/><path d="M0 0h-79.406a.536.536 0 0 0-.535.535v50.606c0 .295.24.534.535.534H0a.535.535 0 0 0 .535-.534V.535A.536.536 0 0 0 0 0" clip-path="url(#b)" style="fill:none;stroke:#8a9199;stroke-width:.24;stroke-linecap:round;stroke-linejoin:round;stroke-miterlimit:10;stroke-dasharray:none;stroke-opacity:1" transform="matrix(.35278 0 0 -.35278 38.996 19.985)"/><path d="m0 0-.289 5.616-2.007 30.96a1.4 1.4 0 0 1-.131.512l-.557 1.195-.813.262-.324-.262-.262.093-15.799 5.099h-100.795l-15.799-5.099-.262-.093-.324.262-.812-.262-.558-1.195a1.5 1.5 0 0 1-.131-.512l-2.006-30.96-.29-5.616-.005-1.588a8.32 8.32 0 0 1 3.268-6.64l9.016-6.895a2.96 2.96 0 0 1 2.226-.577l6.912 1.012h98.326l6.911-1.012a2.96 2.96 0 0 1 2.226.577l9.016 6.895a8.32 8.32 0 0 1 3.268 6.64z" clip-path="url(#c)" style="fill:none;stroke:#8a9199;stroke-width:.336;stroke-linecap:round;stroke-linejoin:round;stroke-miterlimit:10;stroke-dasharray:none;stroke-opacity:1" transform="matrix(.35278 0 0 -.35278 49.859 15.928)"/><path d="m0 0 .027 1.508a.57.57 0 0 0 .342.509l4.499 1.829a97 97 0 0 0 5.088 1.7c.248.074.595.16.652.172l.364.08 3.992.873a.41.41 0 0 0 .361-.096l.704-.639c.09-.082.11-.549.097-.67" clip-path="url(#d)" style="fill:none;stroke:#8a9199;stroke-width:.288;stroke-linecap:round;stroke-linejoin:round;stroke-miterlimit:10;stroke-dasharray:none;stroke-opacity:1" transform="matrix(.35278 0 0 -.35278 1.508 2.407)"/><path d="m0 0-.027 1.508a.57.57 0 0 1-.342.509l-4.499 1.829a97 97 0 0 1-5.088 1.7c-.248.074-.595.16-.652.172l-.364.08-3.992.873a.41.41 0 0 1-.361-.096l-.704-.639c-.09-.082-.133-.58-.119-.701" clip-path="url(#e)" style="fill:none;stroke:#8a9199;stroke-width:.288;stroke-linecap:round;stroke-linejoin:round;stroke-miterlimit:10;stroke-dasharray:none;stroke-opacity:1" transform="matrix(.35278 0 0 -.35278 48.474 2.407)"/><path d="m35.02.56.142-.163h1.949l.104.164M37.289.56l.143-.163h1.948l.104.164" style="fill:none;stroke:#8a9199;stroke-width:.0846667;stroke-linecap:round;stroke-linejoin:round;stroke-miterlimit:10;stroke-dasharray:none;stroke-opacity:1"/><path d="M0 0c0 .099.055.191.145.24l1.375.765c.115.058.254-.021.255-.144l.028-4.202c.001-.112-.124-.183-.228-.13l-1.429.733A.26.26 0 0 0 0-2.507Z" clip-path="url(#f)" style="fill:none;stroke:#899099;stroke-width:.144;stroke-linecap:butt;stroke-linejoin:miter;stroke-miterlimit:10;stroke-dasharray:none;stroke-opacity:1" transform="matrix(.35278 0 0 -.35278 9.712 3.453)"/><path d="m0 0 1.336-.753a.32.32 0 0 0 .16-.279l-.039-2.837a.197.197 0 0 0-.282-.175L-.05-3.46a.31.31 0 0 0-.178.282L-.2-.116A.134.134 0 0 0 0 0Z" clip-path="url(#g)" style="fill:none;stroke:#899099;stroke-width:.144;stroke-linecap:butt;stroke-linejoin:miter;stroke-miterlimit:10;stroke-dasharray:none;stroke-opacity:1" transform="matrix(.35278 0 0 -.35278 9.814 5.433)"/><path d="M0 0a3.806 3.806 0 1 0-7.612 0A3.806 3.806 0 0 0 0 0Z" clip-path="url(#h)" style="fill:none;stroke:#8a9199;stroke-width:.24;stroke-linecap:butt;stroke-linejoin:miter;stroke-miterlimit:10;stroke-dasharray:none;stroke-opacity:1" transform="matrix(.35278 0 0 -.35278 5.175 4.988)"/><path d="M0 0c-.103-3.134-2.71-5.592-5.822-5.489s-5.553 2.726-5.45 5.86 2.71 5.592 5.823 5.489C-2.337 5.758.103 3.134 0 0Z" clip-path="url(#i)" style="fill:none;stroke:#899099;stroke-width:.144;stroke-linecap:butt;stroke-linejoin:miter;stroke-miterlimit:10;stroke-dasharray:none;stroke-opacity:1" transform="matrix(.35278 0 0 -.35278 5.821 5.053)"/><path d="M0 0c0-3.931-3.104-7.118-6.933-7.118S-13.865-3.931-13.865 0s3.104 7.118 6.932 7.118S0 3.931 0 0Z" clip-path="url(#j)" style="fill:none;stroke:#8a9199;stroke-width:.24;stroke-linecap:butt;stroke-linejoin:miter;stroke-miterlimit:10;stroke-dasharray:none;stroke-opacity:1" transform="matrix(.35278 0 0 -.35278 6.279 4.988)"/><path d="M0 0h-.445c-3.713 0-6.751 3.038-6.751 6.751v.61c0 3.713 3.038 6.751 6.751 6.751H0c3.713 0 6.751-3.038 6.751-6.751v-.61C6.751 3.038 3.713 0 0 0Z" clip-path="url(#k)" style="fill:none;stroke:#8a9199;stroke-width:.24;stroke-linecap:butt;stroke-linejoin:miter;stroke-miterlimit:10;stroke-dasharray:none;stroke-opacity:1" transform="matrix(.35278 0 0 -.35278 6.355 12.202)"/><path d="M0 0h-.343C-3.62 0-6.301 2.682-6.301 5.959v.59c0 3.277 2.681 5.958 5.958 5.958H0c3.277 0 5.959-2.681 5.959-5.958v-.59C5.959 2.682 3.277 0 0 0Z" clip-path="url(#l)" style="fill:none;stroke:#899099;stroke-width:.144;stroke-linecap:butt;stroke-linejoin:miter;stroke-miterlimit:10;stroke-dasharray:none;stroke-opacity:1" transform="matrix(.35278 0 0 -.35278 6.337 11.92)"/><path d="M0 0a2.722 2.722 0 1 0-5.445 0A2.722 2.722 0 0 0 0 0Z" clip-path="url(#m)" style="fill:none;stroke:#8a9199;stroke-width:.12;stroke-linecap:butt;stroke-linejoin:miter;stroke-miterlimit:10;stroke-dasharray:none;stroke-opacity:1" transform="matrix(.35278 0 0 -.35278 46.335 3.03)"/><path d="M0 0a2.327 2.327 0 1 0-4.654 0A2.327 2.327 0 0 0 0 0Z" clip-path="url(#n)" style="fill:none;stroke:#8a9199;stroke-width:.12;stroke-linecap:butt;stroke-linejoin:miter;stroke-miterlimit:10;stroke-dasharray:none;stroke-opacity:1" transform="matrix(.35278 0 0 -.35278 46.196 3.03)"/><path d="M0 0a2.722 2.722 0 1 0-5.445 0A2.722 2.722 0 0 0 0 0Z" clip-path="url(#o)" style="fill:none;stroke:#8a9199;stroke-width:.12;stroke-linecap:butt;stroke-linejoin:miter;stroke-miterlimit:10;stroke-dasharray:none;stroke-opacity:1" transform="matrix(.35278 0 0 -.35278 44.686 4.722)"/><path d="M0 0a2.327 2.327 0 1 0-4.654 0A2.327 2.327 0 0 0 0 0Z" clip-path="url(#p)" style="fill:none;stroke:#8a9199;stroke-width:.12;stroke-linecap:butt;stroke-linejoin:miter;stroke-miterlimit:10;stroke-dasharray:none;stroke-opacity:1" transform="matrix(.35278 0 0 -.35278 44.547 4.722)"/><path d="M0 0a2.722 2.722 0 1 0-5.445 0A2.722 2.722 0 0 0 0 0Z" clip-path="url(#q)" style="fill:none;stroke:#8a9199;stroke-width:.12;stroke-linecap:butt;stroke-linejoin:miter;stroke-miterlimit:10;stroke-dasharray:none;stroke-opacity:1" transform="matrix(.35278 0 0 -.35278 46.313 6.38)"/><path d="M0 0a2.327 2.327 0 1 0-4.654 0A2.327 2.327 0 0 0 0 0Z" clip-path="url(#r)" style="fill:none;stroke:#8a9199;stroke-width:.12;stroke-linecap:butt;stroke-linejoin:miter;stroke-miterlimit:10;stroke-dasharray:none;stroke-opacity:1" transform="matrix(.35278 0 0 -.35278 46.174 6.38)"/><path d="M0 0a2.722 2.722 0 1 0-5.445 0A2.722 2.722 0 0 0 0 0Z" clip-path="url(#s)" style="fill:none;stroke:#8a9199;stroke-width:.12;stroke-linecap:butt;stroke-linejoin:miter;stroke-miterlimit:10;stroke-dasharray:none;stroke-opacity:1" transform="matrix(.35278 0 0 -.35278 48.028 4.738)"/><path d="M0 0a2.327 2.327 0 1 0-4.654 0A2.327 2.327 0 0 0 0 0Z" clip-path="url(#t)" style="fill:none;stroke:#8a9199;stroke-width:.12;stroke-linecap:butt;stroke-linejoin:miter;stroke-miterlimit:10;stroke-dasharray:none;stroke-opacity:1" transform="matrix(.35278 0 0 -.35278 47.89 4.738)"/><path d="M0 0c0-2.954-2.367-5.349-5.287-5.349S-10.574-2.954-10.574 0s2.367 5.349 5.287 5.349S0 2.954 0 0Z" clip-path="url(#u)" style="fill:none;stroke:#8a9199;stroke-width:.24;stroke-linecap:butt;stroke-linejoin:miter;stroke-miterlimit:10;stroke-dasharray:none;stroke-opacity:1" transform="matrix(.35278 0 0 -.35278 8.141 9.713)"/><path d="M0 0h-.445c-3.713 0-6.751 3.038-6.751 6.751v.61c0 3.713 3.038 6.751 6.751 6.751H0c3.713 0 6.751-3.038 6.751-6.751v-.61C6.751 3.038 3.713 0 0 0Z" clip-path="url(#v)" style="fill:none;stroke:#8a9199;stroke-width:.24;stroke-linecap:butt;stroke-linejoin:miter;stroke-miterlimit:10;stroke-dasharray:none;stroke-opacity:1" transform="matrix(.35278 0 0 -.35278 43.819 12.638)"/><path d="M0 0h-.508C-3.649 0-6.22 2.57-6.22 5.712v.384c0 3.142 2.571 5.712 5.712 5.712H0c3.142 0 5.712-2.57 5.712-5.712v-.384C5.712 2.57 3.142 0 0 0Z" clip-path="url(#w)" style="fill:none;stroke:#899099;stroke-width:.144;stroke-linecap:butt;stroke-linejoin:miter;stroke-miterlimit:10;stroke-dasharray:none;stroke-opacity:1" transform="matrix(.35278 0 0 -.35278 43.83 12.231)"/><path d="M0 0c0-2.113-1.759-3.826-3.929-3.826S-7.858-2.113-7.858 0s1.759 3.826 3.929 3.826S0 2.113 0 0Z" clip-path="url(#x)" style="fill:none;stroke:#8a9199;stroke-width:.24;stroke-linecap:butt;stroke-linejoin:miter;stroke-miterlimit:10;stroke-dasharray:none;stroke-opacity:1" transform="matrix(.35278 0 0 -.35278 45.126 10.149)"/><path d="M0 0a2.757 2.757 0 1 0-5.513 0A2.757 2.757 0 0 0 0 0Z" clip-path="url(#y)" style="fill:none;stroke:#899099;stroke-width:.144;stroke-linecap:butt;stroke-linejoin:miter;stroke-miterlimit:10;stroke-dasharray:none;stroke-opacity:1" transform="matrix(.35278 0 0 -.35278 4.793 4.984)"/><path d="M0 0a2.808 2.808 0 1 0-5.616 0A2.808 2.808 0 0 0 0 0Z" clip-path="url(#z)" style="fill:none;stroke:#899099;stroke-width:.144;stroke-linecap:butt;stroke-linejoin:miter;stroke-miterlimit:10;stroke-dasharray:none;stroke-opacity:1" transform="matrix(.35278 0 0 -.35278 44.7 10.133)"/><path d="m5.744 7.945.043 1.146 1.031-.028.03-1.104M4.496 9.222l1.06-.029.057 1.06-1.103.014M8.037 9.208l-1.088.014v1.045h1.06M6.818 11.493v-1.066l-1.041.03v1.066" style="fill:none;stroke:#8a9199;stroke-width:.0677333;stroke-linecap:round;stroke-linejoin:round;stroke-miterlimit:10;stroke-dasharray:none;stroke-opacity:1"/><path d="m0 0 2.028-1.085a.37.37 0 0 0 .193-.324l-.014-4.193a.133.133 0 0 0-.193-.118l-1.899.969a.5.5 0 0 0-.287.453L-.199-.123A.137.137 0 0 0 0 0Z" clip-path="url(#A)" style="fill:none;stroke:#8a9199;stroke-width:.192;stroke-linecap:butt;stroke-linejoin:miter;stroke-miterlimit:10;stroke-dasharray:none;stroke-opacity:1" transform="matrix(.35278 0 0 -.35278 9.668 5.17)"/><path d="M0 0a.25.25 0 0 1 .136-.218l2.043-1.035a.174.174 0 0 1 .254.151l.06 5.589a.361.361 0 0 1-.553.305L.16 3.677a.44.44 0 0 1-.205-.359Z" clip-path="url(#B)" style="fill:none;stroke:#8a9199;stroke-width:.192;stroke-linecap:butt;stroke-linejoin:miter;stroke-miterlimit:10;stroke-dasharray:none;stroke-opacity:1" transform="matrix(.35278 0 0 -.35278 9.597 4.503)"/><path d="m0 0-2.028-1.085a.37.37 0 0 1-.193-.324l.014-4.193c0-.098.105-.162.193-.118l1.899.969a.51.51 0 0 1 .287.453L.199-.123A.137.137 0 0 1 0 0Z" clip-path="url(#C)" style="fill:none;stroke:#8a9199;stroke-width:.192;stroke-linecap:butt;stroke-linejoin:miter;stroke-miterlimit:10;stroke-dasharray:none;stroke-opacity:1" transform="matrix(.35278 0 0 -.35278 40.325 5.203)"/><path d="M0 0a.25.25 0 0 0-.136-.218l-2.043-1.035a.174.174 0 0 0-.254.151l-.06 5.589a.361.361 0 0 0 .553.305l1.78-1.115a.44.44 0 0 0 .205-.359Z" clip-path="url(#D)" style="fill:none;stroke:#8a9199;stroke-width:.192;stroke-linecap:butt;stroke-linejoin:miter;stroke-miterlimit:10;stroke-dasharray:none;stroke-opacity:1" transform="matrix(.35278 0 0 -.35278 40.396 4.536)"/><path d="M9.925 3.862h-.074V3.74h.186v.072h.044v-.12H9.8v.21h.124z" style="fill:#899099;fill-opacity:1;stroke:#8a9199;stroke-width:.023;stroke-linecap:round;stroke-linejoin:round;stroke-miterlimit:10;stroke-dasharray:none;stroke-opacity:1"/><path d="M9.956 3.844v.211h.28v-.211Zm.05.048h.18v.12h-.18z" style="fill:#899099;fill-opacity:1;stroke:#8a9199;stroke-width:.023;stroke-linecap:round;stroke-linejoin:round;stroke-miterlimit:10"/><path d="m10.018 6.065.007-.084-.081.036-.08.193zM9.882 6.01l-.044-.047-.037.054.05.133z" style="fill:#899099;fill-opacity:1;stroke:#8a9199;stroke-width:.0229306;stroke-linecap:round;stroke-linejoin:round;stroke-miterlimit:10;stroke-dasharray:none;stroke-opacity:1"/><path d="m10.242 6.09-.18-.158.037.145-.23.194v.03l.137-.079h.05l.05.018.03.025.025.036.007-.049V6.21l-.013-.024-.012-.024-.013-.012z" style="fill:#899099;fill-opacity:1;stroke:#8a9199;stroke-width:.0229306;stroke-linecap:round;stroke-linejoin:round;stroke-miterlimit:10;stroke-dasharray:none;stroke-opacity:1"/><path d="M40.143 3.796h-.37v-.079h.37zM40.137 4.099h-.37V4.02h.37zM40.137 3.947h-.37V3.87h.37z" style="fill:#8a9199;fill-opacity:1;stroke:#8a9199;stroke-width:.0423333;stroke-linecap:round;stroke-linejoin:round;stroke-miterlimit:10;stroke-dasharray:none;stroke-opacity:1"/><path d="m40.096 6.103.033-.007.02-.02.02-.019.007-.032L40.169 6l-.02-.026-.02-.013-.033-.007-.026.007-.027.013L40.03 6l-.007.025.007.032.013.02.027.02z" style="fill:#8a9199;fill-opacity:1;stroke:#8a9199;stroke-width:.0229306;stroke-linecap:round;stroke-linejoin:round;stroke-miterlimit:10;stroke-dasharray:none;stroke-opacity:1"/><path d="m39.718 6.396.456.001.002-.224h-.073v.155h-.318v-.303h.159v-.07h-.225z" style="fill:#8a9199;fill-opacity:1;stroke:#8a9199;stroke-width:.0229306;stroke-linecap:round;stroke-linejoin:round;stroke-miterlimit:10;stroke-dasharray:none;stroke-opacity:1"/></svg>