<svg width="66.733mm" height="27.959mm" version="1.1" viewBox="0 0 66.733 27.959" xml:space="preserve" xmlns="http://www.w3.org/2000/svg"><g fill="none"><path d="m64.616 3.8152c-0.48189-1.9413-1.972-2.6784-2.9697-2.9895-0.22084-0.068792-0.45332-0.11959-0.69709-0.15487-2.4645-0.61207-5.9761-0.61207-6.1669-0.61207-0.07479 0-0.12665 0.0127-0.1531 0.074083l-0.28316 0.59157" stroke="#889099" stroke-miterlimit="10" stroke-width=".11748"/><path d="m29.032 0.70683-0.10301-0.12665c-0.04269-0.052564-0.10724-0.083608-0.17498-0.083608h-1.6954c-0.05045 0-0.10054 0.011289-0.14676 0.032103l-0.08608 0.039511c-0.04586 0.020814-0.09596 0.03175-0.1464 0.03175h-0.76553c-0.05045 0-0.10054-0.010936-0.1464-0.03175l-0.08608-0.039511c-0.04621-0.020814-0.09596-0.032103-0.14676-0.032103h-1.6954c-0.06773 0-0.13229 0.031044-0.17498 0.083608l-0.10301 0.12665" stroke="#889099" stroke-miterlimit="10" stroke-width=".11748"/><path d="m5.7834 0.67081c2.4645-0.61207 5.9761-0.61207 6.1669-0.61207 0.07479 0 0.12665 0.0127 0.1531 0.074083l0.18838 0.44732c0.02469 0.051506 0.04798 0.10231 0.05433 0.21872l0.0381 1.0012-2.7358 2.0944h-7.5413v-0.029633c0.48189-1.9413 1.9816-2.728 2.9792-3.0392 0.22084-0.068792 0.45332-0.11959 0.69709-0.15487"/><path d="m2.1247 3.7963c0.48189-1.9413 1.964-2.6595 2.9616-2.9706 0.22084-0.068792 0.45332-0.11959 0.69709-0.15487 2.4645-0.61207 5.9761-0.61207 6.1669-0.61207 0.07479 0 0.12665 0.0127 0.1531 0.074083l0.2013 0.60235" stroke="#889099" stroke-miterlimit="10" stroke-width=".11748"/><path d="m60.949 0.67081c-2.4645-0.61207-5.9761-0.61207-6.1669-0.61207-0.07479 0-0.12665 0.0127-0.1531 0.074083l-0.18838 0.44732c-0.02469 0.051506-0.04798 0.10231-0.05433 0.21872l-0.0381 1.0012 2.7358 2.0944h7.5413v-0.029633c-0.48189-1.9413-1.9816-2.728-2.9792-3.0392-0.22084-0.068792-0.45332-0.11959-0.69709-0.15487"/><g stroke="#889099" stroke-miterlimit="10" stroke-width=".11748"><path d="m66.624 14.7c-0.12594-5.5467-0.88935-9.0653-1.5371-10.694-0.018345-0.045861-0.04057-0.075494-0.11007-0.10654-0.1785-0.079022-0.54046-0.10372-0.70414-0.12136-0.15699-0.016933-0.22613-0.071614-0.3362-0.17321-0.11959-0.11007-0.2921-0.35137-0.76165-0.85972-0.58067-0.62865-0.98531-0.99025-2.2324-1.3219-1.2467-0.33196-2.5481-0.69885-5.0722-0.69885h-45.008c-2.5245 0-3.8255 0.36689-5.0722 0.69885-1.2471 0.33161-1.6521 0.69321-2.2324 1.3219-0.46955 0.50835-0.64241 0.74965-0.76165 0.85972-0.11007 0.1016-0.17921 0.15628-0.33655 0.17321-0.16369 0.017639-0.52529 0.042333-0.70379 0.12136-0.06985 0.031044-0.092075 0.060678-0.11042 0.10654-0.64735 1.6288-1.4108 5.1474-1.5367 10.694-0.20073 8.835 0.09772 13.358 2.9986 13.196 2.9009-0.16122 4.0153-2.431 4.6531-4.6662l0.45261 1.1363c0.49459 1.2407 1.6951 2.0546 3.0307 2.0546h44.246c1.3356 0 2.5361-0.81386 3.0307-2.0546l0.45261-1.1363c0.63782 2.2352 1.7522 4.505 4.6531 4.6662 2.9005 0.16157 3.199-4.3614 2.9986-13.196"/><path d="m8.9251 7.5589c0 1.3854-1.1232 2.5082-2.5082 2.5082-1.3857 0-2.5086-1.1229-2.5086-2.5082s1.1229-2.5082 2.5086-2.5082c1.385 0 2.5082 1.1229 2.5082 2.5082z"/><path d="m8.4286 7.5589c0 1.1112-0.90099 2.0119-2.0119 2.0119-1.1112 0-2.0122-0.90064-2.0122-2.0119 0-1.1112 0.90099-2.0119 2.0122-2.0119 1.1109 0 2.0119 0.90064 2.0119 2.0119z"/><path d="m52.874 11.47c0 1.7064 1.3984 3.0896 3.1231 3.0896 1.7251 0 3.1231-1.3832 3.1231-3.0896s-1.3981-3.0896-3.1231-3.0896c-1.7247 0-3.1231 1.3832-3.1231 3.0896z"/><path d="m53.295 11.47c0 1.3854 1.1232 2.5082 2.5082 2.5082 1.3857 0 2.5086-1.1229 2.5086-2.5082s-1.1229-2.5082-2.5086-2.5082c-1.385 0-2.5082 1.1229-2.5082 2.5082z"/><path d="m53.792 11.47c0 1.1112 0.90099 2.0119 2.0119 2.0119 1.1112 0 2.0122-0.90064 2.0122-2.0119s-0.901-2.0119-2.0122-2.0119c-1.1109 0-2.0119 0.90064-2.0119 2.0119z"/><path d="m7.76 23.23-0.93063-2.3333c-0.17498-0.43815-0.53834-0.30551-0.70132 0.2159-1.3148 4.2076-2.0969 6.6125-2.2179 6.6735"/><path d="m13.865 7.8449c-0.0099 0-0.02011-0.00212-0.02999-6e-3l-0.98037-0.39899c-0.05045-0.020461-0.0829-0.068439-0.0829-0.12277v-1.4023c0-0.049036 0.04128-0.079375 0.07938-0.079375 0.01023 0 0.02046 0.00176 0.02999 0.00564l0.98072 0.39934c0.05009 0.020108 0.08255 0.068439 0.08255 0.12241v1.4023c0 0.049389-0.04127 0.079728-0.07937 0.079728z"/></g></g><path d="m13.48 6.643h-0.27129v0.19509h0.08255v0.050447h-0.13088v-0.29492h0.369v0.14005h-0.04939z" fill="#889099"/><path d="m13.684 7.0432h-0.27129v-0.19509h0.27129zm-0.31997 0.050447h0.36936v-0.29492h-0.36936z" fill="#889099"/><path d="m13.874 5.4824c-0.0088 0-0.01799-0.00176-0.02681-0.00529l-0.99307-0.40428c-0.05009-0.020461-0.08255-0.068439-0.08255-0.12241v-0.85866c0-0.053975 0.03246-0.10231 0.08255-0.12277l0.99342-0.40393c0.0085-0.00388 0.01764-0.00529 0.02646-0.00529 0.03351 0 0.0702 0.026811 0.0702 0.070203v1.7822c0 0.024342-0.01129 0.040922-0.02117 0.050094-0.01305 0.0127-0.03104 0.020108-0.04904 0.020108z" fill="none" stroke="#889099" stroke-miterlimit="10" stroke-width=".11748"/><g fill="#889099"><path d="m12.974 4.3174v0.31115l0.29175-0.3369-0.07303-0.096661z"/><path d="m13.036 4.6372-0.05574 0.055739 0.29598 0.18027 0.11148-0.081492v-0.15769z"/><path d="m13.246 4.1768 0.05574-0.029986 0.28998 0.17498v0.33267z"/><path d="m13.444 4.5416 0.13511 0.15558-0.133 0.089253z"/></g><path d="m11.543 6.8991c-0.01058 0-0.02081-0.00212-0.03069-6e-3l-1.6662-0.67098c-0.027164-0.010936-0.044803-0.037042-0.044803-0.066322v-0.91122c0-0.02928 0.017639-0.055033 0.044803-0.066322l1.6662-0.67134c0.0099-0.00388 0.02011-0.00564 0.03069-0.00564 0.01446 0 0.02858 0.00388 0.04092 0.011289l0.19332 0.11254c0.02505 0.014817 0.04057 0.041628 0.04057 0.070556v2.0091c0 0.028928-0.01552 0.055739-0.04057 0.070203l-0.19332 0.11289c-0.01235 0.00741-0.02646 0.011289-0.04092 0.011289z" fill="none" stroke="#889099" stroke-miterlimit="10" stroke-width=".11748"/><g fill="#889099"><path d="m10.586 5.1104 0.01094-7.056e-4 0.01094-3.528e-4 0.01129-3.528e-4 0.01094 3.528e-4 0.01129 3.528e-4 0.01094 7.056e-4 0.01129 0.00141 0.01129 0.00106 0.01164 0.00176 0.02258 0.00424 0.01129 0.00247 0.01164 0.00282 0.01164 0.00318 0.02328 0.00706 0.01164 0.00388 0.012 0.00423 0.01164 0.00459 0.01199 0.00494 0.01164 0.00494 0.01235 0.00529 0.01199 0.00564 0.012 6e-3 0.01235 6e-3 0.0247 0.0127 0.0127 0.0067 0.0254 0.01412 0.0254-0.01412 0.0127-0.0067 0.0247-0.0127 0.01199-6e-3 0.01235-6e-3 0.01235-0.00564 0.01199-0.00529 0.01199-0.00494 0.012-0.00494 0.01164-0.00459 0.01164-0.00423 0.012-0.00388 0.01164-0.00388 0.01164-0.00317 0.01164-0.00318 0.01164-0.00282 0.02258-0.00494 0.01164-0.00176 0.01129-0.00176 0.01129-0.00141 0.01129-0.00106 0.01129-7.056e-4 0.02188-7.056e-4 0.01094 3.528e-4 0.01129 3.528e-4 0.01058 7.056e-4 0.01094 0.00106 0.01058 0.00106-0.01094-0.0067-0.01129-0.0067-0.01094-0.0067-0.01164-0.00635-0.01129-6e-3 -0.01164-6e-3 -0.01164-0.00564-0.01199-0.00564-0.02398-0.00988-0.01235-0.00494-0.0247-0.00918-0.0127-0.00388-0.01235-0.00388-0.0127-0.00353-0.01305-0.00353-0.0127-0.00317-0.0127-0.00282-0.01305-0.00282-0.03915-0.00636-0.01305-0.00176-0.01305-0.00106-0.01305-0.00141-0.01341-7.055e-4 -0.01305-7.056e-4 -0.01305-3.528e-4 -0.01341-3.527e-4 -0.01341 3.527e-4 -0.01305 3.528e-4 -0.01305 7.056e-4 -0.01305 7.055e-4 -0.01305 0.00106-0.0127 0.00141-0.0261 0.00352-0.01305 0.00212-0.0127 0.00247-0.01305 0.00247-0.0127 0.00317-0.01305 0.00282-0.0254 0.00706-0.0127 0.00388-0.0127 0.00423-0.0247 0.00846-0.01235 0.00494-0.01199 0.00494-0.01199 0.00564-0.01199 0.00529-0.01199 0.00564-0.01164 6e-3 -0.01129 6e-3 -0.01164 0.00635-0.02258 0.0134-0.01129 0.00706 0.01094-0.00106z"/><path d="m11.413 6.1383-0.0011-0.00706-0.0014-0.00741-0.0018-0.00741-0.0021-0.00741-0.0021-0.00776-0.0056-0.01552-0.0028-0.00811-7e-3 -0.01622-0.0039-0.00847-0.0056-0.011289-6e-3 -0.011289-0.0064-0.011642-0.0142-0.023988-0.0074-0.012347-0.0085-0.0127-0.0081-0.0127-0.0184-0.026106-0.0099-0.013758-0.01023-0.013406-0.01094-0.014111-0.01129-0.014111-0.01164-0.014464-0.01235-0.014817-0.0127-0.015169-0.01341-0.015169-0.01023-0.011642-0.01094-0.011994-0.01094-0.011995-0.01129-0.011994-0.01164-0.012347-0.012-0.012347-0.01235-0.0127-0.01305-0.0127-0.01305-0.013053-0.01376-0.013053-0.01376-0.013406-0.01446-0.013406-0.01482-0.013406-0.01552-0.013758-0.01552-0.014111-0.01658-0.013758-0.01693-0.014111-0.01729-0.014464-0.01799-0.014464-0.0187-0.014464-0.0194 0.015169-0.01905 0.015522-0.01834 0.015169-0.01799 0.014817-0.01729 0.014817-0.01623 0.014817-0.01623 0.014464-0.01552 0.014464-0.01517 0.014111-0.01482 0.013758-0.01411 0.013758-0.01341 0.013758-0.01341 0.013406-0.0127 0.013406-0.0127 0.013053-0.01199 0.013053-0.012 0.0127-0.01094 0.012347-0.01129 0.012347-0.01023 0.012347-0.01058 0.011994-0.0099 0.011994-0.0095 0.011642-0.0092 0.011642-0.01199 0.01517-0.01164 0.014817-0.01058 0.014464-0.01023 0.014464-0.0099 0.013758-0.0095 0.013758-0.0088 0.013406-0.0081 0.013406-0.0078 0.013053-0.0074 0.0127-0.0071 0.012347-0.0063 0.012347-0.0046 0.00917-0.0042 0.00882-0.0078 0.01764-0.0064 0.01694-0.0025 0.00811-0.0025 0.00847-0.0025 0.00776-0.0014 0.00811-0.0028 0.01552-7.06e-4 0.01482 3.53e-4 0.00741 7.06e-4 0.0067 0.0014 0.00635 0.0018 0.00635 0.0021 6e-3 0.0028 0.00529 0.01411 0.0127 0.01446 0.012347 0.01446 0.011995 0.01517 0.011289 0.01517 0.010936 0.01552 0.010583 0.01588 0.010231 0.03246 0.01906 0.01693 0.00882 0.01658 0.00847 0.01729 0.00776 0.01729 0.00741 0.01764 0.00706 0.01764 0.00635 0.01799 6e-3 0.01799 0.00564 0.01799 0.00459 0.01835 0.00459 0.01834 0.00423 0.01834 0.00353 0.0187 0.00282 0.0187 0.00247 0.0187 0.00176 0.0187 0.00141 0.01835 0.00106 0.0187 3.528e-4h0.0187l0.0187-7.056e-4 0.01835-0.00106 0.0187-0.00141 0.01834-0.00212 0.0187-0.00282 0.01834-0.00282 0.01799-0.00388 0.01834-0.00388 0.01764-0.00459 0.01799-0.00494 0.01764-0.00564 0.01764-6e-3 0.01729-0.00635 0.01729-0.00706 0.01693-0.00741 0.01693-0.00776 0.01658-0.00847 0.01658-0.00882 0.01587-0.00917 0.01587-0.00953 0.01588-0.010231 0.01517-0.010231 0.01517-0.010936 0.01446-0.011289 0.01446-0.011642 0.01411-0.011995 0.01376-0.0127 0.0028-0.00494 0.0021-0.00529 0.0018-6e-3 0.0014-6e-3 7.05e-4 -0.00635 3.53e-4 -0.0067v-0.0067l-3.53e-4 -0.00706z"/><path d="m10.474 5.7885 0.0081-0.015522 0.0085-0.015875 0.0088-0.015875 0.0095-0.016228 0.0095-0.016581 0.02046-0.033866 0.01094-0.017639 0.01094-0.017286 0.01199-0.017992c0.02928-0.04445 0.06209-0.090664 0.09419-0.133l0.01552-0.020108 0.01587-0.020461 0.01658-0.020461 0.01693-0.020814 0.01764-0.021519-0.0085-0.00811-0.01623-0.015875-0.0081-0.00776-0.0078-0.00741-0.0081-0.00741-0.0078-0.00741-0.0156-0.01412-0.0148-0.0134-0.0078-0.0067-0.0148-0.0127-0.0148-0.012-0.0071-0.00564-0.0074-0.00564-0.0071-0.00529-0.0142-0.00988-0.0067-0.00459-0.0071-0.00459c-0.03598-0.023283-0.07902-0.042333-0.12277-0.034572-0.02822 0.027869-0.05609 0.061031-0.07867 0.093133l-0.01129 0.016933-0.01094 0.017286-0.01058 0.017286-0.0099 0.017639-0.0184 0.036688-0.0081 0.018697-0.0081 0.01905-0.0071 0.01905-0.0067 0.019403-6e-3 0.019403-0.0053 0.020108-0.0049 0.019755-0.0042 0.019756-0.0035 0.020461-0.0032 0.020108-0.0025 0.020108-0.0021 0.020461-0.0011 0.020461-7.05e-4 0.020461-3.53e-4 0.020461 7.05e-4 0.020108 0.0014 0.020461 0.0018 0.020461 0.0021 0.020108 0.0032 0.020461 0.0035 0.020461 0.0042 0.019756 0.0046 0.020108 0.0053 0.019756 6e-3 0.019403 0.0067 0.019403 0.0071 0.01905 0.0078 0.01905 0.0081 0.018697 0.0085 0.018344 0.0092 0.017992 0.0099 0.017639 0.01023 0.017639 0.01094 0.016933 0.01129 0.016933 0.01199 0.01658 0.0127 0.016581-0.0025-0.00741-0.0021-0.00741-0.0018-0.00776-0.0011-0.00811-7.06e-4 -0.00847-7.05e-4 -0.00706v-0.01482l7.05e-4 -0.011289 7.06e-4 -0.011642 0.0014-0.011289 0.0042-0.023988 0.0028-0.012347 0.0032-0.012347 0.0032-0.0127 0.0039-0.013053 0.0042-0.013406 0.0046-0.013053 0.0053-0.013758 0.0049-0.013758 0.0056-0.014111 6e-3 -0.014111 0.0063-0.014464 0.0067-0.014464 0.0071-0.014817 0.0074-0.015169z"/><path d="m11.625 5.6673-0.0011-0.018344-0.0011-0.017992-0.0021-0.018344-0.0021-0.017992-0.0028-0.017992-0.0032-0.017639-0.0035-0.017639-0.0042-0.017639-0.0046-0.017286-0.0049-0.017286-0.0112-0.033866-0.0064-0.016933-0.0071-0.016581-0.0071-0.01658-0.0078-0.016228-0.0081-0.015875-0.0085-0.015875-0.0088-0.015522-0.0095-0.015522-0.0095-0.014817-0.0099-0.014817-0.01058-0.014464-0.01058-0.014111-0.01094-0.013758-0.01129-0.013406-0.01164-0.013406-0.01199-0.0127-0.0127-0.0127-0.0042-7.056e-4 -0.0084-7.055e-4h-0.0046l-0.0042-3.528e-4 -0.0046 3.528e-4h-0.0042l-0.0042 3.527e-4 -0.0046 7.056e-4 -0.0042 7.056e-4 -0.0042 7.055e-4 -0.0042 0.00106-0.0063 0.00141-0.0063 0.00212-0.012 0.00424-6e-3 0.00282-6e-3 0.00247-6e-3 0.00282-0.0056 0.00317-0.0078 0.00423-0.0074 0.00423-0.0078 0.00459-0.0056 0.00353-0.0112 0.00776-6e-3 0.00423-0.0056 0.00423-6e-3 0.00423-0.012 0.00918-0.0081 0.00635-0.0162 0.0134-0.0081 0.00706-0.0085 0.00706-0.0085 0.00741-0.0081 0.00776-0.0088 0.00776-0.0085 0.00776-0.0088 0.00811-0.0176 0.01694-0.0092 0.00847-0.0092 0.00882-0.0092 0.00917 0.01764 0.021167 0.01729 0.021167 0.01658 0.020814 0.01588 0.020461 0.01552 0.020461 0.01517 0.019755 0.01411 0.019756 0.01411 0.019403 0.01341 0.01905 0.01305 0.018697 0.01235 0.018697 0.01235 0.017992 0.01164 0.017992 0.01129 0.017992 0.01058 0.017286 0.01058 0.016933 0.0099 0.016933 0.0099 0.01658 0.0092 0.016581 0.0088 0.015875 0.017 0.03175 0.0148 0.030338 0.0071 0.014817 0.0067 0.014817 0.0063 0.014464 6e-3 0.014111 0.0056 0.014111 0.0049 0.013758 0.0053 0.013758 0.0046 0.013405 0.0042 0.013053 0.0035 0.013053 0.0035 0.0127 0.0032 0.0127 0.0025 0.012347 0.0025 0.011995 0.0018 0.011994 0.0014 0.011642 0.0011 0.011642 3.53e-4 0.011289v0.01447l-3.53e-4 0.00706-0.0011 0.00847-0.0011 0.00811-0.0036 0.01552-0.0025 0.00741 0.01094-0.014111 0.02046-0.028928 0.0095-0.014817 0.0092-0.014817 0.0092-0.01517 0.0085-0.015875 0.0162-0.03175 0.0071-0.01658 0.0071-0.016228 0.0067-0.016933 6e-3 -0.016933 0.0056-0.016933 0.0053-0.017286 0.0049-0.017639 0.0042-0.017286 0.0039-0.017639 0.0035-0.017639 0.0028-0.017639 0.0025-0.017992 0.0021-0.017639 0.0014-0.017992 0.0011-0.017992 7.05e-4 -0.018344v-0.017992z"/></g><g fill="none" stroke="#889099" stroke-miterlimit="10" stroke-width=".11748"><path d="m13.885 12.059c0 1.4594-1.1832 2.6427-2.6427 2.6427-1.4598 0-2.643-1.1832-2.643-2.6427s1.1832-2.6427 2.643-2.6427c1.4594 0 2.6427 1.1832 2.6427 2.6427z"/><path d="m13.626 11.423c-0.06844-0.02716-0.18944-0.07303-0.36301-0.05644-0.33831 0.0321-0.88547 0.09454-1.2291 0.13441-0.15946 0.0187-0.29457-0.11642-0.27587-0.27587 0.03986-0.34361 0.10231-0.89076 0.13441-1.2291 0.01658-0.17357-0.02928-0.29457-0.05645-0.36301-0.0508-0.12806-0.26494-0.17462-0.59372-0.17462s-0.54328 0.046567-0.59372 0.17462c-0.02716 0.068439-0.07302 0.18944-0.05644 0.36301 0.0321 0.33831 0.09454 0.88547 0.13441 1.2291 0.01835 0.15946-0.11642 0.29457-0.27587 0.27587-0.34361-0.03986-0.89076-0.10231-1.2291-0.13441-0.17357-0.01658-0.29457 0.02928-0.36301 0.05644-0.12806 0.05045-0.17462 0.26494-0.17462 0.59372v0.08431c0 0.32844 0.046567 0.54292 0.17462 0.59337 0.068439 0.02716 0.18944 0.07338 0.36301 0.0568 0.33831-0.0321 0.88547-0.0949 1.2291-0.13441 0.15946-0.0187 0.29422 0.11642 0.27587 0.27587-0.03986 0.34325-0.1023 0.89076-0.13441 1.2291-0.01658 0.17357 0.02928 0.29457 0.05644 0.36301 0.05045 0.12771 0.26494 0.17427 0.59372 0.17427s0.54292-0.04657 0.59372-0.17427c0.02716-0.06844 0.07303-0.18944 0.05645-0.36301-0.0321-0.33831-0.09455-0.88582-0.13441-1.2291-0.0187-0.15946 0.11642-0.29457 0.27587-0.27587 0.3436 0.03951 0.89076 0.1023 1.2291 0.13441 0.17357 0.01658 0.29457-0.02963 0.36301-0.0568 0.12806-0.05045 0.17462-0.26494 0.17462-0.59337v-0.08431c0-0.32879-0.04657-0.54328-0.17462-0.59372"/><path d="m9.8434 10.751c-0.024694 0-0.047978-0.0095-0.065264-0.02681l-0.23989-0.23989c-0.017286-0.01764-0.027164-0.04092-0.027164-0.06526 0-0.02469 0.00988-0.04798 0.027164-0.06562 0.017639-0.01764 0.040922-0.02716 0.06597-0.02716 0.025047 0 0.04833 0.0099 0.065617 0.02787l0.23918 0.23918c0.017286 0.01658 0.027164 0.03951 0.027517 0.06421 0 0.02505-0.00953 0.04868-0.027164 0.06668-0.018344 0.01764-0.041628 0.02681-0.065969 0.02681"/><path d="m12.642 10.751c0.02469 0 0.04798-0.0095 0.06526-0.02681l0.23989-0.23989c0.01729-0.01764 0.02716-0.04092 0.02716-0.06526 0-0.02469-0.0099-0.04798-0.02716-0.06562-0.01764-0.01764-0.04092-0.02716-0.06597-0.02716s-0.04833 0.0099-0.06562 0.02787l-0.23918 0.23918c-0.01729 0.01658-0.02716 0.03951-0.02752 0.06421 0 0.02505 0.0095 0.04868 0.02716 0.06668 0.01835 0.01764 0.04163 0.02681 0.06597 0.02681"/><path d="m9.8434 13.367c-0.024694 0-0.047978 0.0095-0.065264 0.02681l-0.23989 0.23989c-0.017286 0.01764-0.027164 0.04057-0.027164 0.06562 0 0.02434 0.00988 0.04763 0.027164 0.06526 0.017639 0.01764 0.040922 0.02716 0.06597 0.02716 0.025047 0 0.04833-0.0099 0.065617-0.02787l0.23918-0.23918c0.017286-0.01658 0.027164-0.03951 0.027517-0.06421 0-0.02505-0.00953-0.04868-0.027164-0.06668-0.018344-0.01764-0.041628-0.02681-0.065969-0.02681"/><path d="m12.642 13.367c0.02469 0 0.04798 0.0095 0.06526 0.02681l0.23989 0.23989c0.01729 0.01764 0.02716 0.04057 0.02716 0.06562 0 0.02434-0.0099 0.04763-0.02716 0.06526-0.01764 0.01764-0.04092 0.02716-0.06597 0.02716s-0.04833-0.0099-0.06562-0.02787l-0.23918-0.23918c-0.01729-0.01658-0.02716-0.03951-0.02752-0.06421 0-0.02505 0.0095-0.04868 0.02716-0.06668 0.01835-0.01764 0.04163-0.02681 0.06597-0.02681"/></g><g fill="#889099"><path d="m11.634 17.867-0.94403-0.50341c-0.03246-0.01729-0.05256-0.05115-0.05256-0.08784v-0.14605c0-0.02646 0.02822-0.04339 0.05151-0.03104l0.94403 0.50341c0.03246 0.01729 0.05292 0.05115 0.05292 0.08784v0.14605c0 0.02646-0.02822 0.04374-0.05186 0.03104"/><path d="m11.634 18.348-0.94403-0.50341c-0.03246-0.01729-0.05256-0.05115-0.05256-0.08784v-0.14605c0-0.02646 0.02822-0.04339 0.05151-0.03104l0.94403 0.50341c0.03246 0.01729 0.05292 0.05115 0.05292 0.08784v0.14605c0 0.02646-0.02822 0.04374-0.05186 0.03104"/><path d="m11.634 18.83-0.94403-0.50341c-0.03246-0.01729-0.05256-0.05115-0.05256-0.08784v-0.14605c0-0.02646 0.02822-0.04339 0.05151-0.03104l0.94403 0.50341c0.03246 0.01729 0.05292 0.05115 0.05292 0.08784v0.14605c0 0.02646-0.02822 0.04374-0.05186 0.03104"/><path d="m11.634 19.311-0.94403-0.50341c-0.03246-0.01729-0.05256-0.05115-0.05256-0.08784v-0.14605c0-0.02646 0.02822-0.04339 0.05151-0.03104l0.94403 0.50341c0.03246 0.01729 0.05292 0.05115 0.05292 0.08784v0.14605c0 0.02646-0.02822 0.04374-0.05186 0.03104"/><path d="m11.634 19.792-0.94403-0.50341c-0.03246-0.01729-0.05256-0.05115-0.05256-0.08784v-0.14605c0-0.02646 0.02822-0.04339 0.05151-0.03104l0.94403 0.50341c0.03246 0.01729 0.05292 0.05115 0.05292 0.08784v0.14605c0 0.02646-0.02822 0.04374-0.05186 0.03104"/><path d="m11.634 20.273-0.94403-0.50341c-0.03246-0.01729-0.05256-0.05115-0.05256-0.08784v-0.14605c0-0.02646 0.02822-0.04339 0.05151-0.03104l0.94403 0.50341c0.03246 0.01729 0.05292 0.05115 0.05292 0.08784v0.14605c0 0.02646-0.02822 0.04374-0.05186 0.03104"/><path d="m11.634 20.755-0.94403-0.50341c-0.03246-0.01729-0.05256-0.05115-0.05256-0.08784v-0.14605c0-0.02646 0.02822-0.04339 0.05151-0.03104l0.94403 0.50341c0.03246 0.01729 0.05292 0.05115 0.05292 0.08784v0.14605c0 0.02646-0.02822 0.04374-0.05186 0.03104"/><path d="m11.634 21.236-0.94403-0.50341c-0.03246-0.01729-0.05256-0.05115-0.05256-0.08784v-0.14605c0-0.02646 0.02822-0.04339 0.05151-0.03104l0.94403 0.50341c0.03246 0.01729 0.05292 0.05115 0.05292 0.08784v0.14605c0 0.02646-0.02822 0.04374-0.05186 0.03104"/><path d="m11.634 22.199-0.94403-0.50341c-0.03246-0.01729-0.05256-0.05115-0.05256-0.08784v-0.14605c0-0.02646 0.02822-0.04339 0.05151-0.03104l0.94403 0.50341c0.03246 0.01729 0.05292 0.05115 0.05292 0.08784v0.14605c0 0.02646-0.02822 0.04374-0.05186 0.03104"/><path d="m11.634 21.717-0.94403-0.50341c-0.03246-0.01729-0.05256-0.05115-0.05256-0.08784v-0.14605c0-0.02646 0.02822-0.04339 0.05151-0.03104l0.94403 0.50341c0.03246 0.01729 0.05292 0.05115 0.05292 0.08784v0.14605c0 0.02646-0.02822 0.04374-0.05186 0.03104"/><path d="m11.633 17.121-0.31221-0.16651c-0.02328-0.01235-0.05151 0.0046-0.05151 0.03104v0.1464c0 0.03669 0.02046 0.0702 0.05256 0.08749l0.31221 0.16651c0.02328 0.0127 0.05151-0.0042 0.05151-0.03104v-0.14605c0-0.03669-0.02011-0.07056-0.05256-0.08784m-0.99589-0.47237v0.14605c0 0.03704 0.02046 0.07055 0.05292 0.08784l0.31186 0.16651c0.02364 0.01235 0.05186-0.0046 0.05186-0.03104v-0.1464c0-0.03634-0.02046-0.0702-0.05292-0.08749l-0.31221-0.16652c-0.02328-0.01235-0.05151 0.0046-0.05151 0.03105"/><path d="m11.633 22.415-0.31221-0.16651c-0.02328-0.01235-0.05151 0.0046-0.05151 0.03104v0.1464c0 0.03669 0.02046 0.0702 0.05256 0.08749l0.31221 0.16651c0.02328 0.0127 0.05151-0.0042 0.05151-0.03104v-0.14605c0-0.03669-0.02011-0.07056-0.05256-0.08784m-0.99589-0.47237v0.14605c0 0.03704 0.02046 0.07056 0.05292 0.08784l0.31186 0.16651c0.02364 0.01235 0.05186-0.0046 0.05186-0.03104v-0.1464c0-0.03634-0.02046-0.0702-0.05292-0.08749l-0.31221-0.16652c-0.02328-0.01235-0.05151 0.0046-0.05151 0.03104"/><path d="m12.892 18.661-0.94403-0.50341c-0.03246-0.01729-0.05256-0.05115-0.05256-0.08784v-0.14605c0-0.02646 0.02822-0.04339 0.05151-0.03104l0.94403 0.50341c0.03246 0.01729 0.05292 0.05115 0.05292 0.08784v0.14605c0 0.02646-0.02822 0.04374-0.05186 0.03104"/><path d="m12.892 19.142-0.94403-0.50341c-0.03246-0.01729-0.05256-0.05115-0.05256-0.08784v-0.14605c0-0.02646 0.02822-0.04339 0.05151-0.03104l0.94403 0.50341c0.03246 0.01729 0.05292 0.05115 0.05292 0.08784v0.14605c0 0.02646-0.02822 0.04374-0.05186 0.03104"/><path d="m12.892 19.624-0.94403-0.50341c-0.03246-0.01729-0.05256-0.05115-0.05256-0.08784v-0.14605c0-0.02646 0.02822-0.04339 0.05151-0.03104l0.94403 0.50341c0.03246 0.01729 0.05292 0.05115 0.05292 0.08784v0.14605c0 0.02646-0.02822 0.04374-0.05186 0.03104"/><path d="m12.892 20.105-0.94403-0.50341c-0.03246-0.01729-0.05256-0.05115-0.05256-0.08784v-0.14605c0-0.02646 0.02822-0.04339 0.05151-0.03104l0.94403 0.50341c0.03246 0.01729 0.05292 0.05115 0.05292 0.08784v0.14605c0 0.02646-0.02822 0.04374-0.05186 0.03104"/><path d="m12.892 20.586-0.94403-0.50341c-0.03246-0.01729-0.05256-0.05115-0.05256-0.08784v-0.14605c0-0.02646 0.02822-0.04339 0.05151-0.03104l0.94403 0.50341c0.03246 0.01729 0.05292 0.05115 0.05292 0.08784v0.14605c0 0.02646-0.02822 0.04374-0.05186 0.03104"/><path d="m12.892 21.068-0.94403-0.50341c-0.03246-0.01729-0.05256-0.05115-0.05256-0.08784v-0.14605c0-0.02646 0.02822-0.04339 0.05151-0.03104l0.94403 0.50341c0.03246 0.01729 0.05292 0.05115 0.05292 0.08784v0.14605c0 0.02646-0.02822 0.04374-0.05186 0.03104"/><path d="m12.892 21.549-0.94403-0.50341c-0.03246-0.01729-0.05256-0.05115-0.05256-0.08784v-0.14605c0-0.02646 0.02822-0.04339 0.05151-0.03104l0.94403 0.50341c0.03246 0.01729 0.05292 0.05115 0.05292 0.08784v0.14605c0 0.02646-0.02822 0.04374-0.05186 0.03104"/><path d="m12.892 22.03-0.94403-0.50341c-0.03246-0.01729-0.05256-0.05115-0.05256-0.08784v-0.14605c0-0.02646 0.02822-0.04339 0.05151-0.03104l0.94403 0.50341c0.03246 0.01729 0.05292 0.05115 0.05292 0.08784v0.14605c0 0.02646-0.02822 0.04374-0.05186 0.03104"/><path d="m12.892 22.993-0.94403-0.50341c-0.03246-0.01729-0.05256-0.05115-0.05256-0.08784v-0.14605c0-0.02646 0.02822-0.04339 0.05151-0.03104l0.94403 0.50341c0.03246 0.01729 0.05292 0.05115 0.05292 0.08784v0.14605c0 0.02646-0.02822 0.04374-0.05186 0.03104"/><path d="m12.892 22.512-0.94403-0.50341c-0.03246-0.01729-0.05256-0.05115-0.05256-0.08784v-0.14605c0-0.02646 0.02822-0.04339 0.05151-0.03104l0.94403 0.50341c0.03246 0.01729 0.05292 0.05115 0.05292 0.08784v0.14605c0 0.02646-0.02822 0.04374-0.05186 0.03104"/><path d="m12.891 17.915-0.31221-0.16651c-0.02328-0.01235-0.0515 0.0046-0.0515 0.03104v0.1464c0 0.03669 0.02046 0.0702 0.05256 0.08749l0.31221 0.16651c0.02328 0.0127 0.0515-0.0042 0.0515-0.03104v-0.14605c0-0.03669-0.02011-0.07056-0.05256-0.08784m-0.99589-0.47237v0.14605c0 0.03704 0.02046 0.07056 0.05292 0.08784l0.31186 0.16651c0.02364 0.01235 0.05186-0.0046 0.05186-0.03104v-0.1464c0-0.03634-0.02046-0.0702-0.05292-0.08749l-0.31221-0.16651c-0.02328-0.01235-0.05151 0.0046-0.05151 0.03104"/><path d="m12.891 23.209-0.31221-0.16651c-0.02328-0.01235-0.0515 0.0046-0.0515 0.03104v0.1464c0 0.03669 0.02046 0.0702 0.05256 0.08749l0.31221 0.16651c0.02328 0.0127 0.0515-0.0042 0.0515-0.03104v-0.14605c0-0.03669-0.02011-0.07056-0.05256-0.08784m-0.99589-0.47237v0.14605c0 0.03704 0.02046 0.07056 0.05292 0.08784l0.31186 0.16651c0.02364 0.01235 0.05186-0.0046 0.05186-0.03104v-0.1464c0-0.03634-0.02046-0.0702-0.05292-0.08749l-0.31221-0.16651c-0.02328-0.01235-0.05151 0.0046-0.05151 0.03104"/></g><g fill="none" stroke="#889099" stroke-miterlimit="10"><path d="m5.7834 0.67081c-0.86536 0.20355-3.0043 0.78352-3.5698 3.139" stroke-width=".11748"/><path d="m13.506 2.746c0 0.043039-0.03492 0.077964-0.07796 0.077964-0.04269 0-0.07761-0.034925-0.07761-0.077964s0.03492-0.077964 0.07761-0.077964c0.04304 0 0.07796 0.034925 0.07796 0.077964z" stroke-width=".078317"/><g stroke-width=".11748"><path d="m58.973 23.23 0.93063-2.3333c0.17498-0.43815 0.53834-0.30551 0.70132 0.2159 1.3148 4.2076 2.0969 6.6125 2.2176 6.6735"/><path d="m64.023 5.331-1.3039-2.159c-0.47096-0.77576-0.91969-0.98213-1.8073-1.2478l-1.602-0.49389c-0.86113-0.26282-1.7554-0.43921-3.5504-0.43921h-44.787c-1.7949 0-2.6896 0.17639-3.5504 0.43921l-1.602 0.49389c-0.88794 0.26564-1.3367 0.47202-1.8073 1.2478l-1.3042 2.159c-0.52141 0.94403-0.79939 2.0666-0.26635 3.3796l6.374 15.438c0.39546 0.95814 1.33 1.5829 2.3664 1.5829h44.366c1.0368 0 1.971-0.62477 2.3668-1.5829l6.3736-15.438c0.53305-1.313 0.25506-2.4356-0.26635-3.3796z"/><path d="m52.868 7.8449c0.0099 0 0.02011-0.00212 0.02999-6e-3l0.98037-0.39899c0.05045-0.020461 0.08255-0.068439 0.08255-0.12277v-1.4023c0-0.049036-0.04092-0.079375-0.07902-0.079375-0.01023 0-0.02046 0.00176-0.03034 0.00564l-0.98037 0.39934c-0.0501 0.020108-0.08255 0.068439-0.08255 0.12241v1.4023c0 0.049389 0.04127 0.079728 0.07937 0.079728z"/></g></g><g fill="#889099"><path d="m53.559 7.0298h-0.54575v-0.050095h0.54575z"/><path d="m53.559 6.8661h-0.54575v-0.050094h0.54575z"/><path d="m53.559 6.7013h-0.54575v-0.050094h0.54575z"/></g><path d="m52.859 5.4824c0.0088 0 0.01799-0.00176 0.02646-0.00529l0.99342-0.40428c0.05009-0.020461 0.08255-0.068439 0.08255-0.12241v-0.85866c0-0.053975-0.03245-0.10231-0.08255-0.12277l-0.99342-0.40393c-0.0085-0.00388-0.01764-0.00529-0.02646-0.00529-0.03387 0-0.0702 0.026811-0.0702 0.070203v1.7822c0 0.024342 0.01129 0.040922 0.02117 0.050094 0.01305 0.0127 0.03104 0.020108 0.04904 0.020108z" fill="none" stroke="#889099" stroke-miterlimit="10" stroke-width=".11748"/><g fill="#889099"><path d="m53.222 4.7413c-0.01058 0-0.01976-0.00353-0.02752-0.011289-0.0078-0.00741-0.01129-0.016581-0.01129-0.027517v-0.38664c0-0.010583 0.0035-0.019756 0.01129-0.027164 0.0078-0.00776 0.01693-0.011289 0.02752-0.011289h0.07726c0.01094 0 0.01975 0.00353 0.02752 0.011289 0.0074 0.00741 0.01129 0.01658 0.01129 0.027164v0.38664c0 0.010936-0.0039 0.020108-0.01129 0.027517-0.0078 0.00776-0.01658 0.011289-0.02752 0.011289zm0.19332 0c-0.01058 0-0.01976-0.00353-0.02716-0.011289-0.0078-0.00741-0.01129-0.016581-0.01129-0.027517v-0.38664c0-0.010583 0.0035-0.019756 0.01129-0.027164 0.0074-0.00776 0.01658-0.011289 0.02716-0.011289h0.07761c0.01058 0 0.01975 0.00353 0.02716 0.011289 0.0074 0.00741 0.01164 0.01658 0.01164 0.027164v0.38664c0 0.010936-0.0042 0.020108-0.01164 0.027517-0.0074 0.00776-0.01658 0.011289-0.02716 0.011289zm0.28081-3.528e-4c-0.0088 0-0.01658-0.00247-0.02364-0.00776-0.0067-0.00529-0.01164-0.012347-0.01411-0.020461l-0.08643-0.31186c-0.0011-0.00388-0.0011-0.00706-0.0011-0.01023 0-0.00882 0.0025-0.016228 0.0074-0.023283 0.0053-0.0067 0.01235-0.011642 0.02046-0.014464l0.06773-0.018697c0.0039-0.00106 0.0067-0.00141 0.01023-0.00141 0.0088 0 0.01658 0.00247 0.02328 0.00776 0.0071 0.00529 0.01164 0.012347 0.01411 0.020461l0.08643 0.31221c0.0014 0.00353 0.0014 0.00706 0.0014 0.010583 0 0.00811-0.0025 0.015875-0.0074 0.02293-0.0053 0.00706-0.01199 0.011642-0.02046 0.014111l-0.05045 0.014111c-0.0078 0.00212-0.01376 0.00388-0.01764 0.00494-0.0035 7.056e-4 -0.0071 0.00106-0.0099 0.00106"/><path d="m55.099 17.867 0.94403-0.50341c0.03246-0.01729 0.05256-0.05115 0.05256-0.08784v-0.14605c0-0.02646-0.02822-0.04339-0.05151-0.03104l-0.94403 0.50341c-0.03246 0.01729-0.05292 0.05115-0.05292 0.08784v0.14605c0 0.02646 0.02822 0.04374 0.05186 0.03104"/><path d="m55.099 18.348 0.94403-0.50341c0.03246-0.01729 0.05256-0.05115 0.05256-0.08784v-0.14605c0-0.02646-0.02822-0.04339-0.05151-0.03104l-0.94403 0.50341c-0.03246 0.01729-0.05292 0.05115-0.05292 0.08784v0.14605c0 0.02646 0.02822 0.04374 0.05186 0.03104"/><path d="m55.099 18.83 0.94403-0.50341c0.03246-0.01729 0.05256-0.05115 0.05256-0.08784v-0.14605c0-0.02646-0.02822-0.04339-0.05151-0.03104l-0.94403 0.50341c-0.03246 0.01729-0.05292 0.05115-0.05292 0.08784v0.14605c0 0.02646 0.02822 0.04374 0.05186 0.03104"/><path d="m55.099 19.311 0.94403-0.50341c0.03246-0.01729 0.05256-0.05115 0.05256-0.08784v-0.14605c0-0.02646-0.02822-0.04339-0.05151-0.03104l-0.94403 0.50341c-0.03246 0.01729-0.05292 0.05115-0.05292 0.08784v0.14605c0 0.02646 0.02822 0.04374 0.05186 0.03104"/><path d="m55.099 19.792 0.94403-0.50341c0.03246-0.01729 0.05256-0.05115 0.05256-0.08784v-0.14605c0-0.02646-0.02822-0.04339-0.05151-0.03104l-0.94403 0.50341c-0.03246 0.01729-0.05292 0.05115-0.05292 0.08784v0.14605c0 0.02646 0.02822 0.04374 0.05186 0.03104"/><path d="m55.099 20.273 0.94403-0.50341c0.03246-0.01729 0.05256-0.05115 0.05256-0.08784v-0.14605c0-0.02646-0.02822-0.04339-0.05151-0.03104l-0.94403 0.50341c-0.03246 0.01729-0.05292 0.05115-0.05292 0.08784v0.14605c0 0.02646 0.02822 0.04374 0.05186 0.03104"/><path d="m55.099 20.755 0.94403-0.50341c0.03246-0.01729 0.05256-0.05115 0.05256-0.08784v-0.14605c0-0.02646-0.02822-0.04339-0.05151-0.03104l-0.94403 0.50341c-0.03246 0.01729-0.05292 0.05115-0.05292 0.08784v0.14605c0 0.02646 0.02822 0.04374 0.05186 0.03104"/><path d="m55.099 21.236 0.94403-0.50341c0.03246-0.01729 0.05256-0.05115 0.05256-0.08784v-0.14605c0-0.02646-0.02822-0.04339-0.05151-0.03104l-0.94403 0.50341c-0.03246 0.01729-0.05292 0.05115-0.05292 0.08784v0.14605c0 0.02646 0.02822 0.04374 0.05186 0.03104"/><path d="m55.099 22.199 0.94403-0.50341c0.03246-0.01729 0.05256-0.05115 0.05256-0.08784v-0.14605c0-0.02646-0.02822-0.04339-0.05151-0.03104l-0.94403 0.50341c-0.03246 0.01729-0.05292 0.05115-0.05292 0.08784v0.14605c0 0.02646 0.02822 0.04374 0.05186 0.03104"/><path d="m55.099 21.717 0.94403-0.50341c0.03246-0.01729 0.05256-0.05115 0.05256-0.08784v-0.14605c0-0.02646-0.02822-0.04339-0.05151-0.03104l-0.94403 0.50341c-0.03246 0.01729-0.05292 0.05115-0.05292 0.08784v0.14605c0 0.02646 0.02822 0.04374 0.05186 0.03104"/><path d="m55.047 17.208v0.14605c0 0.02646 0.02822 0.04374 0.05186 0.03104l0.31186-0.16616c0.03246-0.01729 0.05256-0.05115 0.05256-0.08784v-0.1464c0-0.02646-0.02822-0.04339-0.0515-0.03105l-0.31221 0.16651c-0.03245 0.01729-0.05256 0.05115-0.05256 0.08784m0.99695-0.59126-0.31221 0.16651c-0.03245 0.01729-0.05256 0.0508-0.05256 0.08784v0.1464c0 0.02646 0.02822 0.04339 0.05151 0.03069l0.31221-0.16651c0.03246-0.01693 0.05256-0.0508 0.05256-0.08749v-0.1464c0-0.02646-0.02822-0.04339-0.0515-0.03105"/><path d="m55.047 22.503v0.14605c0 0.02646 0.02822 0.04374 0.05186 0.03104l0.31186-0.16616c0.03246-0.01729 0.05256-0.05115 0.05256-0.08784v-0.1464c0-0.02646-0.02822-0.04339-0.0515-0.03104l-0.31221 0.16651c-0.03245 0.01729-0.05256 0.05115-0.05256 0.08784m0.99695-0.59126-0.31221 0.16651c-0.03245 0.01729-0.05256 0.0508-0.05256 0.08784v0.1464c0 0.02646 0.02822 0.04339 0.05151 0.03069l0.31221-0.16651c0.03246-0.01693 0.05256-0.0508 0.05256-0.08749v-0.1464c0-0.02646-0.02822-0.04339-0.0515-0.03104"/><path d="m53.841 18.661 0.94403-0.50341c0.03245-0.01729 0.05256-0.05115 0.05256-0.08784v-0.14605c0-0.02646-0.02822-0.04339-0.05151-0.03104l-0.94403 0.50341c-0.03246 0.01729-0.05292 0.05115-0.05292 0.08784v0.14605c0 0.02646 0.02822 0.04374 0.05186 0.03104"/><path d="m53.841 19.142 0.94403-0.50341c0.03245-0.01729 0.05256-0.05115 0.05256-0.08784v-0.14605c0-0.02646-0.02822-0.04339-0.05151-0.03104l-0.94403 0.50341c-0.03246 0.01729-0.05292 0.05115-0.05292 0.08784v0.14605c0 0.02646 0.02822 0.04374 0.05186 0.03104"/><path d="m53.841 19.624 0.94403-0.50341c0.03245-0.01729 0.05256-0.05115 0.05256-0.08784v-0.14605c0-0.02646-0.02822-0.04339-0.05151-0.03104l-0.94403 0.50341c-0.03246 0.01729-0.05292 0.05115-0.05292 0.08784v0.14605c0 0.02646 0.02822 0.04374 0.05186 0.03104"/><path d="m53.841 20.105 0.94403-0.50341c0.03245-0.01729 0.05256-0.05115 0.05256-0.08784v-0.14605c0-0.02646-0.02822-0.04339-0.05151-0.03104l-0.94403 0.50341c-0.03246 0.01729-0.05292 0.05115-0.05292 0.08784v0.14605c0 0.02646 0.02822 0.04374 0.05186 0.03104"/><path d="m53.841 20.586 0.94403-0.50341c0.03245-0.01729 0.05256-0.05115 0.05256-0.08784v-0.14605c0-0.02646-0.02822-0.04339-0.05151-0.03104l-0.94403 0.50341c-0.03246 0.01729-0.05292 0.05115-0.05292 0.08784v0.14605c0 0.02646 0.02822 0.04374 0.05186 0.03104"/><path d="m53.841 21.068 0.94403-0.50341c0.03245-0.01729 0.05256-0.05115 0.05256-0.08784v-0.14605c0-0.02646-0.02822-0.04339-0.05151-0.03104l-0.94403 0.50341c-0.03246 0.01729-0.05292 0.05115-0.05292 0.08784v0.14605c0 0.02646 0.02822 0.04374 0.05186 0.03104"/><path d="m53.841 21.549 0.94403-0.50341c0.03245-0.01729 0.05256-0.05115 0.05256-0.08784v-0.14605c0-0.02646-0.02822-0.04339-0.05151-0.03104l-0.94403 0.50341c-0.03246 0.01729-0.05292 0.05115-0.05292 0.08784v0.14605c0 0.02646 0.02822 0.04374 0.05186 0.03104"/><path d="m53.841 22.03 0.94403-0.50341c0.03245-0.01729 0.05256-0.05115 0.05256-0.08784v-0.14605c0-0.02646-0.02822-0.04339-0.05151-0.03104l-0.94403 0.50341c-0.03246 0.01729-0.05292 0.05115-0.05292 0.08784v0.14605c0 0.02646 0.02822 0.04374 0.05186 0.03104"/><path d="m53.841 22.993 0.94403-0.50341c0.03245-0.01729 0.05256-0.05115 0.05256-0.08784v-0.14605c0-0.02646-0.02822-0.04339-0.05151-0.03104l-0.94403 0.50341c-0.03246 0.01729-0.05292 0.05115-0.05292 0.08784v0.14605c0 0.02646 0.02822 0.04374 0.05186 0.03104"/><path d="m53.841 22.512 0.94403-0.50341c0.03245-0.01729 0.05256-0.05115 0.05256-0.08784v-0.14605c0-0.02646-0.02822-0.04339-0.05151-0.03104l-0.94403 0.50341c-0.03246 0.01729-0.05292 0.05115-0.05292 0.08784v0.14605c0 0.02646 0.02822 0.04374 0.05186 0.03104"/><path d="m53.789 18.003v0.14605c0 0.02646 0.02822 0.04374 0.05186 0.03104l0.31186-0.16616c0.03246-0.01729 0.05256-0.05115 0.05256-0.08784v-0.1464c0-0.02646-0.02822-0.04339-0.0515-0.03104l-0.31221 0.16651c-0.03245 0.01729-0.05256 0.05115-0.05256 0.08784m0.99695-0.59126-0.31221 0.16651c-0.03246 0.01729-0.05256 0.0508-0.05256 0.08784v0.1464c0 0.02646 0.02822 0.04339 0.05151 0.03069l0.31221-0.16651c0.03246-0.01693 0.05256-0.0508 0.05256-0.08749v-0.1464c0-0.02646-0.02822-0.04339-0.0515-0.03104"/><path d="m53.789 23.297v0.14605c0 0.02646 0.02822 0.04374 0.05186 0.03104l0.31186-0.16616c0.03246-0.01729 0.05256-0.05115 0.05256-0.08784v-0.1464c0-0.02646-0.02822-0.04339-0.0515-0.03104l-0.31221 0.16651c-0.03245 0.01729-0.05256 0.05115-0.05256 0.08784m0.99695-0.59126-0.31221 0.16651c-0.03246 0.01729-0.05256 0.0508-0.05256 0.08784v0.1464c0 0.02646 0.02822 0.04339 0.05151 0.03069l0.31221-0.16651c0.03246-0.01693 0.05256-0.0508 0.05256-0.08749v-0.1464c0-0.02646-0.02822-0.04339-0.0515-0.03104"/></g><g fill="none" stroke="#889099" stroke-miterlimit="10"><g stroke-width=".078317"><path d="m53.227 2.746c0 0.043039 0.03493 0.077964 0.07796 0.077964 0.04269 0 0.07761-0.034925 0.07761-0.077964s-0.03493-0.077964-0.07761-0.077964c-0.04304 0-0.07796 0.034925-0.07796 0.077964z"/><path d="m52.201 1.1685h-37.669c-0.09243 0-0.16722 0.074789-0.16722 0.16722v24.051c0 0.09243 0.07479 0.16722 0.16722 0.16722h37.669c0.09243 0 0.16722-0.07479 0.16722-0.16722v-24.051c0-0.092428-0.07479-0.16722-0.16722-0.16722z"/><path d="m15.482 23.315h35.769v-20.058h-35.769z"/></g><path d="m60.847 3.9357c0 0.61595-0.49918 1.1155-1.1155 1.1155-0.61595 0-1.1151-0.49953-1.1151-1.1155 0-0.61595 0.49918-1.1155 1.1151-1.1155 0.6163 0 1.1155 0.49953 1.1155 1.1155z" stroke-width=".11748"/></g><path d="m59.564 4.0957-0.52105-0.58808h0.38453l0.30339 0.34325 0.30374-0.34325h0.38418l-0.52105 0.58808v0.52458h-0.33373z" fill="#889099"/><path d="m60.847 8.4926c0 0.61595-0.49918 1.1155-1.1155 1.1155-0.61595 0-1.1151-0.49953-1.1151-1.1155 0-0.61595 0.49918-1.1155 1.1151-1.1155 0.6163 0 1.1155 0.49953 1.1155 1.1155z" fill="none" stroke="#889099" stroke-miterlimit="10" stroke-width=".11748"/><path d="m59.452 8.4119h0.56233v-0.30304h-0.56233zm0.89676-0.4632v1.088h-0.32632v-0.46355h-0.57503v0.46355h-0.33232v-1.088z" fill="#889099"/><path d="m58.568 6.2141c0 0.61595-0.49918 1.1155-1.1155 1.1155-0.61595 0-1.1151-0.49953-1.1151-1.1155 0-0.61595 0.49918-1.1155 1.1151-1.1155 0.6163 0 1.1155 0.49953 1.1155 1.1155z" fill="none" stroke="#889099" stroke-miterlimit="10" stroke-width=".11748"/><path d="m57.65 6.2206 0.50377 0.56409h-0.39617l-0.3048-0.34396-0.3048 0.34396h-0.393l0.49883-0.56409-0.50694-0.57714h0.3944l0.3115 0.35207 0.30974-0.35207h0.39617z" fill="#889099"/><path d="m63.125 6.2141c0 0.61595-0.49918 1.1155-1.1155 1.1155-0.61595 0-1.1151-0.49953-1.1151-1.1155 0-0.61595 0.49918-1.1155 1.1151-1.1155 0.6163 0 1.1155 0.49953 1.1155 1.1155z" fill="none" stroke="#889099" stroke-miterlimit="10" stroke-width=".11748"/><g fill="#889099"><path d="m61.743 6.5927h0.53481v-0.34784h-0.53481zm0-0.50553h0.53481v-0.25118h-0.53481zm0.85513 0.66358h-1.1758v-1.0728h1.0823v0.40922h0.09349z"/><path d="m65.05 9.8886 0.0071 0.010583-0.35489 7.055e-4 -0.07514-0.09525h0.07902l0.2794-7.056e-4z"/><path d="m65.019 9.9693-0.03316 0.095956h-0.15416l-0.07479-0.095251h0.14499z"/><path d="m64.962 10.136-0.03316 0.09596h-0.16369l0.03387-0.09596h0.10901z"/><path d="m64.858 9.6383 0.07338 0.09525-0.36089 7.055e-4 -0.01199-0.015169 0.02505-0.080786h0.21308z"/><path d="m64.904 10.301-0.03316 0.09596-0.12806 7.05e-4h-0.03739l0.03387-0.09596 0.12841-7.06e-4z"/><path d="m64.847 10.465-0.03634 0.10231-0.54257-0.0046-0.07726-0.09525 0.3817 7.06e-4 0.05327 0.06703 0.03069 7.05e-4 0.02505-0.07232z"/><path d="m64.73 9.4721 0.07444 0.095955h-0.19473l0.03493-0.095955z"/><path d="m64.787 10.633-0.03387 0.09596h-0.35031l-0.07761-0.09525 0.41416-7.06e-4z"/><path d="m64.728 10.799-0.02999 0.08467-0.0039 0.01058-0.15804 7.06e-4 -0.0769-0.09525z"/><path d="m64.669 10.965-0.0032 0.0071-0.0025 0.0074-0.0032 0.0074-0.0025 0.0081-0.0025 0.0071-0.0025 0.0074-0.0025 0.0081-0.0032 0.0071-0.0032 0.0074-0.02328-0.02999-0.02928-0.03704h0.0688z"/><path d="m64.511 11.033 0.07585 0.09525-0.15981 7.06e-4h-0.21308l-0.07902-0.09525h0.08784z"/><path d="m64.585 11.199-0.03493 0.09596h-0.20179l-0.07726-0.09525h0.15663z"/><path d="m64.525 11.365-0.0042 0.01058-0.0039 0.01058-0.0039 0.01023-0.0042 0.01058-0.0064 0.02116-0.0042 0.01129-0.0039 0.01023-0.0049 0.01129h-0.1718l0.0049-0.01129 0.0039-0.01023 0.0032-0.01058 0.0042-0.01058 0.0039-0.01058 0.0032-0.01129 0.0042-0.0095 0.0039-0.01058 0.0042-0.01058h0.01905l0.13406-7.06e-4z"/><path d="m64.49 10.366 0.02505 0.0314-0.38347 7.06e-4 -0.07902-0.09525 0.38559-7.06e-4z"/><path d="m64.463 11.53-0.0042 0.01058-0.0039 0.01058-0.0039 0.01023-0.0035 0.01058-0.0039 0.01058-0.0032 0.01129-0.0042 0.01058-0.0039 0.01094-0.0049 0.01058-0.1524 7.05e-4h-0.0194l0.0042-0.01023 0.0039-0.01129 0.0039-0.01058 0.0042-0.01058 0.0039-0.01058 0.0032-0.01023 0.0042-0.01129 0.0039-0.01058 0.0042-0.01058 0.13476-7.06e-4z"/><path d="m64.378 10.868 0.07655 0.09525-0.11994 7.06e-4 -0.19967 7.05e-4h-0.05821l-0.07902-0.09596 0.20108-7.06e-4z"/><path d="m64.422 9.1411 0.02187 0.09525-0.17462 7.055e-4 0.03563-0.09525z"/><path d="m64.417 9.3074-0.04127 0.096661-0.16757-0.00141 0.03528-0.09525z"/><path d="m64.403 9.0564 0.0032 0.013758-0.07585 7.055e-4 0.01058-0.027164 0.01517-0.04057 0.0049-0.011994 0.0056-0.013053 0.0049-0.011289 0.0056-0.011994 0.0039 0.011289 0.0032 0.011994 0.0032 0.012347 0.0035 0.0127z"/><path d="m64.403 11.697-0.0042 0.01058-0.0039 0.01058-0.0039 0.01023-0.0042 0.01058-0.0032 0.01058-0.0039 0.01058-0.0042 0.01129-0.0039 0.01023-0.0042 0.01129-0.59549 7.05e-4 -0.08079-0.09525h0.16863l0.41557-0.0014z"/><path d="m64.304 10.136 0.07902 0.09525h-0.38911l-0.07973-0.09525h0.30728z"/><path d="m64.355 9.4737-0.04339 0.09525h-0.16651l0.03457-0.09525z"/><path d="m64.342 11.862-0.0042 0.01058-0.0039 0.01058-0.0039 0.01129-0.0035 0.01023-0.0078 0.02116-0.0042 0.01129-0.0039 0.01023-0.0042 0.01058-0.39723 0.0018-0.07902-0.09525z"/><path d="m64.243 10.702 0.07761 0.09596h-0.12206l-0.25894 7.05e-4 -0.0568-0.06668-0.0021 0.0071-0.0056 0.01552-0.0081 0.02187-0.0092 0.02223h-0.17921l0.0042-0.0095 0.0049-0.01058 0.0039-0.01058 0.0035-0.01129 0.0028-0.01023 0.0042-0.01129 0.0042-0.01058 0.0039-0.01058 0.0046-0.01058z"/><path d="m64.294 9.6392-0.0042 0.010583-0.0039 0.010583-0.0039 0.010231-0.0042 0.010583-0.0032 0.010583-0.0039 0.010583-0.0042 0.01023-0.0039 0.011289-0.0042 0.010583h-0.17604l0.0042-0.010583 0.0081-0.021519 0.01199-0.03175 0.0081-0.020814 0.0039-0.010583h0.01976z"/><path d="m64.167 9.9709 0.07973 0.09525h-0.28963l0.0039-0.01058 0.0092-0.02152 0.01129-0.03175 0.0081-0.021519 0.0039-0.010583h0.02011z"/><path d="m64.232 9.8055-0.0042 0.010583-0.0028 0.010583-0.0042 0.010231-0.0042 0.010583-0.0078 0.021166-0.0035 0.010231-0.0046 0.010583-0.0042 0.011289h-0.17603l0.0042-0.011289 0.0081-0.020814 0.01199-0.03175 0.0074-0.020814 0.0039-0.010583z"/><path d="m64.107 10.538 0.07902 0.09525-0.4438 7.06e-4 0.0046-0.01058 0.0042-0.01023 0.0042-0.01058 0.0028-0.01058 0.0035-0.01129 0.0039-0.01023 0.0039-0.01129 0.0042-0.01058 0.0049-0.0099z"/><path d="m64.154 12.366-0.0042 0.01058-0.0039 0.01058-0.0039 0.01023-0.0042 0.01058-0.0039 0.01058-0.0042 0.01058-0.0032 0.01129-0.0046 0.01023-0.0042 0.01129-0.66675 0.0025 0.0049-0.0095 0.0039-0.01058 0.0042-0.01058 0.0032-0.01023 0.0064-0.02258 0.0039-0.01164 0.0049-0.01058 0.0049-0.01023z"/><path d="m64.092 12.531-0.0042 0.01058-0.0039 0.01058-0.0039 0.01094-0.0042 0.01058-0.0039 0.01058-0.0042 0.01058-0.0039 0.01058-0.0042 0.01094-0.0039 0.01058-0.43744 0.0018-0.23178 0.0018 0.0049-0.01129 0.0049-0.01058 0.0039-0.01058 0.0032-0.01129 0.0025-0.01058 0.0032-0.01129 0.0049-0.01058 0.0039-0.01058 0.0049-0.0095 0.23248-0.0018z"/><path d="m63.969 10.371 0.07973 0.09525-0.24377 7.06e-4 0.01235-0.0321 0.01199-0.03175 0.01199-0.0321z"/><path d="m63.94 11.532 0.07902 0.09525-0.32773 0.0014h-0.05962l-0.08149-0.09596 0.26317-7.06e-4z"/><path d="m63.801 11.367 0.07973 0.09596h-0.06773l-0.32279 7.05e-4 -0.04586-0.05327 0.0014-0.0046 0.0025-0.0049 0.0018-0.0039 0.0014-0.0049 0.0018-0.0049 0.0018-0.0046 0.0014-0.0049 0.0025-0.0049 0.0018-0.0049 0.28152-7.06e-4z"/><path d="m63.832 10.869-0.0127 0.0314-0.01164 0.03246-0.0127 0.0321h-0.18097l0.0049-0.01058 0.0049-0.01094 0.0039-0.01058 0.0032-0.01058 0.0035-0.01058 0.0028-0.01058 0.0042-0.01023 0.0049-0.01058 0.0039-0.01058 0.14111-7.06e-4h0.02681z"/><path d="m63.806 13.196 0.02434 0.02928-0.0032 0.0078-0.0056 0.01482-0.0085 0.02258-0.0056 0.01446-0.0021 0.0071-0.20602 7.05e-4 -0.0702 0.0011h-0.03563l-0.07973-0.09631z"/><path d="m63.794 12.036-0.01199 0.0314-0.01235 0.03246-0.0078 0.02152-0.0042 0.01058-0.2099 7.05e-4 -0.08149-0.09596 0.22049-7.06e-4z"/><path d="m63.713 11.869 0.07973 0.09596-0.37112 7.05e-4 -0.19297 0.0011 0.0039-0.01058 0.0049-0.01058 0.0042-0.01058 0.0039-0.01023 0.0032-0.01129 0.0032-0.01058 0.0042-0.01129 0.0098-0.02116h0.1016z"/><path d="m63.778 13.362-0.0042 0.01058-0.0085 0.02152-0.01164 0.03175-0.0088 0.02152-0.0039 0.01058h-0.10901l-0.08008-0.09525 0.12665-7.06e-4z"/><path d="m63.768 11.035-0.0081 0.02117-0.01623 0.04269-0.0127 0.0321-0.18098 7.05e-4 0.0049-0.01023 0.0049-0.01058 0.0039-0.01058 0.0032-0.01058 0.0035-0.01129 0.0039-0.01129 0.0039-0.01023 0.0042-0.01058 0.0046-0.01058h0.02046l0.121-7.06e-4z"/><path d="m63.668 13.031 0.07973 0.09525-0.1718 7.06e-4 -0.2226 7.05e-4 -0.08185-0.09525 0.17921-7.05e-4z"/><path d="m63.691 11.237 0.0508 0.06033h-0.11218l-0.14288 0.0011 0.0049-0.01058 0.0046-0.01023 0.0042-0.01058 0.0032-0.01129 0.0032-0.01164 0.0042-0.01023 0.0039-0.01058 0.0042-0.01058 0.0046-0.01058h0.02681l0.15416-7.06e-4z"/><path d="m63.731 12.201-0.01199 0.0321-0.01235 0.03175-0.01199 0.0321-0.17921 7.05e-4 0.0039-0.01129 0.02822-0.07338 0.0042-0.01058 0.06068-7.05e-4z"/><path d="m63.572 11.705 0.08079 0.09525-0.36089 0.0014 0.0049-0.01023 0.0039-0.01058 0.0042-0.01129 0.0039-0.01058 0.0032-0.01129 0.0042-0.01058 0.0039-0.01023 0.0039-0.01058 0.0049-0.01058z"/><path d="m63.53 12.866 0.07902 0.09596h-0.39723l-0.08114-0.09525h0.17992z"/><path d="m63.431 11.539 0.08149 0.09525h-0.15663l0.0049-0.01058 0.0049-0.01023 0.0039-0.01058 0.0032-0.01058 0.0042-0.01129 0.0032-0.01058 0.0039-0.01023 0.0042-0.01058 0.0049-0.01058z"/><path d="m63.39 12.7 0.08079 0.09525-0.17533 7.06e-4 -0.17992 7.05e-4h-0.04516l-0.08396-0.09525h0.09102l0.09066-7.05e-4z"/><path d="m63.384 12.037-0.0049 0.0099-0.0039 0.01023-0.0049 0.01058-0.0064 0.02258-0.0032 0.01058-0.0042 0.01058-0.0049 0.01023-0.0046 0.01058h-0.04057l-0.1023 7.06e-4h-0.04127l0.03704-0.09596z"/><path d="m63.249 12.535 0.08149 0.09525-0.1584 7.06e-4 -0.18521 7.05e-4 -0.01729 0.0011 0.0381-0.09631 0.02646-7.05e-4h0.1083z"/><path d="m63.32 12.203-0.0098 0.02116-0.0039 0.01023-0.0064 0.02258-0.0042 0.01129-0.0039 0.01058-0.0042 0.01058-0.0046 0.0095h-0.18415l0.03704-0.09596h0.16404z"/><path d="m63.255 12.369-0.03704 0.09596h-0.18414l0.03775-0.09525h0.04127l0.08185-7.06e-4z"/><path d="m65.148 9.1984 7.05e-4 -0.00318 0.012-0.035631v-7.056e-4l0.07761-0.24059 0.0702-0.23072 0.06138-0.21978 0.05574-0.20743 0.05009-0.19544 0.04269-0.18627 0.0381-0.17745 0.03281-0.16722 0.02999-0.15663 0.03175-0.16863 0.05327-0.29563 0.02011 0.10336 0.02081 0.10336-0.04586 0.24624-0.04198 0.22613-0.02822 0.14288-0.03069 0.15311-0.03493 0.16334-0.03951 0.1718-0.04586 0.18168-0.05009 0.18803-0.05503 0.19473-0.06032 0.20179-0.07585 0.24201-0.01623 0.050094-0.0049 0.016228-0.0046 0.015875-0.0049 0.016933-0.0049 0.016228-0.0381 0.11642-0.05151 0.15663-0.02752 0.079728-0.0081-0.010583-0.06279-0.083961 0.02258-0.067733 0.04516-0.13229 0.01058-0.033161 0.03704-0.11606 0.01623-0.048683z"/><path d="m65.357 5.4837 0.02681 0.092075-0.01976 0.13229-0.02152 0.13899-0.02434 0.14358-0.02575 0.14534-0.02752 0.14852-0.02893 0.15487-0.03316 0.1584-0.03563 0.16298-0.03845 0.16933-0.04233 0.17533-0.04762 0.18062-0.05151 0.18979-0.05644 0.19932-0.06385 0.2092-0.07267 0.21802-0.05397 0.16122-0.02928 0.083255-0.02893 0.083961-0.06138 0.17357-0.06526 0.17992-0.05821 0.16087-0.07479-0.094544 0.0039-0.013053 0.0014-0.00318 0.08819-0.24059 0.04198-0.11606 0.04092-0.11395 0.03951-0.11218 0.0381-0.10901 0.03634-0.10654 0.03457-0.10407 0.03387-0.1016 0.06562-0.20108 0.05891-0.19368 0.05256-0.18732 0.04833-0.18098 0.04516-0.17498 0.03951-0.17039 0.03634-0.16616 0.03387-0.16087 0.03069-0.15804 0.02681-0.15346 0.02505-0.14781 0.02399-0.14358 0.02258-0.14041 0.02117-0.13476 0.01834-0.12594z"/><path d="m32.001 24.443 0.32738 0.3743h-0.28293l-0.4311-0.49212h0.40499v-0.1912h-0.44168v0.68333h-0.24236v-0.8008h0.91969v0.42651z"/><path d="m33.131 24.545 0.13617 0.15416h0.29386v-0.5648h-0.43004zm-0.23918 0.05151v-0.57997h0.9084v0.8008h-0.71402z"/><path d="m35.123 24.381h0.23918v0.43568h-0.91193v-0.80045h0.94721l-0.1016 0.11748h-0.60184v0.56515h0.42898z"/></g></svg>
