<svg width="122.96mm" height="49.614mm" version="1.1" viewBox="0 0 122.96 49.614" xml:space="preserve" xmlns="http://www.w3.org/2000/svg" xmlns:xlink="http://www.w3.org/1999/xlink"><g><path d="m14.623 17.333c-0.33902-0.0025-0.67769-0.04547-1.0065-0.12877-0.32844-0.0829-0.64664-0.20566-0.94615-0.36441-0.2988-0.1584-0.57926-0.35243-0.83291-0.57715-0.25315-0.22437-0.48038-0.47872-0.67511-0.756-0.24239-0.34714-0.43325-0.72637-0.56762-1.1278-0.09108-0.27341-0.15487-0.55739-0.18905-0.8442-0.03432-0.28646-0.03915-0.5775-0.01446-0.86501 0.02424-0.28751 0.07867-0.57326 0.1608-0.84949 0.08227-0.27658 0.19336-0.5461 0.32992-0.8001s0.29986-0.49495 0.48507-0.71649c0.18549-0.22084 0.39391-0.42439 0.61969-0.6029 0.22648-0.17921 0.47202-0.33549 0.72919-0.46461 0.25753-0.12982 0.52952-0.23317 0.80821-0.30797 0.82973-0.2219 1.717-0.18592 2.5259 0.10195 0.45896 0.16334 0.88336 0.40252 1.2612 0.7112 0.37782 0.30903 0.69709 0.67698 0.94862 1.0936 0.25224 0.41769 0.42898 0.87136 0.52634 1.3494 0.08467 0.41451 0.10901 0.83784 0.07232 1.2594-0.04586 0.52141-0.19085 1.0449-0.41945 1.5138-0.23248 0.47696-0.54751 0.90064-0.93662 1.2605-0.39088 0.36018-0.83961 0.63994-1.3335 0.8315-0.48013 0.18593-1.0051 0.28363-1.5187 0.28363h-0.02716m-2.758-1.1017c0.25118 0.22225 0.52881 0.41452 0.82479 0.57186 0.29704 0.15698 0.61207 0.27909 0.93698 0.36089 0.32561 0.08255 0.66075 0.12535 0.99624 0.12735h0.02505c0.50976 0 1.0298-0.09701 1.5057-0.28152 0.48895-0.18908 0.9331-0.46566 1.3201-0.82303 0.38559-0.35524 0.69744-0.7747 0.9278-1.2478 0.22613-0.46426 0.36971-0.98213 0.41522-1.4982v-7e-4c0.03599-0.41734 0.012-0.83715-0.07161-1.2481-0.09666-0.47272-0.27199-0.92181-0.52105-1.3353-0.24941-0.4131-0.5655-0.77717-0.93945-1.0827-0.3743-0.30586-0.79446-0.54293-1.2485-0.7045-0.45544-0.16227-0.93098-0.24447-1.4129-0.24447-0.36759 3.5e-4 -0.73378 0.04868-1.0883 0.14358-0.27587 0.07373-0.54504 0.17603-0.79975 0.30444-0.25541 0.12806-0.49848 0.28293-0.72249 0.46038-0.22401 0.17709-0.43028 0.37818-0.61369 0.5969-0.18341 0.21907-0.34505 0.45791-0.48052 0.70979-0.13504 0.25118-0.24514 0.51788-0.32674 0.79163-0.08103 0.27376-0.13462 0.55704-0.15903 0.84138-0.02438 0.28469-0.01941 0.57291 0.01446 0.85654 0.0339 0.28363 0.09663 0.56515 0.18729 0.83608 0.13272 0.39723 0.32219 0.77294 0.56198 1.1162l3.88e-4 7.1e-4h2.83e-4c0.19265 0.27481 0.41741 0.5267 0.66777 0.74859" fill="#888f97"/><path d="m107.66 9.1498 0.53589 0.84749v0.61805h0.29662v-0.61392l0.5395-0.85163h-0.33899l-0.339 0.58188-0.34623-0.58188z" fill="#888f97"/><path d="m108.34 8.2672c-0.8756 0-1.5875 0.71243-1.5875 1.588 0 0.87525 0.7119 1.5875 1.5875 1.5875 0.87559 0 1.588-0.71225 1.588-1.5875 0-0.87559-0.71242-1.588-1.588-1.588z" fill="none" stroke="#888f97" stroke-width=".235"/><g fill="#888f97"><path d="m18.701 13.031c0 2.2486-1.8295 4.0781-4.0778 4.0781-2.2486 0-4.0783-1.8295-4.0783-4.0781 0-2.2486 1.8297-4.0781 4.0783-4.0781 2.2483 0 4.0778 1.8295 4.0778 4.0781m-8.0064 0c0 2.1661 1.7626 3.9282 3.9286 3.9282 2.1657 0 3.9282-1.7621 3.9282-3.9282 0-2.166-1.7625-3.9285-3.9282-3.9285-2.1661 0-3.9286 1.7625-3.9286 3.9285"/><path d="m104.8 22.431c2.0867 0 3.7842 1.6976 3.7842 3.7842 0 2.0867-1.6976 3.7842-3.7842 3.7842-2.0867 0-3.7842-1.6976-3.7842-3.7842 0-2.0867 1.6976-3.7842 3.7842-3.7842m0 7.4172c2.0031 0 3.6329-1.6298 3.6329-3.6329 0-2.0031-1.6298-3.6329-3.6329-3.6329-2.0031 0-3.6329 1.6298-3.6329 3.6329 0 2.0031 1.6298 3.6329 3.6329 3.6329"/><path d="m23.796 6.2729c0.08185 0 0.14817-0.06637 0.14817-0.14817 0-0.08182-0.06633-0.14852-0.14817-0.14852-0.08185 0-0.14817 0.06672-0.14817 0.14852 0 0.08187 0.06633 0.14817 0.14817 0.14817m0.61454 0.0635c0.11677 0 0.21167-0.0949 0.21167-0.21167 0-0.11712-0.0949-0.21202-0.21167-0.21202-0.11712 0-0.21202 0.0949-0.21202 0.21202 0 0.11677 0.0949 0.21167 0.21202 0.21167m0.61419-0.0635c0.08185 0 0.14817-0.06637 0.14817-0.14817 0-0.08182-0.06633-0.14852-0.14817-0.14852-0.08185 0-0.14817 0.06672-0.14817 0.14852 0 0.08187 0.06633 0.14817 0.14817 0.14817" stroke="#888f97" stroke-width=".035278"/></g><path d="m104.8 23.786c0.64629 0 1.2541 0.25083 1.7127 0.70697 0.46038 0.4572 0.71449 1.0672 0.71649 1.7159v7e-3c0 1.3356-1.0866 2.4252-2.4225 2.4292h-7e-3c-0.64629 0-1.2545-0.25083-1.7127-0.70697-0.46002-0.4572-0.71449-1.0664-0.71649-1.7156-2e-3 -0.64876 0.24906-1.2598 0.70661-1.7198 0.45756-0.46038 1.0668-0.71485 1.7159-0.71685h7e-3" fill="none" stroke="#888f97" stroke-width=".235"/><g fill="#888f97"><path d="m104.8 23.069c1.735 0 3.1461 1.4111 3.1461 3.1457 0 1.7346-1.4111 3.1461-3.1461 3.1461-1.7346 0-3.1457-1.4115-3.1457-3.1461 0-1.7346 1.4111-3.1457 3.1457-3.1457m2.4525 1.3081-0.13384-0.16697-0.14499-0.15628-0.15557-0.14605-0.16545-0.13476-0.17428-0.12312-0.18274-0.11078-0.18979-0.0974-0.1965-0.0843-0.20143-0.0702-0.20638-0.0564-0.2099-0.0416-0.21202-0.0268-0.21378-0.0124-0.21379 3e-3 -0.21343 0.018-0.21131 0.0328-0.20885 0.0473-0.20531 0.0617-0.20003 0.0762-0.19438 0.0896-0.18768 0.10301-0.17991 0.11606-0.17145 0.12806-0.16228 0.1397-0.1517 0.15099-0.1404 0.16087-0.12912 0.17003-0.11677 0.17851-0.10442 0.18591-0.0907 0.19262-0.0769 0.19791-0.0631 0.20249-0.0487 0.20603-0.0342 0.20496c0 1e-3 3.5e-4 0.0013 0 2e-3 0 1e-3 -3.5e-4 0.0013-3.5e-4 2e-3l-0.0201 0.20955-5e-3 0.18379v7.1e-4 7.1e-4 7e-4 1e-3l5e-3 0.1838 0.0194 0.20496 0.0332 0.2032 0.0469 0.20144 0.0603 0.19755 0.0737 0.19332 0.0864 0.18874 0.0995 0.18239 0.11148 0.17497 0.12312 0.16757 0.13476 0.15875 0.14499 0.14923 0.15487 0.13935 0.16369 0.12805 0.17215 0.11677 0.17992 0.10513 0.18627 0.0924 0.19191 0.0797 0.1972 0.0667 0.20108 0.0526 0.20391 0.0392 0.20637 0.0254 0.20744 0.0109 0.20778-3e-3 0.20708-0.0169 0.20532-0.031 0.20285-0.0448 0.19896-0.0586 0.19474-0.0716 0.18944-0.0847 0.18344-0.0974 0.17604-0.10971 0.16827-0.12101 0.15981-0.13229 0.14993-0.14252 0.14041-0.1524 0.12982-0.16122 0.11783-0.16969 0.10654-0.17674 0.0942-0.18344 0.0815-0.18944 0.0684-0.19403 0.0557-0.19791 0.0374-0.17498s-3.6e-4 -6.5e-4 0-1e-3c0-3.5e-4 3.5e-4 -3.5e-4 3.5e-4 -7.1e-4v-7e-4 -3.5e-4l0.0279-0.18733 0.0176-0.2099 3e-3 -0.21061-0.0113-0.21131-0.0261-0.20991-0.0402-0.20814-0.055-0.20461-0.0688-0.20073-0.0829-0.19579-0.0963-0.18944-0.10901-0.18274z"/><path d="m104.8 22.771c1.899 0 3.4442 1.5448 3.4442 3.4442 0 1.8994-1.5452 3.4442-3.4442 3.4442-1.8994 0-3.4442-1.5448-3.4442-3.4442 0-1.8994 1.5448-3.4442 3.4442-3.4442m0 6.6961c1.7932 0 3.2519-1.4587 3.2519-3.2519s-1.4587-3.2519-3.2519-3.2519c-1.7932 0-3.2519 1.4587-3.2519 3.2519s1.4587 3.2519 3.2519 3.2519"/><path d="m17.769 13.031c0 1.7346-1.4111 3.1457-3.1461 3.1457-1.7346 0-3.1458-1.4111-3.1458-3.1457 0-1.7346 1.4112-3.1461 3.1458-3.1461 1.735 0 3.1461 1.4115 3.1461 3.1461m-3.4138 3.0522 0.20745 0.01078 0.20779-2e-3 0.20708-0.0176 0.20532-0.0307 0.20285-0.0448 0.19897-0.0582 0.19473-0.0723 0.18979-0.0843 0.18309-0.0977 0.17604-0.10936 0.16828-0.121 0.15981-0.13229 0.15028-0.14252 0.14005-0.1524 0.12947-0.16122 0.11818-0.16969 0.10654-0.17674 0.09419-0.18344 0.08149-0.18945 0.06879-0.19402 0.05539-0.19791 0.03739-0.17533v-2e-3c0-2.9e-4 3.53e-4 -2.9e-4 3.53e-4 -1e-3l0.02787-0.18697 0.01764-0.2099 0.0028-0.21096-0.01129-0.21097-0.0261-0.2099-0.04022-0.20778-0.05503-0.20497-0.06879-0.20073-0.0829-0.19579-0.09631-0.18979-0.10901-0.18274-0.12171-0.17428-0.1337-0.16651-0.14499-0.15628-0.15558-0.14534-0.1651-0.13547-0.17462-0.12241-0.18274-0.11077-0.18979-0.0977-0.1965-0.0843-0.20179-0.0705-0.20602-0.0561-0.2099-0.0416-0.21202-0.0268-0.21378-0.0127-0.21378 3e-3 -0.21308 0.018-0.21167 0.0328-0.20884 0.0473-0.20496 0.0617-0.20038 0.0762-0.19438 0.0896-0.18768 0.10337-0.17992 0.11571-0.17145 0.12806-0.16192 0.1397-0.15169 0.15063-0.14076 0.16122-0.12912 0.17004-0.11677 0.17851-0.10407 0.18591-0.09102 0.19262-0.07691 0.19791-0.06325 0.20214-0.04865 0.20637-0.03415 0.20497c0 1e-3 2.47e-4 0.0016 2.47e-4 2e-3 -2.47e-4 3e-4 -6.7e-4 3e-4 -6.7e-4 1e-3l-0.01972 0.20991-0.0056 0.18379v7.1e-4 1e-3 7e-4 7.1e-4l0.0056 0.18379 0.0193 0.20497 0.03295 0.2032 0.04685 0.20108 0.0604 0.19791 0.07373 0.19332 0.08643 0.18839 0.09948 0.18273 0.11148 0.17498 0.12347 0.16757 0.13441 0.15875 0.14499 0.14923 0.15487 0.13934 0.16369 0.12806 0.17216 0.11642 0.17992 0.10513 0.18627 0.0928 0.19191 0.0797 0.1972 0.0663 0.20108 0.0529 0.20391 0.0392z"/><path d="m107.64 35.408c-0.0995 0-0.17992 0.08112-0.17992 0.18062 0 0.09947 0.0804 0.17957 0.17992 0.17957 0.0995 0 0.18027-0.08007 0.18027-0.17957 0-0.09952-0.0808-0.18062-0.18027-0.18062m-6.6368 2.9326c0.0995 0 0.18027-0.08082 0.18027-0.17992 0-0.09952-0.0808-0.18062-0.18027-0.18062-0.0991 0-0.17992 0.08112-0.17992 0.18062 0 0.09912 0.0808 0.17992 0.17992 0.17992m0.0751-0.52105c0.0995 0 0.17991-0.08077 0.17991-0.18027 0-0.09917-0.0804-0.18027-0.17991-0.18027-0.0995 0-0.18027 0.08117-0.18027 0.18027 0 0.09947 0.0808 0.18027 0.18027 0.18027m0.33655 0.84913c0.0995 0 0.17991-0.08076 0.17991-0.18026 0-0.09947-0.0804-0.17957-0.17991-0.17957-0.0995 0-0.18027 0.08007-0.18027 0.17957 0 0.09946 0.0808 0.18026 0.18027 0.18026m0.0808-0.52316c0.0995 0 0.18027-0.08113 0.18027-0.18063 0-0.09876-0.0808-0.17956-0.18027-0.17956-0.0995 0-0.17992 0.08076-0.17992 0.17956 0 0.09953 0.0804 0.18063 0.17992 0.18063m0.0568-0.5895c0.0995 0 0.17991-0.08006 0.17991-0.17956 0-0.09947-0.0804-0.18027-0.17991-0.18027-0.0995 0-0.18027 0.08077-0.18027 0.18027 0 0.09946 0.0808 0.17956 0.18027 0.17956m0.39017 0.98531c0.0995 0 0.17992-0.08077 0.17992-0.18027 0-0.09951-0.0804-0.17991-0.17992-0.17991-0.0995 0-0.17992 0.08041-0.17992 0.17991 0 0.09947 0.0804 0.18027 0.17992 0.18027m0.0674-0.59337c0.0995 0 0.17992-0.08077 0.17992-0.18027 0-0.09952-0.0804-0.17992-0.17992-0.17992-0.0995 0-0.18027 0.08042-0.18027 0.17992 0 0.09947 0.0808 0.18027 0.18027 0.18027m0.0564-0.58914c0.0995 0 0.18027-0.08042 0.18027-0.17992 0-0.09951-0.0808-0.17991-0.18027-0.17991-0.0995 0-0.17992 0.08041-0.17992 0.17991 0 0.09952 0.0804 0.17992 0.17992 0.17992m0.39052 0.9846c0.0991 0 0.17992-0.08006 0.17992-0.17956 0-0.09952-0.0808-0.18062-0.17992-0.18062-0.0995 0-0.18027 0.08112-0.18027 0.18062 0 0.09946 0.0808 0.17956 0.18027 0.17956m0.067-0.59266c0.0995 0 0.18027-0.08077 0.18027-0.18027 0-0.09952-0.0808-0.17992-0.18027-0.17992-0.0991 0-0.17991 0.08042-0.17991 0.17992 0 0.09947 0.0808 0.18027 0.17991 0.18027m0.0568-0.58914c0.0995 0 0.17992-0.08042 0.17992-0.17992 0-0.09947-0.0804-0.18027-0.17992-0.18027-0.0995 0-0.18027 0.08077-0.18027 0.18027 0 0.09952 0.0808 0.17992 0.18027 0.17992m0.39034 0.98495c0.0995 0 0.18027-0.08077 0.18027-0.18027 0-0.09947-0.0808-0.18027-0.18027-0.18027-0.0995 0-0.17992 0.08077-0.17992 0.18027 0 0.09947 0.0804 0.18027 0.17992 0.18027m0.0674-0.59372c0.0995 0 0.17991-0.08007 0.17991-0.17957 0-0.09946-0.0804-0.18026-0.17991-0.18026-0.0995 0-0.17992 0.08076-0.17992 0.18026 0 0.09947 0.0804 0.17957 0.17992 0.17957m0.0568-0.58843c0.0991 0 0.17991-0.08113 0.17991-0.18063 0-0.09916-0.0808-0.17956-0.17991-0.17956-0.0995 0-0.18027 0.08046-0.18027 0.17956 0 0.09953 0.0808 0.18063 0.18027 0.18063m0.39017 0.9846c0.0995 0 0.17992-0.08042 0.17992-0.17992 0-0.09947-0.0804-0.18027-0.17992-0.18027-0.0995 0-0.18027 0.08077-0.18027 0.18027 0 0.09952 0.0808 0.17992 0.18027 0.17992m0.0674-0.59337c0.0995 0 0.17992-0.08042 0.17992-0.17992 0-0.09947-0.0804-0.18027-0.17992-0.18027-0.0995 0-0.18027 0.08077-0.18027 0.18027 0 0.09952 0.0808 0.17992 0.18027 0.17992m0.0564-0.58879c0.0995 0 0.18027-0.08077 0.18027-0.18027 0-0.09917-0.0808-0.18027-0.18027-0.18027-0.0995 0-0.17992 0.08117-0.17992 0.18027 0 0.09947 0.0804 0.18027 0.17992 0.18027m0.39017 0.98496c0.0995 0 0.18027-0.08113 0.18027-0.18063 0-0.09946-0.0808-0.17956-0.18027-0.17956-0.0995 0-0.17992 0.08006-0.17992 0.17956 0 0.09953 0.0804 0.18063 0.17992 0.18063m0.0674-0.59338c0.0995 0 0.18027-0.08041 0.18027-0.17991 0-0.09947-0.0808-0.18027-0.18027-0.18027-0.0995 0-0.17992 0.08077-0.17992 0.18027 0 0.09951 0.0804 0.17991 0.17992 0.17991m0.0568-0.58878c0.0995 0 0.17992-0.08077 0.17992-0.18027 0-0.09947-0.0804-0.18027-0.17992-0.18027-0.0995 0-0.18027 0.08077-0.18027 0.18027 0 0.09947 0.0808 0.18027 0.18027 0.18027m0.46531 0.96837c0.0949-0.02998 0.14778-0.13128 0.11818-0.22578-0.0296-0.09488-0.13087-0.14778-0.22577-0.11818-7e-3 2e-3 -0.0142 5e-3 -0.0212 8e-3 -0.0949 0.02998-0.14778 0.13092-0.11818 0.22542 0.0296 0.09524 0.13052 0.14814 0.22542 0.11854 7e-3 -2e-3 0.0145-5e-3 0.0215-8e-3m-8e-3 -0.57679c0.0995 0 0.17992-0.08112 0.17992-0.18062 0-0.09917-0.0804-0.17957-0.17992-0.17957-0.0995 0-0.18027 0.08047-0.18027 0.17957 0 0.09952 0.0808 0.18062 0.18027 0.18062m0.0564-0.58949c0.0995 0 0.18027-0.08007 0.18027-0.17957 0-0.09947-0.0808-0.18027-0.18027-0.18027-0.0995 0-0.17991 0.08077-0.17991 0.18027 0 0.09947 0.0804 0.17957 0.17991 0.17957m0.41169 0.97649c0.0995 0 0.18027-0.08007 0.18027-0.17957 0-0.09947-0.0808-0.18027-0.18027-0.18027-0.0995 0-0.17991 0.08077-0.17991 0.18027 0 0.09947 0.0804 0.17957 0.17991 0.17957m0.0459-0.58456c0.0995 0 0.18027-0.08076 0.18027-0.18026 0-0.09947-0.0808-0.18027-0.18027-0.18027-0.0991 0-0.17991 0.08077-0.17991 0.18027 0 0.09946 0.0808 0.18026 0.17991 0.18026m0.0568-0.58913c0.0995 0 0.17992-0.08042 0.17992-0.17992 0-0.09982-0.0804-0.17992-0.17992-0.17992-0.0995 0-0.17991 0.08012-0.17991 0.17992 0 0.09952 0.0804 0.17992 0.17991 0.17992m0.4117 0.97648c0.0995 0 0.17991-0.08046 0.17991-0.18026 0-0.09947-0.0804-0.17957-0.17991-0.17957-0.0995 0-0.18027 0.08007-0.18027 0.17957 0 0.09986 0.0808 0.18026 0.18027 0.18026m0.0459-0.58455c0.0995 0 0.18026-0.08077 0.18026-0.18027 0-0.09951-0.0808-0.17991-0.18026-0.17991-0.0995 0-0.17992 0.08041-0.17992 0.17991 0 0.09947 0.0804 0.18027 0.17992 0.18027m0.0568-0.58914c0.0991 0 0.17991-0.08081 0.17991-0.17991 0-0.09987-0.0808-0.18027-0.17991-0.18027-0.0995 0-0.18027 0.08047-0.18027 0.18027 0 0.09911 0.0808 0.17991 0.18027 0.17991m0.41133 0.97649c0.0995 0 0.18027-0.08047 0.18027-0.18027 0-0.09951-0.0808-0.17991-0.18027-0.17991-0.0995 0-0.17991 0.08041-0.17991 0.17991 0 0.09987 0.0804 0.18027 0.17991 0.18027m0.0462-0.58526c0.0995 0 0.17992-0.08006 0.17992-0.17956 0-0.09947-0.0804-0.18027-0.17992-0.18027-0.0995 0-0.18026 0.08077-0.18026 0.18027 0 0.09946 0.0808 0.17956 0.18026 0.17956m0.0564-0.58878c0.0995 0 0.18027-0.08082 0.18027-0.17992 0-0.09952-0.0808-0.17992-0.18027-0.17992-0.0995 0-0.17991 0.08042-0.17991 0.17992 0 0.09912 0.0804 0.17992 0.17991 0.17992m0.4117 0.97684c0.0995 0 0.17991-0.08077 0.17991-0.18027 0-0.09952-0.0804-0.17992-0.17991-0.17992-0.0995 0-0.17992 0.08042-0.17992 0.17992 0 0.09947 0.0804 0.18027 0.17992 0.18027m0.0459-0.58526c0.0995 0 0.18027-0.08042 0.18027-0.17992 0-0.09981-0.0808-0.17991-0.18027-0.17991-0.0995 0-0.17992 0.08011-0.17992 0.17991 0 0.09952 0.0804 0.17992 0.17992 0.17992m0.0568-0.58879c0.0995 0 0.17991-0.08081 0.17991-0.17991 0-0.09952-0.0804-0.18062-0.17991-0.18062-0.0995 0-0.18027 0.08112-0.18027 0.18062 0 0.09911 0.0808 0.17991 0.18027 0.17991m0.41169 0.97649c0.0991 0 0.17991-0.08041 0.17991-0.17991 0-0.09953-0.0808-0.18063-0.17991-0.18063-0.0995 0-0.18027 0.08113-0.18027 0.18063 0 0.09951 0.0808 0.17991 0.18027 0.17991m0.0459-0.5849c0.0995 0 0.17991-0.08042 0.17991-0.17992 0-0.09947-0.0804-0.18027-0.17991-0.18027-0.0995 0-0.18027 0.08077-0.18027 0.18027 0 0.09952 0.0808 0.17992 0.18027 0.17992m0.0695-0.52529c0.0995 0 0.18027-0.08047 0.18027-0.18027 0-0.09876-0.0808-0.17956-0.18027-0.17956-0.0995 0-0.17992 0.08076-0.17992 0.17956 0 0.09987 0.0804 0.18027 0.17992 0.18027m0.35489 0.84208c0.0995 0 0.17992-0.08111 0.17992-0.17991 0-0.09947-0.0804-0.18027-0.17992-0.18027-0.0995 0-0.17992 0.08077-0.17992 0.18027 0 0.09881 0.0804 0.17991 0.17992 0.17991"/></g><path d="m17.053 13.031c0 1.3356-1.0866 2.4256-2.4225 2.4296-0.64911 0.0071-1.2598-0.24906-1.7198-0.70661-0.46038-0.45791-0.71469-1.0672-0.71649-1.7163-0.0021-0.64876 0.24906-1.2598 0.70661-1.7198 0.45755-0.46002 1.0668-0.71449 1.7159-0.71649h0.0067c1.3363 0 2.4257 1.0855 2.4296 2.4225v7e-3" fill="none" stroke="#888f97" stroke-width=".235"/><g fill="#888f97"><g><path d="m15.15 35.575c0 0.09947 0.08079 0.18027 0.17992 0.18027 0.09948 0 0.18027-0.08077 0.18027-0.18027 0-0.09917-0.08079-0.18027-0.18027-0.18027-0.09913 0-0.17992 0.08117-0.17992 0.18027m0.24342 0.70238c0.09948 0 0.18027-0.08046 0.18027-0.17956 0-0.09947-0.08079-0.18027-0.18027-0.18027-0.09913 0-0.17992 0.08077-0.17992 0.18027 0 0.09916 0.08079 0.17956 0.17992 0.17956m0.17498-1.0213c0 0.09916 0.08044 0.17956 0.17992 0.17956 0.09984 0 0.18027-0.08046 0.18027-0.17956 0-0.09952-0.08043-0.18062-0.18027-0.18062-0.09949 0-0.17992 0.08112-0.17992 0.18062m0.24977 0.34466c-0.09948 0-0.18027 0.08077-0.18027 0.18027 0 0.09952 0.08079 0.17992 0.18027 0.17992 0.09913 0 0.17992-0.08042 0.17992-0.17992 0-0.09947-0.08079-0.18027-0.17992-0.18027m0.04586 0.94509c0.09949 0 0.17992-0.08077 0.17992-0.18027 0-0.09947-0.08044-0.18027-0.17992-0.18027-0.09949 0-0.17992 0.08077-0.17992 0.18027 0 0.09947 0.08044 0.18027 0.17992 0.18027m0.23142-1.1568c0 0.09947 0.08079 0.18027 0.18027 0.18027 0.09949 0 0.17992-0.08077 0.17992-0.18027 0-0.09951-0.08044-0.17991-0.17992-0.17991-0.09948 0-0.18027 0.08041-0.18027 0.17991m0.23671 0.40887c-0.09949 0-0.17992 0.08077-0.17992 0.18027 0 0.09947 0.08044 0.18027 0.17992 0.18027 0.09948 0 0.18027-0.08077 0.18027-0.18027 0-0.09947-0.08079-0.18027-0.18027-0.18027m0.04621 0.94545c0.09913 0 0.17992-0.08112 0.17992-0.18062 0-0.09917-0.08079-0.17957-0.17992-0.17957-0.09948 0-0.18027 0.08047-0.18027 0.17957 0 0.09952 0.08079 0.18062 0.18027 0.18062m0.23142-1.1571c0 0.09952 0.08044 0.18062 0.17992 0.18062 0.09948 0 0.18027-0.08112 0.18027-0.18062 0-0.09947-0.08079-0.17957-0.18027-0.17957-0.09949 0-0.17992 0.08007-0.17992 0.17957m0.23672 0.40887c-0.09948 0-0.18027 0.08112-0.18027 0.18062 0 0.09912 0.08079 0.17992 0.18027 0.17992 0.09949 0 0.17992-0.08082 0.17992-0.17992 0-0.09952-0.08044-0.18062-0.17992-0.18062m0.04586 0.94544c0.09948 0 0.18027-0.08041 0.18027-0.17991 0-0.09947-0.08079-0.18027-0.18027-0.18027-0.09949 0-0.17992 0.08077-0.17992 0.18027 0 0.09951 0.08044 0.17991 0.17992 0.17991m0.23178-1.1564c0 0.09881 0.08044 0.17991 0.17992 0.17991 0.09949 0 0.17992-0.08111 0.17992-0.17991 0-0.09947-0.08044-0.18027-0.17992-0.18027-0.09949 0-0.17992 0.08077-0.17992 0.18027m0.23636 0.40887c-0.09949 0-0.17992 0.08041-0.17992 0.17991 0 0.09947 0.08044 0.18027 0.17992 0.18027 0.09948 0 0.18027-0.08077 0.18027-0.18027 0-0.09951-0.08079-0.17991-0.18027-0.17991m0.04621 0.94473c0.09949 0 0.17992-0.08041 0.17992-0.17991 0-0.09947-0.08044-0.18027-0.17992-0.18027-0.09948 0-0.18027 0.08077-0.18027 0.18027 0 0.09951 0.08079 0.17991 0.18027 0.17991m0.23178-1.1564c0 0.09947 0.08044 0.18027 0.17992 0.18027 0.09913 0 0.17992-0.08077 0.17992-0.18027 0-0.09947-0.08079-0.18027-0.17992-0.18027-0.09949 0-0.17992 0.08077-0.17992 0.18027m0.23636 0.40887c-0.09949 0-0.17992 0.08042-0.17992 0.17992 0 0.09986 0.08044 0.18026 0.17992 0.18026 0.09949 0 0.17992-0.08046 0.17992-0.18026 0-0.09952-0.08044-0.17992-0.17992-0.17992m0.04586 0.94474c0.09948 0 0.18027-0.08007 0.18027-0.17957 0-0.09947-0.08079-0.18027-0.18027-0.18027-0.09949 0-0.17992 0.08077-0.17992 0.18027 0 0.09947 0.08044 0.17957 0.17992 0.17957m0.23178-1.1561c0 0.09947 0.08044 0.17957 0.17992 0.17957 0.09984 0 0.18027-0.08007 0.18027-0.17957 0-0.09952-0.08043-0.18062-0.18027-0.18062-0.09949 0-0.17992 0.08112-0.17992 0.18062m0.23671 0.40887c-0.09948 0-0.18027 0.08007-0.18027 0.17957 0 0.09987 0.08079 0.18027 0.18027 0.18027 0.09949 0 0.17992-0.08047 0.17992-0.18027 0-0.09947-0.08044-0.17957-0.17992-0.17957m0.23918 0.82656c0.02963-0.09454-0.02328-0.19582-0.11818-0.22542-0.0071-3e-3 -0.01412-6e-3 -0.02152-8e-3 -0.0949-0.02963-0.1958 0.02328-0.22542 0.11818-0.02963 0.09455 0.02328 0.19548 0.11818 0.22578 0.0067 3e-3 0.01407 6e-3 0.02117 8e-3 0.0949 0.02963 0.19615-0.02324 0.22578-0.11854m0.0381-1.0382c0 0.09947 0.08079 0.18027 0.18027 0.18027 0.09949 0 0.17992-0.08077 0.17992-0.18027 0-0.09952-0.08044-0.17992-0.17992-0.17992-0.09948 0-0.18027 0.08042-0.18027 0.17992m0.0568 0.58914c0 0.09946 0.08044 0.17956 0.17992 0.17956 0.09948 0 0.18027-0.08006 0.18027-0.17956 0-0.09947-0.08079-0.18027-0.18027-0.18027-0.09949 0-0.17992 0.08077-0.17992 0.18027m0.2473 0.77293c0.09948 0 0.18027-0.08047 0.18027-0.18027 0-0.09946-0.08079-0.17956-0.18027-0.17956-0.09949 0-0.17992 0.08006-0.17992 0.17956 0 0.09987 0.08044 0.18027 0.17992 0.18027m0.21026-1.1649c0 0.09987 0.08044 0.18027 0.17992 0.18027 0.09948 0 0.18027-0.08047 0.18027-0.18027 0-0.09952-0.08079-0.17992-0.18027-0.17992-0.09949 0-0.17992 0.08042-0.17992 0.17992m0.05644 0.58914c0 0.09947 0.08079 0.18027 0.18027 0.18027 0.09949 0 0.17992-0.08077 0.17992-0.18027 0-0.09947-0.08044-0.18027-0.17992-0.18027-0.09948 0-0.18027 0.08077-0.18027 0.18027m0.24765 0.77294c0.09949 0 0.17992-0.08007 0.17992-0.17957 0-0.09947-0.08044-0.18027-0.17992-0.18027-0.09948 0-0.18027 0.08077-0.18027 0.18027 0 0.09947 0.08079 0.17957 0.18027 0.17957m0.21026-1.1649c0 0.09947 0.08044 0.18027 0.17992 0.18027 0.09949 0 0.17992-0.08077 0.17992-0.18027 0-0.09946-0.08044-0.17956-0.17992-0.17956-0.09949 0-0.17992 0.08006-0.17992 0.17956m0.05645 0.58914c0 0.09947 0.08079 0.18027 0.17992 0.18027 0.09948 0 0.18027-0.08077 0.18027-0.18027 0-0.09917-0.08079-0.18027-0.18027-0.18027-0.09913 0-0.17992 0.08117-0.17992 0.18027m0.2473 0.77364c0.09948 0 0.18027-0.08077 0.18027-0.18027 0-0.09947-0.08079-0.18027-0.18027-0.18027-0.09949 0-0.17992 0.08077-0.17992 0.18027 0 0.09947 0.08044 0.18027 0.17992 0.18027m0.21026-1.1649c0 0.09947 0.08079 0.17957 0.18027 0.17957 0.09949 0 0.17992-0.08007 0.17992-0.17957 0-0.09947-0.08044-0.18027-0.17992-0.18027-0.09948 0-0.18027 0.08077-0.18027 0.18027m0.0568 0.58879c0 0.09917 0.08044 0.18027 0.17992 0.18027 0.09949 0 0.17992-0.08117 0.17992-0.18027 0-0.09952-0.08044-0.17992-0.17992-0.17992-0.09949 0-0.17992 0.08042-0.17992 0.17992m0.24765 0.77329c0.09913 0 0.17956-0.08077 0.17956-0.18027 0-0.09917-0.08043-0.18027-0.17956-0.18027-0.09984 0-0.18027 0.08117-0.18027 0.18027 0 0.09947 0.08043 0.18027 0.18027 0.18027m0.2099-1.1649c0 0.09947 0.08044 0.18027 0.17992 0.18027 0.09948 0 0.18027-0.08077 0.18027-0.18027 0-0.09947-0.08079-0.18027-0.18027-0.18027-0.09949 0-0.17992 0.08077-0.17992 0.18027m0.05644 0.58914c0 0.09952 0.08079 0.17992 0.18027 0.17992 0.09949 0 0.17992-0.08042 0.17992-0.17992 0-0.09981-0.08044-0.17991-0.17992-0.17991-0.09948 0-0.18027 0.08011-0.18027 0.17991m0.24765 0.77329c0.09913 0 0.17992-0.08112 0.17992-0.18062 0-0.09916-0.08079-0.17956-0.17992-0.17956-0.09948 0-0.18027 0.08046-0.18027 0.17956 0 0.09952 0.08079 0.18062 0.18027 0.18062m0.2099-1.1649c0 0.09912 0.08079 0.17992 0.18027 0.17992 0.09949 0 0.17992-0.08082 0.17992-0.17992 0-0.09952-0.08044-0.18062-0.17992-0.18062-0.09948 0-0.18027 0.08112-0.18027 0.18062m0.0568 0.58879c0 0.09951 0.08044 0.17991 0.17992 0.17991 0.09948 0 0.18027-0.08041 0.18027-0.17991 0-0.09912-0.08079-0.17992-0.18027-0.17992-0.09949 0-0.17992 0.08082-0.17992 0.17992m0.26106 0.70343c0.09949 0 0.17992-0.08046 0.17992-0.18026 0-0.09947-0.08044-0.17957-0.17992-0.17957-0.09948 0-0.18027 0.08007-0.18027 0.17957 0 0.09986 0.08079 0.18026 0.18027 0.18026m0.15628-1.0294c0 0.09947 0.08079 0.18027 0.18027 0.18027 0.09949 0 0.17992-0.08077 0.17992-0.18027 0-0.09952-0.08044-0.17992-0.17992-0.17992-0.09948 0-0.18027 0.08042-0.18027 0.17992m0.25506 0.70132c0.09949 0 0.17992-0.08077 0.17992-0.18027 0-0.09947-0.08044-0.18027-0.17992-0.18027-0.09949 0-0.17992 0.08077-0.17992 0.18027 0 0.09947 0.08044 0.18027 0.17992 0.18027"/><path d="m19.293 42.986c0.04692 0 0.08467-0.0381 0.08467-0.0847 0-0.0469-0.03775-0.085-0.08467-0.085h-0.99131c-0.04692 0-0.08502 0.0381-0.08502 0.085 0 0.0466 0.0381 0.0847 0.08502 0.0847h0.99131m0-0.39405c0.04692 0 0.08467-0.0381 0.08467-0.0847 0-0.0469-0.03775-0.0847-0.08467-0.0847h-0.99131c-0.04692 0-0.08502 0.0378-0.08502 0.0847 0 0.0466 0.0381 0.0847 0.08502 0.0847h0.99131m0-0.39405c0.04692 0 0.08467-0.0381 0.08467-0.0847 0-0.047-0.03775-0.0847-0.08467-0.0847h-0.99131c-0.04692 0-0.08502 0.0378-0.08502 0.0847 0 0.0466 0.0381 0.0847 0.08502 0.0847h0.99131"/><path d="m107.8 40.901c3e-3 0.023 0.0247 0.039 0.0473 0.036 3e-3 0 7e-3 -1e-3 0.01-2e-3l0.68298-0.26211c0.0185-7e-3 0.0285-0.0258 0.0265-0.0455l-0.0321-0.22966c-3e-3 -0.0232-0.0247-0.0393-0.0473-0.0363-4e-3 0-7e-3 1e-3 -0.01 2e-3l-0.68333 0.26212c-0.0185 7e-3 -0.0285 0.0261-0.0265 0.0455l0.0321 0.23002m0.82832 0.41204c0.0182-7e-3 0.0292-0.0257 0.0272-0.0455l-0.0321-0.22966c-3e-3 -0.0233-0.0247-0.0393-0.048-0.0363-3e-3 0-7e-3 1e-3 -9e-3 2e-3l-0.68298 0.26211c-0.0188 7e-3 -0.0298 0.0257-0.0268 0.0455l0.0321 0.22966c3e-3 0.0232 0.0243 0.0393 0.0476 0.0363 4e-3 0 7e-3 -1e-3 0.01-2e-3l0.68227-0.26211"/><path d="m18.068 13.031c0 1.899-1.5455 3.4442-3.4442 3.4442-1.8994 0-3.4447-1.5452-3.4447-3.4442 0-1.8994 1.5453-3.4442 3.4447-3.4442 1.8986 0 3.4442 1.5448 3.4442 3.4442m-6.6962 0c0 1.7932 1.4585 3.2519 3.252 3.2519 1.7928 0 3.2519-1.4587 3.2519-3.2519s-1.4591-3.2519-3.2519-3.2519c-1.7935 0-3.252 1.4587-3.252 3.2519"/><path d="m18.408 13.031c0 2.0867-1.6979 3.7842-3.7842 3.7842-2.0867 0-3.7844-1.6976-3.7844-3.7842s1.6977-3.7842 3.7844-3.7842c2.0863 0 3.7842 1.6976 3.7842 3.7842m-7.4173 0c0 2.0031 1.63 3.6329 3.633 3.6329s3.6326-1.6298 3.6326-3.6329c0-2.0031-1.6295-3.6329-3.6326-3.6329s-3.633 1.6298-3.633 3.6329"/><path d="m106.71 42.763c3.5e-4 0 0 0.0013 3.5e-4 2e-3 4e-3 0.011 0.012 0.0193 0.018 0.0293-0.0282 0.0117-0.0564 0.0244-0.085 0.0353l-0.0289 0.0106c-0.0278 0.0113-0.0568 0.0201-0.0857 0.0307 0-0.0053-1e-3 -0.0102-2e-3 -0.0162 0-2e-3 -6.5e-4 -4e-3 -1e-3 -6e-3 -1e-3 -0.0043-1e-3 -0.0073-2e-3 -0.0113-2.9e-4 0-6.5e-4 -2.9e-4 -1e-3 -1e-3 -3.5e-4 -1e-3 0-0.0013-3.5e-4 -2e-3 -0.0878-0.19333-0.1672-0.39512-0.2413-0.58526v-3.6e-4c-1e-3 -1e-3 -2e-3 -3e-3 -2e-3 -5e-3l-0.37395-0.97402c-1e-3 -3e-3 -2e-3 -6e-3 -3e-3 -8e-3v-3.5e-4h-3.5e-4v-3.5e-4c-0.0723-0.1905-0.14783-0.39335-0.21273-0.59585 0-1e-3 -7e-4 -0.0013-7e-4 -2e-3v-2e-3c-2e-3 -4e-3 -5e-3 -6e-3 -6e-3 -0.01-2e-3 -2e-3 -3e-3 -4e-3 -4e-3 -6e-3 -6e-3 -0.0102-0.0114-0.0216-0.0194-0.0296l0.20743-0.0797c0 0.0117 4e-3 0.0233 6e-3 0.0353 0 1e-3 6.5e-4 3e-3 1e-3 5e-3 1e-3 4e-3 1e-3 8e-3 2e-3 0.012 0 2.9e-4 7.1e-4 2.9e-4 7.1e-4 1e-3 3.5e-4 0 3.5e-4 1e-3 3.5e-4 2e-3 0.0871 0.19156 0.164 0.38629 0.2413 0.5849v3.6e-4l0.37606 0.97895c1e-3 2e-3 2e-3 5e-3 3e-3 8e-3v3.5e-4c0.0759 0.19932 0.14847 0.39512 0.21237 0.5962 0 2.9e-4 1e-3 6.4e-4 1e-3 1e-3"/><path d="m104.29 42.813c-3e-3 -0.0046-5e-3 -0.0105-5e-3 -0.0155v-0.0533l0.55491-0.55492c6e-3 -6e-3 0.0131-0.0116 0.0201-0.0166 8e-3 -0.0061 0.0175-0.0101 0.0265-0.0141 3e-4 -3.5e-4 6.5e-4 -3.5e-4 1e-3 -7.1e-4 0.0173-0.0066 0.036-0.0106 0.0547-0.0106h0.23002c0-0.0092-2e-3 -0.0185-6e-3 -0.0265-2e-3 -0.0039-4e-3 -0.0079-7e-3 -0.0109-4e-3 -0.0046-9e-3 -0.0086-0.0138-0.0116-9e-3 -6e-3 -0.0201-9e-3 -0.0307-9e-3h-0.36019c-0.0191 0-0.0381 0.0043-0.0561 0.0113-0.0173 0.0071-0.0332 0.0176-0.0466 0.0307l-0.4311 0.4311c-5e-3 5e-3 -0.01 9e-3 -0.0159 0.012-4e-3 2e-3 -9e-3 5e-3 -0.0141 6e-3 -7e-3 0.0023-0.0142 2e-3 -0.0212 2e-3s-0.0142 0-0.0212-2e-3c-5e-3 -1e-3 -0.01-4e-3 -0.0138-6e-3 -6e-3 -3e-3 -0.0109-7e-3 -0.0159-0.012l-0.43109-0.4311c-0.0134-0.0131-0.0293-0.0237-0.0469-0.0307-0.0176-0.0073-0.0367-0.0113-0.0557-0.0113h-0.36019c-0.0105 0-0.021 3e-3 -0.031 9e-3 -5e-3 0.0036-9e-3 0.0066-0.0134 0.0116-2e-3 0.0029-5e-3 0.0069-7e-3 0.0109-4e-3 0.0082-6e-3 0.0175-6e-3 0.0265h0.23002c0.0187 0 0.0371 0.0036 0.0547 0.0106l1e-3 7.1e-4c9e-3 0.0035 0.0185 0.0081 0.0265 0.0141 7e-3 5e-3 0.0141 0.0106 0.0201 0.0166l0.55492 0.55492v0.0533c0 0.0053-2e-3 0.0105-5e-3 0.0155-3e-3 0.0053-7e-3 0.0093-0.0134 0.0113-5e-3 2e-3 -0.0113 2e-3 -0.0173 1e-3 -5e-3 -1e-3 -0.0105-3e-3 -0.0145-7e-3l-0.57856-0.5782c-0.0102-0.0106-0.0232-0.0191-0.037-0.0251l-0.0215-7e-3c-8e-3 -0.0013-0.0156-2e-3 -0.0236-2e-3h-0.17674v0.55245l0.14514 0.14569h0.40746l-0.31397-0.31432c-5e-3 -4e-3 -0.0117-0.0073-0.0187-8e-3 -7e-3 0-0.0138 2e-3 -0.0198 6e-3 -3e-3 2e-3 -5e-3 5e-3 -7e-3 8e-3s-4e-3 6e-3 -4e-3 0.01c-2e-3 0.0067 0 0.0138 3e-3 0.0198l0.0857 0.14816 4e-3 0.0176c-1e-3 0.0067-5e-3 0.0133-0.01 0.0183-3e-3 3e-3 -6e-3 5e-3 -9e-3 6e-3 -4e-3 0.0016-7e-3 2e-3 -0.0106 2e-3h-0.0236c-0.0223 0-0.0448-7e-3 -0.0639-0.019l-0.03-0.0265c-6e-3 -0.0063-0.0116-0.0135-0.0166-0.0215l-6e-3 -0.012c-2e-3 -0.0041-4e-3 -0.0091-5e-3 -0.0141-3e-3 -0.0085-5e-3 -0.0171-6e-3 -0.0261v-0.29728c0-0.0106 8e-3 -0.0228 0.018-0.0268 2e-3 -1e-3 5e-3 -0.0016 8e-3 -2e-3 3e-3 0 6e-3 0 8e-3 3.6e-4 3e-3 1e-3 5e-3 2e-3 8e-3 3e-3s5e-3 3e-3 7e-3 5e-3l0.13194 0.13158 0.0176 0.018 0.11359 0.1136 0.26243 0.26243h0.6537l0.26243-0.26243 0.11324-0.1136 0.018-0.018 0.13194-0.13158c2e-3 -2e-3 4e-3 -4e-3 7e-3 -5e-3 2e-3 -2e-3 5e-3 -0.0023 8e-3 -3e-3 2e-3 -3.6e-4 5e-3 -3.6e-4 8e-3 -3.6e-4s6e-3 1e-3 8e-3 2e-3c0.01 0.0042 0.018 0.0162 0.018 0.0268v0.28928c0 2e-3 0 5e-3 -3.6e-4 8e-3 0 0.0088-2e-3 0.0181-5e-3 0.0261-1e-3 0.0051-3e-3 0.0091-5e-3 0.0141-1e-3 4e-3 -3e-3 8e-3 -6e-3 0.012-5e-3 0.0077-0.0106 0.0155-0.0166 0.0215l-0.03 0.0265c-0.0191 0.012-0.0417 0.019-0.0639 0.019h-0.0236c-4e-3 0-7e-3 -1e-3 -0.0106-2e-3 -3e-3 -2e-3 -7e-3 -4e-3 -9e-3 -6e-3 -6e-3 -0.0045-9e-3 -0.0113-0.01-0.0183l4e-3 -0.0176 0.0857-0.14816c3e-3 -6e-3 4e-3 -0.0128 3e-3 -0.0198-1e-3 -4e-3 -2e-3 -7e-3 -4e-3 -0.01s-4e-3 -6e-3 -7e-3 -8e-3c-5e-3 -5e-3 -0.0124-0.0064-0.0194-6e-3 -7e-3 1e-3 -0.0137 3e-3 -0.0187 8e-3l-0.31397 0.31432h0.40746l0.14534-0.14569v-0.55245h-0.17674c-8e-3 0-0.0156 0-0.0236 2e-3l-0.0215 7e-3c-0.0138 0.0061-0.0268 0.0145-0.0374 0.0251l-0.5782 0.5782c-4e-3 3e-3 -0.01 6e-3 -0.0145 7e-3 -6e-3 1e-3 -0.0123 1e-3 -0.0173-1e-3 -5e-3 -0.0023-0.0104-0.0063-0.0134-0.0113"/></g><path d="m104.54 12.318 0.45268 0.69918-0.50178 0.76688h0.35554l0.32711-0.50798 0.32556 0.50798h0.35605l-0.50023-0.75241 0.45682-0.71365h-0.34313c-0.096 0.15698-0.19132 0.31414-0.28732 0.47077-0.0977-0.15687-0.19564-0.31397-0.29352-0.47077z"/></g><g fill="none" stroke="#888f97" stroke-width=".235"><path d="m105.16 11.444c-0.8756 0-1.5875 0.7119-1.5875 1.5875 0 0.87524 0.7119 1.5875 1.5875 1.5875 0.87559 0 1.588-0.71226 1.588-1.5875 0-0.8756-0.71243-1.5875-1.588-1.5875z"/><path d="m122.35 35.546c2e-3 0.0035 0.0576 0.08288 0.12206 0.15028-0.15592 0.92675-0.36971 1.8454-0.65934 2.7411-0.29351 0.9084-0.66428 1.7935-1.1144 2.6338l-0.1905 0.34502c-0.53799 0.94333-1.1815 1.8299-1.9039 2.6437-0.72778 0.82021-1.5353 1.5667-2.4003 2.2394-0.87031 0.67698-1.7985 1.2792-2.7802 1.7847-0.98389 0.50695-2.0218 0.91617-3.0924 1.185l-0.121 0.0296c-0.66075 0.15875-1.3374 0.26281-2.0165 0.30021-0.33902 0.0181-0.67874 0.0202-1.0178 4e-3 -0.33796-0.01627-0.67486-0.05077-1.0093-0.10337-0.33267-0.05256-0.66251-0.12314-0.98848-0.20884-0.32385-0.08573-0.64382-0.18662-0.95991-0.29704-0.62547-0.21872-1.2372-0.47484-1.8436-0.74084-0.1845-0.08113-0.3683-0.16262-0.55209-0.24482l-0.47273-0.21026-0.45508-0.20038-0.1016-0.0441-0.21061-0.0896c-0.375-0.15769-0.75459-0.30515-1.1426-0.42827-0.38982-0.12383-0.78811-0.22264-1.1906-0.29104l-0.40499-0.0614c-0.05927-0.0077-0.11889-0.0145-0.17851-0.0215l-0.16404-6e-3c-0.37112-0.0356-0.74401-0.0524-1.1165-0.0614-0.37571-9e-3 -0.75106-0.0093-1.1264-9e-3 -0.37536 0-0.75036 0.0016-1.1254 2e-3 -0.37536 3.5e-4 -0.75071-3.5e-4 -1.1257-3.5e-4 -0.75071-7.1e-4 -1.5011 0-2.2514 0-0.75071 3.5e-4 -1.5011 3.5e-4 -2.2514 0h-2.2514-2.2514-4.5029-4.5029-4.5025-18.011-4.5029-4.5025-4.5029-2.2514-2.2514c-0.75036 3.5e-4 -1.5011 3.5e-4 -2.2514 0-0.75036 0-1.5007-7.1e-4 -2.2514 0-0.37536 0-0.75036 7e-4 -1.1257 3.5e-4 -0.375 0-0.75036-0.0013-1.1254-2e-3 -0.37536-1e-3 -0.75071 0-1.1264 9e-3 -0.37289 0.0088-0.74577 0.0258-1.1169 0.0614l3.53e-4 -0.0109c-0.02928 3e-3 -0.05892 6e-3 -0.08855 9e-3l-0.25365 0.0296c-0.13511 0.018-0.27023 0.0384-0.40464 0.061-0.40287 0.0688-0.80116 0.16757-1.1913 0.2914-0.38806 0.12312-0.768 0.27058-1.143 0.42827-0.04798 0.0205-0.09631 0.0409-0.14429 0.0614l-0.06597 0.0282-0.1016 0.0441-0.45508 0.20038-0.47272 0.21026c-0.1838 0.08219-0.36795 0.16408-0.5521 0.24518-0.60678 0.26599-1.2185 0.52211-1.8436 0.74048-0.31644 0.11042-0.63641 0.21134-0.96026 0.29704-0.32561 0.08572-0.65546 0.15624-0.98848 0.20884-0.33408 0.05257-0.67134 0.08717-1.0093 0.10337-0.33867 0.0165-0.67839 0.0144-1.0174-4e-3 -0.6791-0.03739-1.3557-0.14146-2.0165-0.30021l-0.11994-0.0293c-1.0715-0.26882-2.1097-0.67839-3.0943-1.1853-0.98213-0.50588-1.9106-1.1084-2.7813-1.7861-0.8654-0.6731-1.6732-1.4203-2.4014-2.2408-0.72252-0.81457-1.3661-1.7014-1.9036-2.6458-0.064241-0.11253-0.12693-0.22578-0.18796-0.34008-0.45022-0.84031-0.82091-1.7254-1.1144-2.6338-0.29009-0.89747-0.50451-1.8182-0.66079-2.7471 0.062438-0.06602 0.11463-0.14052 0.11603-0.14252l0.07511-0.11359 0.09137-0.17957 0.06107-0.15592 0.05221-0.18662 0.01901-0.10478 0.01242-0.11148 0.0046-0.11712-0.0046-0.12171-0.199-1.4482-0.10721-1.626-0.04974-1.7004-0.02826-1.7882-0.0084-1.8863 0.01542-1.9928 0.04949-2.1152 0.10608-2.0772-0.0018-0.18133-0.01764-0.1852-0.03214-0.18027-0.04159-0.16793-0.04547-0.14957-0.04438-0.127-0.0714-0.17604-0.03528-0.0691c-0.00564-0.0078-0.02243-0.0378-0.03665-0.0646 0.093169-0.82727 0.21417-1.6524 0.3652-2.4709 0.15406-0.83397 0.33927-1.6616 0.56198-2.4814 0.44482-1.6369 1.04-3.2445 1.8595-4.7258l0.04614-0.0829c0.41589-0.74189 0.89147-1.4549 1.4292-2.1138 0.01432 0.0089 0.03129 0.0129 0.04822 0.0159 0.02688 0.00435 0.05334 5e-3 0.0798 4e-3 0.01309 0 0.02603-1e-3 0.0387-2e-3 0.048123-0.0035 0.095633-0.0103 0.14333-0.0183l0.07511-0.0145c0.02755-0.0056 0.05496-0.0113 0.08255-0.0183 0.02963-7e-3 0.05923-0.0149 0.08858-0.0229l0.09525-0.0279c0.051541-0.0162 0.10266-0.0342 0.15311-0.054 0.17208-0.06632 0.33761-0.15169 0.49276-0.25188 0.1119-0.07232 0.21773-0.15416 0.31792-0.24236 0.10019-0.08749 0.19431-0.18098 0.29199-0.27128 0.28198-0.25965 0.57506-0.5073 0.87877-0.74154 0.30416-0.23495 0.61888-0.45579 0.94206-0.66393 0.64477-0.41557 1.3229-0.77964 2.0221-1.0986 1.4055-0.641 2.8953-1.1007 4.4045-1.4178l0.51215-0.10231c0.24448-0.04626 0.48966-0.08856 0.73519-0.12806 0.79058-0.12629 1.5871-0.21761 2.3851-0.28081 0.04868-0.0039 0.09737-0.0069 0.14605-0.0109 0.13652-0.0102 0.27305-0.0198 0.40922-0.036 0.08961-0.011 0.17886-0.0244 0.26811-0.0399 0.23389-0.04022 0.46602-0.09353 0.69356-0.16193 0.03599-0.0109 0.07162-0.0219 0.10724-0.0335 0.08573-0.0279 0.17075-0.0586 0.25365-0.0935l0.06526-0.0289c0.0095-0.0044 0.01867-0.0084 0.02787-0.0134 0.02046-0.0099 0.04057-0.0202 0.05927-0.0332 0.0021-2e-3 0.0039-4e-3 6e-3 -5e-3 0.0045-0.0034 0.0088-0.0074 0.01164-0.0124l0.57362-3e-3 0.18521-3.5e-4h0.1838l0.5581 1e-3c0.0018 0.0047 0.0053 0.0087 0.0092 0.0127 0.0064 0.0055 0.01341 0.0105 0.02011 0.0155 0.02293 0.0148 0.04798 0.0272 0.07338 0.0388 0.0374 0.0173 0.0755 0.0331 0.11395 0.0476 0.04974 0.0194 0.10054 0.037 0.15134 0.0536l0.03775 0.012c0.01129 0.0036 0.02293 0.0066 0.03457 0.0106 0.03704 0.0112 0.07408 0.0218 0.11148 0.0324 0.01729 0.0048 0.03458 0.0088 0.05151 0.0138 0.05503 0.0144 0.11006 0.0278 0.16545 0.0402 0.05574 0.0123 0.11148 0.024 0.16722 0.0342 0.18521 0.0346 0.37289 0.0575 0.56056 0.0713 0.52564 0.0383 1.0227 0.012 1.2488 2e-3 0.05468-0.0021 0.10936-0.0073 0.16369-0.0123 0.15452-0.0148 0.30833-0.0367 0.46073-0.066 0.03211-6e-3 0.06421-0.0124 0.09596-0.0194 0.08819-0.0187 0.17604-0.0403 0.26282-0.0639 0.01341-0.0036 0.02716-0.0076 0.04057-0.0116 0.0381-0.0106 0.0762-0.0222 0.11395-0.0342 0.01164-0.0033 0.02364-0.0073 0.03528-0.0113 0.03281-0.0106 0.06527-0.0219 0.09737-0.0335 0.0515-0.0187 0.10196-0.0388 0.15205-0.061 0.03104-0.0138 0.06174-0.0286 0.0889-0.048 0.0029-2e-3 0.0057-5e-3 0.0085-7e-3 0.0056-0.0046 0.01131-0.0092 0.01341-0.0162h1.2708c11.32 0 22.639-3.5e-4 33.959-3.5e-4l35.23 3.5e-4c0.0021 0.0062 0.0078 0.0112 0.01341 0.0162 0.0029 3e-3 0.0053 5e-3 0.0085 7e-3 0.02716 0.0194 0.05786 0.0342 0.0889 0.048 0.05009 0.0222 0.10054 0.0423 0.15205 0.061 0.03211 0.0116 0.06456 0.0229 0.09737 0.0335 0.01164 0.0043 0.02364 0.0073 0.03528 0.0113 0.03775 0.012 0.07585 0.0236 0.11395 0.0342 0.01341 0.0036 0.02681 0.0076 0.04057 0.0116 0.08678 0.0237 0.17463 0.0452 0.26282 0.0639 0.03175 0.0067 0.06386 0.0134 0.09596 0.0194 0.1524 0.0293 0.30621 0.0512 0.46073 0.066 0.05433 0.0053 0.10901 0.0093 0.16369 0.0123 0.0702 4e-3 0.14041 7e-3 0.21061 8e-3l0.07761 7e-4 0.6357 3.6e-4 0.06773-7.1e-4c0.08572-0.0012 0.17146-0.0042 0.25718-0.0102 0.18803-0.0127 0.37536-0.0367 0.56056-0.0713 0.0557-0.0102 0.11152-0.0219 0.16722-0.0342l0.40075-0.10901c0.0508-0.0166 0.10165-0.0342 0.15135-0.0536 0.0384-0.0144 0.0765-0.0303 0.11394-0.0476 0.0254-0.0116 0.0501-0.024 0.073-0.0388 7e-3 -0.0046 0.0145-0.0095 0.0205-0.0155 4e-3 -0.0037 8e-3 -0.0077 9e-3 -0.0127l0.55845-1e-3 0.94262 4e-3c3e-3 0.0054 7e-3 0.0084 0.0116 0.0124 2e-3 2e-3 4e-3 4e-3 6e-3 5e-3 0.0183 0.0131 0.0388 0.0232 0.0589 0.0332 0.01 0.0044 0.0182 0.0094 0.0282 0.0134 0.0155 0.0074 0.0314 0.0145 0.0476 0.0215 6e-3 2e-3 0.0116 5e-3 0.0176 7e-3 0.10513 0.04446 0.21343 0.08146 0.32244 0.11536 0.047 0.0145 0.0939 0.0282 0.14076 0.0413 0.20567 0.05718 0.41451 0.10298 0.62512 0.13828 0.078 0.0127 0.15595 0.0239 0.23425 0.0339 0.13582 0.0162 0.27269 0.0258 0.40922 0.036 0.0486 0.0039 0.0973 0.0069 0.14605 0.0109 0.67733 0.05362 1.3533 0.12768 2.0253 0.22578 0.21061 0.031 0.42086 0.0642 0.63076 0.0998l0.16616 0.0289c0.0995 0.0176 0.199 0.0356 0.2981 0.0543 0.0833 0.0159 0.16657 0.0321 0.24977 0.0487 0.0875 0.0173 0.17496 0.0353 0.26246 0.0536 1.5092 0.31714 2.999 0.77681 4.4044 1.4178 0.69886 0.31891 1.3772 0.68298 2.0221 1.0986 0.32314 0.20814 0.63782 0.42898 0.94191 0.66393 0.30374 0.23424 0.5969 0.48189 0.87842 0.74154 0.0981 0.09031 0.19226 0.18378 0.29246 0.27128 0.10019 0.0882 0.20602 0.17006 0.31785 0.24236 0.1778 0.11501 0.36971 0.21056 0.56974 0.28046 0.0564 0.0198 0.11355 0.0374 0.17145 0.0533 0.043 0.012 0.0868 0.0228 0.13052 0.0328 0.0134 2e-3 0.0268 5e-3 0.0406 8e-3l0.0752 0.0145c0.0476 0.0081 0.0953 0.0143 0.14287 0.0183 0.0131 1e-3 0.0261 0.00165 0.0392 2e-3 0.0264 1e-3 0.0529 0 0.0797-4e-3 0.0169-0.0028 0.0338-0.0069 0.0483-0.0159 0.53763 0.65899 1.0132 1.372 1.4291 2.1138l0.0444 0.0797c0.81986 1.4817 1.4157 3.0896 1.8606 4.7272 0.22296 0.82021 0.40816 1.6482 0.56233 2.4821 0.13158 0.71332 0.31856 2.0715 0.37006 2.45-0.0141 0.0297-0.0411 0.0773-0.0501 0.09l-0.10478 0.24307-0.09 0.27728-0.042 0.16863-0.0317 0.18097-0.0173 0.18521-2e-3 0.18062 0.10619 2.0729 0.0494 2.1156 0.0159 1.9936-8e-3 1.886-0.0282 1.7882-0.0497 1.6997-0.10689 1.6242-0.17956 1.2926-0.0201 0.16228-4e-3 0.12171 5e-3 0.11677 0.0123 0.11112 0.0194 0.10478 0.0519 0.18591 0.0614 0.15522 0.0914 0.17957 0.0734 0.11042m-2.4645-10.041c0.0143-0.56585 0.0226-1.1317 0.0233-1.6979 1e-3 -1.1642-0.0279-2.3287-0.0981-3.4911-0.0713-1.185-0.18521-2.3678-0.35983-3.5419-0.0871-0.58667-0.18945-1.1712-0.30939-1.7522-0.11889-0.57573-0.25471-1.1483-0.41275-1.7152-0.30762-1.1042-0.69815-2.1879-1.2026-3.2191-0.49213-1.0061-1.0922-1.9625-1.8059-2.8265-0.71261-0.86254-1.5385-1.6334-2.4469-2.2881-0.92781-0.66851-1.942-1.216-2.9947-1.6542-0.65758-0.27376-1.3324-0.50694-2.0168-0.7052-0.69674-0.20179-1.4034-0.3676-2.1167-0.5013-1.4503-0.27235-2.9277-0.41165-4.402-0.43215v3.5e-4c-0.41945-6e-3 -0.83855-0.00536-1.258-5e-3 -0.41945 6.5e-4 -0.83855 1e-3 -1.258 1e-3 -0.41945 0-0.83855-3.5e-4 -1.258-3.5e-4h-1.258c-0.83855 3.5e-4 -1.6771 3.5e-4 -2.516 3.5e-4h-2.516c-1.6771-3.5e-4 -3.3546-3.5e-4 -5.0317-3.5e-4h-5.032-5.032-5.032-20.128-5.0317-5.032-5.032c-1.6771 0-3.3546 0-5.0317 3.5e-4h-2.516c-0.83891 0-1.6775 0-2.516-3.5e-4h-1.258c-0.41945 0-0.83855 3.5e-4 -1.258 3.5e-4s-0.83855-3e-4 -1.258-1e-3c-0.41945-1e-3 -0.83855-1e-3 -1.258 5e-3v-3.5e-4c-1.4743 0.02046-2.9517 0.1598-4.402 0.43215-0.71332 0.1337-1.4199 0.29951-2.1167 0.5013-0.68439 0.19826-1.3593 0.43144-2.0168 0.7052-1.0528 0.43815-2.067 0.98566-2.9948 1.6542-0.9084 0.65476-1.7343 1.4256-2.4468 2.2881-0.71367 0.86395-1.3138 1.8203-1.8059 2.8265-0.50451 1.0312-0.89507 2.1149-1.2026 3.2191-0.15808 0.56692-0.29379 1.1395-0.41272 1.7152-0.11991 0.58102-0.22229 1.1656-0.30939 1.7522-0.17459 1.174-0.28857 2.3569-0.3598 3.5419-0.07028 1.1624-0.09951 2.3269-0.09811 3.4911 6.7e-4 0.56621 0.00882 1.1321 0.02328 1.6979 0.01404 0.55775 0.03486 1.1155 0.05994 1.6729 0.02536 0.55492 0.05496 1.1091 0.08886 1.6633 0.034322 0.55633 0.072632 1.1123 0.12527 1.6672 0.05334 0.56162 0.12072 1.1225 0.21167 1.6796 0.092745 0.56832 0.20987 1.1328 0.35528 1.6909 0.30371 1.167 0.73022 2.3047 1.2654 3.386 0.28247 0.5708 0.59545 1.1257 0.938 1.6616 0.17462 0.27269 0.35666 0.54045 0.54681 0.80256 0.19114 0.26388 0.39014 0.52176 0.59683 0.77329 0.20715 0.25224 0.42224 0.49777 0.64424 0.73696 0.22186 0.23847 0.45074 0.4706 0.68972 0.69179 0.2377 0.22049 0.48535 0.43075 0.74069 0.63042 0.25411 0.19826 0.51622 0.38629 0.78327 0.56656 0.26416 0.17886 0.53372 0.3496 0.80603 0.51541 0.26885 0.16404 0.54088 0.32279 0.81506 0.47731 0.53375 0.30056 1.0767 0.58455 1.6274 0.85266 0.52705 0.25647 1.0608 0.49847 1.602 0.7239 0.51894 0.21625 1.0446 0.41698 1.5773 0.59549 0.51506 0.17286 1.0368 0.32491 1.5681 0.4445 0.51788 0.11645 1.0446 0.20215 1.5741 0.21555l0.05327 1e-3c0.254 0.0043 0.50871-0.0098 0.76059-0.0444 0.24977-0.03422 0.49671-0.08852 0.73766-0.16192 0.23883-0.07267 0.47131-0.16403 0.70238-0.25823 0.22895-0.09349 0.45579-0.19011 0.68827-0.27411 0.2293-0.08291 0.4639-0.15314 0.70168-0.20814 0.23495-0.0547 0.47308-0.0945 0.71226-0.1263 0.23601-0.0314 0.47308-0.0551 0.7105-0.0734 0.23354-0.0184 0.46778-0.0313 0.70168-0.0413 0.37465-0.0153 0.7493-0.0213 1.1243-0.0243 0.375-3e-3 0.75001-3e-3 1.1254-3e-3 0.75 2.9e-4 1.5004 6.4e-4 2.2507 1e-3 0.75036 0 1.5007-3.6e-4 2.2511-3.6e-4h2.2511 2.2507 2.2511 4.5018 4.5018 4.5018 9.0039 9.0036 4.5022 4.5018 4.5018 2.2511 2.2507 2.2511c0.75036 0 1.5007 3.6e-4 2.2511 3.6e-4 0.75001-3e-4 1.5004-6.5e-4 2.2507-1e-3 0.37536 0 0.75036 0 1.1254 3e-3 0.37465 0.0031 0.74965 0.0091 1.1243 0.0243 0.23389 0.0095 0.46814 0.023 0.70168 0.0413 0.23742 0.0184 0.47449 0.042 0.71049 0.0734 0.23918 0.0318 0.47731 0.0716 0.71226 0.1263 0.23777 0.05503 0.47237 0.12524 0.70167 0.20814 0.23213 0.08396 0.45932 0.18061 0.68827 0.27411 0.23107 0.09419 0.46355 0.18553 0.70238 0.25823 0.24095 0.07342 0.4879 0.12772 0.73766 0.16192 0.25189 0.0344 0.50659 0.0484 0.76059 0.0444l0.0533-1e-3c0.52952-0.01341 1.0562-0.09913 1.5741-0.21555 0.53128-0.11959 1.053-0.27164 1.5681-0.4445 0.5327-0.17851 1.0583-0.37924 1.5773-0.59549 0.54116-0.22543 1.0749-0.46743 1.602-0.7239 0.55068-0.26811 1.0936-0.5521 1.6274-0.85266 0.27411-0.15452 0.5461-0.31327 0.81492-0.47731 0.27234-0.16581 0.54186-0.33655 0.8061-0.51541 0.26705-0.18027 0.52916-0.3683 0.78281-0.56656 0.25576-0.19967 0.50341-0.40993 0.74119-0.63042 0.23883-0.22119 0.46778-0.45332 0.68968-0.69179 0.22189-0.23919 0.43673-0.48472 0.64417-0.73696 0.20673-0.25153 0.40569-0.50941 0.5969-0.77329 0.19015-0.26211 0.37218-0.52987 0.54681-0.80256 0.34254-0.53587 0.65546-1.0908 0.93768-1.6616 0.53552-1.0813 0.96202-2.219 1.2658-3.386 0.14534-0.55809 0.26244-1.1225 0.35524-1.6909 0.091-0.55704 0.15837-1.118 0.21167-1.6796 0.0525-0.55492 0.091-1.1109 0.12524-1.6672 0.0338-0.55421 0.0635-1.1084 0.0885-1.6633 0.0254-0.55739 0.0458-1.1151 0.0603-1.6729"/><path d="m111.52 11.444c-0.8756 0-1.588 0.7119-1.588 1.5875 0 0.87524 0.71242 1.5875 1.588 1.5875 0.87524 0 1.5875-0.71226 1.5875-1.5875 0-0.8756-0.71226-1.5875-1.5875-1.5875z"/></g><g fill="#888f97"><path d="m111.58 13.538h-0.0201-0.27517v-0.38722h0.24942 6e-3 0.0113c4e-3 7e-4 7e-3 7e-4 0.0106 7e-4h0.0109 0.01 0.0102c3e-3 3.5e-4 6e-3 3.5e-4 0.01 3.5e-4 3e-3 0 7e-3 7.1e-4 0.0102 7.1e-4h0.0102c3e-3 0 6e-3 0 0.01 7.1e-4h0.0109c4e-3 7e-4 8e-3 7e-4 0.0116 7e-4 4e-3 6.5e-4 7e-3 6.5e-4 0.0123 1e-3 5e-3 0 9e-3 7e-4 0.0138 7e-4 5e-3 2.9e-4 0.0102 2.9e-4 0.0152 1e-3 6e-3 0 0.0102 0.0013 0.0162 2e-3 6e-3 0 0.0109 3e-4 0.0159 1e-3 4e-3 1e-3 9e-3 0.0013 0.0145 2e-3 5e-3 1e-3 9e-3 0.0013 0.0127 2e-3 4e-3 0 7e-3 1e-3 0.0109 2e-3 3e-3 0 6e-3 1e-3 0.0102 2e-3 2e-3 1e-3 5e-3 0.0023 8e-3 3e-3 0.0103 0.0033 0.0189 0.0073 0.0279 0.0113 8e-3 0.0038 0.0163 0.0088 0.0233 0.0138 7e-3 0.0049 0.0141 0.0102 0.0201 0.0162 6e-3 0.0056 0.0119 0.0123 0.0169 0.0183 6e-3 0.0063 0.01 0.013 0.0127 0.019 4e-3 0.0067 7e-3 0.0138 0.0102 0.0208 3e-3 0.0074 6e-3 0.016 8e-3 0.024 1e-3 0.0074 3e-3 0.0153 4e-3 0.0243 1e-3 0.0082 2e-3 0.0165 2e-3 0.0265 0 0.0089 0 0.0185-7.1e-4 0.0265-1e-3 0.0081-2e-3 0.0153-3e-3 0.0233-2e-3 0.0081-4e-3 0.0164-7e-3 0.0254-3e-3 0.0081-6e-3 0.016-0.01 0.024-4e-3 0.0074-9e-3 0.0149-0.0145 0.0219-6e-3 7e-3 -0.0116 0.013-0.0176 0.019-6e-3 0.0055-0.0131 0.0115-0.0201 0.0155-6e-3 0.0047-0.0138 0.0087-0.0208 0.0127-8e-3 0.0042-0.016 0.0072-0.024 0.0102-9e-3 2e-3 -0.0183 5e-3 -0.0289 7e-3 -1e-3 0-4e-3 7.1e-4 -6e-3 7.1e-4 -2e-3 6.4e-4 -4e-3 1e-3 -7e-3 1e-3 -2e-3 7e-4 -5e-3 7e-4 -7e-3 7e-4 -3e-3 3e-4 -6e-3 3e-4 -9e-3 1e-3 -3e-3 0-6e-3 0-9e-3 3.5e-4 -4e-3 7.1e-4 -7e-3 7.1e-4 -0.0106 7.1e-4 -3e-3 7.1e-4 -7e-3 7.1e-4 -0.0113 7.1e-4 -4e-3 0-8e-3 7e-4 -0.012 7e-4s-8e-3 0-0.0134 7.1e-4h-0.0141c-5e-3 0-9e-3 3.5e-4 -0.0152 3.5e-4 -5e-3 0-0.01 0-0.0159 7.1e-4h-0.0169-0.0176-0.0183m-0.58867-1.2204v1.4661h0.56078c4e-3 0 8e-3 3.5e-4 0.0124 0h0.0233c0.0151 0 0.0291-5.17e-4 0.0429-5.17e-4 0.0134-7.1e-4 0.0262-5.17e-4 0.0382-5.17e-4s0.0232-1e-3 0.0341-1e-3c0.0105 0 0.021-5.17e-4 0.03-5.17e-4 0.01 0 0.0194-1.57e-4 0.0274-5.17e-4 9e-3 -3e-4 0.0168-1e-3 0.0248-1e-3 7e-3 -6.5e-4 0.0142-6.84e-4 0.0212-1e-3 7e-3 -3e-4 0.0142-6.83e-4 0.0202-1e-3 6e-3 -1e-3 0.0121-0.0014 0.0181-0.0021 0.0183-2e-3 0.036-0.0053 0.0522-0.0083 0.0162-4e-3 0.0312-0.0069 0.045-0.01188 0.0141-0.0043 0.027-9e-3 0.0393-0.01499 0.0123-0.0056 0.0244-0.01157 0.0357-0.01757 0.0112-0.0067 0.0224-0.0137 0.0326-0.0217 0.0105-0.0075 0.0205-0.0158 0.0305-0.0248 0.01-0.0088 0.0189-0.01834 0.0279-0.02894 9e-3 -0.0099 0.0184-0.02107 0.0264-0.03307 8e-3 -0.0112 0.0162-0.02359 0.0233-0.03669 8e-3 -0.0134 0.0147-0.02754 0.0207-0.04134 6e-3 -0.0141 0.011-0.02861 0.016-0.04341 5e-3 -0.0144 9e-3 -0.02891 0.0119-0.04341 3e-3 -0.0145 6e-3 -0.02891 7e-3 -0.04341s2e-3 -0.02891 2e-3 -0.04341c0-0.0144-1e-3 -0.02858-2e-3 -0.04237-1e-3 -0.0137-3e-3 -0.02731-6e-3 -0.04031-3e-3 -0.0127-6e-3 -0.02521-0.0103-0.03721-4e-3 -0.0124-9e-3 -0.02424-0.014-0.03514-5e-3 -0.0113-0.011-0.02299-0.017-0.03359-6e-3 -0.0105-0.0132-0.02081-0.0212-0.03101-7e-3 -0.0099-0.0153-0.01894-0.0243-0.02894-8e-3 -0.0089-0.0174-0.01784-0.0274-0.02584-0.01-0.0081-0.0202-0.01625-0.0315-0.02325-0.011-0.0074-0.0224-0.01467-0.0351-0.02067-8e-3 -0.0047-0.0173-0.0084-0.0263-0.0124-5e-3 -2e-3 -0.01-0.0042-0.0145-0.0062-0.0148-6e-3 -0.0306-0.01102-0.0475-0.01602 0.0131-0.0063 0.0254-0.01315 0.0377-0.02015 9e-3 -0.0052 0.0189-0.01157 0.0269-0.01757 0.0197-0.0145 0.037-0.03109 0.0532-0.04909 0.0158-0.0184 0.0304-0.03771 0.0424-0.05891 0.012-0.0211 0.0225-0.04428 0.0295-0.06718 7e-3 -0.023 0.013-0.0465 0.015-0.0708 3e-3 -0.024 3e-3 -0.04938 0-0.07338-2e-3 -0.0251-8e-3 -0.04911-0.015-0.07131-7e-3 -0.0226-0.0169-0.04346-0.0289-0.06356-0.013-0.0223-0.0271-0.04194-0.0419-0.05994-0.0145-0.0177-0.0297-0.03374-0.047-0.04754-0.017-0.0137-0.0354-0.02661-0.0548-0.03721-0.0197-0.0109-0.0407-0.02036-0.0605-0.02635-0.0202-0.0072-0.0394-0.0125-0.0584-0.0155-0.01-2e-3 -0.0207-0.0034-0.032-0.0041-0.0113-2e-3 -0.023-0.0026-0.0357-0.0036s-0.0267-0.0014-0.0408-0.0021c-0.0144-1e-3 -0.0298-0.0017-0.046-0.0021-0.0162-7.1e-4 -0.0334-5.17e-4 -0.0517-5.17e-4 -0.0178-6.94e-4 -0.0367-1e-3 -0.0563-1e-3h-0.03102zm0.56072 0.58795h-0.0127-0.25436v-0.33867h0.19864 0.0145 0.0138 7e-3 7e-3 7e-3 7e-3 4e-3 4e-3 8e-3c6e-3 0 0.0112 0 0.0162 3.6e-4h0.0152 0.0141c5e-3 7e-4 9e-3 7e-4 0.0138 7e-4h0.0127 0.012c4e-3 0 7e-3 7.1e-4 0.0109 7.1e-4h0.0102 9e-3c2e-3 7e-4 5e-3 7e-4 8e-3 7e-4h7e-3c3e-3 0 5e-3 7.1e-4 7e-3 7.1e-4h6e-3c2e-3 3.5e-4 3e-3 3.5e-4 5e-3 3.5e-4 2e-3 7.1e-4 4e-3 7.1e-4 5e-3 7.1e-4 7e-3 1e-3 0.0127 2e-3 0.0187 3e-3 6e-3 2e-3 0.0116 3e-3 0.0166 4e-3 5e-3 2e-3 9e-3 3e-3 0.0145 5e-3 5e-3 1e-3 9e-3 3e-3 0.013 5e-3s8e-3 4e-3 0.0116 6e-3c3e-3 2e-3 7e-3 4e-3 0.0102 6e-3 3e-3 2e-3 6e-3 5e-3 9e-3 7e-3s6e-3 5e-3 9e-3 7e-3 6e-3 5e-3 8e-3 8e-3 5e-3 6e-3 7e-3 9e-3c2e-3 2e-3 4e-3 5e-3 6e-3 9e-3 2e-3 0.0032 4e-3 0.0072 6e-3 0.0102 2e-3 0.0036 4e-3 0.0066 5e-3 0.0106 2e-3 4e-3 4e-3 8e-3 5e-3 0.012 2e-3 0.0037 3e-3 0.0077 4e-3 0.0127 1e-3 0.0038 1e-3 0.0088 2e-3 0.0138 1e-3 0.0045 2e-3 0.0095 2e-3 0.0145 7e-4 0.0053 7e-4 0.0106 7e-4 0.0166 3.6e-4 0.0049 0 0.0105-3.5e-4 0.0155 0 0.0052-2.9e-4 0.0112-1e-3 0.0152 0 0.0051-1e-3 0.0091-2e-3 0.0141-1e-3 0.0043-3e-3 0.0083-4e-3 0.0123-1e-3 5e-3 -3e-3 8e-3 -4e-3 0.012-1e-3 0.0043-3e-3 0.0073-5e-3 0.0113-2e-3 0.0032-4e-3 0.0062-6e-3 0.0102s-4e-3 7e-3 -6e-3 0.01-5e-3 7e-3 -7e-3 9e-3c-3e-3 2e-3 -6e-3 6e-3 -8e-3 8e-3 -3e-3 2e-3 -5e-3 5e-3 -8e-3 7e-3 -2e-3 2e-3 -5e-3 4e-3 -8e-3 6e-3s-5e-3 4e-3 -8e-3 6e-3 -5e-3 3e-3 -8e-3 5e-3 -5e-3 4e-3 -8e-3 5e-3c-2e-3 2e-3 -5e-3 3e-3 -8e-3 4e-3 -2e-3 2e-3 -5e-3 3e-3 -8e-3 4e-3 -2e-3 1e-3 -5e-3 2e-3 -8e-3 3e-3 -2e-3 0-5e-3 0.0013-8e-3 2e-3 -2e-3 0-5e-3 0.0013-8e-3 2e-3 -3e-3 1e-3 -6e-3 0.0013-9e-3 2e-3 -4e-3 1e-3 -7e-3 0.0013-0.01 2e-3 -3e-3 0-6e-3 1e-3 -0.0102 1e-3 -4e-3 2.9e-4 -7e-3 1e-3 -0.0109 1e-3 -2e-3 7e-4 -4e-3 7e-4 -6e-3 7e-4 -2e-3 2.9e-4 -5e-3 2.9e-4 -7e-3 1e-3h-7e-3c-3e-3 0-5e-3 7.1e-4 -8e-3 7.1e-4h-9e-3c-3e-3 0-6e-3 7e-4 -0.01 7e-4h-0.0102c-3e-3 0-7e-3 0-0.0113 7.1e-4h-0.0116-0.012-0.012-0.0123c-4e-3 3.5e-4 -8e-3 3.5e-4 -0.012 3.5e-4h-0.0127"/><path d="m16.688 42.244v3.6e-4c-0.07408 0.18979-0.15381 0.39193-0.2413 0.58526-3.52e-4 1e-3 0 0.0013-3.52e-4 2e-3 -3.95e-4 1e-3 -7.48e-4 0.0013-0.0011 2e-3 -0.0014 0.0036-1e-3 0.0076-0.0021 0.0116-3.95e-4 2e-3 -0.0011 4e-3 -0.0011 6e-3 -1e-3 0.0057-0.0021 0.0106-0.0028 0.0166-0.02787-0.0106-0.05644-0.0194-0.08431-0.03l-0.0321-0.0127c-0.02822-0.0106-0.05539-0.0233-0.08361-0.0339 0.0067-0.0095 0.0141-0.019 0.0187-0.0296 3.53e-4 0 0-1e-3 3.53e-4 -2e-3 0-3e-4 7.05e-4 -3e-4 7.05e-4 -1e-3 0.06385-0.19968 0.13688-0.39617 0.21272-0.59655 1e-3 -3e-3 0.0021-5e-3 0.0028-8e-3l0.37253-0.96979c1e-3 -3e-3 0.0021-6e-3 0.0035-9e-3 0.07796-0.20073 0.15522-0.39582 0.2413-0.58561 3.53e-4 0 0-0.0013 3.53e-4 -2e-3 3.95e-4 -3e-4 7.47e-4 -3e-4 0.0011-1e-3 0.0014-0.0033 1e-3 -0.0073 0.0021-0.0113 0-2e-3 0.0011-4e-3 0.0011-6e-3 1e-3 -0.0056 0.0021-0.0102 0.0028-0.0162 0.02611 0.0099 0.05256 0.0179 0.07867 0.0279l0.04163 0.0162c0.02681 0.0102 0.05292 0.0219 0.07973 0.0328-0.0036 0.0038-0.0064 0.0088-0.0092 0.0138-0.0011 2e-3 -0.0014 4e-3 -0.0025 5e-3 -0.0022 0.0039-0.0053 0.0069-0.0071 0.0109 0 1e-3 0 0.0013-3.53e-4 2e-3 0 3e-4 -7.05e-4 6.5e-4 -7.05e-4 1e-3 -0.06385 0.20074-0.13724 0.39688-0.21272 0.59655-1e-3 3e-3 -0.0017 5e-3 -0.0028 8e-3l-0.36795 0.95743c-0.0028 0.0074-0.0053 0.0145-0.0081 0.0215"/><path d="m108.44 24.019c0.25153 0.41769 0.42864 0.87136 0.52634 1.349 0.0843 0.41416 0.109 0.8382 0.0723 1.2598-0.0459 0.52105-0.1912 1.0446-0.41945 1.5138-0.23248 0.4766-0.54751 0.90064-0.93698 1.2601-0.39088 0.36054-0.83926 0.64029-1.3335 0.8315-0.47978 0.18558-1.0051 0.28398-1.5184 0.28398h-0.0275c-0.33867-0.0025-0.67734-0.04546-1.0065-0.12876-0.32808-0.0829-0.64664-0.20567-0.9458-0.36442-0.29915-0.1584-0.57926-0.35242-0.83326-0.5775-0.25294-0.22401-0.48013-0.47836-0.67486-0.756-0.24236-0.34678-0.43357-0.72637-0.56762-1.1275-0.0914-0.27411-0.15519-0.55809-0.18909-0.8442-0.0342-0.2868-0.0391-0.57785-0.0148-0.86501 0.0247-0.28716 0.0786-0.57291 0.16122-0.84984 0.0822-0.27658 0.19297-0.54575 0.32985-0.8001 0.13652-0.254 0.29986-0.49495 0.48507-0.71614 0.18521-0.22154 0.39405-0.42439 0.61983-0.60289 0.22648-0.17922 0.47166-0.3355 0.72919-0.46497 0.25753-0.12946 0.52952-0.23322 0.80786-0.30762 0.35878-0.09599 0.72884-0.14464 1.0993-0.14499 0.48753 0 0.96767 0.0829 1.427 0.24659 0.45861 0.16334 0.88265 0.40287 1.2608 0.71156 0.37818 0.30903 0.69744 0.67698 0.94897 1.0936m0.55739 2.6053c0.0363-0.41734 0.0123-0.83714-0.0713-1.2481-0.0967-0.47272-0.27199-0.92216-0.5214-1.3353-0.24907-0.4131-0.56515-0.77717-0.93945-1.083-0.3743-0.3055-0.7941-0.54257-1.2485-0.7045-0.45509-0.16192-0.93028-0.24412-1.4125-0.24412-0.3683 3.5e-4 -0.73449 0.04873-1.0887 0.14323-0.27552 0.07373-0.54469 0.17639-0.8001 0.3048-0.2547 0.1277-0.49777 0.28257-0.72213 0.46037-0.22366 0.1771-0.43039 0.37818-0.61384 0.5969-0.18379 0.21943-0.34537 0.45791-0.48013 0.70944-0.13511 0.25118-0.24517 0.51753-0.32667 0.79163-0.0815 0.27376-0.13516 0.55704-0.15946 0.84173-0.0243 0.28434-0.0194 0.57256 0.0145 0.85655 0.0339 0.28398 0.097 0.56515 0.18733 0.83573 0.13264 0.39722 0.32173 0.77293 0.56233 1.1165v3.5e-4c3.5e-4 0 0 0 3.5e-4 3.5e-4l3.5e-4 3.6e-4c0.19227 0.27446 0.41699 0.52634 0.66781 0.74824 0.25118 0.2226 0.52882 0.41487 0.82444 0.57185 0.2974 0.15734 0.61243 0.27834 0.93698 0.36054 0.32632 0.08255 0.66146 0.12535 0.9966 0.12735h0.0261c0.50906 0 1.0287-0.09701 1.5042-0.28116 0.48895-0.18909 0.93345-0.46602 1.3201-0.82303 0.38558-0.35595 0.69779-0.77576 0.9278-1.2481 0.22613-0.4639 0.36972-0.98178 0.41522-1.4975v-3.5e-4 -7.1e-4"/></g><g fill="none" stroke="#888f97" stroke-width=".235"><path d="m20.774 43.248c0.26141-0.68122-0.08008-1.4489-0.76165-1.7106l-5.5379-2.1255c-0.68121-0.26176-1.4485 0.08008-1.7103 0.76165-0.127 0.3302-0.11747 0.68968 0.02646 1.0128 0.14358 0.32315 0.40464 0.5708 0.73484 0.69744l5.5379 2.1258c0.15416 0.0592 0.31468 0.0885 0.47484 0.0885 0.18309 0 0.36583-0.03841 0.53799-0.11501 0.32314-0.14393 0.57079-0.40498 0.69779-0.73518m1.6006-4.9505c0.09207-0.24025 0.08501-0.50201-0.01976-0.73731-0.10442-0.2353-0.29457-0.4156-0.53481-0.508l-5.6564-2.171c-0.2406-0.09243-0.50236-0.08538-0.73766 0.0194-0.23495 0.10442-0.41522 0.29457-0.50765 0.53481s-0.08538 0.50235 0.0194 0.73766c0.10442 0.23495 0.29457 0.41554 0.53481 0.50764l5.6564 2.1714c0.11218 0.0431 0.22931 0.0646 0.34608 0.0646 0.133 0 0.266-0.0279 0.39158-0.084 0.23495-0.10442 0.41557-0.29457 0.508-0.53516m1.0146-9.0315c0.80574-1.3956 1.0199-3.0212 0.6029-4.5776l-3.5422-13.219c-0.86078-3.2128-4.1748-5.1259-7.3882-4.2654-3.2126 0.86078-5.1261 4.1751-4.2653 7.3882l3.5417 13.219c0.72143 2.692 3.1651 4.4718 5.8286 4.4718 0.51506 0 1.0389-0.06668 1.5596-0.20638 1.5565-0.41698 2.8575-1.415 3.6629-2.8106m1.0209-21.796c0.7426 0 1.3458-0.6036 1.3458-1.3458 0-0.74189-0.60325-1.3458-1.3458-1.3458-0.74189 0-1.3458 0.60395-1.3458 1.3458 0 0.74225 0.60396 1.3458 1.3458 1.3458m70.099 34.919 2e-6 -37.331h-66.052v37.331zm6.9906-3.4608c0.11465 0 0.23107-0.0208 0.34431-0.0642l5.6561-2.1714c0.2406-0.09207 0.43075-0.27269 0.53517-0.50764 0.1048-0.23531 0.1118-0.49742 0.0194-0.73766-0.0921-0.24024-0.27235-0.43039-0.50765-0.53481-0.2353-0.1048-0.49671-0.1118-0.73766-0.0194l-5.6564 2.171c-0.24024 0.09243-0.43039 0.2727-0.53481 0.508-0.1048 0.2353-0.1118 0.49706-0.0194 0.73731 0.14711 0.38311 0.51329 0.61877 0.901 0.61877m8.6759 2.2574c0.14398-0.32314 0.1535-0.68262 0.0265-1.0128-0.26141-0.68155-1.029-1.0234-1.7106-0.76165l-5.5376 2.1255c-0.68155 0.26176-1.0231 1.029-0.76165 1.7106 0.20214 0.52634 0.7052 0.84984 1.2376 0.84984 0.15733 0 0.3175-0.0286 0.47307-0.0882l5.5376-2.1258c0.3302-0.12664 0.59126-0.37429 0.73519-0.69744m4.0259-26.594c0.86078-3.2131-1.0527-6.5274-4.2658-7.3882-3.2117-0.86042-6.5271 1.0527-7.3882 4.2654l-3.5419 13.219c-0.41698 1.5564-0.20285 3.182 0.60254 4.5776 0.80575 1.3956 2.1068 2.3936 3.6632 2.8106 0.51964 0.13934 1.0467 0.20814 1.5709 0.20814 1.0453 0 2.0772-0.27411 3.0064-0.81068 1.3956-0.80575 2.3943-2.1064 2.8109-3.6629l3.5419-13.219"/><path d="m122.96 26.385-0.0339 3.5941-0.11183 2.6875-0.16757 1.851-0.15345 1.0739v3.5e-4c-0.0423-0.0498-0.0752-0.0961-0.0762-0.0981l-0.0423-0.0603-0.11324-0.21378-0.0582-0.14746-0.0494-0.17639-0.018-0.0984-0.012-0.10512-5e-3 -0.11007 4e-3 -0.11501 0.19967-1.4524 0.10725-1.6291 0.0497-1.7018 0.0282-1.7896 8e-3 -1.8867-0.0159-1.9946-0.049-2.1177-0.10266-2.0052-4e-3 -0.0663 2e-3 -0.17392 0.0166-0.17815 0.0307-0.17427 0.0406-0.16334 0.0444-0.14605 0.0434-0.12418 0.0684-0.17004 0.0205-0.0413 0.0116 0.13194 0.24271 3.3948z"/><path d="m0.54045 35.495c-4.2e-4 7e-4 -0.0321 0.0462-0.07373 0.0952l-0.15378-1.0728-0.16729-1.851-0.11176-2.6875-0.0339-3.5941 0.09426-4.2058 0.24264-3.3948 0.01132-0.12595 0.08749 0.20391 0.08777 0.26952 0.04025 0.16228 0.03101 0.17392 0.01693 0.1778 0.0018 0.17498-0.10622 2.0757-0.04935 2.117-0.01584 1.9942 0.0084 1.887 0.02826 1.7893 0.05016 1.7029 0.10749 1.6309 0.17956 1.295 0.0194 0.15064 0.0039 0.115-0.0041 0.11042-0.01175 0.10513-0.01789 0.0988-0.04949 0.17674-0.05814 0.14852-0.08682 0.17039-0.07055 0.10654"/></g><g fill="#888f97"><path d="m108.18 15.486-0.57103 1.4655h0.31368l0.12144-0.33435h0.58446l0.12919 0.33435h0.32194l-0.58601-1.4655zm0.15141 0.34365 0.20102 0.54157h-0.39791z"/><g><path d="m104.8 22.137c2.2486 0 4.0781 1.8292 4.0781 4.0778 0 2.2486-1.8295 4.0781-4.0781 4.0781-2.2486 0-4.0781-1.8295-4.0781-4.0781 0-2.2486 1.8295-4.0778 4.0781-4.0778m0 8.0063c2.166 0 3.9285-1.7625 3.9285-3.9285 0-2.1661-1.7625-3.9282-3.9285-3.9282-2.1661 0-3.9285 1.7621-3.9285 3.9282 0 2.166 1.7625 3.9285 3.9285 3.9285"/><path d="m18.164 21.537c-0.36689 0-0.73186 0.04231-1.0868 0.12661-0.09349 0.02228-0.18224 0.05972-0.26303 0.11162-0.08079 0.05151-0.15174 0.1153-0.21136 0.1912-0.05997 0.07585-0.10642 0.15993-0.13746 0.25063-0.03175 0.09102-0.04754 0.18604-0.04754 0.28164l5.16e-4 1.3736-0.0047 0.08113c-0.01905 0.14076-0.08341 0.27064-0.17725 0.36484-0.09384 0.09414-0.22144 0.15843-0.34985 0.17673l-0.0832 0.0062h-1.3942c-0.09455 7e-4 -0.18858 0.01648-0.27854 0.04858-0.09031 0.03211-0.17397 0.07868-0.24805 0.13798-0.07479 0.05962-0.13799 0.13056-0.18914 0.21136-0.05115 0.08079-0.08872 0.16942-0.11059 0.26252l-0.01809 0.07958c-0.07196 0.32985-0.10852 0.67038-0.10852 1.0098l5.17e-4 0.06511c0.0046 0.31997 0.04264 0.64186 0.11214 0.95653l0.03359 0.13178c0.05045 0.15769 0.15422 0.30722 0.29146 0.41341 0.13688 0.10544 0.30855 0.16825 0.48317 0.17725l0.11162 1e-3h1.3022l0.07131 0.0036c0.14288 0.01728 0.27628 0.08177 0.37259 0.17777 0.09631 0.09525 0.16151 0.22566 0.1788 0.3576l1e-3 0.0078 0.0047 1.4573 0.0021 0.06201c0.01235 0.17604 0.0839 0.3516 0.20102 0.48989 0.11748 0.13829 0.27952 0.23809 0.4563 0.28009 0.35525 0.0843 0.72057 0.12661 1.0868 0.12661 0.36583 0 0.73315-0.04276 1.0919-0.12816l0.12712-0.04134c0.14676-0.05962 0.28408-0.17089 0.37827-0.30954 0.09419-0.13829 0.14691-0.30996 0.14831-0.48318v-1.3715l0.0052-0.0801c0.01905-0.14252 0.08424-0.27334 0.17983-0.36794 0.09596-0.09493 0.22569-0.15858 0.35657-0.17518l0.0739-0.0052h1.388l0.05219-0.0016c0.37747-0.02223 0.69247-0.28723 0.78031-0.65836l0.0155-0.06873c0.0762-0.34466 0.1136-0.69882 0.1111-1.0526-0.0028-0.35419-0.04545-0.709-0.12764-1.0547l-0.01705-0.06098c-0.05009-0.15875-0.15256-0.30758-0.28732-0.41341-0.13476-0.10588-0.30395-0.16978-0.47646-0.18138l-1.0682-0.0021-0.43977-0.0052-0.0078-1e-3c-0.13159-0.01834-0.26083-0.08242-0.35502-0.17622-0.09419-0.09384-0.15839-0.22109-0.17673-0.34985l-0.0015-0.0083-0.0062-1.4619c0-0.09596-0.01563-0.19042-0.04703-0.28112-0.0314-0.09031-0.07664-0.1741-0.13591-0.2496-0.05891-0.07514-0.12989-0.13982-0.21032-0.19172-0.08149-0.05259-0.1691-0.08969-0.26717-0.11369-0.35454-0.08435-0.71989-0.12712-1.0857-0.12712zm0.0016 0.33693c0.33981 0 0.67938 0.03933 1.0098 0.11782 0.23601 0.05574 0.40101 0.26424 0.40101 0.50694v1.3787c0 0.53093 0.43147 0.9617 0.9617 0.9617h1.3787c0.24236 0 0.45121 0.165 0.50694 0.40101 0.15663 0.6604 0.15663 1.3589 0 2.02-0.05574 0.23601-0.26459 0.40049-0.50694 0.40049h-1.3787c-0.53022 0-0.9617 0.432-0.9617 0.96222v1.3787c0 0.24271-0.165 0.45124-0.40101 0.50694-0.66075 0.15699-1.3593 0.15699-2.02 0-0.23601-0.05574-0.40049-0.26424-0.40049-0.50694v-1.3787c0-0.53022-0.43164-0.96222-0.96222-0.96222h-1.3788c-0.24271 0-0.45086-0.16448-0.50694-0.40049-0.15699-0.6611-0.15699-1.3596 0-2.02 0.05609-0.23601 0.26423-0.40101 0.50694-0.40101h1.3787c0.53058 0 0.96222-0.43077 0.96222-0.9617v-1.3787c0-0.24271 0.16448-0.45124 0.40049-0.50694 0.33038-0.0785 0.67046-0.11782 1.0103-0.11782zm0 0.66921-0.339 0.43408h0.678zm-3.2732 3.3683-0.43408 0.339 0.43408 0.339zm6.5464 0v0.678l0.43408-0.339zm-3.6122 3.6122 0.339 0.43408 0.339-0.43408z"/><path d="m46.584 0.91977-0.0018-0.19085-0.0018-0.0152-0.0071-0.019-0.01058-0.0152-0.01235-0.0113-0.0127-9e-3 -0.0127-7e-3 -0.01376-5e-3 -0.01446-5e-3 -0.01587-4e-3 -0.01729-5e-3 -0.01905-4e-3 -0.02081-4e-3 -0.02293-3e-3 -0.02505-4e-3 -0.02681-3e-3 -0.02928-3e-3 -0.0314-2e-3 -0.03316-2e-3 -0.03563-2e-3 -0.03739-2e-3 -0.03951-2e-3 -0.04128-2e-3 -0.04304-2e-3 -0.0448-1e-3 -0.04621-1e-3 -0.04798-1e-3 -0.04904-7e-4 -0.05009-7.1e-4h-6.803l-0.05045 7.1e-4 -0.04939 7e-4 -0.04763 1e-3 -0.04657 1e-3 -0.0448 1e-3 -0.04339 2e-3 -0.04128 2e-3 -0.03951 2e-3 -0.03775 2e-3 -0.03563 2e-3 -0.03316 2e-3 -0.0314 3e-3 -0.02928 2e-3 -0.02716 4e-3 -0.02505 3e-3 -0.02293 3e-3 -0.02117 4e-3 -0.01905 4e-3 -0.01729 4e-3 -0.01588 4e-3 -0.01446 5e-3 -0.01376 5e-3 -0.0127 7e-3 -0.0127 9e-3 -0.01235 0.0113-0.01058 0.0152-0.0074 0.019-0.0018 0.0152-0.0018 0.19085"/><path d="m30.62 1.0173 4.457-0.18874c-0.0049-0.0046-0.01027-0.0076-0.01587-0.0106-0.0078-0.0042-0.01548-0.0072-0.02328-0.0102-0.01023-0.0042-0.02011-0.0072-0.03034-0.0102-0.01234-4e-3 -0.02469-7e-3 -0.03739-0.01-0.03069-0.0074-0.06208-0.013-0.09313-0.018-0.03881-0.0055-0.07762-0.0115-0.11642-0.0155-0.04516-0.0047-0.09066-0.0087-0.13582-0.0127-0.05009-3e-3 -0.10054-7e-3 -0.15099-9e-3 -0.05362-3e-3 -0.10725-5e-3 -0.16087-6e-3 -0.05539-0.00165-0.11112-2e-3 -0.16651-2e-3l-4.2189-3.5e-4c-0.05539 0-0.11077 1e-3 -0.16651 2e-3 -0.05362 2e-3 -0.10725 4e-3 -0.16087 6e-3 -0.05045 3e-3 -0.10054 6e-3 -0.15099 0.01-0.04516 0.0033-0.09031 0.0073-0.13547 0.0123-0.03916 0.0042-0.07797 0.0095-0.11642 0.0155-0.0314 0.0049-0.0628 0.011-0.09349 0.018-0.01235 3e-3 -0.02505 6e-3 -0.03704 0.01-0.01023 0.0032-0.02044 0.0062-0.03034 0.0102-0.0081 0.0032-0.01588 0.0062-0.02328 0.0102-6e-3 0.0036-0.01133 0.0066-0.01623 0.0106" stroke="#888f97" stroke-width=".035278"/></g></g><g fill="none" stroke="#888f97" stroke-width=".235"><g><path d="m24.114 1.0715c-0.94051 0-1.4252-0.13196-1.7149-0.22366l0.0074-0.31644 0.01587-0.0593c0.01094-0.0201 0.02822-0.0378 0.04833-0.0494l0.06315-0.0176c0.66287 0 1.3257-3.6e-4 1.9886-3.6e-4h0.52211l0.64946 3.6e-4c0.0321 0 0.06526 0.0141 0.0889 0.0374 0.02364 0.0229 0.03739 0.0561 0.0381 0.0882l0.0074 0.30762s-0.50235 0.23318-1.7145 0.23318z"/><path d="m4.8083 5.179 0.0018-0.0131 5e-3 -0.0141c1e-3 -3e-3 0.0028-6e-3 0.0046-8e-3l0.0081-0.0109c0.54751-0.55562 1.1441-1.0657 1.7804-1.5159 0.52077-0.3683 1.0678-0.69568 1.628-0.98778 0.51721-0.26952 1.0454-0.50871 1.5798-0.72425 1.1825-0.47696 2.395-0.83785 3.6191-1.1176 0.62089-0.14147 1.245-0.26247 1.8711-0.36478 0.62653-0.10195 1.2555-0.18517 1.8849-0.25117 0.24236-0.0254 0.48472-0.0487 0.72708-0.0688l0.69003-0.0508c0.12947-0.0084 0.25894-0.0159 0.38876-0.0229 0.22542-0.012 0.4512-0.0219 0.67663-0.0289l0.06315 0.0409 0.28787 0.72637c-0.01764 0.0064-0.03422 0.0117-0.05292 0.0187-0.03421 0.0109-0.06808 0.0215-0.1023 0.0317-0.21061 0.06347-0.43392 0.11567-0.66358 0.15487-0.08467 0.0144-0.17004 0.0271-0.25541 0.0377-0.11712 0.0145-0.2346 0.0228-0.35207 0.0318l-0.19297 0.0148c-0.82938 0.06526-1.6383 0.16087-2.4049 0.28293-0.24871 0.03982-0.49848 0.08322-0.74471 0.12982l-0.5147 0.10266c-1.6133 0.33902-3.1128 0.82197-4.4579 1.4351-0.73286 0.33443-1.4239 0.71014-2.0543 1.1162-0.33443 0.21554-0.6573 0.44309-0.95966 0.67662-0.30646 0.23672-0.60745 0.49072-0.89531 0.75601-0.037322 0.03426-0.073982 0.06876-0.11077 0.10336-0.058173 0.05539-0.11631 0.11079-0.17667 0.16369-0.098813 0.08643-0.19307 0.15838-0.28857 0.21978-0.1433 0.09208-0.29323 0.169-0.44633 0.2286-0.045474 0.0176-0.091654 0.0335-0.13324 0.0469l-0.0074 2e-3 -0.39997-1.1234z"/><path d="m98.842 1.0715c0.94086 0 1.4256-0.13196 1.7149-0.22366l-7e-3 -0.31644-0.0162-0.0593c-0.0106-0.0201-0.0279-0.0378-0.048-0.0494l-0.0635-0.0176c-0.66287 0-1.3254-3.6e-4 -1.9883-3.6e-4h-0.52211l-0.64946 3.6e-4c-0.0321 0-0.06562 0.0141-0.0889 0.0374-0.02399 0.0229-0.03774 0.0561-0.03845 0.0882l-0.0071 0.30762s0.50235 0.23318 1.7141 0.23318z"/><path d="m118.15 5.1931 1e-3 -0.0141-2e-3 -0.0131-5e-3 -0.0141c-2e-3 -3e-3 -3e-3 -6e-3 -5e-3 -8e-3l-8e-3 -0.0109c-0.54751-0.55562-1.1441-1.0657-1.7805-1.5159-0.5207-0.3683-1.0679-0.69568-1.6281-0.98778-0.51718-0.26952-1.0453-0.50871-1.5797-0.72425-1.1829-0.47696-2.395-0.83785-3.6192-1.1176-0.62089-0.14147-1.245-0.26247-1.8711-0.36478-0.62654-0.10195-1.2555-0.18517-1.8849-0.25117-0.24272-0.0254-0.48472-0.0487-0.72708-0.0688l-0.69003-0.0508c-0.12947-0.0084-0.25894-0.0159-0.38876-0.0229-0.22543-0.012-0.45156-0.0219-0.67698-0.0289l-0.0628 0.0409-0.28785 0.72637c0.0176 0.0064 0.0342 0.0117 0.0529 0.0187 0.0342 0.0109 0.0677 0.0215 0.10231 0.0317 0.2106 0.06347 0.43356 0.11567 0.66357 0.15487 0.0843 0.0144 0.17006 0.0271 0.25506 0.0377 0.11712 0.0145 0.23495 0.0228 0.35207 0.0318l0.19332 0.0148c0.82938 0.06526 1.638 0.16087 2.4049 0.28293 0.24871 0.03982 0.49812 0.08322 0.74436 0.12982l0.5147 0.10266c1.6136 0.33902 3.1133 0.82197 4.4584 1.4351 0.73272 0.33443 1.4238 0.71014 2.0542 1.1162 0.33444 0.21554 0.65723 0.44309 0.95956 0.67662 0.30656 0.23672 0.60784 0.49072 0.895 0.75601 0.0378 0.03426 0.0745 0.06876 0.11077 0.10336 0.0586 0.05539 0.1168 0.11079 0.1771 0.16369 0.0988 0.08643 0.19297 0.15838 0.28857 0.21978 0.14287 0.09208 0.2928 0.169 0.44591 0.2286 0.0459 0.0176 0.0921 0.0335 0.1337 0.0469l7e-3 2e-3 0.39864-1.1194"/></g><path d="m108.35 14.618c-0.87595 0-1.5875 0.71243-1.5875 1.588 0 0.8756 0.71155 1.5875 1.5875 1.5875 0.87559 0 1.588-0.7119 1.588-1.5875 0-0.87559-0.71243-1.588-1.588-1.588z"/></g><path d="m14.255 40.446c-0.02258 0-0.04482 0.0049-0.06563 0.01292-0.0074 3e-3 -0.01449 0.0058-0.02119 0.0098-0.01023 0.0053-0.0191 0.01212-0.02791 0.01912-0.0038 3e-3 -0.0073 0.0068-0.01085 0.0098-0.01729 0.0173-0.03111 0.03826-0.04031 0.06046-0.0032 0.0081-0.0062 0.01629-0.0083 0.02429-0.0035 0.0145-0.0057 0.02861-0.0057 0.04341v0.50281c0 0.0399 0.03249 0.07235 0.07235 0.07235 0.03951 0 0.07131-0.03245 0.07131-0.07235v-0.4697c0-0.0384 0.03166-0.06925 0.06976-0.06925h0.47542c0.03951 0 0.07131-0.03193 0.07131-0.07183 0-0.0395-0.0318-0.07183-0.07131-0.07183zm0.28629 0.28784c-0.09842 0-0.17828 0.07937-0.17828 0.17777v0.47026c0 0.0984 0.07985 0.17828 0.17828 0.17828h0.82941c0.09807 0 0.17777-0.07988 0.17777-0.17828v-0.47026c0-0.09846-0.0797-0.17777-0.17777-0.17777zm0.0078 0.14366h0.81339c0.02328 0 0.04237 0.01908 0.04237 0.04237v0.45424c0 0.0232-0.01909 0.04237-0.04237 0.04237h-0.81344c-0.02328 0-0.04237-0.01908-0.04237-0.04237v-0.45424c0-0.0233 0.0191-0.04237 0.04237-0.04237z" fill="#888f97"/></g></svg>
