<?xml version="1.0" encoding="UTF-8"?>
<svg version="1.1" width="500px" height="500px" viewBox="0 0 500.0 500.0"
    xmlns="http://www.w3.org/2000/svg" xmlns:xlink="http://www.w3.org/1999/xlink">
    <defs>
        <clipPath id="i0">
            <path d="M500,0 L500,500 L0,500 L0,0 L500,0 Z"></path>
        </clipPath>
        <clipPath id="i1">
            <path
                d="M250.712282,0 L250.712,0.104 L467.892822,0.104263971 C469.597251,0.104263971 471.365217,0.0673663893 473.156928,0.0374707408 L474.054578,0.0233096494 C474.44126,0.0176460678 474.828733,0.0126443597 475.216602,0.00874081502 L475.992749,0.00252721445 L476.380998,0.000760960753 L477.157409,0.000394313036 C489.058787,0.0301077369 500.712282,1.7764267 500.712282,17.8220793 C500.712282,38.1022267 455.197165,76.9878269 422.38743,102.508788 C389.577695,128.029748 381.511548,131.179563 359.064847,138.361814 C344.100379,143.149981 327.326048,146.029376 308.741852,147 L250,147 L250,146.895 L32.8194602,146.895736 C31.1150309,146.895736 29.3470644,146.932634 27.5553533,146.962529 L26.6577034,146.97669 L25.7572013,146.988465 L25.3784059,146.992405 L24.6202182,146.998017 C24.4938146,146.99867 24.3674005,146.999171 24.2409897,146.999507 L23.4826731,146.999404 L22.7705118,146.995024 C22.6519025,146.993914 22.5333428,146.992605 22.4148441,146.991085 L21.7046746,146.979333 C10.474785,146.750002 0,144.390465 0,129.177921 C0,108.897773 45.5151169,70.0121731 78.3248518,44.4912123 C111.134587,18.9702516 119.200734,15.8204371 141.647435,8.63818641 C156.611902,3.8500193 173.386234,0.970623831 191.970429,0 L250.712282,0 Z M324.904282,46.308 L315.778282,46.308 L315.778282,80.862 C315.778282,88.116 317.806282,93.654 321.940282,97.554 C325.840282,101.22 331.534282,103.092 338.944282,103.092 C346.276282,103.092 351.970282,101.22 356.026282,97.476 C360.082282,93.654 362.110282,88.116 362.110282,80.862 L362.110282,46.308 L352.984282,46.308 L352.984282,81.018 C352.984282,85.854 351.814282,89.364 349.630282,91.704 C347.368282,93.966 343.780282,95.136 338.944282,95.136 C334.030282,95.136 330.442282,93.966 328.258282,91.704 C325.996282,89.364 324.904282,85.854 324.904282,81.018 L324.904282,46.308 Z M148.858282,46.308 L138.172282,46.308 L138.172282,102 L147.298282,102 L147.298282,63.624 L147.610282,63.624 L163.990282,102 L171.868282,102 L188.248282,63.624 L188.560282,63.624 L188.560282,102 L197.686282,102 L197.686282,46.308 L187.000282,46.308 L168.124282,89.988 L167.812282,89.988 L148.858282,46.308 Z M248.776282,46.308 L208.606282,46.308 L208.606282,102 L250.102282,102 L250.102282,94.2 L217.732282,94.2 L217.732282,77.352 L246.904282,77.352 L246.904282,69.552 L217.732282,69.552 L217.732282,54.108 L248.776282,54.108 L248.776282,46.308 Z M267.808282,46.308 L258.682282,46.308 L258.682282,102 L267.808282,102 L267.808282,61.284 L268.120282,61.284 L295.966282,102 L304.858282,102 L304.858282,46.308 L295.654282,46.308 L295.654282,86.478 L295.342282,86.478 L267.808282,46.308 Z">
            </path>
        </clipPath>
    </defs>
    <g clip-path="url(#i0)">
        <g transform="translate(-0.7122817507993204 176.00000000000006)">
            <g clip-path="url(#i1)">
                <polygon points="0.712281751,0 500.712282,0 500.712282,147 0.712281751,147 0.712281751,0" stroke="none"
                    fill="#FFFFFF"></polygon>
            </g>
        </g>
    </g>
</svg>