<?xml version="1.0" encoding="UTF-8"?><svg version="1.1" width="500px" height="500px" viewBox="0 0 500.0 500.0" xmlns="http://www.w3.org/2000/svg" xmlns:xlink="http://www.w3.org/1999/xlink"><defs><clipPath id="i0"><path d="M500,0 L500,500 L0,500 L0,0 L500,0 Z"></path></clipPath><clipPath id="i1"><path d="M52.3556593,0.0150128017 L165.7197,0.0150128017 C180.459156,1.18200488 189.861141,5.18723002 197.103928,11.2819273 C204.346715,17.3766246 209.664351,25.3109407 211.495364,42.0670887 C215.528296,128.527327 206.04865,113.482433 217.915495,221.339083 C229.78234,329.195733 274.431502,395.103754 259.563308,428.162135 C251.478665,446.118246 234.722207,454.64438 217.915495,456.967501 C201.108783,459.290623 157.591624,456.967501 96.0990835,456.967501 C91.1780955,456.967501 79.3312687,452.815079 69.2473366,444.228775 C59.1634045,435.642472 27.2353045,375.785196 11.0078538,242.099275 C-5.21959696,108.413354 -5.07638407,33.787598 22.0771598,11.2819273 C30.224839,3.48627583 40.3176722,-0.269362347 52.3556593,0.0150128017 Z M72.1721676,190.518852 L45.6291988,190.518852 L45.6291988,276.417289 L113.597949,276.417289 L113.597949,255.264946 L72.1721676,255.264946 L72.1721676,190.518852 Z M183.61748,189.054008 L162.816699,189.054008 L119.340136,240.733696 L119.340136,260.362602 L162.816699,260.362602 L162.816699,276.417289 L183.61748,276.417289 L183.61748,260.362602 L194.39873,260.362602 L194.39873,241.846977 L183.61748,241.846977 L183.61748,189.054008 Z M162.816699,214.835258 L162.816699,241.846977 L139.847949,241.846977 L162.816699,214.835258 Z"></path></clipPath></defs><g clip-path="url(#i0)"><g transform="translate(119.15986365872303 20.582710624142237)"><g clip-path="url(#i1)"><polygon points="-6.18403926e-17,-4.34233625e-16 262.561602,-4.34233625e-16 262.561602,458 -6.18403926e-17,458 -6.18403926e-17,-4.34233625e-16" stroke="none" fill="#FFFFFF"></polygon></g><path d="M52.3556593,0.0150128017 L165.7197,0.0150128017 C180.459156,1.18200488 189.861141,5.18723002 197.103928,11.2819273 C204.346715,17.3766246 209.664351,25.3109407 211.495364,42.0670887 C215.528296,128.527327 206.04865,113.482433 217.915495,221.339083 C229.78234,329.195733 274.431502,395.103754 259.563308,428.162135 C251.478665,446.118246 234.722207,454.64438 217.915495,456.967501 C201.108783,459.290623 157.591624,456.967501 96.0990835,456.967501 C91.1780955,456.967501 79.3312687,452.815079 69.2473366,444.228775 C59.1634045,435.642472 27.2353045,375.785196 11.0078538,242.099275 C-5.21959696,108.413354 -5.07638407,33.787598 22.0771598,11.2819273 C30.224839,3.48627583 40.3176722,-0.269362347 52.3556593,0.0150128017 Z M72.1721676,190.518852 L45.6291988,190.518852 L45.6291988,276.417289 L113.597949,276.417289 L113.597949,255.264946 L72.1721676,255.264946 L72.1721676,190.518852 Z M183.61748,189.054008 L162.816699,189.054008 L119.340136,240.733696 L119.340136,260.362602 L162.816699,260.362602 L162.816699,276.417289 L183.61748,276.417289 L183.61748,260.362602 L194.39873,260.362602 L194.39873,241.846977 L183.61748,241.846977 L183.61748,189.054008 Z M162.816699,214.835258 L162.816699,241.846977 L139.847949,241.846977 L162.816699,214.835258 Z" stroke="#FFFFFF" stroke-width="1" fill="none" stroke-miterlimit="10"></path></g></g></svg>