<?xml version="1.0" encoding="UTF-8"?><svg version="1.1" width="500px" height="500px" viewBox="0 0 500.0 500.0" xmlns="http://www.w3.org/2000/svg" xmlns:xlink="http://www.w3.org/1999/xlink"><defs><clipPath id="i0"><path d="M500,0 L500,500 L0,500 L0,0 L500,0 Z"></path></clipPath><clipPath id="i1"><path d="M386.07614,-11 C448.993716,-11 500,39.2084596 500,101.143975 C500,163.07949 448.993716,213.28795 386.07614,213.28795 L113.92402,213.28795 C51.0054829,213.28795 0,163.07949 0,101.143975 C0,39.2084596 51.0054829,-11 113.92402,-11 L386.07614,-11 Z M233.96,79.28 C224.72,79.28 217.4,82.4 212.12,88.76 C206.6,95 203.96,102.68 203.96,111.92 C203.96,122.24 206.84,130.28 212.6,136.16 C218,141.8 225.32,144.68 234.56,144.68 C242.84,144.68 249.68,142.28 255.2,137.6 C259.52,133.76 262.4,128.84 263.84,123.08 L250.16,123.08 C248.48,126.56 246.68,129.08 244.64,130.64 C242,132.56 238.64,133.52 234.44,133.52 C229.52,133.52 225.68,131.96 223.04,128.96 C220.4,125.96 218.84,121.52 218.36,115.76 L264.8,115.76 C264.8,104.6 262.28,95.84 257.36,89.6 C251.96,82.64 244.16,79.28 233.96,79.28 Z M359,80.96 L345.32,80.96 L345.32,119.6 C345.32,136.28 352.76,144.68 367.64,144.68 C375.32,144.68 381.8,141.44 387.08,134.96 L387.08,143 L400.76,143 L400.76,80.96 L387.08,80.96 L387.08,118.88 C385.88,123.32 383.84,126.8 381.08,129.44 C378.32,131.96 375.44,133.28 372.44,133.28 C367.64,133.28 364.28,132.08 362.12,129.8 C359.96,127.4 359,123.8 359,118.76 L359,80.96 Z M116.84,57.32 L100.4,57.32 L100.4,143 L114.44,143 L114.44,83.96 L114.92,83.96 L140.12,143 L152.24,143 L177.44,83.96 L177.92,83.96 L177.92,143 L191.96,143 L191.96,57.32 L175.52,57.32 L146.48,124.52 L146,124.52 L116.84,57.32 Z M307.64,79.28 C303.92,79.28 300.56,80 297.44,81.56 C294.44,83 291.68,85.28 289.28,88.16 L289.28,80.96 L275.6,80.96 L275.6,143 L289.28,143 L289.28,105.68 C289.76,100.76 291.44,96.92 294.32,94.28 C296.84,91.88 299.84,90.68 303.2,90.68 C312.56,90.68 317.24,95.72 317.24,105.92 L317.24,143 L330.92,143 L330.92,104.72 C330.92,87.68 323.12,79.28 307.64,79.28 Z M234.32,90.44 C243.92,90.44 249.32,95.36 250.52,105.44 L218.6,105.44 C219.44,100.52 221.12,96.8 223.64,94.28 C226.28,91.64 229.76,90.44 234.32,90.44 Z"></path></clipPath></defs><g clip-path="url(#i0)"><g transform="translate(0.0 150.0)"><g clip-path="url(#i1)"><polygon points="0,-11 500,-11 500,213.28795 0,213.28795 0,-11" stroke="none" fill="#FFFFFF"></polygon></g></g></g></svg>