<?xml version="1.0" encoding="UTF-8"?><svg version="1.1" width="500px" height="500px" viewBox="0 0 500.0 500.0" xmlns="http://www.w3.org/2000/svg" xmlns:xlink="http://www.w3.org/1999/xlink"><defs><clipPath id="i0"><path d="M500,0 L500,500 L0,500 L0,0 L500,0 Z"></path></clipPath><clipPath id="i1"><path d="M386.07614,-11 C448.993716,-11 500,39.2084596 500,101.143975 C500,163.07949 448.993716,213.28795 386.07614,213.28795 L113.92402,213.28795 C51.0054829,213.28795 0,163.07949 0,101.143975 C0,39.2084596 51.0054829,-11 113.92402,-11 L386.07614,-11 Z M149.64,55.64 C140.4,55.64 132.84,57.68 126.84,61.88 C120.36,66.2 117.24,72.2 117.24,79.76 C117.24,87.32 120.48,93.08 127.08,97.04 C129.6,98.48 136.2,100.88 146.76,104.24 C156.24,107.12 161.76,109.04 163.44,109.88 C168.72,112.52 171.48,116.12 171.48,120.68 C171.48,124.28 169.56,127.04 165.96,129.2 C162.36,131.24 157.32,132.32 151.08,132.32 C144,132.32 138.84,131 135.48,128.6 C131.76,125.84 129.48,121.16 128.52,114.68 L114.6,114.68 C115.2,125.6 119.16,133.52 126.36,138.56 C132.24,142.64 140.52,144.68 151.08,144.68 C162,144.68 170.52,142.4 176.52,138.08 C182.52,133.64 185.52,127.52 185.52,119.84 C185.52,111.92 181.8,105.8 174.36,101.36 C171,99.44 163.56,96.56 151.92,92.96 C144,90.44 139.08,88.64 137.28,87.68 C133.2,85.52 131.28,82.52 131.28,78.92 C131.28,74.84 132.96,71.84 136.56,70.04 C139.44,68.48 143.52,67.76 148.92,67.76 C155.16,67.76 159.96,68.84 163.08,71.24 C166.2,73.52 168.48,77.36 169.68,82.64 L183.6,82.64 C182.76,73.28 179.28,66.32 173.28,61.88 C167.64,57.68 159.72,55.64 149.64,55.64 Z M267.96,79.28 C260.04,79.28 253.8,80.6 249.24,83.48 C243.84,86.6 240.48,91.64 239.16,98.48 L252.72,99.56 C253.44,96.32 255.24,93.92 257.88,92.36 C260.16,90.92 263.16,90.32 267,90.32 C275.88,90.32 280.32,94.28 280.32,102.44 L280.32,104.84 L266.76,105.2 C257.64,105.44 250.56,107.36 245.52,110.96 C240,114.68 237.36,120.08 237.36,127.04 C237.36,132.2 239.28,136.4 243.12,139.76 C246.84,143 251.88,144.68 258.36,144.68 C263.76,144.68 268.44,143.72 272.4,141.92 C275.88,140.24 278.88,137.96 281.28,134.84 L281.28,143 L294,143 L294,103.4 C294,95.84 292.08,90.08 288.24,86.12 C283.92,81.56 277.08,79.28 267.96,79.28 Z M215.76,60.92 L202.08,66.56 L202.08,80.96 L190.92,80.96 L190.92,92.24 L202.08,92.24 L202.08,127.28 C202.08,132.32 203.28,136.04 205.68,138.68 C208.2,141.56 212.16,143 217.56,143 L228,143 L228,131.72 L219.84,131.72 C218.4,131.72 217.44,131.36 216.72,130.64 C216,129.8 215.76,128.72 215.76,127.28 L215.76,92.24 L229.56,92.24 L229.56,80.96 L215.76,80.96 L215.76,60.92 Z M337.68,79.28 C333.84,79.28 330.6,80.36 327.84,82.64 C325.56,84.32 323.64,86.72 321.96,89.84 L321.96,80.96 L308.4,80.96 L308.4,143 L321.96,143 L321.96,110.12 C321.96,104.84 323.52,100.64 326.88,97.4 C329.76,94.52 333,93.2 336.6,93.2 C339.48,93.2 342.36,93.56 345.48,94.52 L345.48,80.84 C343.32,79.76 340.68,79.28 337.68,79.28 Z M372.72,60.92 L359.04,66.56 L359.04,80.96 L347.88,80.96 L347.88,92.24 L359.04,92.24 L359.04,127.28 C359.04,132.32 360.24,136.04 362.64,138.68 C365.16,141.56 369.12,143 374.52,143 L384.96,143 L384.96,131.72 L376.8,131.72 C375.36,131.72 374.4,131.36 373.68,130.64 C372.96,129.8 372.72,128.72 372.72,127.28 L372.72,92.24 L386.52,92.24 L386.52,80.96 L372.72,80.96 L372.72,60.92 Z M280.32,114.68 L280.32,117.8 C280.32,122.6 278.4,126.56 274.8,129.68 C271.2,132.68 266.76,134.24 261.48,134.24 C258.48,134.24 256.08,133.4 254.16,131.96 C252.24,130.52 251.4,128.72 251.4,126.56 C251.4,119.12 256.8,115.28 267.72,115.04 L280.32,114.68 Z"></path></clipPath></defs><g clip-path="url(#i0)"><g transform="translate(-1.0 150.0)"><g clip-path="url(#i1)"><polygon points="1,-11 500,-11 500,213.28795 1,213.28795 1,-11" stroke="none" fill="#FFFFFF"></polygon></g></g></g></svg>