<?xml version="1.0" encoding="UTF-8"?><svg version="1.1" width="980px" height="624px" viewBox="0 0 980.0 624.0" xmlns="http://www.w3.org/2000/svg" xmlns:xlink="http://www.w3.org/1999/xlink"><defs><clipPath id="i0"><path d="M1063,0 L1063,638 L0,638 L0,0 L1063,0 Z"></path></clipPath><clipPath id="i1"><path d="M208,0 C212.418278,-8.11624501e-16 216,3.581722 216,8 L216,166 C216,170.418278 212.418278,174 208,174 L8,174 C3.581722,174 2.705415e-16,170.418278 0,166 L0,8 C-5.41083001e-16,3.581722 3.581722,5.41083001e-16 8,0 L208,0 Z"></path></clipPath><clipPath id="i2"><path d="M29,0 C45.0162577,-2.94213882e-15 58,12.9837423 58,29 C58,45.0162577 45.0162577,58 29,58 C12.9837423,58 9.80712939e-16,45.0162577 0,29 C-1.96142588e-15,12.9837423 12.9837423,1.96142588e-15 29,0 Z"></path></clipPath><clipPath id="i3"><path d="M185,0 C222.003078,-6.7973552e-15 252,29.9969218 252,67 C252,104.003078 222.003078,134 185,134 L67,134 C29.9969218,134 2.26578507e-15,104.003078 0,67 C-4.53157013e-15,29.9969218 29.9969218,4.53157013e-15 67,0 L185,0 Z"></path></clipPath><clipPath id="i4"><path d="M58,0 C88.927946,-5.68137151e-15 114,25.072054 114,56 L114,58 C114,88.927946 88.927946,114 58,114 L56,114 C25.072054,114 1.8937905e-15,88.927946 0,58 L0,56 C-3.78758101e-15,25.072054 25.072054,3.78758101e-15 56,0 L58,0 Z"></path></clipPath><clipPath id="i5"><path d="M17,0 C26.3888407,-1.72470207e-15 34,7.61115925 34,17 C34,26.3888407 26.3888407,34 17,34 C7.61115925,34 5.74900688e-16,26.3888407 0,17 C-1.14980138e-15,7.61115925 7.61115925,1.14980138e-15 17,0 Z"></path></clipPath><clipPath id="i6"><path d="M30,0 C35.5228475,-1.01453063e-15 40,4.4771525 40,10 C40,15.5228475 35.5228475,20 30,20 L10,20 C4.4771525,20 3.38176876e-16,15.5228475 0,10 C-6.76353751e-16,4.4771525 4.4771525,6.76353751e-16 10,0 L30,0 Z"></path></clipPath><clipPath id="i7"><path d="M3,0 C4.65685425,-3.04359188e-16 6,1.34314575 6,3 L6,9 C6,10.6568542 4.65685425,12 3,12 C1.34314575,12 1.01453063e-16,10.6568542 0,9 L0,3 C-2.02906125e-16,1.34314575 1.34314575,2.02906125e-16 3,0 Z M13,0 C14.6568542,-3.04359188e-16 16,1.34314575 16,3 L16,9 C16,10.6568542 14.6568542,12 13,12 C11.3431458,12 10,10.6568542 10,9 L10,3 C10,1.34314575 11.3431458,2.02906125e-16 13,0 Z M23,0 C24.6568542,-3.04359188e-16 26,1.34314575 26,3 L26,9 C26,10.6568542 24.6568542,12 23,12 C21.3431458,12 20,10.6568542 20,9 L20,3 C20,1.34314575 21.3431458,2.02906125e-16 23,0 Z"></path></clipPath><clipPath id="i8"><path d="M3,0 C4.65685425,0 6,1.34314575 6,3 C6,4.65685425 4.65685425,6 3,6 C1.34314575,6 0,4.65685425 0,3 C0,1.34314575 1.34314575,0 3,0 Z"></path></clipPath></defs><g transform="translate(-41.0 -7.0)"><g clip-path="url(#i0)"><g transform="translate(42.0 8.0)"><g transform="translate(111.0 164.0)"><path d="M8,0 L750,0 C754.418278,-8.11624501e-16 758,3.581722 758,8 L758,436 C758,448.150264 748.150264,458 736,458 L22,458 C9.8497355,458 1.49548438e-14,448.150264 0,436 L0,8 C-5.41083001e-16,3.581722 3.581722,-6.56434436e-15 8,0 Z" stroke="#FEFEFE" stroke-width="2" fill="none" stroke-miterlimit="10"></path><g transform="translate(0.0 199.0)"><path d="M0.5,0.5 L758,1" stroke="#FEFEFE" stroke-width="2" fill="none" stroke-linecap="square" stroke-miterlimit="10"></path></g><g transform="translate(283.0 451.0)"><path d="M0,1 L188,1" stroke="#FEFEFE" stroke-width="2" fill="none" stroke-linecap="square" stroke-miterlimit="10"></path></g><g transform="translate(471.0 452.0)"><path d="M0,0 C3.83780551,0 6.83780551,0.7315305 9,2.1945915 L14.2422025,6" stroke="#FEFEFE" stroke-width="2" fill="none" stroke-miterlimit="10"></path></g><g transform="translate(285.24220251104634 452.0) scale(-1.0 1.0)"><path d="M0,0 C3.83780551,0 6.83780551,0.7315305 9,2.1945915 L14.2422025,6" stroke="#FEFEFE" stroke-width="2" fill="none" stroke-miterlimit="10"></path></g><g transform="translate(271.0 11.0)"><g clip-path="url(#i1)"><path d="M8,0 L208,0 C212.418278,-8.11624501e-16 216,3.581722 216,8 L216,166 C216,170.418278 212.418278,174 208,174 L8,174 C3.581722,174 2.705415e-16,170.418278 0,166 L0,8 C-5.41083001e-16,3.581722 3.581722,5.41083001e-16 8,0 Z" stroke="#FEFEFE" stroke-width="4" fill="none" stroke-miterlimit="5"></path></g></g><g transform="translate(0.0 193.0)"><path d="M0.5,0.5 L758.5,0.5" stroke="#FEFEFE" stroke-width="2" fill="none" stroke-linecap="square" stroke-miterlimit="10"></path></g></g><g transform="translate(120.0 192.0)"><g transform="translate(37.0 38.0)"><g clip-path="url(#i2)"><path d="M29,0 C45.0162577,-2.94213882e-15 58,12.9837423 58,29 C58,45.0162577 45.0162577,58 29,58 C12.9837423,58 9.80712939e-16,45.0162577 0,29 C-1.96142588e-15,12.9837423 12.9837423,1.96142588e-15 29,0 Z" stroke="#FEFEFE" stroke-width="4" fill="none" stroke-miterlimit="5"></path></g></g><g transform="translate(644.0 38.0)"><g clip-path="url(#i2)"><path d="M29,0 C45.0162577,-2.94213882e-15 58,12.9837423 58,29 C58,45.0162577 45.0162577,58 29,58 C12.9837423,58 9.80712939e-16,45.0162577 0,29 C-1.96142588e-15,12.9837423 12.9837423,1.96142588e-15 29,0 Z" stroke="#FEFEFE" stroke-width="4" fill="none" stroke-miterlimit="5"></path></g></g><g clip-path="url(#i3)"><path d="M67,0 L185,0 C222.003078,-6.7973552e-15 252,29.9969218 252,67 C252,104.003078 222.003078,134 185,134 L67,134 C29.9969218,134 2.26578507e-15,104.003078 0,67 C-4.53157013e-15,29.9969218 29.9969218,4.53157013e-15 67,0 Z" stroke="#FEFEFE" stroke-width="4" fill="none" stroke-miterlimit="5"></path></g><g transform="translate(488.0 0.0)"><g clip-path="url(#i3)"><path d="M67,0 L185,0 C222.003078,-6.7973552e-15 252,29.9969218 252,67 C252,104.003078 222.003078,134 185,134 L67,134 C29.9969218,134 2.26578507e-15,104.003078 0,67 C-4.53157013e-15,29.9969218 29.9969218,4.53157013e-15 67,0 Z" stroke="#FEFEFE" stroke-width="4" fill="none" stroke-miterlimit="5"></path></g></g><g transform="translate(11.0 10.0)"><g clip-path="url(#i4)"><path d="M56,0 L58,0 C88.927946,-5.68137151e-15 114,25.072054 114,56 L114,58 C114,88.927946 88.927946,114 58,114 L56,114 C25.072054,114 1.8937905e-15,88.927946 0,58 L0,56 C-3.78758101e-15,25.072054 25.072054,3.78758101e-15 56,0 Z" stroke="#FEFEFE" stroke-width="4" fill="none" stroke-miterlimit="5"></path></g></g><g transform="translate(615.0 10.0)"><g clip-path="url(#i4)"><path d="M56,0 L58,0 C88.927946,-5.68137151e-15 114,25.072054 114,56 L114,58 C114,88.927946 88.927946,114 58,114 L56,114 C25.072054,114 1.8937905e-15,88.927946 0,58 L0,56 C-3.78758101e-15,25.072054 25.072054,3.78758101e-15 56,0 Z" stroke="#FEFEFE" stroke-width="4" fill="none" stroke-miterlimit="5"></path></g></g><g transform="translate(502.0 50.0)"><g clip-path="url(#i5)"><path d="M17,0 C26.3888407,-1.72470207e-15 34,7.61115925 34,17 C34,26.3888407 26.3888407,34 17,34 C7.61115925,34 5.74900688e-16,26.3888407 0,17 C-1.14980138e-15,7.61115925 7.61115925,1.14980138e-15 17,0 Z" stroke="#FEFEFE" stroke-width="4" fill="none" stroke-miterlimit="5"></path></g></g><g transform="translate(572.0 50.0)"><g clip-path="url(#i5)"><path d="M17,0 C26.3888407,-1.72470207e-15 34,7.61115925 34,17 C34,26.3888407 26.3888407,34 17,34 C7.61115925,34 5.74900688e-16,26.3888407 0,17 C-1.14980138e-15,7.61115925 7.61115925,1.14980138e-15 17,0 Z" stroke="#FEFEFE" stroke-width="4" fill="none" stroke-miterlimit="5"></path></g></g><g transform="translate(537.0 16.0)"><g clip-path="url(#i5)"><path d="M17,0 C26.3888407,-1.72470207e-15 34,7.61115925 34,17 C34,26.3888407 26.3888407,34 17,34 C7.61115925,34 5.74900688e-16,26.3888407 0,17 C-1.14980138e-15,7.61115925 7.61115925,1.14980138e-15 17,0 Z" stroke="#FEFEFE" stroke-width="4" fill="none" stroke-miterlimit="5"></path></g></g><g transform="translate(537.0 85.0)"><g clip-path="url(#i5)"><path d="M17,0 C26.3888407,-1.72470207e-15 34,7.61115925 34,17 C34,26.3888407 26.3888407,34 17,34 C7.61115925,34 5.74900688e-16,26.3888407 0,17 C-1.14980138e-15,7.61115925 7.61115925,1.14980138e-15 17,0 Z" stroke="#FEFEFE" stroke-width="4" fill="none" stroke-miterlimit="5"></path></g></g><g transform="translate(170.37460043998394 111.36271638035588) rotate(-90.00000000000001)"><path d="M2.8951371,0 L24.8224145,0 C32.9466946,7.08140743 37.0088346,12.1286411 37.0088346,15.1417009 C37.0088346,18.1547608 32.9466946,23.2019944 24.8224145,30.2834018 L2.8951371,30.2834018 C0.965045699,25.9350527 0,20.887819 0,15.1417009 C0,9.39558283 0.965045699,4.34834919 2.8951371,0 Z" stroke="#FEFEFE" stroke-width="2" fill="none" stroke-miterlimit="10"></path></g><g transform="translate(200.6580022799312 24.353881779696156) rotate(90.0)"><path d="M2.8951371,0 L24.8224145,0 C32.9466946,7.08140743 37.0088346,12.1286411 37.0088346,15.1417009 C37.0088346,18.1547608 32.9466946,23.2019944 24.8224145,30.2834018 L2.8951371,30.2834018 C0.965045699,25.9350527 0,20.887819 0,15.1417009 C0,9.39558283 0.965045699,4.34834919 2.8951371,0 Z" stroke="#FEFEFE" stroke-width="2" fill="none" stroke-miterlimit="10"></path></g><g transform="translate(231.02071866028743 53.71659816005239) scale(-1.0 1.0)"><path d="M2.8951371,0 L24.8224145,0 C32.9466946,7.08140743 37.0088346,12.1286411 37.0088346,15.1417009 C37.0088346,18.1547608 32.9466946,23.2019944 24.8224145,30.2834018 L2.8951371,30.2834018 C0.965045699,25.9350527 0,20.887819 0,15.1417009 C0,9.39558283 0.965045699,4.34834919 2.8951371,0 Z" stroke="#FEFEFE" stroke-width="2" fill="none" stroke-miterlimit="10"></path></g><g transform="translate(140.0118840596276 53.71659816005239)"><path d="M2.8951371,0 L24.8224145,0 C32.9466946,7.08140743 37.0088346,12.1286411 37.0088346,15.1417009 C37.0088346,18.1547608 32.9466946,23.2019944 24.8224145,30.2834018 L2.8951371,30.2834018 C0.965045699,25.9350527 0,20.887819 0,15.1417009 C0,9.39558283 0.965045699,4.34834919 2.8951371,0 Z" stroke="#FEFEFE" stroke-width="2" fill="none" stroke-miterlimit="10"></path></g></g><g transform="translate(143.0 376.0)"><path d="M12,0 L682,0 C688.627417,-1.21743675e-15 694,5.372583 694,12 L694,209 C694,215.627417 688.627417,221 682,221 L12,221 C5.372583,221 1.81693806e-14,215.627417 0,209 L0,12 C2.74108918e-15,5.372583 5.372583,6.14069502e-15 12,0 Z" stroke="#FDFDFD" stroke-width="2" fill="none" stroke-miterlimit="10"></path><g transform="translate(0.0 38.0)"><path d="M0,1 L694,1" stroke="#FDFDFD" stroke-width="2" fill="none" stroke-linecap="square" stroke-miterlimit="10"></path></g><g transform="translate(0.0 73.0)"><path d="M0,1 L694,1" stroke="#FDFDFD" stroke-width="2" fill="none" stroke-linecap="square" stroke-miterlimit="10"></path></g><g transform="translate(0.0 108.0)"><path d="M0,1 L694,1" stroke="#FDFDFD" stroke-width="2" fill="none" stroke-linecap="square" stroke-miterlimit="10"></path></g><g transform="translate(0.0 143.0)"><path d="M0,1 L694,1" stroke="#FDFDFD" stroke-width="2" fill="none" stroke-linecap="square" stroke-miterlimit="10"></path></g><g transform="translate(0.0 178.0)"><path d="M0,1 L694,1" stroke="#FDFDFD" stroke-width="2" fill="none" stroke-linecap="square" stroke-miterlimit="10"></path></g><g transform="translate(44.0 0.0)"><path d="M0.5,0.5 L1,74" stroke="#FDFDFD" stroke-width="2" fill="none" stroke-linecap="square" stroke-miterlimit="10"></path></g><g transform="translate(177.0 2.0)"><path d="M1,0 L1,72" stroke="#FDFDFD" stroke-width="2" fill="none" stroke-linecap="square" stroke-miterlimit="10"></path></g><g transform="translate(131.0 0.0)"><path d="M0.5,0.5 L1,74" stroke="#FDFDFD" stroke-width="2" fill="none" stroke-linecap="square" stroke-miterlimit="10"></path></g><g transform="translate(86.0 0.0)"><path d="M0.5,0.5 L0.5,74.5" stroke="#FDFDFD" stroke-width="2" fill="none" stroke-linecap="square" stroke-miterlimit="10"></path></g><g transform="translate(222.0 1.0)"><path d="M0.5,0.5 L1,73" stroke="#FDFDFD" stroke-width="2" fill="none" stroke-linecap="square" stroke-miterlimit="10"></path></g><g transform="translate(312.0 1.0)"><path d="M0.5,0.5 L1,73" stroke="#FDFDFD" stroke-width="2" fill="none" stroke-linecap="square" stroke-miterlimit="10"></path></g><g transform="translate(268.0 2.0)"><path d="M0.5,0.5 L1,72" stroke="#FDFDFD" stroke-width="2" fill="none" stroke-linecap="square" stroke-miterlimit="10"></path></g><g transform="translate(382.0 0.0)"><path d="M0.5,0.5 L0.5,37.5" stroke="#FDFDFD" stroke-width="2" fill="none" stroke-linecap="square" stroke-miterlimit="10"></path></g><g transform="translate(64.0 74.0)"><path d="M1,0 L1,35" stroke="#FDFDFD" stroke-width="2" fill="none" stroke-linecap="square" stroke-miterlimit="10"></path></g><g transform="translate(109.0 74.0)"><path d="M1,0 L1,35" stroke="#FDFDFD" stroke-width="2" fill="none" stroke-linecap="square" stroke-miterlimit="10"></path></g><g transform="translate(109.0 144.0)"><path d="M1,0 L1,35" stroke="#FDFDFD" stroke-width="2" fill="none" stroke-linecap="square" stroke-miterlimit="10"></path></g><g transform="translate(152.0 74.0)"><path d="M1,0 L1,35" stroke="#FDFDFD" stroke-width="2" fill="none" stroke-linecap="square" stroke-miterlimit="10"></path></g><g transform="translate(152.0 144.0)"><path d="M1,0 L1,35" stroke="#FDFDFD" stroke-width="2" fill="none" stroke-linecap="square" stroke-miterlimit="10"></path></g><g transform="translate(198.0 74.0)"><path d="M1,0 L1,35" stroke="#FDFDFD" stroke-width="2" fill="none" stroke-linecap="square" stroke-miterlimit="10"></path></g><g transform="translate(131.0 109.0)"><path d="M1,0 L1,35" stroke="#FDFDFD" stroke-width="2" fill="none" stroke-linecap="square" stroke-miterlimit="10"></path></g><g transform="translate(177.0 109.0)"><path d="M1,0 L1,35" stroke="#FDFDFD" stroke-width="2" fill="none" stroke-linecap="square" stroke-miterlimit="10"></path></g><g transform="translate(222.0 109.0)"><path d="M1,0 L1,35" stroke="#FDFDFD" stroke-width="2" fill="none" stroke-linecap="square" stroke-miterlimit="10"></path></g><g transform="translate(268.0 109.0)"><path d="M1,0 L1,35" stroke="#FDFDFD" stroke-width="2" fill="none" stroke-linecap="square" stroke-miterlimit="10"></path></g><g transform="translate(312.0 109.0)"><path d="M1,0 L1,35" stroke="#FDFDFD" stroke-width="2" fill="none" stroke-linecap="square" stroke-miterlimit="10"></path></g><g transform="translate(356.0 109.0)"><path d="M1,0 L1,35" stroke="#FDFDFD" stroke-width="2" fill="none" stroke-linecap="square" stroke-miterlimit="10"></path></g><g transform="translate(403.0 109.0)"><path d="M1,0 L1,35" stroke="#FDFDFD" stroke-width="2" fill="none" stroke-linecap="square" stroke-miterlimit="10"></path></g><g transform="translate(447.0 109.0)"><path d="M1,0 L1,35" stroke="#FDFDFD" stroke-width="2" fill="none" stroke-linecap="square" stroke-miterlimit="10"></path></g><g transform="translate(491.0 109.0)"><path d="M1,0 L1,35" stroke="#FDFDFD" stroke-width="2" fill="none" stroke-linecap="square" stroke-miterlimit="10"></path></g><g transform="translate(535.0 109.0)"><path d="M1,0 L1,35" stroke="#FDFDFD" stroke-width="2" fill="none" stroke-linecap="square" stroke-miterlimit="10"></path></g><g transform="translate(578.0 109.0)"><path d="M1,0 L1,35" stroke="#FDFDFD" stroke-width="2" fill="none" stroke-linecap="square" stroke-miterlimit="10"></path></g><g transform="translate(131.0 179.0)"><path d="M1,0 L1,42" stroke="#FDFDFD" stroke-width="2" fill="none" stroke-linecap="square" stroke-miterlimit="10"></path></g><g transform="translate(176.0 179.0)"><path d="M1.5,0 L1.5,42" stroke="#FDFDFD" stroke-width="2" fill="none" stroke-linecap="square" stroke-miterlimit="10"></path></g><g transform="translate(89.0 179.0)"><path d="M1,0 L1,42" stroke="#FDFDFD" stroke-width="2" fill="none" stroke-linecap="square" stroke-miterlimit="10"></path></g><g transform="translate(44.0 179.0)"><path d="M1,0 L1,42" stroke="#FDFDFD" stroke-width="2" fill="none" stroke-linecap="square" stroke-miterlimit="10"></path></g><g transform="translate(86.0 109.0)"><path d="M1,0 L1,35" stroke="#FDFDFD" stroke-width="2" fill="none" stroke-linecap="square" stroke-miterlimit="10"></path></g><g transform="translate(198.0 144.0)"><path d="M1,0 L1,35" stroke="#FDFDFD" stroke-width="2" fill="none" stroke-linecap="square" stroke-miterlimit="10"></path></g><g transform="translate(245.0 74.0)"><path d="M1,0 L1,35" stroke="#FDFDFD" stroke-width="2" fill="none" stroke-linecap="square" stroke-miterlimit="10"></path></g><g transform="translate(245.0 144.0)"><path d="M1,0 L1,35" stroke="#FDFDFD" stroke-width="2" fill="none" stroke-linecap="square" stroke-miterlimit="10"></path></g><g transform="translate(289.0 74.0)"><path d="M1,0 L1,35" stroke="#FDFDFD" stroke-width="2" fill="none" stroke-linecap="square" stroke-miterlimit="10"></path></g><g transform="translate(289.0 144.0)"><path d="M1,0 L1,35" stroke="#FDFDFD" stroke-width="2" fill="none" stroke-linecap="square" stroke-miterlimit="10"></path></g><g transform="translate(334.0 74.0)"><path d="M1,0 L1,35" stroke="#FDFDFD" stroke-width="2" fill="none" stroke-linecap="square" stroke-miterlimit="10"></path></g><g transform="translate(334.0 144.0)"><path d="M1,0 L1,35" stroke="#FDFDFD" stroke-width="2" fill="none" stroke-linecap="square" stroke-miterlimit="10"></path></g><g transform="translate(379.0 74.0)"><path d="M1,0 L1,35" stroke="#FDFDFD" stroke-width="2" fill="none" stroke-linecap="square" stroke-miterlimit="10"></path></g><g transform="translate(379.0 144.0)"><path d="M1,0 L1,35" stroke="#FDFDFD" stroke-width="2" fill="none" stroke-linecap="square" stroke-miterlimit="10"></path></g><g transform="translate(470.0 74.0)"><path d="M1,0 L1,35" stroke="#FDFDFD" stroke-width="2" fill="none" stroke-linecap="square" stroke-miterlimit="10"></path></g><g transform="translate(470.0 144.0)"><path d="M1,0 L1,77" stroke="#FDFDFD" stroke-width="2" fill="none" stroke-linecap="square" stroke-miterlimit="10"></path></g><g transform="translate(514.0 74.0)"><path d="M1,0 L1,35" stroke="#FDFDFD" stroke-width="2" fill="none" stroke-linecap="square" stroke-miterlimit="10"></path></g><g transform="translate(514.0 144.0)"><path d="M1,0 L1,77" stroke="#FDFDFD" stroke-width="2" fill="none" stroke-linecap="square" stroke-miterlimit="10"></path></g><g transform="translate(558.0 74.0)"><path d="M1,0 L1,35" stroke="#FDFDFD" stroke-width="2" fill="none" stroke-linecap="square" stroke-miterlimit="10"></path></g><g transform="translate(558.0 144.0)"><path d="M1,0 L1,77" stroke="#FDFDFD" stroke-width="2" fill="none" stroke-linecap="square" stroke-miterlimit="10"></path></g><g transform="translate(602.0 74.0)"><path d="M1,0 L1,35" stroke="#FDFDFD" stroke-width="2" fill="none" stroke-linecap="square" stroke-miterlimit="10"></path></g><g transform="translate(602.0 144.0)"><path d="M1,0 L1,77" stroke="#FDFDFD" stroke-width="2" fill="none" stroke-linecap="square" stroke-miterlimit="10"></path></g><g transform="translate(426.0 74.0)"><path d="M1,0 L1,35" stroke="#FDFDFD" stroke-width="2" fill="none" stroke-linecap="square" stroke-miterlimit="10"></path></g><g transform="translate(426.0 144.0)"><path d="M1,0 L1,77" stroke="#FDFDFD" stroke-width="2" fill="none" stroke-linecap="square" stroke-miterlimit="10"></path></g><g transform="translate(402.0 39.0)"><path d="M1,0 L1,35" stroke="#FDFDFD" stroke-width="2" fill="none" stroke-linecap="square" stroke-miterlimit="10"></path></g><g transform="translate(449.0 39.0)"><path d="M1,0 L1,35" stroke="#FDFDFD" stroke-width="2" fill="none" stroke-linecap="square" stroke-miterlimit="10"></path></g><g transform="translate(493.0 39.0)"><path d="M1,0 L1,35" stroke="#FDFDFD" stroke-width="2" fill="none" stroke-linecap="square" stroke-miterlimit="10"></path></g><g transform="translate(537.0 39.0)"><path d="M1,0 L1,35" stroke="#FDFDFD" stroke-width="2" fill="none" stroke-linecap="square" stroke-miterlimit="10"></path></g><g transform="translate(582.0 39.0)"><path d="M1,0 L1,35" stroke="#FDFDFD" stroke-width="2" fill="none" stroke-linecap="square" stroke-miterlimit="10"></path></g><g transform="translate(426.0 0.0)"><path d="M0.5,0.5 L0.5,37.5" stroke="#FDFDFD" stroke-width="2" fill="none" stroke-linecap="square" stroke-miterlimit="10"></path></g><g transform="translate(470.0 0.0)"><path d="M0.5,0.5 L0.5,37.5" stroke="#FDFDFD" stroke-width="2" fill="none" stroke-linecap="square" stroke-miterlimit="10"></path></g><g transform="translate(514.0 0.0)"><path d="M0.5,0.5 L0.5,37.5" stroke="#FDFDFD" stroke-width="2" fill="none" stroke-linecap="square" stroke-miterlimit="10"></path></g><g transform="translate(558.0 0.0)"><path d="M0.5,0.5 L0.5,37.5" stroke="#FDFDFD" stroke-width="2" fill="none" stroke-linecap="square" stroke-miterlimit="10"></path></g><g transform="translate(602.0 0.0)"><path d="M0.5,0.5 L0.5,37.5" stroke="#FDFDFD" stroke-width="2" fill="none" stroke-linecap="square" stroke-miterlimit="10"></path></g><g transform="translate(647.0 2.0)"><path d="M0.5,0.5 L1,219" stroke="#FDFDFD" stroke-width="2" fill="none" stroke-linecap="square" stroke-miterlimit="10"></path></g><g transform="translate(357.0 39.0)"><path d="M1,0 L1,35" stroke="#FDFDFD" stroke-width="2" fill="none" stroke-linecap="square" stroke-miterlimit="10"></path></g></g><g transform="translate(178.0 337.0)"><g clip-path="url(#i6)"><path d="M10,0 L30,0 C35.5228475,-1.01453063e-15 40,4.4771525 40,10 C40,15.5228475 35.5228475,20 30,20 L10,20 C4.4771525,20 3.38176876e-16,15.5228475 0,10 C-6.76353751e-16,4.4771525 4.4771525,6.76353751e-16 10,0 Z" stroke="#FDFDFD" stroke-width="4" fill="none" stroke-miterlimit="5"></path></g><g transform="translate(48.0 0.0)"><g clip-path="url(#i6)"><path d="M10,0 L30,0 C35.5228475,-1.01453063e-15 40,4.4771525 40,10 C40,15.5228475 35.5228475,20 30,20 L10,20 C4.4771525,20 3.38176876e-16,15.5228475 0,10 C-6.76353751e-16,4.4771525 4.4771525,6.76353751e-16 10,0 Z" stroke="#FDFDFD" stroke-width="4" fill="none" stroke-miterlimit="5"></path></g></g><g transform="translate(96.0 0.0)"><g clip-path="url(#i6)"><path d="M10,0 L30,0 C35.5228475,-1.01453063e-15 40,4.4771525 40,10 C40,15.5228475 35.5228475,20 30,20 L10,20 C4.4771525,20 3.38176876e-16,15.5228475 0,10 C-6.76353751e-16,4.4771525 4.4771525,6.76353751e-16 10,0 Z" stroke="#FDFDFD" stroke-width="4" fill="none" stroke-miterlimit="5"></path></g></g><g transform="translate(535.0 0.0)"><g clip-path="url(#i6)"><path d="M10,0 L30,0 C35.5228475,-1.01453063e-15 40,4.4771525 40,10 C40,15.5228475 35.5228475,20 30,20 L10,20 C4.4771525,20 3.38176876e-16,15.5228475 0,10 C-6.76353751e-16,4.4771525 4.4771525,6.76353751e-16 10,0 Z" stroke="#FDFDFD" stroke-width="4" fill="none" stroke-miterlimit="5"></path></g></g><g transform="translate(583.0 0.0)"><g clip-path="url(#i6)"><path d="M10,0 L30,0 C35.5228475,-1.01453063e-15 40,4.4771525 40,10 C40,15.5228475 35.5228475,20 30,20 L10,20 C4.4771525,20 3.38176876e-16,15.5228475 0,10 C-6.76353751e-16,4.4771525 4.4771525,6.76353751e-16 10,0 Z" stroke="#FDFDFD" stroke-width="4" fill="none" stroke-miterlimit="5"></path></g></g></g><g transform="translate(30.0 30.0)"><path d="M0,2 L919,0" stroke="#FEFEFE" stroke-width="2" fill="none" stroke-linecap="square" stroke-miterlimit="10"></path><g transform="translate(0.0 2.0)"><path d="M0,0 L91,103" stroke="#FEFEFE" stroke-width="2" fill="none" stroke-linecap="square" stroke-miterlimit="10"></path></g><g transform="translate(918.0 1.0) scale(-1.0 1.0)"><path d="M0,0 L93,104" stroke="#FEFEFE" stroke-width="2" fill="none" stroke-linecap="square" stroke-miterlimit="10"></path></g><g transform="translate(94.0 108.0)"><path d="M0.5,0.5 L727.5,0.5" stroke="#FEFEFE" stroke-width="2" fill="none" stroke-linecap="square" stroke-miterlimit="10"></path></g></g><g transform="translate(25.0 25.0)"><path d="M0,0.5 L928,0.5" stroke="#FEFEFE" stroke-width="2" fill="none" stroke-linecap="square" stroke-miterlimit="10"></path></g><g transform="translate(25.0 0.0)"><path d="M0,0.5 L928,0.5" stroke="#FEFEFE" stroke-width="2" fill="none" stroke-linecap="square" stroke-miterlimit="10"></path></g><g transform="translate(750.0 139.0) scale(-1.0 1.0)"><path d="M2,0 C-0.666666667,7.32429283 -0.666666667,15.6576262 2,25" stroke="#FEFEFE" stroke-width="2" fill="none" stroke-miterlimit="10"></path></g><g transform="translate(228.0 139.0)"><path d="M2,0 C-0.666666667,7.32429283 -0.666666667,15.6576262 2,25" stroke="#FEFEFE" stroke-width="2" fill="none" stroke-miterlimit="10"></path></g><g transform="translate(846.9389047539905 138.5)"><path d="M0,0 C12.0951425,0 19.0529436,5.04208296 20.8734031,15.1262489 C20.8734031,22.042083 18.2693005,25.5 13.0610952,25.5" stroke="#FEFEFE" stroke-width="2" fill="none" stroke-miterlimit="10"></path></g><g transform="translate(130.81230783385473 138.5) scale(-1.0 1.0)"><path d="M0,0 C12.0951425,0 19.0529436,5.04208296 20.8734031,15.1262489 C20.8734031,22.042083 18.2693005,25.5 13.0610952,25.5" stroke="#FEFEFE" stroke-width="2" fill="none" stroke-miterlimit="10"></path></g><g transform="translate(977.0 10.0)"><path d="M1,0 L1,19" stroke="#FEFEFE" stroke-width="2" fill="none" stroke-linecap="square" stroke-miterlimit="10"></path></g><g transform="translate(953.5 0.5)"><path d="M0,0 C9.04575588,0 15.2289929,0.669245498 18.5497111,2.00773649 C22.5165704,3.82725055 24.5,6.32467171 24.5,9.5" stroke="#FEFEFE" stroke-width="2" fill="none" stroke-miterlimit="10"></path></g><g transform="translate(879.0 39.0)"><path d="M93.5,0.5 L0.5,99.5" stroke="#FEFEFE" stroke-width="2" fill="none" stroke-linecap="square" stroke-miterlimit="10"></path></g><g transform="translate(863.9566196564795 138.5)"><path d="M15.5433803,0 C11.3480657,4.26866634 6.16693888,6.36793796 0,6.29781483" stroke="#FEFEFE" stroke-width="2" fill="none" stroke-miterlimit="10"></path></g><g transform="translate(972.5 29.0)"><path d="M5.5,0 C5.5,4.61123233 2.31588368,8.15248841 0,10.5" stroke="#FEFEFE" stroke-width="2" fill="none" stroke-miterlimit="10"></path></g><g transform="translate(953.5000000000001 25.49962019159606)"><path d="M0,0.000379808404 C7.33862846,0.000379808404 13.3790255,-0.0687326841 17.6610589,1.65762887 C21.6528714,3.26698381 24.1947017,6.59602229 22.7545474,8.75037981" stroke="#FEFEFE" stroke-width="2" fill="none" stroke-miterlimit="10"></path></g><g transform="translate(6.0 39.0)"><path d="M0.5,0.5 L94.5,100.5" stroke="#FEFEFE" stroke-width="2" fill="none" stroke-linecap="square" stroke-miterlimit="10"></path></g><g transform="translate(100.5 139.5)"><path d="M0,0 C3.54357882,3.5660134 7.98690034,5.38818972 13.3299646,5.46652896" stroke="#FEFEFE" stroke-width="2" fill="none" stroke-miterlimit="10"></path></g><g transform="translate(0.0 10.0)"><path d="M0.5,0.5 L0.5,20.5" stroke="#FEFEFE" stroke-width="2" fill="none" stroke-linecap="square" stroke-miterlimit="10"></path></g><g transform="translate(0.5 0.48308229819142934)"><path d="M0,10.0169176 C0,8.21886035 2.13418032,3.78798998 7.61874922,1.69664833 C12.8249878,-0.288562142 21.3061809,0.0169177018 24.5,0.0169177018" stroke="#FEFEFE" stroke-width="2" fill="none" stroke-miterlimit="10"></path></g><g transform="translate(0.5 31.0)"><path d="M0,0 C0,3.73706723 4.02257191,6.13303663 6,8.5" stroke="#FEFEFE" stroke-width="2" fill="none" stroke-miterlimit="10"></path></g><g transform="translate(1.4576580540555604 25.49999999999986)"><path d="M0,8.32160555 C0,5.84715199 2.23745526,2.10902406 7.76788926,1.06804825 C13.4421521,0 20.9193027,0 23.5423419,0" stroke="#FEFEFE" stroke-width="2" fill="none" stroke-miterlimit="10"></path></g><g transform="translate(120.0 134.0)"><path d="M0.5,0.5 L735,1" stroke="#FEFEFE" stroke-width="2" fill="none" stroke-linecap="square" stroke-miterlimit="10"></path></g><g transform="translate(827.0 340.0)"><g clip-path="url(#i7)"><polygon points="0,0 26,0 26,12 0,12 0,0" stroke="none" fill="#FFFFFF"></polygon><path d="M3,0 C4.65685425,-3.04359188e-16 6,1.34314575 6,3 L6,9 C6,10.6568542 4.65685425,12 3,12 C1.34314575,12 1.01453063e-16,10.6568542 0,9 L0,3 C-2.02906125e-16,1.34314575 1.34314575,2.02906125e-16 3,0 Z M13,0 C14.6568542,-3.04359188e-16 16,1.34314575 16,3 L16,9 C16,10.6568542 14.6568542,12 13,12 C11.3431458,12 10,10.6568542 10,9 L10,3 C10,1.34314575 11.3431458,2.02906125e-16 13,0 Z M23,0 C24.6568542,-3.04359188e-16 26,1.34314575 26,3 L26,9 C26,10.6568542 24.6568542,12 23,12 C21.3431458,12 20,10.6568542 20,9 L20,3 C20,1.34314575 21.3431458,2.02906125e-16 23,0 Z" stroke="#FFFFFF" stroke-width="2" fill="none" stroke-miterlimit="5"></path></g></g><g transform="translate(125.0 340.0)"><g clip-path="url(#i7)"><polygon points="0,0 26,0 26,12 0,12 0,0" stroke="none" fill="#FFFFFF"></polygon><path d="M3,0 C4.65685425,-3.04359188e-16 6,1.34314575 6,3 L6,9 C6,10.6568542 4.65685425,12 3,12 C1.34314575,12 1.01453063e-16,10.6568542 0,9 L0,3 C-2.02906125e-16,1.34314575 1.34314575,2.02906125e-16 3,0 Z M13,0 C14.6568542,-3.04359188e-16 16,1.34314575 16,3 L16,9 C16,10.6568542 14.6568542,12 13,12 C11.3431458,12 10,10.6568542 10,9 L10,3 C10,1.34314575 11.3431458,2.02906125e-16 13,0 Z M23,0 C24.6568542,-3.04359188e-16 26,1.34314575 26,3 L26,9 C26,10.6568542 24.6568542,12 23,12 C21.3431458,12 20,10.6568542 20,9 L20,3 C20,1.34314575 21.3431458,2.02906125e-16 23,0 Z" stroke="#FFFFFF" stroke-width="2" fill="none" stroke-miterlimit="5"></path></g></g><g transform="translate(702.0 181.0)"><g clip-path="url(#i8)"><polygon points="0,0 6,0 6,6 0,6 0,0" stroke="none" fill="#FFFFFF"></polygon><path d="M3,6 C4.65685425,6 6,4.65685425 6,3 C6,1.34314575 4.65685425,0 3,0 C1.34314575,0 0,1.34314575 0,3 C0,4.65685425 1.34314575,6 3,6 Z" stroke="#FFFFFF" stroke-width="2" fill="none" stroke-miterlimit="5"></path></g></g></g></g></g></svg>