<?xml version="1.0" encoding="UTF-8"?><svg version="1.1" width="500px" height="500px" viewBox="0 0 500.0 500.0" xmlns="http://www.w3.org/2000/svg" xmlns:xlink="http://www.w3.org/1999/xlink"><defs><clipPath id="i0"><path d="M500,0 L500,500 L0,500 L0,0 L500,0 Z"></path></clipPath><clipPath id="i1"><path d="M386.07614,-11 C448.993716,-11 500,39.2084596 500,101.143975 C500,163.07949 448.993716,213.28795 386.07614,213.28795 L113.92402,213.28795 C51.0054829,213.28795 0,163.07949 0,101.143975 C0,39.2084596 51.0054829,-11 113.92402,-11 L386.07614,-11 Z M202.56,56 L183.72,56 L183.72,140 L245.28,140 L245.28,123.56 L202.56,123.56 L202.56,56 Z M310.44,56 L292.8,56 L250.08,103.28 L250.08,120.92 L292.32,120.92 L292.32,140 L310.44,140 L310.44,120.92 L323.64,120.92 L323.64,106.04 L310.44,106.04 L310.44,56 Z M292.32,78.32 L292.32,106.04 L268.08,106.04 L292.32,78.32 Z"></path></clipPath></defs><g clip-path="url(#i0)"><g transform="translate(-1.0 150.0)"><g clip-path="url(#i1)"><polygon points="1,-11 500,-11 500,213.28795 1,213.28795 1,-11" stroke="none" fill="#FFFFFF"></polygon></g></g></g></svg>