<svg width="32" height="32" version="1.1" xml:space="preserve" xmlns="http://www.w3.org/2000/svg"><defs><mask id="mask-powermask-path-effect38" maskUnits="userSpaceOnUse"><path id="mask-powermask-path-effect38_box" d="m7.6367-1h16.727v34h-16.727z" fill="#fff"/><path d="m11.557 3.0078a0.84669 0.84669 0 0 0-0.84766 0.84766 0.84669 0.84669 0 0 0 0.84766 0.8457 0.84669 0.84669 0 0 0 0.8457-0.8457 0.84669 0.84669 0 0 0-0.8457-0.84766zm2.9609 0a0.84669 0.84669 0 0 0-0.8457 0.84766 0.84669 0.84669 0 0 0 0.8457 0.8457 0.84669 0.84669 0 0 0 0.84766-0.8457 0.84669 0.84669 0 0 0-0.84766-0.84766zm2.9629 0a0.84669 0.84669 0 0 0-0.8457 0.84766 0.84669 0.84669 0 0 0 0.8457 0.8457 0.84669 0.84669 0 0 0 0.84766-0.8457 0.84669 0.84669 0 0 0-0.84766-0.84766zm2.9629 0a0.84669 0.84669 0 0 0-0.8457 0.84766 0.84669 0.84669 0 0 0 0.8457 0.8457 0.84669 0.84669 0 0 0 0.84766-0.8457 0.84669 0.84669 0 0 0-0.84766-0.84766zm-8.8867 2.6992a0.84669 0.84669 0 0 0-0.84766 0.84766 0.84669 0.84669 0 0 0 0.84766 0.8457 0.84669 0.84669 0 0 0 0.8457-0.8457 0.84669 0.84669 0 0 0-0.8457-0.84766zm2.9609 0a0.84669 0.84669 0 0 0-0.8457 0.84766 0.84669 0.84669 0 0 0 0.8457 0.8457 0.84669 0.84669 0 0 0 0.84766-0.8457 0.84669 0.84669 0 0 0-0.84766-0.84766zm2.9629 0a0.84669 0.84669 0 0 0-0.8457 0.84766 0.84669 0.84669 0 0 0 0.8457 0.8457 0.84669 0.84669 0 0 0 0.84766-0.8457 0.84669 0.84669 0 0 0-0.84766-0.84766zm2.9629 0a0.84669 0.84669 0 0 0-0.8457 0.84766 0.84669 0.84669 0 0 0 0.8457 0.8457 0.84669 0.84669 0 0 0 0.84766-0.8457 0.84669 0.84669 0 0 0-0.84766-0.84766zm-8.8867 2.6992a0.84669 0.84669 0 0 0-0.84766 0.8457 0.84669 0.84669 0 0 0 0.84766 0.84766 0.84669 0.84669 0 0 0 0.8457-0.84766 0.84669 0.84669 0 0 0-0.8457-0.8457zm2.9609 0a0.84669 0.84669 0 0 0-0.8457 0.8457 0.84669 0.84669 0 0 0 0.8457 0.84766 0.84669 0.84669 0 0 0 0.84766-0.84766 0.84669 0.84669 0 0 0-0.84766-0.8457zm2.9629 0a0.84669 0.84669 0 0 0-0.8457 0.8457 0.84669 0.84669 0 0 0 0.8457 0.84766 0.84669 0.84669 0 0 0 0.84766-0.84766 0.84669 0.84669 0 0 0-0.84766-0.8457zm2.9629 0a0.84669 0.84669 0 0 0-0.8457 0.8457 0.84669 0.84669 0 0 0 0.8457 0.84766 0.84669 0.84669 0 0 0 0.84766-0.84766 0.84669 0.84669 0 0 0-0.84766-0.8457zm-8.8867 2.6992a0.84669 0.84669 0 0 0-0.84766 0.8457 0.84669 0.84669 0 0 0 0.84766 0.84766 0.84669 0.84669 0 0 0 0.8457-0.84766 0.84669 0.84669 0 0 0-0.8457-0.8457zm2.9609 0a0.84669 0.84669 0 0 0-0.8457 0.8457 0.84669 0.84669 0 0 0 0.8457 0.84766 0.84669 0.84669 0 0 0 0.84766-0.84766 0.84669 0.84669 0 0 0-0.84766-0.8457zm2.9629 0a0.84669 0.84669 0 0 0-0.8457 0.8457 0.84669 0.84669 0 0 0 0.8457 0.84766 0.84669 0.84669 0 0 0 0.84766-0.84766 0.84669 0.84669 0 0 0-0.84766-0.8457zm2.9629 0a0.84669 0.84669 0 0 0-0.8457 0.8457 0.84669 0.84669 0 0 0 0.8457 0.84766 0.84669 0.84669 0 0 0 0.84766-0.84766 0.84669 0.84669 0 0 0-0.84766-0.8457zm-8.8867 2.6973a0.84669 0.84669 0 0 0-0.84766 0.84766 0.84669 0.84669 0 0 0 0.84766 0.8457 0.84669 0.84669 0 0 0 0.8457-0.8457 0.84669 0.84669 0 0 0-0.8457-0.84766zm8.8867 0a0.84669 0.84669 0 0 0-0.8457 0.84766 0.84669 0.84669 0 0 0 0.8457 0.8457 0.84669 0.84669 0 0 0 0.84766-0.8457 0.84669 0.84669 0 0 0-0.84766-0.84766zm-8.8867 2.6992a0.84669 0.84669 0 0 0-0.84766 0.84766 0.84669 0.84669 0 0 0 0.84766 0.8457 0.84669 0.84669 0 0 0 0.8457-0.8457 0.84669 0.84669 0 0 0-0.8457-0.84766zm8.8867 0a0.84669 0.84669 0 0 0-0.8457 0.84766 0.84669 0.84669 0 0 0 0.8457 0.8457 0.84669 0.84669 0 0 0 0.84766-0.8457 0.84669 0.84669 0 0 0-0.84766-0.84766zm-8.8867 2.6992a0.84669 0.84669 0 0 0-0.84766 0.8457 0.84669 0.84669 0 0 0 0.84766 0.84766 0.84669 0.84669 0 0 0 0.8457-0.84766 0.84669 0.84669 0 0 0-0.8457-0.8457zm2.9609 0a0.84669 0.84669 0 0 0-0.8457 0.8457 0.84669 0.84669 0 0 0 0.8457 0.84766 0.84669 0.84669 0 0 0 0.84766-0.84766 0.84669 0.84669 0 0 0-0.84766-0.8457zm2.9629 0a0.84669 0.84669 0 0 0-0.8457 0.8457 0.84669 0.84669 0 0 0 0.8457 0.84766 0.84669 0.84669 0 0 0 0.84766-0.84766 0.84669 0.84669 0 0 0-0.84766-0.8457zm2.9629 0a0.84669 0.84669 0 0 0-0.8457 0.8457 0.84669 0.84669 0 0 0 0.8457 0.84766 0.84669 0.84669 0 0 0 0.84766-0.84766 0.84669 0.84669 0 0 0-0.84766-0.8457zm-8.8867 2.6992a0.84669 0.84669 0 0 0-0.84766 0.8457 0.84669 0.84669 0 0 0 0.84766 0.84766 0.84669 0.84669 0 0 0 0.8457-0.84766 0.84669 0.84669 0 0 0-0.8457-0.8457zm2.9609 0a0.84669 0.84669 0 0 0-0.8457 0.8457 0.84669 0.84669 0 0 0 0.8457 0.84766 0.84669 0.84669 0 0 0 0.84766-0.84766 0.84669 0.84669 0 0 0-0.84766-0.8457zm2.9629 0a0.84669 0.84669 0 0 0-0.8457 0.8457 0.84669 0.84669 0 0 0 0.8457 0.84766 0.84669 0.84669 0 0 0 0.84766-0.84766 0.84669 0.84669 0 0 0-0.84766-0.8457zm2.9629 0a0.84669 0.84669 0 0 0-0.8457 0.8457 0.84669 0.84669 0 0 0 0.8457 0.84766 0.84669 0.84669 0 0 0 0.84766-0.84766 0.84669 0.84669 0 0 0-0.84766-0.8457zm-8.8867 2.6973a0.84669 0.84669 0 0 0-0.84766 0.84766 0.84669 0.84669 0 0 0 0.84766 0.8457 0.84669 0.84669 0 0 0 0.8457-0.8457 0.84669 0.84669 0 0 0-0.8457-0.84766zm2.9609 0a0.84669 0.84669 0 0 0-0.8457 0.84766 0.84669 0.84669 0 0 0 0.8457 0.8457 0.84669 0.84669 0 0 0 0.84766-0.8457 0.84669 0.84669 0 0 0-0.84766-0.84766zm2.9629 0a0.84669 0.84669 0 0 0-0.8457 0.84766 0.84669 0.84669 0 0 0 0.8457 0.8457 0.84669 0.84669 0 0 0 0.84766-0.8457 0.84669 0.84669 0 0 0-0.84766-0.84766zm2.9629 0a0.84669 0.84669 0 0 0-0.8457 0.84766 0.84669 0.84669 0 0 0 0.8457 0.8457 0.84669 0.84669 0 0 0 0.84766-0.8457 0.84669 0.84669 0 0 0-0.84766-0.84766zm-8.8867 2.6992a0.84669 0.84669 0 0 0-0.84766 0.84766 0.84669 0.84669 0 0 0 0.84766 0.8457 0.84669 0.84669 0 0 0 0.8457-0.8457 0.84669 0.84669 0 0 0-0.8457-0.84766zm2.9609 0a0.84669 0.84669 0 0 0-0.8457 0.84766 0.84669 0.84669 0 0 0 0.8457 0.8457 0.84669 0.84669 0 0 0 0.84766-0.8457 0.84669 0.84669 0 0 0-0.84766-0.84766zm2.9629 0a0.84669 0.84669 0 0 0-0.8457 0.84766 0.84669 0.84669 0 0 0 0.8457 0.8457 0.84669 0.84669 0 0 0 0.84766-0.8457 0.84669 0.84669 0 0 0-0.84766-0.84766zm2.9629 0a0.84669 0.84669 0 0 0-0.8457 0.84766 0.84669 0.84669 0 0 0 0.8457 0.8457 0.84669 0.84669 0 0 0 0.84766-0.8457 0.84669 0.84669 0 0 0-0.84766-0.84766z" fill="#b3b3b3" stroke-width=".052305"/></mask></defs><path d="m12.482 0c-2.131 0-3.8457 1.7147-3.8457 3.8457v24.307c-1e-7 2.131 1.7147 3.8477 3.8457 3.8477h7.0332c2.131 0 3.8477-1.7167 3.8477-3.8477v-24.307c0-2.131-1.7167-3.8457-3.8477-3.8457zm5.541 13.057v5.8867l-2.5488-1.4727-2.5488-1.4707 2.5488-1.4727z" fill="#fff" mask="url(#mask-powermask-path-effect38)" stroke-width=".043823"/></svg>
