<svg width="32" height="20" version="1.1" xml:space="preserve" xmlns="http://www.w3.org/2000/svg"><path d="m8.002 1.998a8.0021 8.0021 0 0 0-8.002 8.002 8.0021 8.0021 0 0 0 8.002 8.002h23.998v-16.004h-23.998zm-3.209 5.9727c0.60762 0 1.0651 0.13205 1.3711 0.39844 0.30821 0.26638 0.46896 0.6217 0.48438 1.0664l-0.97656 0.042969c-0.041829-0.24877-0.13279-0.42728-0.27148-0.53516-0.13649-0.11008-0.342-0.16406-0.61719-0.16406-0.284 0-0.5053 0.059101-0.66602 0.17578-0.10347 0.074852-0.15625 0.17334-0.15625 0.29883 0 0.11448 0.047664 0.21347 0.14453 0.29492 0.12329 0.10347 0.42291 0.21194 0.89844 0.32422 0.47553 0.11228 0.82793 0.22853 1.0547 0.34961 0.22896 0.11888 0.40747 0.28304 0.53516 0.49219 0.12989 0.20694 0.19336 0.46352 0.19336 0.76953 0 0.27739-0.076362 0.53713-0.23047 0.7793-0.15411 0.24217-0.3725 0.42213-0.6543 0.54102-0.28179 0.11668-0.63224 0.17578-1.0527 0.17578-0.61202 0-1.0821-0.14203-1.4102-0.42383-0.32803-0.284-0.52405-0.69671-0.58789-1.2383l0.95117-0.091797c0.057239 0.31922 0.17178 0.55342 0.3457 0.70313 0.17612 0.1497 0.41373 0.22461 0.71094 0.22461 0.31482 0 0.55243-0.067128 0.71094-0.19922 0.16071-0.13429 0.24023-0.29043 0.24023-0.46875 0-0.11448-0.033315-0.20981-0.10156-0.28906-0.066046-0.081459-0.18425-0.15345-0.35156-0.21289-0.11448-0.039627-0.37397-0.10967-0.78125-0.21094-0.52396-0.12989-0.89217-0.28918-1.1035-0.47852-0.29721-0.26638-0.44531-0.59154-0.44531-0.97461 0-0.24657 0.068336-0.47591 0.20703-0.68945 0.1409-0.21575 0.34349-0.37991 0.60547-0.49219 0.26418-0.11228 0.58107-0.16797 0.95312-0.16797zm18.064 0c0.59221 0 1.0735 0.17535 1.4434 0.52539 0.22015 0.20694 0.38406 0.50316 0.49414 0.89062l-0.9668 0.23047c-0.05724-0.25097-0.1786-0.44845-0.36133-0.59375-0.18052-0.1453-0.40038-0.21875-0.66016-0.21875-0.35885 0-0.65045 0.12914-0.875 0.38672-0.22235 0.25758-0.33398 0.67516-0.33398 1.252 0 0.61202 0.11188 1.0488 0.33203 1.3086 0.22015 0.25978 0.50518 0.38867 0.85742 0.38867 0.25978 0 0.48279-0.082933 0.66992-0.24805 0.18713-0.16511 0.32284-0.42485 0.4043-0.7793l0.94727 0.30078c-0.1453 0.52836-0.38753 0.92211-0.72656 1.1797-0.33683 0.25538-0.7656 0.38281-1.2852 0.38281-0.64284 0-1.1701-0.2201-1.584-0.6582-0.41389-0.4403-0.62109-1.041-0.62109-1.8027 0-0.80576 0.20696-1.4303 0.62305-1.875 0.41609-0.44691 0.96451-0.66992 1.6426-0.66992zm-15.248 0.082031h3.5898v0.81836h-2.6113v1.0742h2.4297v0.81445h-2.4297v1.3184h2.7051v0.81641h-3.6836v-4.8418zm8.6426 0h3.5898v0.81836h-2.6113v1.0742h2.4297v0.81445h-2.4297v1.3184h2.7031v0.81641h-3.6816v-4.8418zm9.0488 0h3.8477v0.81836h-1.4336v4.0234h-0.97852v-4.0234h-1.4355v-0.81836zm-13.152 0.039062h0.97656v3.9863h2.4297v0.81641h-3.4062v-4.8027z" fill="#fff" stroke-width=".07929"/><path d="m32 1.9981h-2.1917v16.004h2.1917z" fill="#666" fill-opacity=".60376" stroke-width=".066524"/></svg>
