<svg width="32" height="20" version="1.1" xml:space="preserve" xmlns="http://www.w3.org/2000/svg"><path d="m0 1.998v16.004h23.998a8.0021 8.0021 0 0 0 8.002-8.002 8.0021 8.0021 0 0 0-8.002-8.002h-23.998zm7.959 5.9727c0.60762 0 1.0651 0.13205 1.3711 0.39844 0.30821 0.26638 0.47092 0.6217 0.48633 1.0664l-0.97852 0.042969c-0.041829-0.24877-0.13084-0.42728-0.26953-0.53516-0.13649-0.11008-0.34395-0.16406-0.61914-0.16406-0.284 0-0.5053 0.059101-0.66602 0.17578-0.10347 0.074852-0.15625 0.17334-0.15625 0.29883 0 0.11448 0.049618 0.21347 0.14648 0.29492 0.12329 0.10347 0.42291 0.21194 0.89844 0.32422 0.47553 0.11228 0.82598 0.22853 1.0527 0.34961 0.22896 0.11888 0.40747 0.28304 0.53516 0.49219 0.12989 0.20694 0.19531 0.46352 0.19531 0.76953 0 0.27739-0.078316 0.53713-0.23242 0.7793-0.15411 0.24217-0.37055 0.42213-0.65234 0.54102-0.28179 0.11668-0.6342 0.17578-1.0547 0.17578-0.61202 0-1.0821-0.14203-1.4102-0.42383-0.32803-0.284-0.52405-0.69671-0.58789-1.2383l0.95117-0.091797c0.057239 0.31922 0.17374 0.55342 0.34766 0.70313 0.17612 0.1497 0.41178 0.22461 0.70898 0.22461 0.31482 0 0.55243-0.067128 0.71094-0.19922 0.16071-0.13429 0.24023-0.29043 0.24023-0.46875 0-0.11448-0.033315-0.20981-0.10156-0.28906-0.066046-0.081459-0.18229-0.15345-0.34961-0.21289-0.11448-0.039627-0.37592-0.10967-0.7832-0.21094-0.52396-0.12989-0.89217-0.28918-1.1035-0.47852-0.29721-0.26638-0.44531-0.59154-0.44531-0.97461 0-0.24657 0.068335-0.47591 0.20703-0.68945 0.1409-0.21575 0.34349-0.37991 0.60547-0.49219 0.26418-0.11228 0.58107-0.16797 0.95312-0.16797zm2.4707 0.082031h3.8477v0.81836h-1.4336v4.0234h-0.97656v-4.0234h-1.4375v-0.81836zm5.3691 0h1.0352l1.9375 4.8418h-1.0625l-0.42383-1.0996h-1.9355l-0.39844 1.0996h-1.0371l1.8848-4.8418zm3.4941 0h2.0586c0.51736 0 0.89164 0.044752 1.125 0.13281 0.23556 0.085859 0.42356 0.23858 0.56445 0.46094 0.1409 0.22235 0.21094 0.47747 0.21094 0.76367 0 0.36325-0.10676 0.66263-0.32031 0.90039-0.21355 0.23556-0.53214 0.38562-0.95703 0.44726 0.21135 0.12329 0.38499 0.25875 0.52148 0.40625 0.1387 0.1475 0.32523 0.4087 0.55859 0.78516l0.5918 0.94531h-1.1699l-0.70703-1.0547c-0.25097-0.37646-0.42316-0.61212-0.51562-0.70898-0.092464-0.099068-0.1895-0.16595-0.29297-0.20117-0.10347-0.037427-0.26763-0.056641-0.49219-0.056641h-0.19727v2.0215h-0.97852v-4.8418zm4.5352 0h3.8457v0.81836h-1.4316v4.0234h-0.97852v-4.0234h-1.4355v-0.81836zm-3.5566 0.81836v1.2285h0.72266c0.46892 0 0.76223-0.018967 0.87891-0.058593 0.11668-0.039628 0.20739-0.10821 0.27344-0.20508 0.066047-0.096867 0.09961-0.21798 0.09961-0.36328 0-0.16291-0.044752-0.29351-0.13281-0.39258-0.08586-0.10127-0.20868-0.16499-0.36719-0.19141-0.079255-0.011008-0.31662-0.017578-0.71289-0.017578h-0.76172zm-3.9668 0.31055-0.6543 1.7969h1.3223l-0.66797-1.7969z" fill="#fff" stroke-width=".07929"/><path d="m-4.1088e-4 1.9981h2.1917v16.004h-2.1917z" fill="#666" fill-opacity=".59549" stroke-width=".066524"/></svg>
