<svg width="32" height="32" fill="none" version="1.1" viewBox="0 0 32 32" xmlns="http://www.w3.org/2000/svg"><path d="m16 30.5c8.0081 0 14.5-6.4919 14.5-14.5 0-8.0081-6.4919-14.5-14.5-14.5-8.0081 0-14.5 6.4919-14.5 14.5 0 8.0081 6.4919 14.5 14.5 14.5zm6.2143-11.783c0-1.7445-0.89786-2.8896-2.6936-3.4357 0.65664-0.34624 1.1323-0.77896 1.4272-1.2983 0.29476-0.51941 0.44225-1.092 0.44225-1.7178 0-1.1186-0.39544-1.9841-1.1861-2.5967-0.79066-0.61255-2.0101-0.91882-3.6585-0.91882h-5.2063v13.982h5.7691c1.5546 0 2.7942-0.35287 3.7188-1.0586 0.92469-0.70584 1.387-1.6912 1.387-2.9562zm-7.8798-4.1148v-3.4156h1.9699c1.4339 0 2.1509 0.5393 2.1509 1.6179 0 0.57265-0.18094 1.0187-0.54271 1.3382-0.36188 0.30636-0.87777 0.45944-1.5479 0.45944zm4.161 5.2134c-0.37524 0.33288-0.93805 0.49932-1.6885 0.49932h-2.4725v-3.5954h2.5528c0.71029 0 1.253 0.15318 1.6282 0.45944 0.37524 0.2929 0.56291 0.73235 0.56291 1.3183 0 0.54603-0.1943 0.98548-0.583 1.3184z" clip-rule="evenodd" fill="#fff" fill-rule="evenodd" stroke-width="1.036"/></svg>
