<svg width="32" height="32" fill="none" version="1.1" viewBox="0 0 32 32" xml:space="preserve" xmlns="http://www.w3.org/2000/svg"><path d="m23.966 16.254c0.52599-0.27734 0.90703-0.62396 1.1432-1.0399 0.23611-0.41606 0.35425-0.87468 0.35425-1.376 0-0.896-0.31675-1.5893-0.95009-2.08-0.63334-0.49067-1.6101-0.736-2.9305-0.736h-4.1704v11.2h4.6212c1.2453 0 2.2382-0.28266 2.9789-0.84796 0.74069-0.56539 1.111-1.3547 1.111-2.368 0-1.3973-0.71921-2.3147-2.1576-2.752zm-4.1543-3.2799v2.736h1.6262c0.53677 0 0.95001-0.12262 1.2399-0.36802 0.28979-0.25594 0.43473-0.61326 0.43473-1.072 0-0.86398-0.57427-1.296-1.7229-1.296zm1.9805 7.3119c0.60115 0 1.052-0.13332 1.3525-0.39996 0.31136-0.26664 0.467-0.61866 0.467-1.056 0-0.46932-0.15033-0.82133-0.4509-1.056-0.30058-0.24532-0.7353-0.36802-1.3043-0.36802h-2.0449v2.88zm-5.951 1.9363v-2.112h-5.168v-9.088h-2.352v11.2zm-15.842-11.556c0-4.9092 2.9848-8.8889 6.6667-8.8889h24c0.7363 0 1.3333 0.79594 1.3333 1.7778v24.889c0 0.9818-0.597 1.7777-1.3333 1.7777h-29.333c-0.73638 0-1.3333-0.7959-1.3333-1.7777z" fill="#fff"/></svg>
