<svg width="32" height="32" fill="none" version="1.1" viewBox="0 0 32 32" xml:space="preserve" xmlns="http://www.w3.org/2000/svg"><path d="m16 0c-2.4546 0-4.4453 1.9907-4.4453 4.4453 0 1.1822 0.46214 2.2565 1.2148 3.0527 0.0288 0.0304 0.058291 0.060274 0.087891 0.089844 0.5953 0.59529 1.3588 1.0213 2.2129 1.2031 0.2999 0.06384 0.61079 0.097656 0.92969 0.097656 0.319 0 0.62979-0.033806 0.92969-0.097656 0.0607-0.01293 0.12194-0.027599 0.18164-0.042969 0.8229-0.21171 1.5531-0.65131 2.1191-1.25 0.7527-0.7962 1.2148-1.8706 1.2148-3.0527 2e-6 -2.4546-1.9907-4.4453-4.4453-4.4453zm-6 4.6211c-4.9753 2.2774-8.4316 7.2994-8.4316 13.129 0 7.9703 6.4614 14.43 14.432 14.43 7.9702 0 14.432-6.4594 14.432-14.43 0-5.8295-3.4563-10.852-8.4316-13.129 1.88e-4 0.0196 0 0.038949 0 0.058594 0 1.5959-0.62253 3.0462-1.6387 4.1211-0.7641 0.80823-1.7504 1.4056-2.8613 1.6914-0.08059 0.020739-0.16219 0.03919-0.24414 0.05664-0.40486 0.0862-0.82521 0.13086-1.2559 0.13086-0.43051 0-0.85099-0.04468-1.2559-0.13086-1.153-0.24546-2.1827-0.82136-2.9863-1.625-0.039965-0.039915-0.08026-0.080054-0.11914-0.12109-1.0161-1.0749-1.6387-2.5271-1.6387-4.123 0-0.019646-1.884e-4 -0.038992 0-0.058594zm2.8125 8.8262h2.25v7.0762h4.125v2.0293h-6.375v-9.1055z" fill="#fff" stop-color="#000000"/></svg>
