<svg width="32" height="32" fill="none" version="1.1" viewBox="0 0 32 32" xml:space="preserve" xmlns="http://www.w3.org/2000/svg"><path d="m26.83 2-16.643 0.25977c-2.2745 0.03549-4.2491 1.5903-4.8379 3.8066l-5.1738 19.471c-0.87231 3.2836 1.6026 6.5001 4.9727 6.4629l21.719-0.24023c2.7796-0.0308 5.0212-2.3038 5.0352-5.1074l0.097656-19.492c0.0144-2.8768-2.3179-5.2047-5.1699-5.1602zm-20.135 9.9922h2.2559l3.7773 7.9531 3.4863-7.9531h2.3848v11.201h-2.2559v-7.1191l-3.0098 6.7988h-1.4219l-3.0723-6.7188v7.0391h-2.1445zm17.576 0h1.8086v9.1699h2.1289v2.0312h-7.1523v-2.0312h2.6406v-6.5781l-2.3516 0.99219-0.75195-1.7598zm-20.576 21.809h28z" clip-rule="evenodd" fill="#fff" fill-rule="evenodd"/></svg>
