<svg width="32" height="32" fill="none" version="1.1" viewBox="0 0 32 32" xml:space="preserve" xmlns="http://www.w3.org/2000/svg"><path d="m5.1699 2c-2.852-0.04451-5.1843 2.2833-5.1699 5.1602l0.097656 19.492c0.013988 2.8036 2.2556 5.0766 5.0352 5.1074l21.719 0.24023c3.3702 0.0372 5.845-3.1793 4.9727-6.4629l-5.1738-19.471c-0.5888-2.2162-2.5634-3.7711-4.8379-3.8066zm-2.1426 9.8008h2.2559l3.7754 7.9512 3.4883-7.9512h2.3848v11.199h-2.2559v-7.1191l-3.0098 6.7988h-1.4238l-3.0723-6.7187v7.0391h-2.1426zm17.576 0h1.8086v9.168h2.127v2.0312h-7.1504v-2.0312h2.6387v-6.5762l-2.3516 0.99219-0.75195-1.7598z" clip-rule="evenodd" fill="#fff" fill-rule="evenodd"/></svg>
