<?xml version="1.0" encoding="UTF-8" standalone="no"?>
<svg
   width="32"
   height="32"
   viewBox="0 0 32 32"
   fill="none"
   version="1.1"
   id="svg3"
   xml:space="preserve"
   xmlns="http://www.w3.org/2000/svg"
   xmlns:svg="http://www.w3.org/2000/svg"><defs
     id="defs3" /><path
     d="M 0,2 C 0,0.895431 0.895431,0 2,0 h 28 c 1.1046,0 2,0.895431 2,2 v 28 c 0,1.1046 -0.8954,2 -2,2 H 2 C 0.895431,32 0,31.1046 0,30 Z"
     fill="#ffffff"
     id="path1" /><path
     d="m 11.208367,18.4476 3.348533,-7.952 h 2.288533 v 11.2 h -2.165866 v -7.12 l -2.887467,6.8 h -1.3672 l -2.949067,-6.72 v 7.04 H 5.4177 v -11.2 h 2.1656 z"
     fill="#0e141b"
     id="path6"
     style="stroke-width:2.66667" /><g
     style="fill:none"
     id="g8"
     transform="translate(-69.429269,-17.085981)"><path
       d="m 93.131269,27.389981 v 9.168 h 2.128 v 2.032 h -7.152 v -2.032 h 2.64 v -6.576 l -2.352,0.992 -0.752,-1.76 3.68,-1.824 z"
       fill="#0e141b"
       id="path3-1" /></g></svg>
