<svg width="32" height="32" fill="none" version="1.1" viewBox="0 0 32 32" xml:space="preserve" xmlns="http://www.w3.org/2000/svg"><path d="m5.1699 2c-2.852-0.04451-5.1843 2.2833-5.1699 5.1602l0.097656 19.492c0.013988 2.8036 2.2556 5.0766 5.0352 5.1074l21.719 0.24023c3.3702 0.0372 5.845-3.1793 4.9727-6.4629l-5.1738-19.471c-0.5888-2.2162-2.5634-3.7711-4.8379-3.8066zm15.611 9.6074c1.2904 0 2.323 0.28451 3.1016 0.84961 0.7786 0.5652 1.1698 1.3689 1.1699 2.4141 0 0.768-0.22583 1.4683-0.67383 2.0977-0.448 0.6185-1.1347 1.3123-2.0625 2.0801l-2.3203 1.9199h5.3926v2.0312h-8.3672v-1.9512l3.2305-2.6875 0.27344-0.24219c0.4905-0.4159 0.86314-0.75181 1.1191-1.0078 0.2664-0.2558 0.48072-0.52665 0.64062-0.81445 0.16-0.288 0.24014-0.60401 0.24024-0.94531 0-0.5546-0.20408-0.97075-0.60938-1.248-0.3947-0.2879-0.90781-0.42969-1.5371-0.42969-0.4692 0-0.9272 0.07336-1.375 0.22266-0.4371 0.1492-0.81989 0.33665-1.1504 0.56055l-0.80078-1.7285c0.4906-0.3412 1.0505-0.61381 1.6797-0.81641 0.6399-0.2026 1.3236-0.30469 2.0488-0.30469zm-17.754 0.19336h2.2559l3.7773 7.9512 3.4863-7.9512h2.3848v11.199h-2.2559v-7.1191l-3.0098 6.7988h-1.4219l-3.0723-6.7207v7.041h-2.1445zm-3 21.807h28z" clip-rule="evenodd" fill="#fff" fill-rule="evenodd"/></svg>
