<svg width="32" height="32" fill="none" version="1.1" viewBox="0 0 32 32" xml:space="preserve" xmlns="http://www.w3.org/2000/svg"><path d="m13.319 19.872-3.776-7.952h-2.256v11.2h2.144v-7.04l3.072 6.72h1.424l3.008-6.8v7.12h2.256v-11.2h-2.384zm11.131-8.072c-0.73241 0-1.4342 0.11189-2.1057 0.33567-0.66124 0.21367-1.2563 0.53411-1.7853 0.96132l1.0987 1.6937c0.31532-0.23389 0.67647-0.4171 1.0833-0.54934 0.40685-0.14235 0.81896-0.21353 1.2359-0.21353 0.51888 0 0.92075 0.10164 1.2055 0.30521 0.2951 0.20342 0.44258 0.46792 0.44258 0.79334 0 0.34592-0.14748 0.61554-0.44258 0.80871-0.28471 0.18321-0.68657 0.27474-1.2055 0.27474h-1.3122v1.9531h1.4954c1.241 0 1.8616 0.4171 1.8616 1.2513 0 0.4272-0.16784 0.76288-0.50351 1.007-0.32556 0.23403-0.78338 0.3509-1.3733 0.3509-1.0783 0-1.9837-0.32044-2.7161-0.96132l-1.0835 1.9532c0.47817 0.39674 1.0732 0.70181 1.7854 0.91548 0.71206 0.21367 1.4648 0.32044 2.2583 0.32044 0.8137 0 1.5564-0.13737 2.2277-0.41197 0.68159-0.28485 1.2207-0.68159 1.6174-1.1902 0.39674-0.51874 0.59518-1.1189 0.59518-1.8005 0-0.74266-0.20357-1.3326-0.61042-1.77-0.39674-0.43745-0.93584-0.72729-1.6174-0.86978v-0.06107c0.57981-0.24414 1.0224-0.56956 1.3275-0.97655 0.30521-0.40685 0.45781-0.86978 0.45781-1.3885 0-0.80359-0.33055-1.4597-0.99178-1.9683-0.66124-0.50863-1.6429-0.76302-2.945-0.76302zm-19.3 20.2 21.719-0.24c2.7796-0.0308 5.0208-2.3047 5.0348-5.1083l0.0972-19.491c0.0144-2.8768-2.3173-5.2042-5.1693-5.1597l-16.643 0.25971c-2.2745 0.03549-4.2496 1.5887-4.8384 3.805l-5.1728 19.471c-0.87231 3.2836 1.6028 6.5003 4.9729 6.4631z" clip-rule="evenodd" fill="#fff" fill-rule="evenodd"/></svg>
