<svg width="32" height="32" fill="none" version="1.1" viewBox="0 0 32 32" xml:space="preserve" xmlns="http://www.w3.org/2000/svg"><path d="m5.1699 2c-2.852-0.04451-5.1843 2.2833-5.1699 5.1602l0.097656 19.492c0.013988 2.8036 2.2556 5.0766 5.0352 5.1074l21.719 0.24023c3.3702 0.0372 5.845-3.1793 4.9727-6.4629l-5.1738-19.473c-0.5888-2.2162-2.5634-3.7692-4.8379-3.8047zm15.323 9.6797c1.3021-1e-6 2.2821 0.25504 2.9434 0.76367 0.66123 0.5086 0.99219 1.1652 0.99219 1.9688 0 0.51872-0.15182 0.97987-0.45703 1.3867-0.3051 0.40699-0.74832 0.73242-1.3281 0.97656v0.0625c0.68156 0.14249 1.2204 0.43169 1.6172 0.86914 0.40685 0.4374 0.61133 1.0269 0.61133 1.7695 0 0.6816-0.19896 1.282-0.5957 1.8008-0.3967 0.50861-0.9356 0.9046-1.6172 1.1895-0.6713 0.2746-1.4148 0.41211-2.2285 0.41211-0.7935 0-1.5458-0.10664-2.2578-0.32031-0.7122-0.21367-1.307-0.51732-1.7852-0.91406l1.084-1.9531c0.7324 0.64088 1.6365 0.96094 2.7148 0.96094 0.58992 0 1.0475-0.11753 1.373-0.35156 0.33567-0.24412 0.50391-0.57866 0.50391-1.0059 0-0.8342-0.62033-1.252-1.8613-1.252h-1.4961v-1.9531h1.3125c0.51893 0 0.92232-0.09218 1.207-0.27539 0.2951-0.19317 0.44141-0.46267 0.44141-0.80859 0-0.32542-0.14631-0.58955-0.44141-0.79297-0.28475-0.20357-0.68815-0.30469-1.207-0.30469-0.41694 0-0.82752 0.07054-1.2344 0.21289-0.40683 0.13224-0.76866 0.31494-1.084 0.54883l-1.0996-1.6934c0.529-0.42721 1.1239-0.74727 1.7852-0.96094 0.6715-0.22378 1.375-0.33594 2.1074-0.33594zm-17.164 0.11914h2.2559l3.7754 7.9531 3.4883-7.9531h2.3848v11.201h-2.2559v-7.1211l-3.0078 6.8008h-1.4238l-3.0723-6.7207v7.041h-2.1445z" clip-rule="evenodd" fill="#fff" fill-rule="evenodd"/></svg>
