<?xml version="1.0" encoding="UTF-8" standalone="no"?>
<svg
   width="32"
   height="32"
   viewBox="0 0 32 32"
   fill="none"
   version="1.1"
   id="svg3"
   xml:space="preserve"
   xmlns="http://www.w3.org/2000/svg"
   xmlns:svg="http://www.w3.org/2000/svg"><defs
     id="defs3" /><g
     style="fill:none"
     id="g2"
     transform="translate(1.50011,1.50011)"><g
       id="g1"><path
         d="M 14.49989,6.4751936e-8 C 6.4917489,-2.8135248e-5 -3.0835248e-5,6.49175 6.4751936e-8,14.49989 -2.9735248e-5,22.508029 6.4917497,28.999808 14.49989,28.99978 22.508032,28.99981 28.99981,22.508031 28.99978,14.49989 28.999811,6.4917485 22.508033,-3.0335248e-5 14.49989,6.4751936e-8 Z M 7.4414064,9.0790323 H 21.450887 c 0.615336,-1.44e-4 1.11377,0.498808 1.113627,1.1141437 -1.06e-4,0.61516 -0.498467,1.113771 -1.113627,1.113627 H 7.4414064 C 6.8262469,11.306946 6.3273689,10.808335 6.3272625,10.193176 6.3271192,9.5778403 6.8260703,9.0788893 7.4414064,9.0790323 Z m 0.107487,4.3067137 H 21.558374 c 0.6151,1.89e-4 1.113769,0.499044 1.113627,1.114144 -1.06e-4,0.614924 -0.498703,1.113438 -1.113627,1.113627 H 7.5488934 C 6.933969,15.613328 6.4353725,15.114814 6.4352662,14.49989 6.4351246,13.88479 6.9337936,13.385935 7.5488934,13.385746 Z m -0.048576,4.307231 H 21.509798 c 0.615097,-1.43e-4 1.11395,0.498013 1.114144,1.11311 -1.04e-4,0.615161 -0.498983,1.11377 -1.114144,1.113627 H 7.5003175 c -0.6151611,1.43e-4 -1.1140398,-0.498466 -1.1141439,-1.113627 1.942e-4,-0.615098 0.4990461,-1.113254 1.1141438,-1.11311 z"
         style="fill:#ffffff;stroke-width:0.0768831"
         id="path4" /><path
         d="m 7.5003175,17.692977 c -0.6150978,-1.44e-4 -1.1139497,0.498012 -1.1141439,1.11311 1.041e-4,0.615161 0.4989828,1.11377 1.1141439,1.113627 H 21.509798 c 0.615161,1.43e-4 1.11404,-0.498466 1.114144,-1.113627 -1.94e-4,-0.615097 -0.499047,-1.113253 -1.114144,-1.11311 z"
         style="fill:#000000;fill-opacity:1;stroke-width:0.0768831"
         id="path3" /><path
         d="m 7.5488934,13.385746 c -0.6150998,1.89e-4 -1.1137688,0.499044 -1.1136272,1.114144 1.063e-4,0.614924 0.4987028,1.113438 1.1136272,1.113627 H 21.558374 c 0.614924,-1.89e-4 1.113521,-0.498703 1.113627,-1.113627 1.42e-4,-0.6151 -0.498527,-1.113955 -1.113627,-1.114144 z"
         style="fill:#000000;fill-opacity:1;stroke-width:0.0768831"
         id="path2" /><path
         d="m 7.4414064,9.0790323 c -0.6153361,-1.43e-4 -1.1142872,0.498808 -1.1141439,1.1141437 1.064e-4,0.615159 0.4989844,1.11377 1.1141439,1.113627 H 21.450887 c 0.61516,1.44e-4 1.113521,-0.498467 1.113627,-1.113627 1.43e-4,-0.6153357 -0.498291,-1.1142877 -1.113627,-1.1141437 z"
         style="fill:#000000;fill-opacity:1;stroke-width:0.0768831"
         id="path1" /></g></g></svg>
