<svg width="32" height="32" fill="none" version="1.1" viewBox="0 0 32 32" xml:space="preserve" xmlns="http://www.w3.org/2000/svg"><path d="m16 1.5c-8.0081-2.82e-5 -14.5 6.4919-14.5 14.5-2.98e-5 8.0081 6.4919 14.5 14.5 14.5 8.0081 3e-5 14.5-6.4919 14.5-14.5 3.1e-5 -8.0081-6.4919-14.5-14.5-14.5zm-7.0586 9.0801h14.01c0.23075-5.4e-5 0.4453 0.06932 0.62305 0.18945 0.2073 0.13998 0.36363 0.34768 0.43945 0.5918 0.02168 0.06978 0.03734 0.14384 0.04492 0.21875 0.0038 0.03745 0.0059 0.07482 0.0059 0.11328-8.6e-5 0.49982-0.328 0.92166-0.78125 1.0625-0.07047 0.02208-0.14301 0.03725-0.21875 0.04492-0.03744 0.0038-0.07483 0.0059-0.11328 0.0059h-14.01c-0.038447 9e-6 -0.075842-0.0021-0.11328-0.0059-0.11234-0.011381-0.22035-0.039777-0.32031-0.082029-0.2331-0.098532-0.425-0.27327-0.54492-0.49414-0.068622-0.12625-0.11367-0.26819-0.12891-0.41797-0.0038-0.03744-0.00585-0.07483-0.00586-0.11328-9e-6 -0.03846 0.00207-0.07583 0.00586-0.11328 0.018984-0.18728 0.083481-0.36157 0.18359-0.50976 0.079989-0.11846 0.18233-0.22079 0.30078-0.30078 0.17784-0.12013 0.3923-0.18951 0.62305-0.18945zm0.10742 4.3066h14.01c0.03844 1.2e-5 0.07584 0.0021 0.11328 0.0059 0.1872 0.01907 0.36164 0.08347 0.50977 0.18359 0.17769 0.12 0.31788 0.29045 0.40234 0.49023 0.04226 0.09995 0.07065 0.20799 0.08203 0.32031 0.0038 0.03744 0.0059 0.07484 0.0059 0.11328-7e-6 0.03843-0.0021 0.07585-0.0059 0.11328-0.0076 0.07486-0.02322 0.14902-0.04492 0.21875-0.10844 0.34859-0.38187 0.62201-0.73047 0.73047-0.07046 0.0221-0.14304 0.03721-0.21875 0.04492-0.03743 0.0038-0.07485 0.0058-0.11328 0.0059h-14.01c-0.038433-1.2e-5 -0.075853-2e-3 -0.11328-0.0059-0.075713-0.0077-0.14829-0.02282-0.21875-0.04492-0.45318-0.14099-0.78116-0.56287-0.78125-1.0625-8.9e-6 -0.03844 0.00206-0.07584 0.00586-0.11328 0.00759-0.07489 0.023238-0.14899 0.044922-0.21875 0.075847-0.24404 0.23215-0.45179 0.43945-0.5918 0.088203-0.05962 0.18728-0.10612 0.29102-0.13867 0.070474-0.02212 0.14302-0.03721 0.21875-0.04492 0.037438-0.0038 0.074838-0.0058 0.11328-0.0059zm-0.048828 4.3066h14.01c0.3363-7.8e-5 0.6372 0.14922 0.8418 0.38477 0.03899 0.04488 0.07398 0.09379 0.10547 0.14453 0.0074 0.01194 0.01651 0.02292 0.02344 0.03516 0.03708 0.0651 0.06638 0.13458 0.08984 0.20703 0.03493 0.10787 0.05465 0.22231 0.05469 0.3418-1.3e-5 0.0769-0.0086 0.15211-0.02344 0.22461-0.0074 0.03625-0.01649 0.07059-0.02734 0.10547-0.04346 0.14017-0.11373 0.26847-0.20508 0.37891-0.02305 0.02786-0.04666 0.05264-0.07227 0.07813-0.17655 0.1757-0.41216 0.29382-0.67383 0.32031-0.03745 0.0038-0.07483 0.0059-0.11328 0.0059h-14.01c-0.51193 1.19e-4 -0.94203-0.34412-1.0723-0.81445-0.013498-0.04822-0.024319-0.09586-0.03125-0.14648-0.0068-0.04975-0.00976-0.10073-0.00977-0.15234 1.24e-5 -0.0391 0.00192-0.07718 0.00586-0.11524 0.011444-0.11231 0.039727-0.21846 0.082031-0.31836 0.12673-0.29973 0.3796-0.53139 0.69336-0.62891 0.070483-0.02206 0.14301-0.03725 0.21875-0.04492 0.037436-0.0038 0.074838-0.0059 0.11328-0.0059z" fill="#fff" stroke-width=".076883"/></svg>
