<svg width="32" height="32" fill="none" version="1.1" viewBox="0 0 32 32" xml:space="preserve" xmlns="http://www.w3.org/2000/svg"><path d="m1.334 1.7773c-0.73638 0-1.334 0.7955-1.334 1.7773v24.891c0 0.9818 0.59761 1.7773 1.334 1.7773h29.332c0.7363 0 1.334-0.79554 1.334-1.7773v-17.779c0-4.9092-2.9841-8.8887-6.666-8.8887zm4.959 8.623h4.1934c1.536 0 2.6672 0.30903 3.3926 0.92773 0.7253 0.608 1.0879 1.4618 1.0879 2.5605 0 0.864-0.19217 1.5842-0.57617 2.1602-0.3734 0.576-0.90138 1.0118-1.584 1.3105l2.6387 4.2402h-2.6074l-2.2559-3.7754h-1.9355v3.7754h-2.3535zm10.701 0h4.1719c1.3204 0 2.2963 0.24566 2.9297 0.73633 0.63334 0.49069 0.95117 1.1841 0.95117 2.0801 0 0.50134-0.11936 0.95894-0.35547 1.375-0.2362 0.41598-0.61659 0.76172-1.1426 1.0391 1.4384 0.43738 2.1582 1.3566 2.1582 2.7539 0 1.0133-0.37064 1.8018-1.1113 2.3672-0.74069 0.56531-1.7352 0.84766-2.9805 0.84766h-4.6211zm2.4004 1.9512v2.7363h1.625c0.53677 0 0.95036-0.12178 1.2402-0.36719 0.28979-0.25594 0.43555-0.61356 0.43555-1.0723 0-0.86398-0.57403-1.2969-1.7227-1.2969zm-10.748 0.04883v3.4082h1.8398c0.6186 0 1.0981-0.15554 1.4395-0.46484 0.352-0.32 0.52734-0.7579 0.52734-1.3125 0-0.544-0.17042-0.94824-0.51172-1.2148-0.3307-0.2774-0.86361-0.41602-1.5996-0.41602zm10.748 4.3828v2.8809h1.9805c0.60115 0 1.051-0.13375 1.3516-0.40039 0.31136-0.26664 0.4668-0.61926 0.4668-1.0566 0-0.46932-0.14864-0.82007-0.44922-1.0547-0.30058-0.24532-0.73573-0.36914-1.3047-0.36914z" fill="#fff"/></svg>
