<?xml version="1.0" encoding="UTF-8" standalone="no"?>
<svg
   width="32"
   height="32"
   viewBox="0 0 32 32"
   fill="none"
   version="1.1"
   id="svg3"
   xml:space="preserve"
   xmlns="http://www.w3.org/2000/svg"
   xmlns:svg="http://www.w3.org/2000/svg"><defs
     id="defs3" /><path
     d="M 32,10.6667 C 32,5.75749 29.0152,1.7778 25.3333,1.7778 H 1.33333 C 0.596952,1.7778 0,2.57374 0,3.55558 V 28.4445 c 0,0.9818 0.596952,1.7777 1.33333,1.7777 H 30.6667 C 31.403,30.2222 32,29.4263 32,28.4445 Z"
     fill="#ffffff"
     id="path1-2" /><g
     id="g5"
     transform="translate(57.776959,-8.62215)"><path
       d="m -42.331,30.2223 h -2.608 l -2.256,-3.776 h -0.272 -1.66403 v 3.776 h -2.352 v -11.2 h 4.19203 c 1.536,0 2.6666,0.3093 3.392,0.928 0.7253,0.608 1.088,1.4613 1.088,2.56 0,0.864 -0.192,1.584 -0.576,2.16 -0.3734,0.576 -0.9014,1.0133 -1.584,1.312 z m -6.80003,-9.2 v 3.408 h 1.84003 c 0.6186,0 1.0986,-0.1547 1.44,-0.464 0.352,-0.32 0.528,-0.7574 0.528,-1.312 0,-0.544 -0.1707,-0.9494 -0.512,-1.216 -0.3307,-0.2774 -0.864,-0.416 -1.6,-0.416 z"
       fill="#0e141b"
       id="path2-9" /><path
       d="m -34.228507,24.253976 c 1.438412,0.437381 2.157618,1.354703 2.157618,2.752048 0,1.013309 -0.370347,1.802619 -1.11104,2.368012 -0.740693,0.565309 -1.733594,0.847964 -2.978868,0.847964 H -40.782 v -11.2 h 4.170382 c 1.320356,0 2.297162,0.24533 2.930501,0.735998 0.633339,0.490692 0.950092,1.184014 0.950092,2.080014 0,0.501345 -0.118139,0.959964 -0.354252,1.376024 -0.236196,0.415976 -0.617244,0.762595 -1.14323,1.03994 z m -4.154287,-3.27994 v 2.735952 h 1.62624 c 0.53677,0 0.950009,-0.122619 1.239881,-0.368024 0.28979,-0.25594 0.434726,-0.613262 0.434726,-1.071964 0,-0.863976 -0.574269,-1.295964 -1.722892,-1.295964 z m 1.980492,7.31194 c 0.601149,0 1.05197,-0.133321 1.352545,-0.399964 0.31136,-0.266643 0.466998,-0.618655 0.466998,-1.056036 0,-0.469321 -0.150328,-0.821333 -0.450903,-1.055952 C -35.334237,25.528702 -35.768963,25.406 -36.337923,25.406 h -2.044871 v 2.879976 z"
       fill="#0e141b"
       id="path2"
       style="stroke-width:0.82963" /></g></svg>
