<?xml version="1.0" encoding="UTF-8" standalone="no"?>
<svg
   width="32"
   height="32"
   viewBox="0 0 32 32"
   fill="none"
   version="1.1"
   id="svg1"
   xml:space="preserve"
   xmlns="http://www.w3.org/2000/svg"
   xmlns:svg="http://www.w3.org/2000/svg"><defs
     id="defs1" /><g
     style="fill:none"
     id="g2"
     transform="translate(-1.5e-5)"><path
       d="M 30.4314,17.5686 C 30.4314,25.5389 23.9702,32 16,32 8.02978,32 1.56863,25.5389 1.56863,17.5686 1.56863,9.5984 8.02978,3.13725 16,3.13725 c 7.9702,0 14.4314,6.46115 14.4314,14.43135 z"
       fill="#ffffff"
       id="path1-3" /><path
       d="M 10.9804,1.2549 16,6.90196 21.0196,1.2549 Z"
       fill="#000000"
       id="path2-5" /><path
       fill-rule="evenodd"
       clip-rule="evenodd"
       d="M 16,8.79084 8.18591,0 H 23.814 Z M 16,6.90196 21.0196,1.2549 H 10.9804 Z"
       fill="#ffffff"
       id="path3" /></g><path
     d="m 19.877,22.0539 h -2.4979 l -1.7304,-2.8882 h -1.2749 v 2.8882 H 12.123 V 12.947 h 3.5387 c 1.301,0 2.2638,0.2558 2.8882,0.7675 0.6245,0.5118 0.9368,1.2316 0.9368,2.1597 0,0.7025 -0.1518,1.2923 -0.4554,1.7693 -0.2949,0.4684 -0.7112,0.824 -1.2489,1.0668 z m -5.5032,-7.1815 v 2.3678 h 1.2229 c 0.4597,0 0.8196,-0.1041 1.0798,-0.3122 0.2689,-0.2168 0.4033,-0.5291 0.4033,-0.9367 0,-0.373 -0.1214,-0.6505 -0.3643,-0.8327 -0.2428,-0.1908 -0.6288,-0.2862 -1.1578,-0.2862 z"
     fill="#0e141b"
     id="path2-2" /></svg>
