<?xml version="1.0" encoding="UTF-8" standalone="no"?>
<svg
   width="32"
   height="32"
   viewBox="0 0 32 32"
   fill="none"
   version="1.1"
   id="svg1"
   xml:space="preserve"
   xmlns="http://www.w3.org/2000/svg"
   xmlns:svg="http://www.w3.org/2000/svg"><defs
     id="defs1"><mask
       maskUnits="userSpaceOnUse"
       id="mask-powermask-path-effect4"><path
         id="mask-powermask-path-effect4_box"
         style="fill:#ffffff;fill-opacity:1"
         d="m 0.568615,2.31785 h 30.86277 V 33.1806 H 0.568615 Z" /><path
         fill-rule="evenodd"
         clip-rule="evenodd"
         d="M 20.360697,8.801739 C 21.37684,7.72687 22,6.2765 22,4.680586 22,1.366894 19.313638,-1.3194 15.999932,-1.3194 12.686227,-1.3194 10,1.366894 10,4.680586 c 0,1.595941 0.623025,3.046338 1.639168,4.121194 0.03888,0.04104 0.07816,0.08153 0.118125,0.121445 0.803654,0.803641 1.834243,1.380374 2.987276,1.62583 0.404865,0.08618 0.824849,0.131531 1.255363,0.131531 0.43065,0 0.850634,-0.04536 1.255499,-0.131558 0.08195,-0.01745 0.16335,-0.03659 0.243944,-0.05733 1.110914,-0.285808 2.097223,-0.881724 2.861322,-1.689955 z"
         id="path4"
         style="display:inline;fill:#000000;fill-opacity:1;stroke:none;stroke-width:1.34999;stroke-opacity:1"
         mask="none" /></mask></defs><path
     d="m 30.431385,17.7492 c 0,7.9703 -6.4612,14.4314 -14.4314,14.4314 -7.97022,0 -14.43137,-6.4611 -14.43137,-14.4314 0,-7.9702 6.46115,-14.43135 14.43137,-14.43135 7.9702,0 14.4314,6.46115 14.4314,14.43135 z"
     fill="#ffffff"
     id="path1-3-5"
     style="color:#000000;font-style:normal;font-variant:normal;font-weight:normal;font-stretch:normal;font-size:medium;line-height:normal;font-family:sans-serif;font-variant-ligatures:normal;font-variant-position:normal;font-variant-caps:normal;font-variant-numeric:normal;font-variant-alternates:normal;font-variant-east-asian:normal;font-feature-settings:normal;font-variation-settings:normal;text-indent:0;text-align:start;text-decoration-line:none;text-decoration-style:solid;text-decoration-color:#000000;letter-spacing:normal;word-spacing:normal;text-transform:none;writing-mode:lr-tb;direction:ltr;text-orientation:mixed;dominant-baseline:auto;baseline-shift:baseline;text-anchor:start;white-space:normal;shape-padding:0;shape-margin:0;inline-size:0;clip-rule:nonzero;display:inline;overflow:visible;visibility:visible;isolation:auto;mix-blend-mode:normal;color-interpolation:sRGB;color-interpolation-filters:linearRGB;solid-color:#000000;solid-opacity:1;vector-effect:none;fill:#ffffff;fill-opacity:1;fill-rule:nonzero;stroke:none;stroke-linecap:butt;stroke-linejoin:miter;stroke-miterlimit:4;stroke-dasharray:none;stroke-dashoffset:0;stroke-opacity:1;-inkscape-stroke:none;color-rendering:auto;image-rendering:auto;shape-rendering:auto;text-rendering:auto;enable-background:accumulate;stop-color:#000000"
     mask="url(#mask-powermask-path-effect4)"
     clip-path="none" /><path
     fill-rule="evenodd"
     clip-rule="evenodd"
     d="m 19.23015,7.4971499 c 0.7527,-0.7962 1.2143,-1.87055 1.2143,-3.05271 C 20.44445,1.9898499 18.45455,0 15.99995,0 c -2.4546,0 -4.4444,1.9898499 -4.4444,4.4444399 0,1.18218 0.4615,2.25655 1.2142,3.05274 0.0288,0.0304 0.0579,0.06039 0.0875,0.08996 0.5953,0.59529 1.3587,1.0225 2.2128,1.20432 0.2999,0.06384 0.611,0.09743 0.9299,0.09743 0.319,0 0.6301,-0.0336 0.93,-0.09745 0.0607,-0.01293 0.121,-0.0271 0.1807,-0.04247 0.8229,-0.21171 1.5535,-0.65313 2.1195,-1.25182 z"
     fill="#ffffff"
     id="path1"
     mask="none"
     clip-path="none"
     style="color:#000000;font-style:normal;font-variant:normal;font-weight:normal;font-stretch:normal;font-size:medium;line-height:normal;font-family:sans-serif;font-variant-ligatures:normal;font-variant-position:normal;font-variant-caps:normal;font-variant-numeric:normal;font-variant-alternates:normal;font-variant-east-asian:normal;font-feature-settings:normal;font-variation-settings:normal;text-indent:0;text-align:start;text-decoration-line:none;text-decoration-style:solid;text-decoration-color:#000000;letter-spacing:normal;word-spacing:normal;text-transform:none;writing-mode:lr-tb;direction:ltr;text-orientation:mixed;dominant-baseline:auto;baseline-shift:baseline;text-anchor:start;white-space:normal;shape-padding:0;shape-margin:0;inline-size:0;clip-rule:evenodd;display:inline;overflow:visible;visibility:visible;isolation:auto;mix-blend-mode:normal;color-interpolation:sRGB;color-interpolation-filters:linearRGB;solid-color:#000000;solid-opacity:1;vector-effect:none;fill:#ffffff;fill-opacity:1;fill-rule:evenodd;stroke:none;stroke-linecap:butt;stroke-linejoin:miter;stroke-miterlimit:4;stroke-dasharray:none;stroke-dashoffset:0;stroke-opacity:1;-inkscape-stroke:none;color-rendering:auto;image-rendering:auto;shape-rendering:auto;text-rendering:auto;enable-background:accumulate;stop-color:#000000" /><path
     d="m 19.877,22.55345 h -2.4979 l -1.7304,-2.8882 h -1.2749 v 2.8882 H 12.123 v -9.1069 h 3.5387 c 1.301,0 2.2638,0.2558 2.8882,0.7675 0.6245,0.5118 0.9368,1.2316 0.9368,2.1597 0,0.7025 -0.1518,1.2923 -0.4554,1.7693 -0.2949,0.4684 -0.7112,0.824 -1.2489,1.0668 z m -5.5032,-7.1815 v 2.3678 h 1.2229 c 0.4597,0 0.8196,-0.1041 1.0798,-0.3122 0.2689,-0.2168 0.4033,-0.5291 0.4033,-0.9367 0,-0.373 -0.1214,-0.6505 -0.3643,-0.8327 -0.2428,-0.1908 -0.6288,-0.2862 -1.1578,-0.2862 z"
     fill="#0e141b"
     id="path2-2" /></svg>
