<?xml version="1.0" encoding="UTF-8" standalone="no"?>
<svg
   width="32"
   height="32"
   viewBox="0 0 32 32"
   fill="none"
   version="1.1"
   id="svg1"
   xml:space="preserve"
   xmlns="http://www.w3.org/2000/svg"
   xmlns:svg="http://www.w3.org/2000/svg"><defs
     id="defs1" /><g
     style="fill:none"
     id="g3"><path
       d="M 30.5,16 C 30.5,24.0081 24.0081,30.5 16,30.5 7.99187,30.5 1.5,24.0081 1.5,16 1.5,7.99187 7.99187,1.5 16,1.5 24.0081,1.5 30.5,7.99187 30.5,16 Z"
       fill="#ffffff"
       id="path1" /><path
       d="M 19.7826,23.5652 16,27.9783 12.2174,23.5652 Z"
       fill="#000000"
       id="path2" /></g><path
     d="M 19.877043,20.5535 H 17.379115 L 15.648696,17.665269 H 14.373782 V 20.5535 h -2.250824 v -9.107 h 3.538739 c 1.301013,0 2.263824,0.255803 2.888231,0.767509 0.624508,0.511805 0.936811,1.231613 0.936811,2.159723 0,0.702508 -0.151802,1.292314 -0.455405,1.769319 -0.294904,0.468406 -0.711208,0.82401 -1.248914,1.066812 z m -5.503261,-7.181579 v 2.367826 h 1.222914 c 0.459705,0 0.819609,-0.104101 1.079811,-0.312203 0.268904,-0.216803 0.403306,-0.529106 0.403306,-0.936711 0,-0.373004 -0.121402,-0.650507 -0.364306,-0.832709 -0.242801,-0.190802 -0.628805,-0.286203 -1.157811,-0.286203 z"
     fill="#0e141b"
     id="path2-2"
     style="stroke-width:1.00001" /></svg>
