<svg width="32" height="32" fill="none" version="1.1" viewBox="0 0 32 32" xml:space="preserve" xmlns="http://www.w3.org/2000/svg"><path d="m8.1855 0 3.4004 3.8242c-5.8105 1.8654-10.018 7.314-10.018 13.744 0 7.9703 6.4614 14.432 14.432 14.432 7.9702 0 14.432-6.4613 14.432-14.432 0-6.4301-4.2071-11.879-10.018-13.744l3.4004-3.8242h-15.629zm2.7949 1.2559h10.039l-5.0195 5.6465-5.0195-5.6465zm1.1426 11.691h3.5391c1.301 0 2.2643 0.25588 2.8887 0.76758 0.6245 0.5118 0.93555 1.2321 0.93555 2.1602 0 0.7025-0.15148 1.2906-0.45508 1.7676-0.2949 0.4684-0.71035 0.82556-1.248 1.0684l2.0938 3.3438h-2.498l-1.7305-2.8887h-1.2754v2.8887h-2.25v-9.1074zm2.25 1.9258v2.3672h1.2246c0.4597 0 0.81792-0.1044 1.0781-0.3125 0.2689-0.2168 0.4043-0.52795 0.4043-0.93555 0-0.373-0.12233-0.65178-0.36523-0.83398-0.2428-0.1908-0.62725-0.28516-1.1562-0.28516h-1.1855z" fill="#fff"/></svg>
