<svg width="32" height="32" fill="none" version="1.1" viewBox="0 0 32 32" xml:space="preserve" xmlns="http://www.w3.org/2000/svg"><path d="m16 1.5c-8.0081 0-14.5 6.4919-14.5 14.5 0 8.0081 6.4919 14.5 14.5 14.5 8.0081 0 14.5-6.4919 14.5-14.5 0-8.0081-6.4919-14.5-14.5-14.5zm-3.877 9.9473h3.5391c1.301 0 2.2643 0.25587 2.8887 0.76758 0.62451 0.5118 0.93555 1.2301 0.93555 2.1582 0 0.70251-0.15148 1.2925-0.45508 1.7695-0.2949 0.4684-0.71034 0.8236-1.248 1.0664l2.0938 3.3438h-2.498l-1.7305-2.8867h-1.2754v2.8867h-2.25zm2.25 1.9238v2.3691h1.2246c0.4597 0 0.81792-0.1044 1.0781-0.3125 0.2689-0.2168 0.4043-0.5299 0.4043-0.9375 0-0.373-0.12233-0.64983-0.36523-0.83203-0.2428-0.1908-0.62724-0.28711-1.1562-0.28711z" fill="#fff"/></svg>
