<svg width="32" height="32" version="1.1" viewBox="0 0 32 32" xml:space="preserve" xmlns="http://www.w3.org/2000/svg"><path d="m10 4.6211c-4.9753 2.2774-8.4316 7.2994-8.4316 13.129 0 7.9703 6.4614 14.43 14.432 14.43 7.9702 0 14.432-6.4594 14.432-14.43 0-5.8295-3.4563-10.852-8.4316-13.129 1.88e-4 0.0196 0 0.038949 0 0.058594 0 1.5959-0.62253 3.0462-1.6387 4.1211-0.7641 0.80823-1.7504 1.4056-2.8613 1.6914-0.08059 0.02074-0.16219 0.03919-0.24414 0.05664-0.40486 0.0862-0.82521 0.13086-1.2559 0.13086-0.43051 0-0.85099-0.04468-1.2559-0.13086-1.153-0.24546-2.1827-0.82136-2.9863-1.625-0.039965-0.039915-0.080261-0.080054-0.11914-0.12109-1.0161-1.0749-1.6387-2.5271-1.6387-4.123 0-0.019646-1.884e-4 -0.038992 0-0.058594zm2.123 8.8262h3.5391c1.301 0 2.2643 0.25588 2.8887 0.76758 0.6245 0.5118 0.93555 1.2301 0.93555 2.1582 0 0.7025-0.15148 1.2925-0.45508 1.7695-0.2949 0.4684-0.71035 0.82361-1.248 1.0664l2.0938 3.3438h-2.498l-1.7305-2.8867h-1.2754v2.8867h-2.25zm2.25 1.9238v2.3691h1.2246c0.4597 0 0.81792-0.1044 1.0781-0.3125 0.2689-0.2168 0.4043-0.5299 0.4043-0.9375 0-0.373-0.12233-0.64983-0.36523-0.83203-0.2428-0.1908-0.62725-0.28711-1.1562-0.28711z" fill="#fff" stop-color="#000000"/><path d="m16 0c-2.4546 0-4.4453 1.9907-4.4453 4.4453 0 1.1822 0.46214 2.2565 1.2148 3.0527 0.0288 0.0304 0.05829 0.060274 0.08789 0.089844 0.5953 0.59529 1.3588 1.0213 2.2129 1.2031 0.2999 0.06384 0.61079 0.097656 0.92969 0.097656 0.319 0 0.62979-0.033806 0.92969-0.097656 0.0607-0.01293 0.12194-0.027599 0.18164-0.042969 0.8229-0.21171 1.5531-0.65131 2.1191-1.25 0.7527-0.7962 1.2148-1.8706 1.2148-3.0527 1e-6 -2.4546-1.9907-4.4453-4.4453-4.4453z" clip-rule="evenodd" fill="#fff" fill-rule="evenodd" stop-color="#000000"/></svg>
