<?xml version="1.0" encoding="UTF-8" standalone="no"?>
<svg
   width="32"
   height="32"
   viewBox="0 0 32 32"
   fill="none"
   version="1.1"
   id="svg3"
   xml:space="preserve"
   xmlns="http://www.w3.org/2000/svg"
   xmlns:svg="http://www.w3.org/2000/svg"><defs
     id="defs3" /><g
     id="g6"
     transform="translate(78,3)"><g
       style="fill:none"
       id="g5"
       transform="translate(-78,-3)"><path
         fill-rule="evenodd"
         clip-rule="evenodd"
         d="M 5.39331,26.6066 30.9999,1 v 15 c 0,8.2843 -6.7157,15 -15,15 -4.1421,0 -7.89212,-1.6789 -10.60659,-4.3934 z"
         fill="#dcdedf"
         id="path1-6" /><path
         fill-rule="evenodd"
         clip-rule="evenodd"
         d="M 31,1 H 1 v 15 c 0,4.1421 1.67893,7.8921 4.3934,10.6066 z"
         fill="#ffffff"
         id="path2-0" /></g></g><g
     id="g8"
     transform="translate(1.0902701)"><g
       style="fill:none"
       id="g1"
       transform="matrix(2.6666667,0,0,2.6666667,-8.9046936,-28.1228)"><path
         d="m 11.2796,18.1293 h -0.8467 v -3.444 H 9.21176 v -0.756 h 3.28894 v 0.756 h -1.2211 z"
         fill="#0e141b"
         id="path3" /></g><g
       style="fill:none"
       id="g7"
       transform="translate(-34.497377,-1.685249)"><path
         d="m 49.03836,21.907249 h -2.608 l -2.256,-3.776 h -0.272 -1.66403 v 3.776 h -2.352 v -11.2 h 4.19203 c 1.536,0 2.6666,0.3093 3.392,0.928 0.7253,0.608 1.088,1.4613 1.088,2.56 0,0.864 -0.192,1.584 -0.576,2.16 -0.3734,0.576 -0.9014,1.0133 -1.584,1.312 z m -6.80003,-9.2 v 3.408 h 1.84003 c 0.6186,0 1.0986,-0.1547 1.44,-0.464 0.352,-0.32 0.528,-0.7574 0.528,-1.312 0,-0.544 -0.1707,-0.9494 -0.512,-1.216 -0.3307,-0.2774 -0.864,-0.416 -1.6,-0.416 z"
         fill="#0e141b"
         id="path2-1" /></g></g></svg>
