<svg width="32" height="32" fill="none" version="1.1" viewBox="0 0 32 32" xml:space="preserve" xmlns="http://www.w3.org/2000/svg"><path d="m1 1v15c0 8.2843 6.7157 15 15 15 8.2843 0 15-6.7157 15-15v-15zm5.4785 8.0215h4.1934c1.536 0 2.6652 0.30903 3.3906 0.92773 0.7253 0.608 1.0879 1.4618 1.0879 2.5605 0 0.864-0.19022 1.5842-0.57422 2.1602-0.3734 0.576-0.90138 1.0138-1.584 1.3125l2.6387 4.2402h-2.6074l-2.2559-3.7773h-1.9355v3.7773h-2.3535zm10.271 0h8.7715v2.0156h-3.2578v9.1855h-2.2578v-9.1855h-3.2559zm-7.918 2v3.4082h1.8398c0.6186 0 1.0981-0.15359 1.4395-0.46289 0.352-0.32 0.52734-0.7579 0.52734-1.3125 0-0.544-0.17042-0.9502-0.51172-1.2168-0.3307-0.2774-0.86361-0.41602-1.5996-0.41602z" fill="#fff"/></svg>
