<svg width="32" height="32" fill="none" version="1.1" viewBox="0 0 32 32" xml:space="preserve" xmlns="http://www.w3.org/2000/svg"><path d="m15.994 1.8203-3.9824 3.7344 1.0996 1.0352 2.8828-2.6992 2.8887 2.6992 1.1055-1.0352zm0 4.0938-3.9824 3.7344 1.1055 1.0352 2.877-2.6992 2.8828 2.6992 1.1113-1.0352zm-10.439 6.0977-3.7344 3.9941 3.7344 3.9824 1.0352-1.0996-2.6992-2.8828 2.6992-2.8887zm4.0938 0-3.7344 3.9941 3.7344 3.9824 1.0352-1.1055-2.6992-2.877 2.6992-2.8828zm12.703 0-1.0352 1.1113 2.6992 2.8828-2.6992 2.877 1.0352 1.1055 3.7344-3.9824zm4.0938 0-1.0352 1.1055 2.6992 2.8887-2.6992 2.8828 1.0352 1.0996 3.7344-3.9824zm-13.328 9.3047-1.1055 1.0352 3.9824 3.7344 3.9941-3.7344-1.1113-1.0352-2.8828 2.6992zm-0.0059 4.0938-1.0996 1.0352 3.9824 3.7344 3.9941-3.7344-1.1055-1.0352-2.8887 2.6992zm-13.111-23.41c0-1.1046 0.89543-2 2-2h28c1.1046 0 2 0.89543 2 2v28c0 1.1046-0.8954 2-2 2h-28c-1.1046 0-2-0.8954-2-2z" fill="#fff"/></svg>
