<?xml version="1.0" encoding="UTF-8" standalone="no"?>
<svg
   width="32"
   height="32"
   viewBox="0 0 32 32"
   fill="none"
   version="1.1"
   id="svg3"
   xml:space="preserve"
   xmlns="http://www.w3.org/2000/svg"
   xmlns:svg="http://www.w3.org/2000/svg"><defs
     id="defs3" /><g
     style="fill:none"
     id="g2"
     transform="translate(1.50011,1.50011)"><g
       id="g1"><path
         d="M 14.49989,6.4751936e-8 A 14.499947,14.499947 0 0 0 6.4751936e-8,14.49989 14.499947,14.499947 0 0 0 14.49989,28.99978 14.499947,14.499947 0 0 0 28.99978,14.49989 14.499947,14.499947 0 0 0 14.49989,6.4751936e-8 Z M 5.4875205,6.8429933 H 15.89412 V 11.215336 H 14.0224 V 8.7147133 H 7.3592409 v 6.6626427 h 2.5838214 v 1.87172 H 5.4875205 V 7.7788535 Z"
         style="fill:#ffffff;stroke-width:0.076883"
         id="path2" /><path
         d="M 11.2913,12.349634 H 22.609472 V 23.668323 H 11.2913 V 13.367659 Z"
         style="fill:#000000;fill-opacity:1;stroke-width:0.076883"
         id="path3" /><path
         d="m 13.326835,14.385685 v 7.247103 h 7.247103 v -7.247103 z"
         style="fill:#ffffff;stroke-width:0.076883"
         id="path4" /><path
         d="m 5.4875205,6.8429933 v 0.9358602 9.4702225 h 4.4555418 v -1.87172 H 7.3592409 V 8.7147133 H 14.0224 v 2.5006227 h 1.87172 V 6.8429933 Z"
         style="fill:#000000;fill-opacity:1;stroke-width:0.076883"
         id="path1" /></g></g></svg>
