<svg version="1.1" viewBox="0 0 36 36" xmlns="http://www.w3.org/2000/svg">
 <path fill="#fff" d="m10.779 0c-0.085136-1.5625e-7 -0.17821 0.0082181-0.2793 0.025391-4.9595 1.239-9.3368 2.1541-9.8203 5.043v0.37695c0.35633-0.81623 0.92334-1.4463 1.8086-2.1602 2.9175-1.5037 5.3638-2.1405 8.8418-2.8418v-0.21094c-0.11188-0.15456-0.29537-0.23242-0.55078-0.23242zm13.979 0c-0.25541 4.6875e-7 -0.4389 0.077862-0.55078 0.23242v0.21094c3.478 0.7013 5.9243 1.3381 8.8418 2.8418 0.88526 0.7139 1.4523 1.3439 1.8086 2.1602v-0.37695c-0.4835-2.8889-4.8608-3.804-9.8203-5.043-0.10108-0.017172-0.19416-0.025391-0.2793-0.025391zm-13.428 0.80078c-2.925 0.58682-6.6701 1.8095-8.6543 2.8633-0.76788 0.65208-1.434 1.4728-1.998 2.4648-0.44739 0.82537-0.67223 1.3199-0.67773 1.4824l0.021484 13.934c-0.18589 5.9033 2.0019 9.8652 3.6719 11.426l7.3477 3.0059c0.29341 0.06811 0.47293-0.013564 0.48633-0.23437v-34.742c-0.014791-0.12067-0.080318-0.18672-0.19727-0.19922zm13.064 0c-0.11694 0.012505-0.18248 0.078562-0.19726 0.19922v34.742c0.0134 0.2208 0.19293 0.30247 0.48633 0.23437l7.3477-3.0059c1.664-1.5555 3.8402-5.4951 3.6719-11.363h-0.375c-0.0085-1.44e-4 -0.017661-0.00246-0.025391-0.00586-0.15564-0.0653-0.24548-0.25643-0.31836-0.48437-0.07288-0.22794-0.12096-0.49873-0.14258-0.73633-1.24e-4 -0.0023-1.24e-4 -0.003559 0-0.005859v-3.7715c-1.24e-4 -0.0023-1.24e-4 -0.005513 0-0.007813 0.04115-0.35745 0.24066-0.52494 0.43164-0.58398 0.0018-5.69e-4 0.004059-0.001453 0.005859-0.001953 0.19237-0.03901 0.34301-0.039745 0.46094-0.015625 0.0017-0.28926 0.00446-0.57789 0.00586-0.86719h-0.41797c-0.0084 3.2e-4 -0.017561-9.06e-4 -0.025391-0.003906-0.15564-0.06532-0.24548-0.25839-0.31836-0.48633s-0.12096-0.49873-0.14258-0.73633c-7.9e-5 -0.0018-7.9e-5 -0.00406 0-0.00586v-3.7715c-1.24e-4 -0.0023-1.24e-4 -0.003559 0-0.005859 0.04115-0.35745 0.24066-0.5269 0.43164-0.58594 0.0018-5.693e-4 0.004059-0.0015331 0.005859-0.0019531 0.19435-0.039413 0.3464-0.038879 0.46484-0.013672-0.0044-0.63453-0.010882-1.2699-0.019532-1.9043-0.0055-0.16251-0.2323-0.65515-0.67969-1.4805-0.56391-0.99198-1.2301-1.8148-1.998-2.4668-1.9844-1.0539-5.7272-2.2745-8.6523-2.8613v-0.0019531zm1.7559 2.4062 0.42969 0.091797 0.091797 0.42969-1.1523 1.1543-0.42969-0.09375-0.09375-0.42969 1.1543-1.1523zm-16.607 0.035156 1.1113 1.1113-0.089844 0.41406-0.41211 0.089844-1.1113-1.1113 0.087891-0.41406 0.41406-0.089844zm21.189 2c0.67208 0 1.2168 0.54475 1.2168 1.2168 0 0.67208-0.54475 1.2188-1.2168 1.2188-0.67207 0-1.2168-0.54666-1.2168-1.2188 0-0.67208 0.54476-1.2168 1.2168-1.2168zm-25.826 0.28711c1.0398 2.8e-6 2.0124 0.51692 2.5938 1.3789l-0.28516 0.19141c-0.51772-0.76753-1.3828-1.2266-2.3086-1.2266-0.92584 0-1.7909 0.45894-2.3086 1.2266l-0.31055-0.16602c0.58143-0.862 1.5793-1.4043 2.6191-1.4043zm21.242 0.36328 0.43164 0.09375 0.091797 0.42969-1.1523 1.1523-0.42969-0.09375-0.09375-0.42969 1.1523-1.1523zm-16.605 0.013672 1.1113 1.1113-0.089844 0.41406-0.41406 0.089844-1.1094-1.1113 0.087891-0.41406 0.41406-0.089844zm-4.6406 0.39844c0.0012999-2.2e-6 0.0026062 0 0.0039062 0 1.2992 1e-7 2.3515 1.0543 2.3516 2.3535 0 1.2992-1.0524 2.3516-2.3516 2.3516-1.2992 4e-6 -2.3535-1.0524-2.3535-2.3516-3e-7 -1.2979 1.0521-2.3515 2.3496-2.3535zm2.8379 1.0312c0.43126 0.92486 0.38523 2.001-0.125 2.8848-0.51022 0.8837-1.4209 1.4637-2.4375 1.5527l0.0019531-0.3457c0.88663-0.09318 1.6929-0.60498 2.1387-1.377 0.44575-0.77206 0.49346-1.711 0.13086-2.5254l0.29102-0.18945zm-5.6816 0.023438 0.30273 0.16602c-0.36262 0.81441-0.31295 1.7534 0.13281 2.5254 0.44577 0.77206 1.2482 1.2758 2.1348 1.3691l0.0039063 0.35352c-1.007-0.08809-1.9088-0.65831-2.4219-1.5293-0.51303-0.87093-0.56348-1.9614-0.15234-2.8848zm26.432 0.10938c0.67209 0 1.2168 0.54475 1.2168 1.2168 0 0.67208-0.54474 1.2168-1.2168 1.2168-0.67208 0-1.2168-0.54475-1.2168-1.2168 0-0.67208 0.54475-1.2168 1.2168-1.2168zm4.5781 0c0.67208 0 1.2168 0.54475 1.2168 1.2168 0 0.67208-0.54475 1.2168-1.2168 1.2168-0.67208 0-1.2168-0.54475-1.2168-1.2168 0-0.67208 0.54475-1.2168 1.2168-1.2168zm2.4766 2.1543c-0.06772 0.00174-0.14572 0.011282-0.23633 0.029297-0.15406 0.048043-0.30325 0.15864-0.33984 0.47656v3.7598c0.0209 0.2297 0.065946 0.49371 0.13477 0.70898 0.06795 0.21251 0.16654 0.36602 0.24609 0.40234h0.44336c9.77e-4 -2.1e-5 0.002906-2.1e-5 0.003906 0h0.001953c0.0061-0.001652 0.022993-0.008066 0.042969-0.025391 0.02436-0.02112 0.053605-0.054537 0.078125-0.091797 0.04905-0.074519 0.081128-0.17181 0.080078-0.20117v-0.001953-4.7422c2e-6 -0.00565-0.003454-0.11283-0.083984-0.19727-0.05997-0.062897-0.16794-0.12245-0.37109-0.11719zm-4.8125 0.10938c0.67207 0 1.2168 0.54475 1.2168 1.2168 0 0.67208-0.54476 1.2168-1.2168 1.2168s-1.2168-0.54475-1.2168-1.2168c0-0.67208 0.54476-1.2168 1.2168-1.2168zm-23.318 3.0801c1.8494 0 3.3496 1.5002 3.3496 3.3496-1e-6 1.8494-1.5002 3.3496-3.3496 3.3496s-3.3477-1.5002-3.3477-3.3496 1.4983-3.3496 3.3477-3.3496zm20.91 0.24805c1.0363 2e-6 2.0045 0.51397 2.584 1.373l-0.2832 0.19141c-0.51598-0.76502-1.378-1.2246-2.3008-1.2246-0.92277 0-1.7848 0.45961-2.3008 1.2246l-0.30859-0.16602c0.57948-0.85914 1.5731-1.3984 2.6094-1.3984zm-21.404 0.027344c-0.25051 0-0.45312 0.20262-0.45312 0.45312v1.4355c-7.61e-5 0.14275-0.079623 0.21687-0.23828 0.22266h-1.4355c-0.25051 0-0.45117 0.20067-0.45117 0.45117v1.0078c0 0.25051 0.20067 0.45117 0.45117 0.45117h1.4355c0.13734 0.01449 0.21147 0.094041 0.22266 0.23828v1.4355c0 0.25051 0.20262 0.45117 0.45312 0.45117h1.0059c0.25051 0 0.45312-0.20066 0.45312-0.45117v-1.4355c0.014491-0.14095 0.094052-0.21506 0.23828-0.22266h1.4355c0.25051 0 0.45117-0.20066 0.45117-0.45117v-1.0078c0-0.2505-0.20067-0.45117-0.45117-0.45117h-1.4355c-0.14945-0.0131-0.22364-0.092662-0.22266-0.23828v-1.4355c0-0.25051-0.20262-0.45312-0.45312-0.45312h-1.0059zm21.404 0.74414c1.2949-3.8e-5 2.3458 1.0508 2.3457 2.3457 3.9e-5 1.2949-1.0508 2.3438-2.3457 2.3438-1.2949 3.9e-5 -2.3438-1.0488-2.3438-2.3438-3.8e-5 -1.2949 1.0488-2.3458 2.3438-2.3457zm2.8262 1.0273c0.4298 0.92172 0.38157 1.9963-0.12695 2.877-0.50851 0.88077-1.4145 1.4583-2.4277 1.5469v-0.3457c0.88363-0.09288 1.6885-0.60356 2.1328-1.373 0.44426-0.76948 0.49224-1.7039 0.13086-2.5156l0.29102-0.18945zm-5.6641 0.023437 0.30273 0.16602c-0.3614 0.81169-0.3134 1.7461 0.13086 2.5156 0.44428 0.76948 1.2452 1.2723 2.1289 1.3652l0.003906 0.35352c-1.0036-0.0878-1.9028-0.6554-2.4141-1.5234-0.51129-0.86798-0.56206-1.9567-0.15234-2.877zm10.061 1.2207c-0.06772 0.0017-0.14767 0.009323-0.23828 0.027343-0.15406 0.04804-0.30325 0.1606-0.33984 0.47852v3.7598c0.0209 0.2297 0.067899 0.49374 0.13672 0.70898 0.06812 0.21303 0.16448 0.36848 0.24414 0.4043h0.44531 0.001953l0.001953-0.001953c0.0061-0.002059 0.022993-0.008066 0.042969-0.025391 0.02436-0.02112 0.053605-0.054537 0.078125-0.091797 0.04905-0.07452 0.081128-0.17181 0.080078-0.20117v-0.001953-4.7422c3e-6 -0.0057-0.001501-0.11479-0.082031-0.19922-0.05997-0.0629-0.16794-0.12049-0.37109-0.11523zm-9.4238 4.0469h4.2539c0.59988 0 1.082 0.47374 1.082 1.0605v4.1602c0 0.58679-0.48212 1.0605-1.082 1.0605h-4.2539c-0.59989 0-1.084-0.47374-1.084-1.0605v-4.1602c0-0.58679 0.4841-1.0605 1.084-1.0605zm-19.461 2.0996h1.5723l0.23047 0.35547-0.23047 0.35742h-1.5723l-0.22852-0.35742 0.22852-0.35547zm0 3.3477h1.5723l0.23047 0.35742-0.23047 0.35547h-1.5723l-0.22852-0.35547 0.22852-0.35742z"/>
</svg>
