<svg width="109.69mm" height="51.606mm" version="1.1" viewBox="0 0 109.69 51.606" xml:space="preserve" xmlns="http://www.w3.org/2000/svg" xmlns:xlink="http://www.w3.org/1999/xlink"><path d="m95.394 4.5031-1.6527 1.6527 0.13332 0.61605 0.61606 0.13334 1.6527-1.6527-0.13333-0.61606z" fill="none" stroke="#899099" stroke-width=".20692"/><path d="m95.394 8.3535-1.6527 1.6527 0.13332 0.61605 0.61606 0.13334 1.6527-1.6527-0.13333-0.61605z" fill="none" stroke="#899099" stroke-width=".20692"/><g fill="#899099"><g stroke-width=".0057201"><path d="m96.55 8.9761c-0.0457-1.2e-5 -0.0829 0.03705-0.0829 0.08281 0 0.04577 0.0371 0.08286 0.0829 0.08286h1.0423c0.0458 1e-5 0.0829-0.03708 0.0829-0.08286-1e-5 -0.04576-0.0371-0.08283-0.0829-0.08281z"/><path d="m96.553 8.6556c-0.0458 1.5e-5 -0.0829 0.03713-0.0829 0.08289 2e-5 0.04575 0.0371 0.08285 0.0829 0.08286h1.0423c0.0457-1.3e-5 0.0829-0.0371 0.0829-0.08286 2e-5 -0.04576-0.037-0.08288-0.0829-0.08289z"/><path d="m96.545 8.3352c-0.0459-1.2e-5 -0.0829 0.03711-0.0829 0.08289 1e-5 0.04577 0.0371 0.08287 0.0829 0.08286h1.0423c0.0457 1e-5 0.0829-0.03709 0.0829-0.08286 1e-5 -0.04578-0.037-0.0829-0.0829-0.08289z"/></g><path d="m96.559 4.5858h0.19098a0.1852 0.1852 0 0 0 0.35882 0h0.46879a0.046299 0.046299 0 0 0 0-0.09259h-0.46879a0.1852 0.1852 0 0 0-0.35882 0h-0.19098a0.046299 0.046299 0 0 0 0 0.09259m0.37039-0.1389a0.092599 0.092599 0 1 1-0.0926 0.0926 0.092599 0.092599 0 0 1 0.0926-0.0926m0.6482 0.60189h-0.0984a0.1852 0.1852 0 0 0-0.35883 0h-0.56137a0.046299 0.046299 0 0 0 0 0.09259h0.56137a0.1852 0.1852 0 0 0 0.35883 0h0.0984a0.046299 0.046299 0 0 0 0-0.09259m-0.27778 0.1389a0.092599 0.092599 0 1 1 0.0925-0.09259 0.092599 0.092599 0 0 1-0.0925 0.09259" stroke="#899099" stroke-width=".051731"/></g><g fill="none" stroke="#899099"><g stroke-width=".18"><path d="m95.354 28.791h6.0974c0.85982 0 1.552 0.67708 1.552 1.5181v5.9642c0 0.84104-0.6922 1.5181-1.552 1.5181h-6.0974c-0.85982 0-1.552-0.67708-1.552-1.5181v-5.9642c0-0.84104 0.69218-1.5181 1.552-1.5181z"/><path d="m101.87 23.094a3.3604 3.3604 0 0 1-3.3604 3.3604 3.3604 3.3604 0 0 1-3.3604-3.3604 3.3604 3.3604 0 0 1 3.3604-3.3604 3.3604 3.3604 0 0 1 3.3604 3.3604z"/><path d="m98.116 27.04c-1.2666-0.13312-2.4137-0.85411-3.0504-1.957-0.63676-1.1029-0.70705-2.4439-0.18906-3.6073l-0.43233-0.23588c-0.5873 1.3191-0.51561 2.8775 0.21724 4.1216 0.73287 1.2441 2.0218 2.0574 3.4602 2.1832z"/><path d="m101.81 20.869c-0.73956-1.0965-1.9757-1.7537-3.2982-1.7537-1.3226 0-2.5586 0.65724-3.2982 1.7537l-0.44259-0.23694c0.83056-1.2314 2.2555-2.0063 3.7408-2.0062 1.4853 3e-6 2.8735 0.73811 3.704 1.9695z"/><path d="m98.9 27.545c1.4522-0.12705 2.751-0.95452 3.4799-2.2169 0.72886-1.2624 0.79603-2.801 0.17998-4.1221l-0.41484 0.27005c0.51797 1.1634 0.44769 2.5045-0.18906 3.6073-0.63674 1.1029-1.789 1.8343-3.0555 1.9674z"/></g><path d="m103.71 15.602c0 0.96329-0.78091 1.7442-1.7442 1.7442s-1.7442-0.78091-1.7442-1.7442c0-0.96329 0.78091-1.7442 1.7442-1.7442s1.7442 0.78091 1.7442 1.7442z" stroke-width=".18044"/></g><path d="m102.74 16.383h-0.36564l-0.11039-0.31551h-0.6301l-0.10579 0.31551h-0.35184l0.6025-1.6239h0.34036zm-0.79338-1.2365-0.22076 0.64956h0.44613z" fill="#8a9199" stroke-width=".12029"/><path d="m107.05 12.356c0 0.96329-0.78091 1.7442-1.7442 1.7442-0.9633 0-1.7442-0.78091-1.7442-1.7442 0-0.96329 0.7809-1.7442 1.7442-1.7442 0.96329 0 1.7442 0.78091 1.7442 1.7442z" fill="none" stroke="#899099" stroke-width=".18044"/><path d="m105.72 12.272c0.20856 0.06341 0.31284 0.19642 0.31284 0.39902 0 0.14692-0.0537 0.26137-0.1611 0.34334-0.10739 0.08196-0.25135 0.12295-0.4319 0.12295h-0.67005v-1.6239h0.60468c0.19144 0 0.33307 0.03557 0.42489 0.10671 0.0918 0.07114 0.13776 0.17167 0.13776 0.30158 0 0.07269-0.0171 0.13919-0.0513 0.19951-0.0342 0.06031-0.0895 0.11057-0.16576 0.15078zm-0.60234-0.47556v0.39669h0.2358c0.0778 0 0.13774-0.01777 0.17976-0.05336 0.042-0.03711 0.0631-0.08892 0.0631-0.15543 0-0.12527-0.0833-0.1879-0.2498-0.1879zm0.28716 1.0602c0.0872 0 0.15253-0.01933 0.19611-0.05799 0.0451-0.03866 0.0677-0.0897 0.0677-0.15312 0-0.06805-0.0217-0.11909-0.0654-0.1531-0.0436-0.03557-0.10661-0.05336-0.18911-0.05336h-0.29649v0.41757z" fill="#8a9199"/><g stroke-width=".18044"><path d="m100.49 12.356c0 0.96329-0.78091 1.7442-1.7442 1.7442-0.96329 0-1.7442-0.78091-1.7442-1.7442 0-0.96329 0.7809-1.7442 1.7442-1.7442 0.9633 0 1.7442 0.78091 1.7442 1.7442z" fill="none" stroke="#899099"/><path d="m99.051 11.514h0.42963l-0.56822 0.77251 0.61904 0.8514h-0.41577l-0.37882-0.59157-0.36265 0.59157h-0.40652l0.57515-0.83979-0.55206-0.78412h0.41808l0.32107 0.52197z" fill="#8a9199"/><path d="m103.71 9.1666c0 0.96329-0.78091 1.7442-1.7442 1.7442-0.96329 0-1.7442-0.78091-1.7442-1.7442 0-0.96329 0.7809-1.7442 1.7442-1.7442 0.9633 0 1.7442 0.78091 1.7442 1.7442z" fill="none" stroke="#899099"/></g><path d="m102.13 9.9485h-0.33241v-0.64724l-0.55554-0.97667h0.38706l0.34607 0.64956 0.34834-0.64956h0.36201l-0.55553 0.97899z" fill="#8a9199"/><g fill="none"><path d="m92.877 1.056v-0.63333c0.2138-0.29538 0.61045-0.39383 1.19-0.29538 6.8738 2.2313 13.498 3.515 14.076 7.7037v0.86224" stroke="#899099" stroke-width=".18044" style="paint-order:normal"/><g stroke="#888f97" stroke-linejoin="round" stroke-width=".18"><path d="m109.6 23.439v6.7965c6e-3 0.17068-0.227 0.55741-0.38433 0.55117h-0.66856c-0.33788-0.14182-0.54468-1.0064-0.60562-1.6762v-5.4066c0.0558-0.48474 0.30629-0.68567 0.55394-0.76222 1.0887-0.22081 1.1046 0.45708 1.1046 0.49738z"/><path d="m109.6 14.151v6.7965c6e-3 0.17068-0.227 0.55741-0.38433 0.55117h-0.66856c-0.33788-0.14182-0.54468-1.0064-0.60562-1.6762v-5.4066c0.0558-0.48474 0.30629-0.68567 0.55394-0.76222 1.0887-0.22081 1.1046 0.45708 1.1046 0.49738z"/><path d="m92.877 1.056c4.1924 0.84109 9.5589 2.5921 12.403 4.1026 1.1006 0.93462 2.055 2.1128 2.8632 3.5347 0.64125 1.183 0.96581 1.8909 0.97369 2.1239v2.8127"/><path d="m109.22 21.498v1.4461"/><path d="m109.09 30.787c0.26644 8.4612-2.8678 14.14-5.2614 16.377l-10.532 4.3092c-0.42054 0.09762-0.67842-0.01941-0.69762-0.33589v-49.795c0.0212-0.17295 0.11563-0.26838 0.28325-0.2863"/></g><path d="m13.77 4.5558 1.5925 1.5925-0.12848 0.59362-0.59363 0.12849-1.5925-1.5925 0.12848-0.59363z" stroke="#899099" stroke-width=".18"/><path d="m13.77 8.3743 1.5925 1.5925-0.12848 0.59363-0.59363 0.12849-1.5925-1.5926 0.12848-0.59363z" stroke="#899099" stroke-width=".18"/></g><g fill="#899099"><path d="m12.203 5.6608c-0.27454-0.04784-0.456-0.31019-0.4053-0.58595 0.0057-0.03133 0.01876-0.07585 0.02796-0.09569l0.0035-0.0076 0.09074 0.05263c0.0499 0.02894 0.0909 0.05346 0.09111 0.05447 2.06e-4 9.97e-4 -0.0011 0.0069-0.0029 0.01302-0.04432 0.15353 0.06164 0.33058 0.21517 0.35949l0.0049 9.25e-4v0.21219l-0.0035-1.03e-4c-2e-3 -6.8e-5 -0.01176-0.0015-0.0217-0.0033zm0.14268-0.10244 3.44e-4 -0.10579 0.01381-0.0036c0.15439-0.04074 0.24783-0.1989 0.2085-0.3529-0.0019-0.0072-0.0029-0.01358-0.0024-0.01411 0.0025-0.0025 0.1825-0.10143 0.18372-0.10097 7.65e-4 3.09e-4 0.0042 0.0085 0.0076 0.01818 0.09276 0.26335-0.04528 0.55138-0.30754 0.64169-0.03141 0.01083-0.08573 0.02334-0.10122 0.02334h-0.0032zm0.15177-0.59047c-0.10962-0.11897-0.29928-0.12115-0.41495-0.0048-0.01223 0.01231-0.01239 0.01241-0.01578 0.01039-0.0019-0.0011-0.04218-0.02441-0.08955-0.0518s-0.08697-0.0506-0.088-0.05157c-0.0027-0.0025 0.01861-0.02865 0.04588-0.05606 0.21046-0.21147 0.55574-0.19211 0.74264 0.04164 0.0082 0.01017 0.01479 0.01914 0.0148 0.01996 1.5e-5 0.0012-0.18248 0.10356-0.18428 0.1034-2.41e-4 -2.3e-5 -0.0051-0.0051-0.01072-0.01123z" stroke-width=".00098805"/><path d="m12.079 8.5253v0.67065h0.67065v-0.67065zm0.12059 0.12059h0.42947v0.42947h-0.42947z" stroke-width=".0045556"/><path d="m11.735 8.199v0.61659h0.264v-0.1109h-0.1531v-0.39478h0.39481v0.14817h0.11091v-0.25908z" stroke-width=".0045556"/></g><g fill="none"><g stroke="#899099"><g stroke-width=".18"><path d="m10.495 12.316a3.3718 3.3718 0 0 1-3.3718 3.3718 3.3718 3.3718 0 0 1-3.3718-3.3718 3.3718 3.3718 0 0 1 3.3718-3.3718 3.3718 3.3718 0 0 1 3.3718 3.3718z"/><path d="m6.7265 16.276c-1.2708-0.13356-2.4218-0.85699-3.0607-1.9636-0.63892-1.1066-0.70944-2.4522-0.18969-3.6195l-0.43379-0.23667c-0.58928 1.3236-0.51735 2.8872 0.21798 4.1355 0.73533 1.2483 2.0286 2.0643 3.4719 2.1906z"/><path d="m10.432 10.084c-0.74206-1.1002-1.9823-1.7596-3.3093-1.7596s-2.5673 0.65946-3.3093 1.7596l-0.44409-0.23774c0.83337-1.2355 2.2631-2.013 3.7534-2.013 1.4903 4e-6 2.8832 0.7406 3.7165 1.9761z"/><path d="m7.5136 16.782c1.4571-0.12748 2.7603-0.95774 3.4916-2.2244 0.73132-1.2667 0.79872-2.8105 0.18059-4.136l-0.41624 0.27096c0.51972 1.1673 0.4492 2.5129-0.18969 3.6195-0.63889 1.1066-1.795 1.8405-3.0658 1.974z"/><path d="m9.3601 21.373v-2.057c0-0.35905 0.28905-0.6481 0.6481-0.6481h1.4434c0.35905 0 0.6481 0.28905 0.6481 0.6481v2.057c-0.0014 0.20873 0.10514 0.32248 0.31935 0.34126h2.057c0.35905 0 0.6481 0.28905 0.6481 0.6481v1.4434c0 0.35905-0.28905 0.6481-0.6481 0.6481h-2.057c-0.20674 0.01088-0.32049 0.11733-0.34126 0.31935v2.057c0 0.35905-0.28905 0.6481-0.6481 0.6481h-1.4434c-0.35905 0-0.6481-0.28905-0.6481-0.6481v-2.057c-0.016049-0.20674-0.1225-0.32049-0.31935-0.34126h-2.057c-0.35904 0-0.6481-0.28905-0.6481-0.6481v-1.4434c0-0.35905 0.28905-0.6481 0.6481-0.6481h2.057c0.2274-0.0083 0.34116-0.11475 0.34127-0.31935z"/><path d="m15.519 23.073a4.7997 4.7997 0 0 1-4.7997 4.7997 4.7997 4.7997 0 0 1-4.7997-4.7997 4.7997 4.7997 0 0 1 4.7997-4.7997 4.7997 4.7997 0 0 1 4.7997 4.7997z"/></g><path d="m16.33 1.056v-0.63333c-0.2138-0.29538-0.61045-0.39383-1.19-0.29538-6.8738 2.2313-13.498 3.515-14.076 7.7037v0.86224" stroke-width=".18044" style="paint-order:normal"/></g><g stroke-width=".18"><path d="m16.33 1.056c-4.1924 0.84109-9.5588 2.5921-12.403 4.1026-1.1006 0.93462-2.055 2.1128-2.8632 3.5347-0.64125 1.183-0.9658 1.8909-0.97368 2.1239l0.0323 19.969c-0.26644 8.4612 2.8678 14.14 5.2614 16.377l10.532 4.3092c0.42054 0.09762 0.67842-0.01941 0.69762-0.33589v-49.795c-0.0212-0.17295-0.11563-0.26838-0.28325-0.2863" stroke="#888f97" stroke-linejoin="round"/><path d="m9.6412 31.799h2.2522l0.32891 0.51061-0.32891 0.51061-2.2522-1e-6 -0.32891-0.51061z" stroke="#899099"/><path d="m9.6412 36.598h2.2522l0.32891 0.51061-0.32891 0.51061-2.2522-1e-6 -0.32891-0.51061z" stroke="#899099"/></g><g stroke="#888f97" stroke-linejoin="round" stroke-width=".18"><path d="m16.876 0.95859h75.387v50.558h-75.387z"/><path d="m77.066 0.36563h3.8369v0.59296h-3.8369z"/><path d="m82.757 0.36563h3.8369v0.59296h-3.8369z"/><path d="m19.454 2.0365h70.319c0.73002 0 1.3177 0.58771 1.3177 1.3177v45.979c0 0.73002-0.58771 1.3177-1.3177 1.3177h-70.319c-0.73002 0-1.3177-0.58771-1.3177-1.3177v-45.979c0-0.73002 0.58771-1.3177 1.3177-1.3177z"/><path d="m21.204 3.7892h66.812c0.73003 0 1.3177 0.58771 1.3177 1.3177v41.018c0 0.73002-0.58771 1.3177-1.3177 1.3177h-66.812c-0.73002 0-1.3177-0.58771-1.3177-1.3177v-41.018c0-0.73002 0.58771-1.3177 1.3177-1.3177z"/><path d="m46.894 50.437a0.1827 0.21331 0 0 1-0.1827 0.21331 0.1827 0.21331 0 0 1-0.1827-0.21331 0.1827 0.21331 0 0 1 0.1827-0.21331 0.1827 0.21331 0 0 1 0.1827 0.21331z"/><path d="m62.086 50.433a0.17813 0.21788 0 0 1-0.17813 0.21788 0.17813 0.21788 0 0 1-0.17813-0.21788 0.17813 0.21788 0 0 1 0.17813-0.21788 0.17813 0.21788 0 0 1 0.17813 0.21788z"/></g></g></svg>
