<svg width="50.684mm" height="51.599mm" version="1.1" viewBox="0 0 50.684 51.599" xml:space="preserve" xmlns="http://www.w3.org/2000/svg"><g fill="#889099"><path d="m16.24 1.1481c-4.1924 0.84109-9.5591 2.5921-12.403 4.1026-1.1006 0.93462-2.0551 2.1128-2.8634 3.5347-0.64125 1.183-0.9657 1.891-0.97358 2.1239l0.032556 19.97c-0.26644 8.4612 2.8676 14.14 5.2612 16.377l10.532 4.3088c0.42054 0.09762 0.67843-0.01941 0.69763-0.3359v-49.795c-0.0212-0.17295-0.11557-0.26837-0.28319-0.28629zm-2.56 3.5 1.5927 1.5927-0.12868 0.59376-0.59324 0.12816-1.5927-1.5927 0.12816-0.59325zm-6.6472 3.2778c1.4903 4e-6 2.8832 0.7406 3.7166 1.9761l-0.40721 0.2744c-0.74205-1.1001-1.9824-1.7596-3.3094-1.7596s-2.5673 0.65943-3.3094 1.7596l-0.44442-0.23771c0.83337-1.2355 2.2635-2.0128 3.7538-2.0128zm6.6471 0.54053 1.5927 1.5927-0.12868 0.59376-0.59324 0.12816-1.5927-1.5922 0.12816-0.59376zm-6.6529 0.57051c0.00187-3.1e-6 0.00381 0 0.00568 0 1.8621 2e-7 3.3713 1.5097 3.3714 3.3719 0 1.8622-1.5092 3.3714-3.3714 3.3714-1.8622 5e-6 -3.3719-1.5092-3.3719-3.3714-4e-7 -1.8603 1.5066-3.3689 3.3662-3.3719zm4.0685 1.4769c0.61813 1.3256 0.55045 2.8695-0.18087 4.1362-0.7313 1.2666-2.0342 2.0972-3.4913 2.2247l5.167e-4 -0.49609c1.2708-0.13356 2.4265-0.86748 3.0654-1.974 0.63889-1.1066 0.70937-2.4521 0.18965-3.6194zm-8.1437 0.03462 0.43408 0.23668c-0.51974 1.1673-0.44926 2.5128 0.18965 3.6194 0.63892 1.1066 1.79 1.8301 3.0608 1.9637l0.00568 0.50643c-1.4433-0.12626-2.7368-0.94226-3.4721-2.1906-0.73533-1.2483-0.80736-2.8121-0.21807-4.1357zm7.6765 7.8171c2.6508 0 4.7997 2.1489 4.7997 4.7997-1e-6 2.6508-2.1489 4.7997-4.7997 4.7997s-4.7997-2.1489-4.7997-4.7997c-3e-7 -2.6508 2.1489-4.7997 4.7997-4.7997zm-0.71055 0.39429c-0.35905 0-0.64802 0.28898-0.64802 0.64802v2.0572c-1.09e-4 0.2046-0.11418 0.31106-0.34158 0.31936h-2.0567c-0.35905 0-0.64802 0.28898-0.64802 0.64802v1.4433c0 0.35905 0.28898 0.64802 0.64802 0.64802h2.0567c0.19685 0.02077 0.30331 0.13484 0.31936 0.34158v2.0567c0 0.35905 0.28949 0.64802 0.64854 0.64802h1.4433c0.35905 0 0.64802-0.28897 0.64802-0.64802v-2.0567c0.02077-0.20202 0.13433-0.30848 0.34106-0.31936h2.0572c0.35905 0 0.64802-0.28949 0.64802-0.64854v-1.4433c0-0.35904-0.28898-0.64802-0.64802-0.64802h-2.0572c-0.21421-0.01878-0.32076-0.13234-0.31936-0.34106v-2.0572c0-0.35905-0.28898-0.64802-0.64802-0.64802zm-0.3669 13.131h2.2521l0.32918 0.51056-0.32918 0.51056h-2.2521l-0.32918-0.51056zm0 4.7992h2.2521l0.32918 0.51056-0.32918 0.51056h-2.2521l-0.32918-0.51056z"/><path d="m16.24 0.63676v-0.30447c-0.2138-0.29538-0.61045-0.39383-1.19-0.29538-7.1084 1.7758-13.383 3.0869-14.076 7.2275v0.53978c0.51073-1.1699 1.323-2.0727 2.5919-3.0959 4.1817-2.1552 7.6889-3.0664 12.674-4.0716z" style="paint-order:normal"/><path d="m33.782 0.63676v-0.30447c0.2138-0.29538 0.61045-0.39383 1.19-0.29538 7.1084 1.7758 13.383 3.0869 14.076 7.2275v0.53978c-0.51073-1.1699-1.323-2.0727-2.5919-3.0959-4.1817-2.1552-7.6889-3.0664-12.674-4.0716z" style="paint-order:normal"/><path d="m34.05 1.1481c-0.16761 0.017924-0.26199 0.11335-0.28319 0.28629v49.795c0.0192 0.31648 0.27658 0.43352 0.69712 0.3359l10.532-4.3088c2.385-2.2295 5.5056-7.8757 5.2643-16.287h-0.53898c-0.01212-2.07e-4 -0.02407-0.0029-0.03514-0.0078-0.22308-0.09359-0.35288-0.36881-0.45734-0.69552-0.10446-0.3267-0.1721-0.71415-0.20309-1.0547-1.78e-4 -0.0033-1.78e-4 -0.0065 0-0.0098v-5.4059c-1.78e-4 -0.0033-1.78e-4 -0.0065 0-0.0098 0.05898-0.51233 0.34379-0.75357 0.61753-0.83819 0.0026-8.16e-4 0.0052-0.0015 0.0078-0.0021 0.27572-0.05592 0.49244-0.05627 0.66146-0.0217 0.0025-0.4146 0.0051-0.82925 0.0072-1.2439h-0.59843c-0.01198 4.58e-4 -0.02392-0.0015-0.03514-0.0057-0.22308-0.09363-0.35288-0.37041-0.45734-0.69712-0.10446-0.3267-0.1721-0.71415-0.20309-1.0547-1.13e-4 -0.0026-1.13e-4 -0.0052 0-0.0078v-5.4064c-1.78e-4 -0.0033-1.78e-4 -0.0065 0-0.0098 0.05898-0.51233 0.34379-0.75512 0.61753-0.83974 0.0026-8.16e-4 0.0052-0.0015 0.0078-0.0021 0.27856-0.05649 0.49687-0.05577 0.66663-0.01964-0.0065-0.90928-0.01552-1.8187-0.02791-2.728-0.0079-0.23292-0.33234-0.94093-0.97358-2.1239-0.80825-1.4218-1.7628-2.6001-2.8634-3.5347-2.8443-1.5105-8.2105-3.2615-12.403-4.1026zm2.5161 3.4473 0.6165 0.13333 0.13333 0.61598-1.6531 1.6526-0.61598-0.13333-0.13332-0.61598zm6.568 2.9192c0.96329 0 1.7441 0.78079 1.7441 1.7441 0 0.96329-0.78079 1.7446-1.7441 1.7446-0.96328 0-1.7441-0.7813-1.7441-1.7446 0-0.96329 0.7808-1.7441 1.7441-1.7441zm-6.5681 0.93121 0.6165 0.13333 0.13333 0.61598-1.6531 1.6526-0.61598-0.13332-0.13332-0.61598zm3.356 2.2583c0.9633 0 1.7441 0.78079 1.7441 1.7441 0 0.96329-0.78078 1.7441-1.7441 1.7441-0.96329 0-1.7441-0.78079-1.7441-1.7441 0-0.96329 0.78079-1.7441 1.7441-1.7441zm6.5603 0c0.96329 0 1.7441 0.78079 1.7441 1.7441 0 0.96329-0.78079 1.7441-1.7441 1.7441-0.96329 0-1.7441-0.78079-1.7441-1.7441 0-0.96329 0.78079-1.7441 1.7441-1.7441zm3.5508 3.0897c-0.09706 0.0025-0.20913 0.015-0.339 0.04082-0.22081 0.06886-0.43589 0.22801-0.48834 0.68368v5.3883c0.02995 0.32923 0.0967 0.70745 0.19534 1.016 0.09739 0.30459 0.23738 0.52568 0.3514 0.57774h0.63665c0.0014-3.1e-5 0.0027-3.1e-5 0.0041 0 0.0046-8.13e-4 0.03187-0.0083 0.0646-0.03669 0.03491-0.03027 0.07595-0.07786 0.1111-0.13126 0.0703-0.10681 0.11674-0.24679 0.11524-0.28887-3.1e-5 -0.0014-3.1e-5 -0.0027 0-0.0041v-6.7965c4e-6 -0.0081-0.0035-0.16217-0.11886-0.28319-0.08596-0.09015-0.24109-0.17342-0.53227-0.16588zm-6.8988 0.15606c0.96328 0 1.7441 0.78079 1.7441 1.7441 0 0.96329-0.7808 1.7441-1.7441 1.7441s-1.7441-0.78079-1.7441-1.7441c0-0.96329 0.7808-1.7441 1.7441-1.7441zm-3.451 4.7687c1.4853 3e-6 2.8731 0.73803 3.7036 1.9694l-0.40566 0.27388c-0.73956-1.0965-1.9754-1.7539-3.298-1.7539s-2.5589 0.65745-3.2985 1.7539l-0.44235-0.2372c0.83056-1.2314 2.2556-2.0061 3.7409-2.0061zm0 1.1074c1.856-5.5e-5 3.3606 1.5045 3.3605 3.3605 5.5e-5 1.856-1.5045 3.3606-3.3605 3.3605-1.856 5.5e-5 -3.3606-1.5045-3.3605-3.3605-5.5e-5 -1.856 1.5045-3.3606 3.3605-3.3605zm4.0494 1.4723c0.61604 1.3211 0.54851 2.8598-0.18035 4.1222-0.72885 1.2624-2.0277 2.0899-3.4799 2.2169l5.17e-4 -0.49454c1.2665-0.13312 2.4189-0.86444 3.0556-1.9673 0.63675-1.1029 0.7071-2.4441 0.18914-3.6075zm-8.1163 0.03411 0.43202 0.23564c-0.51799 1.1634-0.44762 2.5046 0.18914 3.6075 0.63678 1.1029 1.7839 1.8239 3.0505 1.957l0.0057 0.50488c-1.4384-0.12585-2.7274-0.93919-3.4603-2.1833-0.73285-1.2441-0.80434-2.8026-0.21704-4.1217zm14.417 1.7482c-0.09706 0.0025-0.20913 0.015-0.339 0.04082-0.22081 0.06886-0.43589 0.23007-0.48834 0.68575v5.3868c0.02995 0.32923 0.0967 0.709 0.19534 1.0175 0.09763 0.30534 0.23723 0.52692 0.3514 0.57826h0.63665c0.0014-3.1e-5 0.0027-3.1e-5 0.0041 0 0.0046-1e-3 0.03187-0.0109 0.0646-0.03927 0.03491-0.03027 0.07595-0.07734 0.1111-0.13074 0.0703-0.10681 0.11674-0.24679 0.11524-0.28887-8e-6 -7e-4 -8e-6 -0.0014 0-0.0021v-6.797c4e-6 -0.0081-0.0035-0.16424-0.11886-0.28525-0.08596-0.09015-0.24109-0.17342-0.53227-0.16588zm-13.507 5.8022h6.0973c0.85981 0 1.5524 0.67722 1.5524 1.5183v5.964c0 0.84104-0.69255 1.5183-1.5524 1.5183h-6.0973c-0.85982 0-1.5518-0.67722-1.5518-1.5183v-5.964c0-0.84104 0.69202-1.5183 1.5518-1.5183z"/></g></svg>
