<svg width="232.23mm" height="102.7mm" version="1.1" viewBox="0 0 232.23 102.7" xml:space="preserve" xmlns="http://www.w3.org/2000/svg" xmlns:xlink="http://www.w3.org/1999/xlink"><g fill="none" stroke="#8a9199" stroke-linecap="round" stroke-linejoin="round"><path d="m49.838 13.535h132.29v74.951h-132.29z" stroke-width=".5"/><path d="m44.769 7.6827h142.21c2.3196 0 4.187 1.8674 4.187 4.187v82.499c0 2.3196-1.8674 4.187-4.187 4.187h-142.21c-2.3196 0-4.187-1.8674-4.187-4.187v-82.499c0-2.3196 1.8674-4.187 4.187-4.187z" stroke-width=".5"/><g stroke-width=".5"><path d="m19.842 23.43a0.85703 0.85703 0 0 1-0.85703 0.85703 0.85703 0.85703 0 0 1-0.85703-0.85703 0.85703 0.85703 0 0 1 0.85703-0.85703 0.85703 0.85703 0 0 1 0.85703 0.85703z"/><path d="m29.542 21.171a2.1815 2.1815 0 0 1-2.1815 2.1815 2.1815 2.1815 0 0 1-2.1815-2.1815 2.1815 2.1815 0 0 1 2.1815-2.1815 2.1815 2.1815 0 0 1 2.1815 2.1815z"/><path d="m206.87 21.229a2.0841 2.0841 0 0 1-2.0842 2.0841 2.0841 2.0841 0 0 1-2.0841-2.0841 2.0841 2.0841 0 0 1 2.0841-2.0841 2.0841 2.0841 0 0 1 2.0842 2.0841z"/></g></g><path d="m209.02 15.326h-1.34v0.303h0.496v1.528h0.345v-1.528h0.499zm-2.538 0.875v-0.596h0.177c0.071 0 0.135 4e-3 0.187 0.012 0.05 8e-3 0.092 0.023 0.125 0.042 0.033 0.022 0.056 0.051 0.071 0.089 0.016 0.039 0.022 0.087 0.022 0.145 0 0.065-6e-3 0.117-0.022 0.158-0.015 0.042-0.038 0.073-0.071 0.094s-0.075 0.037-0.125 0.044c-0.052 0.01-0.116 0.014-0.187 0.012zm1.1 0.956-0.526-0.73c0.081-0.022 0.148-0.056 0.2-0.101 0.052-0.044 0.091-0.102 0.116-0.171 0.025-0.072 0.039-0.16 0.039-0.262 0-0.137-0.025-0.247-0.074-0.332-0.048-0.083-0.125-0.142-0.229-0.181-0.104-0.037-0.237-0.054-0.403-0.054h-0.568v1.831h0.345v-0.692h0.237l0.456 0.692zm-3.009-0.777h0.559l-0.262-0.746h-0.031zm0.831 0.777-0.169-0.486h-0.766l-0.173 0.486h-0.357l0.687-1.831h0.464l0.68 1.831zm-1.449-1.831h-1.34v0.303h0.496v1.528h0.345v-1.528h0.499zm-2.311 1.856c0.158 0 0.287-0.019 0.389-0.06 0.1-0.04 0.176-0.1 0.224-0.181 0.048-0.079 0.073-0.179 0.071-0.299 2e-3 -0.086-8e-3 -0.16-0.023-0.221-0.017-0.062-0.046-0.114-0.087-0.156-0.04-0.045-0.094-0.081-0.166-0.112-0.069-0.031-0.158-0.06-0.264-0.085-0.073-0.019-0.131-0.035-0.175-0.05-0.042-0.017-0.077-0.033-0.1-0.052-0.023-0.017-0.039-0.039-0.046-0.064-8e-3 -0.025-0.012-0.054-0.012-0.088 0-0.06 0.012-0.106 0.035-0.139s0.057-0.056 0.106-0.07c0.048-0.013 0.108-0.019 0.181-0.019 0.04 0 0.083 4e-3 0.125 6e-3 0.044 6e-3 0.085 0.01 0.127 0.017 0.043 6e-3 0.081 0.014 0.116 0.022 0.035 7e-3 0.065 0.015 0.089 0.025v-0.293c-0.033-0.012-0.072-0.022-0.12-0.033-0.046-0.01-0.1-0.017-0.16-0.023-0.058-6e-3 -0.121-0.01-0.187-0.01-0.142 0-0.26 0.017-0.356 0.054-0.097 0.035-0.17 0.093-0.218 0.17-0.05 0.077-0.075 0.177-0.075 0.3 0 0.081 7e-3 0.149 0.025 0.205 0.017 0.057 0.046 0.104 0.085 0.142 0.038 0.039 0.09 0.072 0.156 0.1 0.065 0.027 0.144 0.051 0.241 0.074 0.075 0.019 0.134 0.036 0.183 0.054 0.048 0.017 0.084 0.036 0.11 0.058 0.027 0.021 0.044 0.046 0.053 0.075 0.01 0.031 0.016 0.065 0.014 0.108 2e-3 0.061-0.01 0.111-0.035 0.148-0.023 0.035-0.061 0.062-0.113 0.077-0.052 0.016-0.12 0.023-0.205 0.023-0.048 0-0.098-2e-3 -0.148-6e-3 -0.05-3e-3 -0.098-9e-3 -0.147-0.017-0.046-6e-3 -0.09-0.015-0.131-0.023-0.038-0.01-0.073-0.019-0.102-0.031v0.309c0.037 0.011 0.081 0.023 0.139 0.032 0.056 0.01 0.118 0.018 0.187 0.023 0.069 8e-3 0.141 0.01 0.214 0.01" fill="#8a9199"/><path d="m31.998 15.503h-1.318v0.298h0.4874v1.504h0.3394v-1.504h0.4912zm-2.0443 1.826c0.0891 0 0.1706-7e-3 0.2465-0.021 0.074-0.015 0.1384-0.032 0.1934-0.053v-0.294c-0.0455 0.017-0.091 0.031-0.1365 0.04-0.0455 0.012-0.091 0.019-0.1403 0.023-0.0474 6e-3 -0.0968 8e-3 -0.1499 8e-3 -0.0853 1e-3 -0.1611-8e-3 -0.2237-0.027s-0.1157-0.053-0.1574-0.099c-0.0418-0.047-0.0721-0.112-0.0911-0.193-0.0208-0.082-0.0303-0.186-0.0303-0.313 0-0.118 0.0095-0.218 0.0303-0.3 0.0209-0.079 0.0531-0.146 0.0949-0.193 0.0417-0.049 0.0967-0.084 0.1612-0.104 0.0644-0.023 0.1422-0.033 0.2294-0.033 0.0778 0 0.1479 6e-3 0.2124 0.017 0.0645 0.01 0.1233 0.027 0.1802 0.046v-0.3c-0.055-0.019-0.1157-0.032-0.184-0.041-0.0663-0.01-0.1422-0.016-0.2294-0.016-0.1309 0-0.2504 0.016-0.3547 0.048-0.1062 0.032-0.1953 0.083-0.2712 0.155-0.0758 0.072-0.1327 0.167-0.1725 0.287-0.0399 0.119-0.0607 0.263-0.0607 0.438 0 0.15 0.0133 0.279 0.0398 0.387 0.0266 0.106 0.0626 0.195 0.1119 0.265s0.1081 0.125 0.1783 0.165c0.0701 0.04 0.1498 0.068 0.237 0.085 0.0872 0.018 0.184 0.025 0.2864 0.023m-2.05-0.324v-0.487h0.6732v-0.283h-0.6732v-0.436h0.7263v-0.296h-1.0677v1.802h1.1132v-0.3zm-1.4868 0v-1.502h-0.3395v1.802h1.0791v-0.3zm-1.5873 0v-0.487h0.6751v-0.283h-0.6751v-0.436h0.7282v-0.296h-1.0677v1.802h1.1132v-0.3zm-1.5039 0.324c0.1574 0 0.2845-0.019 0.385-0.059 0.0986-0.039 0.1726-0.098 0.22-0.178 0.0474-0.078 0.072-0.176 0.0701-0.294 0.0019-0.085-0.0075-0.157-0.0227-0.218-0.0171-0.061-0.0455-0.112-0.0854-0.153-0.0398-0.044-0.0929-0.08-0.163-0.11-0.0683-0.031-0.1556-0.059-0.2599-0.084-0.072-0.019-0.1289-0.034-0.1725-0.049-0.0436-0.017-0.0759-0.032-0.0986-0.051-0.0228-0.017-0.038-0.038-0.0456-0.063-0.0075-0.025-0.0113-0.053-0.0113-0.087 0-0.059 0.0113-0.105 0.0341-0.137s0.0569-0.055 0.1043-0.068c0.0455-0.013 0.1062-0.019 0.1783-0.019 0.0398 0 0.0796 4e-3 0.1232 6e-3 0.0418 5e-3 0.0835 9e-3 0.1252 0.017 0.0417 5e-3 0.0777 0.013 0.1138 0.021 0.0341 7e-3 0.0626 0.015 0.0872 0.024v-0.288c-0.0322-0.011-0.0702-0.021-0.1176-0.032-0.0455-0.01-0.0986-0.017-0.1574-0.023-0.0569-6e-3 -0.1194-9e-3 -0.1839-9e-3 -0.1404 0-0.256 0.017-0.3509 0.053-0.0948 0.034-0.1668 0.091-0.2161 0.167-0.0475 0.075-0.0721 0.174-0.0721 0.295 0 0.08 0.0076 0.146 0.0246 0.201 0.0171 0.057 0.0437 0.103 0.0835 0.141 0.0379 0.038 0.0891 0.07 0.1517 0.098 0.0645 0.027 0.1441 0.05 0.2389 0.072 0.074 0.019 0.1328 0.036 0.1802 0.054 0.0474 0.017 0.0835 0.036 0.1081 0.056 0.0266 0.021 0.0436 0.046 0.0531 0.074 0.0095 0.031 0.0152 0.065 0.0133 0.107 0.0019 0.06-0.0114 0.11-0.0342 0.146-0.0227 0.034-0.0606 0.06-0.1118 0.075-0.0512 0.016-0.1176 0.023-0.2011 0.023-0.0474 0-0.0967-2e-3 -0.146-5e-3 -0.0493-4e-3 -0.0967-0.01-0.1441-0.018-0.0455-5e-3 -0.0891-0.015-0.129-0.022-0.0398-0.01-0.072-0.019-0.1005-0.031v0.304c0.0361 0.011 0.0797 0.023 0.1366 0.032 0.055 9e-3 0.1156 0.017 0.1839 0.023 0.0683 7e-3 0.1384 9e-3 0.2086 9e-3" fill="#8a9199"/><g fill="none" stroke="#899099" stroke-width=".5"><path d="m209.38 32.729c0-2.081 1.687-3.768 3.767-3.768 2.081 0 3.768 1.687 3.768 3.768s-1.687 3.767-3.768 3.767c-2.08 0-3.767-1.686-3.767-3.767"/><path d="m201.1 41.006c0-2.08 1.687-3.767 3.767-3.767 2.081 0 3.767 1.687 3.767 3.767 0 2.081-1.686 3.768-3.767 3.768-2.08 0-3.767-1.687-3.767-3.768"/><path d="m217.69 41.006c0-2.08 1.686-3.767 3.767-3.767s3.767 1.687 3.767 3.767c0 2.081-1.686 3.768-3.767 3.768s-3.767-1.687-3.767-3.768"/><path d="m209.37 49.284c0-2.081 1.687-3.768 3.767-3.768 2.081 0 3.768 1.687 3.768 3.768s-1.687 3.767-3.768 3.767c-2.08 0-3.767-1.686-3.767-3.767"/></g><g fill="#899099"><path d="m213.14 48.292c-0.02 0-0.038 0.013-0.044 0.033l-0.107 0.323-0.296 0.754c-6e-3 0.014-4e-3 0.031 4e-3 0.043 9e-3 0.013 0.024 0.02 0.038 0.02h0.808c0.016 0 0.03-7e-3 0.039-0.02 8e-3 -0.012 0.01-0.029 4e-3 -0.043l-0.296-0.754-0.106-0.323c-6e-3 -0.02-0.024-0.033-0.044-0.033m1.04 2.52c-0.031 0-0.059-0.02-0.07-0.048l-0.266-0.703c-7e-3 -0.018-0.025-0.03-0.044-0.03h-1.322c-0.018 0-0.036 0.012-0.043 0.03l-0.266 0.703c-0.011 0.028-0.039 0.048-0.069 0.048h-0.587c-0.024 0-0.047-0.013-0.061-0.033-0.014-0.021-0.016-0.047-7e-3 -0.07l1.289-3.12c0.011-0.028 0.038-0.046 0.069-0.046h0.674c0.03 0 0.056 0.018 0.068 0.046l1.289 3.12c0.01 0.023 7e-3 0.049-6e-3 0.07-0.014 0.02-0.038 0.033-0.062 0.033z"/><path d="m220.98 39.924c-0.026 0-0.047 0.021-0.047 0.047v0.688c0 0.025 0.021 0.046 0.047 0.046h0.631c0.156 0 0.279-0.039 0.364-0.116 0.085-0.078 0.129-0.17 0.129-0.276 0-0.108-0.042-0.197-0.126-0.274-0.084-0.076-0.2-0.115-0.346-0.115zm0 1.31c-0.026 0-0.047 0.021-0.047 0.047v0.747c0 0.026 0.021 0.046 0.047 0.046h0.706c0.17 0 0.302-0.038 0.392-0.116 0.091-0.079 0.135-0.177 0.135-0.299 0-0.123-0.044-0.222-0.137-0.303s-0.23-0.122-0.41-0.122zm-0.65 1.406c-0.041 0-0.074-0.034-0.074-0.074v-3.119c0-0.042 0.033-0.075 0.074-0.075h1.331c0.154 0 0.299 0.023 0.432 0.067 0.134 0.043 0.251 0.105 0.349 0.182 0.097 0.076 0.176 0.167 0.234 0.271 0.056 0.104 0.085 0.216 0.085 0.334 0 0.172-0.047 0.319-0.138 0.436-0.08 0.101-0.177 0.182-0.29 0.241-0.016 7e-3 -0.025 0.025-0.024 0.043s0.012 0.035 0.029 0.041c0.156 0.06 0.286 0.149 0.386 0.264 0.112 0.131 0.167 0.288 0.167 0.481 0 0.14-0.031 0.266-0.093 0.377s-0.147 0.206-0.253 0.285c-0.106 0.077-0.232 0.139-0.374 0.182s-0.297 0.064-0.459 0.064z"/><path d="m205.72 42.64c-0.025 0-0.048-0.012-0.061-0.033l-0.744-1.116c-8e-3 -0.014-0.022-0.021-0.038-0.021s-0.03 7e-3 -0.038 0.021l-0.743 1.116c-0.014 0.02-0.037 0.033-0.062 0.033h-0.662c-0.028 0-0.053-0.015-0.065-0.039-0.013-0.025-0.011-0.055 4e-3 -0.077l1.081-1.565c0.011-0.015 0.011-0.036 0-0.053l-0.99-1.417c-0.016-0.024-0.018-0.052-4e-3 -0.077 0.012-0.025 0.037-0.04 0.065-0.04h0.656c0.026 0 0.049 0.013 0.062 0.033l0.658 1.007c8e-3 0.012 0.022 0.021 0.038 0.021s0.031-9e-3 0.038-0.021l0.658-1.007c0.014-0.02 0.037-0.033 0.062-0.033h0.656c0.028 0 0.053 0.015 0.066 0.041 0.013 0.024 0.01 0.053-5e-3 0.076l-0.989 1.417c-0.012 0.017-0.012 0.038 0 0.053l1.08 1.564c0.016 0.023 0.017 0.052 5e-3 0.077-0.013 0.025-0.038 0.04-0.066 0.04z"/><path d="m212.9 34.469c-0.041 0-0.075-0.034-0.075-0.074v-1.446l-1.129-1.632c-0.016-0.023-0.018-0.052-5e-3 -0.076 0.013-0.025 0.038-0.04 0.066-0.04h0.627c0.025 0 0.048 0.012 0.061 0.033l0.677 1.02c9e-3 0.013 0.024 0.021 0.039 0.021h1e-3c0.015 0 0.03-8e-3 0.038-0.022l0.653-1.018c0.013-0.021 0.036-0.034 0.062-0.034h0.637c0.028 0 0.053 0.015 0.066 0.039 0.013 0.025 0.012 0.054-4e-3 0.076l-1.111 1.633v1.446c0 0.04-0.033 0.074-0.074 0.074z"/></g><g fill="none"><g stroke="#899099"><path d="m205.39 75.796c0-3.965 3.213-7.178 7.178-7.178s7.178 3.213 7.178 7.178-3.213 7.178-7.178 7.178-7.178-3.213-7.178-7.178" stroke-width=".5"/><path d="m206.59 75.796c0-3.303 2.677-5.98 5.98-5.98 3.302 0 5.98 2.677 5.98 5.98s-2.677 5.98-5.979 5.98c-3.303 0-5.981-2.677-5.981-5.979" stroke-width=".5"/><path d="m202.51 75.796c0-5.554 4.502-10.056 10.056-10.056s10.056 4.502 10.056 10.056-4.502 10.056-10.056 10.056-10.056-4.502-10.056-10.056" stroke-width=".5"/><path d="m12.26 75.613c0-3.965 3.2137-7.178 7.1785-7.178 3.9644 0 7.1781 3.213 7.1781 7.178s-3.2137 7.178-7.1781 7.178c-3.9648 0-7.1785-3.213-7.1785-7.178" stroke-width=".5"/><path d="m13.459 75.613c0-3.303 2.677-5.98 5.9795-5.98 3.3025 0 5.98 2.677 5.9805 5.98 0 3.303-2.6771 5.98-5.9796 5.98-3.3025 0-5.9805-2.677-5.9805-5.979" stroke-width=".5"/><path d="m9.3825 75.613c0-5.554 4.502-10.056 10.056-10.056 5.5536 0 10.056 4.502 10.056 10.056s-4.5021 10.056-10.056 10.056c-5.5543 0-10.056-4.502-10.056-10.056" stroke-width=".5"/><path d="m7.8881 43.073c0.19939 0.965 1.0499 1.658 2.0357 1.658h4.0666c0.50701 0 0.91814 0.411 0.91814 0.918v4.067c0 0.986 0.69286 1.836 1.6586 2.036 1.4887 0.307 3.025 0.307 4.5142 0 0.9658-0.2 1.6581-1.05 1.6581-2.036v-4.067c0-0.507 0.4111-0.918 0.9187-0.918h4.066c0.9864 0 1.8363-0.693 2.0357-1.658 0.3076-1.489 0.3076-3.026 0-4.515-0.1994-0.965-1.0493-1.658-2.0357-1.658h-4.066c-0.5076 0-0.9187-0.411-0.9187-0.918v-4.067c0-0.985-0.6923-1.836-1.6581-2.036-1.4892-0.307-3.0255-0.307-4.5142 0-0.96578 0.2-1.6586 1.051-1.6586 2.036v4.067c0 0.507-0.41113 0.918-0.91814 0.918h-4.0666c-0.98578 0-1.8363 0.693-2.0357 1.658-0.30703 1.489-0.30703 3.026 0 4.515" stroke-width=".5"/></g><g stroke="#8a9199" stroke-width=".5"><path d="m21.065 40.836a2.0667 2.0667 0 0 1-2.0667 2.0667 2.0667 2.0667 0 0 1-2.0667-2.0667 2.0667 2.0667 0 0 1 2.0667-2.0667 2.0667 2.0667 0 0 1 2.0667 2.0667z" stroke-linecap="round" stroke-linejoin="round"/><g><g stroke-linecap="round" stroke-linejoin="round"><path d="m24.562 42.164h1.9514v0.48783l1.6512-1.7075-1.6512-1.7075v0.48784h-1.9514z"/><path d="m13.206 42.164h-1.9514v0.48783l-1.6512-1.7075 1.6512-1.7075v0.48784h1.9514z"/><path d="m20.023 46.831v1.9514h0.48783l-1.7075 1.6512-1.7075-1.6512h0.48784v-1.9514z"/><path d="m20.023 34.929v-1.9514h0.48783l-1.7075-1.6512-1.7075 1.6512h0.48784v1.9514z"/></g><path d="m30.81 56.758c0 1.667-1.3514 3.0184-3.0184 3.0184-1.667 0-3.0184-1.3514-3.0184-3.0184 0-1.667 1.3514-3.0184 3.0184-3.0184 1.667 0 3.0184 1.3514 3.0184 3.0184z"/></g></g></g><path d="m29.217 56.716-1.4253-1.635-1.4254 1.635h0.4378v1.3834h1.975v-1.3834zm-1.9192 0.2096h0.98751v0.67076h-0.98751z" clip-rule="evenodd" fill="#899099" fill-rule="evenodd" stroke-width=".20816"/><path d="m207.59 56.758c0 1.667-1.3514 3.0184-3.0184 3.0184-1.667 0-3.0184-1.3514-3.0184-3.0184 0-1.667 1.3514-3.0184 3.0184-3.0184 1.667 0 3.0184 1.3514 3.0184 3.0184z" fill="none" stroke="#8a9199" stroke-width=".5"/><path d="m203 55.698 1.2222-0.16645 5.2e-4 1.179-1.2216 7e-3 -1e-3 -1.0194zm1.2216 1.1483 9.4e-4 1.18-1.2216-0.16796-7e-5 -1.0199 1.2208 8e-3zm0.14816-1.3366 1.6206-0.23652v1.4222l-1.6206 0.0129v-1.1986zm1.621 1.3476-3.9e-4 1.4158-1.6206-0.22872-2e-3 -1.1898z" fill="#899099" stroke-width=".011683"/><g fill="none" stroke="#8a9199" stroke-linecap="round" stroke-linejoin="round"><path d="m212.14 102.45c12.93-1.2718 18.082-9.0252 19.833-19.613l-3.8915-68.569c-9.0132-8.1301-19.099-11.512-30.907-11.762-54.043-0.0401-108.09-0.0177-162.13 0-11.808 0.24994-21.893 3.6321-30.907 11.762l-3.8915 68.569c1.751 10.588 6.9032 18.341 19.833 19.613z" stroke-width=".5"/><path d="m196.88 2.5088c-0.0367-1.1773 0.057-2.2388 1.3222-2.2588 16.897 0.38611 24.344 7.1163 26.059 8.4291 1.3258 1.021 0.88001 2.2635 1.1569 3.4157" stroke-width=".5"/><path d="m35.074 2.5088c0.0367-1.1773-0.057-2.2388-1.3222-2.2588-16.897 0.38611-24.344 7.1163-26.059 8.4291-1.3258 1.021-0.88001 2.2635-1.1569 3.4157" stroke-width=".5"/></g><g fill="#899099" stroke-width=".018017"><path d="m99.382 91.564c0.08612-0.0566 0.1854-0.0921 0.28503-0.11657 0.17639-8e-3 0.36143-0.0274 0.53043 0.0366 0.16306 0.0557 0.29927 0.17945 0.38377 0.32809 0.46845 0.83979 0.95834 1.6673 1.4326 2.504 0.0211 0.0398 0.0481 0.0762 0.0764 0.11116 0.34738-1e-3 0.69493-4e-3 1.0421 1e-3 6e-3 -0.97203 2e-3 -1.9444 2e-3 -2.9166 0.35783-2e-3 0.71547 0 1.0733-1e-3 0.15766-4e-3 0.31008 0.0595 0.43855 0.1472 0.18305 0.14252 0.31386 0.33711 0.46953 0.50665 0.0987 0.13387 0.21062 0.25711 0.31602 0.38557 0.14126 0.18306 0.29602 0.35494 0.43746 0.53782 0.13063 0.14522 0.25404 0.29692 0.37746 0.44827 0.11712 0.14792 0.24666 0.28575 0.35584 0.43998 0.0355 0.0449 0.0712 0.1045 0.13694 0.10126-7.2e-4 -0.85294 3e-3 -1.7061-2e-3 -2.5588 0.0323-0.01 0.065-0.0211 0.0995-0.0195 0.10828 5e-3 0.21693-5e-3 0.32485 8e-3 0.0782-0.0195 0.15639 0.0133 0.2344-3e-3 0.0541-0.0115 0.10793 4e-3 0.16216 6e-3 0.13135-0.0189 0.26431-8e-3 0.39656-0.011 0.0724-4e-3 0.1436 0.0175 0.21621 0.0119 0.12522-0.0162 0.25242-0.0148 0.37818-8e-3 0.0778 0.0168 0.15621-0.0168 0.23441 1e-3 0.11999 0.0222 0.23999-0.0114 0.36034-6e-3 0.1681 3e-3 0.3362-2e-3 0.50431 2e-3 0.12558 0.0267 0.25224-0.0207 0.37836 5e-3 0.0782 0.016 0.15585-0.011 0.23422-8e-3 0.0663-1.8e-4 0.13207 0.022 0.19819 6e-3 0.0778-0.0173 0.15621 0.0133 0.23423-3e-3 0.0719 1.8e-4 0.14432 0.0195 0.21639 3e-3 0.10792-0.0229 0.21638 0.0211 0.32413-3e-3 0.13801-6e-3 0.27674-1e-3 0.4144 8e-3 0.0838-0.0189 0.1681 9e-3 0.25224-0.01 0.16702 0.0126 0.33908 0.033 0.48809 0.11639 0.15711 0.0681 0.29026 0.18504 0.38953 0.32377 0.0735 0.098 0.10576 0.22018 0.11946 0.34017 1.8e-4 0.24612 7.2e-4 0.49241-1.8e-4 0.73853-0.0177 0.13063-0.0721 0.2672-0.18486 0.34413 0.10486 0.0906 0.16666 0.22233 0.18504 0.35836 3.6e-4 0.25819 5.4e-4 0.51656 0 0.77493-0.0241 0.13729-0.0751 0.27386-0.16847 0.37998-0.0668 0.0966-0.169 0.15838-0.26593 0.22072-0.21062 0.12756-0.46341 0.16972-0.70682 0.16089-1.0751-3.6e-4 -2.15 0-3.2251-3.6e-4 -0.0896-5.4e-4 -0.18071 0.01-0.26845-0.0142 0.0106-0.76808-1e-3 -1.5365 6e-3 -2.3048 1.0843 5e-3 2.1687 7.2e-4 3.2532 2e-3 0.0958-3e-3 0.19224 6e-3 0.28773-4e-3 0.0683-0.0314 0.0497-0.10972 0.0513-0.17062-1e-3 -0.11459 9e-4 -0.22918-1.8e-4 -0.34377 3e-3 -0.035-0.0304-0.0546-0.053-0.074-0.0463-0.0112-0.0948-4e-3 -0.1418-5e-3 -1.2857 1.8e-4 -2.5714 5.4e-4 -3.8571-1.8e-4 -0.0339-6e-3 -0.0487 0.0355-0.0429 0.0625 2e-3 0.94771-1e-3 1.8954 2e-3 2.8431-0.0398 3e-3 -0.0795 9e-3 -0.11928 0.0101-0.30035-2e-3 -0.60088-1e-3 -0.90122-1.8e-4 -0.16468-1e-3 -0.32648-0.0499-0.46737-0.13423-0.13423-0.0914-0.23621-0.22017-0.33729-0.34521-0.21692-0.25837-0.42665-0.52268-0.6443-0.78051-0.37313-0.43962-0.73366-0.89059-1.107-1.3297-0.0137 8e-3 -0.0274 0.0151-0.0413 0.0223-1e-3 0.85239 5.4e-4 1.7048-7.2e-4 2.5572-1.7718-1e-3 -3.5436 2e-3 -5.3153-2e-3 0.14216-0.25621 0.29674-0.50557 0.43566-0.76375 0.0191-0.0276 0.02811-0.0766 0.07189-0.067 0.53457-1e-3 1.0693 1e-3 1.6041-1e-3 -0.0416-0.096-0.10432-0.18089-0.15369-0.27296-0.16612-0.29422-0.34251-0.5825-0.50845-0.8769-0.10144-0.16865-0.20558-0.33585-0.29675-0.51043-0.02847-0.0485-0.07838-0.0986-0.13999-0.0874-0.0373 9e-3 -0.0618 0.0423-0.08324 0.0717-0.15495 0.27422-0.31296 0.54683-0.47422 0.81727-0.31746 0.55295-0.63691 1.1052-0.95618 1.6572-0.02198 0.0481-0.08126 0.0422-0.1254 0.0459-0.30666-2e-3 -0.61331-2e-3 -0.91978 0-0.03585-3.6e-4 -0.07117-8e-3 -0.10504-0.0189 0.06594-0.0845 0.11171-0.18179 0.16414-0.27476 0.23386-0.40809 0.47025-0.81456 0.70232-1.2237 0.37422-0.62988 0.73042-1.2706 1.0992-1.9039 0.05279-0.10973 0.13945-0.19801 0.23296-0.27369m9.9135 2.219c-2e-3 0.21081-1e-3 0.42161-1.8e-4 0.63241 0.82682 1.8e-4 1.6536 0 2.4804 1.8e-4 0.0432 5e-3 0.0885-0.0364 0.0854-0.0804 1e-3 -0.15098-1e-3 -0.30215 9e-4 -0.45313 9e-3 -0.0496-0.0378-0.0987-0.0861-0.0989-0.82682 0-1.6536 3.6e-4 -2.4804-1.8e-4z"/><path d="m113.9 91.627c0.14216-0.082 0.30701-0.10432 0.46701-0.1254 0.15044-0.0149 0.30089 0.0139 0.45097-3e-3 0.11423-5e-3 0.2281 0.0245 0.34233 7e-3 0.12612-0.0211 0.25206 0.011 0.37854 5e-3 0.16198-3e-3 0.32467 8e-3 0.48611-0.0112 0.096-7e-3 0.19224 4e-3 0.28828 6e-3 0.10215-0.0162 0.20413 8e-3 0.30683 4e-3 0.14991-2e-3 0.29999 2e-3 0.45007 3.6e-4 0.0721-7.2e-4 0.14396-0.0175 0.21621-5e-3 0.0841 0.013 0.16792-0.0106 0.25242-8e-3 0.0903-3e-3 0.17964 0.02 0.27026 0.0101 0.10162-0.0144 0.20396 0.0142 0.30612-2e-3 0.11387-0.0198 0.2281 0.01 0.34233-2e-3 0.10215 0.0144 0.20395-0.0117 0.30647-2e-3 0.0897 0.0104 0.18035-0.0133 0.27026 4e-3 0.12612 0.0186 0.2517-0.0142 0.37818-7e-3 0.066 1e-3 0.13207 0.016 0.19819 5e-3 0.16216-0.0222 0.32413 0.013 0.48647 7e-3 0.18017-4e-3 0.36107 9e-3 0.54052-0.0108 0.0782-3e-3 0.15603 0.0191 0.2344 5e-3 0.0957-0.015 0.19189 1.8e-4 0.28792 2e-3 0.12-0.0207 0.24017 0.0182 0.36053-9e-4 0.11369-0.0182 0.2281 5e-3 0.34215-4e-3 0.0843-7e-3 0.1681 0.0187 0.25242 4e-3 0.0685-0.0121 0.13693 5e-3 0.20449 0.0153 0.20378 0.031 0.39837 0.11964 0.55836 0.24918 0.15333 0.13171 0.26702 0.32179 0.2735 0.52719-7.2e-4 0.23458-1e-3 0.46935 1.8e-4 0.70393 1.8e-4 0.1472-0.0768 0.28648-0.1908 0.37693 0.0476 0.0449 0.0968 0.0913 0.12216 0.15314 0.0342 0.084 0.0485 0.17441 0.0654 0.26305 0.0317 0.20648 0.0843 0.41044 0.0977 0.61926 0.21981 3e-3 0.43981 2e-3 0.6598 3.6e-4 -2e-3 -0.50719-1.8e-4 -1.0146-7.2e-4 -1.5217-3e-3 -0.45908 5e-3 -0.91834-4e-3 -1.3772 0.14126-0.0303 0.28684-0.0108 0.43026-0.016 0.1917 0.0148 0.38503 0.02 0.57673 7.2e-4 0.18882-1.8e-4 0.37998 0.0591 0.52953 0.17621 0.11261 0.0928 0.2081 0.20414 0.29818 0.31837 0.11658 0.13603 0.22504 0.27854 0.34143 0.41457 0.20954 0.23621 0.40143 0.48737 0.60322 0.73025 0.2454 0.29476 0.49043 0.59042 0.73222 0.88825 0.0234 0.0312 0.0598 0.0456 0.0975 0.0524 0-0.856 3.6e-4 -1.7118-1.8e-4 -2.5678 0.87167-2e-3 1.7435-2e-3 2.6154-3.6e-4 -5e-3 1.2529 4e-3 2.506-4e-3 3.759h-1.0207c-6e-3 -0.97599-1e-3 -1.9522-2e-3 -2.9284-0.14774 2e-3 -0.29566 7.2e-4 -0.4434 1.8e-4 -0.0449 9e-4 -0.0905-9e-4 -0.13351 0.0119 9e-3 0.40737 1e-3 0.8151 4e-3 1.2227-2e-3 0.5616 4e-3 1.1236-3e-3 1.6852-0.36395-3e-3 -0.72808 2e-3 -1.092-2e-3 -0.1645-0.0286-0.33044-0.0858-0.45818-0.19693-0.1045-0.0892-0.18792-0.19855-0.27512-0.30359-0.23135-0.27855-0.45692-0.56196-0.69601-0.83384-0.31999-0.39476-0.64772-0.78285-0.96771-1.1774-0.0279-0.0364-0.0663-0.0641-0.11279-0.0681-1e-3 0.86069 2e-3 1.7217-2e-3 2.5824-0.82645-3e-3 -1.6529-3.6e-4 -2.4794-1e-3 -0.049 0.0115-0.062-0.0443-0.0697-0.0802-0.0816-0.4162-0.15297-0.83438-0.23675-1.2502-9e-3 -0.0665-0.0456-0.14757-0.12576-0.14036-0.76321-3.6e-4 -1.5264 5.4e-4 -2.2896-5.4e-4 -0.0233 5.4e-4 -0.0458 3e-3 -0.0678 8e-3 -9e-3 0.0205-8e-3 0.0436-9e-3 0.0658 2e-3 0.46124-5.4e-4 0.92267 1e-3 1.3839-0.3389 0-0.67781 5.4e-4 -1.0167-3.6e-4 2e-3 -0.76411-2e-3 -1.5282 2e-3 -2.2922 1.1326 4e-3 2.2653 3.6e-4 3.3979 2e-3 0.0551 8e-3 0.10738-0.0454 0.0987-0.10054-1e-3 -0.16377 7.2e-4 -0.32755-2e-3 -0.49151-0.0375-9e-3 -0.075-0.0213-0.11369-0.0218-2.4871-5.4e-4 -4.9744 1.8e-4 -7.4615-5.4e-4 -0.0564-8e-3 -0.11801 0.0404-0.11549 0.0984-1e-3 0.16575 7.2e-4 0.33187-1.8e-4 0.49781 1.2055 4e-3 2.4114-9e-4 3.6172 3e-3 1e-3 0.27692-5e-3 0.55403 3e-3 0.83077-0.0735 0.0169-0.14955 0.0105-0.22414 0.011h-3.397c3e-3 0.17783-5.4e-4 0.35585 9e-4 0.53386-4e-3 0.051 0.0477 0.10035 0.0982 0.0982 1.1731 2e-3 2.3464-2e-3 3.5195 2e-3 -3e-3 0.2845 1e-3 0.56899-2e-3 0.85348h-3.7644c-0.0928-0.0483-0.20072-0.0486-0.29495-0.0924-0.1299-0.0584-0.258-0.12882-0.3571-0.23296-0.13999-0.13423-0.23296-0.32467-0.22612-0.52088 2e-3 -0.71439 1.8e-4 -1.429 7.2e-4 -2.1435 0.0184-0.29224 0.24378-0.52899 0.49548-0.65349z"/><path d="m131.2 91.634c0.17729-0.10054 0.38611-0.1299 0.58737-0.12306 1.018 2e-3 2.0358-3e-3 3.0536 2e-3 -3e-3 0.26828 0 0.53638-9e-4 0.80466-6e-3 6e-3 -0.0178 0.0187-0.0236 0.025-0.99186 5.4e-4 -1.9837 1.8e-4 -2.9756 0-0.053-6e-3 -0.1063 0.045-0.0982 0.0986 7.3e-4 0.62502 7.3e-4 1.2499 0 1.8749-7e-3 0.053 0.0445 0.1063 0.098 0.0994 0.96717-1e-3 1.9343 5.4e-4 2.9015-9e-4 0.0335 3e-3 0.0786-0.0137 0.0977 0.0252 2e-3 0.26684-4e-3 0.53404 3e-3 0.80105-0.0849 0.029-0.17531 0.0142-0.26269 0.0162-0.94897 5.4e-4 -1.8979-5.4e-4 -2.8469 7.2e-4 -0.28792-9e-3 -0.58413-0.10558-0.78646-0.31783-0.13207-0.11765-0.20846-0.28899-0.23026-0.4625-2e-3 -0.70862 3.6e-4 -1.4172-1e-3 -2.1259-7e-3 -0.15405 0.056-0.30143 0.13603-0.42971 0.0964-0.11694 0.2099-0.22342 0.34863-0.28828z"/></g></svg>
