<svg width="32" height="32" fill="none" version="1.1" viewBox="0 0 32 32" xml:space="preserve" xmlns="http://www.w3.org/2000/svg"><path d="m4.5 8c-1.662 0-3 1.338-3 3v10c0 1.662 1.338 3 3 3h23c1.662 0 3-1.338 3-3v-10c0-1.662-1.338-3-3-3h-23zm3.6348 5.75c0.15644 0 0.30728 0.009634 0.44531 0.023438 0.14264 0.013803 0.27238 0.031681 0.38281 0.054687 0.11503 0.027607 0.20694 0.050518 0.28516 0.078125v0.69922c-0.055215-0.023006-0.13007-0.040189-0.21289-0.058594-0.082822-0.018405-0.17416-0.036978-0.27539-0.050781-0.10123-0.018405-0.19691-0.029165-0.30273-0.042969-0.10123-0.004601-0.20416-0.013672-0.30078-0.013672-0.17485 0-0.31661 0.014667-0.43164 0.046875-0.11503 0.032209-0.19869 0.087795-0.25391 0.16602s-0.082031 0.18744-0.082031 0.33008c0 0.082822 0.0089388 0.15308 0.027344 0.21289 0.018405 0.059816 0.056113 0.10898 0.11133 0.15039 0.055215 0.046012 0.13705 0.083589 0.23828 0.125 0.10583 0.03681 0.24508 0.073128 0.41992 0.11914 0.25307 0.059816 0.46326 0.1295 0.62891 0.20312 0.17025 0.073619 0.29986 0.16175 0.39648 0.26758 0.096626 0.10123 0.16562 0.22385 0.20703 0.37109 0.03681 0.14724 0.059289 0.32224 0.054687 0.5293 0.0046013 0.28528-0.054891 0.52619-0.16992 0.71484-0.11503 0.19325-0.29394 0.33502-0.5332 0.43164-0.24386 0.096626-0.55239 0.14258-0.92969 0.14258-0.17485 0-0.34607-0.005033-0.51172-0.023438-0.16564-0.013803-0.31188-0.031681-0.44531-0.054687-0.13804-0.023006-0.24461-0.050518-0.33203-0.078125v-0.73633c0.069018 0.027607 0.15212 0.051212 0.24414 0.074219 0.096626 0.018405 0.20207 0.040883 0.3125 0.054687 0.11503 0.018405 0.22998 0.031813 0.34961 0.041016 0.11963 0.009202 0.24044 0.013672 0.35547 0.013672 0.20245 0 0.36405-0.017878 0.48828-0.054688 0.12423-0.03681 0.21627-0.10077 0.27148-0.18359 0.059816-0.087423 0.086632-0.20823 0.082031-0.35547 0.0046012-0.10123-0.010197-0.18419-0.033203-0.25781-0.023006-0.069018-0.064489-0.12907-0.12891-0.17969-0.059816-0.050614-0.14669-0.095308-0.26172-0.13672-0.11503-0.041411-0.25805-0.082894-0.4375-0.12891-0.23006-0.055215-0.41778-0.11136-0.57422-0.17578-0.15644-0.069018-0.28102-0.14626-0.37305-0.23828-0.092024-0.092024-0.16171-0.20181-0.20312-0.33984-0.041411-0.13344-0.058594-0.29503-0.058594-0.48828 0-0.29448 0.060056-0.5347 0.17969-0.71875 0.11503-0.18405 0.28947-0.32148 0.51953-0.4043 0.23006-0.087423 0.51107-0.12891 0.85156-0.12891zm2.0234 0.068359h3.1992v0.72266h-1.1934v3.6484h-0.82226v-3.6484h-1.1836v-0.72266zm4.7988 0h1.1094l1.625 4.3711h-0.875l-0.4043-1.1582h-1.8262l-0.41406 1.1582h-0.85156l1.6367-4.3711zm3.6074 0h1.3574c0.39571 0 0.71442 0.041483 0.96289 0.12891 0.24847 0.092024 0.43184 0.23574 0.54688 0.43359 0.11503 0.20245 0.17578 0.46433 0.17578 0.79102 0 0.24386-0.033934 0.45476-0.09375 0.625-0.059816 0.16564-0.15116 0.30433-0.27539 0.41016s-0.28526 0.18962-0.47852 0.24024l1.2559 1.7422h-0.9707l-1.0898-1.6504h-0.033203-0.5332v1.6504h-0.82422v-4.3711zm3.6855 0h3.1992v0.72266h-1.1914v3.6484h-0.82422v-3.6484h-1.1836v-0.72266zm-2.8613 0.66797v1.4219h0.42383c0.17024 0.004601 0.32108-0.004337 0.44531-0.027344 0.11963-0.018405 0.22061-0.054855 0.29883-0.10547 0.07822-0.050614 0.13506-0.12534 0.17188-0.22656 0.036809-0.096626 0.050781-0.22051 0.050781-0.37695 0-0.13804-0.013972-0.25368-0.050781-0.3457-0.03681-0.092025-0.093655-0.16032-0.17188-0.21094-0.078221-0.046012-0.1792-0.083157-0.29883-0.10156-0.12423-0.018405-0.27507-0.027344-0.44531-0.027344h-0.42383zm-3.9199 0.06836-0.63477 1.7812h1.334l-0.625-1.7812h-0.074219z" fill="#fff" stroke-width="1.3937"/></svg>
