<?xml version="1.0" encoding="UTF-8" standalone="no"?>
<svg
   width="32"
   height="32"
   viewBox="0 0 32 32"
   fill="none"
   version="1.1"
   id="svg1"
   xml:space="preserve"
   xmlns="http://www.w3.org/2000/svg"
   xmlns:svg="http://www.w3.org/2000/svg"><defs
     id="defs1" /><path
     d="M 30.5,16 C 30.5,24.0081 24.0081,30.5 16,30.5 7.99187,30.5 1.5,24.0081 1.5,16 1.5,7.99187 7.99187,1.5 16,1.5 24.0081,1.5 30.5,7.99187 30.5,16 Z"
     fill="#ffffff"
     id="path1" /><path
     fill="currentColor"
     d="m 8.2077554,12.458071 h 2.9220916 a 2.8335434,2.8335434 0 0 0 5.489991,0 h 7.172407 a 0.70838584,0.70838584 0 0 0 0,-1.416771 h -7.172407 a 2.8335434,2.8335434 0 0 0 -5.489991,0 H 8.2077554 a 0.70838584,0.70838584 0 0 0 0,1.416771 m 5.6670876,-2.125156 a 1.4167717,1.4167717 0 1 1 -1.416772,1.416771 1.4167717,1.4167717 0 0 1 1.416772,-1.416771 m 9.917402,9.209015 h -1.505321 a 2.8335434,2.8335434 0 0 0 -5.48999,0 H 8.2077554 a 0.708386,0.708386 0 0 0 0,1.416772 h 8.5891786 a 2.8335434,2.8335434 0 0 0 5.48999,0 h 1.505321 a 0.708386,0.708386 0 0 0 0,-1.416772 m -4.250315,2.125158 a 1.4167717,1.4167717 0 1 1 1.416771,-1.416772 1.4167717,1.4167717 0 0 1 -1.416771,1.416772"
     style="fill:#000000;fill-opacity:1;stroke-width:0.0885485"
     id="path1-3" /></svg>
