<svg width="32" height="32" fill="none" version="1.1" viewBox="0 0 32 32" xml:space="preserve" xmlns="http://www.w3.org/2000/svg"><path d="m16 1.5c-8.0081 0-14.5 6.4919-14.5 14.5s6.4919 14.5 14.5 14.5 14.5-6.4919 14.5-14.5-6.4919-14.5-14.5-14.5zm-2.1797 6.8223c1.2692 0 2.4795 0.80465 3.0059 2.1855h7.1719c0.33998 0.0045 0.64328 0.15014 0.83594 0.36914 0.19266 0.219 0.28125 0.49384 0.28125 0.76367s-0.08859 0.54467-0.28125 0.76367c-0.19266 0.219-0.49596 0.36464-0.83594 0.36914h-7.1738c-0.527 1.3793-1.7355 2.1855-3.0039 2.1855-1.2684 0-2.4769-0.80625-3.0039-2.1855h-2.8086v-0.40625l-0.00586 0.40625c-0.33998-0.0045-0.64328-0.15014-0.83594-0.36914-0.19266-0.219-0.28125-0.49384-0.28125-0.76367s0.088591-0.54467 0.28125-0.76367c0.19266-0.219 0.49596-0.36464 0.83594-0.36914h2.8125c0.5264-1.3809 1.7367-2.1855 3.0059-2.1855zm0 2.2715c-0.58316 1.7e-5 -1.0469 0.46371-1.0469 1.0469 2e-6 0.48377 0.27732 0.81391 0.64648 0.9668s0.79861 0.11546 1.1406-0.22656c0.34201-0.34203 0.37946-0.77147 0.22656-1.1406-0.1529-0.36915-0.48302-0.6465-0.9668-0.64648zm5.8125 6.4473c1.2694 2.8e-5 2.4796 0.80427 3.0059 2.1855h1.3535v0.40625l0.0059-0.40625c0.33998 0.0045 0.64328 0.15014 0.83594 0.36914 0.19266 0.219 0.28125 0.49384 0.28125 0.76367s-0.08859 0.54467-0.28125 0.76367c-0.19266 0.219-0.49596 0.36464-0.83594 0.36914h-1.3613c-0.5269 1.3795-1.7353 2.1855-3.0039 2.1855-1.2686 0-2.477-0.80602-3.0039-2.1855h-8.627c-0.33998-0.0045-0.64328-0.15014-0.83594-0.36914-0.19266-0.219-0.28125-0.49384-0.28125-0.76367s0.088591-0.54467 0.28125-0.76367c0.19266-0.219 0.49596-0.36464 0.83594-0.36914h8.625c0.52623-1.3813 1.7365-2.1855 3.0059-2.1855zm-0.03516 2.2637c-0.24601 0.0042-0.4933 0.10052-0.70703 0.31445-0.34197 0.3423-0.37977 0.7715-0.22656 1.1406 0.15321 0.36913 0.48482 0.64699 0.96875 0.64648 0.58269-6.08e-4 1.0468-0.46418 1.0469-1.0469 4.6e-5 -0.48393-0.27916-0.81589-0.64844-0.96875-0.13848-0.05732-0.28599-0.08844-0.43359-0.08594z" fill="#fff"/></svg>
