<svg width="32" height="32" fill="none" version="1.1" viewBox="0 0 32 32" xml:space="preserve" xmlns="http://www.w3.org/2000/svg"><path d="m8.2078 12.458h2.9221a2.8335 2.8335 0 0 0 5.49 0h7.1724a0.70839 0.70839 0 0 0 0-1.4168h-7.1724a2.8335 2.8335 0 0 0-5.49 0h-2.9221a0.70839 0.70839 0 0 0 0 1.4168zm5.6671-2.1252a1.4168 1.4168 0 0 0-1.4168 1.4168 1.4168 1.4168 0 1 0 1.4168-1.4168zm9.9174 9.209h-1.5053a2.8335 2.8335 0 0 0-5.49 0h-8.5892a0.70839 0.70839 0 0 0 0 1.4168h8.5892a2.8335 2.8335 0 0 0 5.49 0h1.5053a0.70839 0.70839 0 0 0 0-1.4168zm-4.2503 2.1252a1.4168 1.4168 0 0 0 1.4168-1.4168 1.4168 1.4168 0 1 0-1.4168 1.4168zm10.958-5.6671c0 8.0081-6.4919 14.5-14.5 14.5-8.0081 0-14.5-6.4919-14.5-14.5 0-8.0081 6.4919-14.5 14.5-14.5 8.0081 0 14.5 6.4919 14.5 14.5z" fill="#fff"/></svg>
