<svg width="32" height="32" fill="none" version="1.1" viewBox="0 0 32 32" xml:space="preserve" xmlns="http://www.w3.org/2000/svg"><path d="m20.585 11.8h-1.808l-3.68 1.824 0.752 1.76 2.352-0.992v6.5761h-2.64v2.0319h7.152v-2.0319h-2.128zm-12.601 11.2h2.336v-4.448l3.904-6.752h-2.544l-2.448 4.48-2.432-4.48h-2.72l3.904 6.736zm23.84 2.5366-5.1728-19.471c-0.5888-2.2162-2.5639-3.7695-4.8384-3.805l-16.643-0.25971c-2.852-0.04451-5.1837 2.2828-5.1693 5.1597l0.097261 19.491c0.013988 2.8036 2.2552 5.0775 5.0348 5.1083l21.719 0.24c3.3702 0.0372 5.8453-3.1795 4.973-6.4631z" clip-rule="evenodd" fill="#fff" fill-rule="evenodd"/></svg>
