<?xml version="1.0" encoding="UTF-8" standalone="no"?>
<svg
   width="32"
   height="32"
   viewBox="0 0 32 32"
   fill="none"
   version="1.1"
   id="svg3"
   xml:space="preserve"
   xmlns="http://www.w3.org/2000/svg"
   xmlns:svg="http://www.w3.org/2000/svg"><defs
     id="defs3" /><path
     d="M 0,2 C 0,0.895431 0.895431,0 2,0 h 28 c 1.1046,0 2,0.895431 2,2 v 28 c 0,1.1046 -0.8954,2 -2,2 H 2 C 0.895431,32 0,31.1046 0,30 Z"
     fill="#ffffff"
     id="path1"
     style="fill:#ffffff;fill-opacity:1" /><g
     style="fill:none"
     id="g2"
     transform="translate(-27)"><g
       style="fill:none"
       id="g3"><g
         id="g6"><path
           d="M 39.852636,21.6 H 37.560037 V 17.136012 L 33.728559,10.4 h 2.669499 l 2.386762,4.48 2.402524,-4.48 h 2.496771 l -3.831479,6.752024 z"
           fill="#0e141b"
           id="path2"
           style="fill:#000000;fill-opacity:1;stroke-width:0.82963" /><g
           style="fill:none"
           id="g5"
           transform="translate(26.441441,0.096)"><g
             style="fill:none"
             id="g8"
             transform="translate(-69.429269,-17.085981)"><path
               d="m 93.131269,27.389981 v 9.168 h 2.128 v 2.032 h -7.152 v -2.032 h 2.64 v -6.576 l -2.352,0.992 -0.752,-1.76 3.68,-1.824 z"
               fill="#0e141b"
               id="path3-1" /></g></g></g></g></g></svg>
