<svg width="32" height="32" fill="none" version="1.1" viewBox="0 0 32 32" xml:space="preserve" xmlns="http://www.w3.org/2000/svg"><path d="m26.83 2-16.643 0.25977c-2.2745 0.03549-4.2491 1.5885-4.8379 3.8047l-5.1738 19.473c-0.87231 3.2836 1.6025 6.5001 4.9727 6.4629l21.719-0.24023c2.7796-0.0308 5.0212-2.3038 5.0352-5.1074l0.097656-19.492c0.0144-2.8768-2.3179-5.2047-5.1699-5.1602zm-2.877 9.6074c1.2906 0 2.3248 0.28236 3.1035 0.84766 0.7786 0.5654 1.168 1.3707 1.168 2.416 0 0.768-0.22388 1.4684-0.67188 2.0977-0.448 0.6187-1.1365 1.3121-2.0645 2.0801l-2.3184 1.9199h5.3906v2.0312h-8.3672v-1.9512l3.2324-2.6895 0.27148-0.24023c0.4906-0.416 0.86314-0.75181 1.1191-1.0078 0.2666-0.256 0.48062-0.52645 0.64062-0.81445s0.24024-0.60391 0.24024-0.94531c0-0.5546-0.20212-0.97065-0.60742-1.248-0.3947-0.288-0.90781-0.43164-1.5371-0.43164-0.4694 0-0.927 0.07531-1.375 0.22461-0.4374 0.1494-0.82174 0.33459-1.1523 0.55859l-0.80078-1.7266c0.4906-0.3413 1.0503-0.61371 1.6797-0.81641 0.64-0.2026 1.3234-0.30469 2.0488-0.30469zm-14.873 0.19336h2.7207l2.4316 4.4785 2.4473-4.4785h2.5449l-3.9043 6.752v4.4473h-2.3359v-4.4648z" clip-rule="evenodd" fill="#fff" fill-rule="evenodd"/></svg>
