<svg width="32" height="32" fill="none" version="1.1" viewBox="0 0 32 32" xml:space="preserve" xmlns="http://www.w3.org/2000/svg"><path d="m5.1699 2c-2.852-0.04451-5.1843 2.2833-5.1699 5.1602l0.097656 19.492c0.013988 2.8036 2.2556 5.0766 5.0352 5.1074l21.719 0.24023c3.3702 0.0372 5.845-3.1793 4.9727-6.4629l-5.1738-19.473c-0.5888-2.2162-2.5634-3.7692-4.8379-3.8047zm14.279 9.7988c1.3021 0 2.2841 0.25504 2.9453 0.76367 0.66123 0.5086 0.99219 1.1652 0.99219 1.9688 0 0.51872-0.15378 0.98182-0.45898 1.3887-0.3051 0.40699-0.74636 0.73242-1.3262 0.97656v0.06055c0.68156 0.14249 1.2204 0.43169 1.6172 0.86914 0.40685 0.4374 0.60938 1.0288 0.60938 1.7715 0 0.6816-0.19896 1.2801-0.5957 1.7988-0.3967 0.50861-0.9356 0.90656-1.6172 1.1914-0.6713 0.2746-1.4129 0.41211-2.2266 0.41211-0.7935 0-1.5458-0.10664-2.2578-0.32031-0.7122-0.21367-1.3089-0.51928-1.7871-0.91602l1.084-1.9531c0.7324 0.64088 1.6385 0.96094 2.7168 0.96094 0.58992 0 1.0475-0.11558 1.373-0.34961 0.33567-0.24412 0.50391-0.58061 0.50391-1.0078 0-0.8342-0.62033-1.252-1.8613-1.252h-1.4961v-1.9531h1.3125c0.51893 0 0.92037-0.09023 1.2051-0.27344 0.2951-0.19317 0.44336-0.46267 0.44336-0.80859 0-0.32542-0.14826-0.5915-0.44336-0.79492-0.28475-0.20357-0.6862-0.30469-1.2051-0.30469-0.41694 0-0.82948 0.07054-1.2363 0.21289-0.40683 0.13224-0.76866 0.31689-1.084 0.55078l-1.0977-1.6934c0.529-0.42721 1.1239-0.74922 1.7852-0.96289 0.6715-0.22378 1.3731-0.33594 2.1055-0.33594zm-15.369 2e-3h2.7207l2.4316 4.4785 2.4473-4.4785h2.5449l-3.9043 6.752v4.4472h-2.3359v-4.4648z" clip-rule="evenodd" fill="#fff" fill-rule="evenodd"/></svg>
