<svg xmlns="http://www.w3.org/2000/svg" width="32" height="32" viewBox="0 0 500 500"><path d="M336.12 227.05v45.9h24.964v-45.9zM286.804 214.783v70.465h24.994v-70.465zM237.518 201.233v97.534h24.964v-97.534zM188.232 178.802v142.396h24.964V178.802ZM138.916 206.604v86.792h24.994v-86.792z" style="fill:#000;fill-opacity:1;stroke-width:1.00809"/><path d="M35.797 154.266C16.028 154.266 0 170.326 0 190.094v119.843c0 19.768 16.028 35.797 35.797 35.797h428.436c19.77 0 35.767-16.029 35.767-35.797V190.094c0-19.769-15.998-35.828-35.767-35.828zm152.435 24.536h24.964v142.396h-24.964zm49.286 22.43h24.964v97.535h-24.964zm-98.602 5.372h24.994v86.792h-24.994zm147.888 8.179h24.994v70.465h-24.994zm49.317 12.268h24.963v45.898h-24.963z" style="fill:#fff;stroke-width:1.00809"/></svg>