<svg width="32" height="32" version="1.1" viewBox="0 0 500 500" xmlns="http://www.w3.org/2000/svg">
 <path d="m35.797 154.27c-19.769 0-35.797 16.06-35.797 35.828v119.84c0 19.768 16.028 35.797 35.797 35.797h428.44c19.77 0 35.767-16.029 35.767-35.797v-119.84c0-19.769-15.998-35.828-35.767-35.828h-428.44zm152.44 24.536h24.963v142.4h-24.963v-142.4zm49.286 22.43h24.963v97.534h-24.963v-97.534zm-98.602 5.3711h24.994v86.792h-24.994v-86.792zm147.89 8.1787h24.994v70.465h-24.994v-70.465zm49.316 12.268h24.963v45.898h-24.963v-45.898z" fill="#fff" stroke-width="1.0081"/>
</svg>
