<svg xmlns="http://www.w3.org/2000/svg" width="32" height="32" viewBox="0 0 500 500"><path d="M124.481 315.369v24.23h253.632v-24.23zM94.604 237.885v24.23h47.333v-24.23zM182.434 237.885v24.23h47.302v-24.23zM270.264 237.885v24.23h47.302v-24.23zM358.063 237.885v24.23h47.333v-24.23zM358.063 160.4v24.231h47.333v-24.23zM270.264 160.4v24.231h47.302v-24.23zM182.434 160.4v24.231h47.302v-24.23zM94.604 160.4v24.231h47.333v-24.23z" style="fill:#000;fill-opacity:1;stroke-width:1.00804"/><path d="M54.504 89.844C24.404 89.844 0 114.248 0 144.348v211.304c0 30.1 24.404 54.504 54.504 54.504h390.992c30.1 0 54.504-24.404 54.504-54.504V144.348c0-30.1-24.404-54.504-54.504-54.504zm40.1 70.556h47.333v24.231H94.604Zm87.83 0h47.302v24.231h-47.302zm87.83 0h47.302v24.231h-47.302zm87.799 0h47.333v24.231h-47.333ZM94.604 237.885h47.333v24.23H94.604Zm87.83 0h47.302v24.23h-47.302zm87.83 0h47.302v24.23h-47.302zm87.799 0h47.333v24.23h-47.333ZM124.48 315.369h253.632v24.23H124.48Z" style="fill:#fff;stroke-width:1.00804"/></svg>