<svg width="32" height="32" version="1.1" viewBox="0 0 500 500" xmlns="http://www.w3.org/2000/svg">
 <path d="m54.504 89.844c-30.1 0-54.504 24.404-54.504 54.504v211.3c0 30.1 24.404 54.504 54.504 54.504h390.99c30.1 0 54.504-24.404 54.504-54.504v-211.3c0-30.1-24.404-54.504-54.504-54.504h-390.99zm40.1 70.557h47.333v24.231h-47.333v-24.231zm87.83 0h47.302v24.231h-47.302v-24.231zm87.83 0h47.302v24.231h-47.302v-24.231zm87.799 0h47.333v24.231h-47.333v-24.231zm-263.46 77.484h47.333v24.231h-47.333v-24.231zm87.83 0h47.302v24.231h-47.302v-24.231zm87.83 0h47.302v24.231h-47.302v-24.231zm87.799 0h47.333v24.231h-47.333v-24.231zm-233.58 77.484h253.63v24.231h-253.63v-24.231z" fill="#fff" stroke-width="1.008"/>
</svg>
