<svg xmlns="http://www.w3.org/2000/svg" width="32" height="32" viewBox="0 0 500 500"><path d="M422.668 222.015c-2.53 0-3.784 1.005-3.784 3.022v39.428c0 2.017 1.254 3.022 3.784 3.022h23.835c2.53 0 3.784-1.005 3.784-3.022v-39.428c0-2.017-1.254-3.022-3.784-3.022z" style="fill:#fff;stroke-width:1.00809"/><path d="M415.65 209.015c-12.28 0-18.403 4.921-18.403 14.74v41.992c0 9.819 6.124 14.74 18.402 14.74h37.873c12.268 0 18.402-4.921 18.402-14.74v-41.992c0-9.819-6.134-14.74-18.402-14.74zm7.018 13h23.835c2.53 0 3.784 1.005 3.784 3.022v39.428c0 2.017-1.254 3.022-3.784 3.022h-23.835c-2.53 0-3.784-1.005-3.784-3.022v-39.428c0-2.017 1.254-3.022 3.784-3.022" style="fill:#000;fill-opacity:1;stroke-width:1.00809"/><path d="M327.942 249.603v17.884h25.452c2.52 0 3.784-1.005 3.784-3.022v-11.81c0-2.016-1.264-3.052-3.784-3.052zM327.942 222.015v14.618h24.353c2.53 0 3.784-1.005 3.784-3.02v-8.576c0-2.017-1.254-3.022-3.784-3.022z" style="fill:#fff;stroke-width:1.00809"/><path d="M306.305 209.015v71.472h54.108c12.268 0 18.402-4.921 18.402-14.74v-10.07c0-6.574-2.705-10.925-8.118-13.093 4.688-2.308 7.05-6.504 7.05-12.573v-6.256c0-9.819-6.134-14.74-18.403-14.74zm21.637 13h24.353c2.53 0 3.784 1.005 3.784 3.022v8.575c0 2.016-1.254 3.021-3.784 3.021h-24.353zm0 27.588h25.452c2.52 0 3.784 1.036 3.784 3.052v11.81c0 2.017-1.264 3.022-3.784 3.022h-25.452z" style="fill:#000;fill-opacity:1;stroke-width:1.00809"/><path d="M238.098 222.015v18.402h24.353c2.52 0 3.784-1.005 3.784-3.02v-12.36c0-2.017-1.264-3.022-3.784-3.022z" style="fill:#fff;stroke-width:1.00809"/><path d="M216.43 209.015v71.472h21.668v-27.069h11.78l17.883 27.07h23.377l-17.853-27.07c9.738-1.15 14.587-6.08 14.587-14.74v-14.923c0-9.819-6.103-14.74-18.371-14.74zm21.668 13h24.353c2.52 0 3.784 1.005 3.784 3.022v12.36c0 2.015-1.264 3.02-3.784 3.02h-24.353zM122.253 209.015v56.732c0 9.819 6.134 14.74 18.403 14.74h37.902c12.269 0 18.402-4.921 18.402-14.74v-56.732h-21.667v55.45c0 2.017-1.264 3.022-3.784 3.022h-23.834c-2.52 0-3.785-1.005-3.785-3.022v-55.45zM28.046 209.015v13H57.28v58.472H78.95v-58.472h29.236v-13z" style="fill:#000;fill-opacity:1;stroke-width:1.00809"/><path d="M35.767 154.266C15.997 154.266 0 170.326 0 190.094v119.843c0 19.768 15.998 35.797 35.767 35.797h428.436c19.769 0 35.797-16.029 35.797-35.797V190.094c0-19.769-16.028-35.828-35.797-35.828zm-7.721 54.749h80.139v13H78.949v58.472H57.281v-58.472H28.046zm94.207 0h21.637v55.45q.002 3.024 3.785 3.022h23.834q3.782.002 3.784-3.022v-55.45h21.667v56.732c0 9.819-6.133 14.74-18.402 14.74h-37.902c-12.269 0-18.403-4.921-18.403-14.74zm94.178 0h53.07c12.268 0 18.371 4.921 18.371 14.74v14.923c0 8.66-4.849 13.59-14.587 14.74l17.853 27.07H267.76l-17.883-27.07h-11.78v27.07h-21.667zm89.874 0h53.04c12.268 0 18.402 4.921 18.402 14.74v6.256c0 6.069-2.362 10.265-7.05 12.573 5.413 2.168 8.118 6.52 8.118 13.092v10.071c0 9.819-6.134 14.74-18.402 14.74h-54.108zm109.344 0h37.873c12.268 0 18.402 4.921 18.402 14.74v41.992c0 9.819-6.134 14.74-18.402 14.74h-37.873c-12.278 0-18.402-4.921-18.402-14.74v-41.992c0-9.819 6.124-14.74 18.402-14.74" style="fill:#fff;stroke-width:1.00809"/></svg>