<svg width="32" height="32" version="1.1" viewBox="0 0 500 500" xmlns="http://www.w3.org/2000/svg">
 <path d="m35.767 154.27c-19.77 0-35.767 16.06-35.767 35.828v119.84c0 19.768 15.998 35.797 35.767 35.797h428.44c19.769 0 35.797-16.029 35.797-35.797v-119.84c0-19.769-16.028-35.828-35.797-35.828h-428.44zm-7.7209 54.749h80.139v13h-29.236v58.472h-21.667v-58.472h-29.236v-13zm94.208 0h21.637v55.45c0 2.017 1.2642 3.0212 3.7842 3.0212h23.834c2.52 0 3.7842-1.0042 3.7842-3.0212v-55.45h21.667v56.732c0 9.819-6.1331 14.74-18.402 14.74h-37.903c-12.269 0-18.402-4.921-18.402-14.74v-56.732zm94.177 0h53.07c12.268 0 18.372 4.921 18.372 14.74v14.923c0 8.66-4.8494 13.59-14.587 14.74l17.853 27.069h-23.376l-17.883-27.069h-11.78v27.069h-21.667v-71.472zm89.874 0h53.04c12.269 0 18.402 4.921 18.402 14.74v6.2561c0 6.069-2.3616 10.265-7.0496 12.573 5.413 2.168 8.1177 6.518 8.1177 13.092v10.071c0 9.819-6.1341 14.74-18.402 14.74h-54.108v-71.472zm109.34 0h37.872c12.268 0 18.402 4.921 18.402 14.74v41.992c0 9.819-6.1341 14.74-18.402 14.74h-37.872c-12.278 0-18.402-4.921-18.402-14.74v-41.992c0-9.819 6.1221-14.74 18.402-14.74zm-177.55 13v18.402h24.353c2.52 0 3.7842-1.0062 3.7842-3.0212v-12.36c0-2.017-1.2642-3.0212-3.7842-3.0212h-24.353zm89.844 0v14.618h24.353c2.53 0 3.7842-1.0052 3.7842-3.0212v-8.5754c0-2.017-1.2542-3.0212-3.7842-3.0212h-24.353zm94.727 0c-2.53 0-3.7842 1.0042-3.7842 3.0212v39.429c0 2.017 1.2542 3.0212 3.7842 3.0212h23.834c2.53 0 3.7842-1.0042 3.7842-3.0212v-39.429c0-2.017-1.2542-3.0212-3.7842-3.0212h-23.834zm-94.727 27.588v17.883h25.452c2.52 0 3.7842-1.0042 3.7842-3.0212v-11.81c0-2.016-1.2642-3.0518-3.7842-3.0518h-25.452z" fill="#fff" stroke-width="1.0081"/>
</svg>
