<svg width="32" height="32" fill="none" version="1.1" viewBox="0 0 32 32" xml:space="preserve" xmlns="http://www.w3.org/2000/svg"><path d="m17.754 7.5527a0.49432 0.49432 0 0 0-0.48633 0.61719l1.5195 5.9492-9.6797 8.1641a0.49432 0.49432 0 0 0-0.17578 0.37695v1.293a0.49432 0.49432 0 0 0 0.74023 0.42773l5.793-3.3379h1.9375l1.9902 0.7168 1.1758 0.97852 1.0391 1.4961a0.49432 0.49432 0 0 0 0.89648-0.21094l0.30274-2.1113a0.49432 0.49432 0 0 0 0.0039-0.07031v-1.8105a0.49432 0.49432 0 0 0-0.05859-0.23633l-0.55664-1.0273-0.51562-1.0273a0.49432 0.49432 0 0 0-0.10547-0.14258l-0.05078-0.04687 4.2148-2.2578a0.49432 0.49432 0 0 0 0.09375-0.80664l-7.7598-6.8106a0.49432 0.49432 0 0 0-0.31836-0.12305zm-9.668 1.3359a0.49432 0.49432 0 0 0-0.4043 0.21484l-1.5957 2.3281a0.49432 0.49432 0 0 0-0.054688 0.45312l2.1562 5.7324a0.49432 0.49432 0 0 0 0.94531-0.06641l1.3359-6.0352a0.49432 0.49432 0 0 0-0.12109-0.44531l-1.8965-2.0254a0.49432 0.49432 0 0 0-0.36523-0.15625zm8.0625 0.77539a0.49432 0.49432 0 0 0-0.19922 0.042969l-3.4922 1.5527a0.49432 0.49432 0 0 0-0.25586 0.26172l-3.4473 8.3203a0.49432 0.49432 0 0 0 0.79492 0.54883l6.6387-6.252a0.49432 0.49432 0 0 0 0.1543-0.31836l0.30078-3.6211a0.49432 0.49432 0 0 0-0.49414-0.53516zm14.352 6.3359c0 8.0081-6.4919 14.5-14.5 14.5-8.0081 0-14.5-6.4919-14.5-14.5 0-8.0081 6.4919-14.5 14.5-14.5 8.0081 0 14.5 6.4919 14.5 14.5z" fill="#fff"/></svg>
