<svg width="32" height="32" fill="none" version="1.1" viewBox="0 0 32 32" xml:space="preserve" xmlns="http://www.w3.org/2000/svg"><path d="m16 1.5c-8.0081 0-14.5 6.4919-14.5 14.5s6.4919 14.5 14.5 14.5 14.5-6.4919 14.5-14.5-6.4919-14.5-14.5-14.5zm4.5781 4.5c0.05198-0.00525 0.10853 0.012348 0.17188 0.054687l-0.0293 0.00195c0.08771 0.051977 0.0957 0.42147 0.0957 2.6758 0.0057 1.4402 0.03396 3.2172 0.08594 3.9492 0.25664 5.0167 0.88343 9.2044 1.8496 12.393 0.10701 0.37042 0.18844 0.71793 0.17578 0.78516v2e-3c-0.03573 0.11046-0.23819 0.17955-0.35352 0.11133-0.03573-0.02578-0.79403-0.70569-1.6562-1.5098l-1.5664-1.4629-0.03711-1.623-0.03516-1.623-0.29492-0.67383c-0.16243-0.37134-0.29883-0.72016-0.29883-0.77344 0-0.05198 0.06201-0.4579 0.14648-0.89648 0.23716-1.2988 0.34701-2.4132 0.34961-3.584 0.0039-1.178-0.0363-1.3594-0.2832-1.3594-0.26315 0-1.3275 1.5486-1.6641 2.4219-0.74526 1.932-1.5443 5.9876-1.4121 7.1699 0.02578 0.25664-0.08692 0.44922-0.25586 0.44922h-2e-3l-2e-3 -2e-3c-0.16781-0.02868-2.2293-1.8508-2.2617-2v-2e-3c0-0.05198 0.09333-0.26405 0.2168-0.45312 0.12344-0.18519 0.31567-0.54607 0.43555-0.79883 0.37816-0.79951 0.28988-1.4279-0.28516-2.0039-0.12344-0.12344-0.31921-0.25462-0.42188-0.27734-0.11046-0.02578-0.21427-0.09453-0.25-0.15625-0.06172-0.13644-0.05157-0.16806 0.5332-1.1934l0.39258-0.68555-0.1582-0.42969-0.16016-0.42773 0.82617-1.5469c0.45222-0.85085 0.90416-1.6908 1.002-1.8652 0.07949-0.14528 0.13348-0.27447 0.13086-0.31055v-2e-3l-2e-3 -2e-3v-2e-3h-2e-3l-2e-3 -2e-3h-2e-3c-0.02579 0-0.35522 0.29204-0.7207 0.65039-1.8833 1.8489-3.2336 4.0582-3.9766 6.5098-0.53637 1.7702-0.72388 3.2497-0.68359 5.3789 0.02579 1.4119 0.02561 1.5043-0.08789 1.5605-0.06822 0.03573-0.15181 0.03604-0.2168 0.0039-0.16865-0.093923-2.206-3.1421-2.154-3.2282 0.025778-0.03573 0.20383-0.26019 0.39453-0.48438 0.29564-0.34471 0.34332-0.42959 0.29688-0.54492-0.025778-0.068225-0.26028-0.64544-0.51367-1.2656-0.25341-0.62246-0.46094-1.1563-0.46094-1.1895 0-0.13968 0.1976-0.25772 0.36914-0.21875 0.2469 0.05198 0.39512-0.0061 0.5293-0.23047 0.068223-0.11046 0.28198-0.81825 0.48828-1.582l0.37305-1.3867 0.31836-0.33594c1.0419-1.0942 1.622-2.3877 1.4375-3.2012l-0.05078-0.26367 1.3418-1.3145c1.7277-1.6939 1.7562-1.7193 1.9453-1.6719 0.2404 0.051977 0.18916 0.26625-0.27539 1.0762-0.77288 1.3398-1.3356 2.5948-1.6523 3.6875-0.15626 0.53962-0.24455 1.1008-0.19336 1.1738l2e-3 2e-3h2e-3l2e-3 2e-3h2e-3l2e-3 2e-3h2e-3 2e-3 2e-3l2e-3 -2e-3h2e-3c0.0014-6.1e-4 0.0043-1e-3 0.0059-2e-3 0.03573-0.02578 0.37054-0.48187 0.74609-1.0215 1.3122-1.8917 3.0338-4.1252 4.332-5.623 0.53799-0.62051 0.7252-0.72248 0.86133-0.46875 0.05197 0.094212 0.0066 0.25994-0.20117 0.83203-0.72447 1.9161-1.2179 3.7778-1.457 5.5039-0.10614 0.72271-0.18626 2.1387-0.14062 2.248v2e-3h2e-3v2e-3h2e-3c0.0877 0 1.2728-2.0807 1.9473-3.418 0.8398-1.6676 1.3023-2.7523 1.7344-4.082 0.38238-1.178 0.41362-1.2629 0.51758-1.3672 0.04711-0.047105 0.0945-0.074825 0.14648-0.080078z" fill="#fff"/></svg>
