<svg width="32" height="32" fill="none" version="1.1" viewBox="0 0 32 32" xml:space="preserve" xmlns="http://www.w3.org/2000/svg"><path d="m21.01 8.25a2.8608 2.8608 0 0 0-2.8594 2.8613 2.8608 2.8608 0 0 0 2.8594 2.8613 2.8608 2.8608 0 0 0 2.8613-2.8613 2.8608 2.8608 0 0 0-2.8613-2.8613zm-12.596 0.03125a0.38148 0.38148 0 0 0-0.38086 0.38086l-0.033203 14.672a0.38148 0.38148 0 0 0 0.38086 0.38281l15.17 0.033203a0.38148 0.38148 0 0 0 0.38281-0.37891l0.066406-7.4512a0.38148 0.38148 0 0 0-0.38086-0.38477h-2.4297a0.38148 0.38148 0 0 0-0.38086 0.38086v4.7754h-9.8164v-9.3184h4.9082a0.38148 0.38148 0 0 0 0.38086-0.38086v-2.3281a0.38148 0.38148 0 0 0-0.38086-0.38281zm22.086 7.7188c0 8.0081-6.4919 14.5-14.5 14.5-8.0081 0-14.5-6.4919-14.5-14.5 0-8.0081 6.4919-14.5 14.5-14.5 8.0081 0 14.5 6.4919 14.5 14.5z" fill="#fff"/></svg>
