<svg width="169.18mm" height="71.88mm" version="1.1" viewBox="0 0 169.18 71.88" xml:space="preserve" xmlns="http://www.w3.org/2000/svg"><g fill="none" stroke="#899099"><g stroke-width=".3"><path d="m34.156 4.4555h100.7c0.62594 0 1.1298 0.50391 1.1298 1.1298v57.92c0 0.62593-0.50391 1.1298-1.1298 1.1298h-100.7c-0.62593 0-1.1298-0.50391-1.1298-1.1298v-57.92c0-0.62593 0.50391-1.1298 1.1298-1.1298z"/><path d="m15.422 40.586h14.525c0.62593 0 1.1298 0.50391 1.1298 1.1298v11.619c0 0.62593-0.50391 1.1298-1.1298 1.1298h-14.525c-0.62593 0-1.1298-0.50391-1.1298-1.1298v-11.619c0-0.62593 0.50391-1.1298 1.1298-1.1298z"/><path d="m139.25 40.586h14.525c0.62594 0 1.1298 0.50391 1.1298 1.1298v11.619c0 0.62593-0.50391 1.1298-1.1298 1.1298h-14.525c-0.62593 0-1.1298-0.50391-1.1298-1.1298v-11.619c0-0.62593 0.50391-1.1298 1.1298-1.1298z"/><path d="m28.574 10.611h1.8313c0.28703 0 0.5181 0.23107 0.5181 0.5181v7.1706c0 0.30752-0.07053 0.95399-0.5181 0.5181l-1.8313-1.7835c-0.16897-0.16456-0.5181-0.47597-0.5181-0.5181v-5.3871c0-0.28703 0.23107-0.5181 0.5181-0.5181z"/><path d="m140.53 10.611h-1.8313c-0.28703 0-0.5181 0.23107-0.5181 0.5181v7.1706c0 0.30752 0.0705 0.95399 0.5181 0.5181l1.8313-1.7835c0.16897-0.16456 0.5181-0.47597 0.5181-0.5181v-5.3871c0-0.28703-0.23107-0.5181-0.5181-0.5181z"/><path d="m29.888 7.4415a0.40553 0.40553 0 0 1-0.40553 0.40553 0.40553 0.40553 0 0 1-0.40553-0.40553 0.40553 0.40553 0 0 1 0.40553-0.40553 0.40553 0.40553 0 0 1 0.40553 0.40553z"/></g><path d="m30.987 59.65v-2.2377c0-0.35072-0.28235-0.63308-0.63308-0.63308h-8.7618c-0.37576 0-1.1657 0.08618-0.63308 0.63308l2.1793 2.2377c0.20108 0.20647 0.5816 0.63308 0.63308 0.63308h6.5825c0.35072 0 0.63308-0.28235 0.63308-0.63308z" stroke-width=".36657"/><path d="m138.22 59.033v-1.7856c0-0.27986 0.2253-0.50516 0.50515-0.50516h6.9915c0.29983 0 0.93016 0.06877 0.50515 0.50516l-1.739 1.7856c-0.16045 0.16475-0.46407 0.50516-0.50515 0.50516h-5.2525c-0.27985 0-0.50515-0.2253-0.50515-0.50516z" stroke-width=".29251"/><path d="m150.41 57.247v1.7856c0 0.27986-0.2253 0.50516-0.50515 0.50516h-3.3955c-0.29983 0-0.93016-0.06877-0.50515-0.50516l1.739-1.7856c0.16045-0.16475 0.46407-0.50516 0.50515-0.50516h1.6565c0.27985 0 0.50515 0.2253 0.50515 0.50516z" stroke-width=".29251"/><g stroke-width=".3"><path d="m140.22 7.4415a0.56774 0.56774 0 0 1-0.56774 0.56774 0.56774 0.56774 0 0 1-0.56775-0.56774 0.56774 0.56774 0 0 1 0.56775-0.56774 0.56774 0.56774 0 0 1 0.56774 0.56774z"/><path d="m141.33 7.4415a1.6785 1.6356 0 0 1-1.6785 1.6356 1.6785 1.6356 0 0 1-1.6785-1.6356 1.6785 1.6356 0 0 1 1.6785-1.6356 1.6785 1.6356 0 0 1 1.6785 1.6356z"/><path d="m158.09 10.461a2.5278 2.5278 0 0 1-2.5278 2.5278 2.5278 2.5278 0 0 1-2.5278-2.5278 2.5278 2.5278 0 0 1 2.5278-2.5278 2.5278 2.5278 0 0 1 2.5278 2.5278z"/><path d="m152.32 16.286a2.5278 2.5278 0 0 1-2.5278 2.5278 2.5278 2.5278 0 0 1-2.5278-2.5278 2.5278 2.5278 0 0 1 2.5278-2.5278 2.5278 2.5278 0 0 1 2.5278 2.5278z"/><path d="m163.94 16.286a2.5278 2.5278 0 0 1-2.5278 2.5278 2.5278 2.5278 0 0 1-2.5278-2.5278 2.5278 2.5278 0 0 1 2.5278-2.5278 2.5278 2.5278 0 0 1 2.5278 2.5278z"/><path d="m158.09 22.103a2.5278 2.5278 0 0 1-2.5278 2.5278 2.5278 2.5278 0 0 1-2.5278-2.5278 2.5278 2.5278 0 0 1 2.5278-2.5278 2.5278 2.5278 0 0 1 2.5278 2.5278z"/><path d="m149.09 30.895a3.1767 3.1767 0 0 1-3.1767 3.1767 3.1767 3.1767 0 0 1-3.1766-3.1767 3.1767 3.1767 0 0 1 3.1766-3.1767 3.1767 3.1767 0 0 1 3.1767 3.1767z"/><path d="m149.65 30.895a3.7444 3.7444 0 0 1-3.7444 3.7444 3.7444 3.7444 0 0 1-3.7444-3.7444 3.7444 3.7444 0 0 1 3.7444-3.7444 3.7444 3.7444 0 0 1 3.7444 3.7444z"/><path d="m150.95 30.895a5.0421 5.0421 0 0 1-5.0421 5.0421 5.0421 5.0421 0 0 1-5.0421-5.0421 5.0421 5.0421 0 0 1 5.0421-5.0421 5.0421 5.0421 0 0 1 5.0421 5.0421z"/><path d="m151.49 30.895a5.5828 5.5828 0 0 1-5.5828 5.5828 5.5828 5.5828 0 0 1-5.5828-5.5828 5.5828 5.5828 0 0 1 5.5828-5.5828 5.5828 5.5828 0 0 1 5.5828 5.5828z"/><path d="m152.02 30.895a6.114 6.114 0 0 1-6.114 6.114 6.114 6.114 0 0 1-6.114-6.114 6.114 6.114 0 0 1 6.114-6.114 6.114 6.114 0 0 1 6.114 6.114z"/><path d="m153.62 30.895a7.7091 7.7091 0 0 1-7.7091 7.7091 7.7091 7.7091 0 0 1-7.7091-7.7091 7.7091 7.7091 0 0 1 7.7091-7.7091 7.7091 7.7091 0 0 1 7.7091 7.7091z"/><path d="m145.87 23.19h3e-5c0.11622 0 0.20979 0.09357 0.20979 0.2098v1.1703c0 0.11623-0.0936 0.2098-0.20979 0.2098h-3e-5c-0.11622 0-0.20979-0.09357-0.20979-0.2098v-1.1703c0-0.11623 0.0936-0.2098 0.20979-0.2098z"/><path d="m145.87 37.01h3e-5c0.11622 0 0.20979 0.09357 0.20979 0.2098v1.1703c0 0.11623-0.0936 0.2098-0.20979 0.2098h-3e-5c-0.11622 0-0.20979-0.09357-0.20979-0.2098v-1.1703c0-0.11623 0.0936-0.2098 0.20979-0.2098z"/><path d="m140.47 25.429 2e-5 -1.6e-5c0.0822-0.08218 0.21453-0.08216 0.2967 2e-6l0.82754 0.82754c0.0822 0.08219 0.0822 0.21452 0 0.2967l-1e-5 1.5e-5c-0.0822 0.08219-0.21454 0.08216-0.2967-1e-6l-0.82754-0.82754c-0.0822-0.08219-0.0822-0.21452-1e-5 -0.2967z"/><path d="m140.41 36.292-1e-5 -1.4e-5c-0.0822-0.08219-0.0822-0.21452-1e-5 -0.2967l0.82754-0.82754c0.0822-0.08219 0.21454-0.08216 0.29671 1e-6l1e-5 1.5e-5c0.0822 0.08219 0.0822 0.21452 0 0.2967l-0.82754 0.82754c-0.0822 0.08219-0.21453 0.08217-0.2967-1e-6z"/><path d="m151.37 36.33-2e-5 1.6e-5c-0.0822 0.08219-0.21453 0.08216-0.2967-2e-6l-0.82754-0.82754c-0.0822-0.08219-0.0822-0.21452 0-0.2967l1e-5 -1.6e-5c0.0822-0.08219 0.21454-0.08216 0.2967 1e-6l0.82754 0.82754c0.0822 0.08219 0.0822 0.21452 1e-5 0.2967z"/><path d="m153.62 30.828v2.2e-5c0 0.11623-0.0936 0.2098-0.2098 0.2098h-1.1703c-0.11623 0-0.2098-0.09357-0.2098-0.2098v-2.2e-5c0-0.11623 0.0936-0.2098 0.2098-0.2098h1.1703c0.11623 0 0.2098 0.09357 0.2098 0.2098z"/><path d="m151.31 25.392 1e-5 1.5e-5c0.0822 0.08219 0.0822 0.21452 0 0.2967l-0.82754 0.82754c-0.0822 0.08219-0.21453 0.08216-0.2967-1e-6l-1e-5 -1.4e-5c-0.0822-0.08219-0.0822-0.21452 0-0.2967l0.82754-0.82754c0.0822-0.08219 0.21453-0.08216 0.2967 1e-6z"/><path d="m138.21 30.828v-2.2e-5c0-0.11623 0.0936-0.2098 0.2098-0.2098h1.1703c0.11623 0 0.2098 0.09357 0.2098 0.2098v2.2e-5c0 0.11623-0.0936 0.2098-0.2098 0.2098h-1.1703c-0.11623 0-0.2098-0.09357-0.2098-0.2098z"/><path d="m26.435 30.895a3.1767 3.1767 0 0 1-3.1767 3.1767 3.1767 3.1767 0 0 1-3.1766-3.1767 3.1767 3.1767 0 0 1 3.1766-3.1767 3.1767 3.1767 0 0 1 3.1767 3.1767z"/><path d="m27.003 30.895a3.7444 3.7444 0 0 1-3.7444 3.7444 3.7444 3.7444 0 0 1-3.7444-3.7444 3.7444 3.7444 0 0 1 3.7444-3.7444 3.7444 3.7444 0 0 1 3.7444 3.7444z"/><path d="m28.301 30.895a5.0421 5.0421 0 0 1-5.0421 5.0421 5.0421 5.0421 0 0 1-5.0421-5.0421 5.0421 5.0421 0 0 1 5.0421-5.0421 5.0421 5.0421 0 0 1 5.0421 5.0421z"/><path d="m28.841 30.895a5.5828 5.5828 0 0 1-5.5828 5.5828 5.5828 5.5828 0 0 1-5.5828-5.5828 5.5828 5.5828 0 0 1 5.5828-5.5828 5.5828 5.5828 0 0 1 5.5828 5.5828z"/><path d="m29.373 30.895a6.114 6.114 0 0 1-6.114 6.114 6.114 6.114 0 0 1-6.114-6.114 6.114 6.114 0 0 1 6.114-6.114 6.114 6.114 0 0 1 6.114 6.114z"/><path d="m30.968 30.895a7.7091 7.7091 0 0 1-7.7091 7.7091 7.7091 7.7091 0 0 1-7.7091-7.7091 7.7091 7.7091 0 0 1 7.7091-7.7091 7.7091 7.7091 0 0 1 7.7091 7.7091z"/><path d="m23.22 23.19h3e-5c0.11622 0 0.20979 0.09357 0.20979 0.2098v1.1703c0 0.11623-0.0936 0.2098-0.20979 0.2098h-3e-5c-0.11622 0-0.20979-0.09357-0.20979-0.2098v-1.1703c0-0.11623 0.0936-0.2098 0.20979-0.2098z"/><path d="m23.22 37.01h3e-5c0.11622 0 0.20979 0.09357 0.20979 0.2098v1.1703c0 0.11623-0.0936 0.2098-0.20979 0.2098h-3e-5c-0.11622 0-0.20979-0.09357-0.20979-0.2098v-1.1703c0-0.11623 0.0936-0.2098 0.20979-0.2098z"/><path d="m17.821 25.429 1.5e-5 -1.6e-5c0.08219-0.08219 0.21454-0.08216 0.2967 1e-6l0.82754 0.82754c0.08219 0.08219 0.08219 0.21452 1e-6 0.2967l-1.5e-5 1.6e-5c-0.08219 0.08218-0.21454 0.08216-0.2967-2e-6l-0.82754-0.82754c-0.08219-0.08219-0.08219-0.21452-1e-6 -0.2967z"/><path d="m17.757 36.292-1.4e-5 -1.4e-5c-0.08219-0.08219-0.08219-0.21452-1e-6 -0.2967l0.82754-0.82754c0.08219-0.08219 0.21454-0.08216 0.2967 1e-6l1.4e-5 1.4e-5c0.08219 0.08219 0.08219 0.21452 1e-6 0.2967l-0.82754 0.82754c-0.08219 0.08219-0.21454 0.08216-0.2967-1e-6z"/><path d="m28.722 36.33-1.6e-5 1.6e-5c-0.08219 0.08219-0.21454 0.08216-0.2967-2e-6l-0.82754-0.82754c-0.08219-0.08219-0.08219-0.21452-1e-6 -0.2967l1.6e-5 -1.6e-5c0.08218-0.08219 0.21453-0.08216 0.2967 1e-6l0.82754 0.82754c0.08219 0.08219 0.08219 0.21452 2e-6 0.2967z"/><path d="m30.964 30.828v2.2e-5c0 0.11623-0.0936 0.2098-0.2098 0.2098h-1.1703c-0.11623 0-0.2098-0.09357-0.2098-0.2098v-2.2e-5c0-0.11623 0.0936-0.2098 0.2098-0.2098h1.1703c0.11623 0 0.2098 0.09357 0.2098 0.2098z"/><path d="m28.657 25.392 1.5e-5 1.4e-5c0.08219 0.08219 0.08219 0.21452 1e-6 0.2967l-0.82754 0.82754c-0.08219 0.08218-0.21454 0.08216-0.2967-2e-6l-1.4e-5 -1.4e-5c-0.08219-0.08219-0.08219-0.21452-1e-6 -0.2967l0.82754-0.82754c0.08219-0.08218 0.21454-0.08216 0.2967 2e-6z"/><path d="m15.555 30.828v-2.2e-5c0-0.11623 0.0936-0.2098 0.2098-0.2098h1.1703c0.11623 0 0.2098 0.09357 0.2098 0.2098v2.2e-5c0 0.11623-0.0936 0.2098-0.2098 0.2098h-1.1703c-0.11623 0-0.2098-0.09357-0.2098-0.2098z"/><path d="m15.496 9.4151v4.0832c-0.48113 0.64369-1.2177 1.5531-2.0933 1.7009-0.89477-0.17712-1.5605-1.038-2.0933-1.7009v-3.9615"/><path d="m13.66 9.8612a0.25008 0.25008 0 0 1-0.25008 0.25008 0.25008 0.25008 0 0 1-0.25008-0.25008 0.25008 0.25008 0 0 1 0.25008-0.25008 0.25008 0.25008 0 0 1 0.25008 0.25008z"/><path d="m14.465 10.659a0.26359 0.26359 0 0 1-0.26359 0.2636 0.26359 0.26359 0 0 1-0.2636-0.2636 0.26359 0.26359 0 0 1 0.2636-0.2636 0.26359 0.26359 0 0 1 0.26359 0.2636z"/><path d="m12.877 10.659a0.26359 0.26359 0 0 1-0.2636 0.2636 0.26359 0.26359 0 0 1-0.2636-0.2636 0.26359 0.26359 0 0 1 0.2636-0.2636 0.26359 0.26359 0 0 1 0.2636 0.2636z"/><path d="m20.142 18.248h-4.0832c-0.64369-0.48113-1.5531-1.2177-1.7009-2.0933 0.17712-0.89477 1.038-1.5605 1.7009-2.0933h3.9615"/><path d="m19.696 16.412a0.25008 0.25008 0 0 1-0.25008-0.25008 0.25008 0.25008 0 0 1 0.25008-0.25008 0.25008 0.25008 0 0 1 0.25008 0.25008 0.25008 0.25008 0 0 1-0.25008 0.25008z"/><path d="m18.899 17.217a0.26359 0.26359 0 0 1-0.2636-0.26359 0.26359 0.26359 0 0 1 0.2636-0.2636 0.26359 0.26359 0 0 1 0.2636 0.2636 0.26359 0.26359 0 0 1-0.2636 0.26359z"/><path d="m18.899 15.629a0.26359 0.26359 0 0 1-0.2636-0.2636 0.26359 0.26359 0 0 1 0.2636-0.2636 0.26359 0.26359 0 0 1 0.2636 0.2636 0.26359 0.26359 0 0 1-0.2636 0.2636z"/><path d="m11.309 22.895v-4.0832c0.48113-0.64369 1.2177-1.5531 2.0933-1.7009 0.89477 0.17712 1.5605 1.038 2.0933 1.7009v3.9615"/><path d="m13.145 22.448a0.25008 0.25008 0 0 1 0.25008-0.25008 0.25008 0.25008 0 0 1 0.25008 0.25008 0.25008 0.25008 0 0 1-0.25008 0.25008 0.25008 0.25008 0 0 1-0.25008-0.25008z"/><path d="m12.341 21.651a0.26359 0.26359 0 0 1 0.26359-0.2636 0.26359 0.26359 0 0 1 0.2636 0.2636 0.26359 0.26359 0 0 1-0.2636 0.2636 0.26359 0.26359 0 0 1-0.26359-0.2636z"/><path d="m13.928 21.651a0.26359 0.26359 0 0 1 0.2636-0.2636 0.26359 0.26359 0 0 1 0.2636 0.2636 0.26359 0.26359 0 0 1-0.2636 0.2636 0.26359 0.26359 0 0 1-0.2636-0.2636z"/><path d="m6.663 14.062h4.0832c0.64369 0.48113 1.5531 1.2177 1.7009 2.0933-0.17712 0.89477-1.038 1.5605-1.7009 2.0933h-3.9615"/><path d="m7.1091 15.897a0.25008 0.25008 0 0 1 0.25008 0.25008 0.25008 0.25008 0 0 1-0.25008 0.25008 0.25008 0.25008 0 0 1-0.25008-0.25008 0.25008 0.25008 0 0 1 0.25008-0.25008z"/><path d="m7.9066 15.093a0.26359 0.26359 0 0 1 0.2636 0.26359 0.26359 0.26359 0 0 1-0.2636 0.2636 0.26359 0.26359 0 0 1-0.2636-0.2636 0.26359 0.26359 0 0 1 0.2636-0.26359z"/><path d="m7.9066 16.681a0.26359 0.26359 0 0 1 0.2636 0.2636 0.26359 0.26359 0 0 1-0.2636 0.2636 0.26359 0.26359 0 0 1-0.2636-0.2636 0.26359 0.26359 0 0 1 0.2636-0.2636z"/><path d="m7.3896 13.187 3.0469-3.0469c1.6398-1.6398 4.2801-1.6398 5.9199 0l3.0617 3.0617c1.6398 1.6398 1.6398 4.2801 0 5.9199l-3.0469 3.0469c-1.6398 1.6398-4.2801 1.6398-5.9199 0l-3.0617-3.0617c-1.6398-1.6398-1.6398-4.2801 1e-7 -5.9199z"/></g><path d="m6.8397 12.916 3.3254-3.3254c1.7897-1.7897 4.6714-1.7897 6.4611 5e-7l3.3416 3.3416c1.7897 1.7897 1.7897 4.6714 0 6.4611l-3.3254 3.3254c-1.7897 1.7897-4.6714 1.7897-6.4611 0l-3.3416-3.3416c-1.7897-1.7897-1.7897-4.6714-6e-7 -6.4611z" stroke-width=".32743"/><path d="m6.0699 12.536 3.7154-3.7154c1.9996-1.9996 5.2192-1.9996 7.2188 2e-7l3.7335 3.7335c1.9996 1.9996 1.9996 5.2192 0 7.2188l-3.7154 3.7154c-1.9996 1.9996-5.2192 1.9996-7.2188 0l-3.7335-3.7335c-1.9996-1.9996-1.9996-5.2192-2e-7 -7.2188z" stroke-width=".36582"/><g><path d="m31.97 67.811c-4.7126 0.13278-5.9605 0.42231-16.063 3.785-11.037-10.196-16.427-20.992-15.569-32.843 0.43645-9.1762 1.3827-18.403 2.8387-27.682 0.29174-1.3777 0.78738-2.3732 1.4869-2.9862 5.3886-2.3233 13.167-5.7821 15.841-6.2557 1.8384-0.32574 6.9179-0.24376 12.222-0.43352h103.72c5.3043 0.18976 10.384 0.10777 12.222 0.43352 2.6733 0.47368 10.452 3.9325 15.841 6.2557 0.69956 0.61307 1.1952 1.6085 1.487 2.9862 1.456 9.2782 2.4023 18.505 2.8387 27.682 0.85883 11.851-4.5316 22.646-15.569 32.843-10.102-3.3626-11.35-3.6522-16.063-3.785h-52.618z" stroke-width=".5"/><g stroke-width=".5"><path d="m32.727 1.3968c-0.18024-0.70666-0.79304-1.0889-1.8384-1.1467-5.299 0.06995-7.6009 0.21125-9.949 0.35146-5.7225 1.2076-10.819 2.8297-15.604 4.9745-0.31112 0.85004-0.39212 1.635-0.3884 2.3881"/><path d="m2.0928 18.707 2.296 5.9239 0.26795 16.147c0.40372 8.9275 10.48 18.091 23.333 27.322"/><path d="m136.45 1.3968c0.18024-0.70666 0.79304-1.0889 1.8384-1.1467 5.299 0.06995 7.6008 0.21125 9.949 0.35146 5.7225 1.2076 10.819 2.8297 15.604 4.9745 0.31112 0.85004 0.39211 1.635 0.38839 2.3881"/><path d="m167.08 18.707-2.296 5.9239-0.26795 16.147c-0.40372 8.9275-10.48 18.091-23.333 27.322"/></g></g></g></svg>
