<?xml version="1.0" encoding="UTF-8" standalone="no"?>
<!-- Created with Inkscape (http://www.inkscape.org/) -->

<svg
   width="169.17503mm"
   height="71.880264mm"
   viewBox="0 0 169.17503 71.880264"
   version="1.1"
   id="svg1"
   xml:space="preserve"
   xmlns="http://www.w3.org/2000/svg"
   xmlns:svg="http://www.w3.org/2000/svg"><defs
     id="defs1" /><g
     id="g55"
     transform="translate(-20.424599,-20.702317)"><rect
       style="fill:none;stroke:#899099;stroke-width:0.3;stroke-dasharray:none"
       id="rect1"
       width="102.964"
       height="60.17997"
       x="53.450821"
       y="25.157827"
       ry="1.1298443" /><rect
       style="fill:none;stroke:#899099;stroke-width:0.3;stroke-dasharray:none"
       id="rect2"
       width="16.78463"
       height="13.878863"
       x="34.71627"
       y="61.288746"
       ry="1.1298442" /><rect
       style="fill:none;stroke:#899099;stroke-width:0.3;stroke-dasharray:none"
       id="rect3"
       width="16.78463"
       height="13.878863"
       x="158.54134"
       y="61.288746"
       ry="1.1298442" /><path
       id="rect4"
       style="fill:none;stroke:#899099;stroke-width:0.3"
       d="m 48.998533,31.313465 h 1.83133 c 0.287029,0 0.518102,0.231074 0.518102,0.518102 v 7.170578 c 0,0.307517 -0.07053,0.953988 -0.518102,0.518102 l -1.83133,-1.783506 C 48.82956,37.572181 48.480431,37.26077 48.480431,37.218639 v -5.387072 c 0,-0.287028 0.231073,-0.518102 0.518102,-0.518102 z" /><path
       id="path5"
       style="fill:none;stroke:#899099;stroke-width:0.3"
       d="m 160.95392,31.313465 h -1.83133 c -0.28703,0 -0.5181,0.231074 -0.5181,0.518102 v 7.170578 c 0,0.307517 0.0705,0.953988 0.5181,0.518102 l 1.83133,-1.783506 c 0.16897,-0.16456 0.5181,-0.475971 0.5181,-0.518102 v -5.387072 c 0,-0.287028 -0.23107,-0.518102 -0.5181,-0.518102 z" /><circle
       style="fill:none;stroke:#899099;stroke-width:0.3;stroke-dasharray:none"
       id="path6"
       cx="49.907284"
       cy="28.143814"
       r="0.40553048" /><path
       id="path7"
       style="fill:none;stroke:#899099;stroke-width:0.366574"
       d="M 51.411728,80.352107 V 78.11438 c 0,-0.350725 -0.282353,-0.633076 -0.633076,-0.633076 h -8.761828 c -0.375759,0 -1.165691,0.08618 -0.633076,0.633076 l 2.17929,2.237727 c 0.201079,0.206471 0.581596,0.633076 0.633076,0.633076 h 6.582538 c 0.350723,0 0.633076,-0.282351 0.633076,-0.633076 z" /><path
       id="path8"
       style="fill:none;stroke:#899099;stroke-width:0.292507"
       d="m 158.64273,79.735022 v -1.78559 c 0,-0.27986 0.2253,-0.505161 0.50515,-0.505161 h 6.9915 c 0.29983,0 0.93016,0.06877 0.50515,0.505161 l -1.73896,1.78559 c -0.16045,0.164754 -0.46407,0.505162 -0.50515,0.505162 h -5.25254 c -0.27985,0 -0.50515,-0.225301 -0.50515,-0.505162 z" /><path
       id="path8-6"
       style="fill:none;stroke:#899099;stroke-width:0.292507"
       d="m 170.83773,77.949433 v 1.78559 c 0,0.27986 -0.2253,0.505161 -0.50515,0.505161 h -3.39547 c -0.29983,0 -0.93016,-0.06877 -0.50515,-0.505161 l 1.73896,-1.78559 c 0.16045,-0.164754 0.46407,-0.505162 0.50515,-0.505162 h 1.65651 c 0.27985,0 0.50515,0.225301 0.50515,0.505162 z" /><circle
       style="fill:none;stroke:#899099;stroke-width:0.3;stroke-dasharray:none"
       id="path9"
       cx="160.07639"
       cy="28.143814"
       r="0.56774265" /><ellipse
       style="fill:none;stroke:#899099;stroke-width:0.3;stroke-dasharray:none"
       id="path10"
       cx="160.07639"
       cy="28.143814"
       rx="1.678497"
       ry="1.6356395" /><circle
       style="fill:none;stroke:#899099;stroke-width:0.3;stroke-dasharray:none"
       id="path11"
       cx="175.98669"
       cy="31.163465"
       r="2.5278068" /><circle
       style="fill:none;stroke:#899099;stroke-width:0.3;stroke-dasharray:none"
       id="path11-2"
       cx="170.21196"
       cy="36.988258"
       r="2.5278068" /><circle
       style="fill:none;stroke:#899099;stroke-width:0.3;stroke-dasharray:none"
       id="path11-2-3"
       cx="181.83502"
       cy="36.988258"
       r="2.5278068" /><circle
       style="fill:none;stroke:#899099;stroke-width:0.3;stroke-dasharray:none"
       id="circle11"
       cx="175.98669"
       cy="42.805141"
       r="2.5278068" /><g
       id="g23"><circle
         style="fill:none;stroke:#899099;stroke-width:0.3;stroke-dasharray:none"
         id="path12"
         cx="166.33508"
         cy="51.596996"
         r="3.1766553" /><circle
         style="fill:none;stroke:#899099;stroke-width:0.3;stroke-dasharray:none"
         id="circle12"
         cx="166.33508"
         cy="51.596996"
         r="3.7443979" /><circle
         style="fill:none;stroke:#899099;stroke-width:0.3;stroke-dasharray:none"
         id="circle13"
         cx="166.33508"
         cy="51.596996"
         r="5.0420952" /><circle
         style="fill:none;stroke:#899099;stroke-width:0.3;stroke-dasharray:none"
         id="circle14"
         cx="166.33508"
         cy="51.596996"
         r="5.5828023" /><circle
         style="fill:none;stroke:#899099;stroke-width:0.3;stroke-dasharray:none"
         id="circle15"
         cx="166.33508"
         cy="51.596996"
         r="6.114048" /><circle
         style="fill:none;stroke:#899099;stroke-width:0.3;stroke-dasharray:none"
         id="circle16"
         cx="166.33508"
         cy="51.596996"
         r="7.7091346" /><rect
         style="fill:none;stroke:#899099;stroke-width:0.3;stroke-dasharray:none"
         id="rect16"
         width="0.41961843"
         height="1.5899162"
         x="166.08704"
         y="43.891853"
         ry="0.20979802" /><rect
         style="fill:none;stroke:#899099;stroke-width:0.3;stroke-dasharray:none"
         id="rect17"
         width="0.41961843"
         height="1.5899162"
         x="166.08704"
         y="57.712337"
         ry="0.20979802" /><rect
         style="fill:none;stroke:#899099;stroke-width:0.3;stroke-dasharray:none"
         id="rect18"
         width="0.41961843"
         height="1.5899162"
         x="80.942139"
         y="146.39189"
         ry="0.20979802"
         transform="rotate(-45)" /><rect
         style="fill:none;stroke:#899099;stroke-width:0.3;stroke-dasharray:none"
         id="rect19"
         width="0.41961843"
         height="1.5899162"
         x="-154.23712"
         y="73.42527"
         ry="0.20979802"
         transform="rotate(-135)" /><rect
         style="fill:none;stroke:#899099;stroke-width:0.3;stroke-dasharray:none"
         id="rect20"
         width="0.41961843"
         height="1.5899162"
         x="-81.361763"
         y="-161.80774"
         ry="0.20979802"
         transform="rotate(135)" /><rect
         style="fill:none;stroke:#899099;stroke-width:0.3;stroke-dasharray:none"
         id="rect21"
         width="0.41961843"
         height="1.5899162"
         x="51.320843"
         y="-174.04073"
         ry="0.20979802"
         transform="rotate(90)" /><rect
         style="fill:none;stroke:#899099;stroke-width:0.3;stroke-dasharray:none"
         id="rect22"
         width="0.41961843"
         height="1.5899162"
         x="153.81749"
         y="-88.840057"
         ry="0.20979802"
         transform="rotate(45)" /><rect
         style="fill:none;stroke:#899099;stroke-width:0.3;stroke-dasharray:none"
         id="rect23"
         width="0.41961843"
         height="1.5899162"
         x="-51.740467"
         y="158.63107"
         ry="0.20979802"
         transform="rotate(-90)" /></g><g
       id="g35"
       transform="translate(-122.65197)"><circle
         style="fill:none;stroke:#899099;stroke-width:0.3;stroke-dasharray:none"
         id="circle23"
         cx="166.33508"
         cy="51.596996"
         r="3.1766553" /><circle
         style="fill:none;stroke:#899099;stroke-width:0.3;stroke-dasharray:none"
         id="circle24"
         cx="166.33508"
         cy="51.596996"
         r="3.7443979" /><circle
         style="fill:none;stroke:#899099;stroke-width:0.3;stroke-dasharray:none"
         id="circle25"
         cx="166.33508"
         cy="51.596996"
         r="5.0420952" /><circle
         style="fill:none;stroke:#899099;stroke-width:0.3;stroke-dasharray:none"
         id="circle26"
         cx="166.33508"
         cy="51.596996"
         r="5.5828023" /><circle
         style="fill:none;stroke:#899099;stroke-width:0.3;stroke-dasharray:none"
         id="circle27"
         cx="166.33508"
         cy="51.596996"
         r="6.114048" /><circle
         style="fill:none;stroke:#899099;stroke-width:0.3;stroke-dasharray:none"
         id="circle28"
         cx="166.33508"
         cy="51.596996"
         r="7.7091346" /><rect
         style="fill:none;stroke:#899099;stroke-width:0.3;stroke-dasharray:none"
         id="rect28"
         width="0.41961843"
         height="1.5899162"
         x="166.08704"
         y="43.891853"
         ry="0.20979802" /><rect
         style="fill:none;stroke:#899099;stroke-width:0.3;stroke-dasharray:none"
         id="rect29"
         width="0.41961843"
         height="1.5899162"
         x="166.08704"
         y="57.712337"
         ry="0.20979802" /><rect
         style="fill:none;stroke:#899099;stroke-width:0.3;stroke-dasharray:none"
         id="rect30"
         width="0.41961843"
         height="1.5899162"
         x="80.942139"
         y="146.39189"
         ry="0.20979802"
         transform="rotate(-45)" /><rect
         style="fill:none;stroke:#899099;stroke-width:0.3;stroke-dasharray:none"
         id="rect31"
         width="0.41961843"
         height="1.5899162"
         x="-154.23712"
         y="73.42527"
         ry="0.20979802"
         transform="rotate(-135)" /><rect
         style="fill:none;stroke:#899099;stroke-width:0.3;stroke-dasharray:none"
         id="rect32"
         width="0.41961843"
         height="1.5899162"
         x="-81.361763"
         y="-161.80774"
         ry="0.20979802"
         transform="rotate(135)" /><rect
         style="fill:none;stroke:#899099;stroke-width:0.3;stroke-dasharray:none"
         id="rect33"
         width="0.41961843"
         height="1.5899162"
         x="51.320843"
         y="-174.04073"
         ry="0.20979802"
         transform="rotate(90)" /><rect
         style="fill:none;stroke:#899099;stroke-width:0.3;stroke-dasharray:none"
         id="rect34"
         width="0.41961843"
         height="1.5899162"
         x="153.81749"
         y="-88.840057"
         ry="0.20979802"
         transform="rotate(45)" /><rect
         style="fill:none;stroke:#899099;stroke-width:0.3;stroke-dasharray:none"
         id="rect35"
         width="0.41961843"
         height="1.5899162"
         x="-51.740467"
         y="158.63107"
         ry="0.20979802"
         transform="rotate(-90)" /></g><g
       id="g38"><path
         id="rect36"
         style="fill:none;stroke:#899099;stroke-width:0.3"
         d="m 35.920634,30.117396 v 4.083206 c -0.481133,0.643694 -1.217733,1.553109 -2.093299,1.700915 -0.894769,-0.17712 -1.560456,-1.038001 -2.0933,-1.700915 v -3.961546" /><circle
         style="fill:none;stroke:#899099;stroke-width:0.3;stroke-dasharray:none"
         id="path37"
         cx="33.834759"
         cy="30.56348"
         r="0.25007713" /><circle
         style="fill:none;stroke:#899099;stroke-width:0.3;stroke-dasharray:none"
         id="path38"
         cx="34.625542"
         cy="31.361021"
         r="0.26359481" /><circle
         style="fill:none;stroke:#899099;stroke-width:0.3;stroke-dasharray:none"
         id="circle38"
         cx="33.03804"
         cy="31.361021"
         r="0.26359481" /></g><g
       id="g41"
       transform="rotate(90,33.827334,36.857132)"><path
         id="path39"
         style="fill:none;stroke:#899099;stroke-width:0.3"
         d="m 35.920634,30.117396 v 4.083206 c -0.481133,0.643694 -1.217733,1.553109 -2.093299,1.700915 -0.894769,-0.17712 -1.560456,-1.038001 -2.0933,-1.700915 v -3.961546" /><circle
         style="fill:none;stroke:#899099;stroke-width:0.3;stroke-dasharray:none"
         id="circle39"
         cx="33.834759"
         cy="30.56348"
         r="0.25007713" /><circle
         style="fill:none;stroke:#899099;stroke-width:0.3;stroke-dasharray:none"
         id="circle40"
         cx="34.625542"
         cy="31.361021"
         r="0.26359481" /><circle
         style="fill:none;stroke:#899099;stroke-width:0.3;stroke-dasharray:none"
         id="circle41"
         cx="33.03804"
         cy="31.361021"
         r="0.26359481" /></g><g
       id="g44"
       transform="rotate(180,33.827335,36.857132)"><path
         id="path41"
         style="fill:none;stroke:#899099;stroke-width:0.3"
         d="m 35.920634,30.117396 v 4.083206 c -0.481133,0.643694 -1.217733,1.553109 -2.093299,1.700915 -0.894769,-0.17712 -1.560456,-1.038001 -2.0933,-1.700915 v -3.961546" /><circle
         style="fill:none;stroke:#899099;stroke-width:0.3;stroke-dasharray:none"
         id="circle42"
         cx="33.834759"
         cy="30.56348"
         r="0.25007713" /><circle
         style="fill:none;stroke:#899099;stroke-width:0.3;stroke-dasharray:none"
         id="circle43"
         cx="34.625542"
         cy="31.361021"
         r="0.26359481" /><circle
         style="fill:none;stroke:#899099;stroke-width:0.3;stroke-dasharray:none"
         id="circle44"
         cx="33.03804"
         cy="31.361021"
         r="0.26359481" /></g><g
       id="g47"
       transform="rotate(-90,33.827336,36.857132)"><path
         id="path44"
         style="fill:none;stroke:#899099;stroke-width:0.3"
         d="m 35.920634,30.117396 v 4.083206 c -0.481133,0.643694 -1.217733,1.553109 -2.093299,1.700915 -0.894769,-0.17712 -1.560456,-1.038001 -2.0933,-1.700915 v -3.961546" /><circle
         style="fill:none;stroke:#899099;stroke-width:0.3;stroke-dasharray:none"
         id="circle45"
         cx="33.834759"
         cy="30.56348"
         r="0.25007713" /><circle
         style="fill:none;stroke:#899099;stroke-width:0.3;stroke-dasharray:none"
         id="circle46"
         cx="34.625542"
         cy="31.361021"
         r="0.26359481" /><circle
         style="fill:none;stroke:#899099;stroke-width:0.3;stroke-dasharray:none"
         id="circle47"
         cx="33.03804"
         cy="31.361021"
         r="0.26359481" /></g><rect
       style="fill:none;stroke:#899099;stroke-width:0.3;stroke-dasharray:none"
       id="rect47"
       width="12.68092"
       height="12.701915"
       x="-8.4820976"
       y="43.63126"
       ry="4.1859841"
       transform="rotate(-45)" /><rect
       style="fill:none;stroke:#899099;stroke-width:0.327427;stroke-dasharray:none"
       id="rect48"
       width="13.840259"
       height="13.863173"
       x="-9.0617666"
       y="43.050632"
       ry="4.5686831"
       transform="rotate(-45)" /><rect
       style="fill:none;stroke:#899099;stroke-width:0.365825;stroke-dasharray:none"
       id="rect49"
       width="15.463332"
       height="15.488934"
       x="-9.8733034"
       y="42.237751"
       ry="5.1044617"
       transform="rotate(-45)" /><g
       id="g51"><path
         style="fill:none;stroke:#899099;stroke-width:0.5;stroke-dasharray:none"
         d="m 52.394537,88.513784 c -4.712566,0.132785 -5.960543,0.42231 -16.06285,3.784952 C 25.294756,82.10235 19.904329,71.306751 20.76316,59.456131 c 0.436454,-9.176193 1.382692,-18.403365 2.838713,-27.681515 0.291735,-1.377749 0.787383,-2.37316 1.486945,-2.986233 5.388577,-2.323263 13.167252,-5.782062 15.840529,-6.255744 1.838382,-0.325745 6.91786,-0.243757 12.222179,-0.433515 h 51.860584 51.86059 c 5.30432,0.189758 10.3838,0.10777 12.22218,0.433515 2.67328,0.473682 10.45196,3.932481 15.84053,6.255744 0.69956,0.613073 1.19521,1.608484 1.48695,2.986233 1.45602,9.27815 2.40226,18.505322 2.83871,27.681515 0.85883,11.85062 -4.5316,22.646219 -15.56853,32.842605 -10.1023,-3.362642 -11.35028,-3.652167 -16.06285,-3.784952 h -52.61758 z"
         id="path49" /><path
         style="fill:none;stroke:#899099;stroke-width:0.499999;stroke-dasharray:none"
         d="m 53.151526,22.099124 c -0.180235,-0.706663 -0.793037,-1.088902 -1.838404,-1.146716 -5.299011,0.06995 -7.600856,0.211254 -9.949014,0.351459 -5.722486,1.20758 -10.819197,2.829702 -15.604456,4.974507 -0.311122,0.850038 -0.392116,1.634981 -0.388396,2.388145"
         id="path50" /><path
         style="fill:none;stroke:#899099;stroke-width:0.499999;stroke-dasharray:none"
         d="m 22.517394,39.409012 2.296019,5.923936 0.267946,16.146968 C 25.48508,70.40738 35.561046,79.570753 48.414146,88.80186"
         id="path51" /></g><g
       id="g54"
       transform="matrix(-1,0,0,1,210.02423,0)"><path
         style="fill:none;stroke:#899099;stroke-width:0.499999;stroke-dasharray:none"
         d="m 53.151526,22.099124 c -0.180235,-0.706663 -0.793037,-1.088902 -1.838404,-1.146716 -5.299011,0.06995 -7.600856,0.211254 -9.949014,0.351459 -5.722486,1.20758 -10.819197,2.829702 -15.604456,4.974507 -0.311122,0.850038 -0.392116,1.634981 -0.388396,2.388145"
         id="path53" /><path
         style="fill:none;stroke:#899099;stroke-width:0.499999;stroke-dasharray:none"
         d="m 22.517394,39.409012 2.296019,5.923936 0.267946,16.146968 C 25.48508,70.40738 35.561046,79.570753 48.414146,88.80186"
         id="path54" /></g></g></svg>
