<svg width="32" height="32" fill="none" version="1.1" viewBox="0 0 32 32" xml:space="preserve" xmlns="http://www.w3.org/2000/svg"><path d="m11.039 5-3.4121 8.668 0.63672 1.252 2.2285-4.1406-2.5254 6.5977 8.0352 9.623 8.0312-9.623-2.5254-6.5977 2.2285 4.1406 0.63672-1.252-3.4121-8.668-0.45508 9.3496-3.207 7.668-1.2988 0.93164-1.2988-0.93164-3.207-7.668zm-3.2539 17.381 0.5 1.1152 0.97852 1.0918 4.8691 1.2285-0.27344-0.47656zm16.43 0-6.0742 2.959-0.27344 0.47656 4.8691-1.2285 0.97852-1.0918zm6.2852-6.3809c0 8.0081-6.4919 14.5-14.5 14.5-8.0081 0-14.5-6.4919-14.5-14.5 0-8.0081 6.4919-14.5 14.5-14.5 8.0081 0 14.5 6.4919 14.5 14.5z" fill="#fff"/></svg>
