<svg width="125.24mm" height="53.038mm" version="1.1" viewBox="0 0 125.24 53.038" xml:space="preserve" xmlns="http://www.w3.org/2000/svg"><defs><clipPath id="clipPath3464"><path transform="translate(-1231.6 -972.64)" d="m0 0h3024v1326h-3024v-1326"/></clipPath><clipPath id="clipPath3466"><path transform="translate(-939.48 -983.63)" d="m0 0h3024v1326h-3024v-1326"/></clipPath><clipPath id="clipPath3468"><path transform="translate(-897.5 -972.64)" d="m0 0h3024v1326h-3024v-1326"/></clipPath><clipPath id="clipPath3470"><path transform="translate(-1064.4 -984.11)" d="m0 0h3024v1326h-3024v-1326"/></clipPath><clipPath id="clipPath3472"><path transform="translate(-1222.1 -961.67)" d="m0 0h3024v1326h-3024v-1326"/></clipPath><clipPath id="clipPath3474"><path transform="translate(-1200.8 -951.01)" d="m0 0h3024v1326h-3024v-1326"/></clipPath><clipPath id="clipPath3476"><path transform="translate(-1232.9 -950.95)" d="m0 0h3024v1326h-3024v-1326"/></clipPath><clipPath id="clipPath3478"><path transform="translate(-1206.5 -856.78)" d="m0 0h3024v1326h-3024v-1326"/></clipPath><clipPath id="clipPath3480"><path transform="translate(-1208.8 -859.76)" d="m0 0h3024v1326h-3024v-1326"/></clipPath><clipPath id="clipPath3482"><path transform="translate(-1185.6 -963.94)" d="m0 0h3024v1326h-3024v-1326"/></clipPath><clipPath id="clipPath3484"><path transform="translate(-1191 -966.78)" d="m0 0h3024v1326h-3024v-1326"/></clipPath><clipPath id="clipPath3486"><path transform="translate(-1200.8 -899.95)" d="m0 0h3024v1326h-3024v-1326"/></clipPath><clipPath id="clipPath3488"><path transform="translate(-1200.8 -867.41)" d="m0 0h3024v1326h-3024v-1326"/></clipPath><clipPath id="clipPath3490"><path transform="translate(-928.54 -899.68)" d="m0 0h3024v1326h-3024v-1326"/></clipPath><clipPath id="clipPath3492"><path transform="translate(-928.54 -867.13)" d="m0 0h3024v1326h-3024v-1326"/></clipPath><clipPath id="clipPath3494"><path transform="translate(-936.68 -963.97)" d="m0 0h3024v1326h-3024v-1326"/></clipPath><clipPath id="clipPath3496"><path transform="translate(-936.9 -954.2)" d="m0 0h3024v1326h-3024v-1326"/></clipPath><clipPath id="clipPath3498"><path transform="translate(-940.87 -957.04)" d="m0 0h3024v1326h-3024v-1326"/></clipPath><clipPath id="clipPath3500"><path transform="translate(-945.15 -917.37)" d="m0 0h3024v1326h-3024v-1326"/></clipPath><clipPath id="clipPath3502"><path transform="translate(-1177.4 -841.92)" d="m0 0h3024v1326h-3024v-1326"/></clipPath><clipPath id="clipPath3504"><path transform="translate(-1188.9 -965.28)" d="m0 0h3024v1326h-3024v-1326"/></clipPath><clipPath id="clipPath3506"><path transform="translate(0 2.5e-5)" d="m0 0h3024v1326h-3024v-1326"/></clipPath><clipPath id="clipPath3508"><path transform="translate(-937.97 -955.98)" d="m0 0h3024v1326h-3024v-1326"/></clipPath><clipPath id="clipPath3512"><path transform="translate(-1221 -943.35)" d="m0 0h3024v1326h-3024v-1326"/></clipPath><clipPath id="clipPath3520"><path transform="translate(-925.79 -948.68)" d="m0.030029 1325.9h3023.3v-1325.9h-3023.3z"/></clipPath><clipPath id="clipPath3521"><path transform="matrix(1.3333 0 0 -1.3333 0 1767.8)" d="M 3023.35,1325.87 H 0 V 0 h 3023.35 z"/></clipPath><clipPath id="clipPath3523"><path transform="matrix(1.3333 0 0 -1.3333 0 1767.8)" d="m0 0h3024v1326h-3024v-1326"/></clipPath><clipPath id="clipPath3525"><path transform="translate(-923.87 -948.68)" d="m0 0h3024v1326h-3024v-1326"/></clipPath><clipPath id="clipPath3527"><path transform="translate(-920.77 -948.68)" d="m0 0h3024v1326h-3024v-1326"/></clipPath><clipPath id="clipPath3551"><path transform="translate(-937.18 -859.04)" d="m0 0h3024v1326h-3024v-1326"/></clipPath><clipPath id="clipPath3553"><path transform="translate(-937.18 -858.03)" d="m0 0h3024v1326h-3024v-1326"/></clipPath><clipPath id="clipPath3555"><path transform="translate(-937.18 -857.4)" d="m0 0h3024v1326h-3024v-1326"/></clipPath><clipPath id="clipPath3557"><path transform="translate(-925.61 -859.73)" d="m0 0h3024v1326h-3024v-1326"/></clipPath><clipPath id="clipPath3559"><path transform="translate(-928.84 -857.15)" d="m0 0h3024v1326h-3024v-1326"/></clipPath><clipPath id="clipPath3561"><path transform="translate(-1196.6 -859.29)" d="m0 0h3024v1326h-3024v-1326"/></clipPath><clipPath id="clipPath3597"><path transform="translate(-1216.4 -959.2)" d="m0 0h3024v1326h-3024v-1326"/></clipPath><clipPath id="clipPath3599"><path transform="translate(-1206.4 -951.15)" d="m0 0h3024v1326h-3024v-1326"/></clipPath><clipPath id="clipPath3601"><path transform="translate(-1229.2 -949.3)" d="m0 0h3024v1326h-3024v-1326"/></clipPath><clipPath id="clipPath3603"><path transform="translate(-1217.3 -939.52)" d="m0 0h3024v1326h-3024v-1326"/></clipPath><clipPath id="clipPath3605"><path transform="translate(-1199.1 -857.93)" d="m0 0h3024v1326h-3024v-1326"/></clipPath><clipPath id="clipPath3607"><path transform="translate(-1210.8 -857.91)" d="m0 0h3024v1326h-3024v-1326"/></clipPath><clipPath id="clipPath3609"><path transform="translate(-943.62 -917.37)" d="m0 0h3024v1326h-3024v-1326"/></clipPath><clipPath id="clipPath3611"><path transform="translate(-929.32 -927.74)" d="m0 0h3024v1326h-3024v-1326"/></clipPath><clipPath id="clipPath3613"><path transform="translate(-929.32 -909.8)" d="m0 0h3024v1326h-3024v-1326"/></clipPath><clipPath id="clipPath3615"><path transform="translate(-939.43 -917.08)" d="m0 0h3024v1326h-3024v-1326"/></clipPath><clipPath id="clipPath3617"><path transform="translate(-921.49 -917.08)" d="m0 0h3024v1326h-3024v-1326"/></clipPath><clipPath id="clipPath3619"><path transform="translate(-943.78 -857.84)" d="m0 0h3024v1326h-3024v-1326"/></clipPath><clipPath id="clipPath3621"><path transform="translate(-939.12 -966.81)" d="m0 0h3024v1326h-3024v-1326"/></clipPath><clipPath id="clipPath3623"><path transform="translate(-941.05 -966.81)" d="m0 0h3024v1326h-3024v-1326"/></clipPath><clipPath id="clipPath3625"><path transform="translate(-940.62 -966.81)" d="m0 0h3024v1326h-3024v-1326"/></clipPath><clipPath id="clipPath3627"><path transform="translate(-1212.2 -919.72)" d="m0 0h3024v1326h-3024v-1326"/></clipPath><clipPath id="clipPath3629"><path transform="translate(-1210.3 -919.72)" d="m0 0h3024v1326h-3024v-1326"/></clipPath><clipPath id="clipPath3631"><path transform="translate(-1207.2 -919.72)" d="m0 0h3024v1326h-3024v-1326"/></clipPath></defs><g transform="translate(54.307 -29.435)"><g fill="none" stroke="#899099"><path transform="matrix(.35278 0 0 -.35278 67.303 34.38)" d="m0 0c-0.06 1.005-0.09 2.612-0.15 3.711-0.03 0.704-0.34 1.508-1.41 1.946-1.88 0.772-3.75 1.553-6.85 2.615-7.73 2.653-15.83 3.861-16.73 4.001-0.89 0.142-3.17 0.491-4.17 0.62-0.99 0.128-2.05 0.252-3.15 0.364-1.11 0.113-2.27 0.216-3.44 0.305-1.16 0.088-4.4 0.243-5.01 0.262l-0.53-2.855" clip-path="url(#clipPath3464)"/><path transform="matrix(.35278 0 0 -.35278 -35.741 30.502)" d="m0 0-0.493 2.856c0.496 0.015 2.653 0.115 3.149 0.125 0.666 0.015 1.331 0.026 1.997 0.033 0.743 8e-3 1.486 0.012 2.229 0.012h4.645 226.72 4.65c0.74 0 1.48-4e-3 2.22-0.012 0.67-7e-3 1.34-0.018 2-0.033 0.5-0.01 3.05-0.154 3.54-0.168l-0.6-2.881" clip-path="url(#clipPath3466)"/><path transform="matrix(.35278 0 0 -.35278 -50.55 34.38)" d="m0 0c0.057 1.005 0.093 2.612 0.146 3.711 0.034 0.704 0.344 1.508 1.414 1.946 1.882 0.772 3.751 1.553 6.847 2.615 7.732 2.653 15.835 3.861 16.731 4.001 0.896 0.142 3.171 0.491 4.167 0.62 0.997 0.128 2.05 0.252 3.156 0.364 1.106 0.113 2.266 0.216 3.434 0.305 1.168 0.088 4.405 0.243 5.013 0.262l0.53-2.855" clip-path="url(#clipPath3468)"/><path transform="matrix(.35278 0 0 -.35278 8.3148 30.334)" d="m0 0h104.39l0.08 2e-3c0.21 3e-3 0.43 6e-3 0.64 9e-3 0.24 4e-3 0.49 7e-3 0.73 0.01l0.79 8e-3c0.28 2e-3 0.57 5e-3 0.85 6e-3 0.31 2e-3 0.62 3e-3 0.93 4e-3 0.33 1e-3 0.67 2e-3 1 1e-3 0.37 0 0.73-1e-3 1.09-2e-3 0.4-1e-3 0.79-4e-3 1.19-7e-3 0.43-3e-3 0.85-8e-3 1.28-0.012 0.47-7e-3 0.94-0.014 1.41-0.023 0.51-9e-3 1.02-0.019 1.53-0.032 0.56-0.014 1.12-0.028 1.67-0.046 0.61-0.019 1.22-0.039 1.82-0.062 0.51-0.018 0.99-0.038 1.46-0.058l0.19-9e-3c0.11-5e-3 0.22-0.01 0.33-0.015 0.73-0.032 1.46-0.068 2.18-0.108 0.81-0.043 1.61-0.091 2.41-0.142 0.89-0.057 1.79-0.119 2.68-0.186 0.98-0.073 1.97-0.153 2.95-0.241 1.04-0.093 2.09-0.194 3.13-0.303 0.35-0.036 0.7-0.074 1.04-0.112 0.68-0.076 1.36-0.156 2.04-0.24 0.95-0.118 1.9-0.244 2.85-0.382 0.86-0.125 1.72-0.261 2.58-0.407 0.79-0.133 1.58-0.276 2.36-0.429 0.71-0.141 1.43-0.289 2.14-0.448 0.65-0.144 1.29-0.297 1.94-0.458 0.58-0.146 1.17-0.301 1.75-0.464 0.54-0.147 1.06-0.301 1.59-0.462 0.47-0.145 0.94-0.294 1.41-0.45 0.42-0.137 0.83-0.281 1.25-0.427 0.37-0.135 0.75-0.273 1.12-0.413 0.36-0.136 0.71-0.274 1.06-0.415 0.35-0.143 0.7-0.29 1.05-0.44 0.37-0.158 0.73-0.32 1.09-0.487 0.4-0.182 0.79-0.369 1.17-0.562 0.43-0.212 0.85-0.429 1.26-0.653 0.43-0.235 0.85-0.478 1.27-0.727 0.4-0.242 0.8-0.491 1.18-0.745 0.36-0.234 0.7-0.473 1.04-0.716 0.3-0.217 0.59-0.437 0.88-0.659 0.24-0.195 0.49-0.391 0.72-0.589 0.2-0.172 0.39-0.345 0.58-0.52 0.16-0.153 0.32-0.307 0.47-0.462 0.13-0.137 0.26-0.274 0.38-0.414l0.09-0.117 0.08-0.105c0.16-0.261 0.33-0.522 0.49-0.786l-0.02 0.032 0.05-0.07 0.17-0.252 0.13-0.224 0.02-0.051 0.06-0.146 0.02-0.074 0.15-0.522 0.01-0.025c1.24-4.467 2.29-8.984 3.16-13.533 0.65-3.366 1.21-6.745 1.7-10.136 0.22-1.557 0.43-3.115 0.62-4.675 0.02-0.107 0.03-0.215 0.04-0.321 0.05-0.343 0.09-0.685 0.13-1.027 0.16-1.335 0.31-2.672 0.44-4.008 0.14-1.336 0.26-2.673 0.38-4.01 0.1-1.252 0.2-2.503 0.28-3.755 0.09-1.251 0.16-2.502 0.23-3.752 0.06-1.251 0.12-2.501 0.16-3.75 0.05-1.249 0.08-2.498 0.11-3.745 0.04-1.894 0.05-3.787 0.04-5.675s-0.05-3.773-0.13-5.651c-0.07-1.879-0.17-3.752-0.3-5.617-0.14-1.866-0.31-3.724-0.52-5.571-0.16-1.461-0.35-2.917-0.57-4.364-0.22-1.448-0.46-2.889-0.74-4.327-0.28-1.437-0.59-2.871-0.94-4.303-0.34-1.431-0.73-2.86-1.16-4.285-0.27-0.882-0.55-1.762-0.86-2.638-0.3-0.876-0.62-1.751-0.97-2.619-0.69-1.738-1.46-3.458-2.32-5.139-0.79-1.558-1.65-3.083-2.57-4.563-0.78-1.259-1.61-2.484-2.47-3.67l-0.01-0.04c-1.57-2.144-3.26-4.132-5.05-5.975-0.89-0.922-1.81-1.808-2.76-2.653-0.95-0.843-1.93-1.645-2.94-2.4-1.1-0.819-2.23-1.578-3.41-2.271-0.69-0.405-1.4-0.79-2.13-1.155-0.74-0.365-1.5-0.711-2.27-1.032-0.77-0.322-1.55-0.619-2.35-0.894-0.79-0.273-1.59-0.522-2.4-0.755-0.81-0.231-1.64-0.446-2.48-0.652s-1.7-0.403-2.57-0.599c-0.87-0.195-1.76-0.386-2.67-0.566l-0.15-0.029 0.11 0.043c-0.95-0.189-1.9-0.362-2.85-0.521-1.1-0.184-2.21-0.35-3.33-0.497-1.11-0.146-2.23-0.274-3.36-0.384-2.25-0.22-4.52-0.37-6.82-0.468-2.06-0.087-4.14-0.133-6.24-0.158-1.05-0.012-2.11-0.019-3.17-0.023-0.9-4e-3 -1.8-5e-3 -2.7-5e-3v4e-3l-104.39 9e-3h-0.02c-34.79-3e-3 -69.587-6e-3 -104.38-9e-3v-4e-3c-0.903 0-1.806 1e-3 -2.705 5e-3 -1.06 4e-3 -2.116 0.011-3.167 0.023-2.102 0.025-4.183 0.071-6.24 0.158-2.3 0.098-4.573 0.248-6.823 0.468-1.126 0.11-2.246 0.238-3.36 0.384-1.115 0.147-2.224 0.313-3.328 0.497-0.952 0.159-1.901 0.332-2.846 0.521l0.103-0.043-0.146 0.029c-0.91 0.18-1.798 0.371-2.671 0.566-0.873 0.196-1.731 0.393-2.572 0.599s-1.665 0.421-2.477 0.652c-0.811 0.233-1.611 0.482-2.404 0.755-0.792 0.275-1.578 0.572-2.35 0.894-0.771 0.321-1.528 0.667-2.263 1.032-0.732 0.365-1.442 0.75-2.133 1.155-1.179 0.693-2.312 1.452-3.408 2.271-1.009 0.755-1.988 1.557-2.938 2.4-0.951 0.845-1.872 1.731-2.767 2.653-1.79 1.843-3.474 3.831-5.047 5.975l-0.012 0.04c-0.863 1.186-1.687 2.411-2.47 3.67-0.919 1.48-1.78 3.005-2.571 4.563-0.855 1.681-1.628 3.401-2.318 5.139-0.345 0.868-0.669 1.743-0.973 2.619s-0.59 1.756-0.857 2.638c-0.432 1.425-0.817 2.854-1.164 4.285-0.348 1.432-0.657 2.866-0.935 4.303-0.277 1.438-0.521 2.879-0.739 4.327-0.218 1.447-0.408 2.903-0.574 4.364-0.209 1.847-0.378 3.705-0.514 5.571-0.135 1.865-0.236 3.738-0.308 5.617-0.071 1.878-0.113 3.763-0.126 5.651s2e-3 3.781 0.04 5.675c0.026 1.247 0.062 2.496 0.107 3.745 0.046 1.249 0.101 2.499 0.166 3.75 0.066 1.25 0.141 2.501 0.226 3.752 0.085 1.252 0.18 2.503 0.286 3.755 0.112 1.337 0.236 2.674 0.373 4.01 0.136 1.336 0.284 2.673 0.444 4.008 0.041 0.342 0.083 0.684 0.125 1.027 0.013 0.106 0.026 0.214 0.04 0.321h-1e-3c0.195 1.56 0.404 3.118 0.627 4.675 0.487 3.391 1.044 6.77 1.694 10.136 0.878 4.549 1.924 9.066 3.166 13.533l7e-3 0.025c0.048 0.174 0.097 0.348 0.147 0.522l0.021 0.074 0.058 0.146 0.027 0.051 0.13 0.224 0.167 0.252 0.051 0.07-0.023-0.032c0.165 0.264 0.329 0.525 0.494 0.786l0.075 0.105 0.098 0.117c0.12 0.14 0.245 0.277 0.376 0.414 0.15 0.155 0.306 0.309 0.47 0.462 0.186 0.175 0.381 0.348 0.583 0.52 0.231 0.198 0.472 0.394 0.721 0.589 0.283 0.222 0.576 0.442 0.878 0.659 0.336 0.243 0.682 0.482 1.038 0.716 0.383 0.254 0.778 0.503 1.182 0.745 0.414 0.249 0.838 0.492 1.27 0.727 0.411 0.224 0.83 0.441 1.254 0.653 0.385 0.193 0.775 0.38 1.17 0.562 0.361 0.167 0.725 0.329 1.092 0.487 0.348 0.15 0.699 0.297 1.051 0.44 0.351 0.141 0.704 0.279 1.06 0.415 0.372 0.14 0.747 0.278 1.124 0.413 0.413 0.146 0.829 0.29 1.246 0.427 0.468 0.156 0.938 0.305 1.41 0.45 0.526 0.161 1.054 0.315 1.586 0.462 0.583 0.163 1.17 0.318 1.759 0.464 0.643 0.161 1.29 0.314 1.938 0.458 0.711 0.159 1.424 0.307 2.139 0.448 0.783 0.153 1.568 0.296 2.355 0.429 0.86 0.146 1.723 0.282 2.587 0.407 0.947 0.138 1.896 0.264 2.847 0.382 0.678 0.084 1.358 0.164 2.04 0.24 0.344 0.038 0.691 0.076 1.038 0.112 1.043 0.109 2.087 0.21 3.132 0.303 0.983 0.088 1.968 0.168 2.953 0.241 0.891 0.067 1.782 0.129 2.674 0.186 0.803 0.051 1.606 0.099 2.409 0.142 0.726 0.04 1.452 0.076 2.179 0.108 0.11 5e-3 0.22 0.01 0.33 0.015l0.193 9e-3c0.469 0.02 0.956 0.04 1.46 0.058 0.606 0.023 1.211 0.043 1.817 0.062 0.557 0.018 1.114 0.032 1.671 0.046 0.511 0.013 1.023 0.023 1.535 0.032 0.468 9e-3 0.936 0.016 1.405 0.023 0.429 4e-3 0.858 9e-3 1.287 0.012 0.394 3e-3 0.788 6e-3 1.183 7e-3 0.363 1e-3 0.727 2e-3 1.09 2e-3 0.336 1e-3 0.671 0 1.007-1e-3 0.309-1e-3 0.619-2e-3 0.928-4e-3 0.283-1e-3 0.565-4e-3 0.848-6e-3l0.793-8e-3c0.242-3e-3 0.485-6e-3 0.727-0.01 0.214-3e-3 0.427-6e-3 0.641-9e-3l0.083-2e-3h104.38" clip-path="url(#clipPath3470)"/><path transform="matrix(.35278 0 0 -.35278 63.965 38.252)" d="m0 0c0 0.31-0.03 0.604-0.07 0.877-0.05 0.273-0.11 0.525-0.19 0.765s-0.17 0.467-0.29 0.695c-0.11 0.228-0.24 0.457-0.4 0.684-0.16 0.229-0.35 0.457-0.56 0.679-0.22 0.222-0.47 0.439-0.76 0.638-0.29 0.2-0.62 0.383-0.98 0.536-0.37 0.152-0.78 0.274-1.23 0.342s-0.94 0.082-1.44 0.021-1.01-0.199-1.48-0.406-0.91-0.484-1.3-0.816-0.73-0.719-1-1.146c-0.28-0.428-0.5-0.895-0.64-1.381-0.14-0.485-0.21-0.988-0.21-1.488 0-0.444 0.05-0.89 0.16-1.318 0.1-0.383 0.25-0.753 0.43-1.104 0.18-0.357 0.41-0.693 0.67-0.999 0.29-0.342 0.62-0.646 0.99-0.903 0.39-0.274 0.82-0.492 1.27-0.651s0.92-0.255 1.39-0.289c0.48-0.032 0.96 0 1.43 0.096 0.47 0.098 0.93 0.26 1.36 0.481 0.43 0.223 0.83 0.506 1.18 0.839 0.36 0.331 0.66 0.711 0.91 1.129 0.25 0.408 0.44 0.852 0.57 1.316 0.12 0.455 0.19 0.929 0.19 1.403" clip-path="url(#clipPath3472)"/><path transform="matrix(.35278 0 0 -.35278 56.434 42.01)" d="m0 0c0 0.484 0.07 0.97 0.2 1.437 0.13 0.459 0.32 0.9 0.57 1.307 0.25 0.406 0.55 0.778 0.9 1.104 0.34 0.323 0.73 0.6 1.15 0.82 0.41 0.221 0.86 0.385 1.33 0.486 0.46 0.102 0.94 0.141 1.42 0.115 0.47-0.027 0.95-0.119 1.4-0.273 0.45-0.153 0.88-0.368 1.28-0.638 0.38-0.255 0.72-0.56 1.01-0.903 0.27-0.309 0.5-0.647 0.69-1.009 0.19-0.354 0.33-0.728 0.43-1.114 0.11-0.435 0.17-0.884 0.17-1.332 0-1.399-0.55-2.74-1.54-3.73s-2.34-1.545-3.73-1.546c-1.4 0-2.75 0.556-3.74 1.546-0.98 0.989-1.54 2.331-1.54 3.73" clip-path="url(#clipPath3474)"/><path transform="matrix(.35278 0 0 -.35278 67.783 42.033)" d="m0 0c0 0.31-0.03 0.604-0.07 0.877-0.05 0.273-0.11 0.525-0.19 0.766-0.08 0.239-0.17 0.466-0.29 0.695-0.11 0.227-0.24 0.456-0.4 0.683-0.16 0.229-0.35 0.457-0.56 0.679-0.22 0.222-0.47 0.439-0.76 0.639-0.29 0.199-0.62 0.383-0.98 0.535-0.37 0.152-0.78 0.274-1.23 0.343-0.45 0.067-0.94 0.082-1.44 0.02-0.5-0.061-1-0.199-1.48-0.406-0.47-0.207-0.91-0.484-1.3-0.816s-0.73-0.719-1-1.146c-0.28-0.428-0.5-0.895-0.64-1.381-0.14-0.485-0.21-0.988-0.21-1.488 0-0.444 0.05-0.89 0.17-1.318 0.09-0.383 0.24-0.753 0.42-1.104 0.18-0.357 0.41-0.693 0.67-0.998 0.29-0.343 0.62-0.647 0.99-0.904 0.39-0.273 0.82-0.492 1.27-0.651s0.92-0.255 1.39-0.288c0.48-0.033 0.96-1e-3 1.43 0.095 0.47 0.098 0.93 0.26 1.36 0.481 0.43 0.224 0.83 0.506 1.18 0.839 0.36 0.331 0.66 0.712 0.92 1.129 0.24 0.408 0.43 0.852 0.56 1.316 0.12 0.455 0.19 0.929 0.19 1.403" clip-path="url(#clipPath3476)"/></g><path transform="matrix(.35278 0 0 -.35278 58.455 75.254)" d="m0 0 0.01-0.041 0.02-0.035 0.03-0.025 0.04-0.011 0.04 2e-3c0.23 0.053 0.46 0.107 0.7 0.161 0.09 0.02 0.18 0.041 0.27 0.062l0.23 0.054 0.18 0.041 0.66 0.153 0.07 0.042 0.02 0.069v0.674l-0.01 0.041-0.02 0.036-0.03 0.024-0.04 0.012-0.04-2e-3 -0.66-0.153c-0.23-0.053-0.46-0.105-0.69-0.158s-0.46-0.107-0.69-0.161l-0.07-0.039-0.02-0.071v-0.675" clip-path="url(#clipPath3478)" fill="#8a9199"/><path transform="matrix(.35278 0 0 -.35278 59.256 74.2)" d="m0 0v-0.675l-0.03-0.071-0.06-0.04-0.04-0.01c-0.21-0.048-0.42-0.096-0.62-0.143-0.23-0.053-0.46-0.105-0.68-0.158-0.24-0.053-0.47-0.107-0.7-0.161l-0.04-2e-3 -0.04 0.012-0.03 0.025-0.02 0.036-0.01 0.04v0.674l0.03 0.072 0.06 0.04c0.23 0.053 0.46 0.107 0.69 0.16s0.46 0.105 0.69 0.157c0.2 0.048 0.41 0.097 0.62 0.145l0.04 9e-3 0.04 2e-3 0.04-0.012 0.03-0.025 0.02-0.035 0.01-0.04" clip-path="url(#clipPath3480)" fill="#8a9199"/><g fill="none" stroke="#899099"><path transform="matrix(.35278 0 0 -.35278 51.071 37.449)" d="m0 0c-0.27 0-0.54 0.038-0.81 0.117-0.26 0.079-0.52 0.198-0.75 0.35-0.23 0.15-0.43 0.333-0.61 0.543s-0.32 0.448-0.43 0.7c-0.11 0.253-0.18 0.52-0.22 0.789-0.03 0.269-0.02 0.538 0.02 0.802 0.05 0.262 0.13 0.518 0.24 0.76 0.12 0.241 0.27 0.466 0.44 0.666 0.18 0.199 0.39 0.372 0.61 0.513 0.23 0.143 0.48 0.253 0.74 0.325 0.25 0.073 0.51 0.108 0.77 0.108h6.81c0.26 0 0.52-0.036 0.78-0.11 0.25-0.073 0.5-0.183 0.73-0.327 0.23-0.143 0.43-0.319 0.61-0.519 0.18-0.201 0.33-0.427 0.44-0.664 0.11-0.239 0.19-0.489 0.24-0.744 0.04-0.27 0.05-0.547 0.01-0.821-0.03-0.274-0.11-0.545-0.22-0.798s-0.26-0.487-0.43-0.695c-0.18-0.208-0.39-0.391-0.62-0.54-0.23-0.148-0.48-0.265-0.74-0.341-0.27-0.077-0.53-0.114-0.8-0.114h-6.81" clip-path="url(#clipPath3482)"/><path transform="matrix(.35278 0 0 -.35278 53.001 36.448)" d="m0 0c0 0.279-0.06 0.55-0.16 0.801-0.11 0.25-0.26 0.472-0.44 0.659-0.19 0.186-0.41 0.338-0.66 0.442-0.25 0.106-0.52 0.161-0.8 0.161s-0.56-0.055-0.81-0.161c-0.24-0.104-0.47-0.256-0.65-0.442-0.19-0.187-0.34-0.409-0.45-0.659-0.1-0.251-0.16-0.522-0.16-0.801 0-0.278 0.06-0.549 0.16-0.8 0.11-0.25 0.26-0.472 0.45-0.659 0.18-0.187 0.41-0.338 0.65-0.442 0.25-0.106 0.53-0.162 0.81-0.162s0.55 0.056 0.8 0.162c0.25 0.104 0.47 0.255 0.66 0.442 0.18 0.187 0.33 0.409 0.44 0.659 0.1 0.251 0.16 0.522 0.16 0.8" clip-path="url(#clipPath3484)" stroke-width=".4337"/><path transform="matrix(.35278 0 0 -.35278 56.462 60.022)" d="m0 0c-9.35 0-16.93-7.58-16.93-16.932 0-9.35 7.58-16.931 16.93-16.931s16.93 7.581 16.93 16.931c0 9.352-7.58 16.932-16.93 16.932" clip-path="url(#clipPath3486)"/><path transform="matrix(.35278 0 0 -.35278 56.462 71.502)" d="m0 0c-8.62 0-15.61 6.988-15.61 15.609s6.99 15.61 15.61 15.61 15.61-6.989 15.61-15.61-6.99-15.609-15.61-15.609" clip-path="url(#clipPath3488)"/><path transform="matrix(.35278 0 0 -.35278 -39.599 60.12)" d="m0 0c-9.351 0-16.932-7.581-16.932-16.932s7.581-16.931 16.932-16.931 16.932 7.58 16.932 16.931-7.581 16.932-16.932 16.932" clip-path="url(#clipPath3490)"/><path transform="matrix(.35278 0 0 -.35278 -39.599 71.6)" d="m0 0c-8.621 0-15.61 6.989-15.61 15.61s6.989 15.61 15.61 15.61 15.61-6.989 15.61-15.61-6.989-15.61-15.61-15.61" clip-path="url(#clipPath3492)"/><path transform="matrix(.35278 0 0 -.35278 -36.729 37.437)" d="m0 0c-0.272 0-0.543 0.039-0.808 0.118-0.264 0.078-0.52 0.198-0.751 0.349s-0.435 0.333-0.611 0.544c-0.176 0.21-0.324 0.447-0.434 0.7-0.109 0.253-0.18 0.52-0.213 0.789-0.032 0.269-0.025 0.538 0.019 0.802 0.043 0.261 0.124 0.518 0.239 0.76 0.116 0.241 0.266 0.465 0.444 0.665 0.177 0.199 0.382 0.373 0.609 0.514 0.228 0.142 0.478 0.252 0.732 0.325 0.255 0.073 0.514 0.108 0.774 0.108h6.808c0.263 0 0.525-0.036 0.781-0.11 0.255-0.074 0.503-0.184 0.731-0.327 0.227-0.143 0.434-0.319 0.612-0.52 0.177-0.2 0.326-0.426 0.439-0.664s0.191-0.488 0.234-0.743c0.045-0.27 0.052-0.547 0.018-0.821s-0.109-0.546-0.22-0.798c-0.112-0.253-0.259-0.487-0.437-0.695s-0.386-0.391-0.616-0.54c-0.231-0.149-0.484-0.265-0.745-0.341-0.261-0.077-0.529-0.115-0.797-0.115h-6.808" clip-path="url(#clipPath3494)"/><path transform="matrix(.35278 0 0 -.35278 -36.649 40.884)" d="m0 0h6.354c1.567 0 2.837 1.27 2.837 2.837 0 1.566-1.27 2.836-2.837 2.836h-6.354c-1.567 0-2.837-1.27-2.837-2.836 0-1.567 1.27-2.837 2.837-2.837" clip-path="url(#clipPath3496)"/><path transform="matrix(.35278 0 0 -.35278 -35.248 39.883)" d="m0 0c0-0.215 0.029-0.429 0.087-0.637 0.057-0.207 0.142-0.405 0.253-0.59 0.212-0.352 0.512-0.644 0.869-0.846 0.358-0.202 0.762-0.309 1.174-0.309 0.163 0 0.327 0.017 0.487 0.05 0.536 0.112 1.017 0.405 1.362 0.83 0.171 0.211 0.305 0.449 0.396 0.705 0.046 0.128 0.08 0.259 0.103 0.393 0.023 0.133 0.034 0.269 0.034 0.404 0 0.137-0.011 0.272-0.035 0.406-0.023 0.135-0.057 0.267-0.103 0.395-0.092 0.257-0.227 0.496-0.399 0.707-0.348 0.426-0.832 0.718-1.37 0.827-0.156 0.032-0.316 0.048-0.475 0.048-0.412 0-0.816-0.106-1.174-0.309-0.357-0.202-0.657-0.494-0.869-0.846-0.111-0.185-0.196-0.383-0.253-0.59-0.058-0.208-0.087-0.422-0.087-0.638" clip-path="url(#clipPath3498)" stroke-width=".4337"/><path transform="matrix(.26458 0 0 .26458 -367.17 -90.232)" d="m0.039887-0.0543 4031.1-3.8779e-4 2e-4 1767.8-4031.1 4e-4z" stroke-width="1.3333"/><path transform="matrix(.35278 0 0 -.35278 -33.74 53.878)" d="m0 0c0-8.898-7.214-16.112-16.112-16.112s-16.112 7.214-16.112 16.112 7.214 16.112 16.112 16.112 16.112-7.214 16.112-16.112" clip-path="url(#clipPath3500)"/><path transform="matrix(.35278 0 0 -.35278 48.179 80.496)" d="m0 0h-225.96c-1.241 0-2.248 1.006-2.248 2.248v135.2c0 1.241 1.007 2.247 2.248 2.247h225.96c1.24 0 2.25-1.006 2.25-2.247v-135.2c0-1.242-1.01-2.248-2.25-2.248" clip-path="url(#clipPath3502)"/></g><path transform="matrix(.35278 0 0 -.35278 52.25 36.976)" d="m0 0-0.15 0.153v0.661 0.342c-0.01 0.11-0.02 0.235-0.05 0.341l-0.03 0.085-0.17 0.186-0.24 0.06c-0.14 0.013-0.35 0.013-0.48 0.013l-0.09 0.033-0.03 0.08v0.274l0.03 0.08 0.09 0.034h2.41l0.08-0.034 0.03-0.08v-0.274l-0.03-0.08-0.08-0.033c-0.14 0-0.35 0-0.49-0.013l-0.24-0.06-0.17-0.186-0.03-0.085c-0.03-0.106-0.04-0.231-0.04-0.341-0.01-0.113-0.01-0.229-0.01-0.342v-0.661l-0.15-0.153-0.08-0.035-0.08 0.035" clip-path="url(#clipPath3504)" fill="#899099"/><g fill="none" stroke="#899099"><path transform="matrix(.35278 0 0 -.35278 -367.17 377.51)" d="m961.42 847.3h205.89v128.94h-205.89z" clip-path="url(#clipPath3506)"/><path transform="matrix(.35278 0 0 -.35278 -36.274 40.258)" d="m0 0c-0.282-0.282-0.664-0.44-1.063-0.44-0.301 0-0.594 0.089-0.843 0.258-0.249 0.168-0.441 0.408-0.553 0.687-0.071 0.178-0.107 0.367-0.107 0.558 0 0.179 0.032 0.357 0.094 0.524 0.107 0.288 0.299 0.536 0.551 0.711s0.551 0.268 0.858 0.268c0.399 0 0.781-0.158 1.063-0.44 0.282-0.281 0.44-0.664 0.44-1.063s-0.158-0.781-0.44-1.063m1.138 1.975c-0.119 0.289-0.295 0.551-0.516 0.773-0.447 0.446-1.053 0.697-1.685 0.697-0.469 0-0.927-0.137-1.318-0.397-0.327-0.217-0.596-0.512-0.782-0.859-0.092-0.172-0.163-0.355-0.211-0.545s-0.072-0.385-0.072-0.582c0-0.199 0.025-0.398 0.075-0.592s0.124-0.38 0.22-0.556c0.194-0.351 0.474-0.648 0.813-0.864 0.381-0.241 0.823-0.369 1.275-0.369 0.632 0 1.238 0.251 1.685 0.697 0.221 0.222 0.397 0.484 0.516 0.773 0.12 0.289 0.182 0.599 0.182 0.911 0 0.314-0.062 0.624-0.182 0.913" clip-path="url(#clipPath3508)" stroke-width=".4337"/><path transform="matrix(.35278 0 0 -.35278 63.567 44.711)" d="m0 0c-0.17 0.205-0.36 0.396-0.56 0.569-0.36 0.316-0.75 0.576-1.18 0.782-0.43 0.207-0.89 0.36-1.37 0.446-0.49 0.086-0.99 0.104-1.48 0.052-0.5-0.053-0.99-0.178-1.46-0.37-0.46-0.191-0.9-0.449-1.3-0.776-0.41-0.326-0.77-0.721-1.06-1.151-0.29-0.431-0.52-0.898-0.67-1.395s-0.23-1.024-0.23-1.554v-0.218l0.02-0.232 0.02-0.247 0.05-0.261c0.01-0.089 0.03-0.181 0.05-0.275 0.03-0.095 0.05-0.19 0.08-0.288 0.12-0.377 0.27-0.722 0.43-1.028 0.17-0.306 0.36-0.574 0.56-0.819s0.42-0.466 0.68-0.676c0.25-0.211 0.53-0.411 0.84-0.58s0.64-0.309 0.97-0.413c0.33-0.102 0.66-0.17 0.97-0.206s0.6-0.042 0.88-0.027c0.27 0.015 0.53 0.048 0.77 0.097s0.46 0.111 0.67 0.184 0.41 0.155 0.59 0.243 0.35 0.182 0.5 0.28c0.16 0.096 0.3 0.197 0.43 0.298s0.25 0.204 0.36 0.306c0.11 0.103 0.21 0.205 0.3 0.307 0.1 0.101 0.18 0.202 0.26 0.301 0.07 0.098 0.14 0.195 0.21 0.29 0.06 0.093 0.12 0.186 0.17 0.276l0.15 0.262 0.12 0.247 0.1 0.233 0.08 0.22 0.07 0.209c0.05 0.182 0.09 0.359 0.13 0.533 0.03 0.173 0.05 0.342 0.07 0.506 0.01 0.164 0.02 0.323 0.02 0.478 0 1.243-0.44 2.446-1.24 3.398" clip-path="url(#clipPath3512)"/><g transform="matrix(.26458 0 0 .26458 -367.17 -90.232)" clip-path="url(#clipPath3523)"><g clip-path="url(#clipPath3521)" fill="none" stroke="#899099"><path transform="matrix(1.3333 0 0 -1.3333 1234.4 502.92)" d="m0 0c0-6.483-5.255-11.738-11.738-11.738s-11.738 5.255-11.738 11.738c0 6.482 5.255 11.737 11.738 11.737s11.738-5.255 11.738-11.737" clip-path="url(#clipPath3520)" fill="none" stroke="#899099"/></g></g><path transform="matrix(.35278 0 0 -.35278 -41.247 42.833)" d="m0 0c0-5.426-4.398-9.824-9.824-9.824s-9.824 4.398-9.824 9.824c0 5.425 4.398 9.823 9.824 9.823s9.824-4.398 9.824-9.823" clip-path="url(#clipPath3525)"/><path transform="matrix(.35278 0 0 -.35278 -42.341 42.833)" d="m0 0h0.125c0-3.781-3.065-6.847-6.846-6.847s-6.846 3.066-6.846 6.847c0 3.78 3.065 6.846 6.846 6.846s6.846-3.066 6.846-6.846h-0.25c0 1.821-0.738 3.47-1.932 4.664s-2.842 1.932-4.664 1.932-3.47-0.738-4.664-1.932-1.932-2.843-1.932-4.664c0-1.822 0.738-3.47 1.932-4.665 1.194-1.194 2.842-1.932 4.664-1.932s3.47 0.738 4.664 1.932c1.194 1.195 1.932 2.843 1.932 4.665h0.125" clip-path="url(#clipPath3527)"/></g><g fill="#8a9199"><path transform="matrix(.35278 0 0 -.35278 -36.552 74.457)" d="M 0,0 -0.134,0.056 -0.189,0.189 -0.134,0.323 0,0.379 H 2.788 L 2.922,0.323 2.977,0.189 2.922,0.056 2.788,0 H 0" clip-path="url(#clipPath3551)"/><path transform="matrix(.35278 0 0 -.35278 -36.552 74.813)" d="M 0,0 -0.134,0.055 -0.189,0.188 -0.134,0.322 0,0.378 H 2.788 L 2.922,0.322 2.977,0.188 2.922,0.055 2.788,0 H 0" clip-path="url(#clipPath3553)"/><path transform="matrix(.35278 0 0 -.35278 -36.552 75.035)" d="m0 0h2.788l0.134-0.056 0.055-0.132-0.036-0.112-0.019-0.022-0.115-0.055-0.019-1e-3h-2.788l-0.134 0.056-7e-3 7e-3 -0.048 0.127 0.055 0.132 0.134 0.056" clip-path="url(#clipPath3555)"/><path transform="matrix(.35278 0 0 -.35278 -40.633 74.213)" d="m0 0c-0.095 0-0.193-0.04-0.26-0.107-0.067-0.068-0.108-0.164-0.108-0.261v-1.481l0.056-0.133 0.06-0.04 0.073-0.015 0.074 0.015 0.06 0.04 0.055 0.133v1.408l0.019 0.045 0.044 0.018h2.364l0.134 0.055 0.04 0.06 0.015 0.074-0.015 0.074-0.04 0.059-0.134 0.056" clip-path="url(#clipPath3557)"/><path transform="matrix(.35278 0 0 -.35278 -39.494 75.123)" d="m0 0-0.018-0.044-0.045-0.018h-2.301l-0.044 0.018-0.019 0.044v1.345l0.019 0.044 0.044 0.018h2.301l0.045-0.018 0.018-0.044zm0.271 1.678c-0.068 0.067-0.166 0.107-0.261 0.107h-2.447c-0.095 0-0.193-0.04-0.26-0.107s-0.108-0.164-0.108-0.26v-1.491l0.016-0.106 0.092-0.154c0.068-0.068 0.166-0.108 0.26-0.108h2.447c0.096 0 0.193 0.041 0.261 0.108l0.101 0.195 6e-3 0.065v1.491c0 0.096-0.04 0.192-0.107 0.26" clip-path="url(#clipPath3559)"/><path transform="matrix(.35278 0 0 -.35278 54.963 74.367)" d="m0 0-2.43-2.434-0.11 0.046v0.26l0.06 0.156 2.21 2.214c0.07 0.066 0.16 0.103 0.25 0.103h0.91l-0.12 0.108h-1.72l-0.18-0.077-1.71-1.71h-0.32l-1.72 1.723-0.16 0.064h-1.73l-0.12-0.108h0.91c0.09 0 0.18-0.037 0.25-0.103l2.21-2.214 0.07-0.156v-0.26l-0.12-0.046-2.43 2.434c-0.08 0.085-0.2 0.133-0.32 0.133h-0.57v-2.126l0.03-0.078 0.47-0.466 0.07-0.03h1.43l-1.29 1.288 0.46-0.761c0.07-0.111-0.01-0.254-0.14-0.254h-0.19c-0.25 0-0.44 0.198-0.44 0.443v1.208l0.14 0.059 1.85-1.854c0.08-0.083 0.19-0.129 0.31-0.129h2.38c0.12 0 0.23 0.046 0.31 0.129l1.86 1.854 0.14-0.059v-1.208c0-0.245-0.2-0.443-0.45-0.443h-0.19c-0.13 0-0.21 0.143-0.14 0.254l0.46 0.761-1.29-1.288h1.43l0.07 0.03 0.47 0.466 0.03 0.078v2.126h-0.57c-0.12 0-0.24-0.048-0.32-0.133" clip-path="url(#clipPath3561)"/></g><g fill="#899099"><path transform="matrix(.35278 0 0 -.35278 61.965 39.12)" d="m0 0v2.087c-0.08 0.125-0.17 0.251-0.25 0.376-0.07 0.102-0.14 0.206-0.21 0.308-0.07 0.103-0.14 0.207-0.2 0.309-0.14 0.205-0.28 0.412-0.42 0.617-0.27 0.404-0.55 0.829-0.82 1.23h0.79c0.16-0.245 0.33-0.496 0.49-0.742 0.16-0.247 0.32-0.497 0.49-0.745 0.07-0.122 0.15-0.247 0.23-0.372l0.11-0.188 0.11-0.191 0.05-0.082c0.08 0.148 0.17 0.295 0.26 0.44 0.09 0.144 0.18 0.289 0.27 0.431 0.32 0.476 0.65 0.978 0.96 1.449h0.76c-0.28-0.396-0.57-0.823-0.85-1.226-0.14-0.205-0.29-0.412-0.43-0.618-0.07-0.104-0.14-0.207-0.21-0.31l-0.22-0.31c-0.08-0.125-0.17-0.251-0.26-0.376v-2.087h-0.65" clip-path="url(#clipPath3597)"/><path transform="matrix(.35278 0 0 -.35278 58.43 41.96)" d="m0 0c0.07 0.097 0.14 0.194 0.22 0.291 0.07 0.098 0.14 0.194 0.21 0.292 0.15 0.193 0.29 0.389 0.44 0.582 0.28 0.381 0.58 0.781 0.86 1.157h-0.71c-0.16-0.216-0.33-0.435-0.49-0.652-0.17-0.218-0.33-0.438-0.5-0.655-0.14-0.18-0.27-0.369-0.39-0.562l-0.12 0.193c-0.08 0.135-0.18 0.282-0.28 0.413-0.14 0.21-0.3 0.422-0.44 0.632-0.15 0.21-0.3 0.422-0.45 0.631h-0.78c0.28-0.383 0.56-0.789 0.84-1.176 0.14-0.197 0.28-0.395 0.42-0.591 0.07-0.099 0.14-0.198 0.21-0.296l0.11-0.149 0.1-0.147-0.07-0.105-0.12-0.154-0.11-0.154c-0.08-0.104-0.16-0.206-0.23-0.31-0.16-0.205-0.31-0.412-0.46-0.617-0.3-0.403-0.62-0.83-0.91-1.227h0.78c0.21 0.282 0.41 0.572 0.62 0.856 0.2 0.285 0.41 0.575 0.62 0.86l0.15 0.242 0.08 0.128c0.07-0.111 0.15-0.221 0.22-0.329 0.1-0.147 0.21-0.295 0.31-0.441 0.1-0.147 0.21-0.294 0.31-0.44 0.2-0.291 0.42-0.588 0.62-0.876h0.81c-0.29 0.396-0.6 0.823-0.88 1.226-0.15 0.205-0.3 0.412-0.45 0.618-0.07 0.103-0.14 0.206-0.22 0.309-0.07 0.103-0.15 0.207-0.22 0.309" clip-path="url(#clipPath3599)"/><path transform="matrix(.35278 0 0 -.35278 66.484 42.613)" d="m0 0c-0.06-0.111-0.14-0.207-0.25-0.273-0.11-0.072-0.25-0.112-0.37-0.135l-0.24-0.021-0.21-3e-3h-1.23v1.694h1.14l0.16-2e-3 0.15-9e-3 0.21-0.023 0.2-0.048 0.22-0.11 0.18-0.176 0.05-0.089c0.06-0.12 0.09-0.251 0.09-0.39 0-0.144-0.03-0.286-0.1-0.415m-2.3 2.588v0.744h0.99c0.14 0 0.31-4e-3 0.45-0.017 0.09-8e-3 0.21-0.024 0.3-0.052 0.14-0.044 0.25-0.127 0.33-0.255l0.04-0.059c0.06-0.116 0.08-0.242 0.08-0.373l-0.03-0.225-0.09-0.205-0.17-0.154-0.06-0.032-0.15-0.06-0.24-0.042c-0.12-0.011-0.26-0.014-0.38-0.014h-1.07zm2.83-1.427c-0.09 0.117-0.2 0.213-0.32 0.289-0.11 0.07-0.24 0.12-0.37 0.158 0.11 0.051 0.21 0.113 0.3 0.188 0.08 0.075 0.16 0.162 0.22 0.263 0.11 0.181 0.17 0.379 0.17 0.594 0 0.236-0.07 0.451-0.19 0.651-0.13 0.21-0.31 0.362-0.53 0.46-0.21 0.091-0.46 0.129-0.68 0.142l-0.23 7e-3h-1.85v-4.927h1.88l0.2 5e-3c0.2 8e-3 0.4 0.03 0.6 0.078 0.19 0.048 0.38 0.124 0.53 0.244 0.16 0.119 0.28 0.282 0.37 0.458 0.1 0.204 0.14 0.418 0.14 0.644 0 0.275-0.07 0.527-0.24 0.746" clip-path="url(#clipPath3601)"/><path transform="matrix(.35278 0 0 -.35278 62.283 46.065)" d="m0 0h-1.28c0.05 0.146 0.11 0.293 0.16 0.44 0.06 0.167 0.13 0.335 0.19 0.502s0.13 0.335 0.19 0.503c0.11 0.307 0.2 0.62 0.26 0.941 0.03-0.092 0.06-0.186 0.09-0.277 0.08-0.246 0.17-0.503 0.26-0.745l0.18-0.462c0.06-0.154 0.11-0.308 0.17-0.462 0.06-0.147 0.11-0.294 0.17-0.44zm1.4-0.797c-0.08 0.205-0.16 0.412-0.25 0.618-0.08 0.205-0.17 0.413-0.25 0.619-0.17 0.405-0.34 0.827-0.51 1.232-0.16 0.407-0.33 0.825-0.5 1.231h-0.7c-0.16-0.405-0.32-0.822-0.47-1.229-0.16-0.406-0.32-0.827-0.48-1.234-0.08-0.206-0.16-0.413-0.24-0.618-0.07-0.205-0.15-0.412-0.23-0.617-0.16-0.405-0.32-0.828-0.47-1.228h0.69c0.09 0.246 0.18 0.497 0.27 0.745s0.18 0.498 0.27 0.747h2.06c0.1-0.249 0.19-0.5 0.29-0.748 0.09-0.248 0.19-0.498 0.28-0.744h0.75c-0.17 0.398-0.34 0.821-0.51 1.226" clip-path="url(#clipPath3603)"/></g><path transform="matrix(.35278 0 0 -.35278 55.841 74.846)" d="m0 0c-0.01-0.093-0.01-0.185-0.02-0.276l-0.03-0.251-0.04-0.227-0.05-0.201c-0.04-0.173-0.09-0.353-0.15-0.535-0.06-0.184-0.14-0.37-0.23-0.562-0.09-0.191-0.2-0.388-0.32-0.588-0.13-0.2-0.28-0.403-0.45-0.607-0.17-0.203-0.37-0.407-0.59-0.602-0.22-0.194-0.47-0.379-0.74-0.545-0.27-0.165-0.56-0.31-0.87-0.429-0.3-0.12-0.62-0.213-0.96-0.279-0.33-0.065-0.69-0.103-1.07-0.1s-0.8 0.046-1.2 0.138c-0.4 0.091-0.8 0.231-1.15 0.4s-0.67 0.366-0.94 0.573c-0.28 0.207-0.51 0.424-0.72 0.65-0.21 0.225-0.39 0.459-0.56 0.712s-0.32 0.525-0.45 0.83c-0.13 0.304-0.25 0.641-0.33 1.003-0.02 0.094-0.04 0.188-0.05 0.283l-0.04 0.26-0.02 0.24-0.01 0.217-0.01 0.197c0 0.55 0.09 1.1 0.25 1.626 0.16 0.529 0.4 1.032 0.72 1.488 0.31 0.455 0.69 0.863 1.12 1.205 0.44 0.343 0.93 0.619 1.44 0.817 0.52 0.198 1.06 0.318 1.61 0.354 0.51 0.035 1.03-3e-3 1.53-0.113 0.45-0.097 0.89-0.25 1.29-0.454 0.36-0.181 0.71-0.401 1.02-0.655 0.27-0.224 0.53-0.475 0.76-0.749 0.2-0.245 0.38-0.507 0.54-0.784 0.15-0.258 0.27-0.528 0.38-0.807 0.11-0.291 0.19-0.589 0.25-0.894 0.06-0.341 0.1-0.688 0.1-1.034 0-0.101 0-0.201-0.01-0.301m0.52 1.083c-0.07 0.562-0.22 1.125-0.46 1.658-0.23 0.532-0.54 1.034-0.92 1.481-0.38 0.446-0.82 0.837-1.31 1.156-0.49 0.32-1.02 0.569-1.58 0.737-0.56 0.167-1.14 0.254-1.73 0.256-0.58 2e-3 -1.16-0.081-1.72-0.244-0.56-0.164-1.1-0.409-1.59-0.725s-0.93-0.703-1.31-1.145c-0.38-0.443-0.7-0.941-0.93-1.47-0.24-0.53-0.4-1.092-0.48-1.642-0.08-0.551-0.08-1.092 0-1.64l0.01-0.11 0.02-0.111 0.02-0.109c0.09-0.5 0.25-0.987 0.48-1.475 0.23-0.487 0.55-0.974 0.92-1.402s0.8-0.796 1.28-1.1c0.47-0.303 0.98-0.543 1.52-0.707 0.54-0.163 1.1-0.252 1.67-0.26s1.13 0.062 1.68 0.21 1.07 0.373 1.56 0.666c0.48 0.292 0.92 0.651 1.3 1.065 0.39 0.414 0.71 0.882 0.97 1.378 0.25 0.495 0.43 1.017 0.54 1.585l0.02 0.084 0.01 0.086 0.02 0.088c0.08 0.568 0.09 1.128 0.01 1.69" clip-path="url(#clipPath3605)" fill="#8a9199"/><path transform="matrix(.35278 0 0 -.35278 59.99 74.855)" d="m0 0c-0.01-0.12-0.03-0.237-0.06-0.356-0.03-0.121-0.06-0.243-0.11-0.369-0.04-0.127-0.1-0.255-0.17-0.386l-0.14-0.258c-0.06-0.088-0.12-0.177-0.19-0.267l-0.24-0.268c-0.09-0.09-0.18-0.178-0.29-0.263s-0.22-0.168-0.35-0.244-0.27-0.148-0.42-0.21c-0.15-0.063-0.31-0.117-0.49-0.16-0.17-0.042-0.36-0.073-0.57-0.084-0.2-0.012-0.41-5e-3 -0.62 0.024-0.21 0.028-0.42 0.079-0.62 0.149-0.21 0.07-0.4 0.16-0.57 0.261-0.18 0.102-0.34 0.215-0.49 0.346-0.15 0.13-0.29 0.279-0.43 0.454s-0.26 0.376-0.37 0.602c-0.07 0.138-0.13 0.284-0.17 0.429-0.05 0.147-0.08 0.292-0.11 0.452-0.02 0.159-0.04 0.332-0.04 0.511 0 0.34 0.06 0.68 0.16 0.999 0.1 0.321 0.26 0.621 0.45 0.894 0.2 0.272 0.44 0.516 0.72 0.718 0.27 0.2 0.58 0.357 0.9 0.464 0.33 0.105 0.67 0.16 1.02 0.159 0.34-1e-3 0.68-0.059 1-0.162 0.31-0.104 0.6-0.252 0.84-0.423 0.25-0.171 0.45-0.363 0.62-0.561 0.16-0.198 0.29-0.401 0.4-0.612s0.2-0.428 0.26-0.673 0.1-0.518 0.1-0.803c0-0.122-0.01-0.244-0.02-0.363m0.38 1.591c-0.12 0.358-0.3 0.716-0.55 1.048-0.25 0.331-0.56 0.636-0.92 0.878s-0.76 0.421-1.18 0.527c-0.41 0.107-0.85 0.143-1.27 0.106s-0.84-0.144-1.22-0.317c-0.39-0.173-0.75-0.41-1.05-0.698-0.31-0.287-0.57-0.626-0.77-0.997-0.19-0.372-0.32-0.778-0.39-1.186-0.06-0.409-0.06-0.821 0.01-1.247l0.04-0.183 0.04-0.178 0.06-0.176c0.14-0.392 0.32-0.745 0.55-1.06 0.23-0.314 0.5-0.587 0.82-0.821 0.33-0.232 0.7-0.425 1.09-0.55 0.4-0.125 0.82-0.182 1.22-0.175 0.41 9e-3 0.8 0.084 1.17 0.208 0.36 0.125 0.69 0.297 0.99 0.52 0.31 0.223 0.58 0.495 0.81 0.798 0.23 0.302 0.41 0.636 0.54 1.017l0.04 0.102 0.06 0.204c0.09 0.368 0.13 0.735 0.11 1.098-0.01 0.363-0.07 0.723-0.2 1.082" clip-path="url(#clipPath3607)" fill="#8a9199"/><path transform="matrix(.35278 0 0 -.35278 -34.281 53.878)" d="m0 0c0-8.05-6.526-14.576-14.576-14.576s-14.577 6.526-14.577 14.576 6.527 14.576 14.577 14.576 14.576-6.526 14.576-14.576" clip-path="url(#clipPath3609)" fill="none" stroke="#899099"/><g fill="#8a9199"><path transform="matrix(.35278 0 0 -.35278 -39.324 50.22)" d="m0 0v-2.821c0-0.153-0.123-0.276-0.276-0.276-0.152 0-0.276 0.123-0.276 0.276v2.821c0 0.152 0.124 0.276 0.276 0.276 0.153 0 0.276-0.124 0.276-0.276" clip-path="url(#clipPath3611)"/><path transform="matrix(.35278 0 0 -.35278 -39.324 56.55)" d="m0 0v-2.821c0-0.153-0.123-0.276-0.276-0.276-0.152 0-0.276 0.123-0.276 0.276v2.821c0 0.152 0.124 0.276 0.276 0.276 0.153 0 0.276-0.124 0.276-0.276" clip-path="url(#clipPath3613)"/><path transform="matrix(.35278 0 0 -.35278 -35.758 53.979)" d="m0 0h-2.821c-0.153 0-0.276 0.123-0.276 0.275 0 0.153 0.123 0.276 0.276 0.276h2.821c0.152 0 0.276-0.123 0.276-0.276 0-0.152-0.124-0.275-0.276-0.275" clip-path="url(#clipPath3615)"/><path transform="matrix(.35278 0 0 -.35278 -42.088 53.979)" d="m0 0h-2.821c-0.153 0-0.276 0.123-0.276 0.275 0 0.153 0.123 0.276 0.276 0.276h2.821c0.152 0 0.276-0.123 0.276-0.276 0-0.152-0.124-0.275-0.276-0.275" clip-path="url(#clipPath3617)"/><path transform="matrix(.35278 0 0 -.35278 -34.222 74.879)" d="m0 0c-0.037-0.302-0.118-0.599-0.24-0.877-0.121-0.275-0.274-0.516-0.442-0.722-0.168-0.205-0.351-0.375-0.535-0.514s-0.37-0.248-0.561-0.337c-0.192-0.09-0.389-0.16-0.608-0.211s-0.46-0.082-0.711-0.082h-0.967-14.276-0.642c-0.221 0-0.433 0.023-0.629 0.064-0.196 0.04-0.378 0.097-0.547 0.165-0.169 0.07-0.325 0.15-0.471 0.241-0.147 0.09-0.284 0.192-0.416 0.309-0.133 0.117-0.26 0.249-0.382 0.402-0.12 0.152-0.234 0.325-0.333 0.516-0.14 0.275-0.241 0.571-0.295 0.882-0.055 0.31-0.062 0.634-0.021 0.949 0.042 0.317 0.132 0.624 0.265 0.908 0.133 0.286 0.308 0.545 0.503 0.765s0.411 0.397 0.641 0.546c0.23 0.148 0.476 0.266 0.757 0.352 0.28 0.086 0.596 0.141 0.928 0.141h1.635 13.582 0.668c0.308 0 0.617-0.046 0.911-0.136 0.29-0.088 0.566-0.218 0.818-0.386 0.254-0.169 0.483-0.376 0.677-0.611 0.189-0.229 0.345-0.486 0.462-0.759 0.108-0.252 0.183-0.519 0.221-0.791 0.038-0.269 0.041-0.543 8e-3 -0.814m0.624 0.792c-0.041 0.355-0.134 0.716-0.277 1.054-0.143 0.337-0.336 0.651-0.57 0.931-0.234 0.281-0.51 0.527-0.815 0.727-0.305 0.201-0.64 0.356-0.985 0.46-0.346 0.104-0.702 0.157-1.074 0.157-1.967-1e-3 -3.839 0-5.658 0-1.818 1e-3 -3.584 1e-3 -5.3 1e-3 -1.717 0-3.386 0-4.927-1e-3 -0.379 0-0.741-0.054-1.098-0.164-0.356-0.11-0.706-0.276-1.024-0.494-0.316-0.218-0.6-0.486-0.834-0.787-0.235-0.302-0.42-0.636-0.551-0.985-0.13-0.348-0.207-0.713-0.23-1.079-0.024-0.366 6e-3 -0.732 0.094-1.104l0.031-0.12 0.035-0.118 0.038-0.117c0.077-0.231 0.181-0.458 0.316-0.684 0.136-0.227 0.303-0.454 0.507-0.668 0.202-0.215 0.441-0.418 0.721-0.593s0.601-0.322 0.936-0.423c0.335-0.099 0.685-0.152 1.059-0.152 0.739-1e-3 1.443-1e-3 2.108-1e-3 0.666 0 1.292 0 1.889 1e-3h6.186c0.474 0 0.948 0 1.423 1e-3h1.425c0.475 1e-3 0.951 1e-3 1.427 0 0.475 0 0.95 0 1.427-1e-3 0.405 0 0.789 0.062 1.161 0.184 0.371 0.122 0.73 0.304 1.051 0.539 0.32 0.235 0.602 0.522 0.831 0.84 0.23 0.319 0.406 0.669 0.528 1.057l0.045 0.152 0.038 0.158 0.033 0.165c0.063 0.357 0.075 0.708 0.034 1.064" clip-path="url(#clipPath3619)"/></g><path transform="matrix(.35278 0 0 -.35278 -34.8 36.436)" d="m0 0c0 0.278-0.056 0.55-0.162 0.801-0.105 0.249-0.256 0.471-0.442 0.658-0.187 0.187-0.41 0.338-0.658 0.442-0.251 0.107-0.521 0.162-0.802 0.162-0.28 0-0.551-0.055-0.801-0.162-0.248-0.104-0.471-0.255-0.658-0.442-0.186-0.187-0.338-0.409-0.443-0.658-0.105-0.251-0.161-0.523-0.161-0.801s0.056-0.55 0.161-0.801c0.105-0.249 0.257-0.471 0.443-0.658 0.187-0.187 0.41-0.338 0.658-0.442 0.25-0.106 0.521-0.162 0.801-0.162 0.281 0 0.551 0.056 0.802 0.162 0.248 0.104 0.471 0.255 0.658 0.442 0.186 0.187 0.337 0.409 0.442 0.658 0.106 0.251 0.162 0.523 0.162 0.801" fill="none" stroke="#899099" stroke-width=".4337"/><g fill="#899099"><path transform="matrix(.35278 0 0 -.35278 -35.869 36.436)" d="m0 0-0.089-0.215c-0.677-0.425-0.683 0.853 0 0.431l0.089-0.216" clip-path="url(#clipPath3621)"/><path transform="matrix(.35278 0 0 -.35278 -35.188 36.436)" d="m 0,0 0.089,0.216 c 0.683,0.421 0.677,-0.855 0,-0.431 L 0,0" clip-path="url(#clipPath3623)"/><path transform="matrix(.35278 0 0 -.35278 -35.337 36.436)" d="m0 0c0-0.145-0.057-0.283-0.159-0.385l-0.177-0.118-0.208-0.041-0.209 0.041-0.176 0.118c-0.102 0.102-0.159 0.24-0.159 0.385s0.057 0.283 0.159 0.385l0.176 0.118 0.209 0.041 0.208-0.041 0.177-0.118c0.102-0.102 0.159-0.24 0.159-0.385" clip-path="url(#clipPath3625)"/></g><g fill="none" stroke="#899099"><path transform="matrix(.35278 0 0 -.35278 60.48 53.047)" d="m0 0c0-6.483-5.26-11.738-11.74-11.738s-11.74 5.255-11.74 11.738c0 6.482 5.26 11.737 11.74 11.737s11.74-5.255 11.74-11.737" clip-path="url(#clipPath3627)"/><path transform="matrix(.35278 0 0 -.35278 59.806 53.047)" d="m0 0c0-5.426-4.4-9.824-9.82-9.824-5.43 0-9.83 4.398-9.83 9.824 0 5.425 4.4 9.823 9.83 9.823 5.42 0 9.82-4.398 9.82-9.823" clip-path="url(#clipPath3629)"/><path transform="matrix(.35278 0 0 -.35278 58.709 53.047)" d="m0 0h0.12c0-3.781-3.06-6.847-6.84-6.847s-6.85 3.066-6.85 6.847c0 3.78 3.07 6.846 6.85 6.846s6.84-3.066 6.84-6.846h-0.25c0 1.821-0.73 3.47-1.93 4.664-1.19 1.194-2.84 1.932-4.66 1.932s-3.47-0.738-4.67-1.932c-1.19-1.194-1.93-2.843-1.93-4.664 0-1.822 0.74-3.47 1.93-4.665 1.2-1.194 2.85-1.932 4.67-1.932s3.47 0.738 4.66 1.932c1.2 1.195 1.93 2.843 1.93 4.665h0.13" clip-path="url(#clipPath3631)"/></g></g></svg>
