<svg width="32" height="32" fill="none" version="1.1" viewBox="0 0 32 32" xml:space="preserve" xmlns="http://www.w3.org/2000/svg"><path d="m3.3191 26.872c-0.49595 0-0.92617-0.16544-1.2899-0.52919-0.36561-0.34738-0.52919-0.77722-0.52919-1.2898v-18.123c0-0.49608 0.16408-0.92605 0.52919-1.2733 0.36561-0.36375 0.7936-0.52919 1.2899-0.52919h3.6214c0.51282 0 0.9258 0.16544 1.2899 0.52919 0.34688 0.34738 0.52919 0.7771 0.52919 1.2733v18.123c0 0.51257-0.1828 0.94254-0.52919 1.2898-0.36561 0.36377-0.77715 0.52919-1.2899 0.52919zm9.0615 0c-0.49595 0-0.92617-0.16544-1.2731-0.52919-0.36561-0.34738-0.52919-0.77722-0.52919-1.2898v-18.123c0-0.49608 0.16408-0.92605 0.52919-1.2733 0.34688-0.36375 0.7771-0.52919 1.2731-0.52919h3.6378c0.49595 0 0.9258 0.16544 1.2731 0.52919 0.34688 0.34738 0.54556 0.7771 0.54556 1.2733v18.123c0 0.51257-0.19682 0.94254-0.54556 1.2898-0.34687 0.36377-0.77716 0.52919-1.2731 0.52919zm13.162-0.01612c-0.41249 0-0.7771-0.11534-1.1081-0.36375-0.31402-0.24791-0.54556-0.57867-0.66139-0.95904l-4.0513-14.618c-0.05209-0.18181-0.05209-0.33088-0.05209-0.47946 0-0.41348 0.11658-0.76061 0.34688-1.0914 0.24841-0.31402 0.57892-0.54568 0.95904-0.67801l3.1747-0.87644c0.1828-0.04961 0.31402-0.06573 0.47946-0.06573 0.41249 0 0.77722 0.11534 1.0912 0.36375 0.33274 0.24791 0.54556 0.5788 0.66139 0.95904l4.0512 14.634c0.06573 0.16544 0.06573 0.33088 0.06573 0.49608 0 0.38012-0.11658 0.74411-0.34688 1.0747-0.24841 0.33088-0.56205 0.54568-0.95904 0.66139l-2.3648 0.66139c-0.36561 0.09922-0.64502 0.18181-0.82683 0.23154-0.16408 0.03348-0.33274 0.04961-0.46408 0.04961" fill="#fff" stroke-width="46.873"/></svg>
