<svg width="32" height="32" fill="none" version="1.1" viewBox="0 0 32 32" xml:space="preserve" xmlns="http://www.w3.org/2000/svg"><path d="m16 1.5c-8.0081 0-14.5 6.4919-14.5 14.5 0 8.0081 6.4919 14.5 14.5 14.5 8.0081 0 14.5-6.4919 14.5-14.5 0-8.0081-6.4919-14.5-14.5-14.5zm-7.1152 8h6.2461c4.1642 0 6.3048 0.03259 6.4219 0.097656 0.11711 0.065067 0.23444 0.22802 0.35156 0.48828 0.13013 0.29929 0.19531 1.06 0.19531 2.2832v1.8945h1.0156v8.2363h-14.23v-13zm4.2168 2.2441v2.5195h5.8164l-0.039063-1.25-0.019531-1.2305c-0.63763 0-1.5971-0.006531-2.8789-0.019531-1.2818-0.013-2.2413-0.019531-2.8789-0.019531zm0 4.8613v3.5723h5.7969v-3.5723h-5.7969z" fill="#fff"/></svg>
