<svg width="32" height="32" fill="none" version="1.1" viewBox="0 0 32 32" xml:space="preserve" xmlns="http://www.w3.org/2000/svg"><path d="m16 1.5c-8.0081 0-14.5 6.4919-14.5 14.5 0 8.0081 6.4919 14.5 14.5 14.5 8.0081 0 14.5-6.4919 14.5-14.5 0-8.0081-6.4919-14.5-14.5-14.5zm-6.8652 8h1.252 2.3301l0.44336 0.48242c0.11556 0.12839 0.60934 0.69856 1.4824 1.7129 0.15407 0.17975 0.33363 0.38274 0.53906 0.60742 0.20543 0.22469 0.36352 0.4009 0.47266 0.5293 0.10913 0.12839 0.17549 0.20479 0.20117 0.23047 0.038533 0.038533 0.070036 0.058594 0.095703 0.058594 0.077033 0 0.22174-0.10985 0.43359-0.32812 0.21185-0.21827 0.63928-0.69198 1.2812-1.4238l1.6367-1.8691h2.3301c1.1427 0 1.8147 0.01003 2.0137 0.029297 0.19901 0.019267 0.29883 0.074196 0.29883 0.16406 0 0.10272-0.37918 0.5898-1.1367 1.4629-2.8375 3.2099-4.2559 4.8412-4.2559 4.8926 0 0.038533 0.48709 0.60202 1.4629 1.6934 1.7462 1.9644 2.7987 3.1402 3.1582 3.5254 0.51358 0.57777 0.77148 0.91207 0.77148 1.002 0 0.10271-0.10651 0.16573-0.31836 0.19141-0.21185 0.025666-0.6192 0.039062-1.2227 0.039062h-0.79102-2.3105l-1.5781-1.7715c-1.04-1.1812-1.5987-1.7916-1.6758-1.8301-0.0642 0-0.62295 0.59694-1.6758 1.791l-1.6191 1.8105h-2.3496c-1.493 0-2.2757-0.043355-2.3457-0.125v-0.001953l-0.0019532-0.001953v-0.001953-0.001953l-0.0019531-0.001954c0-0.08988 0.48904-0.68012 1.4648-1.7715 1.7462-1.9516 2.8402-3.187 3.2832-3.707 0.44296-0.52 0.66406-0.81944 0.66406-0.89648 0-0.025666-0.011443-0.050505-0.037109-0.076172-0.12839-0.16691-0.61744-0.71897-1.4648-1.6562-0.28247-0.30815-0.63489-0.71076-1.0586-1.2051s-0.67492-0.77844-0.75195-0.85547c-0.038533-0.051334-0.22143-0.25766-0.54883-0.61719-0.32741-0.35951-0.57332-0.64222-0.74023-0.84766-0.53926-0.60345-0.81055-0.96257-0.81055-1.0781 0-0.038533 0.02006-0.066671 0.058594-0.085938 0.038533-0.019267 0.14838-0.035962 0.32812-0.048828 0.17975-0.012867 0.41089-0.019531 0.69336-0.019531z" fill="#fff"/></svg>
