<svg width="32" height="32" version="1.1" viewBox="0 0 32 32" xml:space="preserve" xmlns="http://www.w3.org/2000/svg"><g fill="#fff"><path d="m12.654 16.699v4.1211h6.6895v-4.1211z"/><path d="m12.654 11.09v2.9062h6.7129l-0.04492-1.4414-0.02344-1.4199c-0.73573 0-1.8433-0.0065-3.3223-0.02149-1.479-0.015-2.5865-0.02344-3.3223-0.02344z"/><path d="m16 1.5c-8.0081 0-14.5 6.4919-14.5 14.5s6.4919 14.5 14.5 14.5 14.5-6.4919 14.5-14.5-6.4919-14.5-14.5-14.5zm-8.209 7h7.207c4.8048 0 7.275 0.038208 7.4102 0.11328 0.13513 0.075073 0.26916 0.26219 0.4043 0.5625 0.15015 0.34534 0.22656 1.2234 0.22656 2.6348v2.1855h1.1699v9.5039h-16.418z"/></g></svg>
