<svg width="32" height="32" version="1.1" viewBox="0 0 32 32" xml:space="preserve" xmlns="http://www.w3.org/2000/svg"><path d="m16 1.5c-8.0081 0-14.5 6.4919-14.5 14.5s6.4919 14.5 14.5 14.5 14.5-6.4919 14.5-14.5-6.4919-14.5-14.5-14.5zm3.8105 7h2.6895c1.3185 0 2.0927 0.010972 2.3223 0.033203s0.34372 0.085764 0.34375 0.18945c0 0.14815-0.67335 0.97717-2.0215 2.4883-0.38519 0.44445-0.98165 1.1221-1.7891 2.0332-0.8074 0.91113-1.3293 1.5009-1.5664 1.7676l-1.3789 1.5332v6.9551h-4.8223v-7.1113l-0.5332-0.5332c-0.65185-0.66666-1.8515-2.0067-3.5996-4.0215-1.7481-2.0148-2.6211-3.0607-2.6211-3.1348 0-0.088887 0.12941-0.13948 0.38867-0.1543 0.25925-0.014846 1.0334-0.023437 2.3223-0.023437h2.7109l0.62109 0.73438c0.35555 0.4 0.96302 1.0886 1.8223 2.0664 0.7704 0.90367 1.2088 1.3555 1.3125 1.3555 0.07408 0 0.72542-0.69724 1.9551-2.0898z" fill="#fff"/></svg>
