<svg width="32" height="32" version="1.1" viewBox="0 0 32 32" xml:space="preserve" xmlns="http://www.w3.org/2000/svg"><path d="m16 1.5c-8.0081 0-14.5 6.4919-14.5 14.5s6.4919 14.5 14.5 14.5 14.5-6.4919 14.5-14.5-6.4919-14.5-14.5-14.5zm-7.9219 7h4.1328l0.51172 0.55469c0.13334 0.14815 0.70354 0.80813 1.7109 1.9785 0.17778 0.20741 0.38406 0.43997 0.62109 0.69922 0.23703 0.25926 0.419 0.46318 0.54492 0.61133 0.12592 0.14815 0.20474 0.23795 0.23438 0.26758 0.04446 0.04446 0.08171 0.06641 0.11133 0.06641 0.08889 0 0.25555-0.1251 0.5-0.37695 0.24445-0.25185 0.73581-0.80011 1.4766-1.6445l1.8887-2.1563h2.6895c1.3185 0 2.0927 0.010972 2.3223 0.033203 0.22963 0.022231 0.34375 0.085764 0.34375 0.18945 0 0.11852-0.43648 0.68009-1.3105 1.6875-3.2741 3.7037-4.9102 5.5853-4.9102 5.6445 0 0.04446 0.56157 0.69782 1.6875 1.957 2.0148 2.2667 3.2297 3.6219 3.6445 4.0664 0.59259 0.66666 0.88867 1.0506 0.88867 1.1543 0 0.11851-0.12079 0.19302-0.36524 0.22266-0.24445 0.029613-0.71582 0.044922-1.4121 0.044922h-3.5781l-1.8223-2.0449c-1.2-1.3629-1.8447-2.0669-1.9336-2.1113-0.07408 0-0.71685 0.69056-1.9316 2.0684l-1.8672 2.0879h-2.7109c-1.7368 0-2.6411-0.05073-2.709-0.14648 0 0-0.00195-2e-3 -0.00195-2e-3v-2e-3 -2e-3c-1.103e-4 -8.04e-4 0-0.0031 0-0.0039 0-0.10371 0.56157-0.78368 1.6875-2.043 2.0148-2.2519 3.2779-3.6793 3.7891-4.2793 0.51111-0.6 0.76758-0.94434 0.76758-1.0332 0-0.02961-0.01531-0.05828-0.04492-0.08789-0.14815-0.19259-0.71167-0.83064-1.6895-1.9121-0.32592-0.35556-0.73182-0.8183-1.2207-1.3887-0.4889-0.57023-0.77831-0.89926-0.86719-0.98815-0.044459-0.059229-0.25505-0.29609-0.63281-0.71094-0.37778-0.41481-0.66288-0.74148-0.85547-0.97852-0.62222-0.69627-0.93359-1.1108-0.93359-1.2441 0-0.044461 0.021945-0.077377 0.066406-0.099609 0.044462-0.022232 0.16956-0.041795 0.37695-0.056641 0.2074-0.014846 0.47485-0.021484 0.80078-0.021484z" fill="#fff"/></svg>
