<svg width="32" height="32" fill="none" version="1.1" viewBox="0 0 32 32" xml:space="preserve" xmlns="http://www.w3.org/2000/svg"><path d="m16 1.5c-8.0081 0-14.5 6.4919-14.5 14.5 0 8.0081 6.4919 14.5 14.5 14.5 8.0081 0 14.5-6.4919 14.5-14.5 0-8.0081-6.4919-14.5-14.5-14.5zm3.3027 8h2.3301c1.1427 0 1.8147 0.01003 2.0137 0.029297 0.19901 0.019267 0.29883 0.074196 0.29883 0.16406 1e-6 0.1284-0.58551 0.84662-1.7539 2.1562-0.33383 0.38519-0.85103 0.97209-1.5508 1.7617-0.69975 0.78963-1.152 1.3001-1.3574 1.5312l-1.1934 1.3301v6.0273h-4.1797v-6.1621l-0.46289-0.46289c-0.56493-0.57777-1.6041-1.7402-3.1191-3.4863-1.5151-1.7462-2.2734-2.6506-2.2734-2.7148 0-0.077033 0.1132-0.12193 0.33789-0.13477 0.22469-0.012867 0.89468-0.019531 2.0117-0.019531h2.3496l0.54102 0.63477c0.30815 0.34667 0.83343 0.9436 1.5781 1.791 0.66765 0.78321 1.0468 1.1758 1.1367 1.1758 0.0642 0 0.62963-0.60363 1.6953-1.8105l1.5977-1.8105z" fill="#fff"/></svg>
