<svg width="32" height="32" version="1.1" viewBox="0 0 32 32" xml:space="preserve" xmlns="http://www.w3.org/2000/svg"><path d="m30.5 16c0 8.0081-6.4919 14.5-14.5 14.5-8.0081 0-14.5-6.4919-14.5-14.5 0-8.0081 6.4919-14.5 14.5-14.5 8.0081 0 14.5 6.4919 14.5 14.5z" fill="#04b2e1"/><path d="m6.8333 8.6779q0-0.066692 0.066692-0.10004 0.066692-0.033347 0.37778-0.055616 0.3111-0.022269 0.8-0.022269h4.1333l0.51111 0.55555q0.20001 0.22222 1.7111 1.9778 0.26667 0.31111 0.62222 0.69999 0.35555 0.38889 0.54444 0.61111 0.18888 0.22222 0.23333 0.26666 0.06669 0.06669 0.11112 0.06669 0.13333 0 0.5-0.37778 0.36667-0.37777 1.4778-1.6444l1.8889-2.1556h2.6889q1.9778 0 2.3222 0.033347 0.34444 0.033346 0.34444 0.18888 0 0.17778-1.3111 1.6889-4.9111 5.5555-4.9111 5.6444 0 0.06669 1.6889 1.9555 3.0222 3.4 3.6444 4.0667 0.88889 0.99999 0.88889 1.1556 0 0.17777-0.36667 0.22222-0.36667 0.04442-1.4111 0.04442h-3.5778l-1.8222-2.0444q-1.8-2.0444-1.9333-2.1111-0.11112 0-1.9333 2.0667l-1.8667 2.0889h-2.7111q-2.7111 0-2.7111-0.15555 0-0.15556 1.6889-2.0445 3.0222-3.3778 3.7889-4.2778 0.76666-0.9 0.76666-1.0333 0-0.04442-0.04442-0.08884-0.22222-0.28889-1.6889-1.9111-0.48888-0.53334-1.2222-1.3889-0.73334-0.85555-0.86667-0.98888-0.066689-0.088844-0.63333-0.71112-0.56667-0.62222-0.85555-0.97778-0.93333-1.0444-0.93333-1.2444z" fill="#fff" stroke-width=".022222"/></svg>
