<svg width="32" height="32" version="1.1" viewBox="0 0 32 32" xml:space="preserve" xmlns="http://www.w3.org/2000/svg"><path d="m30.5 16c0 8.0081-6.4919 14.5-14.5 14.5-8.0081 0-14.5-6.4919-14.5-14.5 0-8.0081 6.4919-14.5 14.5-14.5 8.0081 0 14.5 6.4919 14.5 14.5z" fill="#cf63cf"/><path d="m6.8334 8.7q0-0.13333 0.38889-0.15555 0.38888-0.022269 2.3222-0.022269h2.7111l0.62222 0.73332q0.53333 0.6 1.8222 2.0667 1.1556 1.3555 1.3111 1.3555 0.11112 0 1.9556-2.0889l1.8444-2.0889h2.6889q1.9778 0 2.3222 0.033346t0.34444 0.18888q0 0.22223-2.0222 2.4889-0.57778 0.66667-1.7889 2.0333-1.2111 1.3667-1.5667 1.7667l-1.3778 1.5333v6.9556h-4.8222v-7.1111l-0.53333-0.53334q-0.97777-0.99999-3.6-4.0222-2.6222-3.0222-2.6222-3.1333z" fill="#fff" stroke-width=".022222"/></svg>
