<?xml version="1.0" encoding="UTF-8" standalone="no"?>
<svg
   width="32"
   height="32"
   viewBox="0 0 32 32"
   fill="none"
   version="1.1"
   id="svg1"
   xml:space="preserve"
   xmlns="http://www.w3.org/2000/svg"
   xmlns:svg="http://www.w3.org/2000/svg"><defs
     id="defs1" /><path
     d="M 30.5,16 C 30.5,24.0081 24.0081,30.5 16,30.5 7.99187,30.5 1.5,24.0081 1.5,16 1.5,7.99187 7.99187,1.5 16,1.5 24.0081,1.5 30.5,7.99187 30.5,16 Z"
     fill="#ffffff"
     id="path1" /><g
     style="fill:#000000;fill-opacity:1;stroke:#000000;stroke-opacity:1"
     id="g2"
     transform="matrix(0.68987759,0,0,0.68987759,4.9648573,4.9646987)"><path
       d="M 10.018,6.065 10.025,5.981 9.944,6.017 9.864,6.21 Z M 9.882,6.01 9.838,5.963 9.801,6.017 9.851,6.15 Z"
       style="fill:#000000;fill-opacity:1;stroke:#000000;stroke-width:0.0229306;stroke-linecap:round;stroke-linejoin:round;stroke-miterlimit:10;stroke-dasharray:none;stroke-opacity:1"
       transform="matrix(62.48933,0,0,62.48933,-610.241,-366.22)"
       id="path1-3" /><path
       d="m 10.242,6.09 -0.18,-0.158 0.037,0.145 -0.23,0.194 v 0.03 l 0.137,-0.079 h 0.05 l 0.05,0.018 0.03,0.025 0.025,0.036 0.007,-0.049 V 6.21 L 10.155,6.186 10.143,6.162 10.13,6.15 Z"
       style="fill:#000000;fill-opacity:1;stroke:#000000;stroke-width:0.0229306;stroke-linecap:round;stroke-linejoin:round;stroke-miterlimit:10;stroke-dasharray:none;stroke-opacity:1"
       transform="matrix(62.48933,0,0,62.48933,-610.241,-366.22)"
       id="path2" /></g></svg>
