<svg xmlns="http://www.w3.org/2000/svg" width="980" height="624"><defs><clipPath id="a"><path d="M1063 0v638H0V0z"/></clipPath><clipPath id="b"><path d="M208 0a8 8 0 0 1 8 8v158a8 8 0 0 1-8 8H8a8 8 0 0 1-8-8V8a8 8 0 0 1 8-8z"/></clipPath><clipPath id="c"><path d="M29 0c16.016 0 29 12.984 29 29S45.016 58 29 58 0 45.016 0 29 12.984 0 29 0"/></clipPath><clipPath id="d"><path d="M185 0c37.003 0 67 29.997 67 67s-29.997 67-67 67H67c-37.003 0-67-29.997-67-67S29.997 0 67 0z"/></clipPath><clipPath id="e"><path d="M58 0c30.928 0 56 25.072 56 56v2c0 30.928-25.072 56-56 56h-2C25.072 114 0 88.928 0 58v-2C0 25.072 25.072 0 56 0z"/></clipPath><clipPath id="f"><path d="M17 0c9.389 0 17 7.611 17 17s-7.611 17-17 17S0 26.389 0 17 7.611 0 17 0"/></clipPath><clipPath id="g"><path d="M30 0c5.523 0 10 4.477 10 10s-4.477 10-10 10H10C4.477 20 0 15.523 0 10S4.477 0 10 0z"/></clipPath><clipPath id="h"><path d="M3 0a3 3 0 0 1 3 3v6a3 3 0 0 1-6 0V3a3 3 0 0 1 3-3m10 0a3 3 0 0 1 3 3v6a3 3 0 0 1-6 0V3a3 3 0 0 1 3-3m10 0a3 3 0 0 1 3 3v6a3 3 0 0 1-6 0V3a3 3 0 0 1 3-3"/></clipPath><clipPath id="i"><path d="M3 0a3 3 0 1 1 0 6 3 3 0 0 1 0-6"/></clipPath></defs><g clip-path="url(#a)" transform="translate(-41 -7)"><path fill="none" stroke="#9FAABA" stroke-miterlimit="10" stroke-width="2" d="M161 172h742a8 8 0 0 1 8 8v428c0 12.15-9.85 22-22 22H175c-12.15 0-22-9.85-22-22V180a8 8 0 0 1 8-8Z"/><path fill="none" stroke="#9FAABA" stroke-linecap="square" stroke-miterlimit="10" stroke-width="2" d="m153.5 371.5 757.5.5M436 624h188"/><path fill="none" stroke="#9FAABA" stroke-miterlimit="10" stroke-width="2" d="M624 624q5.757 0 9 2.195l5.242 3.805M438.242 624q-5.757 0-9 2.195L424 630"/><g clip-path="url(#b)" transform="translate(424 183)"><path fill="none" stroke="#9FAABA" stroke-miterlimit="5" stroke-width="4" d="M8 0h200a8 8 0 0 1 8 8v158a8 8 0 0 1-8 8H8a8 8 0 0 1-8-8V8a8 8 0 0 1 8-8Z"/></g><path fill="none" stroke="#9FAABA" stroke-linecap="square" stroke-miterlimit="10" stroke-width="2" d="M153.5 365.5h758"/><g clip-path="url(#c)" transform="translate(199 238)"><path fill="none" stroke="#9FAABA" stroke-miterlimit="5" stroke-width="4" d="M29 0c16.016 0 29 12.984 29 29S45.016 58 29 58 0 45.016 0 29 12.984 0 29 0Z"/></g><g clip-path="url(#c)" transform="translate(806 238)"><path fill="none" stroke="#9FAABA" stroke-miterlimit="5" stroke-width="4" d="M29 0c16.016 0 29 12.984 29 29S45.016 58 29 58 0 45.016 0 29 12.984 0 29 0Z"/></g><g clip-path="url(#d)" transform="translate(162 200)"><path fill="none" stroke="#9FAABA" stroke-miterlimit="5" stroke-width="4" d="M67 0h118c37.003 0 67 29.997 67 67s-29.997 67-67 67H67c-37.003 0-67-29.997-67-67S29.997 0 67 0Z"/></g><g clip-path="url(#d)" transform="translate(650 200)"><path fill="none" stroke="#9FAABA" stroke-miterlimit="5" stroke-width="4" d="M67 0h118c37.003 0 67 29.997 67 67s-29.997 67-67 67H67c-37.003 0-67-29.997-67-67S29.997 0 67 0Z"/></g><g clip-path="url(#e)" transform="translate(173 210)"><path fill="none" stroke="#9FAABA" stroke-miterlimit="5" stroke-width="4" d="M56 0h2c30.928 0 56 25.072 56 56v2c0 30.928-25.072 56-56 56h-2C25.072 114 0 88.928 0 58v-2C0 25.072 25.072 0 56 0Z"/></g><g clip-path="url(#e)" transform="translate(777 210)"><path fill="none" stroke="#9FAABA" stroke-miterlimit="5" stroke-width="4" d="M56 0h2c30.928 0 56 25.072 56 56v2c0 30.928-25.072 56-56 56h-2C25.072 114 0 88.928 0 58v-2C0 25.072 25.072 0 56 0Z"/></g><g clip-path="url(#f)" transform="translate(664 250)"><path fill="none" stroke="#9FAABA" stroke-miterlimit="5" stroke-width="4" d="M17 0c9.389 0 17 7.611 17 17s-7.611 17-17 17S0 26.389 0 17 7.611 0 17 0Z"/></g><g clip-path="url(#f)" transform="translate(734 250)"><path fill="none" stroke="#9FAABA" stroke-miterlimit="5" stroke-width="4" d="M17 0c9.389 0 17 7.611 17 17s-7.611 17-17 17S0 26.389 0 17 7.611 0 17 0Z"/></g><g clip-path="url(#f)" transform="translate(699 216)"><path fill="none" stroke="#9FAABA" stroke-miterlimit="5" stroke-width="4" d="M17 0c9.389 0 17 7.611 17 17s-7.611 17-17 17S0 26.389 0 17 7.611 0 17 0Z"/></g><g clip-path="url(#f)" transform="translate(699 285)"><path fill="none" stroke="#9FAABA" stroke-miterlimit="5" stroke-width="4" d="M17 0c9.389 0 17 7.611 17 17s-7.611 17-17 17S0 26.389 0 17 7.611 0 17 0Z"/></g><path fill="none" stroke="#9FAABA" stroke-miterlimit="10" stroke-width="2" d="M332.375 308.468V286.54q10.621-12.186 15.141-12.186t15.142 12.186v21.928q-6.523 2.895-15.142 2.895t-15.141-2.895ZM362.658 227.249v21.927q-10.622 12.187-15.142 12.187t-15.141-12.187V227.25q6.522-2.895 15.141-2.895t15.142 2.895ZM390.126 253.717h-21.928q-12.186 10.621-12.186 15.141T368.198 284h21.928q2.895-6.523 2.895-15.142t-2.895-15.141ZM304.907 253.717h21.927q12.187 10.621 12.187 15.141T326.834 284h-21.927q-2.895-6.523-2.895-15.142t2.895-15.141ZM197 384h670c6.627 0 12 5.373 12 12v197c0 6.627-5.373 12-12 12H197c-6.627 0-12-5.373-12-12V396c0-6.627 5.373-12 12-12Z"/><path fill="none" stroke="#9FAABA" stroke-linecap="square" stroke-miterlimit="10" stroke-width="2" d="M185 423h694M185 458h694M185 493h694M185 528h694M185 563h694M229.5 384.5l.5 73.5M363 386v72M316.5 384.5l.5 73.5M271.5 384.5v74M407.5 385.5l.5 72.5M497.5 385.5l.5 72.5M453.5 386.5l.5 71.5M567.5 384.5v37M250 458v35M295 458v35M295 528v35M338 458v35M338 528v35M384 458v35M317 493v35M363 493v35M408 493v35M454 493v35M498 493v35M542 493v35M589 493v35M633 493v35M677 493v35M721 493v35M764 493v35M317 563v42M362.5 563v42M275 563v42M230 563v42M272 493v35M384 528v35M431 458v35M431 528v35M475 458v35M475 528v35M520 458v35M520 528v35M565 458v35M565 528v35M656 458v35M656 528v77M700 458v35M700 528v77M744 458v35M744 528v77M788 458v35M788 528v77M612 458v35M612 528v77M588 423v35M635 423v35M679 423v35M723 423v35M768 423v35M611.5 384.5v37M655.5 384.5v37M699.5 384.5v37M743.5 384.5v37M787.5 384.5v37M832.5 386.5 833 605M543 423v35"/><g clip-path="url(#g)" transform="translate(220 345)"><path fill="none" stroke="#9FAABA" stroke-miterlimit="5" stroke-width="4" d="M10 0h20c5.523 0 10 4.477 10 10s-4.477 10-10 10H10C4.477 20 0 15.523 0 10S4.477 0 10 0Z"/></g><g clip-path="url(#g)" transform="translate(268 345)"><path fill="none" stroke="#9FAABA" stroke-miterlimit="5" stroke-width="4" d="M10 0h20c5.523 0 10 4.477 10 10s-4.477 10-10 10H10C4.477 20 0 15.523 0 10S4.477 0 10 0Z"/></g><g clip-path="url(#g)" transform="translate(316 345)"><path fill="none" stroke="#9FAABA" stroke-miterlimit="5" stroke-width="4" d="M10 0h20c5.523 0 10 4.477 10 10s-4.477 10-10 10H10C4.477 20 0 15.523 0 10S4.477 0 10 0Z"/></g><g clip-path="url(#g)" transform="translate(755 345)"><path fill="none" stroke="#9FAABA" stroke-miterlimit="5" stroke-width="4" d="M10 0h20c5.523 0 10 4.477 10 10s-4.477 10-10 10H10C4.477 20 0 15.523 0 10S4.477 0 10 0Z"/></g><g clip-path="url(#g)" transform="translate(803 345)"><path fill="none" stroke="#9FAABA" stroke-miterlimit="5" stroke-width="4" d="M10 0h20c5.523 0 10 4.477 10 10s-4.477 10-10 10H10C4.477 20 0 15.523 0 10S4.477 0 10 0Z"/></g><path fill="none" stroke="#9FAABA" stroke-linecap="square" stroke-miterlimit="10" stroke-width="2" d="m72 40 919-2M72 40l91 103M990 39l-93 104M166.5 146.5h727M67 33.5h928M67 8.5h928"/><path fill="none" stroke="#9FAABA" stroke-miterlimit="10" stroke-width="2" d="M790 147q4 10.986 0 25M272 147q-4 10.986 0 25M888.939 146.5q18.143 0 20.873 15.126Q909.812 172 902 172M172.812 146.5q-18.143 0-20.873 15.126 0 10.374 7.812 10.374"/><path fill="none" stroke="#9FAABA" stroke-linecap="square" stroke-miterlimit="10" stroke-width="2" d="M1020 18v19"/><path fill="none" stroke="#9FAABA" stroke-miterlimit="10" stroke-width="2" d="M995.5 8.5q13.569 0 18.55 2.008Q1020 13.238 1020 18"/><path fill="none" stroke="#9FAABA" stroke-linecap="square" stroke-miterlimit="10" stroke-width="2" d="m1014.5 47.5-93 99"/><path fill="none" stroke="#9FAABA" stroke-miterlimit="10" stroke-width="2" d="M921.5 146.5q-6.292 6.403-15.543 6.298M1020 37c0 4.611-3.184 8.152-5.5 10.5"/><path fill="none" stroke="#9FAABA" stroke-miterlimit="10" stroke-width="2" d="M995.5 33.5c7.339 0 13.379-.07 17.661 1.657 3.992 1.61 6.534 4.939 5.094 7.093"/><path fill="none" stroke="#9FAABA" stroke-linecap="square" stroke-miterlimit="10" stroke-width="2" d="m48.5 47.5 94 100"/><path fill="none" stroke="#9FAABA" stroke-miterlimit="10" stroke-width="2" d="M142.5 147.5q5.316 5.349 13.33 5.467"/><path fill="none" stroke="#9FAABA" stroke-linecap="square" stroke-miterlimit="10" stroke-width="2" d="M42.5 18.5v20"/><path fill="none" stroke="#9FAABA" stroke-miterlimit="10" stroke-width="2" d="M42.5 18.5c0-1.798 2.134-6.229 7.619-8.32C55.325 8.195 63.806 8.5 67 8.5M42.5 39c0 3.737 4.023 6.133 6 8.5"/><path fill="none" stroke="#9FAABA" stroke-miterlimit="10" stroke-width="2" d="M43.458 41.822c0-2.475 2.237-6.213 7.768-7.254C56.9 33.5 64.377 33.5 67 33.5"/><path fill="none" stroke="#9FAABA" stroke-linecap="square" stroke-miterlimit="10" stroke-width="2" d="m162.5 142.5 734.5.5"/><g clip-path="url(#h)" transform="translate(869 348)"><path fill="#9FAABA" d="M0 0h26v12H0z"/><path fill="none" stroke="#9FAABA" stroke-miterlimit="5" stroke-width="2" d="M3 0a3 3 0 0 1 3 3v6a3 3 0 0 1-6 0V3a3 3 0 0 1 3-3Zm10 0a3 3 0 0 1 3 3v6a3 3 0 0 1-6 0V3a3 3 0 0 1 3-3Zm10 0a3 3 0 0 1 3 3v6a3 3 0 0 1-6 0V3a3 3 0 0 1 3-3Z"/></g><g clip-path="url(#h)" transform="translate(167 348)"><path fill="#9FAABA" d="M0 0h26v12H0z"/><path fill="none" stroke="#9FAABA" stroke-miterlimit="5" stroke-width="2" d="M3 0a3 3 0 0 1 3 3v6a3 3 0 0 1-6 0V3a3 3 0 0 1 3-3Zm10 0a3 3 0 0 1 3 3v6a3 3 0 0 1-6 0V3a3 3 0 0 1 3-3Zm10 0a3 3 0 0 1 3 3v6a3 3 0 0 1-6 0V3a3 3 0 0 1 3-3Z"/></g><g clip-path="url(#i)" transform="translate(744 189)"><path fill="#9FAABA" d="M0 0h6v6H0z"/><path fill="none" stroke="#9FAABA" stroke-miterlimit="5" stroke-width="2" d="M3 6a3 3 0 1 0 0-6 3 3 0 0 0 0 6Z"/></g></g></svg>