<svg xmlns="http://www.w3.org/2000/svg" width="32" height="16" viewBox="0 8 32 16"><defs><clipPath id="a"><path d="M500 0v500H0V0Z"/></clipPath><clipPath id="b"><path d="M386.076-11C448.994-11 500 39.208 500 101.144c0 61.935-51.006 112.144-113.924 112.144H113.924C51.005 213.288 0 163.079 0 101.144S51.005-11 113.924-11ZM202.56 56h-18.84v84h61.56v-16.44h-42.72zm107.88 0H292.8l-42.72 47.28v17.64h42.24V140h18.12v-19.08h13.2v-14.88h-13.2zm-18.12 22.32v27.72h-24.24z"/></clipPath></defs><path d="M9.969 11.936h11.805v8.001H9.969z" style="fill:#000;stroke-width:1.32661"/><g clip-path="url(#a)" transform="matrix(.06413 0 0 .06413 0 -.105)"><g clip-path="url(#b)" transform="translate(-1 150)"><path fill="#fff" d="M500-11v224.288H1V-11z"/></g></g></svg>