<svg width="32" height="16" version="1.1" viewBox="0 8 32 16" xmlns="http://www.w3.org/2000/svg">
 <path d="m24.709 8.823c4.0268 0 7.2911 3.2133 7.2911 7.1772 0 3.9638-3.2644 7.1772-7.2911 7.1772h-17.418c-4.0268 0-7.2911-3.2134-7.2911-7.1772s3.2643-7.1772 7.2911-7.1772zm-9.7354 5.7779c-0.59136 0-1.0598 0.19968-1.3978 0.60672-0.35328 0.39936-0.52224 0.89088-0.52224 1.4822 0 0.66048 0.18432 1.175 0.55296 1.5514 0.3456 0.36096 0.81408 0.54528 1.4054 0.54528 0.52992 0 0.96768-0.1536 1.321-0.45312 0.27648-0.24576 0.4608-0.56064 0.55296-0.92928h-0.87552c-0.10752 0.22272-0.22272 0.384-0.35328 0.48384-0.16896 0.12288-0.384 0.18432-0.6528 0.18432-0.31488 0-0.56064-0.09984-0.7296-0.29184s-0.2688-0.47616-0.29952-0.8448h2.9722c0-0.71424-0.16128-1.2749-0.47616-1.6742-0.3456-0.44544-0.8448-0.66048-1.4976-0.66048m8.0026 0.10752h-0.87552v2.473c0 1.0675 0.47616 1.6051 1.4285 1.6051q0.73728 0 1.2442-0.62208v0.51456h0.87552v-3.9706h-0.87552v2.4269c-0.0768 0.28416-0.20736 0.50688-0.384 0.67584-0.17664 0.16128-0.36096 0.24576-0.55296 0.24576-0.3072 0-0.52224-0.0768-0.66048-0.22272-0.13824-0.1536-0.19968-0.384-0.19968-0.70656zm-15.498-1.513h-1.0522v5.4835h0.89856v-3.7786h0.03072l1.6128 3.7786h0.77568l1.6128-3.7786h0.03072v3.7786h0.89856v-5.4835h-1.0522l-1.8586 4.3008h-0.03072zm12.211 1.4054c-0.23808 0-0.45312 0.04608-0.6528 0.14592-0.192 0.09216-0.36864 0.23808-0.52224 0.4224v-0.4608h-0.87552v3.9706h0.87552v-2.3885c0.03072-0.31488 0.13824-0.56064 0.32256-0.7296 0.16128-0.1536 0.35328-0.2304 0.56832-0.2304 0.59904 0 0.89856 0.32256 0.89856 0.97536v2.3731h0.87552v-2.4499c0-1.0906-0.4992-1.6282-1.4899-1.6282m-4.6925 0.71424c0.6144 0 0.96 0.31488 1.0368 0.96h-2.0429q0.08064-0.47232 0.32256-0.71424c0.16896-0.16896 0.39168-0.24576 0.68352-0.24576" fill="#fff" stroke-width=".064"/>
</svg>
