<svg xmlns="http://www.w3.org/2000/svg" width="32" height="16" viewBox="0 8 32 16"><defs><clipPath id="a"><path d="M500 0v500H0V0Z"/></clipPath><clipPath id="b"><path d="M386.076-11C448.994-11 500 39.208 500 101.144c0 61.935-51.006 112.144-113.924 112.144H113.924C51.005 213.288 0 163.079 0 101.144S51.005-11 113.924-11ZM233.96 79.28c-9.24 0-16.56 3.12-21.84 9.48-5.52 6.24-8.16 13.92-8.16 23.16 0 10.32 2.88 18.36 8.64 24.24 5.4 5.64 12.72 8.52 21.96 8.52 8.28 0 15.12-2.4 20.64-7.08 4.32-3.84 7.2-8.76 8.64-14.52h-13.68c-1.68 3.48-3.48 6-5.52 7.56-2.64 1.92-6 2.88-10.2 2.88-4.92 0-8.76-1.56-11.4-4.56s-4.2-7.44-4.68-13.2h46.44c0-11.16-2.52-19.92-7.44-26.16-5.4-6.96-13.2-10.32-23.4-10.32M359 80.96h-13.68v38.64c0 16.68 7.44 25.08 22.32 25.08q11.52 0 19.44-9.72V143h13.68V80.96h-13.68v37.92c-1.2 4.44-3.24 7.92-6 10.56-2.76 2.52-5.64 3.84-8.64 3.84-4.8 0-8.16-1.2-10.32-3.48-2.16-2.4-3.12-6-3.12-11.04zM116.84 57.32H100.4V143h14.04V83.96h.48l25.2 59.04h12.12l25.2-59.04h.48V143h14.04V57.32h-16.44l-29.04 67.2H146Zm190.8 21.96c-3.72 0-7.08.72-10.2 2.28-3 1.44-5.76 3.72-8.16 6.6v-7.2H275.6V143h13.68v-37.32c.48-4.92 2.16-8.76 5.04-11.4 2.52-2.4 5.52-3.6 8.88-3.6 9.36 0 14.04 5.04 14.04 15.24V143h13.68v-38.28c0-17.04-7.8-25.44-23.28-25.44m-73.32 11.16c9.6 0 15 4.92 16.2 15H218.6q1.26-7.38 5.04-11.16c2.64-2.64 6.12-3.84 10.68-3.84"/></clipPath></defs><path d="M4.853 11.936h21.642v8.263H4.853z" style="fill:#000;stroke-width:1.32661"/><g clip-path="url(#a)" transform="matrix(.064 0 0 .064 0 -.073)"><g clip-path="url(#b)" transform="translate(0 150)"><path fill="#fff" d="M500 213.288H0V-11h500z"/></g></g></svg>