<?xml version="1.0" encoding="UTF-8"?><svg version="1.1" width="500px" height="500px" viewBox="0 0 500.0 500.0" xmlns="http://www.w3.org/2000/svg" xmlns:xlink="http://www.w3.org/1999/xlink"><defs><clipPath id="i0"><path d="M500,0 L500,500 L0,500 L0,0 L500,0 Z"></path></clipPath><clipPath id="i1"><path d="M386.07614,-11 C448.993716,-11 500,39.2084596 500,101.143975 C500,163.07949 448.993716,213.28795 386.07614,213.28795 L113.92402,213.28795 C51.0054829,213.28795 0,163.07949 0,101.143975 C0,39.2084596 51.0054829,-11 113.92402,-11 L386.07614,-11 Z M218.12,57.12 L173.72,57.12 L173.72,141 L192.56,141 L192.56,109.92 L211.52,109.92 C221.48,109.92 226.04,114.48 227.24,124.68 L229.16,141 L249.44,141 L246.32,121.08 C244.52,109.56 239.12,103.44 231.08,101.52 C239.24,99.12 247.4,92.4 247.4,81 C247.4,66.12 236.72,57.12 218.12,57.12 Z M317.96,57 L300.32,57 L257.6,104.28 L257.6,121.92 L299.84,121.92 L299.84,141 L317.96,141 L317.96,121.92 L331.16,121.92 L331.16,107.04 L317.96,107.04 L317.96,57 Z M299.84,79.32 L299.84,107.04 L275.6,107.04 L299.84,79.32 Z M214.04,73.08 C222.2,73.08 227.72,75.84 227.72,82.92 C227.72,90.6 222.08,93.96 213.32,93.96 L192.56,93.96 L192.56,73.08 L214.04,73.08 Z"></path></clipPath></defs><g clip-path="url(#i0)"><g transform="translate(-1.0 150.0)"><g clip-path="url(#i1)"><polygon points="1,-11 500,-11 500,213.28795 1,213.28795 1,-11" stroke="none" fill="#FFFFFF"></polygon></g></g></g></svg>