<svg xmlns="http://www.w3.org/2000/svg" width="32" height="16" viewBox="0 8 32 16"><defs><clipPath id="a"><path d="M500 0v500H0V0Z"/></clipPath><clipPath id="b"><path d="M386.076-11C448.994-11 500 39.208 500 101.144c0 61.935-51.006 112.144-113.924 112.144H113.924C51.005 213.288 0 163.079 0 101.144S51.005-11 113.924-11ZM218.12 57.12h-44.4V141h18.84v-31.08h18.96c9.96 0 14.52 4.56 15.72 14.76l1.92 16.32h20.28l-3.12-19.92c-1.8-11.52-7.2-17.64-15.24-19.56 8.16-2.4 16.32-9.12 16.32-20.52 0-14.88-10.68-23.88-29.28-23.88m99.84-.12h-17.64l-42.72 47.28v17.64h42.24V141h18.12v-19.08h13.2v-14.88h-13.2zm-18.12 22.32v27.72H275.6Zm-85.8-6.24c8.16 0 13.68 2.76 13.68 9.84 0 7.68-5.64 11.04-14.4 11.04h-20.76V73.08Z"/></clipPath></defs><path d="M8.919 11.542h15.346v9.575H8.919z" style="fill:#000;stroke-width:1.32661"/><g clip-path="url(#a)" transform="matrix(.06413 0 0 .06413 0 -.105)"><g clip-path="url(#b)" transform="translate(-1 150)"><path fill="#fff" d="M500 213.288H1V-11h499z"/></g></g></svg>