<svg width="32" height="16" version="1.1" viewBox="0 8 32 16" xmlns="http://www.w3.org/2000/svg">
 <path d="m24.695 8.8091c4.0349 0 7.3059 3.2198 7.3059 7.1918 0 3.9719-3.271 7.1918-7.3059 7.1918h-17.453c-4.035 0-7.3059-3.2199-7.3059-7.1918 0-3.9719 3.271-7.1918 7.3059-7.1918zm-10.771 4.3685h-2.8474v5.3792h1.2082v-1.9932h1.2159c0.63873 0 0.93117 0.29243 1.0081 0.94656l0.12313 1.0466h1.3006l-0.20008-1.2775c-0.11543-0.73878-0.46174-1.1313-0.97734-1.2544 0.5233-0.15391 1.0466-0.58487 1.0466-1.3159 0-0.95425-0.68491-1.5314-1.8777-1.5314m6.4027-0.0077h-1.1313l-2.7396 3.0321v1.1313h2.7089v1.2236h1.162v-1.2236h0.84652v-0.95426h-0.84652zm-1.162 1.4314v1.7777h-1.5545zm-5.5024-0.40017c0.5233 0 0.8773 0.177 0.8773 0.63104 0 0.49252-0.36169 0.708-0.92347 0.708h-1.3313v-1.339z" fill="#fff" stroke-width=".06413"/>
</svg>
