<svg width="32" height="16" version="1.1" viewBox="0 8 32 16" xmlns="http://www.w3.org/2000/svg">
 <path d="m24.709 8.823c4.0268 0 7.2911 3.2133 7.2911 7.1772 0 3.9638-3.2644 7.1772-7.2911 7.1772h-17.418c-4.0268 0-7.2911-3.2134-7.2911-7.1772s3.2643-7.1772 7.2911-7.1772zm-17.628 4.265c-0.59136 0-1.0752 0.13056-1.4592 0.39936-0.41472 0.27648-0.6144 0.66048-0.6144 1.1443s0.20736 0.85248 0.62976 1.1059c0.16128 0.09216 0.58368 0.24576 1.2595 0.4608 0.60672 0.18432 0.96 0.3072 1.0675 0.36096 0.33792 0.16896 0.51456 0.39936 0.51456 0.6912 0 0.2304-0.12288 0.40704-0.35328 0.54528-0.2304 0.13056-0.55296 0.19968-0.95232 0.19968-0.45312 0-0.78336-0.08448-0.9984-0.23808-0.23808-0.17664-0.384-0.47616-0.44544-0.89088h-0.89088c0.0384 0.69888 0.29184 1.2058 0.75264 1.5283 0.37632 0.26112 0.90624 0.39168 1.5821 0.39168 0.69888 0 1.2442-0.14592 1.6282-0.4224 0.384-0.28416 0.576-0.67584 0.576-1.1674 0-0.50688-0.23808-0.89856-0.71424-1.1827-0.21504-0.12288-0.6912-0.3072-1.4362-0.5376-0.50688-0.16128-0.82176-0.27648-0.93696-0.33792-0.26112-0.13824-0.384-0.33024-0.384-0.56064 0-0.26112 0.10752-0.45312 0.33792-0.56832 0.18432-0.09984 0.44544-0.14592 0.79104-0.14592 0.39936 0 0.70656 0.06912 0.90624 0.22272 0.19968 0.14592 0.3456 0.39168 0.4224 0.7296h0.89088c-0.05376-0.59904-0.27648-1.0445-0.66048-1.3286-0.36096-0.2688-0.86784-0.39936-1.513-0.39936m4.6771 1.513c-0.59136 0-1.0598 0.19968-1.3978 0.60672-0.35328 0.39936-0.52224 0.89088-0.52224 1.4822 0 0.66048 0.18432 1.175 0.55296 1.5514 0.3456 0.36096 0.81408 0.54528 1.4054 0.54528 0.52992 0 0.96768-0.1536 1.321-0.45312 0.27648-0.24576 0.4608-0.56064 0.55296-0.92928h-0.87552c-0.10752 0.22272-0.22272 0.384-0.35328 0.48384-0.16896 0.12288-0.384 0.18432-0.6528 0.18432-0.31488 0-0.56064-0.09984-0.7296-0.29184s-0.2688-0.47616-0.29952-0.8448h2.9722c0-0.71424-0.16128-1.2749-0.47616-1.6742-0.3456-0.44544-0.8448-0.66048-1.4976-0.66048m6.3053 0c-0.59136 0-1.0598 0.19968-1.3978 0.60672-0.35328 0.39936-0.52224 0.89088-0.52224 1.4822 0 0.66048 0.18432 1.175 0.55296 1.5514 0.3456 0.36096 0.81408 0.54528 1.4054 0.54528 0.52992 0 0.96768-0.1536 1.321-0.45312 0.27648-0.24576 0.4608-0.56064 0.55296-0.92928h-0.87552c-0.10752 0.22272-0.22272 0.384-0.35328 0.48384-0.16896 0.12288-0.384 0.18432-0.6528 0.18432-0.31488 0-0.56064-0.09984-0.7296-0.29184s-0.2688-0.47616-0.29952-0.8448h2.9722c0-0.71424-0.16128-1.2749-0.47616-1.6742-0.3456-0.44544-0.8448-0.66048-1.4976-0.66048m4.4467 0q-0.93312 0-1.4515 0.62208c-0.32256 0.37632-0.48384 0.86784-0.48384 1.4669 0 0.6144 0.16128 1.1136 0.49152 1.4976q0.50688 0.59904 1.4285 0.59904c0.51456 0 0.92928-0.13056 1.2365-0.384 0.31488-0.26112 0.52224-0.66048 0.6144-1.1981h-0.86784c-0.06912 0.576-0.39168 0.86784-0.97536 0.86784-0.33792 0-0.59136-0.12288-0.76032-0.36096-0.18432-0.24576-0.2688-0.59136-0.2688-1.0291 0-0.43008 0.09216-0.768 0.27648-1.0061 0.18432-0.24576 0.43776-0.36096 0.76032-0.36096 0.26112 0 0.47616 0.06144 0.63744 0.18432 0.1536 0.12288 0.26112 0.3072 0.31488 0.56064h0.86784c-0.0768-0.4992-0.27648-0.86784-0.59136-1.1136-0.3072-0.2304-0.71424-0.3456-1.2288-0.3456m-7.1347-1.513h-0.87552v5.591h0.87552zm10.906 0.33792-0.87552 0.36096v0.9216h-0.71424v0.72192h0.71424v2.2426c0 0.32256 0.0768 0.56064 0.2304 0.7296q0.24192 0.27648 0.76032 0.27648h0.66816v-0.72192h-0.52224c-0.09216 0-0.1536-0.02304-0.19968-0.06912-0.04608-0.05376-0.06144-0.12288-0.06144-0.21504v-2.2426h0.8832v-0.72192h-0.8832zm-14.5 1.8893c0.6144 0 0.96 0.31488 1.0368 0.96h-2.0429q0.08064-0.47232 0.32256-0.71424c0.16896-0.16896 0.39168-0.24576 0.68352-0.24576m6.3053 0c0.6144 0 0.96 0.31488 1.0368 0.96h-2.0429q0.08064-0.47232 0.32256-0.71424c0.16896-0.16896 0.39168-0.24576 0.68352-0.24576" fill="#fff" stroke-width=".064"/>
</svg>
