<?xml version="1.0" encoding="UTF-8"?><svg version="1.1" width="500px" height="500px" viewBox="0 0 500.0 500.0" xmlns="http://www.w3.org/2000/svg" xmlns:xlink="http://www.w3.org/1999/xlink"><defs><clipPath id="i0"><path d="M500,0 L500,500 L0,500 L0,0 L500,0 Z"></path></clipPath><clipPath id="i1"><path d="M386.07614,-11 C448.993716,-11 500,39.2084596 500,101.143975 C500,163.07949 448.993716,213.28795 386.07614,213.28795 L113.92402,213.28795 C51.0054829,213.28795 0,163.07949 0,101.143975 C0,39.2084596 51.0054829,-11 113.92402,-11 L386.07614,-11 Z M110.64,55.64 C101.4,55.64 93.84,57.68 87.84,61.88 C81.36,66.2 78.24,72.2 78.24,79.76 C78.24,87.32 81.48,93.08 88.08,97.04 C90.6,98.48 97.2,100.88 107.76,104.24 C117.24,107.12 122.76,109.04 124.44,109.88 C129.72,112.52 132.48,116.12 132.48,120.68 C132.48,124.28 130.56,127.04 126.96,129.2 C123.36,131.24 118.32,132.32 112.08,132.32 C105,132.32 99.84,131 96.48,128.6 C92.76,125.84 90.48,121.16 89.52,114.68 L75.6,114.68 C76.2,125.6 80.16,133.52 87.36,138.56 C93.24,142.64 101.52,144.68 112.08,144.68 C123,144.68 131.52,142.4 137.52,138.08 C143.52,133.64 146.52,127.52 146.52,119.84 C146.52,111.92 142.8,105.8 135.36,101.36 C132,99.44 124.56,96.56 112.92,92.96 C105,90.44 100.08,88.64 98.28,87.68 C94.2,85.52 92.28,82.52 92.28,78.92 C92.28,74.84 93.96,71.84 97.56,70.04 C100.44,68.48 104.52,67.76 109.92,67.76 C116.16,67.76 120.96,68.84 124.08,71.24 C127.2,73.52 129.48,77.36 130.68,82.64 L144.6,82.64 C143.76,73.28 140.28,66.32 134.28,61.88 C128.64,57.68 120.72,55.64 110.64,55.64 Z M183.72,79.28 C174.48,79.28 167.16,82.4 161.88,88.76 C156.36,95 153.72,102.68 153.72,111.92 C153.72,122.24 156.6,130.28 162.36,136.16 C167.76,141.8 175.08,144.68 184.32,144.68 C192.6,144.68 199.44,142.28 204.96,137.6 C209.28,133.76 212.16,128.84 213.6,123.08 L199.92,123.08 C198.24,126.56 196.44,129.08 194.4,130.64 C191.76,132.56 188.4,133.52 184.2,133.52 C179.28,133.52 175.44,131.96 172.8,128.96 C170.16,125.96 168.6,121.52 168.12,115.76 L214.56,115.76 C214.56,104.6 212.04,95.84 207.12,89.6 C201.72,82.64 193.92,79.28 183.72,79.28 Z M282.24,79.28 C273,79.28 265.68,82.4 260.4,88.76 C254.88,95 252.24,102.68 252.24,111.92 C252.24,122.24 255.12,130.28 260.88,136.16 C266.28,141.8 273.6,144.68 282.84,144.68 C291.12,144.68 297.96,142.28 303.48,137.6 C307.8,133.76 310.68,128.84 312.12,123.08 L298.44,123.08 C296.76,126.56 294.96,129.08 292.92,130.64 C290.28,132.56 286.92,133.52 282.72,133.52 C277.8,133.52 273.96,131.96 271.32,128.96 C268.68,125.96 267.12,121.52 266.64,115.76 L313.08,115.76 C313.08,104.6 310.56,95.84 305.64,89.6 C300.24,82.64 292.44,79.28 282.24,79.28 Z M351.72,79.28 C342,79.28 334.44,82.52 329.04,89 C324,94.88 321.48,102.56 321.48,111.92 C321.48,121.52 324,129.32 329.16,135.32 C334.44,141.56 341.88,144.68 351.48,144.68 C359.52,144.68 366,142.64 370.8,138.68 C375.72,134.6 378.96,128.36 380.4,119.96 L366.84,119.96 C365.76,128.96 360.72,133.52 351.6,133.52 C346.32,133.52 342.36,131.6 339.72,127.88 C336.84,124.04 335.52,118.64 335.52,111.8 C335.52,105.08 336.96,99.8 339.84,96.08 C342.72,92.24 346.68,90.44 351.72,90.44 C355.8,90.44 359.16,91.4 361.68,93.32 C364.08,95.24 365.76,98.12 366.6,102.08 L380.16,102.08 C378.96,94.28 375.84,88.52 370.92,84.68 C366.12,81.08 359.76,79.28 351.72,79.28 Z M240.24,55.64 L226.56,55.64 L226.56,143 L240.24,143 L240.24,55.64 Z M410.64,60.92 L396.96,66.56 L396.96,80.96 L385.8,80.96 L385.8,92.24 L396.96,92.24 L396.96,127.28 C396.96,132.32 398.16,136.04 400.56,138.68 C403.08,141.56 407.04,143 412.44,143 L422.88,143 L422.88,131.72 L414.72,131.72 C413.28,131.72 412.32,131.36 411.6,130.64 C410.88,129.8 410.64,128.72 410.64,127.28 L410.64,92.24 L424.44,92.24 L424.44,80.96 L410.64,80.96 L410.64,60.92 Z M184.08,90.44 C193.68,90.44 199.08,95.36 200.28,105.44 L168.36,105.44 C169.2,100.52 170.88,96.8 173.4,94.28 C176.04,91.64 179.52,90.44 184.08,90.44 Z M282.6,90.44 C292.2,90.44 297.6,95.36 298.8,105.44 L266.88,105.44 C267.72,100.52 269.4,96.8 271.92,94.28 C274.56,91.64 278.04,90.44 282.6,90.44 Z"></path></clipPath></defs><g clip-path="url(#i0)"><g transform="translate(0.0 150.0)"><g clip-path="url(#i1)"><polygon points="0,-11 500,-11 500,213.28795 0,213.28795 0,-11" stroke="none" fill="#FFFFFF"></polygon></g></g></g></svg>