<svg xmlns="http://www.w3.org/2000/svg" width="32" height="32"><defs><clipPath id="a"><path d="M500 0v500H0V0Z"/></clipPath><clipPath id="b"><path d="M386.076-11C448.994-11 500 39.208 500 101.144c0 61.935-51.006 112.144-113.924 112.144H113.924C51.005 213.288 0 163.079 0 101.144S51.005-11 113.924-11ZM110.64 55.64c-9.24 0-16.8 2.04-22.8 6.24-6.48 4.32-9.6 10.32-9.6 17.88s3.24 13.32 9.84 17.28c2.52 1.44 9.12 3.84 19.68 7.2 9.48 2.88 15 4.8 16.68 5.64 5.28 2.64 8.04 6.24 8.04 10.8 0 3.6-1.92 6.36-5.52 8.52-3.6 2.04-8.64 3.12-14.88 3.12-7.08 0-12.24-1.32-15.6-3.72-3.72-2.76-6-7.44-6.96-13.92H75.6c.6 10.92 4.56 18.84 11.76 23.88 5.88 4.08 14.16 6.12 24.72 6.12 10.92 0 19.44-2.28 25.44-6.6 6-4.44 9-10.56 9-18.24 0-7.92-3.72-14.04-11.16-18.48-3.36-1.92-10.8-4.8-22.44-8.4-7.92-2.52-12.84-4.32-14.64-5.28-4.08-2.16-6-5.16-6-8.76 0-4.08 1.68-7.08 5.28-8.88 2.88-1.56 6.96-2.28 12.36-2.28 6.24 0 11.04 1.08 14.16 3.48 3.12 2.28 5.4 6.12 6.6 11.4h13.92c-.84-9.36-4.32-16.32-10.32-20.76-5.64-4.2-13.56-6.24-23.64-6.24m73.08 23.64c-9.24 0-16.56 3.12-21.84 9.48-5.52 6.24-8.16 13.92-8.16 23.16 0 10.32 2.88 18.36 8.64 24.24 5.4 5.64 12.72 8.52 21.96 8.52 8.28 0 15.12-2.4 20.64-7.08 4.32-3.84 7.2-8.76 8.64-14.52h-13.68c-1.68 3.48-3.48 6-5.52 7.56-2.64 1.92-6 2.88-10.2 2.88-4.92 0-8.76-1.56-11.4-4.56s-4.2-7.44-4.68-13.2h46.44c0-11.16-2.52-19.92-7.44-26.16-5.4-6.96-13.2-10.32-23.4-10.32m98.52 0c-9.24 0-16.56 3.12-21.84 9.48-5.52 6.24-8.16 13.92-8.16 23.16 0 10.32 2.88 18.36 8.64 24.24 5.4 5.64 12.72 8.52 21.96 8.52 8.28 0 15.12-2.4 20.64-7.08 4.32-3.84 7.2-8.76 8.64-14.52h-13.68c-1.68 3.48-3.48 6-5.52 7.56-2.64 1.92-6 2.88-10.2 2.88-4.92 0-8.76-1.56-11.4-4.56s-4.2-7.44-4.68-13.2h46.44c0-11.16-2.52-19.92-7.44-26.16-5.4-6.96-13.2-10.32-23.4-10.32m69.48 0q-14.58 0-22.68 9.72c-5.04 5.88-7.56 13.56-7.56 22.92 0 9.6 2.52 17.4 7.68 23.4q7.92 9.36 22.32 9.36c8.04 0 14.52-2.04 19.32-6 4.92-4.08 8.16-10.32 9.6-18.72h-13.56c-1.08 9-6.12 13.56-15.24 13.56-5.28 0-9.24-1.92-11.88-5.64-2.88-3.84-4.2-9.24-4.2-16.08 0-6.72 1.44-12 4.32-15.72 2.88-3.84 6.84-5.64 11.88-5.64 4.08 0 7.44.96 9.96 2.88 2.4 1.92 4.08 4.8 4.92 8.76h13.56c-1.2-7.8-4.32-13.56-9.24-17.4-4.8-3.6-11.16-5.4-19.2-5.4M240.24 55.64h-13.68V143h13.68zm170.4 5.28-13.68 5.64v14.4H385.8v11.28h11.16v35.04c0 5.04 1.2 8.76 3.6 11.4q3.78 4.32 11.88 4.32h10.44v-11.28h-8.16c-1.44 0-2.4-.36-3.12-1.08-.72-.84-.96-1.92-.96-3.36V92.24h13.8V80.96h-13.8zM184.08 90.44c9.6 0 15 4.92 16.2 15h-31.92q1.26-7.38 5.04-11.16c2.64-2.64 6.12-3.84 10.68-3.84m98.52 0c9.6 0 15 4.92 16.2 15h-31.92q1.26-7.38 5.04-11.16c2.64-2.64 6.12-3.84 10.68-3.84"/></clipPath></defs><path d="M4.328 11.346h24.331v9.05H4.328z" style="fill:#000;stroke-width:1.32661"/><g clip-path="url(#a)" transform="matrix(.064 0 0 .064 0 -.073)"><g clip-path="url(#b)" transform="translate(0 150)"><path fill="#fff" d="M500 213.288H0V-11h500z"/></g></g></svg>