<svg width="32" height="16" version="1.1" viewBox="0 8 32 16" xmlns="http://www.w3.org/2000/svg">
 <path d="m24.695 8.8091c4.0349 0 7.3059 3.2198 7.3059 7.1918 0 3.9719-3.271 7.1918-7.3059 7.1918h-17.453c-4.035 0-7.3059-3.2199-7.3059-7.1918 0-3.9719 3.271-7.1918 7.3059-7.1918zm-15.163 4.2736c-0.59256 0-1.0774 0.13082-1.4622 0.40017-0.41556 0.27704-0.61565 0.66182-0.61565 1.1466s0.20778 0.85421 0.63104 1.1082c0.16161 0.09235 0.58487 0.24626 1.2621 0.46174 0.60795 0.1847 0.96195 0.30782 1.0697 0.36169 0.33861 0.1693 0.5156 0.40017 0.5156 0.6926 0 0.23087-0.12313 0.40787-0.354 0.54639-0.23087 0.13082-0.55408 0.20009-0.95425 0.20009-0.45404 0-0.78495-0.08465-1.0004-0.23856-0.23856-0.177-0.38478-0.47713-0.44634-0.89269h-0.89269c0.038478 0.7003 0.29243 1.2082 0.75417 1.5314 0.37708 0.26165 0.90808 0.39248 1.5853 0.39248 0.7003 0 1.2467-0.14622 1.6315-0.42326 0.38478-0.28474 0.57717-0.67721 0.57717-1.1697 0-0.50791-0.23856-0.90038-0.71569-1.1851-0.21548-0.12313-0.6926-0.30782-1.4391-0.53869-0.50791-0.16161-0.82343-0.27704-0.93886-0.33861-0.26165-0.13852-0.38478-0.33091-0.38478-0.56178 0-0.26165 0.10774-0.45404 0.33861-0.56948 0.18469-0.10004 0.44634-0.14622 0.79265-0.14622 0.40017 0 0.708 0.06926 0.90808 0.22317 0.20009 0.14622 0.3463 0.39248 0.42326 0.73108h0.89269c-0.05387-0.60026-0.27704-1.0466-0.66182-1.3313-0.36169-0.26935-0.8696-0.40017-1.516-0.40017m7.5879 1.516c-0.50791 0-0.90808 0.08465-1.2005 0.26935-0.3463 0.20009-0.56178 0.5233-0.64643 0.96195l0.8696 0.06926c0.04617-0.20778 0.16161-0.36169 0.33091-0.46174 0.14622-0.09235 0.33861-0.13082 0.58487-0.13082 0.56947 0 0.85421 0.25396 0.85421 0.77726v0.15391l-0.8696 0.02309q-0.8773 0.02309-1.3621 0.36939c-0.354 0.23856-0.5233 0.58486-0.5233 1.0312 0 0.33091 0.12313 0.60026 0.36939 0.81573 0.23856 0.20778 0.56178 0.31552 0.97734 0.31552 0.3463 0 0.64643-0.06156 0.90038-0.177 0.22317-0.10774 0.41556-0.25396 0.56947-0.45404v0.5233h0.81573v-2.5395q0-0.72723-0.36939-1.1082c-0.27704-0.29244-0.71569-0.43865-1.3006-0.43865m-3.3476-1.1774-0.8773 0.36169v0.92347h-0.71569v0.72339h0.71569v2.2471c0 0.32322 0.07696 0.56178 0.23087 0.73108q0.24241 0.27704 0.76186 0.27704h0.66952v-0.72339h-0.5233c-0.09235 0-0.15391-0.02309-0.20008-0.06926-0.04617-0.05387-0.06156-0.12313-0.06156-0.21548v-2.2471h0.88499v-0.72339h-0.88499zm7.8187 1.1774c-0.24626 0-0.45404 0.06926-0.63104 0.21548-0.14622 0.10774-0.26935 0.26165-0.37708 0.46174v-0.56947h-0.8696v3.9786h0.8696v-2.1086c0-0.33861 0.10004-0.60795 0.31552-0.81573 0.1847-0.18469 0.39248-0.26935 0.62334-0.26935 0.18469 0 0.36939 0.02309 0.56947 0.08465v-0.8773c-0.13852-0.06926-0.30782-0.10004-0.50021-0.10004m2.2471-1.1774-0.8773 0.36169v0.92347h-0.71569v0.72339h0.71569v2.2471c0 0.32322 0.07696 0.56178 0.23087 0.73108q0.24241 0.27704 0.76186 0.27704h0.66952v-0.72339h-0.5233c-0.09235 0-0.15391-0.02309-0.20009-0.06926-0.04617-0.05387-0.06156-0.12313-0.06156-0.21548v-2.2471h0.88499v-0.72339h-0.885zm-5.9256 3.4476v0.20009c0 0.30782-0.12313 0.56178-0.354 0.76186-0.23087 0.19239-0.5156 0.29243-0.85421 0.29243-0.19239 0-0.3463-0.05387-0.46943-0.14622-0.12313-0.09235-0.177-0.20778-0.177-0.3463 0-0.47713 0.3463-0.72339 1.0466-0.73878z" fill="#fff" stroke-width=".06413"/>
</svg>
