<svg xmlns="http://www.w3.org/2000/svg" width="32" height="32"><defs><clipPath id="a"><path d="M500 0v500H0V0Z"/></clipPath><clipPath id="b"><path d="M386.076-11C448.994-11 500 39.208 500 101.144c0 61.935-51.006 112.144-113.924 112.144H113.924C51.005 213.288 0 163.079 0 101.144S51.005-11 113.924-11ZM149.64 55.64c-9.24 0-16.8 2.04-22.8 6.24-6.48 4.32-9.6 10.32-9.6 17.88s3.24 13.32 9.84 17.28c2.52 1.44 9.12 3.84 19.68 7.2 9.48 2.88 15 4.8 16.68 5.64 5.28 2.64 8.04 6.24 8.04 10.8 0 3.6-1.92 6.36-5.52 8.52-3.6 2.04-8.64 3.12-14.88 3.12-7.08 0-12.24-1.32-15.6-3.72-3.72-2.76-6-7.44-6.96-13.92H114.6c.6 10.92 4.56 18.84 11.76 23.88 5.88 4.08 14.16 6.12 24.72 6.12 10.92 0 19.44-2.28 25.44-6.6 6-4.44 9-10.56 9-18.24 0-7.92-3.72-14.04-11.16-18.48-3.36-1.92-10.8-4.8-22.44-8.4-7.92-2.52-12.84-4.32-14.64-5.28-4.08-2.16-6-5.16-6-8.76 0-4.08 1.68-7.08 5.28-8.88 2.88-1.56 6.96-2.28 12.36-2.28 6.24 0 11.04 1.08 14.16 3.48 3.12 2.28 5.4 6.12 6.6 11.4h13.92c-.84-9.36-4.32-16.32-10.32-20.76-5.64-4.2-13.56-6.24-23.64-6.24m118.32 23.64c-7.92 0-14.16 1.32-18.72 4.2-5.4 3.12-8.76 8.16-10.08 15l13.56 1.08c.72-3.24 2.52-5.64 5.16-7.2 2.28-1.44 5.28-2.04 9.12-2.04 8.88 0 13.32 3.96 13.32 12.12v2.4l-13.56.36q-13.68.36-21.24 5.76c-5.52 3.72-8.16 9.12-8.16 16.08 0 5.16 1.92 9.36 5.76 12.72 3.72 3.24 8.76 4.92 15.24 4.92 5.4 0 10.08-.96 14.04-2.76 3.48-1.68 6.48-3.96 8.88-7.08V143H294v-39.6q0-11.34-5.76-17.28c-4.32-4.56-11.16-6.84-20.28-6.84m-52.2-18.36-13.68 5.64v14.4h-11.16v11.28h11.16v35.04c0 5.04 1.2 8.76 3.6 11.4q3.78 4.32 11.88 4.32H228v-11.28h-8.16c-1.44 0-2.4-.36-3.12-1.08-.72-.84-.96-1.92-.96-3.36V92.24h13.8V80.96h-13.8zm121.92 18.36c-3.84 0-7.08 1.08-9.84 3.36-2.28 1.68-4.2 4.08-5.88 7.2v-8.88H308.4V143h13.56v-32.88c0-5.28 1.56-9.48 4.92-12.72 2.88-2.88 6.12-4.2 9.72-4.2 2.88 0 5.76.36 8.88 1.32V80.84c-2.16-1.08-4.8-1.56-7.8-1.56m35.04-18.36-13.68 5.64v14.4h-11.16v11.28h11.16v35.04c0 5.04 1.2 8.76 3.6 11.4q3.78 4.32 11.88 4.32h10.44v-11.28h-8.16c-1.44 0-2.4-.36-3.12-1.08-.72-.84-.96-1.92-.96-3.36V92.24h13.8V80.96h-13.8zm-92.4 53.76v3.12c0 4.8-1.92 8.76-5.52 11.88-3.6 3-8.04 4.56-13.32 4.56-3 0-5.4-.84-7.32-2.28s-2.76-3.24-2.76-5.4c0-7.44 5.4-11.28 16.32-11.52z"/></clipPath></defs><path d="M6.165 12.133h20.593v7.87H6.165z" style="fill:#000;stroke-width:1.32661"/><g clip-path="url(#a)" transform="matrix(.06413 0 0 .06413 0 -.105)"><g clip-path="url(#b)" transform="translate(-1 150)"><path fill="#fff" d="M500-11v224.288H1V-11z"/></g></g></svg>