<svg width="1453.8" height="586.42" version="1.1" viewBox="0 0 1453.8 586.42" xml:space="preserve" xmlns="http://www.w3.org/2000/svg" xmlns:xlink="http://www.w3.org/1999/xlink"><g fill="none" stroke="#899099"><g stroke-linejoin="bevel" stroke-miterlimit="22.926"><g stroke-width="1.9935"><path d="m37.484 182.4 4.9179 0.0362"/><path d="m160.13 248.15c35.302-22.842 46.429-69.394 25.266-105.72"/><path d="m159.11 246.57c34.459-22.296 45.314-67.733 24.659-103.2"/><path d="m188.48 182.04c0-39.282-31.842-71.124-71.124-71.124-39.281 0-71.124 31.842-71.124 71.124 0 39.282 31.843 71.124 71.124 71.124 39.282 0 71.124-31.842 71.124-71.124z"/><path d="m187.73 182.04c0-38.869-31.509-70.369-70.368-70.369-38.869 0-70.378 31.5-70.378 70.369s31.509 70.368 70.378 70.368c38.859 0 70.368-31.499 70.368-70.368z"/><path d="m187.68 182.04c0-38.833-31.483-70.316-70.316-70.316-38.833 0-70.316 31.483-70.316 70.316s31.483 70.316 70.316 70.316c38.833 0 70.316-31.483 70.316-70.316z"/><path d="m187.01 182.04c0-38.464-31.184-69.649-69.648-69.649-38.465 0-69.649 31.184-69.649 69.649 0 38.464 31.184 69.648 69.649 69.648 38.464 0 69.648-31.184 69.648-69.648z"/><path d="m186.95 182.04c0-38.429-31.15-69.587-69.586-69.587-38.43 0-69.588 31.159-69.588 69.587 0 38.428 31.158 69.586 69.588 69.586 38.429 0 69.586-31.158 69.586-69.586z"/><path d="m185.42 182.04c0-37.585-30.473-68.059-68.059-68.059-37.587 0-68.059 30.474-68.059 68.059s30.473 68.059 68.059 68.059c37.585 0 68.059-30.473 68.059-68.059z"/><path d="m176.82 182.04c0-32.836-26.617-59.462-59.461-59.462-32.836 0-59.463 26.626-59.463 59.462s26.627 59.461 59.463 59.461c32.844 0 59.461-26.625 59.461-59.461z"/><path d="m165.37 182.04c0-26.512-21.499-48.01-48.01-48.01-26.512 0-48.001 21.498-48.001 48.01 0 26.512 21.489 48.01 48.001 48.01 26.512 0 48.01-21.499 48.01-48.01z"/><path d="m163.13 182.04c0-25.284-20.497-45.771-45.771-45.771-25.283 0-45.78 20.487-45.78 45.771 0 25.284 20.497 45.771 45.78 45.771 25.274 0 45.771-20.487 45.771-45.771z"/><path d="m160.01 182.04c0-23.562-19.1-42.654-42.654-42.654-23.561 0-42.653 19.092-42.653 42.654 0 23.562 19.092 42.654 42.653 42.654 23.554 0 42.654-19.092 42.654-42.654z"/><path d="m157.19 182.04c0-21.999-17.836-39.835-39.835-39.835-21.998 0-39.834 17.836-39.834 39.835 0 21.999 17.836 39.835 39.834 39.835 21.999 0 39.835-17.837 39.835-39.835z"/><path d="m160.13 248.15c-5.9098 3.8288-12.373 6.8759-19.11 9.0105-6.7351 2.1346-13.752 3.3546-20.802 3.6442-7.0529 0.28175-14.14-0.37696-21.025-1.9501-6.8848-1.581-13.559-4.0747-19.785-7.4114-6.2264-3.3289-12.014-7.4909-17.151-12.339-5.1373-4.8563-9.6249-10.397-13.304-16.43-3.6709-6.0328-6.5424-12.568-8.4745-19.364-1.932-6.7965-2.9331-13.867-3.0033-20.909"/><path d="m37.484 182.4c-0.07023-8.6157 1.3085-17.301 4.0396-25.512 2.7398-8.219 6.8323-15.956 12.084-22.832 5.2516-6.8676 11.662-12.865 18.837-17.66 3.5917-2.4062 7.3855-4.5139 11.32-6.2967 3.9341-1.7827 8.0178-3.2493 12.198-4.3646 8.3428-2.2394 17.081-3.1087 25.731-2.5644 8.6494 0.54463 17.222 2.5118 25.22 5.7786 4.0133 1.6421 7.8777 3.618 11.566 5.8838 3.68 2.2746 7.1755 4.8477 10.443 7.6841 3.2674 2.8367 6.3046 5.9454 9.0621 9.2825 2.7575 3.3283 5.2432 6.8938 7.4115 10.617"/><path d="m42.399 182.43c0.0615-8.2031 1.4315-16.44 4.0045-24.272 2.5817-7.844 6.3669-15.263 11.241-21.894 4.8915-6.6479 10.872-12.514 17.651-17.239 6.7971-4.7421 14.393-8.3428 22.367-10.617 8.0003-2.2744 16.387-3.2054 24.695-2.7488 8.3261 0.45667 16.581 2.3186 24.3 5.4536 7.727 3.1352 14.928 7.5611 21.235 13.05 6.2966 5.4799 11.697 12.022 15.886 19.196"/><path d="m159.11 246.57c-5.7174 3.6979-11.96 6.6399-18.477 8.703-6.5069 2.0553-13.286 3.2317-20.11 3.4777-6.8061 0.25389-13.665-0.42256-20.295-2.0017-6.6303-1.581-13.041-4.0668-19.004-7.36-5.954-3.293-11.451-7.4036-16.299-12.171-4.8387-4.7611-9.0278-10.171-12.409-16.045-3.3723-5.8581-5.9542-12.173-7.649-18.713-1.695-6.5347-2.5204-13.298-2.4677-20.023"/><path d="m1178.4 344.06 4.9179 0.0362"/><path d="m1301 409.8c35.302-22.842 46.429-69.394 25.266-105.72"/><path d="m1300 408.22c34.459-22.296 45.314-67.733 24.659-103.2"/><path d="m1329.4 343.7c0-39.282-31.842-71.124-71.124-71.124-39.281 0-71.124 31.842-71.124 71.124 0 39.282 31.843 71.124 71.124 71.124 39.282 0 71.124-31.842 71.124-71.124z"/><path d="m1328.6 343.7c0-38.869-31.509-70.369-70.368-70.369-38.869 0-70.378 31.5-70.378 70.369s31.509 70.368 70.378 70.368c38.859 0 70.368-31.499 70.368-70.368z"/><path d="m1328.6 343.7c0-38.833-31.483-70.316-70.316-70.316-38.833 0-70.316 31.483-70.316 70.316s31.483 70.316 70.316 70.316c38.833 0 70.316-31.483 70.316-70.316z"/><path d="m1327.9 343.7c0-38.464-31.184-69.649-69.648-69.649-38.465 0-69.649 31.184-69.649 69.649 0 38.464 31.184 69.648 69.649 69.648 38.464 0 69.648-31.184 69.648-69.648z"/><path d="m1327.8 343.7c0-38.429-31.15-69.587-69.586-69.587-38.43 0-69.588 31.159-69.588 69.587 0 38.428 31.158 69.586 69.588 69.586 38.428 0 69.586-31.158 69.586-69.586z"/><path d="m1326.3 343.7c0-37.585-30.473-68.059-68.059-68.059-37.587 0-68.059 30.474-68.059 68.059s30.473 68.059 68.059 68.059c37.585 0 68.059-30.473 68.059-68.059z"/><path d="m1317.7 343.7c0-32.836-26.617-59.462-59.461-59.462-32.836 0-59.462 26.626-59.462 59.462s26.627 59.461 59.462 59.461c32.844 0 59.461-26.625 59.461-59.461z"/><path d="m1306.2 343.7c0-26.512-21.499-48.01-48.01-48.01-26.512 0-48.001 21.498-48.001 48.01 0 26.512 21.489 48.01 48.001 48.01 26.512 0 48.01-21.499 48.01-48.01z"/><path d="m1304 343.7c0-25.284-20.497-45.771-45.771-45.771-25.283 0-45.78 20.487-45.78 45.771 0 25.284 20.497 45.771 45.78 45.771 25.274 0 45.771-20.487 45.771-45.771z"/><path d="m1300.9 343.7c0-23.562-19.1-42.654-42.654-42.654-23.561 0-42.653 19.092-42.653 42.654 0 23.562 19.092 42.654 42.653 42.654 23.554 0 42.654-19.092 42.654-42.654z"/><path d="m1298.1 343.7c0-21.999-17.836-39.835-39.835-39.835-21.998 0-39.834 17.836-39.834 39.835 0 21.999 17.836 39.835 39.834 39.835 21.999 0 39.835-17.837 39.835-39.835z"/><path d="m1301 409.8c-5.9098 3.8288-12.373 6.8759-19.11 9.0105-6.7351 2.1346-13.752 3.3546-20.802 3.6442-7.0529 0.28175-14.14-0.37696-21.025-1.9501-6.8849-1.581-13.559-4.0747-19.785-7.4114-6.2264-3.3289-12.014-7.4909-17.151-12.339-5.1373-4.8563-9.6249-10.397-13.304-16.43-3.6709-6.0328-6.5424-12.568-8.4745-19.364-1.932-6.7965-2.933-13.867-3.0033-20.909"/><path d="m1178.4 344.06c-0.07-8.6157 1.3085-17.301 4.0396-25.512 2.7399-8.219 6.8323-15.956 12.084-22.832 5.2515-6.8676 11.662-12.865 18.837-17.66 3.5917-2.4062 7.3855-4.5139 11.32-6.2967 3.9342-1.7827 8.0178-3.2493 12.198-4.3646 8.3428-2.2394 17.081-3.1087 25.731-2.5644 8.6495 0.54463 17.222 2.5118 25.22 5.7786 4.0133 1.6421 7.8777 3.618 11.566 5.8838 3.6799 2.2746 7.1754 4.8477 10.443 7.6841 3.2673 2.8367 6.3045 5.9454 9.0621 9.2825 2.7575 3.3283 5.2432 6.8938 7.4115 10.617"/><path d="m1183.3 344.09c0.062-8.2031 1.4315-16.44 4.0045-24.272 2.5818-7.844 6.3669-15.263 11.241-21.894 4.8915-6.6479 10.872-12.514 17.651-17.239 6.7972-4.7421 14.393-8.3428 22.367-10.617 8.0003-2.2744 16.387-3.2054 24.694-2.7488 8.3261 0.45667 16.581 2.3186 24.3 5.4536 7.727 3.1352 14.928 7.5611 21.235 13.05 6.2966 5.4799 11.697 12.022 15.886 19.196"/><path d="m1300 408.22c-5.7174 3.6979-11.96 6.6399-18.477 8.703-6.5069 2.0553-13.286 3.2317-20.11 3.4777-6.8061 0.25389-13.665-0.42256-20.295-2.0017-6.6303-1.581-13.041-4.0668-19.004-7.36-5.9541-3.293-11.451-7.4036-16.299-12.171-4.8387-4.7611-9.0277-10.171-12.409-16.045-3.3723-5.8581-5.9542-12.173-7.649-18.713-1.6949-6.5347-2.5204-13.298-2.4676-20.023"/></g><g stroke-width="1.5528"><path d="m143.17 322.45v0.4922"/><path d="m143.17 362.96v0.4922"/><path d="m143.17 367.26v0.054"/><path d="m143.17 318.59v0.054"/><path d="m164.74 318.64v3.8026"/><path d="m164.74 363.45v3.8106"/><path d="m164.84 367.26v-3.8377"/><path d="m164.84 322.48v-3.8376"/><path d="m167.67 318.64v-0.068"/><path d="m167.76 318.64v3.9058"/><path d="m167.76 363.35v3.9059"/><path d="m173.53 363.35v-0.3017"/><path d="m173.53 322.85v-0.3017"/><path d="m174.91 375.17v24.504"/><path d="m174.91 286.23v24.504"/><path d="m179.38 286.23v21.576"/><path d="m179.38 378.1v21.568"/><path d="m179.48 369.31v5.7668"/><path d="m179.48 316.59v-5.7731"/><path d="m199.58 274.05v0.5811"/><path d="m220.29 369.31v5.7668"/><path d="m220.29 316.59v-5.7731"/><path d="m220.39 399.67v-21.568"/><path d="m220.39 307.8v-21.576"/><path d="m224.85 286.23v24.504"/><path d="m224.85 375.17v24.504"/><path d="m226.25 322.55v0.3017"/><path d="m226.25 363.05v0.3017"/><path d="m232.02 322.55v-3.9059"/><path d="m232.02 367.26v-3.9059"/><path d="m232.1 367.33v0.5811"/><path d="m232.1 317.98v0.5891"/><path d="m234.94 318.64v3.8376"/><path d="m234.94 363.42v3.8377"/><path d="m235.03 367.26v-3.8107"/><path d="m235.03 322.45v-3.8027"/><path d="m198 411.24-0.0143 0.5812"/><path d="m182.83 409.03-0.0206 0.068"/><path d="m183.78 405.34 1.4099-5.4587"/><path d="m214.59 286.02 1.4099-5.4587"/><path d="m216.95 276.87 0.16354-0.6367"/><path d="m179.38 378.1 0.027-0.1032"/><path d="m179.41 307.9-0.027-0.095"/><path d="m220.36 378 0.027 0.095"/><path d="m183.78 280.56 1.4099 5.4587"/><path d="m217.11 409.66-0.16354-0.6367"/><path d="m216 405.34-1.4099-5.4587"/><path d="m182.83 276.87-0.0206-0.068"/><path d="m256.61 367.92v-0.6573"/><path d="m256.61 363.45v-0.4922"/><path d="m256.61 322.94v-0.4922"/><path d="m256.61 318.64v-0.6574"/><path d="m220.39 307.8-0.027 0.1032"/><path d="m235.03 363.45-0.0953-0.027"/><path d="m256.82 357.65 5.4587 1.41"/><path d="m142.96 328.25-5.4589-1.41"/><path d="m133.81 325.89-0.0411-0.014"/><path d="m265.96 360.01 0.6367 0.1636"/><path d="m164.74 322.45 0.1032 0.027"/><path d="m234.94 322.48 0.0953-0.027"/><path d="m164.84 363.42-0.10321 0.027"/><path d="m175.51 399.67h0.0683"/><path d="m224.2 399.67h0.65733"/><path d="m179.38 399.67h0.49221"/><path d="m219.9 399.67h0.49221"/><path d="m175.58 378.1h3.8106"/><path d="m220.39 378.1h3.8027"/><path d="m179.41 378h-3.8376"/><path d="m224.2 378h-3.8376"/><path d="m224.85 375.17h-0.58112"/><path d="m175.58 375.08h3.9059"/><path d="m220.29 375.08h3.9059"/><path d="m220.29 369.31h-0.30167"/><path d="m179.78 369.31h-0.30168"/><path d="m256.61 367.92h-24.504"/><path d="m167.66 367.26h-24.496"/><path d="m143.17 363.45h21.569"/><path d="m235.03 363.45h21.576"/><path d="m173.53 363.35h-5.7667"/><path d="m226.25 363.35h5.7731"/><path d="m174.91 375.17h0.59541"/><path d="m173.53 322.55h-5.7667"/><path d="m226.25 322.55h5.7731"/><path d="m256.61 322.45h-21.576"/><path d="m164.74 322.45h-21.569"/><path d="m143.17 318.64h24.503"/><path d="m232.1 317.98h24.504"/><path d="m179.48 316.59h0.30168"/><path d="m219.99 316.59h0.30168"/><path d="m179.48 310.82h-3.9059"/><path d="m224.2 310.82h-3.9059"/><path d="m224.27 310.73h0.58906"/><path d="m175.58 307.9h3.8376"/><path d="m220.36 307.9h3.8376"/><path d="m224.2 307.8h-3.8027"/><path d="m179.38 307.8h-3.8106"/><path d="m174.91 310.73h0.66368"/><path d="m224.85 286.23h-0.65733"/><path d="m220.39 286.23h-0.4922"/><path d="m179.88 286.23h-0.49221"/><path d="m174.91 286.23h0.59541"/><path d="m133.81 360.01-0.0411 0.01"/><path d="m137.5 359.06 5.4589-1.41"/><path d="m256.82 328.25 5.4587-1.41"/><path d="m265.96 325.89 0.6367-0.1636"/><path d="m133.16 360.17c0.2804 1.0733 0.72513 2.0927 1.327 3.0231"/><path d="m133.81 360.01c1.1013 4.2679 4.9527 7.2513 9.3581 7.2513"/><path d="m137.5 359.06c0.67035 2.5864 3.0031 4.3917 5.6708 4.3917"/><path d="m143.14 318c-1.1083 0-2.2095 0.1842-3.2562 0.5335"/><path d="m134.59 322.55c-0.64987 0.9717-1.1356 2.045-1.4298 3.1739"/><path d="m143.17 318.64c-4.4054 0-8.2567 2.9818-9.3581 7.2513"/><path d="m143.17 322.45c-2.6747 0-5.0073 1.8053-5.6708 4.3918"/><path d="m217.11 409.66c4.5553-1.1765 7.7435-5.2873 7.7435-9.995"/><path d="m175.58 399.67c0 4.4061 2.9818 8.2564 7.2513 9.3583"/><path d="m216.95 409.03c4.2679-1.1019 7.2513-4.9522 7.2513-9.3583"/><path d="m175.58 375.17c0-2.1006-0.82722-4.1108-2.3197-5.5953-1.483-1.4846-3.4947-2.3197-5.5953-2.3197"/><path d="m232.11 367.26c-2.1006 0-4.1107 0.8272-5.5953 2.3197-1.4846 1.4829-2.3197 3.4946-2.3197 5.5952"/><path d="m232.1 367.92c-4.0012 0-7.2513 3.2486-7.2513 7.2513"/><path d="m179.48 369.31c0-3.2898-2.6674-5.9588-5.9589-5.9588"/><path d="m226.25 363.35c-1.5798 0-3.0914 0.6287-4.2139 1.7449-1.1146 1.1146-1.745 2.6325-1.745 4.2139"/><path d="m216 405.34c2.5865-0.67 4.3917-3.0024 4.3917-5.6715"/><path d="m179.38 399.67c0 2.6754 1.8053 5.0078 4.3918 5.6715"/><path d="m197.98 411.82c6.4511 0.1779 12.888-0.5477 19.134-2.1609"/><path d="m266.6 360.17c2.9215-11.3 2.9215-23.15 0-34.45"/><path d="m217.11 276.23c-5.7255-1.4782-11.622-2.2165-17.532-2.1895"/><path d="m265.96 360.01c2.8866-11.192 2.8866-22.93 0-34.121"/><path d="m216.95 276.87c-11.192-2.8865-22.93-2.8865-34.121 0"/><path d="m133.81 325.89c-2.8867 11.192-2.8867 22.93 0 34.121"/><path d="m182.83 409.03c11.192 2.8865 22.93 2.8865 34.121 0"/><path d="m262.28 359.06c2.7294-10.568 2.7294-21.651 0-32.219"/><path d="m216 280.56c-10.568-2.7294-21.651-2.7294-32.219 0"/><path d="m137.5 326.84c-2.7294 10.568-2.7294 21.651 0 32.219"/><path d="m183.78 405.34c10.568 2.7294 21.651 2.7294 32.219 0"/><path d="m137.97 326.96c-2.7089 10.487-2.7089 21.487 0 31.973"/><path d="m215.87 281.03c-10.487-2.7087-21.487-2.7087-31.973 0"/><path d="m183.9 404.86c10.487 2.7087 21.487 2.7087 31.973 0"/><path d="m261.8 358.94c2.7087-10.487 2.7087-21.487 0-31.973"/><path d="m185.19 399.88c9.6393 2.4896 19.756 2.4896 29.401 0"/><path d="m142.96 328.25c-2.4901 9.6456-2.4901 19.756 0 29.4"/><path d="m256.82 357.65c2.4896-9.6392 2.4896-19.756 0-29.394"/><path d="m214.59 286.02c-9.6456-2.4896-19.757-2.4896-29.401 0"/><path d="m173.53 322.55c3.2898 0 5.9589-2.6674 5.9589-5.9588"/><path d="m182.83 276.87c-4.2679 1.1019-7.2513 4.9522-7.2513 9.3583"/><path d="m167.67 318.64c2.1006 0 4.1107-0.8352 5.5889-2.3198 1.4846-1.4829 2.3181-3.4946 2.3181-5.5873"/><path d="m183.78 280.56c-2.5865 0.67-4.3918 3.0025-4.3918 5.6715"/><path d="m130.99 342.95c0 5.808 0.73196 11.595 2.1754 17.226"/><path d="m133.16 325.73c-1.4434 5.6223-2.1686 11.41-2.1686 17.218"/><path d="m199.58 274.05c-5.7112 0.027-11.389 0.7669-16.924 2.1895"/><path d="m182.65 409.66c5.0142 1.2924 10.152 2.018 15.323 2.1609"/><path d="m220.29 316.59c0 1.5798 0.62875 3.0913 1.745 4.2139 1.1146 1.1146 2.6325 1.7449 4.2139 1.7449"/><path d="m224.85 286.23c0-4.7061-3.1882-8.8184-7.7435-9.995"/><path d="m224.2 286.23c0-4.4061-2.9818-8.2564-7.2513-9.3583"/><path d="m224.2 310.73c0 2.1007 0.83516 4.1108 2.3197 5.5953 1.483 1.4846 3.4947 2.3197 5.5953 2.3197"/><path d="m224.85 310.73c0 4.0012 3.2486 7.2513 7.2513 7.2513"/><path d="m220.39 286.23c0-2.6754-1.8053-4.9999-4.3917-5.6715"/><path d="m256.61 367.92c4.7061 0 8.8184-3.1803 9.995-7.7435"/><path d="m266.6 325.72c-1.1765-4.5553-5.2872-7.7436-9.995-7.7436"/><path d="m265.96 325.89c-1.1019-4.2679-4.9522-7.2513-9.3583-7.2513"/><path d="m256.61 367.26c4.406 0 8.2564-2.9819 9.3583-7.2513"/><path d="m256.61 363.45c2.6754 0 4.9999-1.8053 5.6715-4.3917"/><path d="m262.28 326.84c-0.67003-2.5864-3.0024-4.3917-5.6715-4.3917"/><path d="m143.34 357.94c2.5858-0.021 5.1715-0.048 7.7573-0.075 2.5722-0.021 5.1442-0.056 7.717-0.083 2.5642-0.021 5.1237-0.048 7.6879-0.062 1.2797-0.01 2.5595-0.013 3.844-0.021 1.2797-0.01 2.5595-0.01 3.8376-0.01"/><path d="m143.17 362.96c0.0136-0.01 0.0136-0.021 0.0136-0.027 7e-3 -0.027 0.0137-0.048 0.0205-0.076 7e-3 -0.033 7e-3 -0.075 0.0138-0.1159 7e-3 -0.054 0.0137-0.1096 0.0137-0.1636 7e-3 -0.068 0.0137-0.1365 0.0137-0.2127 7e-3 -0.083 0.0136-0.1715 0.0205-0.2525 7e-3 -0.1032 7e-3 -0.2048 0.0136-0.308 7e-3 -0.1096 7e-3 -0.2255 0.0138-0.343 7e-3 -0.2667 0.0205-0.5334 0.0205-0.7922 7e-3 -0.3017 0.0137-0.5955 0.0205-0.8971 0-0.3081 7e-3 -0.6145 7e-3 -0.9225 7e-3 -0.308 7e-3 -0.6097 7e-3 -0.9098"/><path d="m142.96 357.65c0.0205 0.083 0.0753 0.1572 0.14369 0.2128 0.0684 0.048 0.15735 0.075 0.24626 0.075"/><path d="m143.17 362.96c-0.58827 0-1.1765-0.1032-1.7375-0.2874-0.55413-0.1921-1.081-0.4795-1.546-0.8352-0.46521-0.362-0.87565-0.8002-1.1972-1.2924s-0.56779-1.04-0.71831-1.6068"/><path d="m164.84 363.42c0.0349-0.014 0.0619-0.014 0.0953-0.014 0.0683-0.01 0.13019-0.01 0.19847-0.013 0.0889-0.01 0.18577-0.01 0.28103-0.014 0.12226 0 0.2461-0.01 0.36201-0.01 0.14449-0.01 0.28739-0.01 0.43187-0.01 0.16354-0.01 0.32708-0.01 0.48586-0.01 0.35565-0.01 0.71131-0.01 1.067-0.01"/><path d="m143.17 362.96 30.359 0.089"/><path d="m179.48 375.08c0 0.3556 0 0.7113-6e-3 1.0606v0.4859c-8e-3 0.1429-8e-3 0.2873-0.0143 0.4302 0 0.1239-6e-3 0.2461-0.0143 0.37 0 0.089 0 0.1842-6e-3 0.2794-6e-3 0.062-0.0127 0.1302-0.0127 0.1922 0 0.035-8e-3 0.068-0.0143 0.1032"/><path d="m179.78 369.31c6e-3 -0.054 0.0619-0.095 0.10955-0.1238 0.0476-0.027 0.0889-0.048 0.1302-0.068 0.054-0.021 0.11591-0.04 0.17783-0.06 0.17148-0.049 0.34137-0.089 0.5192-0.1238 0.2334-0.041 0.46521-0.075 0.70496-0.1096 0.28739-0.033 0.57477-0.062 0.86216-0.083 0.31437-0.027 0.62875-0.048 0.95106-0.06 0.63511-0.029 1.2718-0.041 1.9006-0.035"/><path d="m167.76 322.55c-0.35566 0-0.70496 0-1.0606-0.01-0.16354 0-0.32073 0-0.48586-0.01-0.1429 0-0.28738 0-0.43028-0.01-0.12385 0-0.2461-0.01-0.36995-0.014-0.0953 0-0.18418 0-0.27944-0.01-0.0619-0.01-0.1302-0.013-0.19212-0.013-0.0349 0-0.0683-0.01-0.10321-0.014"/><path d="m173.53 322.85-30.359 0.089"/><path d="m179.41 307.9c0.0143 0.035 0.0143 0.062 0.0143 0.095 6e-3 0.068 6e-3 0.1302 0.0127 0.1985 8e-3 0.089 8e-3 0.1857 0.0143 0.281 0 0.1223 6e-3 0.2461 6e-3 0.362 6e-3 0.1445 6e-3 0.2874 6e-3 0.4319 8e-3 0.1635 8e-3 0.3271 8e-3 0.4858 6e-3 0.3557 6e-3 0.7113 6e-3 1.067"/><path d="m179.88 286.23c0-0.5891 0.0953-1.1765 0.28738-1.737 0.19212-0.5542 0.47157-1.0813 0.83517-1.5465 0.36201-0.4652 0.80023-0.8749 1.2924-1.1972 0.49221-0.3286 1.04-0.5684 1.6068-0.7113"/><path d="m185.19 286.02c-0.0826 0.021-0.15719 0.075-0.21276 0.1429-0.0476 0.07-0.0746 0.1588-0.0746 0.2397"/><path d="m215.87 281.03c0.56842 0.1429 1.1146 0.3906 1.6068 0.7113 0.49379 0.3287 0.93042 0.732 1.294 1.1972 0.36201 0.4652 0.64304 0.9924 0.83358 1.5528 0.19211 0.5542 0.28738 1.1496 0.28738 1.7307"/><path d="m219.9 286.23c-6e-3 0.014-0.0206 0.014-0.0349 0.021-0.0191 0-0.0476 0.01-0.0746 0.014-0.0333 0.01-0.0746 0.01-0.1159 0.013-0.0556 0.01-0.10956 0.014-0.16513 0.014-0.0746 0.01-0.14925 0.013-0.21752 0.021-0.0889 0.01-0.17783 0.01-0.2604 0.013-0.10955 0.01-0.20482 0.01-0.30802 0.014-0.11591 0.01-0.2334 0.014-0.34931 0.014-0.26674 0.01-0.53349 0.019-0.80023 0.019-0.29374 0.01-0.58747 0.014-0.88915 0.021-0.30167 0-0.60811 0.01-0.91613 0.01-0.29533 0-0.59541 0.01-0.88915 0.01"/><path d="m214.87 286.41c0-0.082-0.027-0.1715-0.0826-0.2397-0.0476-0.068-0.12226-0.1223-0.20482-0.1509"/><path d="m219.9 286.23 0.0889 30.36"/><path d="m219.99 316.59c-6e-3 0.054-0.0619 0.095-0.10955 0.1238-0.0476 0.027-0.0889 0.048-0.1302 0.06-0.0619 0.029-0.1159 0.048-0.17783 0.068-0.17148 0.049-0.34137 0.089-0.5192 0.1239-0.2334 0.041-0.46521 0.075-0.70496 0.1095-0.28739 0.033-0.57477 0.062-0.86216 0.083-0.31437 0.027-0.62875 0.048-0.95106 0.06-0.63511 0.029-1.2718 0.041-1.9006 0.035"/><path d="m220.29 310.82c0-0.3556 0-0.7113 6e-3 -1.0606 0-0.1635 0-0.3207 8e-3 -0.4858 0-0.1429 0-0.2874 6e-3 -0.4303 0-0.1239 6e-3 -0.2461 6e-3 -0.37 8e-3 -0.089 8e-3 -0.1842 0.0143-0.2794 6e-3 -0.062 0.0127-0.1302 0.0127-0.1921 0-0.035 8e-3 -0.068 0.0143-0.1032"/><path d="m256.43 327.96c-2.5865 0.021-5.1713 0.048-7.7578 0.075-2.5722 0.021-5.1443 0.056-7.7165 0.083-2.5642 0.027-5.1237 0.048-7.6879 0.062-1.2797 0.01-2.5595 0.013-3.844 0.021-1.2797 0.01-2.5595 0.01-3.8376 0.01"/><path d="m179.88 399.67-0.0889-30.36"/><path d="m184.9 399.49c0 0.083 0.027 0.1715 0.0826 0.2397 0.0476 0.068 0.12226 0.1223 0.20482 0.1429"/><path d="m179.88 399.67c6e-3 -0.01 0.0206-0.014 0.0349-0.014 0.019-0.01 0.0476-0.013 0.0746-0.021 0.0333-0.01 0.0746-0.01 0.11591-0.013 0.0556-0.01 0.10955-0.014 0.16512-0.014 0.0746-0.01 0.14925-0.013 0.21753-0.021 0.0889 0 0.17783-0.01 0.26674-0.013 0.10321-0.01 0.19847-0.01 0.30168-0.014 0.1159-0.01 0.2334-0.01 0.3493-0.014 0.26675-0.01 0.53349-0.019 0.80023-0.019l0.8828-0.021c0.30802 0 0.61446-0.01 0.92249-0.01 0.29532 0 0.59541-0.01 0.88914-0.01"/><path d="m183.9 404.86c-0.56842-0.1429-1.1146-0.3906-1.6068-0.7177-0.49379-0.3223-0.93043-0.7256-1.294-1.1908-0.36201-0.4652-0.64304-0.9924-0.83357-1.5528-0.19212-0.5542-0.29532-1.1496-0.29532-1.7307"/><path d="m214.59 399.88c0.0826-0.021 0.15718-0.075 0.20482-0.1429 0.0556-0.07 0.0826-0.1588 0.0826-0.2477"/><path d="m219.9 399.67c0 0.5891-0.0953 1.1766-0.28738 1.7371-0.19212 0.562-0.47157 1.0812-0.83516 1.5464-0.36201 0.4716-0.80023 0.8749-1.2924 1.1972-0.49221 0.3287-1.04 0.5684-1.6068 0.7177"/><path d="m220.36 378c-6e-3 -0.027-6e-3 -0.062-0.0143-0.095-6e-3 -0.068-6e-3 -0.1302-0.0127-0.1984-8e-3 -0.089-8e-3 -0.1858-0.0143-0.2811 0-0.1222-6e-3 -0.2461-6e-3 -0.362-6e-3 -0.1445-6e-3 -0.2874-6e-3 -0.4319-8e-3 -0.1635-8e-3 -0.327-8e-3 -0.4858-6e-3 -0.3557-6e-3 -0.7113-6e-3 -1.067"/><path d="m256.61 322.94c-0.0143 0.01-0.0143 0.021-0.0143 0.035-6e-3 0.019-0.0127 0.04-0.0206 0.068 0 0.04-6e-3 0.075-0.0127 0.1159-6e-3 0.054-6e-3 0.1096-0.0143 0.1636-6e-3 0.068-0.0127 0.1365-0.0127 0.2127-8e-3 0.083-0.0143 0.1715-0.0206 0.2525 0 0.1032-8e-3 0.2048-0.0143 0.308-6e-3 0.1159-6e-3 0.2255-0.0143 0.343-6e-3 0.2667-0.019 0.5334-0.019 0.7922-8e-3 0.3017-0.0143 0.5955-0.0206 0.8892 0 0.316-8e-3 0.6224-8e-3 0.9304-6e-3 0.308-6e-3 0.6097-6e-3 0.9098"/><path d="m232.02 363.35c0.35566 0 0.71132 0 1.0606 0.01 0.16353 0 0.32072 0 0.48585 0.01 0.1429 0 0.28738 0 0.43028 0.01 0.12385 0 0.24611 0.01 0.36995 0.014 0.0889 0 0.18418 0 0.27945 0.01 0.0699 0.01 0.13019 0.013 0.19212 0.013 0.0349 0 0.0683 0.01 0.1032 0.014"/><path d="m226.25 363.05 30.36-0.089"/><path d="m256.43 357.94c0.0826 0 0.17148-0.027 0.23975-0.082 0.0683-0.048 0.12226-0.1223 0.1429-0.2049"/><path d="m256.61 362.96c-0.0143-0.01-0.0143-0.021-0.0143-0.035-6e-3 -0.019-0.0127-0.048-0.0206-0.075-6e-3 -0.033-6e-3 -0.075-0.0127-0.1159-6e-3 -0.055-0.0143-0.1159-0.0143-0.1714-6e-3 -0.068-0.0127-0.1366-0.0206-0.2112-6e-3 -0.089-6e-3 -0.1778-0.0127-0.2604-8e-3 -0.1096-8e-3 -0.2128-0.0143-0.3144-6e-3 -0.1095-0.0143-0.227-0.0143-0.3429-6e-3 -0.2668-0.019-0.5335-0.019-0.8003-8e-3 -0.2937-0.0143-0.5874-0.0206-0.8891 0-0.3017-8e-3 -0.6081-8e-3 -0.9162-6e-3 -0.2953-6e-3 -0.5954-6e-3 -0.8891"/><path d="m261.8 358.94c-0.1429 0.5684-0.39059 1.1146-0.71132 1.6068-0.32867 0.4938-0.73196 0.9305-1.1972 1.2941-0.46522 0.362-0.99235 0.643-1.5528 0.8335-0.55413 0.1922-1.1495 0.2874-1.7307 0.2874"/><path d="m185.14 368.64c-6e-3 -0.7113-0.0746-1.4226-0.20482-2.1276-0.13655-0.705-0.35566-1.3893-0.63034-2.0514-0.27309-0.6637-0.61446-1.3004-1.0114-1.8958s-0.85581-1.1559-1.3686-1.6624c-0.5065-0.5128-1.067-0.9717-1.6624-1.367-0.59541-0.397-1.2305-0.7399-1.8942-1.013-0.66368-0.2731-1.348-0.4859-2.053-0.6224-0.69703-0.1366-1.4163-0.2128-2.1276-0.2128"/><path d="m184.9 399.49c0.0207-2.6135 0.0476-5.2269 0.0746-7.8388 0.0413-3.8789 0.0826-7.7578 0.11749-11.643 0.0333-3.79 0.054-7.58 0.054-11.37"/><path d="m214.63 368.64c0 2.5166 6e-3 5.0348 0.0206 7.5514 0.0206 3.8519 0.0683 7.7038 0.10956 11.554 0.0413 3.9138 0.0826 7.8261 0.11591 11.738"/><path d="m225.58 357.69c-0.71132 0.01-1.429 0.075-2.1276 0.2048-0.70497 0.1445-1.3956 0.3493-2.0514 0.6304-0.66368 0.2731-1.3004 0.6144-1.8958 1.0114-0.60176 0.3969-1.1559 0.8558-1.6624 1.3686-0.51285 0.5065-0.97171 1.067-1.3671 1.6624-0.39694 0.5954-0.7399 1.2305-1.013 1.8942-0.28104 0.6637-0.48586 1.348-0.62241 2.053-0.14448 0.697-0.21276 1.4163-0.21276 2.1276"/><path d="m256.43 357.94c-2.5865-0.027-5.1713-0.048-7.7578-0.068-1.2861-0.014-2.5722-0.027-3.8646-0.041-1.2797-0.021-2.5658-0.033-3.8519-0.048-1.2861-0.014-2.5642-0.021-3.8503-0.035-0.6367 0-1.2797-0.01-1.9164-0.013-0.64304-0.01-1.2782-0.01-1.9212-0.014-0.64304-0.01-1.2797-0.013-1.9228-0.013-0.63669 0-1.2782-0.01-1.9212-0.01-0.63669-0.01-1.2797-0.01-1.9228-0.013-0.63669-0.014-1.2797-0.021-1.9148 0.01"/><path d="m256.82 328.25c-0.0206-0.083-0.0746-0.1572-0.1429-0.2128-0.0699-0.048-0.15878-0.075-0.23975-0.075"/><path d="m256.61 322.94c0.58906 0 1.1765 0.095 1.737 0.2874 0.55413 0.1921 1.0813 0.4716 1.5465 0.8352 0.46522 0.362 0.87486 0.8002 1.1972 1.2924 0.32867 0.4922 0.56842 1.04 0.71132 1.6068"/><path d="m234.94 322.48c-0.0349 0.01-0.0619 0.014-0.0953 0.014-0.0683 0.01-0.1302 0.01-0.19847 0.013-0.0969 0.01-0.18577 0.01-0.28104 0.014-0.12226 0-0.2461 0.01-0.36201 0.01-0.14448 0.01-0.29532 0.01-0.43187 0.01-0.16354 0.01-0.32708 0.01-0.48585 0.01-0.35566 0.01-0.71132 0.01-1.067 0.01"/><path d="m256.61 322.94-30.36-0.089"/><path d="m226.25 322.85c-0.054 0.01-0.0953 0.062-0.12385 0.1096-0.027 0.041-0.0476 0.082-0.0603 0.1222-0.0286 0.062-0.0476 0.1175-0.0619 0.1795-0.0556 0.1698-0.0889 0.3413-0.12384 0.5128-0.0476 0.2318-0.081 0.4652-0.10956 0.697-0.0397 0.2874-0.0603 0.5748-0.0889 0.8622-0.027 0.3144-0.0397 0.6367-0.0603 0.951-0.0286 0.6431-0.0413 1.2861-0.0349 1.9212"/><path d="m219.99 316.59c6e-3 0.8065 0.17148 1.6211 0.47951 2.3737 0.31437 0.7589 0.78594 1.4575 1.3607 2.0386 0.58747 0.5812 1.2861 1.0464 2.045 1.3687 0.7526 0.3064 1.5671 0.4716 2.3737 0.4779"/><path d="m214.63 317.25c0.0143 0.7113 0.0746 1.429 0.21276 2.1276 0.12861 0.705 0.34772 1.3893 0.62241 2.0514 0.27309 0.6637 0.61446 1.3004 1.0114 1.8958s0.8558 1.1559 1.3686 1.6624c1.013 1.0114 2.2292 1.8323 3.5566 2.38 1.3274 0.5478 2.7579 0.8352 4.1806 0.8352"/><path d="m214.87 286.41c-0.0206 2.6135-0.0476 5.2269-0.0746 7.8388-0.0413 3.8789-0.0826 7.7578-0.11749 11.643-0.0333 3.7837-0.054 7.58-0.054 11.362"/><path d="m185.14 317.25c0-2.5166-6e-3 -5.0348-0.0206-7.5514-0.0206-3.8519-0.0683-7.7038-0.10955-11.554-0.0413-3.9138-0.0826-7.8261-0.11591-11.738"/><path d="m174.19 328.21c0.71131-0.01 1.429-0.075 2.1276-0.2127 0.70496-0.1366 1.3893-0.3478 2.0514-0.6224 0.66369-0.2731 1.3004-0.6145 1.8958-1.0115 0.60176-0.3969 1.1559-0.8558 1.6624-1.3686 0.51285-0.5065 0.97171-1.067 1.3671-1.6624 0.39694-0.5954 0.73989-1.2305 1.013-1.8942 0.27309-0.6637 0.48585-1.348 0.6224-2.053 0.14449-0.697 0.21276-1.4162 0.21276-2.1276"/><path d="m143.34 327.96c2.5858 0.027 5.1715 0.048 7.7573 0.068l3.8581 0.041c1.2861 0.021 2.5722 0.033 3.8589 0.048 1.2861 0.014 2.5642 0.021 3.844 0.035 0.64304 0 1.2861 0.01 1.9228 0.013 0.64304 0.01 1.2845 0.014 1.9212 0.014 0.64304 0.01 1.2797 0.013 1.9228 0.013 0.6367 0.01 1.2782 0.01 1.9212 0.01 0.63669 0.01 1.2797 0.01 1.9228 0.013 0.6367 0.014 1.2797 0.021 1.9148-0.01"/><path d="m179.88 286.23c6e-3 0.014 0.0206 0.014 0.0349 0.021 0.027 0 0.0476 0.01 0.0746 0.014 0.0333 0.01 0.0746 0.01 0.11591 0.013 0.0619 0.01 0.1159 0.014 0.17147 0.014 0.0746 0.01 0.1429 0.013 0.21912 0.021 0.0889 0.01 0.17782 0.01 0.26674 0.013 0.10162 0.01 0.20482 0.01 0.30803 0.014 0.1159 0.01 0.23181 0.014 0.34771 0.014 0.26675 0.01 0.53349 0.019 0.80024 0.019l0.88279 0.021c0.30803 0 0.6097 0.01 0.90979 0.01 0.30167 0.01 0.59541 0.01 0.88914 0.01"/><path d="m179.78 316.59 0.0889-30.36"/><path d="m179.78 316.59c6e-3 0.054 0.0619 0.095 0.10955 0.1238 0.0413 0.027 0.0826 0.048 0.12226 0.06 0.0619 0.029 0.11749 0.048 0.17942 0.062 0.16354 0.055 0.34137 0.089 0.51284 0.1238 0.23182 0.048 0.46522 0.081 0.69703 0.1096 0.28739 0.04 0.57477 0.06 0.86216 0.089 0.31437 0.027 0.62875 0.04 0.95106 0.06 0.64305 0.029 1.2861 0.041 1.9212 0.035"/><path d="m173.53 322.85c0.80659-0.01 1.6211-0.1715 2.3674-0.4795 0.7653-0.3144 1.4639-0.7859 2.045-1.367 0.58112-0.5812 1.0463-1.2798 1.3686-2.0387 0.30644-0.7526 0.47157-1.5672 0.47792-2.3737"/><path d="m173.53 322.85c0.054 0.01 0.0953 0.062 0.12385 0.1096 0.027 0.048 0.0476 0.089 0.0603 0.1302 0.0286 0.062 0.0476 0.1159 0.0683 0.1778 0.0492 0.1715 0.0889 0.3414 0.12384 0.5192 0.0413 0.2334 0.0746 0.4652 0.10956 0.705 0.0333 0.2873 0.0619 0.5747 0.0826 0.8621 0.027 0.3144 0.0476 0.6288 0.0603 0.9431 0.0286 0.6431 0.0413 1.2798 0.0349 1.9085"/><path d="m143.34 327.96c-0.0821 0-0.171 0.027-0.23943 0.082-0.0684 0.048-0.12305 0.1223-0.14369 0.2049"/><path d="m143.17 322.94c7e-3 0.01 0.0136 0.021 0.0136 0.035 7e-3 0.019 0.0137 0.048 0.0205 0.075 7e-3 0.033 7e-3 0.075 0.0138 0.1159 7e-3 0.055 0.0137 0.1095 0.0137 0.1651 7e-3 0.075 0.0137 0.1429 0.0205 0.2175 0 0.089 7e-3 0.1779 0.0137 0.2604 7e-3 0.1096 7e-3 0.2048 0.0136 0.308 7e-3 0.1159 7e-3 0.2334 0.0138 0.3493 7e-3 0.2668 0.0205 0.5335 0.0205 0.8003 7e-3 0.2937 0.0137 0.5875 0.0205 0.8891 0 0.3017 7e-3 0.6081 7e-3 0.9162 0 0.2953 7e-3 0.5954 7e-3 0.8891"/><path d="m137.97 326.96c0.15052-0.5684 0.38995-1.1146 0.71147-1.6068 0.32835-0.4938 0.73196-0.9305 1.197-1.2941 0.46521-0.362 0.99203-0.643 1.5528-0.8335 0.55412-0.1921 1.1492-0.2874 1.7376-0.2874"/><path d="m226.25 363.05c-0.054-0.014-0.0953-0.062-0.12385-0.1096-0.027-0.048-0.0476-0.089-0.0603-0.1302-0.0286-0.062-0.0476-0.1159-0.0683-0.1778-0.0492-0.1715-0.0889-0.3414-0.12384-0.5192-0.0413-0.2334-0.0746-0.4652-0.10956-0.7049-0.0333-0.2874-0.0619-0.5748-0.0826-0.8622-0.027-0.3144-0.0476-0.6288-0.0603-0.9511-0.0286-0.6351-0.0413-1.2718-0.0349-1.9005"/><path d="m219.99 369.31c-6e-3 -0.054-0.0619-0.095-0.10955-0.1238-0.0413-0.027-0.0826-0.048-0.12226-0.06-0.0619-0.029-0.11749-0.048-0.17942-0.068-0.16989-0.049-0.34137-0.089-0.51284-0.1175-0.23182-0.048-0.46522-0.081-0.69703-0.1096-0.28738-0.04-0.57477-0.06-0.86215-0.089-0.31438-0.027-0.6367-0.04-0.95107-0.06-0.64305-0.029-1.2861-0.041-1.9212-0.035"/><path d="m226.25 363.05c-0.80658 0.01-1.6211 0.1715-2.3674 0.4795-0.7653 0.3144-1.4639 0.7859-2.045 1.3671-0.58112 0.5811-1.0463 1.2797-1.3686 2.0386-0.30644 0.7526-0.47156 1.5672-0.47791 2.3737"/><path d="m219.9 399.67c-6e-3 -0.01-0.0206-0.014-0.0349-0.014-0.027-0.01-0.0476-0.013-0.0746-0.021-0.0333-0.01-0.0746-0.01-0.12225-0.013-0.0556-0.01-0.10956-0.014-0.16513-0.014-0.0746-0.01-0.1429-0.013-0.21911-0.021-0.0889-0.01-0.17783-0.01-0.26675-0.013-0.10161-0.01-0.20482-0.01-0.30802-0.014-0.11591-0.01-0.23181-0.01-0.34772-0.014-0.26674-0.01-0.53349-0.019-0.80023-0.019l-0.8828-0.021c-0.30802 0-0.6097-0.01-0.90978-0.01-0.30168 0-0.59541-0.01-0.88915-0.01"/><path d="m219.99 369.31-0.0889 30.36"/><path d="m173.53 363.05c0.054-0.014 0.0953-0.062 0.12385-0.1096 0.027-0.041 0.0476-0.082 0.0603-0.1222 0.0286-0.062 0.0476-0.1175 0.0683-0.1794 0.0492-0.1699 0.0826-0.3414 0.11749-0.5129 0.0476-0.2318 0.081-0.4652 0.10956-0.697 0.0397-0.2874 0.0603-0.5748 0.0889-0.8622 0.027-0.3143 0.0476-0.6367 0.0603-0.951 0.0286-0.6431 0.0413-1.2861 0.0349-1.9212"/><path d="m179.78 369.31c-6e-3 -0.8065-0.17148-1.6211-0.47951-2.3737-0.31437-0.7589-0.78594-1.4575-1.3671-2.0386-0.58112-0.5812-1.2797-1.0464-2.0387-1.3687-0.7526-0.3064-1.5671-0.4716-2.3737-0.4779"/><path d="m182.65 409.66 0.15084-0.5684"/><path d="m174.91 399.67h0.59541"/><path d="m182.65 409.66c-2.1546-0.5541-4.179-1.8672-5.5826-3.6741-1.3956-1.7989-2.1609-4.0901-2.1609-6.3209"/><path d="m167.66 367.91 0.0143-0.5811"/><path d="m143.14 367.9 0.0273-0.589"/><path d="m167.66 367.26 6e-3 0.068"/><path d="m133.16 360.17 0.60192-0.1508"/><path d="m143.14 367.9c-1.156 0-2.3327-0.2048-3.4272-0.589"/><path d="m139.71 367.31c-1.0603-0.3763-2.059-0.924-2.9483-1.6274-0.8893-0.6986-1.6622-1.5465-2.2711-2.4912"/><path d="m133.16 325.73 0.60192 0.1508"/><path d="m143.14 318 0.0273 0.589"/><path d="m134.59 322.55c0.62939-0.9305 1.416-1.7656 2.3121-2.4484 0.90296-0.6843 1.9155-1.2257 2.9826-1.5734"/><path d="m167.66 317.98 6e-3 0.5891"/><path d="m182.66 276.24 0.15084 0.5684"/><path d="m174.91 286.23c0-2.2308 0.76689-4.522 2.1609-6.3209 1.3956-1.8053 3.428-3.112 5.5826-3.6741"/><path d="m174.91 310.73c0 0.9447-0.18418 1.9022-0.55413 2.777-0.36201 0.8765-0.90343 1.6767-1.5735 2.3531-0.67003 0.6716-1.4703 1.2178-2.3531 1.5734-0.87486 0.3557-1.8339 0.5272-2.777 0.5542"/><path d="m167.66 317.98-24.517 0.014"/><path d="m143.14 367.9 24.517 0.014"/><path d="m167.66 367.91c1.8545 0 3.7836 0.7733 5.1301 2.1276 1.348 1.348 2.1276 3.2772 2.1276 5.1237"/><path d="m224.27 310.73v-24.496c0-4.4474-3.0025-8.3183-7.3053-9.4345-5.6778-1.4639-11.521-2.1879-17.383-2.1673-5.6572 0.033-11.294 0.7589-16.773 2.1752-2.0323 0.5192-3.9472 1.764-5.2602 3.4613-1.321 1.7037-2.0387 3.8647-2.0387 5.9653v24.496c0 1.0194-0.20482 2.053-0.60176 3.0025-0.39059 0.9511-0.97171 1.8196-1.6973 2.5452-0.72402 0.7256-1.5941 1.3067-2.5436 1.6973-0.94472 0.3953-1.9784 0.5938-2.9977 0.6017l-24.503 0.01c-2.0931 0.01-4.248 0.7256-5.9444 2.0387-1.6965 1.3194-2.9347 3.2279-3.4546 5.2539-1.4364 5.581-2.1684 11.314-2.1684 17.073 0 5.7604 0.73196 11.494 2.1684 17.075 0.51999 2.0324 1.7581 3.9409 3.4546 5.2539 1.6964 1.3131 3.8513 2.0387 5.9444 2.0387l24.503 0.014c1.0193 0 2.053 0.2048 2.9977 0.5938 0.94948 0.397 1.8196 0.9718 2.5436 1.6974 0.72561 0.7319 1.3067 1.5941 1.6973 2.5451 0.39694 0.9495 0.60176 1.9832 0.60176 3.0025v24.504c0 2.0927 0.71767 4.2536 2.0387 5.9573 1.3131 1.7037 3.2279 2.9421 5.2602 3.4692 4.9665 1.2782 10.063 1.9974 15.187 2.1403 6.3955 0.1779 12.778-0.5477 18.969-2.1403 4.3028-1.1082 7.3053-4.9951 7.3053-9.4265v-24.504c0-2.08 0.82722-4.071 2.2991-5.5413 1.4703-1.4703 3.4613-2.2975 5.5397-2.2975h24.498c4.4394 0 8.3183-3.004 9.4265-7.3005 2.8929-11.205 2.8929-22.956 0-34.162-1.1083-4.2949-4.9872-7.2989-9.4265-7.2989h-24.498c-2.0784 0-4.0758-0.8272-5.5397-2.2975-1.4719-1.4718-2.2991-3.4613-2.2991-5.5413z"/></g></g><g stroke-width="4.1233"><path d="m1310.7 120.28c0-13.29 10.774-24.06 24.06-24.06 13.29 0 24.064 10.77 24.064 24.06 0 13.29-10.774 24.06-24.064 24.06-13.285 0-24.06-10.77-24.06-24.06"/><path d="m1257.8 173.14c0-13.29 10.774-24.06 24.06-24.06 13.29 0 24.06 10.77 24.06 24.06s-10.77 24.06-24.06 24.06c-13.285 0-24.06-10.77-24.06-24.06"/><path d="m1363.7 173.14c0-13.29 10.77-24.06 24.06-24.06 13.29 0 24.06 10.77 24.06 24.06s-10.77 24.06-24.06 24.06c-13.29 0-24.06-10.77-24.06-24.06"/><path d="m1310.6 226.01c0-13.29 10.774-24.064 24.06-24.064 13.29 0 24.06 10.774 24.06 24.064 0 13.29-10.77 24.06-24.06 24.06-13.285 0-24.06-10.77-24.06-24.06"/></g></g><g fill="#899099"><path d="m1334.7 219.68c-0.1279 0-0.2392 0.0825-0.2804 0.20616l-0.6845 2.0658-1.8885 4.8161c-0.037 0.0866-0.025 0.1938 0.029 0.27214 0.054 0.0825 0.1484 0.12782 0.2433 0.12782h5.1583c0.099 0 0.1896-0.0454 0.2474-0.12782 0.054-0.0783 0.066-0.18555 0.029-0.27214l-1.8926-4.8161-0.6803-2.0658c-0.037-0.1237-0.1526-0.20616-0.2804-0.20616m6.6427 16.089c-0.198 0-0.3753-0.1237-0.4454-0.30513l-1.6988-4.4903c-0.045-0.11133-0.1567-0.18968-0.2804-0.18968h-8.4404c-0.1196 0-0.2309 0.0784-0.2763 0.18968l-1.7029 4.4903c-0.07 0.18143-0.2474 0.30513-0.4412 0.30513h-3.744c-0.1567 0-0.3052-0.0783-0.3917-0.21029-0.087-0.13195-0.1031-0.301-0.045-0.44532l8.2302-19.924c0.074-0.1773 0.2474-0.29276 0.4412-0.29276h4.3048c0.1937 0 0.3628 0.11546 0.437 0.28864l8.2343 19.928c0.062 0.14432 0.045 0.31337-0.041 0.44532-0.091 0.13195-0.2392 0.21029-0.3958 0.21029z"/><path d="m1384.8 166.23c-0.1649 0-0.2969 0.13194-0.2969 0.29688v4.3955c0 0.16081 0.132 0.29275 0.2969 0.29275h4.0326c0.9979 0 1.7813-0.25152 2.3256-0.7422 0.5443-0.4948 0.8205-1.0844 0.8205-1.7607 0-0.6886-0.2639-1.2618-0.804-1.7524-0.5319-0.48243-1.2783-0.72983-2.2101-0.72983zm0 8.3662c-0.1649 0-0.2969 0.13195-0.2969 0.29688v4.7707c0 0.16493 0.132 0.29688 0.2969 0.29688h4.515c1.0845 0 1.9256-0.2474 2.4988-0.74633 0.5855-0.49892 0.8659-1.1257 0.8659-1.905 0-0.78756-0.2845-1.4226-0.8783-1.938-0.5937-0.51542-1.4679-0.77519-2.6142-0.77519zm-4.1481 8.9765c-0.2639 0-0.4742-0.21442-0.4742-0.47419v-19.92c0-0.26389 0.2103-0.47418 0.4742-0.47418h8.5023c0.9814 0 1.9091 0.14432 2.7585 0.4247 0.8536 0.27627 1.604 0.66799 2.2267 1.1628 0.6226 0.48243 1.1256 1.0679 1.4926 1.7318 0.3629 0.65973 0.5484 1.3772 0.5484 2.1318 0 1.0968-0.301 2.0369-0.8824 2.7874-0.5113 0.63912-1.1339 1.1587-1.8514 1.5339-0.1031 0.0495-0.1649 0.16081-0.1567 0.27626 0 0.11545 0.078 0.22266 0.1856 0.26389 0.9978 0.37935 1.8266 0.94837 2.4658 1.6823 0.7174 0.83703 1.0679 1.8431 1.0679 3.076 0 0.89064-0.1979 1.6988-0.5938 2.4039-0.3958 0.70921-0.9401 1.3195-1.6163 1.8225-0.6762 0.4948-1.4803 0.89064-2.3874 1.1628-0.9072 0.27214-1.8968 0.40822-2.9358 0.40822z"/><path d="m1287.3 183.58c-0.1608 0-0.3051-0.0784-0.3917-0.2103l-4.746-7.1292c-0.054-0.0866-0.1443-0.13195-0.2432-0.13195-0.1031 0-0.1938 0.0454-0.2474 0.13195l-4.7419 7.1292c-0.091 0.12783-0.235 0.2103-0.3958 0.2103h-4.2264c-0.1815 0-0.3423-0.0948-0.4206-0.25153-0.082-0.15669-0.07-0.34636 0.029-0.49068l6.9025-9.9908c0.07-0.099 0.07-0.23503 0-0.33811l-6.3211-9.0549c-0.1031-0.14844-0.1154-0.32987-0.029-0.49068 0.078-0.15668 0.2391-0.25564 0.4164-0.25564h4.1893c0.165 0 0.3134 0.0825 0.3959 0.21441l4.2017 6.4283c0.054 0.0783 0.1443 0.13194 0.2474 0.13194 0.099 0 0.1938-0.0536 0.2432-0.13194l4.1976-6.4283c0.091-0.13195 0.235-0.21441 0.4-0.21441h4.1893c0.1773 0 0.3381 0.099 0.4206 0.25977 0.082 0.15668 0.066 0.34223-0.033 0.49067l-6.317 9.0507c-0.074 0.10308-0.074 0.23915 0 0.33811l6.8984 9.9867c0.103 0.14432 0.1113 0.33399 0.033 0.49068-0.082 0.16081-0.2433 0.25565-0.4206 0.25565z"/><path d="m1333.2 131.39c-0.2597 0-0.4741-0.21442-0.4741-0.47419v-9.2322l-7.2159-10.424c-0.099-0.14432-0.1113-0.32987-0.029-0.48656 0.082-0.15668 0.2433-0.25564 0.4206-0.25564h4.0038c0.1608 0 0.3051 0.0783 0.3917 0.21029l4.3254 6.5149c0.058 0.0866 0.1484 0.13607 0.2474 0.13607s0.1938-0.0536 0.2474-0.1402l4.1646-6.5025c0.087-0.13607 0.235-0.21853 0.4-0.21853h4.0697c0.1773 0 0.3381 0.0948 0.4206 0.25152 0.082 0.15669 0.074 0.34224-0.029 0.48656l-7.0921 10.428v9.2322c0 0.25977-0.2145 0.47419-0.4742 0.47419z"/></g><g fill="none" stroke="#899099" stroke-linecap="round" stroke-linejoin="round" stroke-width="3"><path d="m337.73 80.816h779.74v439h-779.74z"/><path d="m307.34 60.94h838.91c6.1559 0 11.112 4.9558 11.112 11.112v453.47c0 6.1559-4.9558 11.112-11.112 11.112h-838.91c-6.1559 0-11.112-4.9558-11.112-11.112v-453.47c0-6.1559 4.9558-11.112 11.112-11.112z"/><path d="m242.77 72.112h12.642c6.064 0 10.946 4.8818 10.946 10.946 0 6.064-4.8818 10.946-10.946 10.946h-12.642c-6.064 0-10.946-4.8818-10.946-10.946 0-6.064 4.8818-10.946 10.946-10.946z"/><path d="m1197.4 72.112h12.642c6.064 0 10.946 4.8818 10.946 10.946 0 6.064-4.8818 10.946-10.946 10.946h-12.642c-6.0639 0-10.946-4.8818-10.946-10.946 0-6.064 4.8818-10.946 10.946-10.946z"/><path d="m1250.1 75.103a1.9077 1.9077 0 0 1-1.9077 1.9077 1.9077 1.9077 0 0 1-1.9077-1.9077 1.9077 1.9077 0 0 1 1.9077-1.9077 1.9077 1.9077 0 0 1 1.9077 1.9077z"/><path d="m247.75 447.54h3.7065c4.3482 0 7.8488 3.5006 7.8488 7.8488v23.111c0 4.3482-3.5006 7.8488-7.8488 7.8488h-3.7065c-4.3482 0-7.8488-3.5006-7.8488-7.8488v-23.111c0-4.3482 3.5006-7.8488 7.8488-7.8488z"/><path d="m1201.7 447.54h3.7065c4.3482 0 7.8488 3.5006 7.8488 7.8488v23.111c0 4.3482-3.5006 7.8488-7.8488 7.8488h-3.7065c-4.3482 0-7.8488-3.5006-7.8488-7.8488v-23.111c0-4.3482 3.5006-7.8488 7.8488-7.8488z"/><path d="m140.99 515.57h80.451c1.2682 0 2.2892 1.021 2.2892 2.2892v1e-5c0 1.2682-1.021 2.2892-2.2892 2.2892h-80.451c-1.2682 0-2.2892-1.021-2.2892-2.2892v-1e-5c0-1.2682 1.021-2.2892 2.2892-2.2892z"/><path d="m154.81 526.25h14.39c1.2682 0 2.2892 1.021 2.2892 2.2892s-1.021 2.2892-2.2892 2.2892h-14.39c-1.2682 0-2.2892-1.021-2.2892-2.2892s1.021-2.2892 2.2892-2.2892z"/><path d="m180.39 526.25h14.39c1.2682 0 2.2892 1.021 2.2892 2.2892s-1.021 2.2892-2.2892 2.2892h-14.39c-1.2682 0-2.2892-1.021-2.2892-2.2892s1.021-2.2892 2.2892-2.2892z"/><path d="m205.97 526.25h14.39c1.2682 0 2.2892 1.021 2.2892 2.2892s-1.021 2.2892-2.2892 2.2892h-14.39c-1.2682 0-2.2892-1.021-2.2892-2.2892s1.021-2.2892 2.2892-2.2892z"/><path d="m134.48 504.88h14.39c1.2682 0 2.2892 1.021 2.2892 2.2892 0 1.2682-1.021 2.2892-2.2892 2.2892h-14.39c-1.2682 0-2.2892-1.021-2.2892-2.2892 0-1.2682 1.021-2.2892 2.2892-2.2892z"/><path d="m160.06 504.88h14.39c1.2682 0 2.2892 1.021 2.2892 2.2892 0 1.2682-1.021 2.2892-2.2892 2.2892h-14.39c-1.2682 0-2.2892-1.021-2.2892-2.2892 0-1.2682 1.021-2.2892 2.2892-2.2892z"/><path d="m185.65 504.88h14.39c1.2682 0 2.2892 1.021 2.2892 2.2892 0 1.2682-1.021 2.2892-2.2892 2.2892h-14.39c-1.2682 0-2.2892-1.021-2.2892-2.2892 0-1.2682 1.021-2.2892 2.2892-2.2892z"/><path d="m211.23 504.88h14.39c1.2682 0 2.2892 1.021 2.2892 2.2892 0 1.2682-1.021 2.2892-2.2892 2.2892h-14.39c-1.2682 0-2.2892-1.021-2.2892-2.2892 0-1.2682 1.021-2.2892 2.2892-2.2892z"/><path d="m1312.7 515.57h-80.451c-1.2683 0-2.2893 1.021-2.2893 2.2892v1e-5c0 1.2682 1.021 2.2892 2.2893 2.2892h80.451c1.2682 0 2.2892-1.021 2.2892-2.2892v-1e-5c0-1.2682-1.021-2.2892-2.2892-2.2892z"/><path d="m1298.8 526.25h-14.39c-1.2682 0-2.2892 1.021-2.2892 2.2892s1.021 2.2892 2.2892 2.2892h14.39c1.2682 0 2.2892-1.021 2.2892-2.2892s-1.021-2.2892-2.2892-2.2892z"/><path d="m1273.3 526.25h-14.39c-1.2682 0-2.2892 1.021-2.2892 2.2892s1.021 2.2892 2.2892 2.2892h14.39c1.2682 0 2.2892-1.021 2.2892-2.2892s-1.021-2.2892-2.2892-2.2892z"/><path d="m1247.7 526.25h-14.39c-1.2682 0-2.2892 1.021-2.2892 2.2892s1.021 2.2892 2.2892 2.2892h14.39c1.2682 0 2.2892-1.021 2.2892-2.2892s-1.021-2.2892-2.2892-2.2892z"/><path d="m1319.2 504.88h-14.39c-1.2682 0-2.2892 1.021-2.2892 2.2892 0 1.2682 1.021 2.2892 2.2892 2.2892h14.39c1.2682 0 2.2892-1.021 2.2892-2.2892 0-1.2682-1.021-2.2892-2.2892-2.2892z"/><path d="m1293.6 504.88h-14.39c-1.2682 0-2.2892 1.021-2.2892 2.2892 0 1.2682 1.021 2.2892 2.2892 2.2892h14.39c1.2682 0 2.2892-1.021 2.2892-2.2892 0-1.2682-1.021-2.2892-2.2892-2.2892z"/><path d="m1268 504.88h-14.39c-1.2682 0-2.2892 1.021-2.2892 2.2892 0 1.2682 1.021 2.2892 2.2892 2.2892h14.39c1.2683 0 2.2893-1.021 2.2893-2.2892 0-1.2682-1.021-2.2892-2.2893-2.2892z"/><path d="m1242.4 504.88h-14.39c-1.2682 0-2.2892 1.021-2.2892 2.2892 0 1.2682 1.021 2.2892 2.2892 2.2892h14.39c1.2682 0 2.2892-1.021 2.2892-2.2892 0-1.2682-1.021-2.2892-2.2892-2.2892z"/><g><path d="m25.97 71.653-5.6619-9.7162c-2.1281-4.5983-1.115-9.4779 4.625-14.8 52.109-44.175 115.64-50.969 189.53-42.474 3.4406 0.57248 5.0642 2.5258 4.871 5.8599v6.4395"/><path d="m1231.2 16.921c83.969 1.2755 202.89-13.06 221.07 123.95v328.37c-0.8337 72.459-88.742 117.45-171.43 115.62h-1107.9c-82.69 1.821-170.6-43.165-171.43-115.62v-328.37c18.183-137.01 137.1-122.67 221.07-123.95z"/><path d="m1427.8 71.653 5.6619-9.7162c2.1281-4.5983 1.1151-9.4779-4.6249-14.8-52.109-44.175-115.64-50.969-189.53-42.474-3.4405 0.57248-5.0642 2.5258-4.871 5.8599v6.4395"/></g></g></svg>
