<svg width="32" height="32" fill="none" version="1.1" viewBox="0 0 32 32" xml:space="preserve" xmlns="http://www.w3.org/2000/svg" xmlns:xlink="http://www.w3.org/1999/xlink"><path d="m13.238 20.004-1.3274-1.3704-4.1112 3.9822 1.3274 1.3704zm10.963-10.619-1.3274-1.3704-4.1112 3.9822 1.3274 1.3704zm-12.205 3.8532 1.3704-1.3274-3.9822-4.1112-1.3704 1.3274zm10.619 10.963 1.3704-1.3274-3.9822-4.1112-1.3704 1.3274zm-10.576-7.3533-0.03847-1.8221-6.0015-0.1631 0.00255 1.9565zm13.96 0.28995-0.0024-1.9564-6.0374-0.02879 0.0045 1.8216zm-10.848-5.0976 1.8221-0.03843 0.16315-6.0015-1.9565 0.00255zm-0.28996 13.96 1.9564-0.0023 0.02879-6.0374-1.8216 0.0045zm15.638-10c0 8.0081-6.4919 14.5-14.5 14.5-8.0081 0-14.5-6.4919-14.5-14.5 0-8.0081 6.4919-14.5 14.5-14.5 8.0081 0 14.5 6.4919 14.5 14.5z" fill="#fff"/></svg>
