<svg width="32" height="32" fill="none" version="1.1" viewBox="0 0 32 32" xml:space="preserve" xmlns="http://www.w3.org/2000/svg" xmlns:xlink="http://www.w3.org/1999/xlink"><path d="m16.002 6a0.93609 0.93609 0 0 0-0.66211 0.27344l-3.3047 3.3047a0.93609 0.93609 0 0 0-1e-6 1.3242l3.3027 3.3047a0.93609 0.93609 0 0 0 1.3242 2e-3l3.3066-3.3047a0.93609 0.93609 0 0 0-2e-3 -1.3242l-3.3027-3.3047a0.93609 0.93609 0 0 0-0.66211-0.27539zm-5.7598 5.7578a0.93609 0.93609 0 0 0-0.66211 0.27344l-3.3066 3.3027a0.93609 0.93609 0 0 0 3e-7 1.3242l3.3027 3.3047a0.93609 0.93609 0 0 0 1.3242 2e-3l3.3066-3.3027a0.93609 0.93609 0 0 0 0-1.3242l-3.3027-3.3047a0.93609 0.93609 0 0 0-0.66211-0.27539zm11.518 0.0039a0.93609 0.93609 0 0 0-0.66016 0.27344l-3.3066 3.3047a0.93609 0.93609 0 0 0 0 1.3223l3.3027 3.3066a0.93609 0.93609 0 0 0 1.3242 0l3.3047-3.3027a0.93609 0.93609 0 0 0 2e-3 -1.3242l-3.3047-3.3047a0.93609 0.93609 0 0 0-0.66211-0.27539zm-11.518 2.2559-1.9824 1.9805 1.9785 1.9805 1.9824-1.9805zm11.518 0.0039-1.9805 1.9785 1.9805 1.9824 1.9805-1.9785zm-5.7598 3.4981a0.93609 0.93609 0 0 0-0.66211 0.27344l-3.3066 3.3047a0.93609 0.93609 0 0 0 0 1.3223l3.3047 3.3066a0.93609 0.93609 0 0 0 1.3223 1e-6l3.3066-3.3047a0.93609 0.93609 0 0 0 0-1.3223l-3.3047-3.3066a0.93609 0.93609 0 0 0-0.66016-0.27344zm-2e-3 2.2578-1.9824 1.9824 1.9824 1.9824 1.9824-1.9824zm14.502-3.7773c0 8.0081-6.4919 14.5-14.5 14.5-8.0081 0-14.5-6.4919-14.5-14.5 0-8.0081 6.4919-14.5 14.5-14.5 8.0081 0 14.5 6.4919 14.5 14.5z" fill="#fff"/></svg>
