<svg width="100.84mm" height="43.198mm" version="1.1" viewBox="0 0 100.84 43.198" xml:space="preserve" xmlns="http://www.w3.org/2000/svg" xmlns:xlink="http://www.w3.org/1999/xlink"><defs><clipPath id="clipPath1050"><path transform="translate(-405.16 -187.86)" d="M 0,685.093 H 1217.943 V 0 H 0 Z"/></clipPath><clipPath id="clipPath1052"><path transform="translate(-667.1 -187.86)" d="M 0,685.093 H 1217.943 V 0 H 0 Z"/></clipPath><clipPath id="clipPath1054"><path transform="translate(-667.44 -188.55)" d="M 0,685.093 H 1217.943 V 0 H 0 Z"/></clipPath><clipPath id="clipPath1056"><path transform="translate(-665.58 -188.63)" d="M 0,685.093 H 1217.943 V 0 H 0 Z"/></clipPath><clipPath id="clipPath1060"><path transform="translate(-427.1 -116.81)" d="M 0,685.093 H 1217.943 V 0 H 0 Z"/></clipPath><clipPath id="clipPath1062"><path transform="translate(-437.93 -169.18)" d="M 0,685.093 H 1217.943 V 0 H 0 Z"/></clipPath><clipPath id="clipPath1064"><path transform="translate(-435.93 -169.18)" d="M 0,685.093 H 1217.943 V 0 H 0 Z"/></clipPath><clipPath id="clipPath1066"><path transform="translate(-431.87 -100.6)" d="M 0,685.093 H 1217.943 V 0 H 0 Z"/></clipPath><clipPath id="clipPath1068"><path transform="translate(-426.81 -105.31)" d="M 0,685.093 H 1217.943 V 0 H 0 Z"/></clipPath><clipPath id="clipPath1070"><path transform="translate(-434.2 -108)" d="M 0,685.093 H 1217.943 V 0 H 0 Z"/></clipPath><clipPath id="clipPath1072"><path transform="translate(-640.35 -100.6)" d="M 0,685.093 H 1217.943 V 0 H 0 Z"/></clipPath><clipPath id="clipPath1074"><path transform="translate(-649.62 -177.8)" d="M 0,685.093 H 1217.943 V 0 H 0 Z"/></clipPath><clipPath id="clipPath1076"><path transform="translate(-444.45 -202.04)" d="M 0,685.093 H 1217.943 V 0 H 0 Z"/></clipPath><clipPath id="clipPath1078"><path transform="translate(-627.8 -202.04)" d="M 0,685.093 H 1217.943 V 0 H 0 Z"/></clipPath><clipPath id="clipPath1082"><path transform="translate(-640.04 -100.71)" d="M 0,685.093 H 1217.943 V 0 H 0 Z"/></clipPath><clipPath id="clipPath1084"><path transform="translate(-649.71 -160.59)" d="M 0,685.093 H 1217.943 V 0 H 0 Z"/></clipPath><clipPath id="clipPath1086"><path transform="translate(-658.26 -169.18)" d="M 0,685.093 H 1217.943 V 0 H 0 Z"/></clipPath><clipPath id="clipPath1088"><path transform="translate(-641.09 -169.18)" d="M 0,685.093 H 1217.943 V 0 H 0 Z"/></clipPath><clipPath id="clipPath1090"><path transform="translate(-536.11 -201.03)" d="M 0,685.093 H 1217.943 V 0 H 0 Z"/></clipPath><clipPath id="clipPath1095"><path transform="translate(-427.1 -123.72)" d="M 0,685.093 H 1217.943 V 0 H 0 Z"/></clipPath><clipPath id="clipPath1097"><path transform="translate(-420.09 -133.42)" d="M 0,685.093 H 1217.943 V 0 H 0 Z"/></clipPath><clipPath id="clipPath1099"><path transform="translate(-427.1 -142.47)" d="M 0,685.093 H 1217.943 V 0 H 0 Z"/></clipPath><clipPath id="clipPath1101"><path transform="translate(-436.14 -133.42)" d="M 0,685.093 H 1217.943 V 0 H 0 Z"/></clipPath><clipPath id="clipPath1103"><path transform="translate(-469.58 -202.03)" d="M 0,685.093 H 1217.943 V 0 H 0 Z"/></clipPath><clipPath id="clipPath1105"><path transform="translate(-636.81 -168.56)" d="M 0,685.093 H 1217.943 V 0 H 0 Z"/></clipPath><clipPath id="clipPath1107"><path transform="translate(-644.95 -160.23)" d="M 0,685.093 H 1217.943 V 0 H 0 Z"/></clipPath><clipPath id="clipPath1109"><path transform="translate(-645.04 -177.38)" d="M 0,685.093 H 1217.943 V 0 H 0 Z"/></clipPath><clipPath id="clipPath1111"><path transform="translate(-654.06 -169.56)" d="M 0,685.093 H 1217.943 V 0 H 0 Z"/></clipPath><clipPath id="clipPath1113"><path transform="translate(-654.38 -171.04)" d="M 0,685.093 H 1217.943 V 0 H 0 Z"/></clipPath><clipPath id="clipPath1115"><path transform="translate(-655 -168.34)" d="M 0,685.093 H 1217.943 V 0 H 0 Z"/></clipPath><clipPath id="clipPath1119"><path transform="translate(-676.43 -156.37)" d="M 0,685.093 H 1217.943 V 0 H 0 Z"/></clipPath><clipPath id="clipPath1121"><path transform="translate(-431.74 -104.26)" d="M 0,685.093 H 1217.943 V 0 H 0 Z"/></clipPath><clipPath id="clipPath1123"><path transform="translate(-430.96 -106.42)" d="M 0,685.093 H 1217.943 V 0 H 0 Z"/></clipPath><clipPath id="clipPath1125"><path transform="translate(-438.92 -108.8)" d="M 0,685.093 H 1217.943 V 0 H 0 Z"/></clipPath><clipPath id="clipPath1127"><path transform="translate(-438.92 -107.81)" d="M 0,685.093 H 1217.943 V 0 H 0 Z"/></clipPath><clipPath id="clipPath1129"><path transform="translate(-438.92 -106.82)" d="M 0,685.093 H 1217.943 V 0 H 0 Z"/></clipPath><clipPath id="clipPath1131"><path transform="translate(-656.6 -133.09)" d="M 0,685.093 H 1217.943 V 0 H 0 Z"/></clipPath><clipPath id="clipPath1133"><path transform="translate(-654.6 -133.09)" d="M 0,685.093 H 1217.943 V 0 H 0 Z"/></clipPath><clipPath id="clipPath1135"><path transform="translate(-639.25 -108.56)" d="M 0,685.093 H 1217.943 V 0 H 0 Z"/></clipPath><clipPath id="clipPath1137"><path transform="translate(-441.19 -202.01)" d="M 0,685.093 H 1217.943 V 0 H 0 Z"/></clipPath><clipPath id="clipPath1139"><path transform="translate(-477.94 -88.914)" d="M 0,685.093 H 1217.943 V 0 H 0 Z"/></clipPath><clipPath id="clipPath1141"><path transform="translate(-678.52 -128.75)" d="M 0,685.093 H 1217.943 V 0 H 0 Z"/></clipPath><clipPath id="clipPath1143"><path transform="translate(-645.13 -105.43)" d="M 0,685.093 H 1217.943 V 0 H 0 Z"/></clipPath><clipPath id="clipPath1145"><path transform="translate(-645.13 -103.85)" d="M 0,685.093 H 1217.943 V 0 H 0 Z"/></clipPath><clipPath id="clipPath1147"><path transform="translate(-438 -131.32)" d="M 0,685.093 H 1217.943 V 0 H 0 Z"/></clipPath><clipPath id="clipPath1149"><path transform="translate(-645.44 -117.52)" d="M 0,685.093 H 1217.943 V 0 H 0 Z"/></clipPath></defs><g transform="translate(-28.934 -197.15)"><g fill="none"><g stroke="#899099"><path transform="matrix(.35278 0 0 -.35278 33.138 203)" d="m0 0-0.297 0.69-0.419 0.976-0.414 1.034-0.021 0.059c-0.021 0.05-0.03 0.105-0.025 0.159 6e-3 0.054 0.026 0.107 0.056 0.151l0.024 0.034s4.101 3.913 8.008 6.092c2.041 1.138 4.739 2.692 9.364 4.191 0.129 0.042 0.514 0.175 0.514 0.175l0.517 0.17 0.517 0.165 0.521 0.162 0.522 0.154 0.513 0.147 0.503 0.138 0.495 0.131 0.151 0.038-4e-3 -2e-3c0.563 0.144 1.127 0.277 1.695 0.401 1.693 0.372 3.405 0.66 5.124 0.877l1.02 0.122 0.045 6e-3h2e-3l0.014 2e-3 0.02 1e-3 0.023 2e-3 0.028 2e-3h0.043c0.014-1e-3 0.027-2e-3 0.039-4e-3 0.015-3e-3 0.029-6e-3 0.043-0.011 0.014-3e-3 0.028-8e-3 0.041-0.015 0.013-6e-3 0.026-0.013 0.039-0.021l3e-3 -2e-3 0.017-0.012 0.016-0.013 0.015-0.014 0.014-0.013 0.011-0.014 0.01-0.014 0.01-0.012 7e-3 -0.012 7e-3 -0.011 0.012-0.02 0.013-0.026 9e-3 -0.017 4e-3 -7e-3 0.516-0.984 0.513-1.034" clip-path="url(#clipPath1050)"/><path transform="matrix(.35278 0 0 -.35278 125.54 203)" d="m0 0 0.297 0.69 0.419 0.976 0.414 1.034 0.021 0.059c0.022 0.05 0.03 0.105 0.025 0.159-6e-3 0.054-0.025 0.107-0.056 0.151l-0.024 0.034s-4.101 3.913-8.008 6.092c-2.041 1.138-4.739 2.692-9.364 4.191-0.129 0.042-0.514 0.175-0.514 0.175l-0.516 0.17-0.518 0.165-0.521 0.162-0.521 0.154-0.514 0.147-0.503 0.138-0.495 0.131-0.151 0.038 4e-3 -2e-3c-0.562 0.144-1.127 0.277-1.694 0.401-1.694 0.372-3.406 0.66-5.125 0.877l-1.02 0.122-0.045 6e-3h-2e-3l-0.014 2e-3 -0.02 1e-3 -0.023 2e-3 -0.028 2e-3h-0.043c-0.013-1e-3 -0.026-2e-3 -0.039-4e-3 -0.015-3e-3 -0.029-6e-3 -0.043-0.011-0.014-3e-3 -0.028-8e-3 -0.041-0.015-0.013-6e-3 -0.026-0.013-0.038-0.021l-4e-3 -2e-3 -0.017-0.012-0.016-0.013-0.015-0.014-0.013-0.013-0.012-0.014-0.01-0.014-9e-3 -0.012-8e-3 -0.012-7e-3 -0.011-5e-3 -0.01-7e-3 -0.01-0.013-0.026-9e-3 -0.017-4e-3 -7e-3 -0.516-0.984-0.512-1.034" clip-path="url(#clipPath1052)"/><path transform="matrix(.35278 0 0 -.35278 125.67 202.76)" d="m0 0c0.253-0.306 0.501-0.615 0.743-0.93 0.082-0.104 0.163-0.21 0.243-0.316 0.134-0.178 0.266-0.357 0.397-0.536 0.815-1.122 1.566-2.292 2.251-3.497 0.343-0.604 0.668-1.216 0.98-1.835 0.312-0.62 0.609-1.247 0.891-1.88 0.566-1.267 1.073-2.56 1.522-3.871 0.224-0.656 0.433-1.318 0.63-1.984 0.196-0.665 0.379-1.334 0.557-2.004l0.312-1.437c0.409-1.749 0.741-3.517 1-5.294 0.259-1.771 0.446-3.553 0.581-5.337l0.108-3.255 0.103-1.824 0.096-1.886 0.094-1.944 0.091-1.997 0.088-2.047 0.082-2.1 0.078-2.143 0.072-2.188 0.066-2.23 0.058-2.267 0.047-2.302 0.031-2.335 9e-3 -2.365-0.02-2.389-0.056-2.418-9e-3 -2.33c-0.102-2.055-0.264-4.109-0.503-6.153-0.221-1.888-0.508-3.769-0.876-5.635-0.35-1.774-0.773-3.534-1.272-5.273-0.473-1.645-1.014-3.272-1.64-4.866l-8e-3 4e-3c-0.784-1.987-1.709-3.932-2.856-5.734-0.385-0.603-0.794-1.19-1.23-1.756-0.086-0.111-0.172-0.22-0.26-0.33-0.25-0.311-0.509-0.616-0.777-0.912l-0.085-0.092c-0.102-0.112-0.206-0.222-0.311-0.332-0.16-0.167-0.323-0.331-0.489-0.492-0.198-0.191-0.399-0.379-0.604-0.561-0.085-0.075-0.17-0.151-0.256-0.225-0.493-0.424-1.006-0.825-1.538-1.199-0.534-0.376-1.086-0.726-1.651-1.052-0.568-0.327-1.149-0.631-1.739-0.916-0.592-0.286-1.192-0.553-1.8-0.803-0.813-0.334-1.638-0.638-2.472-0.917-0.435-0.145-0.873-0.284-1.313-0.416-0.97-0.29-1.952-0.545-2.942-0.763-0.33-0.073-0.662-0.142-0.994-0.205l-0.131-0.025c-1.296-0.242-2.611-0.403-3.93-0.453-0.648-0.025-1.296-0.023-1.942 7e-3 -0.635 0.029-1.268 0.086-1.898 0.164-0.622 0.078-1.242 0.178-1.859 0.289-0.616 0.111-1.23 0.234-1.843 0.363-1.235 0.259-2.465 0.538-3.697 0.812-1.252 0.278-2.505 0.549-3.761 0.808-1.271 0.262-2.544 0.513-3.82 0.75-2.581 0.482-5.171 0.909-7.769 1.287-2.587 0.377-5.181 0.703-7.78 0.988-2.607 0.286-5.219 0.532-7.834 0.727-6.454 0.097-5.83 0.176-12.283 0.211-4.846 0.026-9.693 0.02-14.539 0.018-4.848-3e-3 -96.951 8e-3 -101.8-0.018-6.454-0.035-3.137-6e-3 -9.591-0.103l-2.693-0.108c-2.615-0.195-5.227-0.441-7.834-0.727-2.599-0.285-5.194-0.611-7.781-0.988-2.597-0.378-5.187-0.805-7.768-1.287-1.276-0.237-2.55-0.488-3.821-0.75-1.255-0.259-2.508-0.53-3.76-0.808-1.232-0.274-2.462-0.553-3.698-0.812-0.612-0.129-1.226-0.252-1.842-0.363-0.618-0.111-1.237-0.211-1.859-0.289-0.63-0.078-1.263-0.135-1.898-0.164-0.647-0.03-1.295-0.032-1.942-7e-3 -1.319 0.05-2.634 0.211-3.931 0.453l-0.13 0.025c-0.332 0.063-0.664 0.132-0.995 0.205-0.989 0.218-1.971 0.473-2.942 0.763-0.44 0.132-0.877 0.271-1.313 0.416-0.833 0.279-1.658 0.583-2.471 0.917-0.608 0.25-1.209 0.517-1.8 0.803-0.59 0.285-1.172 0.589-1.739 0.916-0.566 0.326-1.118 0.676-1.651 1.052-0.532 0.374-1.046 0.775-1.538 1.199-0.086 0.074-0.171 0.15-0.256 0.225-0.205 0.182-0.406 0.37-0.604 0.561-0.166 0.161-0.329 0.325-0.49 0.492-0.104 0.11-0.208 0.22-0.31 0.332l-0.085 0.092c-0.268 0.296-0.527 0.601-0.777 0.912-0.088 0.11-0.174 0.219-0.26 0.33-0.437 0.566-0.846 1.153-1.23 1.756-1.147 1.802-2.073 3.747-2.856 5.734l-8e-3 -4e-3c-0.626 1.594-1.168 3.221-1.64 4.866-0.499 1.739-0.922 3.499-1.272 5.273-0.368 1.866-0.655 3.747-0.876 5.635-0.24 2.044-0.401 4.098-0.503 6.153l-9e-3 2.33-0.056 2.418-0.02 2.389 9e-3 2.365 0.031 2.335 0.046 2.302 0.058 2.267 0.067 2.23 0.072 2.188 0.078 2.143 0.082 2.1 0.088 2.047 0.091 1.997 0.094 1.944 0.096 1.886 0.103 1.824 0.107 3.255c0.135 1.784 0.323 3.566 0.581 5.337 0.26 1.777 0.591 3.545 1 5.294l0.313 1.437c0.177 0.67 0.361 1.339 0.557 2.004 0.196 0.666 0.406 1.328 0.63 1.984 0.448 1.311 0.956 2.604 1.521 3.871 0.283 0.633 0.58 1.26 0.892 1.88 0.311 0.619 0.637 1.231 0.98 1.835 0.685 1.205 1.436 2.375 2.251 3.497 0.125 0.171 0.251 0.341 0.378 0.51l0.02 0.026c0.08 0.106 0.161 0.212 0.242 0.316 0.242 0.315 0.49 0.624 0.743 0.93l0.096-0.223c-0.227-0.276-0.45-0.555-0.669-0.839-0.084-0.108-0.167-0.217-0.25-0.327l0.064-0.071c0.015-0.017 0.042-0.017 0.064-0.013 0.019 4e-3 0.036 0.011 0.052 0.018 0.022 0.01 0.043 0.021 0.065 0.034 0.058 0.033 0.113 0.072 0.166 0.112 0.073 0.056 0.144 0.114 0.214 0.172 0.189 0.159 0.371 0.327 0.551 0.497 0.232 0.218 0.46 0.439 0.687 0.66l1.963 1.93c0.573 0.561 1.167 1.1 1.782 1.614s1.25 1.003 1.903 1.468c1.304 0.931 2.678 1.765 4.09 2.523 1.413 0.757 2.866 1.437 4.349 2.045 1.484 0.607 2.997 1.141 4.533 1.595l0.074 0.021 1.678 0.46c2.22 0.565 4.483 0.971 6.759 1.252 2.276 0.28 4.564 0.435 6.855 0.501 1.145 0.033 2.29 0.044 3.435 0.049 1.145 4e-3 2.29 3e-3 3.435 2e-3 1.146-1e-3 2.292-1e-3 3.437-1e-3h3.439c2.292 1e-3 4.584 1e-3 6.877 1e-3h151.28c2.293 0 4.585 0 6.878-1e-3h3.438c1.146 0 2.291 0 3.437 1e-3 1.145 1e-3 2.29 2e-3 3.435-2e-3 1.146-5e-3 2.291-0.016 3.436-0.049 2.29-0.066 4.579-0.221 6.854-0.501 2.276-0.281 4.539-0.687 6.76-1.252l1.677-0.46 0.074-0.021c1.536-0.454 3.05-0.988 4.533-1.595 1.483-0.608 2.936-1.288 4.349-2.045 1.413-0.758 2.786-1.592 4.09-2.523 0.653-0.465 1.288-0.954 1.903-1.468s1.209-1.053 1.782-1.614l1.963-1.93c0.228-0.221 0.456-0.442 0.687-0.66 0.18-0.17 0.362-0.338 0.552-0.497 0.07-0.058 0.141-0.116 0.213-0.172 0.054-0.04 0.108-0.079 0.167-0.112 0.021-0.013 0.043-0.024 0.064-0.034 0.016-7e-3 0.033-0.014 0.052-0.018 0.023-4e-3 0.05-4e-3 0.064 0.013l0.064 0.071c-0.083 0.11-0.166 0.219-0.25 0.327-0.219 0.284-0.441 0.563-0.669 0.839" clip-path="url(#clipPath1054)"/><path transform="matrix(.35278 0 0 -.35278 125.01 202.73)" d="m0 0c0.962-1.076 1.857-2.215 2.676-3.405 0.82-1.194 1.563-2.438 2.236-3.718 0.674-1.284 1.279-2.604 1.82-3.949 0.541-1.343 1.018-2.711 1.439-4.096 0.419-1.382 0.782-2.781 1.094-4.191 0.312-1.412 0.573-2.833 0.786-4.263 0.214-1.429 0.38-2.865 0.508-4.305 0.129-1.44 0.219-2.884 0.286-4.327l2e-3 -0.049c0.053-1.161 0.09-2.323 0.116-3.485s0.04-2.324 0.052-3.486c0.013-1.163 0.022-2.325 0.027-3.487 6e-3 -1.163 7e-3 -2.325-1e-3 -3.487-0.017-2.324-0.074-4.649-0.201-6.971-0.126-2.321-0.322-4.638-0.608-6.946-0.285-2.307-0.661-4.603-1.159-6.875-0.497-2.272-1.117-4.52-1.921-6.7-0.402-1.092-0.85-2.166-1.349-3.217-0.498-1.051-1.048-2.078-1.648-3.074-0.601-0.996-1.253-1.962-1.954-2.891s-1.451-1.819-2.244-2.671c-1.584-1.7-3.342-3.239-5.2-4.638-1.859-1.401-3.819-2.661-5.856-3.78-1.019-0.56-2.057-1.085-3.112-1.572-1.056-0.487-2.128-0.937-3.216-1.346-1.089-0.409-2.192-0.777-3.309-1.1-1.117-0.324-2.247-0.601-3.386-0.834-1.138-0.234-2.286-0.423-3.439-0.574-1.153-0.15-2.31-0.26-3.47-0.343-1.159-0.082-2.321-0.135-3.482-0.172-1.162-0.038-2.324-0.061-3.487-0.076-2.324-0.031-4.649-0.034-6.973-0.021-2.325 0.014-4.649 0.044-6.974 0.078-6.453 0.097-12.906 0.222-19.36 0.257-4.846 0.026-9.692 0.02-14.538 0.018-4.848-3e-3 -96.952 8e-3 -101.8-0.018-6.454-0.035-12.908-0.16-19.361-0.257-2.324-0.034-4.649-0.064-6.973-0.078-2.325-0.013-4.649-0.01-6.974 0.021-1.162 0.015-2.324 0.038-3.486 0.076-1.162 0.037-2.323 0.09-3.482 0.172-1.16 0.083-2.318 0.193-3.47 0.343-1.153 0.151-2.301 0.34-3.44 0.574-1.138 0.233-2.269 0.51-3.385 0.834-1.117 0.323-2.221 0.691-3.309 1.1s-2.161 0.859-3.216 1.346c-1.056 0.487-2.094 1.012-3.113 1.572-2.036 1.119-3.997 2.379-5.855 3.78-1.859 1.399-3.616 2.938-5.2 4.638-0.794 0.852-1.544 1.742-2.244 2.671-0.701 0.929-1.353 1.895-1.954 2.891s-1.15 2.023-1.649 3.074c-0.498 1.051-0.946 2.125-1.349 3.217-0.803 2.18-1.423 4.428-1.921 6.7-0.497 2.272-0.873 4.568-1.158 6.875-0.286 2.308-0.482 4.625-0.608 6.946-0.127 2.322-0.184 4.647-0.201 6.971-9e-3 1.162-7e-3 2.324-2e-3 3.487 6e-3 1.162 0.015 2.324 0.027 3.487 0.012 1.162 0.027 2.324 0.053 3.486s0.063 2.324 0.116 3.485l2e-3 0.049c0.066 1.443 0.157 2.887 0.285 4.327 0.129 1.44 0.295 2.876 0.508 4.305 0.214 1.43 0.475 2.851 0.787 4.263 0.312 1.41 0.674 2.809 1.094 4.191 0.42 1.385 0.898 2.753 1.438 4.096 0.542 1.345 1.146 2.665 1.821 3.949 0.673 1.28 1.416 2.524 2.236 3.718 0.818 1.19 1.713 2.329 2.676 3.405l0.138 0.154c1.183 1.307 2.469 2.524 3.831 3.647 1.363 1.123 2.802 2.151 4.305 3.075 1.502 0.925 3.068 1.745 4.682 2.456 1.614 0.71 3.276 1.312 4.966 1.811l1.678 0.46c2.22 0.565 4.483 0.971 6.759 1.251 2.276 0.281 4.565 0.436 6.855 0.501 1.145 0.034 2.29 0.044 3.435 0.049s2.29 4e-3 3.435 3e-3c1.146-1e-3 2.292-1e-3 3.438-1e-3h3.438c2.292 1e-3 4.585 1e-3 6.877 1e-3h151.28c2.292 0 4.584 0 6.877-1e-3h3.438c1.146 0 2.292 0 3.437 1e-3s2.29 2e-3 3.436-3e-3c1.145-5e-3 2.29-0.015 3.435-0.049 2.29-0.065 4.579-0.22 6.854-0.501 2.277-0.28 4.539-0.686 6.76-1.251l1.677-0.46c1.69-0.499 3.352-1.1 4.966-1.811s3.18-1.531 4.682-2.455c1.503-0.925 2.942-1.953 4.305-3.076 1.362-1.123 2.648-2.34 3.832-3.647z" clip-path="url(#clipPath1056)"/><path transform="matrix(.35278 0 0 -.35278 40.878 228.06)" d="m0 0c-8.589 0-15.577 6.988-15.577 15.577v36.085c0 8.59 6.988 15.577 15.577 15.577s15.576-6.987 15.576-15.577v-36.085c0-8.589-6.987-15.577-15.576-15.577z" clip-path="url(#clipPath1060)" stroke-miterlimit="10" stroke-width=".5"/><path transform="matrix(.35278 0 0 -.35278 44.701 209.59)" d="m0 0c0-6.163-4.996-11.159-11.16-11.159-6.163 0-11.159 4.996-11.159 11.159s4.996 11.16 11.159 11.16c6.164 0 11.16-4.997 11.16-11.16" clip-path="url(#clipPath1062)"/><path transform="matrix(.35278 0 0 -.35278 43.994 209.59)" d="m0 0c0-5.057-4.099-9.156-9.156-9.156s-9.156 4.099-9.156 9.156 4.099 9.156 9.156 9.156 9.156-4.099 9.156-9.156" clip-path="url(#clipPath1064)"/><g stroke-miterlimit="10" stroke-width=".5"><path transform="matrix(.35278 0 0 -.35278 42.562 233.78)" d="m0 0 7.389 2.689c2.6 0.946 3.94 3.821 2.994 6.42s-3.821 3.94-6.42 2.994l-7.389-2.69c-2.6-0.946-3.94-3.82-2.994-6.42 0.946-2.599 3.82-3.939 6.42-2.993z" clip-path="url(#clipPath1066)"/><path transform="matrix(.35278 0 0 -.35278 40.777 232.12)" d="m0 0c0 1.848 1.498 3.346 3.345 3.346 1.848 0 3.345-1.498 3.345-3.346s-1.497-3.345-3.345-3.345c-1.847 0-3.345 1.497-3.345 3.345z" clip-path="url(#clipPath1068)"/><path transform="matrix(.35278 0 0 -.35278 43.384 231.18)" d="m0 0c0 1.848 1.498 3.346 3.345 3.346 1.848 0 3.345-1.498 3.345-3.346s-1.497-3.345-3.345-3.345c-1.847 0-3.345 1.497-3.345 3.345z" clip-path="url(#clipPath1070)"/><path transform="matrix(.35278 0 0 -.35278 116.11 233.78)" d="m0 0-7.389 2.689c-2.6 0.946-3.94 3.821-2.994 6.42s3.821 3.94 6.42 2.994l7.389-2.69c2.6-0.946 3.94-3.82 2.994-6.42-0.946-2.599-3.821-3.939-6.42-2.993z" clip-path="url(#clipPath1072)"/><path transform="matrix(.35278 0 0 -.35278 119.38 206.55)" d="m0 0c0-2.354-1.908-4.263-4.263-4.263-2.354 0-4.263 1.909-4.263 4.263s1.909 4.264 4.263 4.264c2.355 0 4.263-1.91 4.263-4.264z" clip-path="url(#clipPath1074)"/></g><path transform="matrix(.35278 0 0 -.35278 47.002 198)" d="m0 0v1.185c0 0.119-0.097 0.215-0.216 0.215l-0.638-2e-3 -0.866-3e-3 -0.76-7e-3 -0.625-7e-3 -0.518-9e-3 -0.489-0.011-0.488-0.012-0.459-0.015-0.119-4e-3v-1e-3c-0.116-4e-3 -0.208-0.1-0.208-0.216v-1.201" clip-path="url(#clipPath1076)"/><path transform="matrix(.35278 0 0 -.35278 111.68 198)" d="m0 0v1.185c0 0.119 0.097 0.215 0.216 0.215l0.638-2e-3 0.866-3e-3 0.76-7e-3 0.625-7e-3 0.518-9e-3 0.489-0.011 0.488-0.012 0.459-0.015 0.119-4e-3v-1e-3c0.116-4e-3 0.208-0.1 0.208-0.216v-1.201" clip-path="url(#clipPath1078)"/><g stroke-miterlimit="10" stroke-width=".5"><path transform="matrix(.35278 0 0 -.35278 116 233.75)" d="m0 0 3.426 9.413" clip-path="url(#clipPath1082)"/><path transform="matrix(.35278 0 0 -.35278 119.41 212.62)" d="m0 0c0-2.354-1.908-4.263-4.263-4.263-2.354 0-4.263 1.909-4.263 4.263s1.909 4.263 4.263 4.263c2.355 0 4.263-1.909 4.263-4.263z" clip-path="url(#clipPath1084)"/><path transform="matrix(.35278 0 0 -.35278 122.43 209.59)" d="m0 0c0-2.354-1.908-4.263-4.263-4.263-2.354 0-4.262 1.909-4.262 4.263s1.908 4.263 4.262 4.263c2.355 0 4.263-1.909 4.263-4.263z" clip-path="url(#clipPath1086)"/><path transform="matrix(.35278 0 0 -.35278 116.37 209.59)" d="m0 0c0-2.354-1.908-4.263-4.263-4.263-2.354 0-4.262 1.909-4.262 4.263s1.908 4.263 4.262 4.263c2.355 0 4.263-1.909 4.263-4.263z" clip-path="url(#clipPath1088)"/></g></g><path transform="matrix(.35278 0 0 -.35278 79.335 198.35)" d="m0 0v-6e-3" clip-path="url(#clipPath1090)" stroke="#040000" stroke-linecap="round" stroke-linejoin="round" stroke-miterlimit="10" stroke-width=".098"/><path d="m50.455 236.08h57.761v-36.252h-57.761z" stroke="#899099" stroke-width=".35278"/></g><g fill="#899099"><path transform="matrix(.35278 0 0 -.35278 40.878 225.63)" d="m0 0v2.692c0 0.179-0.145 0.324-0.323 0.324-0.179 0-0.323-0.145-0.323-0.324v-2.692c0-0.179 0.144-0.323 0.323-0.323 0.178 0 0.323 0.144 0.323 0.323" clip-path="url(#clipPath1095)"/><path transform="matrix(.35278 0 0 -.35278 38.408 222.21)" d="m0 0h-2.693c-0.178 0-0.323-0.145-0.323-0.323 0-0.179 0.145-0.323 0.323-0.323h2.693c0.178 0 0.323 0.144 0.323 0.323 0 0.178-0.145 0.323-0.323 0.323" clip-path="url(#clipPath1097)"/><path transform="matrix(.35278 0 0 -.35278 40.878 219.02)" d="m0 0v-2.693c0-0.179-0.145-0.324-0.323-0.324-0.179 0-0.323 0.145-0.323 0.324v2.693c0 0.178 0.144 0.323 0.323 0.323 0.178 0 0.323-0.145 0.323-0.323" clip-path="url(#clipPath1099)"/><path transform="matrix(.35278 0 0 -.35278 44.07 222.21)" d="m0 0h-2.693c-0.178 0-0.323-0.145-0.323-0.323 0-0.179 0.145-0.323 0.323-0.323h2.693c0.179 0 0.323 0.144 0.323 0.323 0 0.178-0.144 0.323-0.323 0.323" clip-path="url(#clipPath1101)"/></g><path transform="matrix(.35278 0 0 -.35278 55.864 198)" d="m0 0 9e-3 0.504c1e-3 0.057 0.025 0.111 0.066 0.151l0.105 0.087 0.124 0.077 0.135 0.064 0.144 0.052 0.154 0.041 0.159 0.031 0.165 0.022 0.169 0.015 0.176 9e-3 0.177 5e-3 0.179 1e-3h1.563v-5e-3h1.89v5e-3h11.036v-5e-3h1.891v5e-3h1.572l0.176-2e-3 0.178-4e-3 0.174-0.01 0.169-0.017 0.163-0.023 0.158-0.032 0.152-0.041 0.143-0.051 0.134-0.063 0.125-0.076 0.104-0.085c0.042-0.04 0.067-0.094 0.068-0.153l0.012-0.497z" clip-path="url(#clipPath1103)" fill="none" stroke="#899099"/><g fill="#899099"><path transform="matrix(.35278 0 0 -.35278 114.86 209.81)" d="m0 0-0.831-1.292h-0.905l1.277 1.949-1.151 1.778h0.883l0.746-1.196 0.731 1.196h0.873l-1.161-1.813 1.271-1.914h-0.904z" clip-path="url(#clipPath1105)"/><path transform="matrix(.35278 0 0 -.35278 117.73 212.75)" d="m0 0 0.501 1.377 0.511-1.377zm0.913 2.251h-0.797l-1.452-3.727h0.797l0.31 0.851h1.486l0.327-0.851h0.819z" clip-path="url(#clipPath1107)"/><path transform="matrix(.35278 0 0 -.35278 117.77 206.7)" d="m0 0v-1.572h0.754v1.561l1.371 2.165h-0.861l-0.863-1.479-0.88 1.479h-0.884z" clip-path="url(#clipPath1109)"/><path transform="matrix(.35278 0 0 -.35278 120.95 209.46)" d="m0 0c0.048 1e-3 0.095 1e-3 0.143 2e-3l-0.23-2e-3z" clip-path="url(#clipPath1111)"/><path transform="matrix(.35278 0 0 -.35278 121.06 208.93)" d="m0 0c-0.053 1e-3 -0.079 2e-3 0 0" clip-path="url(#clipPath1113)"/><path transform="matrix(.35278 0 0 -.35278 121.28 209.89)" d="m0 0c-4e-3 -0.03-0.01-0.06-0.02-0.088-8e-3 -0.025-0.018-0.051-0.032-0.074-0.012-0.023-0.028-0.044-0.045-0.064s-0.036-0.038-0.056-0.053c-0.02-0.017-0.041-0.032-0.064-0.044-0.023-0.013-0.047-0.024-0.073-0.032-0.025-9e-3 -0.051-0.016-0.077-0.021l-0.156-0.016-0.112-4e-3h-0.06c-0.063-1e-3 -0.126-1e-3 -0.19-1e-3h-0.7v0.99h0.71c0.014-1e-3 0.028-1e-3 0.041-1e-3 0.048-1e-3 0.097-2e-3 0.145-4e-3 0.042-2e-3 0.084-5e-3 0.124-8e-3 3e-3 0 5e-3 0 8e-3 -1e-3 0.045-3e-3 0.088-8e-3 0.127-0.014 0.011-2e-3 0.022-3e-3 0.032-4e-3l0.085-0.022c0.023-8e-3 0.047-0.018 0.07-0.028 0.023-0.012 0.045-0.025 0.065-0.039 0.011-8e-3 0.022-0.016 0.032-0.025 0.025-0.022 0.048-0.048 0.068-0.075 0.014-0.019 0.026-0.04 0.036-0.061 0.01-0.022 0.019-0.044 0.026-0.068s0.012-0.05 0.016-0.076c3e-3 -0.025 5e-3 -0.052 5e-3 -0.077 0-0.03-1e-3 -0.061-5e-3 -0.09m-1.585 2.08h0.431l0.107-1e-3h0.109c0.052 0 0.103 0 0.155-1e-3 0.014 0 0.028 0 0.042-1e-3 0.033 0 0.066-1e-3 0.1-1e-3l0.134-7e-3c0.056-7e-3 0.113-0.021 0.165-0.046 0.023-0.01 0.045-0.024 0.065-0.039 0.019-0.014 0.037-0.031 0.053-0.049 0.032-0.036 0.055-0.078 0.07-0.123 9e-3 -0.026 0.015-0.052 0.019-0.079 3e-3 -0.027 5e-3 -0.054 5e-3 -0.082-1e-3 -0.027-3e-3 -0.055-7e-3 -0.083-5e-3 -0.027-0.012-0.054-0.023-0.08-9e-3 -0.024-0.021-0.047-0.035-0.068-0.014-0.022-0.031-0.042-0.049-0.06-0.038-0.038-0.083-0.067-0.133-0.088-2e-3 -1e-3 -4e-3 -1e-3 -6e-3 -2e-3 -0.026-0.011-0.052-0.019-0.079-0.026-0.029-7e-3 -0.059-0.012-0.089-0.015l-0.116-7e-3c-0.02 0-0.04-1e-3 -0.06-1e-3 -0.023-1e-3 -0.046-1e-3 -0.068-1e-3 -0.031-1e-3 -0.062-1e-3 -0.093-1e-3 -0.017 0-0.034-1e-3 -0.05-1e-3h-0.647zm2.362-1.949c-2e-3 0.026-5e-3 0.052-9e-3 0.076-8e-3 0.051-0.019 0.099-0.034 0.146-0.015 0.046-0.035 0.091-0.057 0.134-0.023 0.043-0.05 0.085-0.08 0.125-0.031 0.039-0.064 0.076-0.101 0.11-0.038 0.034-0.078 0.065-0.121 0.093-0.056 0.037-0.117 0.068-0.184 0.094-0.038 0.015-0.077 0.028-0.117 0.039 0.081 0.037 0.153 0.083 0.217 0.138 0.03 0.025 0.058 0.053 0.083 0.082 3e-3 2e-3 5e-3 5e-3 7e-3 7e-3 0.014 0.016 0.027 0.033 0.04 0.05s0.025 0.035 0.037 0.053c0.012 0.019 0.023 0.037 0.033 0.056s0.02 0.037 0.029 0.057c0.017 0.038 0.032 0.078 0.044 0.118s0.02 0.081 0.026 0.123c3e-3 0.021 5e-3 0.042 7e-3 0.063 1e-3 0.022 2e-3 0.044 2e-3 0.066 0 0.019-1e-3 0.04-2e-3 0.059-1e-3 0.018-3e-3 0.035-4e-3 0.052-1e-3 3e-3 -1e-3 5e-3 -1e-3 7e-3 -5e-3 0.038-0.012 0.076-0.022 0.112s-0.022 0.072-0.036 0.107c-0.014 0.034-0.031 0.068-0.05 0.1-0.038 0.065-0.08 0.124-0.127 0.177-0.046 0.053-0.098 0.099-0.155 0.138-0.056 0.04-0.117 0.073-0.181 0.099-0.065 0.028-0.133 0.048-0.205 0.06l-0.209 0.022h-6e-3c-9e-3 1e-3 -0.019 1e-3 -0.029 2e-3 -0.027 1e-3 -0.053 2e-3 -0.08 3e-3 -0.035 2e-3 -0.071 3e-3 -0.106 3e-3l-1.725 2e-3v-3.726h1.351s0.603 7e-3 0.726 0.013l0.099 8e-3c0.026 3e-3 0.051 6e-3 0.077 0.011 0.07 0.011 0.137 0.028 0.199 0.05 0.042 0.014 0.082 0.032 0.119 0.05 0.038 0.02 0.074 0.041 0.108 0.066 0.035 0.023 0.067 0.05 0.097 0.077 0.03 0.028 0.059 0.058 0.086 0.09s0.052 0.066 0.075 0.101c0.011 0.019 0.023 0.037 0.033 0.056 0.011 0.02 0.021 0.039 0.031 0.059 0.01 0.019 0.019 0.04 0.028 0.059 8e-3 0.021 0.016 0.041 0.024 0.061 0.014 0.041 0.026 0.082 0.036 0.123s0.018 0.082 0.022 0.124c5e-3 0.042 8e-3 0.084 8e-3 0.126 0 0.026-1e-3 0.052-3e-3 0.079" clip-path="url(#clipPath1115)"/></g><path transform="matrix(.35278 0 0 -.35278 128.84 214.11)" d="m0 0 2e-3 -0.049" clip-path="url(#clipPath1119)" fill="none" stroke="#040000" stroke-linecap="round" stroke-linejoin="round" stroke-miterlimit="10" stroke-width=".098"/><g fill="#899099"><path transform="matrix(.35278 0 0 -.35278 42.515 232.49)" d="m0 0c0-0.034-0.028-0.062-0.062-0.062h-2.261c-0.034 0-0.062 0.028-0.062 0.062v1.321c0 0.034 0.028 0.062 0.062 0.062h2.261c0.034 0 0.062-0.028 0.062-0.062zm0.01 1.755h-2.405c-0.199 0-0.361-0.162-0.361-0.361v-1.466c0-0.199 0.162-0.362 0.361-0.362h2.405c0.2 0 0.362 0.163 0.362 0.362v1.466c0 0.199-0.162 0.361-0.362 0.361" clip-path="url(#clipPath1121)"/><path transform="matrix(.35278 0 0 -.35278 42.241 231.73)" d="m0 0c0.103 0 0.186 0.083 0.186 0.186 0 0.102-0.083 0.185-0.186 0.185h-2.395c-0.2 0-0.361-0.161-0.361-0.361v-1.455c0-0.103 0.083-0.186 0.185-0.186 0.103 0 0.186 0.083 0.186 0.186v1.383c0 0.034 0.028 0.062 0.062 0.062z" clip-path="url(#clipPath1123)"/><path transform="matrix(.35278 0 0 -.35278 45.048 230.89)" d="m0 0h-2.74c-0.103 0-0.186 0.083-0.186 0.186 0 0.102 0.083 0.185 0.186 0.185h2.74c0.103 0 0.186-0.083 0.186-0.185 0-0.103-0.083-0.186-0.186-0.186" clip-path="url(#clipPath1125)"/><path transform="matrix(.35278 0 0 -.35278 45.048 231.24)" d="m0 0h-2.74c-0.103 0-0.186 0.083-0.186 0.186 0 0.102 0.083 0.186 0.186 0.186h2.74c0.103 0 0.186-0.084 0.186-0.186 0-0.103-0.083-0.186-0.186-0.186" clip-path="url(#clipPath1127)"/><path transform="matrix(.35278 0 0 -.35278 45.048 231.59)" d="m0 0h-2.74c-0.103 0-0.186 0.083-0.186 0.186s0.083 0.186 0.186 0.186h2.74c0.103 0 0.186-0.083 0.186-0.186s-0.083-0.186-0.186-0.186" clip-path="url(#clipPath1129)"/></g><path transform="matrix(.35278 0 0 -.35278 121.84 222.32)" d="m0 0c0-6.163-4.996-11.159-11.16-11.159-6.163 0-11.159 4.996-11.159 11.159s4.996 11.16 11.159 11.16c6.164 0 11.16-4.997 11.16-11.16" clip-path="url(#clipPath1131)" fill="none" stroke="#899099" stroke-width="1.0006"/><path transform="matrix(.35278 0 0 -.35278 121.14 222.32)" d="m0 0c0-5.057-4.099-9.156-9.156-9.156s-9.156 4.099-9.156 9.156 4.099 9.156 9.156 9.156 9.156-4.099 9.156-9.156" clip-path="url(#clipPath1133)" fill="none" stroke="#899099"/><path transform="matrix(.35278 0 0 -.35278 115.72 230.98)" d="m0 0-2.521-2.521c-0.042-0.042-0.114-0.011-0.114 0.048v0.269c0 0.06 0.024 0.119 0.067 0.162l2.293 2.294c0.068 0.067 0.16 0.105 0.256 0.105h0.942l-0.123 0.113h-1.779c-0.073 0-0.143-0.029-0.195-0.08l-1.771-1.771c-0.089-0.09-0.234-0.09-0.324 0l-1.784 1.783c-0.043 0.044-0.102 0.068-0.163 0.068h-1.797l-0.123-0.113h0.941c0.097 0 0.189-0.038 0.257-0.105l2.293-2.294c0.043-0.043 0.067-0.102 0.067-0.162v-0.269c0-0.059-0.073-0.09-0.115-0.048l-2.52 2.521c-0.089 0.088-0.208 0.138-0.332 0.138h-0.591v-2.201c0-0.032 0.012-0.061 0.033-0.083l0.483-0.482c0.02-0.019 0.047-0.031 0.075-0.031h1.482l-1.334 1.334 0.476-0.787c0.07-0.117-0.013-0.264-0.149-0.264h-0.199c-0.253 0-0.459 0.205-0.459 0.459v1.252c0 0.076 0.092 0.114 0.145 0.061l1.921-1.921c0.086-0.086 0.201-0.134 0.322-0.134h2.466c0.121 0 0.237 0.048 0.322 0.134l1.921 1.921c0.054 0.053 0.145 0.015 0.145-0.061v-1.252c0-0.254-0.205-0.459-0.459-0.459h-0.199c-0.135 0-0.219 0.147-0.148 0.264l0.475 0.787-1.334-1.334h1.483c0.028 0 0.055 0.012 0.075 0.031l0.482 0.482c0.022 0.022 0.034 0.051 0.034 0.083v2.201h-0.591c-0.124 0-0.244-0.05-0.332-0.138" clip-path="url(#clipPath1135)" fill="#899099"/><g fill="none" stroke-linecap="round" stroke-linejoin="round" stroke-miterlimit="10" stroke-width=".098"><path transform="matrix(.35278 0 0 -.35278 45.849 198.01)" d="m0 0" clip-path="url(#clipPath1137)" stroke="#899099"/><path transform="matrix(.35278 0 0 -.35278 58.815 237.91)" d="m0 0" clip-path="url(#clipPath1139)" stroke="#040000"/><path transform="matrix(.35278 0 0 -.35278 129.58 223.85)" d="m0 0" clip-path="url(#clipPath1141)" stroke="#040000"/></g><g fill="#899099"><path transform="matrix(.35278 0 0 -.35278 117.8 232.08)" d="m0 0-2.103-0.656v0.791l2.103 0.656z" clip-path="url(#clipPath1143)"/><path transform="matrix(.35278 0 0 -.35278 117.8 232.64)" d="m0 0-2.103-0.656v0.791l2.103 0.656z" clip-path="url(#clipPath1145)"/><path transform="matrix(.35278 0 0 -.35278 44.725 222.95)" d="m0 0c-0.211-1.337-1.363-2.32-2.716-2.32h-2.856c-0.861 0-1.559-0.699-1.559-1.56v-2.856c0-1.353-0.984-2.504-2.32-2.716-1.177-0.186-2.376-0.186-3.552 0-1.336 0.212-2.32 1.363-2.32 2.716v2.856c0 0.861-0.698 1.56-1.56 1.56h-2.856c-1.353 0-2.504 0.983-2.716 2.32-0.186 1.177-0.186 2.375 0 3.552 0.212 1.336 1.363 2.319 2.716 2.319h2.856c0.862 0 1.56 0.698 1.56 1.56v2.856c0 1.353 0.984 2.504 2.32 2.716 1.176 0.186 2.375 0.186 3.552 0 1.336-0.212 2.32-1.363 2.32-2.716v-2.856c0-0.862 0.698-1.56 1.559-1.56h2.856c1.353 0 2.505-0.983 2.716-2.319 0.186-1.177 0.186-2.375 0-3.552m0.57 3.642c-0.042 0.266-0.117 0.529-0.223 0.779-0.105 0.249-0.241 0.485-0.402 0.701-0.306 0.408-0.712 0.75-1.173 0.982-0.461 0.231-0.978 0.352-1.488 0.354l-2.856 5e-3c-0.534 1e-3 -0.967 0.433-0.967 0.968v2.856c0 0.392-0.07 0.787-0.206 1.157-0.137 0.37-0.339 0.715-0.594 1.014-0.255 0.3-0.564 0.554-0.908 0.747-0.345 0.192-0.724 0.324-1.111 0.386-0.925 0.146-1.872 0.183-2.807 0.11-0.312-0.024-0.623-0.061-0.931-0.11-0.268-0.043-0.531-0.118-0.781-0.224s-0.488-0.243-0.704-0.406c-0.409-0.307-0.751-0.715-0.982-1.178-0.232-0.465-0.353-0.983-0.353-1.496v-2.856c0-0.535-0.432-0.967-0.967-0.968l-2.856-5e-3c-0.39-1e-3 -0.782-0.072-1.15-0.208-0.368-0.137-0.711-0.338-1.008-0.593-0.299-0.255-0.551-0.562-0.743-0.905-0.193-0.345-0.323-0.724-0.384-1.11-0.098-0.618-0.147-1.242-0.147-1.867s0.049-1.249 0.147-1.866c0.043-0.269 0.119-0.535 0.227-0.788 0.108-0.252 0.246-0.49 0.412-0.708 0.306-0.403 0.711-0.74 1.17-0.968s0.971-0.347 1.476-0.348l2.856-5e-3c0.536-1e-3 0.971-0.436 0.971-0.972l6e-3 -2.856c1e-3 -0.501 0.118-1.009 0.342-1.463 0.224-0.456 0.556-0.86 0.953-1.167 0.219-0.17 0.461-0.313 0.717-0.423s0.526-0.189 0.8-0.231c1.237-0.197 2.496-0.197 3.733 0 1.617 0.254 2.809 1.647 2.813 3.284l5e-3 2.856c1e-3 0.536 0.435 0.971 0.971 0.972l2.856 5e-3c0.504 1e-3 1.015 0.12 1.472 0.346 0.458 0.227 0.863 0.562 1.17 0.963 0.166 0.219 0.306 0.458 0.415 0.712 0.108 0.253 0.185 0.521 0.228 0.791 0.098 0.617 0.147 1.241 0.147 1.866s-0.049 1.249-0.146 1.867" clip-path="url(#clipPath1147)"/></g><path transform="matrix(.35278 0 0 -.35278 117.91 227.82)" d="m0 0c-8.589 0-15.577 6.988-15.577 15.577v36.086c0 8.589 6.988 15.576 15.577 15.576s15.576-6.987 15.576-15.576v-36.086c0-8.589-6.987-15.577-15.576-15.577z" clip-path="url(#clipPath1149)" fill="none" stroke="#899099" stroke-miterlimit="10" stroke-width=".4989"/></g></svg>
