<?xml version="1.0" encoding="UTF-8" standalone="no"?>
<!-- Created with Inkscape (http://www.inkscape.org/) -->

<svg
   width="115.93289mm"
   height="50.648335mm"
   viewBox="0 0 115.93289 50.648335"
   version="1.1"
   id="svg1"
   xml:space="preserve"
   xmlns="http://www.w3.org/2000/svg"
   xmlns:svg="http://www.w3.org/2000/svg"><defs
     id="defs1" /><path
     id="rect2008"
     style="fill:none;stroke:#899099;stroke-width:0.2;stroke-dasharray:none"
     d="m 20.666725,5.5978508 1.59742,1.59742 -0.128875,0.595441 -0.595445,0.128879 -1.59742,-1.59742 0.128879,-0.595445 z" /><path
     id="path2009"
     style="fill:none;stroke:#899099;stroke-width:0.2;stroke-dasharray:none"
     d="m 20.666725,9.5964668 1.59742,1.5974202 -0.128875,0.595441 -0.595445,0.128879 -1.59742,-1.59742 0.128879,-0.5954452 z" /><path
     style="fill:#899099;fill-opacity:1;stroke-width:0.000991069"
     d="m 19.094189,6.7062348 c -0.275376,-0.04798 -0.457398,-0.31114 -0.406535,-0.587743 0.0058,-0.03142 0.01882,-0.07608 0.02804,-0.09598 l 0.0036,-0.0077 0.09101,0.05279 c 0.05006,0.02903 0.09118,0.05362 0.09139,0.05463 2.07e-4,0.001 -0.0011,0.0069 -0.0029,0.01306 -0.04446,0.154001 0.06183,0.331589 0.215825,0.360586 l 0.0049,9.27e-4 v 0.106424 0.106424 l -0.0036,-1.03e-4 c -0.002,-6.9e-5 -0.01179,-0.0015 -0.02177,-0.0033 z m 0.143112,-0.102752 3.45e-4,-0.106116 0.01385,-0.0037 c 0.154865,-0.04087 0.248592,-0.199504 0.209142,-0.353981 -0.0019,-0.0072 -0.0029,-0.01362 -0.0024,-0.01416 0.0026,-0.0025 0.183059,-0.101747 0.184278,-0.101277 7.69e-4,3.1e-4 0.0042,0.0085 0.0076,0.01824 0.09304,0.26416 -0.04542,0.553063 -0.308476,0.643649 -0.0315,0.01085 -0.08599,0.02341 -0.101536,0.02341 h -0.0032 z m 0.152234,-0.592277 c -0.109961,-0.119329 -0.300196,-0.12152 -0.416215,-0.0048 -0.01227,0.01235 -0.01243,0.01245 -0.01583,0.01047 -0.0019,-0.0011 -0.04231,-0.02448 -0.08983,-0.05196 -0.04752,-0.02748 -0.08723,-0.05076 -0.08826,-0.05173 -0.0027,-0.0026 0.01866,-0.02874 0.04602,-0.05623 0.211102,-0.212115 0.557444,-0.192699 0.744912,0.04176 0.0082,0.01019 0.01483,0.0192 0.01484,0.02002 1.5e-5,0.0012 -0.183039,0.103884 -0.184839,0.103716 -2.41e-4,-2.3e-5 -0.0051,-0.0051 -0.0108,-0.01126 z"
     id="path1" /><path
     d="m 18.969922,9.7479268 v 0.6727012 h 0.672701 V 9.7479268 Z m 0.120958,0.120959 h 0.430784 V 10.29967 H 19.09088 Z"
     style="fill:#899099;fill-opacity:1;stroke-width:0.00456951"
     id="path2010" /><path
     d="m 18.624971,9.4206278 v 0.05562 0.5628582 h 0.264813 V 9.9278628 h -0.153569 v -0.39599 h 0.396022 v 0.148623 h 0.111245 v -0.259868 z"
     style="fill:#899099;fill-opacity:1;stroke-width:0.00456951"
     id="path1-6" /><path
     id="path2011"
     style="fill:none;stroke:#899099;stroke-width:0.2;stroke-dasharray:none"
     d="m 95.270304,5.5978508 -1.59742,1.59742 0.12887,0.595441 0.59545,0.128879 1.59743,-1.59742 -0.12888,-0.595445 z" /><path
     id="path2012"
     style="fill:none;stroke:#899099;stroke-width:0.2;stroke-dasharray:none"
     d="m 95.270304,9.5964668 -1.59742,1.5974202 0.12887,0.595441 0.59545,0.128879 1.59743,-1.59742 -0.12888,-0.5954452 z" /><path
     d="m 96.387534,10.198232 c -0.0442,-1.1e-5 -0.0801,0.03581 -0.0801,0.08004 0,0.04424 0.0359,0.08009 0.0801,0.08008 h 1.00744 c 0.0442,10e-6 0.0801,-0.03584 0.0801,-0.08008 -1e-5,-0.04423 -0.0359,-0.08006 -0.0801,-0.08004 z"
     style="fill:#899099;fill-opacity:1;stroke-width:0.00552877"
     id="path3" /><path
     d="m 96.391034,9.8884928 c -0.0442,1.4e-5 -0.0801,0.03589 -0.0801,0.08012 1e-5,0.04422 0.0359,0.08007 0.0801,0.08008 h 1.00744 c 0.0442,-1.4e-5 0.0801,-0.03586 0.0801,-0.08008 1e-5,-0.04423 -0.0358,-0.08011 -0.0801,-0.08012 z"
     style="fill:#899099;fill-opacity:1;stroke-width:0.00552877"
     id="path2" /><path
     d="m 96.383304,9.5787918 c -0.0443,-1.1e-5 -0.0801,0.03587 -0.0801,0.08012 1e-5,0.04424 0.0359,0.08009 0.0801,0.08008 h 1.00744 c 0.0442,10e-6 0.0801,-0.03585 0.0801,-0.08008 1e-5,-0.04425 -0.0358,-0.08013 -0.0801,-0.08012 z"
     style="fill:#899099;fill-opacity:1;stroke-width:0.00552877"
     id="path1-8" /><path
     fill="currentColor"
     d="m 96.396114,5.9548378 h 0.1846 a 0.17900208,0.17900208 0 0 0 0.34682,0 h 0.45309 a 0.04475052,0.04475052 0 0 0 0,-0.08949 h -0.45309 a 0.17900208,0.17900208 0 0 0 -0.34682,0 h -0.1846 a 0.04475052,0.04475052 0 0 0 0,0.08949 m 0.358,-0.134251 a 0.08950104,0.08950104 0 1 1 -0.0895,0.0895 0.08950104,0.08950104 0 0 1 0.0895,-0.0895 m 0.62651,0.581757 h -0.0951 a 0.17900208,0.17900208 0 0 0 -0.34682,0 h -0.5426 a 0.04475053,0.04475053 0 0 0 0,0.08949 h 0.5426 a 0.17900208,0.17900208 0 0 0 0.34682,0 h 0.0951 a 0.04475053,0.04475053 0 0 0 0,-0.08949 m -0.26849,0.134251 a 0.08950104,0.08950104 0 1 1 0.0895,-0.0895 0.08950104,0.08950104 0 0 1 -0.0895,0.0895"
     style="fill:#899099;fill-opacity:1;stroke:#899099;stroke-width:0.05;stroke-dasharray:none;stroke-opacity:1"
     id="path1-3" /><path
     id="rect2013"
     style="fill:none;stroke:#899099;stroke-width:0.3"
     d="m 23.818111,2.2028358 h 68.401543 c 0.40094,0 0.72372,0.32278 0.72372,0.723722 V 48.853587 c 0,0.400942 -0.32278,0.723722 -0.72372,0.723722 H 23.818111 c -0.400942,0 -0.723722,-0.32278 -0.723722,-0.723722 V 2.9265578 c 0,-0.400942 0.32278,-0.723722 0.723722,-0.723722 z" /><path
     id="rect2014"
     style="fill:none;stroke:#899099;stroke-width:0.2"
     d="m 97.025664,32.214358 h 2.71689 c 0.383126,0 0.691556,0.308433 0.691556,0.691553 v 2.716894 c 0,0.38312 -0.30843,0.691553 -0.691556,0.691553 h -2.71689 c -0.38312,0 -0.69155,-0.308433 -0.69155,-0.691553 v -2.716894 c 0,-0.38312 0.30843,-0.691553 0.69155,-0.691553 z" /><path
     id="path2014"
     style="fill:none;stroke:#899099;stroke-width:0.3"
     d="m 101.49114,24.960971 a 3.1589503,3.1589503 0 0 1 -3.158946,3.15895 3.1589503,3.1589503 0 0 1 -3.15896,-3.15895 3.1589503,3.1589503 0 0 1 3.15896,-3.158951 3.1589503,3.1589503 0 0 1 3.158946,3.158951 z" /><path
     id="path2015"
     style="fill:none;stroke:#899099;stroke-width:0.2"
     d="m 97.960814,28.670558 c -1.19063,-0.125135 -2.26896,-0.802901 -2.86756,-1.83966 -0.59859,-1.03676 -0.66466,-2.297416 -0.17772,-3.391063 l -0.40641,-0.221736 c -0.55209,1.240019 -0.4847,2.704984 0.20422,3.874533 0.68892,1.169549 1.90059,1.934054 3.25279,2.052356 z" /><path
     id="path2016"
     style="fill:none;stroke:#899099;stroke-width:0.2"
     d="m 101.43267,22.869671 c -0.69523,-1.030716 -1.857206,-1.648555 -3.100476,-1.648555 -1.24327,0 -2.40525,0.617839 -3.10048,1.648555 l -0.41606,-0.222732 c 0.78077,-1.157534 2.1203,-1.885969 3.51654,-1.885968 1.39623,3e-6 2.701186,0.693859 3.481946,1.85139 z" /><path
     id="path2019"
     style="fill:none;stroke:#899099;stroke-width:0.2"
     d="m 98.698244,29.144988 c 1.365096,-0.119431 2.586086,-0.897294 3.271246,-2.084017 0.68516,-1.186724 0.74831,-2.633072 0.16919,-3.874997 l -0.38997,0.253861 c 0.48692,1.093648 0.42085,2.354304 -0.17772,3.391063 -0.59857,1.036757 -1.681736,1.724302 -2.872326,1.84944 z" /><path
     id="path2014-9"
     style="fill:none;stroke:#899099;stroke-width:0.3"
     d="m 15.703063,13.379206 a 3.1589503,3.1589503 0 0 1 -3.15895,3.15895 3.1589503,3.1589503 0 0 1 -3.1589598,-3.15895 3.1589503,3.1589503 0 0 1 3.1589598,-3.158951 3.1589503,3.1589503 0 0 1 3.15895,3.158951 z" /><path
     id="path2015-2"
     style="fill:none;stroke:#899099;stroke-width:0.2"
     d="m 12.172733,17.088793 c -1.19063,-0.125135 -2.2689598,-0.802901 -2.8675598,-1.83966 -0.59859,-1.03676 -0.66466,-2.297416 -0.17772,-3.391063 l -0.40641,-0.221736 c -0.55209,1.240019 -0.4847,2.704984 0.20422,3.874533 0.68892,1.169549 1.9005898,1.934054 3.2527898,2.052356 z" /><path
     id="path2016-2"
     style="fill:none;stroke:#899099;stroke-width:0.2"
     d="m 15.644593,11.287906 c -0.69523,-1.030716 -1.85721,-1.6485552 -3.10048,-1.6485552 -1.24327,0 -2.40525,0.6178392 -3.1004798,1.6485552 l -0.41606,-0.222732 c 0.78077,-1.1575342 2.1202998,-1.8859692 3.5165398,-1.8859682 1.39623,3e-6 2.70119,0.693859 3.48195,1.8513902 z" /><path
     id="path2019-8"
     style="fill:none;stroke:#899099;stroke-width:0.2"
     d="m 12.910163,17.563223 c 1.3651,-0.119431 2.58609,-0.897294 3.27125,-2.084017 0.68516,-1.186724 0.74831,-2.633072 0.16919,-3.874997 l -0.38997,0.253861 c 0.48692,1.093648 0.42085,2.354304 -0.17772,3.391063 -0.59857,1.036757 -1.68174,1.724302 -2.87233,1.84944 z" /><path
     id="rect2022"
     style="fill:none;stroke:#899099;stroke-width:0.2"
     d="m 14.290346,23.104534 v -2.194965 c 0,-0.38312 0.308432,-0.691553 0.691553,-0.691553 h 1.540154 c 0.383121,0 0.691553,0.308433 0.691553,0.691553 v 2.194965 c -0.0014,0.222722 0.112192,0.344104 0.340761,0.364146 h 2.194965 c 0.383121,0 0.691553,0.308433 0.691553,0.691553 v 1.540155 c 0,0.38312 -0.308432,0.691553 -0.691553,0.691553 h -2.194965 c -0.220601,0.01161 -0.341983,0.125201 -0.364146,0.340764 v 2.194965 c 0,0.383121 -0.308432,0.691553 -0.691553,0.691553 h -1.540154 c -0.38312,0 -0.691553,-0.308432 -0.691553,-0.691553 v -2.194965 c -0.01713,-0.2206 -0.130714,-0.341982 -0.340765,-0.364145 h -2.194965 c -0.38312,0 -0.691553,-0.308433 -0.691553,-0.691553 v -1.540155 c 0,-0.38312 0.308433,-0.691553 0.691553,-0.691553 h 2.194965 c 0.242651,-0.0089 0.364034,-0.122446 0.36415,-0.340765 z" /><path
     id="path2027"
     style="fill:none;stroke:#899099;stroke-width:0.2"
     d="m 20.861836,24.918616 a 5.1215544,5.1215544 0 0 1 -5.121554,5.121554 5.1215544,5.1215544 0 0 1 -5.121555,-5.121554 5.1215544,5.1215544 0 0 1 5.121555,-5.121554 5.1215544,5.1215544 0 0 1 5.121554,5.121554 z" /><path
     d="m 106.10882,17.021206 c 0,1.067747 -0.86559,1.933334 -1.93333,1.933334 -1.06775,0 -1.93334,-0.865587 -1.93334,-1.933334 0,-1.06775 0.86559,-1.933333 1.93334,-1.933333 1.06774,0 1.93333,0.865583 1.93333,1.933333 z"
     fill="#ffffff"
     id="path1-9"
     style="fill:none;stroke:#899099;stroke-width:0.2;stroke-dasharray:none;stroke-opacity:1" /><path
     d="m 105.04215,17.887873 h -0.40529 l -0.12236,-0.34972 h -0.69842 l -0.11726,0.34972 h -0.39 l 0.66784,-1.8 h 0.37726 z m -0.87941,-1.370573 -0.2447,0.72 h 0.49451 z"
     fill="#0e141b"
     id="path2-7"
     style="fill:#8a9199;fill-opacity:1;stroke-width:0.133333" /><path
     d="m 109.81998,13.423657 c 0,1.067747 -0.86558,1.933334 -1.93333,1.933334 -1.06775,0 -1.93333,-0.865587 -1.93333,-1.933334 0,-1.06775 0.86558,-1.933333 1.93333,-1.933333 1.06775,0 1.93333,0.865583 1.93333,1.933333 z"
     fill="#ffffff"
     id="path1-36"
     style="fill:none;stroke:#899099;stroke-width:0.2;stroke-dasharray:none;stroke-opacity:1" /><path
     d="m 108.33989,13.331177 c 0.23118,0.07029 0.34676,0.21772 0.34676,0.442294 0,0.162853 -0.0595,0.289707 -0.17856,0.380573 -0.11904,0.09085 -0.27861,0.13628 -0.47874,0.13628 h -0.7427 v -1.8 h 0.67024 c 0.2122,0 0.36919,0.03943 0.47097,0.118285 0.10179,0.07886 0.1527,0.190288 0.1527,0.334288 0,0.08057 -0.019,0.154281 -0.0569,0.221147 -0.0379,0.06685 -0.0992,0.12256 -0.18374,0.167133 z m -0.66765,-0.527133 v 0.439707 h 0.26136 c 0.0863,0 0.15268,-0.0197 0.19926,-0.05915 0.0466,-0.04113 0.0699,-0.09856 0.0699,-0.17228 0,-0.138853 -0.0923,-0.20828 -0.27689,-0.20828 z m 0.31829,1.175133 c 0.0966,0 0.16907,-0.02143 0.21738,-0.06428 0.05,-0.04285 0.075,-0.09943 0.075,-0.16972 0,-0.07543 -0.0241,-0.132001 -0.0725,-0.169707 -0.0483,-0.03943 -0.11817,-0.05915 -0.20961,-0.05915 h -0.32864 v 0.462853 z"
     fill="#0e141b"
     id="path2-1"
     style="fill:#8a9199;fill-opacity:1;stroke:none;stroke-width:0.133333" /><path
     d="m 102.54848,13.423657 c 0,1.067747 -0.86559,1.933334 -1.93334,1.933334 -1.067746,0 -1.933326,-0.865587 -1.933326,-1.933334 0,-1.06775 0.86558,-1.933333 1.933326,-1.933333 1.06775,0 1.93334,0.865583 1.93334,1.933333 z"
     fill="#ffffff"
     id="path1-2"
     style="fill:none;stroke:#899099;stroke-width:0.2;stroke-dasharray:none;stroke-opacity:1" /><path
     d="m 100.94926,12.490324 h 0.47622 l -0.62983,0.85628 0.68616,0.94372 h -0.46085 l -0.4199,-0.65572 -0.40197,0.65572 H 99.748484 L 100.386,13.359471 99.774084,12.490324 h 0.463416 l 0.35588,0.578573 z"
     fill="#0e141b"
     id="path2-9"
     style="fill:#8a9199;fill-opacity:1;stroke-width:0.2;stroke-dasharray:none" /><path
     d="m 106.10882,9.8884928 c 0,1.0677472 -0.86559,1.9333342 -1.93334,1.9333342 -1.06775,0 -1.93333,-0.865587 -1.93333,-1.9333342 0,-1.06775 0.86558,-1.933333 1.93333,-1.933333 1.06775,0 1.93334,0.865583 1.93334,1.933333 z"
     fill="#ffffff"
     id="path1-31"
     style="fill:none;stroke:#899099;stroke-width:0.2;stroke-dasharray:none;stroke-opacity:1" /><path
     d="m 104.35971,10.75516 h -0.36845 v -0.717427 l -0.61578,-1.0825732 h 0.42903 l 0.38359,0.72 0.38612,-0.72 h 0.40126 l -0.61577,1.0851472 z"
     fill="#0e141b"
     id="path2-94"
     style="fill:#8a9199;fill-opacity:1;stroke:none;stroke-width:0.2;stroke-dasharray:none" /><path
     id="rect2034"
     style="fill:none;stroke:#899099;stroke-width:0.2"
     d="m 100.19075,38.39076 c 0.068,0.06802 0.068,0.177507 0,0.245552 l -0.198776,0.198782 c -0.068,0.06802 -0.17753,0.06802 -0.24555,-2e-6 -0.068,-0.06802 -0.068,-0.177507 0,-0.245552 l 0.19878,-0.198782 c 0.068,-0.06802 0.177526,-0.06802 0.245546,2e-6 z" /><path
     id="rect2034-5"
     style="fill:none;stroke:#899099;stroke-width:0.2"
     d="m 101.15418,39.354189 c 0.068,0.06802 0.068,0.177508 0,0.245552 l -0.19878,0.198782 c -0.068,0.06802 -0.17753,0.06802 -0.24555,-2e-6 -0.068,-0.06802 -0.068,-0.177507 0,-0.245552 l 0.19878,-0.198782 c 0.068,-0.06802 0.17753,-0.06802 0.24555,2e-6 z" /><path
     id="rect2034-6"
     style="fill:none;stroke:#899099;stroke-width:0.2"
     d="m 102.11761,40.31762 c 0.068,0.06802 0.068,0.177506 0,0.245551 l -0.19878,0.198782 c -0.068,0.06802 -0.17753,0.06802 -0.24555,-2e-6 -0.068,-0.06802 -0.068,-0.177507 0,-0.245552 l 0.19878,-0.198782 c 0.068,-0.06802 0.17753,-0.06802 0.24555,3e-6 z" /><path
     id="rect2034-3"
     style="fill:none;stroke:#899099;stroke-width:0.2"
     d="m 103.08104,41.281049 c 0.068,0.06802 0.068,0.177507 0,0.245552 l -0.19878,0.198782 c -0.068,0.06802 -0.17753,0.06802 -0.24555,-2e-6 -0.068,-0.06802 -0.068,-0.177507 0,-0.245552 l 0.19878,-0.198782 c 0.068,-0.06802 0.17753,-0.06802 0.24555,2e-6 z" /><path
     id="rect2034-1"
     style="fill:none;stroke:#899099;stroke-width:0.2"
     d="m 99.247094,39.334422 c 0.068,0.06802 0.068,0.177507 0,0.245552 l -0.19878,0.198782 c -0.068,0.06802 -0.17754,0.06802 -0.24556,5e-6 -0.068,-0.06802 -0.068,-0.177507 0,-0.245559 l 0.19879,-0.198782 c 0.068,-0.06802 0.17753,-0.06802 0.24555,2e-6 z" /><path
     id="rect2034-5-7"
     style="fill:none;stroke:#899099;stroke-width:0.2"
     d="m 100.21052,40.297852 c 0.068,0.06802 0.068,0.177507 0,0.245552 l -0.19878,0.198782 c -0.068,0.06802 -0.177536,0.06802 -0.245556,5e-6 -0.068,-0.06802 -0.068,-0.177508 0,-0.24556 l 0.19879,-0.198781 c 0.068,-0.06802 0.177526,-0.06802 0.245546,2e-6 z" /><path
     id="rect2034-6-2"
     style="fill:none;stroke:#899099;stroke-width:0.2"
     d="m 101.17395,41.261282 c 0.068,0.06802 0.068,0.177506 0,0.245551 l -0.19878,0.198782 c -0.068,0.06802 -0.17754,0.06802 -0.24556,6e-6 -0.068,-0.06802 -0.068,-0.177507 0,-0.245559 l 0.19879,-0.198782 c 0.068,-0.06802 0.17753,-0.06802 0.24555,2e-6 z" /><path
     id="rect2034-3-7"
     style="fill:none;stroke:#899099;stroke-width:0.2"
     d="m 102.13738,42.224711 c 0.068,0.06802 0.068,0.177507 0,0.245552 l -0.19878,0.198782 c -0.068,0.06802 -0.17754,0.06802 -0.24556,5e-6 -0.068,-0.06802 -0.068,-0.177507 0,-0.245559 l 0.19878,-0.198782 c 0.068,-0.06802 0.17754,-0.06802 0.24556,2e-6 z" /><path
     id="rect2034-10"
     style="fill:none;stroke:#899099;stroke-width:0.2"
     d="m 98.303434,40.278085 c 0.068,0.06802 0.068,0.177507 0,0.245552 l -0.19878,0.198781 c -0.068,0.06802 -0.17754,0.06802 -0.24556,5e-6 -0.068,-0.06802 -0.068,-0.177507 0,-0.245559 l 0.19878,-0.198782 c 0.068,-0.06802 0.17754,-0.06802 0.24556,3e-6 z" /><path
     id="rect2034-5-6"
     style="fill:none;stroke:#899099;stroke-width:0.2"
     d="m 99.266854,41.241514 c 0.068,0.06802 0.068,0.177507 1e-5,0.245552 l -0.19878,0.198782 c -0.068,0.06802 -0.17755,0.06802 -0.24556,5e-6 -0.068,-0.06802 -0.068,-0.177507 0,-0.245559 l 0.19878,-0.198782 c 0.068,-0.06802 0.17754,-0.06802 0.24555,2e-6 z" /><path
     id="rect2034-6-1"
     style="fill:none;stroke:#899099;stroke-width:0.2"
     d="m 100.23028,42.204944 c 0.068,0.06802 0.068,0.177507 1e-5,0.245551 l -0.19879,0.198782 c -0.068,0.06802 -0.177536,0.06802 -0.245546,6e-6 -0.068,-0.06802 -0.068,-0.177507 0,-0.245559 l 0.19878,-0.198782 c 0.068,-0.06802 0.177536,-0.06802 0.245546,2e-6 z" /><path
     id="rect2034-3-5"
     style="fill:none;stroke:#899099;stroke-width:0.2"
     d="m 101.19371,43.168374 c 0.068,0.06802 0.068,0.177507 1e-5,0.245552 l -0.19879,0.198781 c -0.068,0.06802 -0.17754,0.06802 -0.24555,5e-6 -0.068,-0.06802 -0.0681,-0.177507 0,-0.245559 l 0.19878,-0.198782 c 0.068,-0.06802 0.17754,-0.06802 0.24555,3e-6 z" /><path
     id="rect2034-0"
     style="fill:none;stroke:#899099;stroke-width:0.2"
     d="m 97.359764,41.221754 c 0.068,0.06802 0.068,0.177507 0,0.245552 l -0.19878,0.198782 c -0.068,0.06802 -0.17754,0.06802 -0.24556,5e-6 -0.068,-0.06802 -0.068,-0.177507 0,-0.245559 l 0.19878,-0.198782 c 0.068,-0.06802 0.17754,-0.06802 0.24556,2e-6 z" /><path
     id="rect2034-5-9"
     style="fill:none;stroke:#899099;stroke-width:0.2"
     d="m 98.323194,42.185183 c 0.068,0.06802 0.068,0.177507 0,0.245552 l -0.19878,0.198782 c -0.068,0.06802 -0.17754,0.06802 -0.24556,5e-6 -0.068,-0.06802 -0.068,-0.177507 0,-0.245559 l 0.19878,-0.198782 c 0.068,-0.06802 0.17754,-0.06802 0.24556,2e-6 z" /><path
     id="rect2034-6-17"
     style="fill:none;stroke:#899099;stroke-width:0.2"
     d="m 99.286624,43.148613 c 0.068,0.06802 0.068,0.177507 0,0.245552 l -0.19878,0.198782 c -0.068,0.06802 -0.17755,0.06802 -0.24556,5e-6 -0.068,-0.06802 -0.068,-0.177507 0,-0.245559 l 0.19878,-0.198782 c 0.068,-0.06802 0.17754,-0.06802 0.24556,2e-6 z" /><path
     id="rect2034-3-71"
     style="fill:none;stroke:#899099;stroke-width:0.2"
     d="m 100.25005,44.112043 c 0.068,0.06802 0.068,0.177507 0,0.245552 l -0.19878,0.198782 c -0.068,0.06802 -0.177546,0.06802 -0.245556,5e-6 -0.068,-0.06802 -0.068,-0.177507 0,-0.245559 l 0.198776,-0.198782 c 0.068,-0.06802 0.17754,-0.06802 0.24556,2e-6 z" /><path
     id="rect2034-7"
     style="fill:none;stroke:#899099;stroke-width:0.2"
     d="m 96.416094,42.165423 c 0.068,0.06802 0.068,0.177507 0,0.245552 l -0.19878,0.198782 c -0.068,0.06802 -0.17754,0.06802 -0.24556,5e-6 -0.068,-0.06802 -0.068,-0.177507 0,-0.245559 l 0.19878,-0.198782 c 0.068,-0.06802 0.17754,-0.06802 0.24556,2e-6 z" /><path
     id="rect2034-5-76"
     style="fill:none;stroke:#899099;stroke-width:0.2"
     d="m 97.379524,43.128853 c 0.068,0.06802 0.068,0.177507 0,0.245552 l -0.19878,0.198782 c -0.068,0.06802 -0.17754,0.06802 -0.24556,5e-6 -0.068,-0.06802 -0.0681,-0.177508 0,-0.24556 l 0.19878,-0.198781 c 0.068,-0.06802 0.17754,-0.06802 0.24556,2e-6 z" /><path
     id="rect2034-6-7"
     style="fill:none;stroke:#899099;stroke-width:0.2"
     d="m 98.342954,44.092283 c 0.068,0.06802 0.068,0.177506 0,0.245551 l -0.19878,0.198782 c -0.068,0.06802 -0.17754,0.06802 -0.24556,6e-6 -0.068,-0.06802 -0.068,-0.177507 0,-0.245559 l 0.19878,-0.198782 c 0.068,-0.06802 0.17754,-0.06802 0.24556,2e-6 z" /><path
     id="rect2034-3-3"
     style="fill:none;stroke:#899099;stroke-width:0.2"
     d="m 99.306384,45.055712 c 0.068,0.06802 0.068,0.177507 0,0.245552 l -0.19878,0.198782 c -0.068,0.06802 -0.17754,0.06802 -0.24556,5e-6 -0.068,-0.06802 -0.068,-0.177507 0,-0.245559 l 0.19878,-0.198782 c 0.068,-0.06802 0.17754,-0.06802 0.24556,2e-6 z" /><path
     id="rect2034-39"
     style="fill:none;stroke:#899099;stroke-width:0.2"
     d="m 96.426864,44.081509 c 0.068,0.06802 0.068,0.177507 0,0.245552 l -0.19878,0.198782 c -0.068,0.06802 -0.17753,0.06802 -0.24555,-2e-6 -0.068,-0.06802 -0.068,-0.177507 0,-0.245552 l 0.19878,-0.198782 c 0.068,-0.06802 0.17753,-0.06802 0.24555,2e-6 z" /><path
     id="rect2034-5-4"
     style="fill:none;stroke:#899099;stroke-width:0.2"
     d="m 97.390294,45.04494 c 0.068,0.06802 0.068,0.177506 0,0.245551 l -0.19878,0.198782 c -0.068,0.06802 -0.17753,0.06802 -0.24555,-2e-6 -0.068,-0.06802 -0.068,-0.177507 0,-0.245552 l 0.19878,-0.198782 c 0.068,-0.06802 0.17753,-0.06802 0.24555,3e-6 z" /><path
     id="rect2034-6-8"
     style="fill:none;stroke:#899099;stroke-width:0.2"
     d="m 96.360014,45.111788 c 0.068,0.06802 0.068,0.177507 0,0.245552 l -0.19878,0.198782 c -0.068,0.06802 -0.17754,0.06802 -0.24556,-2e-6 -0.068,-0.06802 -0.068,-0.177507 0,-0.245552 l 0.19878,-0.198782 c 0.068,-0.06802 0.17754,-0.06802 0.24556,2e-6 z" /><path
     id="rect2034-3-1"
     style="fill:none;stroke:#899099;stroke-width:0.2"
     d="m 103.09321,38.378583 c 0.068,0.06802 0.068,0.177507 0,0.245552 l -0.19878,0.198782 c -0.068,0.06802 -0.17754,0.06802 -0.24556,5e-6 -0.068,-0.06802 -0.068,-0.177507 1e-5,-0.245559 l 0.19878,-0.198782 c 0.068,-0.06802 0.17753,-0.06802 0.24555,2e-6 z" /><path
     id="rect2034-3-8"
     style="fill:none;stroke:#899099;stroke-width:0.2"
     d="m 102.13403,41.264634 c 0.068,0.06802 0.068,0.177507 0,0.245552 l -0.19878,0.198782 c -0.068,0.06802 -0.17753,0.06802 -0.24555,-2e-6 -0.068,-0.06802 -0.068,-0.177507 0,-0.245552 l 0.19878,-0.198782 c 0.068,-0.06802 0.17753,-0.06802 0.24555,2e-6 z" /><path
     id="rect2034-3-4"
     style="fill:none;stroke:#899099;stroke-width:0.2"
     d="m 101.17059,40.301199 c 0.068,0.06802 0.068,0.177507 10e-6,0.245552 l -0.19879,0.198782 c -0.068,0.06802 -0.17753,0.06802 -0.24555,-2e-6 -0.068,-0.06802 -0.068,-0.177507 0,-0.245552 l 0.19878,-0.198782 c 0.068,-0.06802 0.17754,-0.06802 0.24555,2e-6 z" /><path
     id="rect2034-3-4-9"
     style="fill:none;stroke:#899099;stroke-width:0.2"
     d="m 100.20717,39.337775 c 0.068,0.06802 0.068,0.177507 0,0.245552 l -0.19878,0.198781 c -0.068,0.06802 -0.177526,0.06802 -0.245546,-2e-6 -0.068,-0.06802 -0.068,-0.177507 0,-0.245552 l 0.19878,-0.198782 c 0.068,-0.06802 0.177526,-0.06802 0.245546,3e-6 z" /><path
     id="rect2034-3-8-9"
     style="fill:none;stroke:#899099;stroke-width:0.2"
     d="m 103.09227,40.306391 c 0.068,0.06802 0.068,0.177508 0,0.245552 l -0.19878,0.198782 c -0.068,0.06802 -0.17754,0.06802 -0.24556,5e-6 -0.068,-0.06802 -0.068,-0.177507 1e-5,-0.245559 l 0.19878,-0.198782 c 0.068,-0.06802 0.17753,-0.06802 0.24555,2e-6 z" /><path
     id="rect2034-3-4-0"
     style="fill:none;stroke:#899099;stroke-width:0.2"
     d="m 102.12884,39.342956 c 0.068,0.06802 0.068,0.177507 0,0.245552 l -0.19878,0.198782 c -0.068,0.06802 -0.17754,0.06802 -0.24556,5e-6 -0.068,-0.06802 -0.068,-0.177507 0,-0.245559 l 0.19878,-0.198782 c 0.068,-0.06802 0.17754,-0.06802 0.24556,2e-6 z" /><path
     id="rect2034-3-8-9-9"
     style="fill:none;stroke:#899099;stroke-width:0.2"
     d="m 103.05837,39.376856 c 0.068,0.06802 0.068,0.177507 0,0.245559 l -0.19878,0.198782 c -0.068,0.06802 -0.17754,0.06802 -0.24556,-2e-6 -0.068,-0.06802 -0.068,-0.177507 0,-0.245552 l 0.19878,-0.198782 c 0.068,-0.06802 0.17754,-0.06802 0.24556,-5e-6 z" /><path
     id="rect2034-3-4-0-6"
     style="fill:none;stroke:#899099;stroke-width:0.2"
     d="m 102.09494,38.413421 c 0.068,0.06802 0.068,0.177507 -10e-6,0.245559 l -0.19878,0.198782 c -0.068,0.06802 -0.17753,0.06802 -0.24555,-2e-6 -0.068,-0.06802 -0.068,-0.177507 0,-0.245552 l 0.19878,-0.198782 c 0.068,-0.06802 0.17754,-0.06802 0.24556,-5e-6 z" /><path
     id="rect2034-3-4-9-8"
     style="fill:none;stroke:#899099;stroke-width:0.2"
     d="m 101.16541,38.379532 c 0.068,0.06802 0.068,0.177507 0,0.245552 l -0.19878,0.198782 c -0.068,0.06802 -0.17754,0.06802 -0.24556,5e-6 -0.068,-0.06802 -0.068,-0.177508 1e-5,-0.245559 l 0.19878,-0.198782 c 0.068,-0.06802 0.17753,-0.06802 0.24555,2e-6 z" /><path
     id="rect2035"
     style="fill:none;stroke:#899099;stroke-width:0.2"
     d="m 101.17579,42.22287 c 0.068,0.06802 0.068,0.177507 0,0.245559 l -0.19878,0.198782 c -0.068,0.06802 -0.17754,0.06802 -0.24556,-2e-6 -0.068,-0.06802 -0.068,-0.177507 0,-0.245552 l 0.19878,-0.198782 c 0.068,-0.06802 0.17754,-0.06802 0.24556,-5e-6 z" /><path
     id="rect2036"
     style="fill:none;stroke:#899099;stroke-width:0.2"
     d="m 100.21236,41.259435 c 0.068,0.06802 0.068,0.177507 -1e-5,0.245559 l -0.19878,0.198782 c -0.068,0.06802 -0.177526,0.06802 -0.245546,-2e-6 -0.068,-0.06802 -0.068,-0.177507 0,-0.245552 l 0.19878,-0.198782 c 0.068,-0.06802 0.177536,-0.06802 0.245556,-5e-6 z" /><path
     id="rect2037"
     style="fill:none;stroke:#899099;stroke-width:0.2"
     d="m 99.248934,40.29601 c 0.068,0.06802 0.068,0.177508 0,0.245559 l -0.19878,0.198782 c -0.068,0.06802 -0.17754,0.06802 -0.24555,-2e-6 -0.068,-0.06802 -0.068,-0.177507 -1e-5,-0.245552 l 0.19878,-0.198782 c 0.068,-0.06802 0.17755,-0.06802 0.24556,-5e-6 z" /><path
     id="rect2038"
     style="fill:none;stroke:#899099;stroke-width:0.2"
     d="m 100.21756,43.181106 c 0.068,0.06802 0.068,0.177507 0,0.245552 l -0.19878,0.198782 c -0.068,0.06802 -0.177536,0.06802 -0.245556,5e-6 -0.068,-0.06802 -0.068,-0.177508 0,-0.24556 l 0.19879,-0.198781 c 0.068,-0.06802 0.177526,-0.06802 0.245546,2e-6 z" /><path
     id="rect2039"
     style="fill:none;stroke:#899099;stroke-width:0.2"
     d="m 99.254124,42.217671 c 0.068,0.06802 0.068,0.177507 0,0.245552 l -0.19878,0.198782 c -0.068,0.06802 -0.17754,0.06802 -0.24556,4e-6 -0.068,-0.06802 -0.068,-0.177507 1e-5,-0.245559 l 0.19878,-0.198781 c 0.068,-0.06802 0.17753,-0.06802 0.24555,2e-6 z" /><path
     id="rect2040"
     style="fill:none;stroke:#899099;stroke-width:0.2"
     d="m 98.290704,41.254246 c 0.068,0.06802 0.068,0.177507 0,0.245552 l -0.19878,0.198782 c -0.068,0.06802 -0.17754,0.06802 -0.24556,5e-6 -0.068,-0.06802 -0.068,-0.177507 0,-0.245559 l 0.19879,-0.198782 c 0.068,-0.06802 0.17753,-0.06802 0.24555,2e-6 z" /><path
     id="rect2038-8"
     style="fill:none;stroke:#899099;stroke-width:0.2"
     d="m 99.259314,44.139349 c 0.068,0.06802 0.068,0.177507 1e-5,0.245552 l -0.19878,0.198781 c -0.068,0.06802 -0.17754,0.06802 -0.24556,-2e-6 -0.068,-0.06802 -0.068,-0.177507 0,-0.245552 l 0.19878,-0.198782 c 0.068,-0.06802 0.17754,-0.06802 0.24555,3e-6 z" /><path
     id="rect2039-9"
     style="fill:none;stroke:#899099;stroke-width:0.2"
     d="m 98.295884,43.175913 c 0.068,0.06802 0.068,0.177508 0,0.245552 l -0.19878,0.198782 c -0.068,0.06802 -0.17753,0.06802 -0.24555,-2e-6 -0.068,-0.06802 -0.068,-0.177507 0,-0.245552 l 0.19878,-0.198782 c 0.068,-0.06802 0.17753,-0.06802 0.24555,2e-6 z" /><path
     id="rect2040-2"
     style="fill:none;stroke:#899099;stroke-width:0.2"
     d="m 97.332464,42.212489 c 0.068,0.06802 0.068,0.177507 0,0.245552 l -0.19878,0.198782 c -0.068,0.06802 -0.17754,0.06802 -0.24556,-2e-6 -0.068,-0.06802 -0.068,-0.177507 0,-0.245552 l 0.19878,-0.198782 c 0.068,-0.06802 0.17754,-0.06802 0.24556,2e-6 z" /><path
     id="rect2038-9"
     style="fill:none;stroke:#899099;stroke-width:0.2"
     d="m 98.301084,45.097584 c 0.068,0.06802 0.068,0.177507 -1e-5,0.245559 l -0.19878,0.198782 c -0.068,0.06802 -0.17753,0.06802 -0.24555,-2e-6 -0.068,-0.06802 -0.068,-0.177507 0,-0.245552 l 0.19878,-0.198782 c 0.068,-0.06802 0.17754,-0.06802 0.24556,-5e-6 z" /><path
     id="rect2039-5"
     style="fill:none;stroke:#899099;stroke-width:0.2"
     d="m 97.337644,44.134149 c 0.068,0.06802 0.068,0.177507 0,0.245559 l -0.19878,0.198782 c -0.068,0.06802 -0.17754,0.06802 -0.24555,-2e-6 -0.068,-0.06802 -0.068,-0.177507 -1e-5,-0.245552 l 0.19878,-0.198782 c 0.068,-0.06802 0.17755,-0.06802 0.24556,-5e-6 z" /><path
     id="rect2040-0"
     style="fill:none;stroke:#899099;stroke-width:0.2"
     d="m 96.374224,43.170725 c 0.068,0.06802 0.068,0.177507 -1e-5,0.245559 l -0.19878,0.198782 c -0.068,0.06802 -0.17753,0.06802 -0.24555,-2e-6 -0.068,-0.06802 -0.068,-0.177508 0,-0.245552 l 0.19878,-0.198782 c 0.068,-0.06802 0.17754,-0.06802 0.24556,-5e-6 z" /><path
     id="rect2041"
     style="fill:none;stroke:#899099;stroke-width:0.2"
     d="m 15.738967,38.39076 c -0.06802,0.06802 -0.06805,0.177507 -2e-6,0.245552 l 0.198782,0.198782 c 0.06802,0.06802 0.177533,0.06802 0.245552,-2e-6 0.06802,-0.06802 0.06805,-0.177507 2e-6,-0.245552 l -0.198782,-0.198782 c -0.06802,-0.06802 -0.177533,-0.06802 -0.245552,2e-6 z" /><path
     id="rect2042"
     style="fill:none;stroke:#899099;stroke-width:0.2"
     d="m 14.775538,39.35419 c -0.06802,0.06802 -0.06805,0.177507 -2e-6,0.245552 l 0.198782,0.198782 c 0.06802,0.06802 0.177533,0.06802 0.245552,-3e-6 0.06802,-0.06802 0.06805,-0.177507 2e-6,-0.245552 L 15.02109,39.354188 c -0.06802,-0.06802 -0.177533,-0.06802 -0.245552,2e-6 z" /><path
     id="rect2043"
     style="fill:none;stroke:#899099;stroke-width:0.2"
     d="m 13.812108,40.31762 c -0.06802,0.06802 -0.06805,0.177506 -2e-6,0.245551 l 0.198782,0.198782 c 0.06802,0.06802 0.177533,0.06802 0.245551,-10e-7 0.06802,-0.06802 0.06805,-0.177508 3e-6,-0.245552 L 14.05766,40.317618 c -0.06802,-0.06802 -0.177534,-0.06802 -0.245552,2e-6 z" /><path
     id="rect2044"
     style="fill:none;stroke:#899099;stroke-width:0.2"
     d="m 12.848678,41.281049 c -0.06802,0.06802 -0.06805,0.177507 -2e-6,0.245552 l 0.198782,0.198782 c 0.06802,0.06802 0.177533,0.06802 0.245552,-2e-6 0.06802,-0.06802 0.06805,-0.177507 2e-6,-0.245552 L 13.09423,41.281047 c -0.06802,-0.06802 -0.177533,-0.06802 -0.245552,2e-6 z" /><path
     id="rect2045"
     style="fill:none;stroke:#899099;stroke-width:0.2"
     d="m 16.68263,39.334423 c -0.06802,0.06802 -0.06805,0.177507 -3e-6,0.245552 l 0.198782,0.198781 c 0.06802,0.06802 0.177541,0.06802 0.245559,5e-6 0.06802,-0.06802 0.06805,-0.177507 -5e-6,-0.245559 L 16.928182,39.33442 c -0.06802,-0.06802 -0.177534,-0.06802 -0.245552,3e-6 z" /><path
     id="rect2046"
     style="fill:none;stroke:#899099;stroke-width:0.2"
     d="m 15.7192,40.297852 c -0.06802,0.06802 -0.06805,0.177507 -2e-6,0.245552 l 0.198782,0.198782 c 0.06802,0.06802 0.17754,0.06802 0.245559,5e-6 0.06802,-0.06802 0.06805,-0.177507 -5e-6,-0.245559 L 15.964752,40.29785 c -0.06802,-0.06802 -0.177533,-0.06802 -0.245552,2e-6 z" /><path
     id="rect2047"
     style="fill:none;stroke:#899099;stroke-width:0.2"
     d="m 14.75577,41.261282 c -0.06802,0.06802 -0.06805,0.177507 -10e-7,0.245551 l 0.198781,0.198782 c 0.06802,0.06802 0.177541,0.06802 0.245559,6e-6 0.06802,-0.06802 0.06805,-0.177507 -5e-6,-0.245559 L 15.001322,41.26128 c -0.06802,-0.06802 -0.177533,-0.06802 -0.245552,2e-6 z" /><path
     id="rect2048"
     style="fill:none;stroke:#899099;stroke-width:0.2"
     d="m 13.792341,42.224712 c -0.06802,0.06802 -0.06805,0.177507 -3e-6,0.245552 l 0.198782,0.198781 c 0.06802,0.06802 0.177541,0.06802 0.245559,5e-6 0.06802,-0.06802 0.06805,-0.177507 -5e-6,-0.245559 l -0.198781,-0.198782 c -0.06802,-0.06802 -0.177534,-0.06802 -0.245552,3e-6 z" /><path
     id="rect2049"
     style="fill:none;stroke:#899099;stroke-width:0.2"
     d="m 17.626292,40.278085 c -0.06802,0.06802 -0.06805,0.177507 -2e-6,0.245552 l 0.198782,0.198782 c 0.06802,0.06802 0.17754,0.06802 0.245559,5e-6 0.06802,-0.06802 0.06805,-0.177507 -5e-6,-0.245559 l -0.198782,-0.198782 c -0.06802,-0.06802 -0.177533,-0.06802 -0.245552,2e-6 z" /><path
     id="rect2050"
     style="fill:none;stroke:#899099;stroke-width:0.2"
     d="m 16.662862,41.241514 c -0.06802,0.06802 -0.06805,0.177507 -2e-6,0.245552 l 0.198782,0.198782 c 0.06802,0.06802 0.177541,0.06802 0.245559,5e-6 0.06802,-0.06802 0.06805,-0.177507 -5e-6,-0.245559 l -0.198782,-0.198782 c -0.06802,-0.06802 -0.177533,-0.06802 -0.245552,2e-6 z" /><path
     id="rect2051"
     style="fill:none;stroke:#899099;stroke-width:0.2"
     d="m 15.699432,42.204944 c -0.06802,0.06802 -0.06805,0.177507 -10e-7,0.245552 l 0.198782,0.198782 c 0.06802,0.06802 0.17754,0.06802 0.245558,5e-6 0.06802,-0.06802 0.06805,-0.177507 -5e-6,-0.245559 l -0.198782,-0.198782 c -0.06802,-0.06802 -0.177533,-0.06802 -0.245552,2e-6 z" /><path
     id="rect2052"
     style="fill:none;stroke:#899099;stroke-width:0.2"
     d="m 14.736003,43.168374 c -0.06802,0.06802 -0.06805,0.177507 -2e-6,0.245552 l 0.198782,0.198782 c 0.06802,0.06802 0.17754,0.06802 0.245559,5e-6 0.06802,-0.06802 0.06805,-0.177507 -5e-6,-0.245559 l -0.198782,-0.198782 c -0.06802,-0.06802 -0.177533,-0.06802 -0.245552,2e-6 z" /><path
     id="rect2053"
     style="fill:none;stroke:#899099;stroke-width:0.2"
     d="m 18.569961,41.221754 c -0.06802,0.06802 -0.06805,0.177507 -2e-6,0.245552 l 0.198782,0.198782 c 0.06802,0.06802 0.17754,0.06802 0.245559,5e-6 0.06802,-0.06802 0.06805,-0.177507 -5e-6,-0.245559 l -0.198782,-0.198782 c -0.06802,-0.06802 -0.177533,-0.06802 -0.245552,2e-6 z" /><path
     id="rect2054"
     style="fill:none;stroke:#899099;stroke-width:0.2"
     d="m 17.606532,42.185184 c -0.06802,0.06802 -0.06805,0.177507 -2e-6,0.245552 l 0.198781,0.198782 c 0.06802,0.06802 0.177541,0.06802 0.24556,4e-6 0.06802,-0.06802 0.06805,-0.177507 -5e-6,-0.245559 l -0.198782,-0.198781 c -0.06802,-0.06802 -0.177534,-0.06802 -0.245552,2e-6 z" /><path
     id="rect2055"
     style="fill:none;stroke:#899099;stroke-width:0.2"
     d="m 16.643102,43.148614 c -0.06802,0.06802 -0.06805,0.177506 -2e-6,0.245551 l 0.198782,0.198782 c 0.06802,0.06802 0.17754,0.06802 0.245558,6e-6 0.06802,-0.06802 0.06805,-0.177508 -5e-6,-0.245559 l -0.198781,-0.198782 c -0.06802,-0.06802 -0.177534,-0.06802 -0.245552,2e-6 z" /><path
     id="rect2056"
     style="fill:none;stroke:#899099;stroke-width:0.2"
     d="m 15.679672,44.112043 c -0.06802,0.06802 -0.06805,0.177507 -2e-6,0.245552 l 0.198782,0.198782 c 0.06802,0.06802 0.17754,0.06802 0.245559,5e-6 0.06802,-0.06802 0.06805,-0.177507 -5e-6,-0.245559 l -0.198782,-0.198782 c -0.06802,-0.06802 -0.177533,-0.06802 -0.245552,2e-6 z" /><path
     id="rect2057"
     style="fill:none;stroke:#899099;stroke-width:0.2"
     d="m 19.513631,42.165424 c -0.06802,0.06802 -0.06805,0.177507 -3e-6,0.245552 l 0.198782,0.198781 c 0.06802,0.06802 0.177541,0.06802 0.245559,5e-6 0.06802,-0.06802 0.06805,-0.177507 -5e-6,-0.245559 l -0.198781,-0.198782 c -0.06802,-0.06802 -0.177534,-0.06802 -0.245552,3e-6 z" /><path
     id="rect2058"
     style="fill:none;stroke:#899099;stroke-width:0.2"
     d="m 18.550201,43.128853 c -0.06802,0.06802 -0.06805,0.177507 -2e-6,0.245552 l 0.198782,0.198782 c 0.06802,0.06802 0.17754,0.06802 0.245559,5e-6 0.06802,-0.06802 0.06805,-0.177507 -5e-6,-0.245559 l -0.198782,-0.198782 c -0.06802,-0.06802 -0.177533,-0.06802 -0.245552,2e-6 z" /><path
     id="rect2059"
     style="fill:none;stroke:#899099;stroke-width:0.2"
     d="m 17.586771,44.092283 c -0.06802,0.06802 -0.06805,0.177507 -10e-7,0.245551 l 0.198781,0.198782 c 0.06802,0.06802 0.177541,0.06802 0.245559,6e-6 0.06802,-0.06802 0.06805,-0.177507 -5e-6,-0.245559 l -0.198782,-0.198782 c -0.06802,-0.06802 -0.177533,-0.06802 -0.245552,2e-6 z" /><path
     id="rect2060"
     style="fill:none;stroke:#899099;stroke-width:0.2"
     d="m 16.623341,45.055713 c -0.06802,0.06802 -0.06805,0.177507 -2e-6,0.245552 l 0.198782,0.198781 c 0.06802,0.06802 0.177541,0.06802 0.245559,5e-6 0.06802,-0.06802 0.06805,-0.177507 -5e-6,-0.245559 L 16.868894,45.05571 c -0.06802,-0.06802 -0.177534,-0.06802 -0.245553,3e-6 z" /><path
     id="rect2061"
     style="fill:none;stroke:#899099;stroke-width:0.2"
     d="m 19.502858,44.08151 c -0.06802,0.06802 -0.06805,0.177507 -2e-6,0.245552 l 0.198782,0.198782 c 0.06802,0.06802 0.177533,0.06802 0.245552,-3e-6 0.06802,-0.06802 0.06805,-0.177507 2e-6,-0.245552 L 19.74841,44.081508 c -0.06802,-0.06802 -0.177533,-0.06802 -0.245552,2e-6 z" /><path
     id="rect2062"
     style="fill:none;stroke:#899099;stroke-width:0.2"
     d="m 18.539428,45.04494 c -0.06802,0.06802 -0.06805,0.177506 -2e-6,0.245551 l 0.198782,0.198782 c 0.06802,0.06802 0.177533,0.06802 0.245551,-10e-7 0.06802,-0.06802 0.06805,-0.177508 3e-6,-0.245552 L 18.78498,45.044938 c -0.06802,-0.06802 -0.177534,-0.06802 -0.245552,2e-6 z" /><path
     id="rect2063"
     style="fill:none;stroke:#899099;stroke-width:0.2"
     d="m 19.569712,45.111788 c -0.06802,0.06802 -0.06805,0.177507 -2e-6,0.245552 l 0.198782,0.198782 c 0.06802,0.06802 0.177533,0.06802 0.245552,-2e-6 0.06802,-0.06802 0.06805,-0.177507 2e-6,-0.245552 l -0.198782,-0.198782 c -0.06802,-0.06802 -0.177533,-0.06802 -0.245552,2e-6 z" /><path
     id="rect2064"
     style="fill:none;stroke:#899099;stroke-width:0.2"
     d="m 12.836507,38.378583 c -0.06802,0.06802 -0.06805,0.177507 -2e-6,0.245552 l 0.198782,0.198782 c 0.06802,0.06802 0.17754,0.06802 0.245559,5e-6 0.06802,-0.06802 0.06805,-0.177507 -5e-6,-0.245559 l -0.198782,-0.198782 c -0.06802,-0.06802 -0.177533,-0.06802 -0.245552,2e-6 z" /><path
     id="rect2065"
     style="fill:none;stroke:#899099;stroke-width:0.2"
     d="m 13.795688,41.264635 c -0.06802,0.06802 -0.06805,0.177507 -2e-6,0.245552 l 0.198782,0.198781 c 0.06802,0.06802 0.177533,0.06802 0.245552,-2e-6 0.06802,-0.06802 0.06805,-0.177507 2e-6,-0.245552 L 14.04124,41.264632 c -0.06802,-0.06802 -0.177533,-0.06802 -0.245552,3e-6 z" /><path
     id="rect2066"
     style="fill:none;stroke:#899099;stroke-width:0.2"
     d="m 14.759123,40.301199 c -0.06802,0.06802 -0.06805,0.177508 -2e-6,0.245552 l 0.198782,0.198782 c 0.06802,0.06802 0.177533,0.06802 0.245552,-2e-6 0.06802,-0.06802 0.06805,-0.177507 2e-6,-0.245552 l -0.198782,-0.198782 c -0.06802,-0.06802 -0.177533,-0.06802 -0.245552,2e-6 z" /><path
     id="rect2067"
     style="fill:none;stroke:#899099;stroke-width:0.2"
     d="m 15.722548,39.337775 c -0.06802,0.06802 -0.06805,0.177507 -3e-6,0.245552 l 0.198782,0.198782 c 0.06802,0.06802 0.177534,0.06802 0.245552,-2e-6 0.06802,-0.06802 0.06805,-0.177507 2e-6,-0.245552 L 15.9681,39.337773 c -0.06802,-0.06802 -0.177534,-0.06802 -0.245552,2e-6 z" /><path
     id="rect2068"
     style="fill:none;stroke:#899099;stroke-width:0.2"
     d="m 12.837445,40.306392 c -0.06802,0.06802 -0.06805,0.177507 -2e-6,0.245552 l 0.198782,0.198782 c 0.06802,0.06802 0.17754,0.06802 0.245559,5e-6 0.06802,-0.06802 0.06805,-0.177508 -5e-6,-0.24556 L 13.082997,40.30639 c -0.06802,-0.06802 -0.177533,-0.06802 -0.245552,2e-6 z" /><path
     id="rect2069"
     style="fill:none;stroke:#899099;stroke-width:0.2"
     d="m 13.80088,39.342957 c -0.06802,0.06802 -0.06805,0.177507 -2e-6,0.245552 l 0.198782,0.198781 c 0.06802,0.06802 0.17754,0.06802 0.245559,5e-6 0.06802,-0.06802 0.06805,-0.177507 -5e-6,-0.245559 l -0.198782,-0.198782 c -0.06802,-0.06802 -0.177533,-0.06802 -0.245552,3e-6 z" /><path
     id="rect2070"
     style="fill:none;stroke:#899099;stroke-width:0.2"
     d="m 12.871345,39.376857 c -0.06802,0.06802 -0.06805,0.177506 5e-6,0.245558 l 0.198782,0.198782 c 0.06802,0.06802 0.177533,0.06802 0.245551,-10e-7 0.06802,-0.06802 0.06805,-0.177508 2e-6,-0.245552 l -0.198781,-0.198782 c -0.06802,-0.06802 -0.177541,-0.06802 -0.245559,-5e-6 z" /><path
     id="rect2071"
     style="fill:none;stroke:#899099;stroke-width:0.2"
     d="m 13.83478,38.413422 c -0.06802,0.06802 -0.06805,0.177506 5e-6,0.245558 l 0.198782,0.198782 c 0.06802,0.06802 0.177533,0.06802 0.245551,-2e-6 0.06802,-0.06802 0.06805,-0.177507 3e-6,-0.245552 l -0.198782,-0.198781 c -0.06802,-0.06802 -0.177541,-0.06802 -0.245559,-5e-6 z" /><path
     id="rect2072"
     style="fill:none;stroke:#899099;stroke-width:0.2"
     d="m 14.764305,38.379532 c -0.06802,0.06802 -0.06805,0.177507 -2e-6,0.245552 l 0.198781,0.198782 c 0.06802,0.06802 0.177541,0.06802 0.24556,5e-6 0.06802,-0.06802 0.06805,-0.177507 -5e-6,-0.245559 L 15.009857,38.37953 c -0.06802,-0.06802 -0.177534,-0.06802 -0.245552,2e-6 z" /><path
     id="rect2073"
     style="fill:none;stroke:#899099;stroke-width:0.2"
     d="m 14.753924,42.22287 c -0.06802,0.06802 -0.06805,0.177507 5e-6,0.245559 l 0.198782,0.198782 c 0.06802,0.06802 0.177533,0.06802 0.245552,-2e-6 0.06802,-0.06802 0.06805,-0.177507 2e-6,-0.245552 l -0.198782,-0.198782 c -0.06802,-0.06802 -0.177541,-0.06802 -0.245559,-5e-6 z" /><path
     id="rect2074"
     style="fill:none;stroke:#899099;stroke-width:0.2"
     d="m 15.717359,41.259435 c -0.06802,0.06802 -0.06805,0.177507 5e-6,0.245559 l 0.198782,0.198782 c 0.06802,0.06802 0.177533,0.06802 0.245552,-2e-6 0.06802,-0.06802 0.06805,-0.177507 2e-6,-0.245552 L 15.962918,41.25944 c -0.06802,-0.06802 -0.17754,-0.06802 -0.245559,-5e-6 z" /><path
     id="rect2075"
     style="fill:none;stroke:#899099;stroke-width:0.2"
     d="m 16.680783,40.296011 c -0.06802,0.06802 -0.06805,0.177507 5e-6,0.245559 l 0.198782,0.198782 c 0.06802,0.06802 0.177533,0.06802 0.245552,-2e-6 0.06802,-0.06802 0.06805,-0.177508 2e-6,-0.245553 l -0.198782,-0.198781 c -0.06802,-0.06802 -0.17754,-0.06802 -0.245559,-5e-6 z" /><path
     id="rect2076"
     style="fill:none;stroke:#899099;stroke-width:0.2"
     d="m 15.712159,43.181106 c -0.06802,0.06802 -0.06805,0.177507 -2e-6,0.245552 l 0.198782,0.198782 c 0.06802,0.06802 0.177541,0.06802 0.245559,5e-6 0.06802,-0.06802 0.06805,-0.177507 -5e-6,-0.245559 l -0.198782,-0.198782 c -0.06802,-0.06802 -0.177533,-0.06802 -0.245552,2e-6 z" /><path
     id="rect2077"
     style="fill:none;stroke:#899099;stroke-width:0.2"
     d="m 16.675595,42.217671 c -0.06802,0.06802 -0.06805,0.177507 -3e-6,0.245552 l 0.198782,0.198782 c 0.06802,0.06802 0.177541,0.06802 0.245559,5e-6 0.06802,-0.06802 0.06805,-0.177507 -5e-6,-0.245559 l -0.198781,-0.198782 c -0.06802,-0.06802 -0.177534,-0.06802 -0.245552,2e-6 z" /><path
     id="rect2078"
     style="fill:none;stroke:#899099;stroke-width:0.2"
     d="m 17.639019,41.254246 c -0.06802,0.06802 -0.06805,0.177508 -2e-6,0.245552 l 0.198782,0.198782 c 0.06802,0.06802 0.17754,0.06802 0.245559,5e-6 0.06802,-0.06802 0.06805,-0.177507 -5e-6,-0.245559 l -0.198782,-0.198782 c -0.06802,-0.06802 -0.177533,-0.06802 -0.245552,2e-6 z" /><path
     id="rect2079"
     style="fill:none;stroke:#899099;stroke-width:0.2"
     d="m 16.670402,44.139349 c -0.06802,0.06802 -0.06805,0.177507 -2e-6,0.245552 l 0.198782,0.198782 c 0.06802,0.06802 0.177533,0.06802 0.245552,-2e-6 0.06802,-0.06802 0.06805,-0.177508 2e-6,-0.245552 l -0.198782,-0.198782 c -0.06802,-0.06802 -0.177533,-0.06802 -0.245552,2e-6 z" /><path
     id="rect2080"
     style="fill:none;stroke:#899099;stroke-width:0.2"
     d="m 17.633837,43.175914 c -0.06802,0.06802 -0.06805,0.177507 -2e-6,0.245552 l 0.198782,0.198782 c 0.06802,0.06802 0.177533,0.06802 0.245552,-2e-6 0.06802,-0.06802 0.06805,-0.177508 2e-6,-0.245553 l -0.198782,-0.198781 c -0.06802,-0.06802 -0.177533,-0.06802 -0.245552,2e-6 z" /><path
     id="rect2081"
     style="fill:none;stroke:#899099;stroke-width:0.2"
     d="m 18.597262,42.212489 c -0.06802,0.06802 -0.06805,0.177507 -2e-6,0.245552 l 0.198782,0.198782 c 0.06802,0.06802 0.177533,0.06802 0.245552,-2e-6 0.06802,-0.06802 0.06805,-0.177507 2e-6,-0.245552 l -0.198782,-0.198782 c -0.06802,-0.06802 -0.177533,-0.06802 -0.245552,2e-6 z" /><path
     id="rect2082"
     style="fill:none;stroke:#899099;stroke-width:0.2"
     d="m 17.628638,45.097585 c -0.06802,0.06802 -0.06805,0.177507 5e-6,0.245559 l 0.198782,0.198782 c 0.06802,0.06802 0.177533,0.06802 0.245552,-3e-6 0.06802,-0.06802 0.06805,-0.177507 2e-6,-0.245552 L 17.874197,45.09759 c -0.06802,-0.06802 -0.17754,-0.06802 -0.245559,-5e-6 z" /><path
     id="rect2083"
     style="fill:none;stroke:#899099;stroke-width:0.2"
     d="m 18.592073,44.13415 c -0.06802,0.06802 -0.06805,0.177507 5e-6,0.245559 l 0.198782,0.198781 c 0.06802,0.06802 0.177533,0.06802 0.245552,-2e-6 0.06802,-0.06802 0.06805,-0.177507 2e-6,-0.245552 l -0.198782,-0.198782 c -0.06802,-0.06802 -0.17754,-0.06802 -0.245559,-4e-6 z" /><path
     id="rect2084"
     style="fill:none;stroke:#899099;stroke-width:0.2"
     d="m 19.555498,43.170725 c -0.06802,0.06802 -0.06805,0.177507 5e-6,0.245559 l 0.198781,0.198782 c 0.06802,0.06802 0.177534,0.06802 0.245552,-2e-6 0.06802,-0.06802 0.06805,-0.177507 3e-6,-0.245552 L 19.801057,43.17073 c -0.06802,-0.06802 -0.177541,-0.06802 -0.245559,-5e-6 z" /><path
     style="fill:none;fill-opacity:1;stroke:#899099;stroke-width:0.2;stroke-linecap:butt;stroke-linejoin:miter;stroke-dasharray:none;stroke-opacity:1;paint-order:normal"
     d="M 48.802874,1.1704708 H 19.549879 C 15.247276,1.6908868 7.8882832,4.3576278 3.5425882,8.4961218 1.8844272,14.127581 0.97113219,20.141494 0.20222319,27.959533 c -0.422164,6.980815 0.465293,12.184287 2.66237001,15.610417 2.403679,3.675901 6.085797,5.886274 11.0463538,6.631119 2.144227,0.20395 4.442795,0.319705 6.895703,0.347266 h 37.058204"
     id="path2084" /><path
     style="fill:none;fill-opacity:1;stroke:#899099;stroke-width:0.2;stroke-linecap:butt;stroke-linejoin:miter;stroke-dasharray:none;stroke-opacity:1;paint-order:normal"
     d="m 19.549879,1.1704708 v -0.702004 c -0.23698,-0.327405 -0.67664,-0.43654 -1.318979,-0.327405 -5.112427,1.027144 -9.4621308,2.75445 -12.9792758,5.507421 -0.263385,0.244011 -0.415329,0.55454 -0.432644,0.783434 v 0.955741"
     id="path2085" /><path
     style="fill:none;fill-opacity:1;stroke:#899099;stroke-width:0.2;stroke-linecap:butt;stroke-linejoin:miter;stroke-dasharray:none;stroke-opacity:1;paint-order:normal"
     d="m 5.2516242,5.6484828 c 0.947056,-1.895927 2.144966,-3.631997 6.2188378,-3.535346"
     id="path2086" /><path
     style="fill:none;fill-opacity:1;stroke:#899099;stroke-width:0.2;stroke-linecap:butt;stroke-linejoin:miter;stroke-dasharray:none;stroke-opacity:1;paint-order:normal"
     d="m 19.549879,1.1704708 v -0.702004 c -0.23698,-0.327405 -0.67664,-0.43654 -1.318979,-0.327405 -5.112427,1.027144 -9.4621308,2.75445 -12.9792758,5.507421 -0.263385,0.244011 -0.415329,0.55454 -0.432644,0.783434 v 0.955741"
     id="path2088" /><path
     style="fill:none;fill-opacity:1;stroke:#899099;stroke-width:0.2;stroke-linecap:butt;stroke-linejoin:miter;stroke-dasharray:none;stroke-opacity:1;paint-order:normal"
     d="m 5.2516242,5.6484828 c 0.947056,-1.895927 2.144966,-3.631997 6.2188378,-3.535346"
     id="path2089" /><path
     style="fill:none;fill-opacity:1;stroke:#899099;stroke-width:0.2;stroke-linecap:butt;stroke-linejoin:miter;stroke-dasharray:none;stroke-opacity:1;paint-order:normal"
     d="m 2.0583152,14.566545 7.074829,7.074828 v 13.139449 l 2.8684588,2.868459 v 4.3249 l 8.571251,8.571252"
     id="path2090" /><path
     style="fill:none;fill-opacity:1;stroke:#899099;stroke-width:0.2;stroke-linecap:butt;stroke-linejoin:miter;stroke-dasharray:none;stroke-opacity:1;paint-order:normal"
     d="m 95.126234,50.548335 c 2.45291,-0.02756 4.75148,-0.143316 6.895706,-0.347266 4.96055,-0.744845 8.64267,-2.955218 11.04635,-6.631119 2.19708,-3.42613 3.08454,-8.629602 2.66237,-15.610417 -0.76891,-7.818039 -1.6822,-13.831952 -3.34036,-19.4634112 -4.3457,-4.138494 -11.70469,-6.805235 -16.007296,-7.325651 h -38.41656 -38.41657 c -4.3026,0.520416 -11.6615898,3.187157 -16.0072898,7.325651 -1.65816,5.6314592 -2.57145001,11.6453722 -3.34036001,19.4634112 -0.42217,6.980815 0.46529,12.184287 2.66237001,15.610417 2.40368,3.675901 6.0858,5.886274 11.0463498,6.631119 2.14423,0.20395 4.4428,0.319705 6.89571,0.347266 h 37.15979 z"
     id="path2091" /><path
     style="fill:none;fill-opacity:1;stroke:#899099;stroke-width:0.2;stroke-linecap:butt;stroke-linejoin:miter;stroke-dasharray:none;stroke-opacity:1;paint-order:normal"
     d="m 96.383004,1.1704708 v -0.702004 c 0.23698,-0.327405 0.67664,-0.43654 1.31898,-0.327405 5.112426,1.027144 9.462126,2.75445 12.979276,5.507421 0.26338,0.244011 0.41533,0.55454 0.43264,0.783434 v 0.955741"
     id="path2092" /><path
     style="fill:none;fill-opacity:1;stroke:#899099;stroke-width:0.2;stroke-linecap:butt;stroke-linejoin:miter;stroke-dasharray:none;stroke-opacity:1;paint-order:normal"
     d="m 110.68126,5.6484828 c -0.94706,-1.895927 -2.14497,-3.631997 -6.21884,-3.535346"
     id="path2093" /><path
     style="fill:none;fill-opacity:1;stroke:#899099;stroke-width:0.2;stroke-linecap:butt;stroke-linejoin:miter;stroke-dasharray:none;stroke-opacity:1;paint-order:normal"
     d="m 113.87457,14.566545 -7.07483,7.074828 v 13.139449 l -2.86846,2.868459 v 4.3249 l -8.571246,8.571252"
     id="path2094" /><path
     style="fill:none;fill-opacity:1;stroke:#899099;stroke-width:0.2;stroke-linecap:butt;stroke-linejoin:miter;stroke-dasharray:none;stroke-opacity:1;paint-order:normal"
     d="m 75.281254,1.1704708 c -0.36077,-0.841254 2.67208,-0.847403 2.43215,0"
     id="path2095" /><path
     style="fill:none;fill-opacity:1;stroke:#899099;stroke-width:0.2;stroke-linecap:butt;stroke-linejoin:miter;stroke-dasharray:none;stroke-opacity:1;paint-order:normal"
     d="m 79.938574,1.1704708 c -0.36077,-0.841254 2.67208,-0.847403 2.43215,0"
     id="path2096" /></svg>
