<svg width="129.85mm" height="52.456mm" version="1.1" viewBox="0 0 129.85 52.456" xml:space="preserve" xmlns="http://www.w3.org/2000/svg" xmlns:xlink="http://www.w3.org/1999/xlink"><defs><clipPath id="clipPath18"><path d="m0 0h1217.9v685.09h-1217.9z"/></clipPath><clipPath id="clipPath22"><path d="m0 0h1217.9v685.09h-1217.9z"/></clipPath><clipPath id="clipPath28"><path d="m0 0h1217.9v685.09h-1217.9z"/></clipPath><clipPath id="clipPath30"><path d="m0 0h1217.9v685.09h-1217.9z"/></clipPath><clipPath id="clipPath34"><path d="m0 0h1217.9v685.09h-1217.9z"/></clipPath><clipPath id="clipPath36"><path d="m0 0h1217.9v685.09h-1217.9z"/></clipPath><clipPath id="clipPath38"><path d="m0 0h1217.9v685.09h-1217.9z"/></clipPath><clipPath id="clipPath40"><path d="m0 0h1217.9v685.09h-1217.9z"/></clipPath><clipPath id="clipPath42"><path d="m0 0h1217.9v685.09h-1217.9z"/></clipPath><clipPath id="clipPath44"><path d="m0 0h1217.9v685.09h-1217.9z"/></clipPath><clipPath id="clipPath46"><path d="m0 0h1217.9v685.09h-1217.9z"/></clipPath><clipPath id="clipPath48"><path d="m0 0h1217.9v685.09h-1217.9z"/></clipPath><clipPath id="clipPath58"><path d="m0 0h1217.9v685.09h-1217.9z"/></clipPath><clipPath id="clipPath60"><path d="m0 0h1217.9v685.09h-1217.9z"/></clipPath><clipPath id="clipPath62"><path d="m0 0h1217.9v685.09h-1217.9z"/></clipPath><clipPath id="clipPath64"><path d="m0 0h1217.9v685.09h-1217.9z"/></clipPath><clipPath id="clipPath66"><path d="m0 0h1217.9v685.09h-1217.9z"/></clipPath><clipPath id="clipPath70"><path d="m0 0h1217.9v685.09h-1217.9z"/></clipPath><clipPath id="clipPath74"><path d="m0 0h1217.9v685.09h-1217.9z"/></clipPath><clipPath id="clipPath84"><path d="m0 0h1217.9v685.09h-1217.9z"/></clipPath><clipPath id="clipPath86"><path d="m0 0h1217.9v685.09h-1217.9z"/></clipPath><clipPath id="clipPath88"><path d="m0 0h1217.9v685.09h-1217.9z"/></clipPath><clipPath id="clipPath90"><path d="m0 0h1217.9v685.09h-1217.9z"/></clipPath><clipPath id="clipPath92"><path d="m0 0h1217.9v685.09h-1217.9z"/></clipPath><clipPath id="clipPath94"><path d="m0 0h1217.9v685.09h-1217.9z"/></clipPath><clipPath id="clipPath96"><path d="m0 0h1217.9v685.09h-1217.9z"/></clipPath><clipPath id="clipPath102"><path d="m0 0h1217.9v685.09h-1217.9z"/></clipPath><clipPath id="clipPath104"><path d="m0 0h1217.9v685.09h-1217.9z"/></clipPath><clipPath id="clipPath106"><path d="m0 0h1217.9v685.09h-1217.9z"/></clipPath><clipPath id="clipPath108"><path d="m0 0h1217.9v685.09h-1217.9z"/></clipPath><clipPath id="clipPath110"><path d="m0 0h1217.9v685.09h-1217.9z"/></clipPath><clipPath id="clipPath112"><path d="m0 0h1217.9v685.09h-1217.9z"/></clipPath><clipPath id="clipPath114"><path d="m0 0h1217.9v685.09h-1217.9z"/></clipPath><clipPath id="clipPath116"><path d="m0 0h1217.9v685.09h-1217.9z"/></clipPath><clipPath id="clipPath118"><path d="m0 0h1217.9v685.09h-1217.9z"/></clipPath><clipPath id="clipPath120"><path d="m0 0h1217.9v685.09h-1217.9z"/></clipPath><clipPath id="clipPath122"><path d="m0 0h1217.9v685.09h-1217.9z"/></clipPath><clipPath id="clipPath124"><path d="m0 0h1217.9v685.09h-1217.9z"/></clipPath><clipPath id="clipPath126"><path d="m0 0h1217.9v685.09h-1217.9z"/></clipPath><clipPath id="clipPath342"><path transform="translate(-55.128 -635.89)" d="m0 0h1217.9v685.09h-1217.9z"/></clipPath><clipPath id="clipPath344"><path transform="translate(-55.129 -500.98)" d="m0 0h1217.9v685.09h-1217.9z"/></clipPath></defs><g transform="translate(-45.048 -193.22)"><g transform="matrix(.26458 0 0 .26458 -110.06 27.588)"><g fill="none" stroke="#899099"><path transform="matrix(1.3333 0 0 -1.3333 0 913.46)" d="m742.83 210.46 0.661 2.98c0.05 0.229 0.254 0.39 0.487 0.387l1.937-0.027 2.056-0.041 1.997-0.053 1.938-0.062 1.879-0.075 1.82-0.084 1.761-0.094 1.702-0.105 1.54-0.106 0.309-0.024 0.413-0.031 0.407-0.032 0.4-0.032 0.394-0.033 0.388-0.033 0.382-0.033 0.376-0.034 0.371-0.034 0.365-0.035 0.36-0.035 0.355-0.035 0.35-0.035 0.345-0.036 0.34-0.036 0.335-0.036 0.331-0.038 0.326-0.037 0.322-0.037 0.319-0.037 0.314-0.038 0.31-0.038 0.306-0.039 0.302-0.038 0.3-0.039 0.295-0.039 0.291-0.039 0.289-0.04 0.284-0.04 0.282-0.041 0.279-0.04 0.275-0.041 0.272-0.041 0.269-0.041 0.266-0.041 0.263-0.041 0.261-0.042 0.258-0.042 0.254-0.042 0.253-0.043 0.249-0.042 0.247-0.043 0.245-0.043 0.242-0.042 0.239-0.043 0.238-0.044 0.234-0.044 0.233-0.043 0.23-0.045 0.228-0.044 0.226-0.044 0.224-0.045 0.221-0.045 0.22-0.045 0.217-0.045 0.216-0.045 0.213-0.046 0.212-0.045 0.209-0.045 0.208-0.046 0.206-0.046 0.204-0.046 0.202-0.047 0.201-0.046 0.198-0.047 0.197-0.047 0.196-0.047 0.194-0.046 0.191-0.047 0.191-0.048 0.189-0.047 0.187-0.048 0.186-0.048 0.184-0.048 0.182-0.047 0.181-0.048 0.18-0.048 0.178-0.049 0.177-0.048 0.175-0.049 0.175-0.048 0.344-0.098 0.17-0.049 0.336-0.098 0.166-0.049 0.164-0.049 0.164-0.05 0.162-0.049 0.161-0.05 0.16-0.049 0.159-0.05 0.314-0.1 0.155-0.051 0.153-0.049 0.153-0.05 0.152-0.051 0.15-0.05 0.15-0.051 0.148-0.049 0.148-0.051 0.146-0.051 0.145-0.051 0.144-0.051 0.143-0.05 0.142-0.051 0.282-0.102 0.139-0.05 0.138-0.052 0.274-0.102 0.135-0.052 0.135-0.051 0.134-0.051 0.264-0.104 0.131-0.05 0.131-0.052 0.258-0.104 0.127-0.051 0.128-0.052 0.126-0.052 0.125-0.053 0.125-0.051 0.124-0.052 0.123-0.053 0.122-0.052 0.121-0.051 0.121-0.053 0.12-0.052 0.119-0.052 0.118-0.052 0.234-0.104 0.115-0.053 0.115-0.051 0.114-0.052 0.226-0.104 0.111-0.051 0.111-0.052 0.11-0.052 0.109-0.052 0.108-0.051 0.107-0.052 0.107-0.051 0.105-0.052 0.105-0.051 0.104-0.05 0.103-0.051 0.102-0.051 0.101-0.051 0.2-0.1 0.196-0.1 0.097-0.05 0.096-0.05 0.282-0.147 0.092-0.049 0.091-0.048 0.18-0.096 0.088-0.047 0.088-0.048 0.172-0.094 0.085-0.047 0.084-0.046 0.166-0.092 0.081-0.045 0.081-0.046 0.158-0.09 0.079-0.044 0.077-0.045 0.152-0.088 0.075-0.043 0.148-0.086 0.072-0.043 0.072-0.042 0.071-0.043 0.071-0.041 0.069-0.042 0.069-0.041 0.068-0.041 0.067-0.04 0.066-0.041 0.066-0.039 0.065-0.04 0.064-0.039 0.063-0.039 0.063-0.038 0.062-0.039 0.061-0.037 0.06-0.038 0.06-0.037 0.059-0.037 0.058-0.038 0.058-0.036 0.114-0.072 0.056-0.036 0.11-0.07 0.054-0.036 0.054-0.034 0.053-0.035 0.053-0.034 0.052-0.033 0.102-0.068 0.051-0.033 0.05-0.033 0.049-0.032 0.049-0.033 0.096-0.064 0.047-0.031 0.047-0.032 1.094-0.758 0.064-0.046 0.573-0.424 0.035-0.027 0.017-0.013 0.015-0.012 0.014-0.012 0.014-0.01 0.013-0.01 0.012-0.011 0.012-0.01 0.013-0.011 0.014-0.012 0.014-0.013 0.017-0.015 0.019-0.019 0.021-0.022 0.022-0.026 0.024-0.028 0.024-0.033 0.024-0.035 0.022-0.038 0.021-0.04 0.019-0.042 0.016-0.042 0.015-0.044 0.012-0.046 9e-3 -0.047 7e-3 -0.049 4e-3 -0.049 1e-3 -0.051-2e-3 -0.05-5e-3 -0.052-4e-3 -0.025-0.523-3.127c-11.895 9.2581-31.167 13.044-55.966 12.728z" clip-path="url(#clipPath18)"/><path transform="matrix(1.3333 0 0 -1.3333 0 913.46)" d="m504.6 210.46-0.661 2.98c-0.05 0.229-0.254 0.39-0.487 0.387l-1.937-0.027-2.056-0.041-1.997-0.053-1.938-0.062-1.879-0.075-1.82-0.084-1.761-0.094-1.702-0.105-1.54-0.106-0.309-0.024-0.413-0.031-0.407-0.032-0.4-0.032-0.394-0.033-0.388-0.033-0.382-0.033-0.376-0.034-0.371-0.034-0.365-0.035-0.36-0.035-0.355-0.035-0.35-0.035-0.345-0.036-0.34-0.036-0.335-0.036-0.331-0.038-0.326-0.037-0.322-0.037-0.319-0.037-0.314-0.038-0.31-0.038-0.306-0.039-0.302-0.038-0.299-0.039-0.296-0.039-0.291-0.039-0.289-0.04-0.284-0.04-0.282-0.041-0.279-0.04-0.275-0.041-0.272-0.041-0.269-0.041-0.266-0.041-0.263-0.041-0.261-0.042-0.258-0.042-0.254-0.042-0.253-0.043-0.249-0.042-0.247-0.043-0.245-0.043-0.242-0.042-0.239-0.043-0.237-0.044-0.235-0.044-0.233-0.043-0.23-0.045-0.228-0.044-0.226-0.044-0.224-0.045-0.221-0.045-0.22-0.045-0.217-0.045-0.216-0.045-0.213-0.046-0.212-0.045-0.209-0.045-0.208-0.046-0.206-0.046-0.204-0.046-0.202-0.047-0.201-0.046-0.198-0.047-0.197-0.047-0.196-0.047-0.194-0.046-0.191-0.047-0.191-0.048-0.189-0.047-0.187-0.048-0.37-0.096-0.182-0.047-0.181-0.048-0.18-0.048-0.178-0.049-0.177-0.048-0.175-0.049-0.175-0.048-0.344-0.098-0.17-0.049-0.336-0.098-0.166-0.049-0.164-0.049-0.164-0.05-0.162-0.049-0.161-0.05-0.16-0.049-0.159-0.05-0.157-0.05-0.156-0.05-0.156-0.051-0.153-0.049-0.153-0.05-0.152-0.051-0.15-0.05-0.15-0.051-0.148-0.049-0.148-0.051-0.146-0.051-0.145-0.051-0.144-0.051-0.143-0.05-0.142-0.051-0.282-0.102-0.139-0.05-0.138-0.052-0.274-0.102-0.135-0.052-0.135-0.051-0.134-0.051-0.264-0.104-0.131-0.05-0.131-0.052-0.258-0.104-0.127-0.051-0.128-0.052-0.126-0.052-0.125-0.053-0.125-0.051-0.124-0.052-0.123-0.053-0.122-0.052-0.121-0.051-0.121-0.053-0.12-0.052-0.119-0.052-0.118-0.052-0.234-0.104-0.115-0.053-0.115-0.051-0.114-0.052-0.226-0.104-0.111-0.051-0.111-0.052-0.11-0.052-0.109-0.052-0.108-0.051-0.107-0.052-0.107-0.051-0.105-0.052-0.105-0.051-0.104-0.05-0.103-0.051-0.102-0.051-0.101-0.051-0.2-0.1-0.196-0.1-0.097-0.05-0.096-0.05-0.282-0.147-0.092-0.049-0.091-0.048-0.18-0.096-0.088-0.047-0.088-0.048-0.172-0.094-0.085-0.047-0.084-0.046-0.166-0.092-0.081-0.045-0.081-0.046-0.158-0.09-0.079-0.044-0.077-0.045-0.152-0.088-0.075-0.043-0.148-0.086-0.072-0.043-0.072-0.042-0.071-0.043-0.071-0.041-0.069-0.042-0.069-0.041-0.068-0.041-0.067-0.04-0.066-0.041-0.066-0.039-0.065-0.04-0.064-0.039-0.063-0.039-0.063-0.038-0.062-0.039-0.061-0.037-0.06-0.038-0.06-0.037-0.059-0.037-0.058-0.038-0.058-0.036-0.114-0.072-0.056-0.036-0.11-0.07-0.054-0.036-0.054-0.034-0.053-0.035-0.053-0.034-0.052-0.033-0.102-0.068-0.051-0.033-0.05-0.033-0.049-0.032-0.049-0.033-0.096-0.064-0.047-0.031-0.047-0.032-1.094-0.758-0.064-0.046-0.573-0.424-0.035-0.027-0.017-0.013-0.015-0.012-0.014-0.012-0.014-0.01-0.013-0.01-0.012-0.011-0.012-0.01-0.013-0.011-0.014-0.012-0.014-0.013-0.017-0.015-0.019-0.019-0.021-0.022-0.022-0.026-0.024-0.028-0.024-0.033-0.024-0.035-0.022-0.038-0.021-0.04-0.019-0.042-0.016-0.042-0.015-0.044-0.012-0.046-9e-3 -0.047-7e-3 -0.049-4e-3 -0.049-1e-3 -0.051 2e-3 -0.05 5e-3 -0.052 4e-3 -0.025 0.523-3.127c13.814 10.877 34.293 12.62 55.966 12.728" clip-path="url(#clipPath22)"/><path transform="matrix(1.3333 0 0 -1.3333 0 913.46)" d="m807.74 134.94c-0.021 2.396-0.075 4.793-0.135 7.189-0.059 2.396-0.124 4.792-0.209 7.188-0.084 2.395-0.188 4.79-0.317 7.184-0.128 2.393-0.281 4.785-0.469 7.174-0.376 4.78-0.895 9.547-1.536 14.298s-1.403 9.485-2.216 14.209c-0.125 0.724-0.35 1.439-0.693 2.093s-0.803 1.249-1.345 1.745l-2.602 2.023c-1.448 1.121-2.953 2.17-4.52 3.123-2.283 1.388-4.697 2.566-7.185 3.546-3.572 1.408-7.297 2.407-11.063 3.154-2.368 0.47-4.753 0.84-7.146 1.141-2.71 0.342-5.431 0.596-8.155 0.793l-0.096 7e-3c-5.244 0.376-10.504 0.547-15.762 0.61-1.837 0.022-3.674 0.031-5.51 0.031v0.035h-230.13v-0.035c-1.837 0-3.674-9e-3 -5.51-0.031-5.259-0.063-10.518-0.234-15.763-0.61l-0.095-7e-3c-2.725-0.197-5.446-0.451-8.156-0.793-2.393-0.301-4.777-0.671-7.146-1.141-3.765-0.747-7.491-1.746-11.063-3.154-2.488-0.98-4.901-2.158-7.185-3.546-1.566-0.953-3.071-2.002-4.52-3.123l-2.602-2.023c-0.541-0.496-1.001-1.091-1.344-1.745s-0.569-1.369-0.693-2.093c-0.813-4.724-1.576-9.458-2.217-14.209-0.64-4.751-1.159-9.518-1.535-14.298-0.189-2.389-0.341-4.781-0.47-7.174-0.128-2.394-0.233-4.789-0.317-7.184-0.085-2.396-0.149-4.792-0.209-7.188-0.059-2.396-0.113-4.793-0.134-7.189-0.017-1.701-0.01-3.403 0.021-5.104l0.078-2.817c0.121-3.298 0.344-6.593 0.687-9.876s0.806-6.555 1.427-9.795c0.726-3.782 1.666-7.526 2.898-11.182 1.231-3.655 2.753-7.221 4.66-10.563l0.334-0.607c1.782-3.023 3.914-5.875 6.407-8.353 1.281-1.271 2.657-2.445 4.121-3.499 1.471-1.058 3.03-1.994 4.658-2.79 1.617-0.791 3.302-1.444 5.027-1.955 0.852-0.253 1.713-0.471 2.581-0.656 0.856-0.183 1.719-0.334 2.586-0.454 0.852-0.119 1.709-0.208 2.567-0.269 0.84-0.059 1.682-0.091 2.525-0.104 0.822-0.013 1.645-9e-3 2.467-5e-3 0.802 3e-3 140.17 5e-3 140.98 5e-3l0.01 0.268v-0.268c0.802 0 140.18-2e-3 140.98-5e-3 0.823-4e-3 1.645-8e-3 2.468 5e-3 0.842 0.013 1.684 0.045 2.525 0.104 0.858 0.061 1.714 0.15 2.566 0.269 0.868 0.12 1.731 0.271 2.587 0.454 0.868 0.185 1.729 0.403 2.58 0.656 1.725 0.511 3.411 1.164 5.028 1.955 1.628 0.796 3.187 1.732 4.657 2.79 1.464 1.054 2.84 2.228 4.121 3.499 2.494 2.478 4.626 5.33 6.407 8.353l0.335 0.607c1.907 3.342 3.429 6.908 4.66 10.563 1.231 3.656 2.171 7.4 2.897 11.182 0.622 3.24 1.085 6.512 1.428 9.795s0.566 6.578 0.687 9.876l0.078 2.817c0.03 1.701 0.037 3.403 0.021 5.104" clip-path="url(#clipPath28)"/><path transform="matrix(1.3333 0 0 -1.3333 0 913.46)" d="m807.72 134.94c-0.021 2.396-0.075 4.793-0.135 7.189-0.059 2.396-0.124 4.792-0.209 7.188-0.084 2.395-0.188 4.79-0.317 7.184-0.129 2.393-0.281 4.785-0.469 7.174-0.376 4.78-0.895 9.547-1.536 14.298s-1.403 9.485-2.216 14.209v1e-3c-0.105 0.091-0.211 0.182-0.316 0.273-1.082 0.927-2.195 1.822-3.338 2.673l-0.588 0.432-0.272 0.195c-0.466 0.334-0.938 0.662-1.415 0.982-1.657 1.11-3.377 2.129-5.149 3.045l-0.221 0.112c-0.692 0.355-1.393 0.692-2.101 1.015-2.368 1.08-4.82 1.985-7.311 2.736l-1.361 0.395c-2.868 0.798-5.788 1.413-8.727 1.898-3.666 0.606-7.362 1.012-11.064 1.306l-0.846 0.064c-1.628 0.122-3.258 0.222-4.888 0.306-4.986 0.255-9.979 0.35-14.971 0.365l-0.108 2e-3 -0.102-1e-3h-0.32l-0.227 1e-3h-0.619l-111.71 1e-3h-3.562l-115.13-1e-3h-0.619l-0.227-1e-3h-0.321l-0.102 1e-3 -0.108-2e-3c-4.991-0.015-9.985-0.11-14.97-0.365-1.631-0.084-3.26-0.184-4.888-0.306l-0.846-0.064c-3.702-0.294-7.398-0.7-11.065-1.306-2.939-0.485-5.858-1.1-8.726-1.898l-1.361-0.395c-2.492-0.751-4.943-1.656-7.312-2.736-0.708-0.323-1.408-0.66-2.101-1.015l-0.22-0.112c-1.772-0.916-3.493-1.935-5.15-3.045-0.477-0.32-0.948-0.648-1.415-0.982l-0.271-0.195-0.588-0.432c-1.144-0.851-2.256-1.746-3.338-2.673-0.106-0.091-0.211-0.182-0.316-0.273v-1e-3c-0.813-4.724-1.576-9.458-2.217-14.209-0.64-4.751-1.159-9.518-1.535-14.298-0.189-2.389-0.341-4.781-0.47-7.174-0.128-2.394-0.233-4.789-0.317-7.184-0.085-2.396-0.149-4.792-0.209-7.188-0.059-2.396-0.113-4.793-0.134-7.189-0.017-1.701-0.01-3.403 0.021-5.104l0.078-2.817c0.121-3.298 0.344-6.593 0.687-9.876s0.805-6.555 1.427-9.795c0.726-3.782 1.666-7.526 2.898-11.182 1.231-3.655 2.753-7.221 4.66-10.563l0.334-0.607c1.782-3.023 3.914-5.875 6.407-8.353 1.281-1.271 2.657-2.445 4.121-3.499 1.471-1.058 3.03-1.994 4.658-2.79 1.617-0.791 3.302-1.444 5.027-1.955 0.852-0.253 1.713-0.471 2.581-0.656 0.856-0.183 1.719-0.334 2.586-0.454 0.852-0.119 1.709-0.208 2.567-0.269 0.84-0.059 1.682-0.091 2.525-0.104 0.822-0.013 1.645-9e-3 2.467-5e-3 0.802 3e-3 140.17 5e-3 140.98 5e-3l0.01 0.414v-0.414c0.802 0 140.18-2e-3 140.98-5e-3 0.823-4e-3 1.645-8e-3 2.468 5e-3 0.842 0.013 1.684 0.045 2.525 0.104 0.858 0.061 1.714 0.15 2.566 0.269 0.868 0.12 1.731 0.271 2.587 0.454 0.868 0.185 1.729 0.403 2.58 0.656 1.725 0.511 3.411 1.164 5.028 1.955 1.628 0.796 3.187 1.732 4.657 2.79 1.464 1.054 2.84 2.228 4.121 3.499 2.494 2.478 4.626 5.33 6.407 8.353l0.335 0.607c1.907 3.342 3.429 6.908 4.66 10.563 1.231 3.656 2.171 7.4 2.897 11.182 0.622 3.24 1.085 6.512 1.428 9.795s0.566 6.578 0.687 9.876l0.078 2.817c0.03 1.701 0.037 3.403 0.021 5.104" clip-path="url(#clipPath30)"/><path transform="matrix(1.3333 0 0 -1.3333 0 913.46)" d="m751.77 89.758c0 4.63 3.753 8.383 8.383 8.383s8.383-3.753 8.383-8.383-3.753-8.383-8.383-8.383-8.383 3.753-8.383 8.383" clip-path="url(#clipPath34)"/><path transform="matrix(1.3333 0 0 -1.3333 0 913.46)" d="m752.52 89.758c0 4.217 3.418 7.635 7.635 7.635 4.216 0 7.634-3.418 7.634-7.635 0-4.216-3.418-7.635-7.634-7.635-4.217 0-7.635 3.419-7.635 7.635" clip-path="url(#clipPath36)"/><path transform="matrix(1.3333 0 0 -1.3333 0 913.46)" d="m736.01 75.787h-224.57c-1.85 0-3.349 1.5-3.349 3.35v121.51c0 1.85 1.499 3.35 3.349 3.35h224.57c1.85 0 3.349-1.5 3.349-3.35v-121.51c0-1.85-1.499-3.35-3.349-3.35" clip-path="url(#clipPath38)"/><path transform="matrix(1.3333 0 0 -1.3333 0 913.46)" d="m764.18 188.88c0 3.223 2.613 5.835 5.835 5.835 3.223 0 5.836-2.612 5.836-5.835s-2.613-5.835-5.836-5.835c-3.222 0-5.835 2.612-5.835 5.835" clip-path="url(#clipPath40)"/><path transform="matrix(1.3333 0 0 -1.3333 0 913.46)" d="m751.36 176.05c0 3.223 2.613 5.835 5.835 5.835 3.223 0 5.835-2.612 5.835-5.835s-2.612-5.835-5.835-5.835c-3.222 0-5.835 2.612-5.835 5.835" clip-path="url(#clipPath42)"/><path transform="matrix(1.3333 0 0 -1.3333 0 913.46)" d="m777.04 176.05c0 3.223 2.612 5.835 5.835 5.835s5.835-2.612 5.835-5.835-2.612-5.835-5.835-5.835-5.835 2.612-5.835 5.835" clip-path="url(#clipPath44)"/><path transform="matrix(1.3333 0 0 -1.3333 0 913.46)" d="m764.16 163.23c0 3.223 2.613 5.836 5.835 5.836 3.223 0 5.835-2.613 5.835-5.836s-2.612-5.835-5.835-5.835c-3.222 0-5.835 2.612-5.835 5.835" clip-path="url(#clipPath46)"/><path transform="matrix(1.3333 0 0 -1.3333 0 913.46)" d="m523.97 83.493h199.51v112.8h-199.51z" clip-path="url(#clipPath48)"/><path transform="matrix(1.3333 0 0 -1.3333 0 913.46)" d="m774.9 89.758c0 2.747 2.227 4.974 4.974 4.974s4.974-2.227 4.974-4.974-2.227-4.974-4.974-4.974-4.974 2.227-4.974 4.974" clip-path="url(#clipPath58)"/><path transform="matrix(1.3333 0 0 -1.3333 0 913.46)" d="m755.22 129.21c0 8.171 6.623 14.794 14.794 14.794 8.17 0 14.793-6.623 14.793-14.794 0-8.17-6.623-14.793-14.793-14.793-8.171 0-14.794 6.623-14.794 14.793" clip-path="url(#clipPath60)"/><path transform="matrix(1.3333 0 0 -1.3333 0 913.46)" d="m757.69 129.21c0 6.807 5.517 12.324 12.323 12.324 6.806 1e-3 12.324-5.516 12.325-12.323v-1e-3c0-6.806-5.517-12.323-12.323-12.323-6.806-1e-3 -12.325 5.516-12.325 12.322" clip-path="url(#clipPath62)"/><path transform="matrix(1.3333 0 0 -1.3333 0 913.46)" d="m458.84 125.37c0.339-1.642 1.785-2.819 3.461-2.819h6.914c0.862 0 1.561-0.7 1.561-1.562v-6.914c0-1.677 1.178-3.122 2.82-3.461 2.531-0.522 5.143-0.522 7.675 0 1.642 0.339 2.819 1.784 2.819 3.461v6.914c0 0.862 0.699 1.562 1.562 1.562h6.913c1.677 0 3.122 1.177 3.461 2.819 0.523 2.531 0.523 5.144 0 7.675-0.339 1.641-1.784 2.819-3.461 2.819h-6.913c-0.863 0-1.562 0.699-1.562 1.562v6.914c0 1.675-1.177 3.122-2.819 3.461-2.532 0.522-5.144 0.522-7.675 0-1.642-0.339-2.82-1.786-2.82-3.461v-6.914c0-0.863-0.699-1.562-1.561-1.562h-6.914c-1.676 0-3.122-1.178-3.461-2.819-0.522-2.531-0.522-5.144 0-7.675" clip-path="url(#clipPath64)"/><path transform="matrix(1.3333 0 0 -1.3333 0 913.46)" d="m467.57 94.854h23.012c2.814 0 5.096-2.281 5.096-5.096 0-2.814-2.282-5.095-5.096-5.095h-23.012c-2.814 0-5.095 2.281-5.095 5.095 0 2.815 2.281 5.096 5.095 5.096" clip-path="url(#clipPath66)"/><path transform="matrix(1.3333 0 0 -1.3333 0 913.46)" d="m462.63 176.07c0 8.171 6.623 14.794 14.794 14.794 8.17 0 14.793-6.623 14.793-14.794 0-8.17-6.623-14.793-14.793-14.793-8.171 0-14.794 6.623-14.794 14.793" clip-path="url(#clipPath70)"/><path transform="matrix(1.3333 0 0 -1.3333 0 913.46)" d="m465.1 176.07c0 6.807 5.517 12.324 12.323 12.324 6.806 1e-3 12.324-5.516 12.325-12.323v-1e-3c0-6.806-5.517-12.323-12.323-12.323-6.806-1e-3 -12.325 5.516-12.325 12.322" clip-path="url(#clipPath74)"/><path transform="matrix(1.3333 0 0 -1.3333 0 913.46)" d="m475.12 129.92-4.354 4.354c-0.235-0.116-0.485-0.205-0.741-0.264-0.257-0.059-0.52-0.089-0.782-0.09l-6.885-0.01c-0.18-1e-3 -0.362-0.032-0.532-0.093-0.171-0.061-0.331-0.151-0.471-0.265s-0.261-0.253-0.355-0.408c-0.094-0.156-0.161-0.328-0.198-0.504-0.467-2.264-0.467-4.599 0-6.863 0.037-0.176 0.104-0.348 0.198-0.503 0.094-0.156 0.214-0.294 0.355-0.409 0.14-0.114 0.3-0.204 0.47-0.265 0.171-0.061 0.353-0.092 0.533-0.093l6.885-0.011c0.262 0 0.525-0.03 0.782-0.09 0.256-0.059 0.506-0.147 0.741-0.262l4.354 4.353c0.093 0.093 0.168 0.204 0.218 0.326 0.051 0.122 0.077 0.254 0.077 0.386s-0.026 0.263-0.077 0.385-0.125 0.234-0.218 0.326" clip-path="url(#clipPath84)"/><path transform="matrix(1.3333 0 0 -1.3333 0 913.46)" d="m479.74 128.5 4.354-4.354c0.235 0.116 0.485 0.205 0.741 0.263 0.257 0.06 0.52 0.09 0.782 0.09l6.885 0.011c0.18 1e-3 0.362 0.032 0.532 0.093 0.171 0.06 0.331 0.151 0.471 0.265s0.261 0.253 0.355 0.407c0.094 0.157 0.161 0.329 0.198 0.505 0.467 2.264 0.467 4.599 0 6.863-0.037 0.176-0.104 0.348-0.198 0.503-0.094 0.156-0.214 0.294-0.355 0.409-0.14 0.114-0.3 0.204-0.47 0.265-0.171 0.061-0.353 0.092-0.533 0.093l-6.885 0.01c-0.262 1e-3 -0.525 0.031-0.782 0.09-0.256 0.059-0.506 0.148-0.741 0.263l-4.354-4.353c-0.093-0.093-0.168-0.205-0.218-0.326-0.051-0.122-0.077-0.254-0.077-0.386s0.026-0.263 0.077-0.385 0.125-0.234 0.218-0.326" clip-path="url(#clipPath86)"/><path transform="matrix(1.3333 0 0 -1.3333 0 913.46)" d="m478.14 131.52 4.354 4.354c-0.116 0.235-0.205 0.485-0.264 0.741-0.059 0.257-0.09 0.519-0.09 0.782l-0.01 6.885c-1e-3 0.179-0.032 0.361-0.093 0.532s-0.151 0.33-0.265 0.471c-0.115 0.139-0.253 0.26-0.408 0.354-0.156 0.095-0.328 0.162-0.505 0.198-2.263 0.468-4.598 0.468-6.862 0-0.177-0.036-0.349-0.103-0.504-0.198-0.155-0.094-0.293-0.214-0.408-0.354-0.114-0.14-0.205-0.3-0.265-0.471-0.061-0.171-0.093-0.352-0.093-0.532l-0.011-6.885c0-0.263-0.03-0.525-0.09-0.782-0.059-0.256-0.148-0.506-0.263-0.741l4.353-4.354c0.093-0.093 0.205-0.168 0.327-0.219s0.254-0.076 0.386-0.076c0.131 0 0.263 0.025 0.385 0.076 0.121 0.051 0.233 0.126 0.326 0.219" clip-path="url(#clipPath88)"/><path transform="matrix(1.3333 0 0 -1.3333 0 913.46)" d="m476.72 126.9-4.354-4.354c0.116-0.235 0.205-0.485 0.264-0.741 0.059-0.257 0.09-0.519 0.09-0.782l0.01-6.885c1e-3 -0.18 0.032-0.361 0.093-0.532s0.151-0.33 0.265-0.471c0.115-0.139 0.253-0.26 0.408-0.354 0.156-0.095 0.328-0.162 0.505-0.198 2.263-0.468 4.598-0.468 6.862 0 0.177 0.036 0.349 0.103 0.504 0.197 0.155 0.095 0.293 0.215 0.408 0.355 0.114 0.14 0.205 0.3 0.265 0.471 0.061 0.17 0.093 0.352 0.093 0.532l0.011 6.885c0 0.263 0.03 0.525 0.09 0.782 0.059 0.256 0.148 0.506 0.263 0.741l-4.353 4.354c-0.093 0.093-0.205 0.168-0.327 0.219s-0.254 0.076-0.386 0.076c-0.131 0-0.263-0.026-0.385-0.076-0.121-0.051-0.233-0.126-0.326-0.219" clip-path="url(#clipPath90)"/><path transform="matrix(1.3333 0 0 -1.3333 0 913.46)" d="m478.95 84.744h0.247v10.029h-0.247z" clip-path="url(#clipPath92)"/><path transform="matrix(1.3333 0 0 -1.3333 0 913.46)" d="m623.72 213.87h115.06c1.237 0 2.475-5e-3 3.712-0.015 0.14-1e-3 0.286-0.068 0.378-0.18 0.092-0.113 0.129-0.27 0.102-0.407l-0.544-2.801h-118.71v3.395z" clip-path="url(#clipPath94)"/><path transform="matrix(1.3333 0 0 -1.3333 0 913.46)" d="m504.56 213.67c0.092 0.112 0.238 0.18 0.378 0.181 1.237 9e-3 2.475 0.014 3.712 0.014l115.06-0.0137 3e-3 -3.3892h-118.71l-0.544 2.802c-0.027 0.136 0.01 0.294 0.102 0.406" clip-path="url(#clipPath96)"/></g><g fill="#899099"><path transform="matrix(1.3333 0 0 -1.3333 0 913.46)" d="m489.06 91.191h-4.874c-0.183 0-0.331 0.148-0.331 0.33 0 0.183 0.148 0.331 0.331 0.331h4.874c0.183 0 0.331-0.148 0.331-0.331 0-0.182-0.148-0.33-0.331-0.33" clip-path="url(#clipPath102)"/><path transform="matrix(1.3333 0 0 -1.3333 0 913.46)" d="m489.06 89.428h-4.874c-0.183 0-0.331 0.147-0.331 0.33s0.148 0.331 0.331 0.331h4.874c0.183 0 0.331-0.148 0.331-0.331s-0.148-0.33-0.331-0.33" clip-path="url(#clipPath104)"/><path transform="matrix(1.3333 0 0 -1.3333 0 913.46)" d="m489.06 87.664h-4.874c-0.183 0-0.331 0.148-0.331 0.331s0.148 0.33 0.331 0.33h4.874c0.183 0 0.331-0.147 0.331-0.33s-0.148-0.331-0.331-0.331" clip-path="url(#clipPath106)"/><path transform="matrix(1.3333 0 0 -1.3333 0 913.46)" d="m474.22 87.943c0-0.06-0.048-0.107-0.107-0.107h-3.91c-0.059 0-0.108 0.047-0.108 0.107v2.284c0 0.06 0.049 0.108 0.108 0.108h3.91c0.059 0 0.107-0.048 0.107-0.108zm0.018 3.034h-4.16c-0.345 0-0.625-0.28-0.625-0.625v-2.534c0-0.346 0.28-0.625 0.625-0.625h4.16c0.345 0 0.625 0.279 0.625 0.625v2.534c0 0.345-0.28 0.625-0.625 0.625" clip-path="url(#clipPath108)"/><path transform="matrix(1.3333 0 0 -1.3333 0 913.46)" d="m472.87 91.681c0.177 0 0.321 0.145 0.321 0.321 0 0.178-0.144 0.322-0.321 0.322h-4.142c-0.345 0-0.625-0.28-0.625-0.625v-2.517c0-0.177 0.144-0.321 0.321-0.321 0.178 0 0.322 0.144 0.322 0.321v2.392c0 0.059 0.048 0.107 0.107 0.107z" clip-path="url(#clipPath110)"/><path transform="matrix(1.3333 0 0 -1.3333 0 913.46)" d="m770.01 164.77c-0.031 0-0.058-0.02-0.068-0.05l-0.166-0.501-0.458-1.168c-9e-3 -0.021-6e-3 -0.047 7e-3 -0.066 0.013-0.02 0.036-0.031 0.059-0.031h1.251c0.024 0 0.046 0.011 0.06 0.031 0.013 0.019 0.016 0.045 7e-3 0.066l-0.459 1.168-0.165 0.501c-9e-3 0.03-0.037 0.05-0.068 0.05m1.611-3.902c-0.048 0-0.091 0.03-0.108 0.074l-0.412 1.089c-0.011 0.027-0.038 0.046-0.068 0.046h-2.047c-0.029 0-0.056-0.019-0.067-0.046l-0.413-1.089c-0.017-0.044-0.06-0.074-0.107-0.074h-0.908c-0.038 0-0.074 0.019-0.095 0.051s-0.025 0.073-0.011 0.108l1.996 4.832c0.018 0.043 0.06 0.071 0.107 0.071h1.044c0.047 0 0.088-0.028 0.106-0.07l1.997-4.833c0.015-0.035 0.011-0.076-0.01-0.108-0.022-0.032-0.058-0.051-0.096-0.051z" clip-path="url(#clipPath112)"/><path transform="matrix(1.3333 0 0 -1.3333 0 913.46)" d="m782.14 177.73c-0.04 0-0.072-0.032-0.072-0.072v-1.066c0-0.039 0.032-0.071 0.072-0.071h0.978c0.242 0 0.432 0.061 0.564 0.18 0.132 0.12 0.199 0.263 0.199 0.427 0 0.167-0.064 0.306-0.195 0.425-0.129 0.117-0.31 0.177-0.536 0.177zm0-2.029c-0.04 0-0.072-0.032-0.072-0.072v-1.157c0-0.04 0.032-0.072 0.072-0.072h1.095c0.263 0 0.467 0.06 0.606 0.181 0.142 0.121 0.21 0.273 0.21 0.462 0 0.191-0.069 0.345-0.213 0.47s-0.356 0.188-0.634 0.188zm-1.006-2.177c-0.064 0-0.115 0.052-0.115 0.115v4.831c0 0.064 0.051 0.115 0.115 0.115h2.062c0.238 0 0.463-0.035 0.669-0.103 0.207-0.067 0.389-0.162 0.54-0.282 0.151-0.117 0.273-0.259 0.362-0.42 0.088-0.16 0.133-0.334 0.133-0.517 0-0.266-0.073-0.494-0.214-0.676-0.124-0.155-0.275-0.281-0.449-0.372-0.025-0.012-0.04-0.039-0.038-0.067 1e-3 -0.028 0.019-0.054 0.045-0.064 0.242-0.092 0.443-0.23 0.598-0.408 0.174-0.203 0.259-0.447 0.259-0.746 0-0.216-0.048-0.412-0.144-0.583-0.096-0.172-0.228-0.32-0.392-0.442-0.164-0.12-0.359-0.216-0.579-0.282s-0.46-0.099-0.712-0.099z" clip-path="url(#clipPath114)"/><path transform="matrix(1.3333 0 0 -1.3333 0 913.46)" d="m758.51 173.52c-0.039 0-0.074 0.019-0.095 0.051l-1.151 1.729c-0.013 0.021-0.035 0.032-0.059 0.032-0.025 0-0.047-0.011-0.06-0.032l-1.15-1.729c-0.022-0.031-0.057-0.051-0.096-0.051h-1.025c-0.044 0-0.083 0.023-0.102 0.061-0.02 0.038-0.017 0.084 7e-3 0.119l1.674 2.423c0.017 0.024 0.017 0.057 0 0.082l-1.533 2.196c-0.025 0.036-0.028 0.08-7e-3 0.119 0.019 0.038 0.058 0.062 0.101 0.062h1.016c0.04 0 0.076-0.02 0.096-0.052l1.019-1.559c0.013-0.019 0.035-0.032 0.06-0.032 0.024 0 0.047 0.013 0.059 0.032l1.018 1.559c0.022 0.032 0.057 0.052 0.097 0.052h1.016c0.043 0 0.082-0.024 0.102-0.063 0.02-0.038 0.016-0.083-8e-3 -0.119l-1.532-2.195c-0.018-0.025-0.018-0.058 0-0.082l1.673-2.422c0.025-0.035 0.027-0.081 8e-3 -0.119-0.02-0.039-0.059-0.062-0.102-0.062z" clip-path="url(#clipPath116)"/><path transform="matrix(1.3333 0 0 -1.3333 0 913.46)" d="m769.63 186.18c-0.063 0-0.115 0.052-0.115 0.115v2.239l-1.75 2.528c-0.024 0.035-0.027 0.08-7e-3 0.118s0.059 0.062 0.102 0.062h0.971c0.039 0 0.074-0.019 0.095-0.051l1.049-1.58c0.014-0.021 0.036-0.033 0.06-0.033h1e-3c0.024 0 0.047 0.013 0.06 0.034l1.01 1.577c0.021 0.033 0.057 0.053 0.097 0.053h0.987c0.043 0 0.082-0.023 0.102-0.061s0.018-0.083-7e-3 -0.118l-1.72-2.529v-2.239c0-0.063-0.052-0.115-0.115-0.115z" clip-path="url(#clipPath118)"/><path transform="matrix(1.3333 0 0 -1.3333 0 913.46)" d="m764.5 91.288-3.524-3.524c-0.06-0.059-0.161-0.017-0.161 0.066v0.376c0 0.085 0.033 0.167 0.094 0.227l3.207 3.207c0.094 0.095 0.223 0.148 0.357 0.148h1.318l-0.172 0.157h-2.489c-0.101 0-0.199-0.04-0.271-0.112l-2.477-2.477c-0.125-0.125-0.328-0.125-0.453 0l-2.495 2.495c-0.06 0.061-0.142 0.094-0.227 0.094h-2.514l-0.172-0.157h1.317c0.134 0 0.263-0.053 0.358-0.148l3.207-3.207c0.06-0.06 0.094-0.142 0.094-0.227v-0.376c0-0.083-0.102-0.125-0.161-0.066l-3.525 3.524c-0.123 0.123-0.29 0.192-0.464 0.192h-0.826v-3.078c0-0.043 0.016-0.084 0.047-0.114l0.674-0.675c0.028-0.027 0.066-0.043 0.105-0.043h2.073l-1.865 1.865 0.665-1.101c0.098-0.162-0.019-0.368-0.208-0.368h-0.278c-0.355 0-0.642 0.287-0.642 0.641v1.751c0 0.106 0.128 0.159 0.203 0.084l2.686-2.685c0.119-0.119 0.281-0.187 0.45-0.187h3.449c0.169 0 0.331 0.068 0.45 0.187l2.686 2.685c0.075 0.075 0.203 0.022 0.203-0.084v-1.751c0-0.354-0.287-0.641-0.642-0.641h-0.278c-0.189 0-0.306 0.206-0.208 0.368l0.665 1.101-1.865-1.865h2.073c0.039 0 0.077 0.016 0.105 0.043l0.674 0.675c0.031 0.03 0.048 0.071 0.048 0.114v3.078h-0.827c-0.174 0-0.341-0.069-0.464-0.192" clip-path="url(#clipPath120)"/></g><path transform="matrix(1.3333 0 0 -1.3333 0 913.46)" d="m784.24 89.758c0-2.412-1.955-4.367-4.367-4.367-2.413 0-4.368 1.955-4.368 4.367s1.955 4.367 4.368 4.367c2.412 0 4.367-1.955 4.367-4.367" clip-path="url(#clipPath122)" fill="none" stroke="#899099"/><path transform="matrix(1.3333 0 0 -1.3333 0 913.46)" d="m781.15 91.826-2.614-0.606c-0.09-0.022-0.154-0.103-0.154-0.196v-0.811c0-0.097 0.09-0.169 0.185-0.147l2.613 0.607c0.091 0.021 0.155 0.101 0.155 0.194v0.812c0 0.097-0.091 0.168-0.185 0.147" clip-path="url(#clipPath124)" fill="#899099"/><path transform="matrix(1.3333 0 0 -1.3333 0 913.46)" d="m781.15 89.421-2.614-0.606c-0.09-0.022-0.154-0.103-0.154-0.196v-0.811c0-0.097 0.09-0.169 0.185-0.147l2.613 0.607c0.091 0.021 0.155 0.101 0.155 0.194v0.812c0 0.097-0.091 0.168-0.185 0.147" clip-path="url(#clipPath126)" fill="#899099"/><path transform="matrix(1.3333 0 0 -1.3333 73.504 65.605)" d="m0 0h227.13" clip-path="url(#clipPath342)" fill="none" stroke="#4e5059" stroke-miterlimit="10"/><path transform="matrix(1.3333 0 0 -1.3333 73.505 245.49)" d="m0 0h227.13" clip-path="url(#clipPath344)" fill="none" stroke="#4e5059" stroke-miterlimit="10"/></g></g></svg>
