<svg width="477.07" height="210.21" version="1.1" viewBox="0 0 477.07 210.21" xml:space="preserve" xmlns="http://www.w3.org/2000/svg" xmlns:xlink="http://www.w3.org/1999/xlink"><g fill="none"><g stroke="#899099" stroke-linejoin="bevel" stroke-miterlimit="22.926" stroke-width=".49328"><path d="m444.65 104.29h-0.68476"/><path d="m424.94 84.808c-6.9797 0.0477-13.403 3.8267-16.835 9.9046-3.4313 6.0779-3.3484 13.529 0.21754 19.531 3.566 5.9996 10.07 9.6354 17.05 9.5288"/><path d="m424.94 85.274c-6.8124 0.0457-13.082 3.7333-16.433 9.668-3.3484 5.9342-3.2681 13.205 0.21301 19.064 3.4816 5.8564 9.8288 9.4053 16.641 9.3008"/><path d="m442.67 104.29c0-9.7203-7.8795-17.602-17.602-17.602-9.7198 0-17.601 7.8815-17.601 17.602s7.8815 17.602 17.601 17.602c9.7223 0 17.602-7.8815 17.602-17.602z"/><path d="m442.49 104.29c0-9.6178-7.7971-17.415-17.415-17.415-9.6178 0-17.415 7.7971-17.415 17.415-2e-3 9.6178 7.7971 17.415 17.415 17.415 9.6178 0 17.415-7.7971 17.415-17.415z"/><path d="m442.47 104.29c0-9.6092-7.7906-17.399-17.399-17.399-9.6092 0-17.4 7.7901-17.4 17.399s7.7906 17.399 17.4 17.399c9.6087 0 17.399-7.7901 17.399-17.399z"/><path d="m442.3 104.29c0-9.5178-7.7162-17.235-17.235-17.235-9.5178 0-17.234 7.7167-17.234 17.235s7.7162 17.235 17.234 17.235c9.5183 0 17.235-7.7167 17.235-17.235z"/><path d="m442.29 104.29c0-9.5093-7.7102-17.219-17.219-17.219-9.5118 0-17.219 7.7097-17.219 17.219s7.7077 17.219 17.219 17.219c9.5088 0 17.219-7.7097 17.219-17.219z"/><path d="m441.91 104.29c0-9.3008-7.5404-16.841-16.841-16.841-9.3008 0-16.839 7.5404-16.841 16.841 0 9.3008 7.5404 16.841 16.841 16.841 9.3008 0 16.841-7.5404 16.841-16.841z"/><path d="m439.78 104.29c0-8.1252-6.5863-14.714-14.714-14.714-8.1252 0-14.714 6.5884-14.714 14.714s6.5889 14.714 14.714 14.714c8.1272 0 14.714-6.5884 14.714-14.714z"/><path d="m436.95 104.29c0-6.5602-5.3198-11.88-11.88-11.88-6.5602 0-11.878 5.3198-11.878 11.88s5.3178 11.878 11.878 11.878c6.5602 0 11.88-5.3178 11.88-11.878z"/><path d="m436.4 104.29c0-6.2563-5.0716-11.326-11.326-11.326-6.2563 0-11.328 5.0696-11.328 11.326s5.0716 11.326 11.328 11.326c6.2543 0 11.326-5.0696 11.326-11.326z"/><path d="m435.63 104.29c0-5.8302-4.7265-10.554-10.554-10.554-5.8308 0-10.555 4.724-10.555 10.554s4.724 10.554 10.555 10.554c5.8277 0 10.554-4.724 10.554-10.554z"/><path d="m434.93 104.29c0-5.4434-4.4135-9.8569-9.8569-9.8569s-9.8569 4.4135-9.8569 9.8569 4.4135 9.8569 9.8569 9.8569 9.8569-4.4135 9.8569-9.8569z"/><path d="m424.94 84.808c2.5511-0.0176 5.1329 0.47376 7.5143 1.4409 2.3818 0.96459 4.5657 2.4034 6.3909 4.2025 1.8277 1.8016 3.2987 3.9659 4.2919 6.3367 0.99524 2.3708 1.5122 4.9501 1.5147 7.5012"/><path d="m444.65 104.29c0 1.2625-0.12409 2.5315-0.36926 3.7724-0.24567 1.2429-0.61291 2.4597-1.0952 3.6288-0.4828 1.1691-1.0801 2.2929-1.78 3.3464-0.70184 1.054-1.5057 2.0387-2.3969 2.938-0.89275 0.89777-1.8709 1.7101-2.9184 2.421-1.0495 0.71038-2.1663 1.3188-3.3334 1.8146-1.1646 0.49536-2.3793 0.87768-3.6202 1.1384-1.2389 0.26074-2.5034 0.40442-3.7659 0.42402"/><path d="m443.97 104.29c0 2.4381-0.47828 4.9023-1.3972 7.1797-0.92139 2.2793-2.2884 4.3743-4.0005 6.1322-1.7126 1.7624-3.7725 3.1882-6.0347 4.1638-2.2623 0.97765-4.7265 1.5037-7.1711 1.5428"/><path d="m424.94 85.274c2.4793-0.0176 4.9892 0.46722 7.3012 1.4188 2.31 0.95002 4.4226 2.3648 6.1804 4.1292 1.7579 1.7644 3.1641 3.879 4.1111 6.1864 0.9455 2.308 1.4343 4.8069 1.4323 7.2796"/><path d="m58.557 54.154h-0.68476"/><path d="m38.845 34.674c-6.9797 0.0477-13.403 3.8267-16.835 9.9046-3.4313 6.0779-3.3484 13.529 0.21754 19.531 3.566 5.9996 10.07 9.6354 17.05 9.5288"/><path d="m38.848 35.139c-6.8124 0.0457-13.082 3.7333-16.433 9.668-3.3484 5.9342-3.2681 13.205 0.21301 19.064 3.4816 5.8564 9.8288 9.4053 16.641 9.3008"/><path d="m56.578 54.157c0-9.7203-7.8795-17.602-17.602-17.602-9.7198 0-17.601 7.8815-17.601 17.602s7.8815 17.602 17.601 17.602c9.7223 0 17.602-7.8815 17.602-17.602z"/><path d="m56.392 54.157c0-9.6178-7.7971-17.415-17.415-17.415-9.6178 0-17.415 7.7971-17.415 17.415-2e-3 9.6178 7.7971 17.415 17.415 17.415 9.6178 0 17.415-7.7971 17.415-17.415z"/><path d="m56.375 54.157c0-9.6092-7.7906-17.399-17.399-17.399-9.6092 0-17.4 7.7901-17.4 17.399s7.7906 17.399 17.4 17.399c9.6087 0 17.399-7.7901 17.399-17.399z"/><path d="m56.211 54.157c0-9.5178-7.7162-17.235-17.235-17.235-9.5178 0-17.234 7.7167-17.234 17.235s7.7162 17.235 17.234 17.235c9.5183 0 17.235-7.7167 17.235-17.235z"/><path d="m56.196 54.157c0-9.5093-7.7102-17.219-17.219-17.219-9.5118 0-17.219 7.7097-17.219 17.219s7.7077 17.219 17.219 17.219c9.5088 0 17.219-7.7097 17.219-17.219z"/><path d="m55.817 54.157c0-9.3008-7.5404-16.841-16.841-16.841-9.3008 0-16.839 7.5404-16.841 16.841 0 9.3008 7.5404 16.841 16.841 16.841 9.3008 0 16.841-7.5404 16.841-16.841z"/><path d="m53.69 54.157c0-8.1252-6.5863-14.714-14.714-14.714-8.1252 0-14.714 6.5884-14.714 14.714s6.5889 14.714 14.714 14.714c8.1272 0 14.714-6.5884 14.714-14.714z"/><path d="m50.856 54.157c0-6.5602-5.3198-11.88-11.88-11.88-6.5602 0-11.878 5.3198-11.878 11.88s5.3178 11.878 11.878 11.878c6.5602 0 11.88-5.3178 11.88-11.878z"/><path d="m50.304 54.157c0-6.2563-5.0716-11.326-11.326-11.326-6.2563 0-11.328 5.0696-11.328 11.326s5.0716 11.326 11.328 11.326c6.2543 0 11.326-5.0696 11.326-11.326z"/><path d="m49.532 54.157c0-5.8302-4.7265-10.554-10.554-10.554-5.8308 0-10.555 4.724-10.555 10.554s4.724 10.554 10.555 10.554c5.8277 0 10.554-4.724 10.554-10.554z"/><path d="m48.834 54.157c0-5.4434-4.4135-9.8569-9.8569-9.8569s-9.8569 4.4135-9.8569 9.8569 4.4135 9.8569 9.8569 9.8569 9.8569-4.4135 9.8569-9.8569z"/><path d="m38.845 34.674c2.5511-0.0176 5.1329 0.47376 7.5143 1.4409 2.3818 0.96459 4.5657 2.4034 6.3909 4.2025 1.8277 1.8016 3.2987 3.9659 4.2919 6.3367 0.99524 2.3708 1.5122 4.9501 1.5147 7.5012"/><path d="m58.557 54.154c0 1.2625-0.12409 2.5315-0.36926 3.7724-0.24567 1.2429-0.61291 2.4597-1.0952 3.6288-0.4828 1.1691-1.0801 2.2929-1.78 3.3464-0.70184 1.054-1.5057 2.0387-2.3969 2.938-0.89275 0.89777-1.8709 1.7101-2.9184 2.421-1.0495 0.71038-2.1663 1.3188-3.3334 1.8146-1.1646 0.49536-2.3793 0.87768-3.6202 1.1384-1.2389 0.26074-2.5034 0.40442-3.7659 0.42402"/><path d="m57.874 54.154c0 2.4381-0.47828 4.9023-1.3972 7.1797-0.92139 2.2793-2.2884 4.3743-4.0005 6.1322-1.7126 1.7624-3.7725 3.1882-6.0347 4.1638-2.2623 0.97765-4.7265 1.5037-7.1711 1.5428"/><path d="m38.848 35.139c2.4793-0.0176 4.9892 0.46722 7.3012 1.4188 2.31 0.95002 4.4226 2.3648 6.1804 4.1292 1.7579 1.7644 3.1641 3.879 4.1111 6.1864 0.9455 2.308 1.4343 4.8069 1.4323 7.2796"/></g><g stroke="#8a9199" stroke-miterlimit="10" stroke-width=".50028"><path d="m437.16 62.138c-4.9586 0-8.9762 4.0201-8.9762 8.9762 0 4.9591 4.0176 8.9787 8.9762 8.9787s8.9787-4.0196 8.9787-8.9787c0-4.9561-4.0201-8.9762-8.9787-8.9762"/><path d="m453.79 45.543c-4.9586 0-8.9787 4.0201-8.9787 8.9762 0 4.9591 4.0201 8.9787 8.9787 8.9787s8.9787-4.0196 8.9787-8.9787c0-4.9561-4.0201-8.9762-8.9787-8.9762"/><path d="m437.16 28.922c-4.9586 0-8.9762 4.0199-8.9762 8.9786 0 4.9565 4.0176 8.9765 8.9762 8.9765s8.9787-4.02 8.9787-8.9765c0-4.9588-4.0201-8.9786-8.9787-8.9786"/><path d="m420.56 45.53c-4.9586 0-8.9787 4.0201-8.9787 8.9787 0 4.9566 4.0201 8.9762 8.9787 8.9762s8.9787-4.0196 8.9787-8.9762c0-4.9586-4.0201-8.9787-8.9787-8.9787"/></g></g><g fill="#8a9199"><path d="m435.49 34.84h-2.1045l2.2588 3.1251 1.0515-1.4568z"/><path d="m438.98 34.84-1.7498 2.4177-0.82443 1.1416v2.9113l7e-3 -9e-3v0.93445h1.7081v-3.297l2.9641-4.0992h-1.0842z"/><path d="m420.17 52.517-1.2319-1.7081h-2.107l2.2854 3.1651z"/><path d="m423.61 50.809h-1.4323l-1.6222 2.2437-1.0535 1.4544-2.3914 3.3082-0.28184 0.38985h2.1045l1.6222-2.2412 1.6222 2.2412h2.1045l-2.6732-3.6981 2.6732-3.6981z"/><path d="m437.66 67.343-0.42302-0.72043-1.0535 1.7915-3.2861 5.5891h2.105l2.2346-3.7996 1.051-1.7895z"/><path d="m438.71 69.134-0.7561 1.2871-0.29491 0.50239 1.265 2.1553-0.92791 0.92591h3.579z"/><path d="m455.43 53.07c0 0.43658-0.35268 0.78875-0.78875 0.78875h-1.6423v-1.7473h1.6423c0.43607 0 0.78875 0.35268 0.78875 0.78875zm1.0028 0.9455c0.24266-0.0814 0.38333-0.57976 0.38333-0.83548v-0.51545c0-1.0249-0.83096-1.8558-1.8553-1.8558h-3.8835v7.4433h1.9242v-1.3419h-3e-3v-1.7172h2.1447c0.43607 0 0.78875 0.35268 0.78875 0.78926v0.13866c0 0.43456-0.35268 0.78925-0.78875 0.78925h-1.3796v1.3419h1.6991c1.0249 0 1.8995-0.83045 1.8995-1.8553v-0.63251c0-0.63251-0.18488-1.4062-0.92993-1.7478"/></g><g fill="none"><g stroke="#8a9199" stroke-linejoin="bevel" stroke-miterlimit="22.926" stroke-width=".50028"><path d="m412.56 54.416c0-0.3989 0.0286-0.7978 0.0879-1.1947 0.0598-0.39438 0.15021-0.78875 0.26677-1.1721 0.11907-0.38383 0.26677-0.76062 0.4411-1.1218 0.17182-0.36172 0.37227-0.70736 0.59684-1.0379 0.22708-0.33308 0.47828-0.64808 0.75158-0.94349 0.2733-0.2954 0.5687-0.5687 0.88169-0.8199 0.315-0.2512 0.64809-0.47828 0.99423-0.67873 0.34816-0.20045 0.71139-0.37478 1.0842-0.52249 0.37479-0.14519 0.75811-0.26425 1.1505-0.35469 0.39237-0.0879 0.78875-0.14971 1.1902-0.17834 0.40091-0.0311 0.80433-0.0311 1.2032 0 0.40091 0.0286 0.79981 0.0879 1.1902 0.17834 0.39187 0.0904 0.77771 0.20699 1.1505 0.35469 0.37227 0.1457 0.736 0.32204 1.0842 0.52249 0.34615 0.20045 0.67873 0.42753 0.99373 0.67672 0.31299 0.2512 0.6084 0.5245 0.8817 0.8199 0.2733 0.29491 0.52449 0.61041 0.75157 0.94098 0.22457 0.33057 0.42553 0.67873 0.59936 1.04 0.17433 0.36172 0.32203 0.73651 0.43858 1.1218 0.11907 0.38383 0.2095 0.7782 0.26878 1.1746 0.0598 0.39689 0.0884 0.79579 0.0884 1.1947"/><path d="m428.59 71.024c0-0.36825 0.0241-0.7561 0.0774-1.157 0.0548-0.3989 0.13866-0.81337 0.26225-1.2409 0.12559-0.42955 0.29088-0.87718 0.50691-1.3288 0.21804-0.45165 0.48481-0.91234 0.8194-1.3665 0.33308-0.45416 0.72947-0.9033 1.2057-1.3288 0.47375-0.42753 1.0249-0.82894 1.6684-1.1726 0.64356-0.34162 1.3776-0.62799 2.1487-0.80633 0.77117-0.17634 1.58-0.24467 2.3472-0.20749 0.76665 0.0352 1.4921 0.17433 2.1487 0.3793 0.65663 0.20498 1.2474 0.47577 1.7739 0.78223 0.52701 0.30846 0.98971 0.6526 1.3977 1.0138 0.40543 0.36373 0.75358 0.74254 1.053 1.1284 0.29993 0.38333 0.55363 0.77368 0.76263 1.157 0.2115 0.38332 0.38131 0.76062 0.52047 1.1329 0.13866 0.37227 0.24668 0.73801 0.32606 1.0907 0.0814 0.35268 0.13665 0.6923 0.1698 1.0138 0.0352 0.32203 0.0482 0.62598 0.0482 0.91033"/><path d="m445.17 54.416c0-0.36574 0.0241-0.7561 0.0794-1.157 0.0527-0.40342 0.13866-0.82191 0.26677-1.2585 0.1256-0.43407 0.29289-0.88572 0.51796-1.3464 0.22457-0.4627 0.5044-0.93445 0.83749-1.3841 0.33459-0.44964 0.72495-0.87516 1.1324-1.2474 0.40995-0.37026 0.83748-0.68526 1.261-0.94751 0.42301-0.26024 0.84402-0.46974 1.254-0.63703 0.40995-0.16981 0.81086-0.29742 1.1967-0.39438 0.38534-0.095 0.75811-0.15876 1.1148-0.19845 0.35519-0.0397 0.69882-0.0573 1.0339-0.0532 0.3371 3e-3 0.66768 0.0246 0.99825 0.0663 0.33309 0.0417 0.66768 0.10349 1.0048 0.18739 0.3351 0.0814 0.6722 0.18739 1.0163 0.31952 0.34163 0.13213 0.68978 0.29088 1.0445 0.4828 0.35268 0.19392 0.70988 0.42301 1.047 0.67672 0.3351 0.2532 0.6501 0.53103 0.92993 0.81086 0.27983 0.28184 0.5245 0.56619 0.74052 0.85055 0.21603 0.28234 0.40091 0.56217 0.56419 0.83547 0.16076 0.2733 0.29993 0.54208 0.41899 0.80232 0.12108 0.26225 0.22005 0.51545 0.30596 0.76213 0.0859 0.24466 0.15675 0.48079 0.21402 0.70787 0.0573 0.22657 0.10349 0.44511 0.14117 0.66767 0.0372 0.22005 0.0683 0.44512 0.0899 0.68527 0.0221 0.24265 0.0357 0.50038 0.0357 0.76916"/><path d="m462.42 54.416c0 0.42301-0.0307 0.86411-0.099 1.3138-0.0683 0.45165-0.17433 0.90782-0.33057 1.3836-0.15675 0.47828-0.36624 0.97414-0.63954 1.47-0.2733 0.49837-0.61041 0.99624-1.0289 1.481-0.41648 0.48481-0.91485 0.95454-1.5142 1.3821-0.59734 0.42552-1.2982 0.80633-2.0608 1.0842-0.76012 0.27581-1.5866 0.44763-2.3844 0.50038-0.7978 0.0528-1.569-0.0111-2.2723-0.15223-0.70535-0.14318-1.3419-0.36373-1.9196-0.63-0.57976-0.26928-1.0972-0.58629-1.567-0.94349-0.47175-0.35468-0.89024-0.74705-1.256-1.159-0.36574-0.41246-0.67471-0.84402-0.93244-1.2675-0.25571-0.42503-0.45818-0.84402-0.62145-1.2494-0.16328-0.40543-0.28436-0.7978-0.37479-1.1726-0.0904-0.37479-0.15172-0.73148-0.1894-1.0731-0.0397-0.33962-0.0553-0.66366-0.0553-0.9676"/><path d="m445.81 37.808c0 0.46723-0.0397 0.9565-0.12107 1.4502-0.0839 0.49365-0.21151 0.98956-0.40342 1.5141-0.19192 0.52455-0.45165 1.0733-0.78675 1.6089-0.33509 0.53555-0.74956 1.0578-1.2078 1.5186-0.45868 0.4607-0.96308 0.85708-1.481 1.1877-0.51797 0.32856-1.047 0.59081-1.6112 0.79779-0.56168 0.2095-1.157 0.36574-1.7805 0.45416-0.62598 0.0879-1.2786 0.10802-1.8975 0.0593-0.61744-0.0482-1.2012-0.16278-1.7237-0.315-0.5245-0.15223-0.99172-0.33962-1.4193-0.55113-0.42552-0.2115-0.81337-0.44712-1.159-0.6943-0.34615-0.24416-0.65261-0.49988-0.92792-0.75811-0.2733-0.25772-0.51344-0.51771-0.73198-0.77996-0.21553-0.26225-0.40744-0.52455-0.59031-0.80664s-0.35519-0.58403-0.51596-0.9146c-0.16076-0.33279-0.31047-0.69642-0.43858-1.0843-0.12761-0.3879-0.23362-0.80001-0.30847-1.2474-0.0749-0.44738-0.12108-0.93008-0.12108-1.4392"/><path d="m430.36 71.021c0 0.0683 0 0.13464 2e-3 0.20296 3e-3 0.0638 5e-3 0.12962 9e-3 0.19393l0.0131 0.19794c7e-3 0.0663 0.0136 0.13263 0.0221 0.19844 7e-3 0.0638 0.0156 0.13012 0.0241 0.19393 0.011 0.0638 0.0201 0.13011 0.0332 0.19392 0.0111 0.0643 0.0221 0.12811 0.0377 0.19392 0.0131 0.0643 0.0261 0.12811 0.0417 0.19392 0.0156 0.0618 0.0312 0.1256 0.0487 0.1874 0.0176 0.0618 0.0352 0.12559 0.0527 0.18739 0.0196 0.0663 0.0417 0.13464 0.0638 0.20045 0.0241 0.0728 0.0507 0.1457 0.0774 0.21854l0.0924 0.23763c0.0372 0.0859 0.0749 0.17232 0.11454 0.25572 0.0417 0.0929 0.0879 0.18538 0.13465 0.27782 0.0527 0.099 0.1055 0.19845 0.16277 0.29541 0.0638 0.10801 0.13012 0.21603 0.19844 0.31952 0.0794 0.11907 0.16077 0.23361 0.24668 0.34816 0.097 0.13012 0.19844 0.25571 0.30646 0.3793 0.12107 0.14067 0.24918 0.27531 0.38332 0.40543 0.1477 0.14519 0.30194 0.28184 0.46069 0.41397 0.16981 0.13665 0.34414 0.26476 0.5245 0.38584 0.17885 0.11906 0.36373 0.2316 0.55313 0.33509 0.18991 0.10149 0.38383 0.19593 0.58428 0.27983 0.21151 0.0904 0.42754 0.16981 0.6501 0.23814 0.24667 0.0769 0.49787 0.13866 0.75157 0.18739 0.28436 0.0548 0.57273 0.0924 0.86412 0.11002 0.29289 0.0176 0.59031 0.0176 0.88571-2e-3 0.27129-0.0176 0.54459-0.0507 0.81086-0.10148 0.24266-0.0442 0.48079-0.10148 0.7144-0.17182 0.22005-0.0663 0.43608-0.14318 0.64758-0.22959 0.21854-0.0899 0.43005-0.1894 0.63704-0.29942 0.21401-0.11455 0.42301-0.24266 0.62397-0.37931 0.19593-0.13213 0.38332-0.2733 0.56167-0.42502 0.1678-0.13917 0.32655-0.28687 0.48079-0.44311 0.14971-0.15223 0.29289-0.31299 0.42954-0.48029 0.13866-0.16981 0.27129-0.34815 0.39237-0.53153 0.11655-0.17382 0.22457-0.35469 0.32605-0.53957 0.0884-0.16126 0.16981-0.32856 0.24467-0.49837 0.0663-0.1477 0.12559-0.29942 0.18086-0.45165 0.0482-0.13464 0.0924-0.27129 0.13212-0.40794 0.0352-0.12107 0.0683-0.24466 0.097-0.36574 0.0241-0.11002 0.0462-0.22055 0.0663-0.33057 0.0176-0.097 0.0327-0.19393 0.0462-0.2929 0.0131-0.0884 0.0221-0.17634 0.0306-0.26476 7e-3 -0.0769 0.0131-0.15423 0.0176-0.23361 3e-3 -0.0703 7e-3 -0.13866 9e-3 -0.20698 0-0.0618 2e-3 -0.12359 2e-3 -0.18539"/><path d="m444.15 71.013c0.13665 0 0.27983 0 0.41447 2e-3 0.13665 0 0.26426 0 0.37026 3e-3 0.10551 0 0.19142 2e-3 0.24668 2e-3 0.0573 3e-3 0.0859 3e-3 0.0904 5e-3"/><path d="m429.16 71.024c0-0.40091 0.0306-0.80232 0.0904-1.2012 0.0593-0.3989 0.14972-0.79327 0.26878-1.1766 0.11907-0.38583 0.26677-0.76263 0.44311-1.1244 0.17383-0.36323 0.37478-0.70937 0.60136-1.04 0.22507-0.33308 0.47627-0.64808 0.75158-0.94098 0.2733-0.2954 0.56871-0.5687 0.88371-0.8199 0.31299-0.24918 0.64607-0.47627 0.99423-0.67672 0.34815-0.20045 0.71189-0.37478 1.0842-0.51997 0.37478-0.14771 0.76062-0.26677 1.1525-0.35519 0.39036-0.0879 0.78926-0.14972 1.1902-0.17835 0.40141-0.0307 0.80433-0.0286 1.2057 0 0.39889 0.0311 0.79779 0.0924 1.1902 0.18086 0.38986 0.0904 0.77569 0.20949 1.148 0.3572 0.37479 0.14519 0.73852 0.32153 1.0847 0.52198 0.34815 0.20046 0.68074 0.42754 0.99373 0.67873 0.31499 0.2512 0.6104 0.5245 0.8837 0.8199 0.2733 0.29541 0.5245 0.61041 0.74957 0.94098 0.22457 0.33058 0.42502 0.67672 0.59935 1.0384 0.17383 0.36122 0.32153 0.73802 0.43859 1.1213 0.11907 0.38383 0.2095 0.7762 0.26878 1.1751 0.0593 0.39639 0.0879 0.7978 0.0879 1.1987"/><path d="m429.16 71.024h0.0949c0.0613 0 0.15173-2e-3 0.26627-2e-3h0.83749"/><path d="m430.36 71.021c0-0.0774 2e-3 -0.15424 5e-3 -0.23161 2e-3 -0.0683 5e-3 -0.13413 9e-3 -0.20246 5e-3 -0.0663 9e-3 -0.13012 0.0156-0.19392 7e-3 -0.0663 0.0131-0.13213 0.0221-0.19845 7e-3 -0.0663 0.0156-0.13212 0.0266-0.19844 9e-3 -0.0638 0.0196-0.13012 0.0327-0.19392 0.0111-0.0638 0.0246-0.13012 0.0377-0.19393 0.0156-0.0663 0.0286-0.13012 0.0462-0.19392 0.0156-0.0663 0.0332-0.13012 0.0507-0.19593l0.0527-0.18538c0.0201-0.0638 0.0397-0.12761 0.0618-0.18941 0.0241-0.0683 0.0487-0.13464 0.0729-0.20296 0.0286-0.0724 0.0573-0.1477 0.0859-0.22005 0.0332-0.0774 0.0683-0.15674 0.10349-0.23361 0.0397-0.0859 0.0794-0.17232 0.12359-0.25371 0.0462-0.0924 0.0945-0.18287 0.14519-0.2733 0.0573-0.099 0.11706-0.19593 0.17634-0.29289 0.0683-0.10601 0.13916-0.21151 0.21151-0.31299 0.0839-0.11455 0.1678-0.22708 0.25823-0.33711 0.099-0.12359 0.20497-0.24265 0.31299-0.35921 0.12308-0.13263 0.25119-0.25823 0.38533-0.38131 0.15021-0.13665 0.30646-0.26928 0.46974-0.39237 0.17633-0.13464 0.35921-0.26225 0.54861-0.3793 0.19392-0.11907 0.39236-0.2311 0.59734-0.33058 0.20045-0.099 0.40543-0.18739 0.61493-0.26425 0.21351-0.0814 0.43155-0.15223 0.6521-0.2095 0.24667-0.0663 0.49586-0.11907 0.74706-0.15625 0.27983-0.0422 0.56418-0.0683 0.84853-0.0754 0.29993-9e-3 0.59936 5e-3 0.89727 0.0357 0.28838 0.0286 0.57524 0.0769 0.85708 0.14318 0.2512 0.0573 0.50038 0.13012 0.74254 0.21803 0.21603 0.0749 0.43004 0.16328 0.63703 0.26225 0.20297 0.095 0.40141 0.20046 0.59533 0.31751 0.20247 0.12108 0.3989 0.2512 0.58579 0.39237 0.18538 0.13866 0.36373 0.28435 0.53354 0.4406 0.15222 0.13866 0.29993 0.28636 0.43859 0.43859 0.12107 0.13212 0.23562 0.27129 0.34815 0.41196 0.097 0.12559 0.18941 0.2537 0.27783 0.38583 0.0769 0.11455 0.15222 0.23361 0.22256 0.35268 0.0638 0.10802 0.12358 0.21804 0.18086 0.32856 0.0507 0.097 0.099 0.19795 0.14519 0.29943 0.0422 0.0904 0.0819 0.18287 0.11906 0.2733 0.0332 0.0839 0.0663 0.1673 0.095 0.25371 0.0286 0.0769 0.0548 0.15423 0.0794 0.2311 0.0221 0.0683 0.0437 0.13916 0.0638 0.2095 0.0176 0.0638 0.0352 0.1276 0.0507 0.19392 0.0151 0.0573 0.0306 0.11655 0.0442 0.17634 0.0106 0.0528 0.0216 0.10801 0.0326 0.16076 0.0111 0.0507 0.0201 0.0995 0.0286 0.14972 9e-3 0.0442 0.0156 0.0884 0.0221 0.13464 7e-3 0.0397 0.0136 0.0814 0.0176 0.12107 5e-3 0.0377 9e-3 0.0729 0.0136 0.11053 4e-3 0.0326 9e-3 0.0683 0.0131 0.10098 2e-3 0.0332 7e-3 0.0663 9e-3 0.0995s4e-3 0.0658 9e-3 0.099l7e-3 0.0995c0 0.0352 3e-3 0.0683 5e-3 0.10098 0 0.0332 2e-3 0.0663 2e-3 0.0995 3e-3 0.0332 3e-3 0.0683 3e-3 0.10148 0 0.0327 2e-3 0.0683 2e-3 0.10098"/><path d="m445.27 71.024c0 0.40091-0.0306 0.80232-0.0904 1.1987-0.0593 0.39689-0.14971 0.78926-0.26677 1.1726-0.11907 0.38584-0.26627 0.76062-0.4406 1.1218s-0.37478 0.70737-0.59935 1.0405c-0.22708 0.33057-0.47827 0.64557-0.75158 0.94097-0.2733 0.29541-0.5687 0.57072-0.8837 0.81991-0.3155 0.25119-0.64809 0.47827-0.99624 0.67873-0.34816 0.20246-0.70988 0.37679-1.0842 0.52198-0.37479 0.1477-0.75811 0.26677-1.1505 0.35519-0.39237 0.0904-0.79126 0.14971-1.1927 0.18036-0.40091 0.0311-0.80433 0.0286-1.2052 0-0.40091-0.0307-0.79981-0.0899-1.1902-0.18036-0.39236-0.0884-0.7777-0.20749-1.1505-0.35519-0.37478-0.1472-0.736-0.32153-1.0842-0.52198-0.34816-0.20046-0.68124-0.42754-0.99423-0.67873-0.315-0.2512-0.61041-0.5245-0.88371-0.81991-0.2733-0.2954-0.52449-0.6104-0.75158-0.94349-0.22456-0.33057-0.42502-0.67873-0.59935-1.04-0.17383-0.36172-0.32153-0.7365-0.44059-1.1218-0.11706-0.38383-0.20749-0.77821-0.26677-1.1746-0.0593-0.39689-0.0879-0.79579-0.0879-1.1947"/><path d="m413.72 54.416c0-0.0749 0-0.14972 5e-3 -0.22457 2e-3 -0.0683 5e-3 -0.13464 9e-3 -0.20297 5e-3 -0.0663 9e-3 -0.13012 0.0156-0.19593 5e-3 -0.0663 0.0131-0.13263 0.0201-0.19845 9e-3 -0.0663 0.0176-0.13212 0.0286-0.19844 9e-3 -0.0663 0.0196-0.13012 0.0306-0.19644 0.0131-0.0638 0.0266-0.12961 0.0397-0.19392 0.0131-0.0658 0.0286-0.13213 0.0442-0.19593 0.0176-0.0663 0.0327-0.13213 0.0527-0.19593 0.0156-0.0643 0.0352-0.1256 0.0527-0.1874 0.0201-0.0638 0.0397-0.12559 0.0618-0.18739 0.0221-0.0683 0.0462-0.13464 0.0703-0.20045 0.0286-0.0728 0.0553-0.14569 0.0864-0.21603 0.0306-0.0774 0.0658-0.15675 0.10098-0.2316 0.0377-0.0839 0.0774-0.1673 0.11907-0.2512 0.0462-0.0904 0.0924-0.17835 0.14318-0.26677 0.0553-0.097 0.11254-0.19392 0.17182-0.28837 0.0643-0.10399 0.13263-0.20749 0.20498-0.30897 0.0774-0.11002 0.16126-0.22005 0.24717-0.32806 0.0944-0.12108 0.19593-0.23813 0.29943-0.35067 0.11906-0.13012 0.24064-0.2532 0.36825-0.37428 0.14569-0.13464 0.29541-0.26476 0.44964-0.38584 0.17182-0.13464 0.34816-0.26024 0.52902-0.3793 0.1894-0.12108 0.38533-0.23361 0.58378-0.33711 0.19844-0.10148 0.39889-0.19191 0.60638-0.2733 0.20699-0.0839 0.41849-0.15624 0.63452-0.21804 0.23361-0.0683 0.47175-0.12358 0.71189-0.16528 0.26677-0.0462 0.53555-0.0774 0.80634-0.095 0.2954-0.0151 0.59081-0.0131 0.88622 7e-3 0.28887 0.0221 0.57724 0.0598 0.85959 0.11705 0.25571 0.0508 0.50691 0.11656 0.75358 0.19594 0.22055 0.0708 0.43658 0.15222 0.64809 0.24466 0.19844 0.0859 0.39237 0.18086 0.57976 0.28435 0.1894 0.1035 0.37227 0.21804 0.55062 0.33962 0.17885 0.12108 0.35067 0.24868 0.51595 0.38785 0.15625 0.13012 0.30847 0.26677 0.45366 0.40995 0.13012 0.13012 0.25371 0.26225 0.37479 0.40091 0.10349 0.12358 0.20296 0.24667 0.29741 0.37478 0.0839 0.11254 0.16529 0.22708 0.24065 0.34363 0.0683 0.1035 0.13414 0.2095 0.19593 0.31551 0.0573 0.097 0.11002 0.19593 0.16076 0.2949 0.0487 0.0904 0.0924 0.18287 0.13465 0.27581 0.0397 0.0834 0.0769 0.1673 0.11253 0.25321 0.0327 0.0794 0.0638 0.15674 0.0924 0.23612 0.0261 0.0724 0.0527 0.14519 0.0769 0.21804 0.0221 0.0658 0.0422 0.13213 0.0643 0.20045 0.0176 0.0618 0.0352 0.12359 0.0527 0.1874 0.0156 0.0618 0.0332 0.12358 0.0462 0.18739 0.0156 0.0638 0.0307 0.13012 0.0442 0.19392 0.0131 0.0638 0.0261 0.13012 0.0372 0.19392s0.0221 0.13012 0.0312 0.19393c0.0111 0.0638 0.0196 0.13012 0.0261 0.19392 9e-3 0.0663 0.0156 0.13213 0.0201 0.20045 7e-3 0.0638 0.011 0.13012 0.0156 0.19644 2e-3 0.0658 7e-3 0.12961 7e-3 0.19593 2e-3 0.0663 4e-3 0.13464 4e-3 0.20045"/><path d="m413.72 54.416h-1.166"/><path d="m428.65 54.416c0 0.39889-0.0307 0.7998-0.0879 1.1947-0.0598 0.39639-0.15021 0.78876-0.26928 1.1746-0.11655 0.38333-0.26426 0.75811-0.43859 1.1193-0.17382 0.36172-0.37428 0.70988-0.59935 1.0404-0.22708 0.33057-0.47828 0.64809-0.75158 0.94098-0.2733 0.29541-0.5687 0.57072-0.88119 0.8199-0.3155 0.2512-0.64808 0.47828-0.99624 0.67873-0.34615 0.20046-0.70988 0.3768-1.0847 0.52249-0.37228 0.1477-0.75811 0.26677-1.148 0.35469-0.39236 0.0904-0.79126 0.14971-1.1902 0.17835-0.40091 0.0311-0.80433 0.0311-1.2032 0-0.40141-0.0286-0.80031-0.0904-1.1902-0.17835-0.39237-0.0904-0.77821-0.2095-1.1505-0.35469-0.37227-0.1477-0.736-0.32203-1.0822-0.52249-0.34816-0.20045-0.68074-0.42753-0.99373-0.67873-0.3155-0.24918-0.6104-0.52449-0.8837-0.81789-0.2733-0.2949-0.5245-0.61041-0.74957-0.94299-0.22457-0.33057-0.42553-0.67873-0.59935-1.0404-0.17433-0.36122-0.32204-0.736-0.43859-1.1193-0.11907-0.38583-0.2095-0.7782-0.26878-1.1746-0.0598-0.39689-0.0884-0.79579-0.0884-1.1947"/><path d="m428.65 54.416c-5e-3 0-0.0352 0-0.0924-2e-3h-0.25375c-0.11002 0-0.24215-3e-3 -0.38131-3e-3h-0.42754"/><path d="m427.49 54.411c0 0.0749-2e-3 0.14972-5e-3 0.22256-2e-3 0.0683-5e-3 0.13665-9e-3 0.20297-5e-3 0.0658-9e-3 0.12962-0.0156 0.19392-5e-3 0.0658-0.0111 0.13213-0.0201 0.19794l-0.0261 0.19845c-0.011 0.0643-0.0221 0.12811-0.0331 0.19392-0.0111 0.0643-0.0241 0.12811-0.0377 0.19192-0.0151 0.0663-0.0286 0.13011-0.0462 0.19593-0.0151 0.0643-0.0307 0.13012-0.0507 0.19392-0.0151 0.0643-0.0352 0.1261-0.0528 0.18739-0.0196 0.0618-0.0397 0.12359-0.0593 0.18739-0.0246 0.0663-0.0462 0.13213-0.0728 0.19845-0.0266 0.0728-0.0553 0.14318-0.0839 0.21603-0.0307 0.0769-0.0638 0.15423-0.099 0.2316-0.0377 0.0814-0.0774 0.16529-0.11907 0.24667-0.0462 0.0904-0.0924 0.18086-0.14318 0.26677-0.0528 0.097-0.11053 0.19393-0.1678 0.28637-0.0658 0.10349-0.13414 0.20698-0.20246 0.30645-0.0794 0.11204-0.16077 0.22256-0.24467 0.32807-0.097 0.11906-0.19643 0.23612-0.29741 0.35066-0.11706 0.12761-0.23814 0.2512-0.36374 0.37027-0.14318 0.13665-0.29088 0.26425-0.44511 0.38784-0.16981 0.13414-0.34414 0.26024-0.5245 0.37881-0.1899 0.12358-0.38383 0.23813-0.58177 0.34162-0.19844 0.104-0.3989 0.19644-0.60638 0.28034-0.20699 0.0834-0.4185 0.15624-0.63252 0.22004-0.2311 0.0708-0.46923 0.1256-0.70736 0.16981-0.26426 0.0482-0.53354 0.0814-0.80232 0.099-0.29289 0.0201-0.5883 0.0201-0.88119 3e-3 -0.29139-0.0201-0.57976-0.0553-0.86412-0.11052-0.25772-0.0502-0.50892-0.11455-0.7581-0.19141-0.22256-0.0683-0.4406-0.15022-0.65261-0.24266-0.19794-0.0834-0.39187-0.17835-0.58177-0.28184-0.1894-0.10349-0.37227-0.21402-0.55062-0.33509-0.17885-0.11907-0.35268-0.24919-0.51797-0.38584-0.15875-0.13012-0.31299-0.26677-0.45868-0.40995-0.13213-0.13012-0.25773-0.26426-0.3788-0.40292-0.10601-0.12359-0.20749-0.24918-0.30445-0.37729-0.0859-0.11204-0.16529-0.22909-0.24466-0.34565-0.0683-0.10399-0.13414-0.2095-0.19594-0.31751-0.0573-0.097-0.11253-0.19593-0.16327-0.29742-0.0482-0.0904-0.0924-0.18287-0.13665-0.27581-0.0397-0.0834-0.0769-0.1693-0.11204-0.25521-0.0332-0.0794-0.0643-0.15675-0.0949-0.23613-0.0266-0.0728-0.0528-0.14519-0.0774-0.22055-0.0216-0.0658-0.0437-0.13213-0.0638-0.20045-0.0176-0.0618-0.0372-0.1256-0.0528-0.18739-0.0176-0.0638-0.0332-0.1256-0.0487-0.1894-0.0151-0.0638-0.0307-0.13012-0.0437-0.19594-0.0136-0.0643-0.0266-0.13012-0.0377-0.19643-0.0131-0.0638-0.0221-0.12761-0.0332-0.19392-9e-3 -0.0638-0.0176-0.13012-0.0261-0.19594-7e-3 -0.0663-0.0136-0.13213-0.0201-0.20045-7e-3 -0.0663-0.0111-0.13263-0.0156-0.19845-2e-3 -0.0663-4e-3 -0.13011-7e-3 -0.19643-2e-3 -0.0683-4e-3 -0.13414-4e-3 -0.20246"/><path d="m447.04 54.395c-0.1477 0-0.30394 0-0.45165 2e-3 -0.15021 0-0.29088 3e-3 -0.40995 5e-3 -0.11706 3e-3 -0.21151 5e-3 -0.2733 7e-3 -0.0618 3e-3 -0.0924 5e-3 -0.0995 7e-3"/><path d="m447.04 54.395c0-0.0618 0-0.12359 2e-3 -0.18488 3e-3 -0.0643 5e-3 -0.1261 7e-3 -0.18991l0.0131-0.19141c7e-3 -0.0663 0.0131-0.13012 0.0196-0.19392 7e-3 -0.0643 0.0156-0.12811 0.0246-0.1899 9e-3 -0.0638 0.0176-0.12761 0.0286-0.18941 0.0111-0.0618 0.0241-0.12559 0.0352-0.18739 0.0131-0.0638 0.0261-0.1276 0.0417-0.1894s0.0286-0.12359 0.0462-0.18287c0.0156-0.0618 0.0312-0.12107 0.0487-0.18086 0.0196-0.0638 0.0372-0.1256 0.0593-0.18739 0.0201-0.0683 0.0442-0.13665 0.0683-0.20246 0.0266-0.0729 0.0533-0.1457 0.0819-0.21855 0.0306-0.0769 0.0638-0.15624 0.097-0.23361 0.0372-0.0859 0.0769-0.1693 0.11856-0.2532 0.0442-0.0924 0.0929-0.18287 0.14118-0.2733 0.0528-0.097 0.11052-0.19644 0.16779-0.29089 0.0638-0.106 0.13213-0.20949 0.20046-0.31098 0.0769-0.11203 0.15875-0.22256 0.24215-0.33057 0.0929-0.11907 0.18991-0.23562 0.28888-0.35017 0.11253-0.12359 0.22708-0.24466 0.34614-0.36373 0.13213-0.12761 0.26878-0.25119 0.40995-0.36825 0.15173-0.12761 0.31048-0.24868 0.47376-0.36122 0.17383-0.12359 0.35469-0.23813 0.54007-0.34364 0.19794-0.11253 0.40292-0.21602 0.61241-0.31098 0.23161-0.10349 0.46723-0.19392 0.70737-0.27129 0.26878-0.0879 0.54459-0.15825 0.82242-0.2115 0.30193-0.0593 0.60387-0.099 0.90983-0.11656 0.29088-0.0201 0.58176-0.0201 0.87265-3e-3 0.26024 0.0181 0.51595 0.0467 0.77167 0.0904 0.22909 0.0397 0.45416 0.0904 0.67672 0.15222 0.209 0.0573 0.41648 0.1256 0.62146 0.20297 0.20698 0.0789 0.41196 0.1673 0.61241 0.26627 0.20749 0.10148 0.40996 0.21402 0.60639 0.3376 0.19141 0.11857 0.37679 0.24668 0.55715 0.38534 0.1678 0.12811 0.32857 0.26476 0.48531 0.40794 0.15172 0.14117 0.29943 0.28837 0.43809 0.44311 0.13916 0.15423 0.27129 0.315 0.39689 0.48029 0.11454 0.15423 0.22507 0.31298 0.32605 0.47375 0.0904 0.14318 0.17433 0.28887 0.25371 0.43859 0.0683 0.13012 0.13413 0.26225 0.19593 0.3989 0.0533 0.11906 0.10349 0.23813 0.15021 0.36121 0.0417 0.10601 0.0789 0.21603 0.11455 0.32405 0.0326 0.097 0.0618 0.19643 0.0904 0.29339 0.0216 0.0879 0.0462 0.17383 0.0658 0.26225 0.0176 0.0794 0.0352 0.15625 0.0507 0.23562 0.0131 0.0708 0.0266 0.14117 0.0377 0.21151 0.0111 0.0618 0.0196 0.1256 0.0286 0.18739 9e-3 0.0573 0.0151 0.11254 0.0196 0.16981 7e-3 0.0507 0.0111 0.10148 0.0156 0.15222 5e-3 0.0462 7e-3 0.0924 0.0111 0.13866 2e-3 0.0397 5e-3 0.0814 7e-3 0.12359 0 0.0352 2e-3 0.0724 2e-3 0.11003 3e-3 0.0331 3e-3 0.0683 3e-3 0.10148v0.0944"/><path d="m445.81 54.416c0-0.3989 0.0286-0.79981 0.0879-1.1987 0.0618-0.3989 0.15222-0.7978 0.27129-1.1836 0.12108-0.38785 0.26878-0.76464 0.44512-1.1264 0.17433-0.36122 0.37679-0.70737 0.60387-1.0379 0.22508-0.33058 0.47828-0.64357 0.75158-0.93897 0.27531-0.2929 0.57323-0.56871 0.89024-0.8199 0.3155-0.24869 0.65009-0.47376 0.99875-0.67421 0.35017-0.20046 0.71591-0.37227 1.0907-0.51797 0.3768-0.14519 0.76263-0.26225 1.157-0.35016 0.39438-0.0884 0.79579-0.1457 1.1987-0.17232 0.40342-0.0286 0.80684-0.0261 1.2103 9e-3 0.40091 0.0332 0.79981 0.0949 1.1922 0.1894 0.39237 0.0929 0.7782 0.21402 1.1505 0.36574 0.37479 0.15022 0.73601 0.32856 1.0801 0.53153 0.34565 0.20246 0.67421 0.43206 0.9872 0.68526 0.31048 0.25321 0.60388 0.53103 0.87266 0.82643 0.26877 0.2929 0.51143 0.60589 0.73148 0.93445 0.22055 0.32857 0.41648 0.6722 0.58629 1.0314 0.16981 0.3572 0.31299 0.72746 0.42753 1.1063 0.11455 0.37679 0.20046 0.76263 0.26024 1.153 0.0573 0.39187 0.0859 0.78876 0.0859 1.1877"/><path d="m461.89 54.416c-5e-3 -7e-3 -0.0286-0.0131-0.0729-0.0176-0.0462-7e-3 -0.11203-0.0131-0.19392-0.0176-0.0814-7e-3 -0.17835-0.011-0.28435-0.0156-0.10551-2e-3 -0.21804-7e-3 -0.33058-9e-3"/><path d="m461.89 54.416c0 0.4009-0.0307 0.80231-0.0904 1.1967-0.0618 0.39689-0.14971 0.78675-0.26878 1.1701-0.11907 0.38131-0.26677 0.75811-0.4406 1.1178-0.17433 0.35921-0.37277 0.70285-0.59734 1.0314-0.22507 0.32806-0.47375 0.64306-0.74957 0.93847-0.2733 0.2954-0.57071 0.57071-0.88571 0.82241-0.3155 0.2512-0.6501 0.47828-0.99825 0.67873-0.35067 0.20045-0.7144 0.37428-1.0892 0.52198-0.37428 0.1457-0.76212 0.26476-1.1545 0.35268-0.39237 0.0884-0.79127 0.14771-1.1947 0.17634-0.40091 0.0286-0.80433 0.0286-1.2052-5e-3 -0.40141-0.0306-0.80031-0.0924-1.1902-0.18287-0.39237-0.0924-0.77569-0.21151-1.1485-0.35921-0.37228-0.1477-0.734-0.32404-1.0796-0.52651-0.34816-0.20045-0.67873-0.43004-0.98971-0.68124-0.31299-0.25119-0.6084-0.5265-0.87919-0.82191-0.27129-0.29541-0.52047-0.6104-0.74504-0.94098-0.22256-0.33308-0.42101-0.67873-0.59282-1.0404-0.17182-0.36122-0.31752-0.736-0.43206-1.1173-0.11656-0.38131-0.20498-0.77117-0.26225-1.1615-0.0573-0.38985-0.0859-0.78222-0.0859-1.1701"/><path d="m461.01 54.357c-7e-3 0.0683-0.011 0.13012-0.0131 0.19191-3e-3 0.0593-5e-3 0.11655-7e-3 0.17383 0 0.0573-3e-3 0.11253-5e-3 0.16528-3e-3 0.0553-7e-3 0.11053-0.011 0.16328-5e-3 0.0528-0.0136 0.1055-0.0201 0.15876l-0.0261 0.15875c-9e-3 0.0528-0.0176 0.1055-0.0246 0.15825-9e-3 0.0507-0.0176 0.104-0.0286 0.15223-0.011 0.0507-0.0216 0.099-0.0326 0.1477-0.0136 0.0507-0.0266 0.10349-0.0397 0.15876-0.0156 0.0553-0.0312 0.11454-0.0487 0.17634-0.0156 0.0618-0.0352 0.12559-0.0553 0.19141-0.0216 0.0683-0.0437 0.13665-0.0703 0.21201-0.0266 0.0723-0.0553 0.15172-0.0879 0.23562-0.0332 0.0839-0.0708 0.17182-0.11053 0.26426-0.0417 0.0929-0.0879 0.19191-0.13866 0.29339-0.0528 0.1035-0.11002 0.21151-0.17433 0.32404-0.0638 0.11455-0.13413 0.2311-0.21602 0.3567-0.0789 0.12359-0.16931 0.25371-0.26878 0.38584-0.10149 0.13464-0.21151 0.27129-0.33058 0.40794-0.11906 0.13665-0.24466 0.27079-0.37679 0.40091-0.13213 0.12761-0.27079 0.2532-0.41447 0.37227-0.14067 0.11907-0.29089 0.23361-0.4406 0.34163-0.15222 0.10801-0.30847 0.20949-0.46923 0.30445-0.16127 0.097-0.32404 0.18487-0.48933 0.26626-0.1678 0.0839-0.33711 0.15876-0.50943 0.22708-0.17181 0.0683-0.34815 0.13263-0.52449 0.18739-0.17835 0.0553-0.35921 0.10149-0.53957 0.14319-0.18086 0.0422-0.36373 0.0748-0.54911 0.10148-0.18287 0.0266-0.36574 0.0462-0.55062 0.0573-0.18338 0.0131-0.36826 0.0176-0.55113 0.0156-0.18538-5e-3 -0.36825-0.0131-0.55313-0.0311-0.18287-0.0176-0.36574-0.0417-0.5466-0.0724-0.18086-0.0311-0.36172-0.0708-0.54007-0.11454-0.17634-0.0467-0.35268-0.0995-0.52651-0.15876-0.17181-0.0573-0.34414-0.12359-0.51143-0.19643-0.1673-0.0724-0.33057-0.15172-0.49385-0.23763-0.16077-0.0839-0.31952-0.17634-0.47376-0.27582-0.15423-0.097-0.30394-0.20045-0.44964-0.31047-0.1477-0.11053-0.28837-0.22507-0.42301-0.34615-0.13665-0.11907-0.26878-0.24467-0.39438-0.37478-0.12559-0.13213-0.24918-0.26878-0.36172-0.40543-0.11454-0.13866-0.22005-0.27984-0.31952-0.41649-0.097-0.13866-0.18488-0.27531-0.26225-0.40342-0.0794-0.13012-0.1477-0.2532-0.20949-0.37026-0.0613-0.11655-0.11455-0.22708-0.16278-0.33258-0.0487-0.10601-0.0924-0.2095-0.13213-0.30646-0.0377-0.099-0.0728-0.19191-0.10399-0.28234-0.0307-0.0879-0.0593-0.16931-0.0834-0.24869-0.0246-0.0794-0.0462-0.15423-0.0663-0.2316-0.0196-0.0749-0.0397-0.14971-0.0553-0.22457-0.0176-0.0748-0.0327-0.15021-0.0482-0.22507-0.0131-0.0729-0.0266-0.14519-0.0397-0.21603-0.011-0.0703-0.0221-0.13866-0.0306-0.20698-9e-3 -0.0683-0.0156-0.13464-0.0221-0.20297l-0.0136-0.20497c-4e-3 -0.0703-7e-3 -0.14067-9e-3 -0.21804-3e-3 -0.0749-5e-3 -0.15424-9e-3 -0.24215"/><path d="m444.2 37.777c0-0.0661 0-0.13222-2e-3 -0.19613-3e-3 -0.0727-5e-3 -0.14549-9e-3 -0.21819-5e-3 -0.0815-0.011-0.16307-0.0196-0.24466-9e-3 -0.0903-0.0201-0.18071-0.0311-0.27104-0.0156-0.10138-0.0307-0.20277-0.0507-0.30194-0.0196-0.11238-0.0437-0.22482-0.0703-0.33499-0.0286-0.12565-0.0638-0.25125-0.0995-0.37469-0.0417-0.13881-0.0879-0.27767-0.13866-0.41432-0.0573-0.15428-0.12108-0.30631-0.1894-0.45617-0.0774-0.17192-0.16328-0.34163-0.25572-0.50691-0.10148-0.18071-0.2115-0.35926-0.33057-0.52892-0.11706-0.17192-0.24014-0.3372-0.37227-0.49591-0.13464-0.16086-0.27582-0.31736-0.42352-0.46501-0.15875-0.16087-0.32806-0.31515-0.5044-0.45838-0.18086-0.14987-0.37026-0.29094-0.5667-0.42096-0.1894-0.12565-0.38332-0.24024-0.58176-0.34599-0.19393-0.1036-0.39438-0.19835-0.59735-0.2821-0.21552-0.0904-0.43859-0.1697-0.66315-0.23582-0.25321-0.075-0.51144-0.13665-0.77117-0.18292-0.28687-0.0529-0.57775-0.0838-0.87065-0.0992-0.29088-0.0154-0.58177-0.0111-0.87064 0.011-0.26426 0.0198-0.52651 0.0551-0.78675 0.1058-0.2316 0.0441-0.46069 0.10139-0.68777 0.16966-0.20899 0.0618-0.41397 0.13444-0.61493 0.21603-0.20497 0.0837-0.40291 0.17629-0.59935 0.27767-0.20246 0.1058-0.40091 0.22261-0.59483 0.35042-0.1899 0.12339-0.37277 0.25783-0.54911 0.40111-0.16529 0.13223-0.32153 0.27109-0.47376 0.41874-0.14318 0.13881-0.27983 0.2843-0.41196 0.43638-0.13464 0.15644-0.26225 0.31736-0.38131 0.48486-0.12359 0.16965-0.23814 0.34378-0.34364 0.52449-0.0995 0.16971-0.19392 0.34379-0.27782 0.52234-0.0774 0.16086-0.1477 0.32173-0.21151 0.48707-0.0553 0.14323-0.106 0.28867-0.15222 0.43632-0.0397 0.13007-0.0769 0.26009-0.11003 0.39232-0.0286 0.11681-0.0553 0.23361-0.0774 0.35263-0.0196 0.10359-0.0372 0.20934-0.0528 0.31515-0.0131 0.0948-0.0241 0.18734-0.0331 0.28209-9e-3 0.0837-0.0156 0.1675-0.0196 0.25125-5e-3 0.0749-9e-3 0.14986-0.0111 0.22261 0 0.0661-3e-3 0.13223-3e-3 0.19834"/><path d="m430.39 37.798h-0.44964c-0.14971 2e-3 -0.29088 2e-3 -0.40744 2e-3 -0.11906 2e-3 -0.21201 2e-3 -0.2733 4e-3 -0.0643 0-0.0949 2e-3 -0.0995 2e-3"/><path d="m445.29 37.808c0 0.40111-0.0307 0.80443-0.0904 1.2011-0.0593 0.3989-0.14972 0.79121-0.26878 1.1768-0.11907 0.38347-0.26677 0.76037-0.44311 1.1218-0.17383 0.36147-0.37478 0.70747-0.59935 1.0402-0.22708 0.33057-0.47828 0.64793-0.75359 0.94324-0.2733 0.29535-0.57072 0.56876-0.88622 0.81995-0.315 0.2512-0.64758 0.47828-0.99825 0.68074-0.34816 0.20096-0.71189 0.37478-1.0867 0.52249-0.37428 0.14569-0.76012 0.26425-1.1525 0.35268-0.39236 0.0904-0.79126 0.14971-1.1922 0.18086-0.40141 0.0286-0.80433 0.0286-1.2057-3e-3 -0.40091-0.0306-0.7998-0.0904-1.1922-0.18035-0.39237-0.0904-0.77821-0.2095-1.1525-0.35519-0.37277-0.14771-0.7365-0.32405-1.0847-0.5245s-0.68074-0.42754-0.99574-0.67873c-0.31299-0.2512-0.60839-0.52671-0.8817-0.82201-0.27581-0.29315-0.527-0.61051-0.75157-0.94108-0.22708-0.33279-0.42754-0.68099-0.60187-1.0424-0.17382-0.36147-0.32153-0.73832-0.43858-1.124-0.11907-0.38348-0.209-0.77796-0.26878-1.1747-0.0593-0.39669-0.0879-0.79559-0.0879-1.1945"/><path d="m445.29 37.808c-5e-3 -4e-3 -0.0332-7e-3 -0.0879-0.011-0.0553-2e-3 -0.13916-7e-3 -0.24266-9e-3 -0.10349-2e-3 -0.22708-4e-3 -0.3572-7e-3 -0.13212-2e-3 -0.27078-4e-3 -0.40543-4e-3"/><path d="m444.2 37.777c0 0.0683-2e-3 0.13666-2e-3 0.20498-3e-3 0.0727-7e-3 0.14544-0.011 0.2204-5e-3 0.0771-0.0111 0.15423-0.0201 0.23361-7e-3 0.0859-0.0176 0.17187-0.0286 0.25562-0.0131 0.097-0.0307 0.19397-0.0462 0.29093-0.0221 0.10797-0.0442 0.21598-0.0683 0.32173-0.0286 0.12123-0.0593 0.24246-0.095 0.36147-0.0397 0.13444-0.0834 0.26888-0.13213 0.40111-0.0528 0.14987-0.11253 0.29752-0.17834 0.44296-0.0729 0.1675-0.15223 0.33057-0.24015 0.49149-0.097 0.18071-0.20296 0.357-0.3155 0.52892-0.12108 0.18071-0.25119 0.35705-0.38784 0.5267-0.13414 0.16534-0.27532 0.32621-0.42302 0.47828-0.14971 0.15428-0.30394 0.29973-0.46722 0.43859-0.17182 0.14765-0.35469 0.28867-0.54208 0.41869-0.19593 0.13665-0.40091 0.26451-0.61041 0.38147-0.20497 0.11203-0.41246 0.21351-0.62598 0.30595-0.20698 0.0884-0.41648 0.16529-0.6305 0.23361-0.22457 0.0708-0.45366 0.13264-0.68526 0.18087-0.25572 0.0528-0.51545 0.0924-0.7782 0.11705-0.28385 0.0241-0.56821 0.0327-0.85256 0.0241-0.28887-9e-3 -0.57524-0.0352-0.85758-0.0794-0.25974-0.0397-0.51545-0.0949-0.76665-0.16529-0.22256-0.0618-0.44311-0.13464-0.65914-0.21804-0.19844-0.0774-0.39236-0.16327-0.58378-0.25822-0.1899-0.0944-0.37729-0.19795-0.55765-0.31053-0.1899-0.11902-0.37478-0.24683-0.55112-0.38127-0.17835-0.13665-0.35017-0.28214-0.51546-0.43416-0.15222-0.14329-0.29791-0.29315-0.43657-0.44743-0.13213-0.14766-0.25572-0.29973-0.37479-0.45617-0.11906-0.15871-0.2311-0.324-0.33509-0.49149-0.10349-0.16308-0.19794-0.33279-0.28436-0.5047-0.0789-0.15203-0.15172-0.30852-0.21803-0.46723-0.0593-0.13881-0.11254-0.27988-0.16077-0.42311-0.0442-0.12781-0.0839-0.25567-0.12107-0.38348-0.0312-0.11459-0.0598-0.22919-0.0859-0.34599-0.0221-0.1036-0.0442-0.20719-0.0618-0.31299-0.0156-0.0925-0.0312-0.1873-0.0442-0.2821-0.0111-0.0837-0.0196-0.16749-0.0266-0.25345-9e-3 -0.0771-0.0131-0.15203-0.0176-0.22919-4e-3 -0.0683-7e-3 -0.13665-9e-3 -0.20714-3e-3 -0.0617-3e-3 -0.12344-3e-3 -0.18513"/><path d="m429.16 37.808c0-0.3989 0.0286-0.7978 0.0879-1.1945 0.0598-0.39674 0.15021-0.79122 0.26677-1.1747 0.11906-0.38569 0.26677-0.76253 0.4411-1.124 0.17382-0.36363 0.37227-0.70963 0.59935-1.0424 0.22708-0.33279 0.47827-0.65015 0.75158-0.94545 0.2733-0.29536 0.57071-0.57082 0.8837-0.82207 0.315-0.25124 0.64809-0.47827 0.99624-0.68099 0.34816-0.20055 0.71189-0.37689 1.0862-0.52233 0.37479-0.14766 0.76062-0.26667 1.153-0.35705 0.39186-0.0903 0.79328-0.14987 1.1942-0.18071 0.40141-0.0309 0.80433-0.0309 1.2078 0 0.40141 0.0286 0.80232 0.0882 1.1947 0.1785 0.39236 0.0904 0.7777 0.20939 1.1525 0.35705 0.3768 0.14544 0.74053 0.32178 1.0887 0.52233 0.34816 0.20277 0.68125 0.42975 0.99625 0.68099 0.31499 0.25125 0.6104 0.52671 0.8837 0.82206 0.27581 0.29531 0.52701 0.61046 0.75158 0.94103 0.22507 0.33279 0.42552 0.67883 0.59935 1.0425 0.17433 0.36142 0.32203 0.7361 0.4411 1.1218 0.11907 0.38348 0.20698 0.77796 0.26627 1.1746 0.0618 0.3989 0.0904 0.80001 0.0904 1.2033"/><path d="m429.22 54.416c0 0.48681-0.0417 0.96961-0.12108 1.4459-0.0819 0.47576-0.20296 0.9455-0.3592 1.3926-0.15675 0.44763-0.34816 0.87516-0.55565 1.2605-0.20698 0.38383-0.42954 0.72747-0.66316 1.0405-0.2316 0.31299-0.47375 0.59483-0.72093 0.85054-0.24667 0.25572-0.49586 0.4828-0.74454 0.68778-0.2517 0.20296-0.50038 0.38332-0.74756 0.5466-0.24868 0.16076-0.49335 0.30395-0.73349 0.42753-0.24064 0.12359-0.47174 0.23161-0.70335 0.32606-0.22909 0.0949-0.45818 0.17633-0.69631 0.25119-0.23562 0.0749-0.4828 0.14117-0.74706 0.19845-0.89727 0.16729-1.9789 0.26425-2.8651 0.16327"/><path d="m445.82 71.024c0 0.60588-0.0638 1.256-0.21804 1.9307-0.15675 0.67421-0.40141 1.375-0.76062 2.0603-0.35921 0.68577-0.83096 1.358-1.3972 1.9553-0.56871 0.59684-1.2344 1.1193-1.9593 1.5358-0.72696 0.41447-1.5162 0.72294-2.3075 0.91033-0.79327 0.18488-1.5891 0.2512-2.3361 0.22055-0.74705-0.0311-1.4434-0.15674-2.0804-0.34615-0.63452-0.18739-1.2098-0.43657-1.7232-0.72093-0.51595-0.28435-0.97213-0.60387-1.373-0.93846-0.40141-0.33761-0.74706-0.68979-1.049-1.047-0.30193-0.35921-0.56016-0.72294-0.7782-1.0842-0.22055-0.35921-0.3989-0.7144-0.55112-1.0626-0.14972-0.34816-0.26878-0.68979-0.37027-1.04-0.10098-0.35268-0.18287-0.71641-0.24014-1.1108-0.0573-0.39237-0.0924-0.81789-0.0924-1.263"/><path d="m428.59 37.808c0-0.28651 0.0156-0.58403 0.0462-0.88154 0.0286-0.29752 0.0749-0.59725 0.14318-0.9124 0.0663-0.3152 0.15675-0.64798 0.2733-0.98956 0.11706-0.34162 0.26024-0.69204 0.43658-1.049 0.17835-0.35705 0.38985-0.72068 0.64356-1.0865 0.25321-0.36363 0.54861-0.72947 0.89677-1.0865 0.34615-0.35705 0.74505-0.70305 1.2012-1.027 0.45416-0.32178 0.96961-0.62151 1.5514-0.87275 0.58177-0.25125 1.2344-0.45622 1.9352-0.57961 0.70285-0.12123 1.4569-0.15871 2.1864-0.0992 0.72947 0.0595 1.4343 0.21376 2.0714 0.42974 0.63704 0.21598 1.2032 0.49144 1.7081 0.80001 0.50692 0.30852 0.95003 0.65014 1.3354 1.0028 0.38785 0.35479 0.71842 0.72284 1.0053 1.0931 0.28436 0.37027 0.5245 0.74495 0.72295 1.1064 0.20045 0.36363 0.36121 0.71405 0.49586 1.0689 0.13665 0.35263 0.24667 0.70525 0.33057 1.06 0.0859 0.35484 0.1477 0.71189 0.18689 1.0513 0.0397 0.33941 0.0553 0.66335 0.0553 0.97192"/><path d="m417.36 46.424c0.42553-0.17182 0.89024-0.31952 1.3841-0.42954 0.49385-0.11053 1.0158-0.18086 1.5845-0.19845 0.5662-0.0156 1.1791 0.0241 1.7719 0.12761 0.59081 0.10349 1.1615 0.27129 1.6815 0.47627 0.51796 0.20497 0.98318 0.44964 1.3972 0.70937 0.41447 0.26024 0.78021 0.53555 1.1042 0.82242 0.32606 0.28385 0.61041 0.57724 0.8616 0.87014 0.2512 0.29088 0.46723 0.58428 0.65713 0.87064 0.18689 0.28636 0.34816 0.56871 0.48682 0.8395 0.13866 0.2733 0.25572 0.53806 0.35268 0.79378 0.099 0.25571 0.18086 0.50038 0.24667 0.736 0.0683 0.23361 0.12158 0.46069 0.16529 0.67421 0.0442 0.21603 0.0774 0.421 0.10148 0.61744 0.0241 0.19593 0.0417 0.38332 0.0528 0.56418 0.011 0.18036 0.0156 0.35218 0.0156 0.51797"/><path d="m411.92 54.439c0 0.48682 0.0417 0.96961 0.12108 1.4459 0.0819 0.47576 0.20296 0.9455 0.35921 1.3926 0.15674 0.44763 0.34815 0.87516 0.55564 1.2605 0.20699 0.38382 0.42955 0.72746 0.66316 1.0404 0.2316 0.31299 0.47375 0.59483 0.72093 0.85055 0.24667 0.25571 0.49586 0.48279 0.74454 0.68777 0.2517 0.20297 0.50038 0.38332 0.74756 0.5466 0.24868 0.16077 0.49335 0.30395 0.73349 0.42754 0.24065 0.12358 0.47175 0.2316 0.70335 0.32605 0.22909 0.095 0.45818 0.17634 0.69631 0.25119 0.23562 0.0749 0.4828 0.14118 0.74706 0.19845 0.26677 0.0573 0.55313 0.106 0.85507 0.14117"/><path d="m417.36 46.424c-0.51796 0.20498-0.98318 0.44964-1.3997 0.70988-0.41397 0.25773-0.7777 0.53555-1.1038 0.8194-0.32404 0.28687-0.6084 0.57976-0.85959 0.87064-0.2512 0.2934-0.46974 0.58629-0.65713 0.87266-0.1894 0.28686-0.35017 0.56669-0.48883 0.83999-0.13665 0.27331-0.2537 0.53756-0.35267 0.79328-0.0995 0.25321-0.17886 0.50038-0.24718 0.73399-0.0658 0.23562-0.12108 0.4607-0.16529 0.67672-0.0417 0.21553-0.0749 0.42051-0.099 0.61694-0.0266 0.19593-0.0417 0.38332-0.0528 0.56419-0.011 0.17834-0.0156 0.35267-0.0156 0.51796"/></g><g stroke="#899099"><g stroke-linejoin="bevel" stroke-miterlimit="22.926" stroke-width=".42086"><path d="m35.432 99.791v0.1334"/><path d="m35.432 110.77v0.13341"/><path d="m35.432 111.94v0.0146"/><path d="m35.432 98.744v0.0146"/><path d="m41.279 98.759v1.0306"/><path d="m41.279 110.9v1.0328"/><path d="m41.306 111.94v-1.0401"/><path d="m41.306 99.798v-1.0401"/><path d="m42.073 98.759v-0.0185"/><path d="m42.097 98.759v1.0586"/><path d="m42.097 110.88v1.0586"/><path d="m43.66 110.88v-0.0818"/><path d="m43.66 99.899v-0.0817"/><path d="m44.036 114.08v6.6412"/><path d="m44.037 89.975v6.6412"/><path d="m45.248 89.975v5.8477"/><path d="m45.248 114.87v5.8455"/><path d="m45.275 112.49v1.5629"/><path d="m45.275 98.203v-1.5647"/><path d="m50.721 86.674v0.15749"/><path d="m56.335 112.49v1.5629"/><path d="m56.335 98.203v-1.5647"/><path d="m56.361 120.72v-5.8455"/><path d="m56.361 95.821v-5.8477"/><path d="m57.572 89.975v6.6412"/><path d="m57.572 114.08v6.6412"/><path d="m57.949 99.818v0.0818"/><path d="m57.949 110.8v0.0818"/><path d="m59.513 99.818v-1.0586"/><path d="m59.513 111.94v-1.0586"/><path d="m59.537 111.96v0.1575"/><path d="m59.537 98.581v0.15965"/><path d="m60.304 98.759v1.0401"/><path d="m60.304 110.9v1.0401"/><path d="m60.331 111.94v-1.0328"/><path d="m60.331 99.791v-1.0306"/><path d="m50.293 123.86-4e-3 0.1575"/><path d="m46.181 123.26-6e-3 0.0185"/><path d="m46.439 122.26 0.38213-1.4795"/><path d="m54.789 89.919 0.38213-1.4795"/><path d="m55.429 87.439 0.0443-0.17256"/><path d="m45.248 114.87 8e-3 -0.028"/><path d="m45.256 95.849-8e-3 -0.0258"/><path d="m56.353 114.85 8e-3 0.0258"/><path d="m46.439 88.438 0.38213 1.4795"/><path d="m55.474 123.43-0.0443-0.17256"/><path d="m55.171 122.26-0.38213-1.4795"/><path d="m46.181 87.439-6e-3 -0.0185"/><path d="m66.177 112.11v-0.17815"/><path d="m66.177 110.9v-0.1334"/><path d="m66.177 99.924v-0.1334"/><path d="m66.177 98.759v-0.17815"/><path d="m56.361 95.821-8e-3 0.0279"/><path d="m60.331 110.9-0.0258-8e-3"/><path d="m66.234 109.33 1.4795 0.38213"/><path d="m35.375 101.36-1.4795-0.38212"/><path d="m32.896 100.72-0.0111-4e-3"/><path d="m68.714 109.97 0.17255 0.0443"/><path d="m41.279 99.791 0.028 8e-3"/><path d="m60.304 99.798 0.0258-8e-3"/><path d="m41.306 110.9-0.028 8e-3"/><path d="m44.197 120.72h0.0185"/><path d="m57.393 120.72h0.17816"/><path d="m45.248 120.72h0.13341"/><path d="m56.229 120.72h0.13341"/><path d="m44.216 114.87h1.0328"/><path d="m56.361 114.87h1.0306"/><path d="m45.256 114.85h-1.0401"/><path d="m57.393 114.85h-1.0401"/><path d="m57.572 114.08h-0.15751"/><path d="m44.216 114.06h1.0586"/><path d="m56.335 114.06h1.0586"/><path d="m56.335 112.49h-0.0818"/><path d="m45.357 112.49h-0.0818"/><path d="m66.177 112.11h-6.6412"/><path d="m42.071 111.94h-6.6392"/><path d="m35.432 110.9h5.8457"/><path d="m60.331 110.9h5.8477"/><path d="m43.66 110.88h-1.5629"/><path d="m57.949 110.88h1.5647"/><path d="m44.036 114.08h0.16137"/><path d="m43.66 99.818h-1.5629"/><path d="m57.949 99.818h1.5647"/><path d="m66.177 99.791h-5.8477"/><path d="m41.279 99.791h-5.8457"/><path d="m35.432 98.759h6.6411"/><path d="m59.537 98.581h6.6412"/><path d="m45.275 98.203h0.0818"/><path d="m56.253 98.203h0.0818"/><path d="m45.275 96.639h-1.0586"/><path d="m57.393 96.639h-1.0586"/><path d="m57.413 96.615h0.15964"/><path d="m44.216 95.849h1.0401"/><path d="m56.353 95.849h1.0401"/><path d="m57.393 95.821h-1.0306"/><path d="m45.248 95.821h-1.0328"/><path d="m44.036 96.615h0.17988"/><path d="m57.572 89.975h-0.17816"/><path d="m56.361 89.975h-0.1334"/><path d="m45.381 89.975h-0.1334"/><path d="m44.037 89.975h0.16137"/><path d="m32.896 109.97-0.0111 2e-3"/><path d="m33.895 109.71 1.4795-0.38213"/><path d="m66.234 101.36 1.4795-0.38212"/><path d="m68.714 100.72 0.17255-0.0443"/><path d="m32.721 110.01c0.076 0.29091 0.19653 0.56717 0.35966 0.81934"/><path d="m32.896 109.97c0.29848 1.1567 1.3423 1.9653 2.5363 1.9653"/><path d="m33.895 109.71c0.18168 0.70099 0.81391 1.1903 1.537 1.1903"/><path d="m35.426 98.585c-0.30037 0-0.59884 0.0499-0.88252 0.1446"/><path d="m33.108 99.82c-0.17613 0.26336-0.30777 0.55425-0.38751 0.86022"/><path d="m35.432 98.759c-1.194 0-2.2378 0.80815-2.5363 1.9653"/><path d="m35.432 99.791c-0.72491 0-1.3571 0.48928-1.5369 1.1903"/><path d="m55.474 123.43c1.2346-0.31887 2.0987-1.433 2.0987-2.7089"/><path d="m44.216 120.72c0 1.1942 0.80815 2.2377 1.9653 2.5363"/><path d="m55.429 123.26c1.1567-0.29865 1.9653-1.3422 1.9653-2.5363"/><path d="m44.216 114.08c0-0.56932-0.22421-1.1141-0.62871-1.5165-0.40192-0.40236-0.94715-0.62871-1.5165-0.62871"/><path d="m59.538 111.94c-0.56931 0-1.1141 0.22419-1.5164 0.6287-0.40236 0.40192-0.62871 0.94714-0.62871 1.5165"/><path d="m59.537 112.11c-1.0844 0-1.9653 0.88044-1.9653 1.9653"/><path d="m45.275 112.49c0-0.89164-0.72294-1.615-1.615-1.615"/><path d="m57.949 110.88c-0.42817 0-0.83784 0.1704-1.1421 0.47292-0.30209 0.30209-0.47293 0.71348-0.47293 1.1421"/><path d="m55.171 122.26c0.701-0.18159 1.1903-0.81374 1.1903-1.5371"/><path d="m45.248 120.72c0 0.7251 0.48928 1.3572 1.1903 1.5371"/><path d="m50.288 124.01c1.7484 0.0482 3.493-0.14846 5.1858-0.58567"/><path d="m68.886 110.02c0.7918-3.0626 0.7918-6.2741 0-9.3368"/><path d="m55.474 87.266c-1.5518-0.40064-3.15-0.60074-4.7516-0.59342"/><path d="m68.714 109.97c0.78232-3.0334 0.78232-6.2148 0-9.2477"/><path d="m55.429 87.439c-3.0334-0.78234-6.2148-0.78234-9.2477 0"/><path d="m32.896 100.72c-0.78237 3.0334-0.78237 6.2147 0 9.2477"/><path d="m46.181 123.26c3.0334 0.78233 6.2148 0.78233 9.2477 0"/><path d="m67.714 109.71c0.73972-2.8642 0.73972-5.8679 0-8.7322"/><path d="m55.171 88.438c-2.8642-0.73973-5.8679-0.73973-8.7322 0"/><path d="m33.895 100.98c-0.73973 2.8642-0.73973 5.8679 0 8.7322"/><path d="m46.439 122.26c2.8642 0.73973 5.8679 0.73973 8.7322 0"/><path d="m34.024 101.02c-0.73418 2.8423-0.73418 5.8236 0 8.6654"/><path d="m55.137 88.567c-2.8423-0.73414-5.8236-0.73414-8.6654 0"/><path d="m46.472 122.13c2.8423 0.73413 5.8236 0.73413 8.6654 0"/><path d="m67.585 109.68c0.73414-2.8423 0.73414-5.8236 0-8.6654"/><path d="m46.821 120.78c2.6125 0.67475 5.3545 0.67475 7.9683 0"/><path d="m35.375 101.36c-0.67488 2.6142-0.67488 5.3545 0 7.9683"/><path d="m66.234 109.33c0.67475-2.6125 0.67475-5.3545 0-7.9666"/><path d="m54.789 89.919c-2.6142-0.67475-5.3545-0.67475-7.9683 0"/><path d="m43.66 99.818c0.89164 0 1.615-0.72294 1.615-1.615"/><path d="m46.181 87.439c-1.1567 0.29864-1.9653 1.3422-1.9653 2.5363"/><path d="m42.073 98.759c0.56932 0 1.1141-0.22635 1.5147-0.6287 0.40235-0.40193 0.62828-0.94715 0.62828-1.5143"/><path d="m46.439 88.438c-0.701 0.1816-1.1903 0.81374-1.1903 1.5371"/><path d="m32.132 105.35c0 1.5741 0.19838 3.1427 0.58959 4.6686"/><path d="m32.72 100.68c-0.39121 1.5238-0.58774 3.0923-0.58774 4.6664"/><path d="m50.721 86.673c-1.5479 8e-3 -3.0867 0.20784-4.5868 0.59341"/><path d="m46.134 123.43c1.359 0.35028 2.7515 0.54694 4.1531 0.58567"/><path d="m56.335 98.203c0 0.42817 0.1704 0.83785 0.47292 1.1421 0.30208 0.30209 0.71348 0.47293 1.1421 0.47293"/><path d="m57.572 89.975c0-1.2755-0.86409-2.39-2.0987-2.7089"/><path d="m57.393 89.975c0-1.1942-0.80815-2.2377-1.9653-2.5363"/><path d="m57.393 96.614c0 0.56932 0.22635 1.1141 0.6287 1.5165 0.40192 0.40235 0.94715 0.6287 1.5165 0.6287"/><path d="m57.572 96.615c0 1.0844 0.88044 1.9653 1.9653 1.9653"/><path d="m56.361 89.975c0-0.7251-0.48928-1.3551-1.1903-1.5371"/><path d="m66.177 112.11c1.2755 0 2.39-0.86194 2.7089-2.0987"/><path d="m68.886 100.68c-0.31887-1.2346-1.433-2.0987-2.7089-2.0987"/><path d="m68.714 100.72c-0.29865-1.1567-1.3422-1.9653-2.5363-1.9653"/><path d="m66.177 111.94c1.1942 0 2.2377-0.80815 2.5363-1.9653"/><path d="m66.177 110.9c0.72509 0 1.3551-0.48928 1.5371-1.1903"/><path d="m67.714 100.98c-0.1816-0.701-0.81375-1.1903-1.5371-1.1903"/><path d="m35.48 109.41c0.70083-6e-3 1.4016-0.0129 2.1024-0.0202 0.69712-6e-3 1.3942-0.0151 2.0915-0.0224 0.69497-6e-3 1.3887-0.0129 2.0836-0.0168 0.34685-2e-3 0.69368-3e-3 1.0418-6e-3 0.34683-2e-3 0.69368-2e-3 1.0401-2e-3"/><path d="m35.432 110.77c3e-3 -2e-3 3e-3 -6e-3 3e-3 -8e-3 2e-3 -8e-3 3e-3 -0.0129 5e-3 -0.0206 2e-3 -9e-3 2e-3 -0.0202 3e-3 -0.0314 2e-3 -0.0146 3e-3 -0.0297 3e-3 -0.0443 2e-3 -0.0185 3e-3 -0.037 3e-3 -0.0577 2e-3 -0.0224 3e-3 -0.0465 5e-3 -0.0684 2e-3 -0.028 2e-3 -0.0555 3e-3 -0.0835 2e-3 -0.0297 2e-3 -0.0611 3e-3 -0.0929 2e-3 -0.0723 5e-3 -0.1446 5e-3 -0.21474 2e-3 -0.0817 3e-3 -0.16137 5e-3 -0.24313 0-0.0835 2e-3 -0.16653 2e-3 -0.25002 2e-3 -0.0835 2e-3 -0.16524 2e-3 -0.24658"/><path d="m35.375 109.33c5e-3 0.0224 0.0204 0.0426 0.039 0.0576 0.0186 0.0129 0.0427 0.0202 0.0667 0.0202"/><path d="m35.432 110.77c-0.15943 0-0.31887-0.0279-0.4709-0.0779-0.15018-0.0521-0.29296-0.12996-0.41901-0.22635-0.12608-0.0981-0.23732-0.21688-0.32446-0.35028-0.0871-0.1334-0.15389-0.28187-0.19468-0.43549"/><path d="m41.306 110.9c0.01-4e-3 0.0168-4e-3 0.0258-4e-3 0.0185-2e-3 0.0353-2e-3 0.0538-3e-3 0.0241-3e-3 0.0504-3e-3 0.0761-4e-3 0.0332 0 0.0667-2e-3 0.0981-2e-3 0.0391-2e-3 0.0779-2e-3 0.11705-2e-3 0.0443-3e-3 0.0886-3e-3 0.13168-3e-3 0.0964-2e-3 0.19278-2e-3 0.28918-2e-3"/><path d="m35.432 110.77 8.2281 0.0241"/><path d="m45.275 114.06c0 0.0964 0 0.19279-2e-3 0.28746v0.13168c-3e-3 0.0387-3e-3 0.0779-4e-3 0.11662 0 0.0336-2e-3 0.0667-4e-3 0.10027 0 0.0241 0 0.0499-2e-3 0.0757-2e-3 0.0168-3e-3 0.0353-3e-3 0.0521 0 9e-3 -3e-3 0.0185-4e-3 0.0279"/><path d="m45.357 112.49c2e-3 -0.0147 0.0168-0.0259 0.0297-0.0336 0.0129-8e-3 0.0241-0.0129 0.0353-0.0185 0.0146-6e-3 0.0314-0.0108 0.0482-0.0164 0.0464-0.0134 0.0925-0.0241 0.14072-0.0336 0.0632-0.0112 0.12608-0.0202 0.19106-0.0297 0.0779-9e-3 0.15577-0.0168 0.23367-0.0224 0.0852-8e-3 0.1704-0.0129 0.25776-0.0164 0.17214-8e-3 0.3447-0.0112 0.5151-0.01"/><path d="m42.097 99.818c-0.0964 0-0.19106 0-0.28745-2e-3 -0.0443 0-0.0869 0-0.13168-3e-3 -0.0387 0-0.0779 0-0.11662-2e-3 -0.0336 0-0.0667-2e-3 -0.10026-4e-3 -0.0259 0-0.0499 0-0.0757-2e-3 -0.0168-2e-3 -0.0353-3e-3 -0.0521-3e-3 -0.01 0-0.0185-3e-3 -0.028-4e-3"/><path d="m43.66 99.899-8.2281 0.0241"/><path d="m45.256 95.849c4e-3 0.01 4e-3 0.0168 4e-3 0.0258 2e-3 0.0185 2e-3 0.0353 3e-3 0.0538 3e-3 0.0241 3e-3 0.0504 4e-3 0.0761 0 0.0331 2e-3 0.0667 2e-3 0.0981 2e-3 0.0391 2e-3 0.0779 2e-3 0.11705 3e-3 0.0443 3e-3 0.0887 3e-3 0.13168 2e-3 0.0964 2e-3 0.19279 2e-3 0.28918"/><path d="m45.381 89.975c0-0.15965 0.0258-0.31887 0.0779-0.47077 0.0521-0.15019 0.12781-0.29305 0.22635-0.41914 0.0981-0.12608 0.21688-0.23711 0.35028-0.32447 0.1334-0.0891 0.28187-0.15405 0.43549-0.19278"/><path d="m46.821 89.919c-0.0224 6e-3 -0.0426 0.0202-0.0576 0.0387-0.0129 0.0189-0.0202 0.043-0.0202 0.065"/><path d="m55.137 88.567c0.15406 0.0387 0.30209 0.10586 0.43549 0.19278 0.13382 0.0891 0.25216 0.19838 0.35071 0.32447 0.0981 0.12608 0.17428 0.26895 0.22592 0.42085 0.0521 0.15019 0.0779 0.31156 0.0779 0.46906"/><path d="m56.229 89.975c-2e-3 4e-3 -6e-3 4e-3 -0.01 6e-3 -5e-3 0-0.0129 2e-3 -0.0202 4e-3 -9e-3 2e-3 -0.0202 2e-3 -0.0314 3e-3 -0.0151 2e-3 -0.0297 4e-3 -0.0447 4e-3 -0.0202 2e-3 -0.0404 3e-3 -0.0589 6e-3 -0.0241 2e-3 -0.0482 2e-3 -0.0706 3e-3 -0.0297 3e-3 -0.0555 3e-3 -0.0835 4e-3 -0.0314 2e-3 -0.0632 4e-3 -0.0947 4e-3 -0.0723 2e-3 -0.1446 5e-3 -0.21689 5e-3 -0.0796 3e-3 -0.15922 4e-3 -0.24098 6e-3 -0.0817 0-0.16481 3e-3 -0.2483 3e-3 -0.08 0-0.16137 2e-3 -0.24099 2e-3"/><path d="m54.867 90.023c0-0.0224-8e-3 -0.0465-0.0224-0.065-0.0129-0.0185-0.0332-0.0332-0.0555-0.0409"/><path d="m56.229 89.975 0.0241 8.2282"/><path d="m56.253 98.203c-2e-3 0.0147-0.0168 0.0258-0.0297 0.0336-0.0129 8e-3 -0.0241 0.0129-0.0353 0.0164-0.0168 8e-3 -0.0314 0.0129-0.0482 0.0185-0.0464 0.0134-0.0925 0.0241-0.14071 0.0336-0.0633 0.0112-0.12609 0.0202-0.19107 0.0297-0.0779 9e-3 -0.15577 0.0168-0.23366 0.0224-0.0852 8e-3 -0.17041 0.0129-0.25777 0.0164-0.17213 8e-3 -0.34469 0.0112-0.51509 9e-3"/><path d="m56.335 96.639c0-0.0964 0-0.19279 2e-3 -0.28745 0-0.0443 0-0.0869 3e-3 -0.13169 0-0.0387 0-0.0779 2e-3 -0.11661 0-0.0336 2e-3 -0.0667 2e-3 -0.10027 3e-3 -0.0241 3e-3 -0.0499 4e-3 -0.0757 2e-3 -0.0168 3e-3 -0.0353 3e-3 -0.0521 0-0.01 3e-3 -0.0185 4e-3 -0.028"/><path d="m66.129 101.29c-0.701 6e-3 -1.4016 0.0129-2.1026 0.0202-0.69713 6e-3 -1.3942 0.0151-2.0914 0.0224-0.69497 8e-3 -1.3886 0.0129-2.0836 0.0168-0.34685 2e-3 -0.69369 3e-3 -1.0418 6e-3 -0.34684 2e-3 -0.69369 2e-3 -1.0401 2e-3"/><path d="m45.381 120.72-0.0241-8.2282"/><path d="m46.743 120.67c0 0.0224 8e-3 0.0465 0.0224 0.065 0.0129 0.0185 0.0331 0.0331 0.0555 0.0387"/><path d="m45.381 120.72c2e-3 -2e-3 6e-3 -4e-3 0.01-4e-3 5e-3 -2e-3 0.0129-3e-3 0.0202-6e-3 9e-3 -2e-3 0.0202-2e-3 0.0314-3e-3 0.0151-2e-3 0.0297-4e-3 0.0448-4e-3 0.0202-2e-3 0.0404-3e-3 0.0589-6e-3 0.0241 0 0.0482-2e-3 0.0723-3e-3 0.028-3e-3 0.0538-3e-3 0.0817-4e-3 0.0314-2e-3 0.0633-2e-3 0.0947-4e-3 0.0723-2e-3 0.14459-5e-3 0.21689-5e-3l0.23926-6e-3c0.0835 0 0.16653-3e-3 0.25001-3e-3 0.08 0 0.16138-2e-3 0.24098-2e-3"/><path d="m46.472 122.13c-0.15405-0.0387-0.30208-0.10586-0.43549-0.19451-0.13382-0.0874-0.25216-0.19666-0.3507-0.32274-0.0981-0.12609-0.17429-0.26896-0.22593-0.42086-0.0521-0.15018-0.08-0.31156-0.08-0.46905"/><path d="m54.789 120.78c0.0224-6e-3 0.0426-0.0202 0.0555-0.0387 0.0151-0.0189 0.0224-0.043 0.0224-0.0671"/><path d="m56.229 120.72c0 0.15965-0.0258 0.31887-0.0779 0.47078-0.0521 0.15233-0.12781 0.29305-0.22636 0.41914-0.0981 0.1278-0.21688 0.2371-0.35028 0.32446-0.1334 0.0891-0.28186 0.15406-0.43548 0.19451"/><path d="m56.353 114.85c-2e-3 -8e-3 -2e-3 -0.0168-4e-3 -0.0259-2e-3 -0.0185-2e-3 -0.0353-3e-3 -0.0538-3e-3 -0.0241-3e-3 -0.0504-4e-3 -0.0761 0-0.0331-2e-3 -0.0667-2e-3 -0.0981-2e-3 -0.0392-2e-3 -0.0779-2e-3 -0.11705-3e-3 -0.0443-3e-3 -0.0887-3e-3 -0.13168-2e-3 -0.0964-2e-3 -0.19279-2e-3 -0.28918"/><path d="m66.177 99.924c-4e-3 2e-3 -4e-3 6e-3 -4e-3 0.01-2e-3 5e-3 -3e-3 0.0108-6e-3 0.0185 0 0.0108-2e-3 0.0202-3e-3 0.0314-2e-3 0.0147-2e-3 0.0297-4e-3 0.0443-2e-3 0.0185-3e-3 0.037-3e-3 0.0577-3e-3 0.0224-4e-3 0.0465-6e-3 0.0684 0 0.028-3e-3 0.0555-4e-3 0.0835-2e-3 0.0314-2e-3 0.0611-4e-3 0.093-2e-3 0.0723-5e-3 0.14458-5e-3 0.21473-3e-3 0.0818-4e-3 0.16137-6e-3 0.24098 0 0.0857-3e-3 0.16869-3e-3 0.25217-2e-3 0.0835-2e-3 0.16524-2e-3 0.24657"/><path d="m59.513 110.88c0.0964 0 0.19279 0 0.28745 2e-3 0.0443 0 0.0869 0 0.13168 3e-3 0.0387 0 0.0779 0 0.11662 2e-3 0.0336 0 0.0667 2e-3 0.10027 4e-3 0.0241 0 0.0499 0 0.0757 2e-3 0.0189 2e-3 0.0353 3e-3 0.0521 3e-3 0.01 0 0.0185 3e-3 0.028 4e-3"/><path d="m57.949 110.8 8.2282-0.0241"/><path d="m66.129 109.41c0.0224 0 0.0465-8e-3 0.065-0.0224 0.0185-0.0129 0.0332-0.0331 0.0387-0.0555"/><path d="m66.177 110.77c-4e-3 -2e-3 -4e-3 -6e-3 -4e-3 -9e-3 -2e-3 -5e-3 -3e-3 -0.0129-6e-3 -0.0202-2e-3 -9e-3 -2e-3 -0.0202-3e-3 -0.0314-2e-3 -0.0151-4e-3 -0.0314-4e-3 -0.0465-2e-3 -0.0185-3e-3 -0.037-6e-3 -0.0572-2e-3 -0.0241-2e-3 -0.0482-3e-3 -0.0706-3e-3 -0.0297-3e-3 -0.0576-4e-3 -0.0852-2e-3 -0.0297-4e-3 -0.0615-4e-3 -0.0929-2e-3 -0.0723-5e-3 -0.1446-5e-3 -0.21689-3e-3 -0.0796-4e-3 -0.15922-6e-3 -0.24098 0-0.0817-3e-3 -0.16481-3e-3 -0.2483-2e-3 -0.08-2e-3 -0.16137-2e-3 -0.24098"/><path d="m67.585 109.68c-0.0387 0.15406-0.10586 0.30209-0.19278 0.43549-0.0891 0.13383-0.19839 0.25217-0.32447 0.35071-0.12609 0.0981-0.26895 0.17429-0.42086 0.22593-0.15018 0.0521-0.31155 0.0779-0.46905 0.0779"/><path d="m46.809 112.31c-2e-3 -0.19279-0.0202-0.38557-0.0555-0.57664-0.037-0.19106-0.0964-0.37653-0.17084-0.55598-0.074-0.17987-0.16654-0.35243-0.27412-0.51381-0.10757-0.16136-0.23195-0.31327-0.37094-0.45055-0.13727-0.13899-0.28917-0.26335-0.45055-0.37051-0.16137-0.10758-0.33349-0.20052-0.51337-0.27454-0.17988-0.074-0.36535-0.13169-0.55642-0.16869-0.1889-0.037-0.38385-0.0576-0.57663-0.0576"/><path d="m46.743 120.67c6e-3 -0.70832 0.0129-1.4166 0.0202-2.1245 0.0112-1.0513 0.0223-2.1026 0.0319-3.1556 9e-3 -1.0272 0.0146-2.0544 0.0146-3.0816"/><path d="m54.801 112.31c0 0.68206 2e-3 1.3646 6e-3 2.0466 6e-3 1.044 0.0185 2.0879 0.0297 3.1315 0.0112 1.0608 0.0224 2.1211 0.0314 3.1814"/><path d="m57.769 109.34c-0.19278 2e-3 -0.38729 0.0202-0.57663 0.0555-0.19107 0.0391-0.37826 0.0947-0.55598 0.17084-0.17988 0.074-0.35244 0.16653-0.51381 0.27412-0.16309 0.10758-0.31327 0.23194-0.45055 0.37093-0.13899 0.13728-0.26336 0.28919-0.37051 0.45056-0.10758 0.16137-0.20053 0.3335-0.27454 0.51338-0.0762 0.17987-0.13168 0.36534-0.16869 0.5564-0.0391 0.18892-0.0576 0.38385-0.0576 0.57664"/><path d="m66.129 109.41c-0.701-8e-3 -1.4016-0.0129-2.1026-0.0185-0.34857-4e-3 -0.69713-8e-3 -1.0474-0.0112-0.34684-6e-3 -0.69541-9e-3 -1.044-0.0129-0.34855-4e-3 -0.69497-6e-3 -1.0435-9e-3 -0.17256 0-0.34684-2e-3 -0.5194-3e-3 -0.17429-3e-3 -0.34641-3e-3 -0.52069-4e-3 -0.17429-2e-3 -0.34685-3e-3 -0.52113-3e-3 -0.17256 0-0.34641-3e-3 -0.52069-3e-3 -0.17256-2e-3 -0.34684-2e-3 -0.52113-3e-3 -0.17256-4e-3 -0.34683-6e-3 -0.51897 2e-3"/><path d="m66.234 101.36c-6e-3 -0.0224-0.0202-0.0426-0.0387-0.0576-0.0189-0.0129-0.043-0.0202-0.065-0.0202"/><path d="m66.177 99.924c0.15965 0 0.31887 0.0259 0.47078 0.0779 0.15017 0.0521 0.29305 0.1278 0.41913 0.22634 0.12609 0.0981 0.23711 0.21689 0.32446 0.35029 0.0891 0.1334 0.15406 0.28186 0.19279 0.43549"/><path d="m60.304 99.798c-0.01 2e-3 -0.0168 4e-3 -0.0258 4e-3 -0.0185 2e-3 -0.0353 2e-3 -0.0538 3e-3 -0.0263 3e-3 -0.0504 3e-3 -0.0761 4e-3 -0.0331 0-0.0667 2e-3 -0.0981 2e-3 -0.0392 2e-3 -0.08 2e-3 -0.11705 2e-3 -0.0443 3e-3 -0.0887 3e-3 -0.13168 3e-3 -0.0964 2e-3 -0.19279 2e-3 -0.28918 2e-3"/><path d="m66.177 99.924-8.2282-0.0241"/><path d="m57.949 99.899c-0.0146 2e-3 -0.0259 0.0168-0.0336 0.0297-8e-3 0.0112-0.0129 0.0223-0.0164 0.0331-8e-3 0.0168-0.0129 0.0319-0.0168 0.0487-0.0151 0.0461-0.0241 0.0925-0.0336 0.139-0.0129 0.0629-0.0219 0.12609-0.0297 0.18891-0.0108 0.0779-0.0164 0.15578-0.0241 0.23366-8e-3 0.0852-0.0108 0.17256-0.0164 0.25777-8e-3 0.17428-0.0112 0.34856-9e-3 0.52069"/><path d="m56.253 98.203c2e-3 0.21861 0.0465 0.43936 0.12996 0.64334 0.0852 0.20569 0.21301 0.39503 0.36878 0.55254 0.15923 0.15749 0.34857 0.28358 0.55426 0.37093 0.20398 0.0831 0.42473 0.12781 0.64334 0.12953"/><path d="m54.801 98.384c4e-3 0.19279 0.0202 0.3873 0.0576 0.57664 0.0349 0.19107 0.0942 0.37654 0.16869 0.55598 0.074 0.17988 0.16653 0.35243 0.27411 0.51381 0.10759 0.16137 0.23195 0.31327 0.37094 0.45055 0.27455 0.27412 0.60418 0.49659 0.96393 0.64506 0.35975 0.14845 0.74747 0.22635 1.133 0.22635"/><path d="m54.867 90.023c-6e-3 0.70831-0.0129 1.4166-0.0202 2.1245-0.0112 1.0513-0.0224 2.1026-0.0319 3.1556-9e-3 1.0255-0.0147 2.0544-0.0147 3.0794"/><path d="m46.809 98.384c0-0.68206-2e-3 -1.3646-6e-3 -2.0466-6e-3 -1.044-0.0185-2.0879-0.0297-3.1315-0.0112-1.0608-0.0224-2.1211-0.0314-3.1814"/><path d="m43.841 101.35c0.19278-2e-3 0.3873-0.0202 0.57664-0.0576 0.19106-0.037 0.37653-0.0942 0.55598-0.16868 0.17988-0.074 0.35243-0.16654 0.5138-0.27413 0.1631-0.10757 0.31328-0.23194 0.45055-0.37094 0.139-0.13727 0.26336-0.28917 0.37051-0.45054 0.10758-0.16138 0.20054-0.3335 0.27455-0.51338 0.074-0.17988 0.13168-0.36534 0.16869-0.55641 0.0392-0.18891 0.0576-0.38385 0.0576-0.57664"/><path d="m35.48 101.29c0.70083 8e-3 1.4016 0.0129 2.1024 0.0185l1.0456 0.0112c0.34856 6e-3 0.69712 9e-3 1.0459 0.0129 0.34856 4e-3 0.69497 6e-3 1.0418 9e-3 0.17429 0 0.34857 2e-3 0.52113 3e-3 0.17427 3e-3 0.34813 4e-3 0.52069 4e-3 0.17428 2e-3 0.34685 3e-3 0.52112 3e-3 0.17256 3e-3 0.34642 3e-3 0.5207 3e-3 0.17256 2e-3 0.34683 2e-3 0.52112 3e-3 0.17256 4e-3 0.34684 6e-3 0.51897-2e-3"/><path d="m45.381 89.975c2e-3 4e-3 6e-3 4e-3 0.01 6e-3 8e-3 0 0.0129 2e-3 0.0202 4e-3 9e-3 2e-3 0.0202 2e-3 0.0314 3e-3 0.0168 2e-3 0.0314 4e-3 0.0465 4e-3 0.0202 2e-3 0.0387 3e-3 0.0594 6e-3 0.0241 2e-3 0.0482 2e-3 0.0723 3e-3 0.0276 3e-3 0.0555 3e-3 0.0835 4e-3 0.0314 2e-3 0.0629 4e-3 0.0942 4e-3 0.0723 2e-3 0.14459 5e-3 0.21689 5e-3l0.23925 6e-3c0.0835 0 0.16525 3e-3 0.24658 3e-3 0.0818 2e-3 0.16138 2e-3 0.24098 2e-3"/><path d="m45.357 98.203 0.0241-8.2282"/><path d="m45.357 98.203c2e-3 0.0147 0.0168 0.0258 0.0297 0.0336 0.0112 8e-3 0.0224 0.0129 0.0332 0.0164 0.0168 8e-3 0.0319 0.0129 0.0487 0.0168 0.0443 0.0151 0.0925 0.0241 0.13899 0.0336 0.0629 0.0129 0.12609 0.0219 0.18892 0.0297 0.0779 0.0108 0.15577 0.0164 0.23367 0.0241 0.0852 8e-3 0.1704 0.0108 0.25776 0.0164 0.17428 8e-3 0.34856 0.0112 0.52069 9e-3"/><path d="m43.66 99.899c0.21861-2e-3 0.43936-0.0464 0.64162-0.12996 0.20742-0.0852 0.39676-0.21301 0.55426-0.37051s0.28358-0.34684 0.37094-0.55254c0.0831-0.20397 0.12781-0.42473 0.12953-0.64333"/><path d="m43.66 99.899c0.0146 2e-3 0.0258 0.0168 0.0336 0.0297 8e-3 0.0129 0.0129 0.0241 0.0164 0.0353 8e-3 0.0168 0.0129 0.0314 0.0185 0.0482 0.0134 0.0465 0.0241 0.0925 0.0336 0.14073 0.0112 0.0633 0.0202 0.12608 0.0297 0.19106 9e-3 0.0779 0.0168 0.15577 0.0224 0.23367 8e-3 0.0852 0.0129 0.1704 0.0164 0.25561 8e-3 0.17427 0.0112 0.34683 9e-3 0.51725"/><path d="m35.48 101.29c-0.0223 0-0.0463 8e-3 -0.0649 0.0224-0.0186 0.0129-0.0333 0.0331-0.039 0.0555"/><path d="m35.432 99.924c2e-3 2e-3 3e-3 6e-3 3e-3 0.01 2e-3 5e-3 3e-3 0.0129 5e-3 0.0202 2e-3 9e-3 2e-3 0.0202 3e-3 0.0314 2e-3 0.0151 3e-3 0.0297 3e-3 0.0448 2e-3 0.0202 3e-3 0.0387 5e-3 0.0589 0 0.0241 2e-3 0.0482 3e-3 0.0706 2e-3 0.0297 2e-3 0.0555 3e-3 0.0835 2e-3 0.0314 2e-3 0.0633 3e-3 0.0947 2e-3 0.0723 5e-3 0.14459 5e-3 0.21689 2e-3 0.0796 3e-3 0.15922 5e-3 0.24098 0 0.0817 2e-3 0.16481 2e-3 0.24829 0 0.0801 2e-3 0.16138 2e-3 0.24099"/><path d="m34.024 101.02c0.0408-0.15405 0.10569-0.30208 0.19282-0.43548 0.089-0.13384 0.19838-0.25218 0.32442-0.35072 0.12609-0.0981 0.26888-0.17428 0.42086-0.22592 0.15019-0.0521 0.31147-0.0779 0.47095-0.0779"/><path d="m57.949 110.8c-0.0146-4e-3 -0.0259-0.0168-0.0336-0.0297-8e-3 -0.0129-0.0129-0.0241-0.0164-0.0353-8e-3 -0.0168-0.0129-0.0314-0.0185-0.0482-0.0134-0.0465-0.0241-0.0925-0.0336-0.14072-0.0112-0.0632-0.0202-0.12608-0.0297-0.19106-9e-3 -0.0779-0.0168-0.15578-0.0223-0.23367-8e-3 -0.0852-0.0129-0.17041-0.0164-0.25776-8e-3 -0.17213-0.0112-0.3447-9e-3 -0.5151"/><path d="m56.253 112.49c-2e-3 -0.0147-0.0168-0.0259-0.0297-0.0336-0.0112-8e-3 -0.0223-0.0129-0.0331-0.0164-0.0168-8e-3 -0.0319-0.0129-0.0487-0.0185-0.0461-0.0134-0.0925-0.0241-0.13899-0.0319-0.0629-0.0129-0.12608-0.0219-0.18891-0.0297-0.0779-0.0108-0.15578-0.0164-0.23367-0.0241-0.0852-8e-3 -0.17256-0.0108-0.25776-0.0164-0.17429-8e-3 -0.34857-0.0112-0.52069-0.01"/><path d="m57.949 110.8c-0.21861 2e-3 -0.43937 0.0465-0.64162 0.12996-0.20741 0.0852-0.39675 0.21302-0.55425 0.37051-0.1575 0.1575-0.28358 0.34684-0.37094 0.55254-0.0831 0.20398-0.12781 0.42473-0.12953 0.64334"/><path d="m56.229 120.72c-2e-3 -2e-3 -6e-3 -4e-3 -0.01-4e-3 -8e-3 -2e-3 -0.0129-3e-3 -0.0202-6e-3 -9e-3 -2e-3 -0.0202-2e-3 -0.0331-3e-3 -0.0151-2e-3 -0.0297-4e-3 -0.0448-4e-3 -0.0202-2e-3 -0.0387-3e-3 -0.0594-6e-3 -0.0241-2e-3 -0.0482-2e-3 -0.0723-3e-3 -0.0276-3e-3 -0.0555-3e-3 -0.0835-4e-3 -0.0314-2e-3 -0.0629-2e-3 -0.0942-4e-3 -0.0723-2e-3 -0.14459-5e-3 -0.21688-5e-3l-0.23927-6e-3c-0.0835 0-0.16524-3e-3 -0.24657-3e-3 -0.0817 0-0.16137-2e-3 -0.24098-2e-3"/><path d="m56.253 112.49-0.0241 8.2282"/><path d="m43.66 110.8c0.0146-4e-3 0.0258-0.0168 0.0336-0.0297 8e-3 -0.0112 0.0129-0.0224 0.0164-0.0332 8e-3 -0.0168 0.0129-0.0319 0.0185-0.0487 0.0134-0.046 0.0224-0.0925 0.0319-0.13899 0.0129-0.0629 0.0219-0.12609 0.0297-0.18892 0.0108-0.0779 0.0164-0.15578 0.0241-0.23366 8e-3 -0.0852 0.0129-0.17256 0.0164-0.25777 8e-3 -0.17428 0.0112-0.34856 9e-3 -0.52069"/><path d="m45.357 112.49c-2e-3 -0.21861-0.0465-0.43936-0.12997-0.64334-0.0852-0.2057-0.213-0.39504-0.3705-0.55254-0.1575-0.15749-0.34684-0.28358-0.55254-0.37094-0.20398-0.0831-0.42473-0.12781-0.64334-0.12953"/><path d="m46.134 123.43 0.0409-0.15406"/><path d="m44.036 120.72h0.16137"/><path d="m46.134 123.43c-0.58395-0.15019-1.1326-0.50606-1.513-0.99577-0.37825-0.48756-0.58567-1.1085-0.58567-1.7131"/><path d="m42.07 112.11 4e-3 -0.1575"/><path d="m35.425 112.11 8e-3 -0.15965"/><path d="m42.071 111.94 2e-3 0.0185"/><path d="m32.721 110.01 0.16314-0.0408"/><path d="m35.425 112.11c-0.31332 0-0.63223-0.0555-0.92885-0.15964"/><path d="m34.497 111.95c-0.28736-0.10199-0.55804-0.25045-0.79907-0.44109-0.24103-0.18934-0.4505-0.41913-0.61554-0.67517"/><path d="m32.721 100.68 0.16314 0.0409"/><path d="m35.426 98.585 8e-3 0.15966"/><path d="m33.108 99.82c0.17058-0.25217 0.38376-0.47852 0.62664-0.66356 0.24472-0.18547 0.51914-0.33221 0.80836-0.42645"/><path d="m42.07 98.582 2e-3 0.15966"/><path d="m46.135 87.267 0.0409 0.15406"/><path d="m44.036 89.975c0-0.60461 0.20784-1.2256 0.58567-1.7131 0.37825-0.48928 0.92908-0.84343 1.513-0.99576"/><path d="m44.036 96.615c0 0.25604-0.0499 0.51553-0.15019 0.75264-0.0981 0.23754-0.24485 0.45443-0.42645 0.63774-0.18159 0.18203-0.39848 0.33006-0.63774 0.42645-0.23711 0.0964-0.49702 0.14287-0.75263 0.15019"/><path d="m42.07 98.582-6.6447 4e-3"/><path d="m35.425 112.11 6.6449 4e-3"/><path d="m42.07 112.11c0.50263 0 1.0255 0.20956 1.3904 0.57663 0.36535 0.36535 0.57664 0.88819 0.57664 1.3887"/><path d="m57.413 96.615v-6.639c0-1.2053-0.81375-2.2545-1.9799-2.557-1.5388-0.39676-3.1224-0.59299-4.7112-0.58739-1.5332 9e-3 -3.0609 0.20569-4.546 0.58954-0.55081 0.14072-1.0698 0.4781-1.4257 0.93811-0.35803 0.46174-0.55254 1.0474-0.55254 1.6167v6.639c0 0.27627-0.0555 0.55641-0.16309 0.81375-0.10586 0.25776-0.26336 0.49315-0.46002 0.68981-0.19622 0.19665-0.43205 0.35415-0.68938 0.46002-0.25604 0.10714-0.53618 0.16093-0.81245 0.16308l-6.6409 2e-3c-0.5673 2e-3 -1.1513 0.19666-1.6111 0.55253-0.45981 0.35761-0.79537 0.87485-0.9363 1.424-0.38932 1.5126-0.5877 3.0665-0.5877 4.6273 0 1.5612 0.19838 3.1151 0.5877 4.6277 0.14093 0.55081 0.47649 1.0681 0.9363 1.4239 0.45975 0.35588 1.0438 0.55254 1.6111 0.55254l6.6409 4e-3c0.27627 0 0.55641 0.0555 0.81245 0.16095 0.25733 0.10757 0.49316 0.26335 0.68938 0.46001 0.19666 0.19838 0.35416 0.43204 0.46002 0.68981 0.10758 0.25734 0.16309 0.53747 0.16309 0.81375v6.6412c0 0.56717 0.19451 1.1528 0.55254 1.6146 0.35588 0.46173 0.87485 0.79739 1.4257 0.94026 1.3461 0.34641 2.7274 0.54134 4.1161 0.58007 1.7334 0.0482 3.4632-0.14846 5.1411-0.58007 1.1662-0.30037 1.9799-1.3538 1.9799-2.5548v-6.6412c0-0.56373 0.22419-1.1034 0.62311-1.5018 0.39847-0.39848 0.9381-0.62268 1.5014-0.62268h6.6395c1.2032 0 2.2545-0.81417 2.5548-1.9786 0.78405-3.0368 0.78405-6.2216 0-9.2589-0.30037-1.164-1.3516-1.9782-2.5548-1.9782h-6.6395c-0.5633 0-1.1046-0.2242-1.5014-0.62268-0.39892-0.39892-0.62311-0.93811-0.62311-1.5018z"/></g><g stroke-linecap="round" stroke-linejoin="round"><path d="m65.222 20.081 1.012 0.20537c1.5413 0.31278 3.2141 1.7547 3.7508 3.2329l1.9052 5.2477c0.53669 1.4783-0.27204 2.4165-1.8133 2.1038l-1.012-0.20537c-1.5413-0.31278-3.2141-1.7547-3.7508-3.2329l-1.9052-5.2477c-0.53669-1.4783 0.27204-2.4165 1.8133-2.1038z" stroke-width=".83431"/><path d="m410.81 20.081-1.012 0.20538c-1.5413 0.31278-3.2141 1.7547-3.7508 3.2329l-1.9052 5.2477c-0.53669 1.4783 0.27205 2.4165 1.8133 2.1038l1.012-0.20538c1.5412-0.31278 3.2141-1.7547 3.7508-3.2329l1.9052-5.2477c0.53669-1.4783-0.27204-2.4165-1.8133-2.1038z" stroke-width=".83431"/><path d="m69.677 105.59a18.913 18.913 0 0 1-18.913 18.913 18.913 18.913 0 0 1-18.913-18.913 18.913 18.913 0 0 1 18.913-18.913 18.913 18.913 0 0 1 18.913 18.913z"/><path d="m67.171 173.82h1.2493c1.4656 0 2.6456 1.1799 2.6456 2.6456v7.7898c0 1.4656-1.1799 2.6456-2.6456 2.6456h-1.2493c-1.4656 0-2.6456-1.1799-2.6456-2.6456v-7.7898c0-1.4656 1.1799-2.6456 2.6456-2.6456z" stroke-width="1.0112"/></g><path d="m413.09 166.03v17.916c0 2.1908-1.7758 3.9674-3.9674 3.9674-2.1908 0-3.9666-1.7766-3.9666-3.9674v-17.916c0-2.1908 1.7758-3.9666 3.9666-3.9666 2.1916 0 3.9674 1.7758 3.9674 3.9666" stroke-width=".77853"/><path d="m405.21 174.89v0.1923h7.8079v-0.1923z" stroke-width=".77853"/></g></g><g fill="#8a9199" fill-rule="evenodd"><path d="m409.05 168.89 0.43038 3e-3 -0.0191-0.73931 0.54336 0.16744-0.78808-1.32-0.7203 1.3108 0.53465-0.16114z"/><path d="m411.59 167.01-1.078-6e-3 0.0992 3.7787 1.0802 6e-3z"/><path d="m408.74 169.46 0.0349 1.3144 1.0802 6e-3 -0.0349-1.3144z"/><path d="m406.92 169.94 0.0229 0.82152 1.078 6e-3 -0.0229-0.82152z"/><path d="m406.88 168.46 0.0207 0.82143 1.0802 6e-3 -0.0229-0.82152z"/><path d="m406.84 166.98 0.0229 0.82152 1.078 6e-3 -0.0229-0.82152z"/><path d="m409.92 178.84 3e-3 -0.38663-1.9945 0.0265 3.9e-4 -0.35199 1.9946-0.0265 5e-3 -0.39747 0.45383-5e-3 -9e-3 1.1361zm-2.0018 1.4023 6e-3 -1.2505 2.4501 9e-3 -2e-3 0.35421-1.9592-7e-3 -3e-3 0.53778 1.9611-0.0514-3e-3 0.34343zm-8e-3 1.3153 8.5e-4 -0.34121 0.9726-0.11183 2e-3 -0.31749-0.971-5e-3 1e-3 -0.33258 2.4501 9e-3 -7e-3 1.0626-1.4772 0.0409-4.6e-4 -0.11443zm1.4316-0.76938-3e-3 0.43845 0.56585-0.0152 4e-3 -0.42336zm-1.4403 2.1603 7e-3 -1.1663 2.4479 9e-3 -6e-3 1.0453-0.96776 0.021-8e-5 0.0497zm1.9999-0.82781-0.51466-2e-3 -2e-3 0.41682 0.51411-0.0114zm-1.5447 0.49429 0.57223-0.0175 2e-3 -0.47943-0.57079 2e-4zm-0.46464 1.7093 9e-3 -1.1685 2.4484 0.02-6e-3 1.0928zm0.45738-0.33359 1.5381-0.032 3e-3 -0.45355-1.5378-0.0112z"/></g><g fill="none" stroke="#899099" stroke-linecap="round" stroke-linejoin="round"><path d="m417.02 165.82c0.42236 0 0.76238 0.34002 0.76238 0.76238v2.9479c0 0.42236-0.34002 0.76238-0.76238 0.76238s-0.76238-0.34002-0.76238-0.76238v-2.9479c0-0.42236 0.34002-0.76238 0.76238-0.76238z"/><path d="m57.849 203.33c0.21901 0.21901 0.21901 0.57165 0 0.79066l-0.50315 0.50315c-0.21901 0.21901-0.57165 0.21901-0.79066 0-0.21901-0.21902-0.21902-0.57166-7e-6 -0.79067l0.50315-0.50315c0.21901-0.21901 0.57165-0.219 0.79067 1e-5z"/><path d="m55.595 201.29c0.21902 0.21901 0.21902 0.57165 7e-6 0.79066l-2.5362 2.5362c-0.21901 0.21901-0.57165 0.21901-0.79066-1e-5 -0.21901-0.21901-0.21901-0.57164 0-0.79065l2.5362-2.5362c0.21901-0.21902 0.57165-0.21902 0.79066 0z"/><path d="m53.138 199.67c0.21901 0.21901 0.21901 0.57165 0 0.79066l-4.1626 4.1626c-0.21901 0.21902-0.57165 0.21902-0.79066 0-0.21901-0.21901-0.21901-0.57164 0-0.79065l4.1626-4.1626c0.21901-0.21901 0.57165-0.21901 0.79066 0z"/><path d="m50.859 197.68 7e-6 1e-5c0.21901 0.21901 0.21901 0.57165 0 0.79066l-6.1448 6.1448c-0.21901 0.21901-0.57165 0.21901-0.79066 0l-7e-6 -1e-5c-0.21901-0.21901-0.21901-0.57164 0-0.79066l6.1448-6.1448c0.21901-0.21901 0.57165-0.21901 0.79066 0z"/><path d="m418.86 203.59c-0.21902 0.21902-0.21902 0.57165-1e-5 0.79066l0.50315 0.50315c0.21902 0.21901 0.57165 0.21901 0.79067 0 0.21901-0.21902 0.21901-0.57165 0-0.79066l-0.50315-0.50315c-0.21901-0.21901-0.57165-0.21901-0.79066 0z"/><path d="m421.11 201.56c-0.21901 0.21901-0.21901 0.57165 0 0.79066l2.5362 2.5362c0.21901 0.21901 0.57165 0.21901 0.79066 0s0.21901-0.57165 0-0.79066l-2.5362-2.5362c-0.21901-0.21901-0.57165-0.21901-0.79066 0z"/><path d="m423.57 199.93c-0.21901 0.21902-0.21901 0.57165 0 0.79066l4.1626 4.1626c0.21901 0.21901 0.57165 0.21902 0.79067 1e-5 0.21901-0.21902 0.219-0.57166-1e-5 -0.79067l-4.1626-4.1626c-0.21901-0.21901-0.57164-0.21901-0.79066 0z"/><path d="m425.85 197.95c-0.21901 0.21901-0.21901 0.57165 0 0.79066l6.1448 6.1448c0.21902 0.21902 0.57165 0.21902 0.79066 1e-5 0.21902-0.21902 0.21902-0.57165 0-0.79067l-6.1448-6.1448c-0.21902-0.21901-0.57165-0.21901-0.79066 0z"/><path d="m93.257 14.973h290.42c0.30973 0 0.55908 0.24935 0.55908 0.55909v181.04c0 0.30973-0.24935 0.55909-0.55908 0.55909h-290.42c-0.30973 0-0.55908-0.24936-0.55908-0.55909v-181.04c0-0.30974 0.24935-0.55909 0.55908-0.55909z"/><g><path d="m0.5 69.559h10.775c2.6409 0.18885 4.1318 1.8153 4.4726 4.8793 0.91522 40.452 11.041 78.992 31.512 116.19 0.81321 2.5413 0.54214 4.7098-0.81321 6.5057l-11.597 11.441"/><path d="m5.3673 49.104c-1.4452-0.926-2.6533-2.2247-3.6242-3.8962-0.87857-2.4158-0.63898-4.7638 0.71878-7.0441 13.435-20.136 27.955-32.547 43.558-37.233 1.6292-0.0794 3.5634 0.0106 5.1927 0.47338 1.68 0.54732 2.7162 1.7384 3.7185 3.37"/><path d="m410.35 3.0876c37.86 0.82709 66.446 45.781 66.128 62.534v104.08c-1.3197 22.466-20.645 41.08-47.296 39.964h-381.29c-26.651 1.1157-45.976-17.498-47.296-39.964v-104.08c-0.31762-16.754 28.268-61.707 66.128-62.534h171.81z"/><path d="m476.57 69.559h-10.775c-2.6409 0.18885-4.1318 1.8153-4.4726 4.8793-0.91522 40.452-11.041 78.992-31.512 116.19-0.81321 2.5413-0.54214 4.7098 0.81321 6.5057l11.597 11.441"/><path d="m471.7 49.104c1.4452-0.926 2.6533-2.2247 3.6242-3.8962 0.87857-2.4158 0.63898-4.7638-0.71878-7.0441-13.435-20.136-27.955-32.547-43.558-37.233-1.6292-0.0794-3.5634 0.0106-5.1927 0.47338-1.68 0.54732-2.7162 1.7384-3.7185 3.37"/></g><path d="m149.37 0.5h11.82c0.30973 0 0.55908 0.24935 0.55908 0.55908v1.4695c0 0.30973-0.24935 0.55908-0.55908 0.55908h-11.82c-0.30973 0-0.55908-0.24935-0.55908-0.55908v-1.4695c0-0.30973 0.24935-0.55908 0.55908-0.55908z"/><path d="m168.48 0.5h11.82c0.30973 0 0.55908 0.24935 0.55908 0.55908v1.4695c0 0.30973-0.24935 0.55908-0.55908 0.55908h-11.82c-0.30973 0-0.55909-0.24935-0.55909-0.55908v-1.4695c0-0.30973 0.24936-0.55908 0.55909-0.55908z"/></g></svg>
