<?xml version="1.0" encoding="UTF-8" standalone="no"?>
<svg
   width="32"
   height="32"
   viewBox="0 0 32 32"
   fill="none"
   version="1.1"
   id="svg2"
   xml:space="preserve"
   xmlns="http://www.w3.org/2000/svg"
   xmlns:svg="http://www.w3.org/2000/svg"><defs
     id="defs2" /><rect
     style="fill:#ffffff;fill-opacity:1;stroke:none;stroke-width:1.39373"
     id="rect2"
     width="29"
     height="16"
     x="1.5"
     y="2"
     clip-path="none"
     rx="3" /><path
     id="path8329"
     d="m 23.432266,12.25 c 0.392531,0 0.719596,-0.05135 0.986034,-0.15419 0.271007,-0.102837 0.471978,-0.271009 0.607483,-0.490665 0.140075,-0.228931 0.210246,-0.518759 0.210246,-0.878491 V 7.75 h -0.831844 v 2.86454 c 0,0.154189 -0.01398,0.289694 -0.04208,0.401808 -0.02796,0.116818 -0.07931,0.210246 -0.149485,0.284988 -0.07474,0.07488 -0.172875,0.135639 -0.294399,0.168305 -0.126094,0.03738 -0.284988,0.05605 -0.481255,0.05605 -0.182284,0 -0.336474,-0.01398 -0.462703,-0.05136 -0.121389,-0.03738 -0.219522,-0.08886 -0.294399,-0.163599 -0.07003,-0.07474 -0.121388,-0.168171 -0.154189,-0.284989 -0.03266,-0.116818 -0.04665,-0.252457 -0.04665,-0.411218 V 7.75 h -0.836549 v 2.976654 c 0,0.284988 0.03751,0.528036 0.116818,0.719596 0.07944,0.196266 0.191696,0.355161 0.345886,0.47198 0.154189,0.116818 0.341045,0.20097 0.560701,0.257027 0.224362,0.05135 0.476684,0.07474 0.766379,0.07474 m -6.901831,-0.06546 h 0.822435 V 8.628496 h 0.03738 l 1.752278,3.556041 h 1.140223 V 7.75 h -0.817729 v 3.34109 h -0.03738 L 17.815433,7.75 H 16.530429 Z M 13.455642,11.450956 V 10.24997 h 1.663555 V 9.549059 H 13.455642 V 8.479006 h 1.789649 V 7.75 h -2.626199 v 4.434534 h 2.743018 v -0.733578 z m -6.691671,0.733578 h 0.81777 V 8.56773 h 0.04204 l 0.943891,2.724331 H 9.422908 L 10.376142,8.56773 h 0.04208 v 3.616804 h 0.822435 V 7.75 H 9.922854 L 9.03038,10.371493 H 8.9883 L 8.119093,7.75 H 6.763971 Z"
     style="fill:#000000;fill-opacity:1;fill-rule:nonzero;stroke:none;stroke-width:1.34429"
     clip-path="none" /></svg>
