<svg width="32" height="20" fill="none" version="1.1" viewBox="0 0 32 20" xml:space="preserve" xmlns="http://www.w3.org/2000/svg"><path d="m4.5 2c-1.662 0-3 1.338-3 3v10c0 1.662 1.338 3 3 3h23c1.662 0 3-1.338 3-3v-10c0-1.662-1.338-3-3-3h-23zm2.2637 5.75h1.3555l0.86914 2.6211h0.042969l0.89258-2.6211h1.3164v4.4336h-0.82226v-3.6152h-0.041016l-0.95312 2.7246h-0.85547l-0.94531-2.7246h-0.041016v3.6152h-0.81836v-4.4336zm5.8555 0h2.627v0.72852h-1.791v1.0703h1.6641v0.70117h-1.6641v1.2012h1.9062v0.73242h-2.7422v-4.4336zm3.9121 0h1.2852l1.6113 3.3418h0.03711v-3.3418h0.81836v4.4336h-1.1406l-1.752-3.5547h-0.037109v3.5547h-0.82227v-4.4336zm5.1113 0h0.83594v2.8652c0 0.15876 0.014215 0.29334 0.046875 0.41016 0.032801 0.11682 0.084267 0.21042 0.1543 0.28516 0.074876 0.074739 0.17353 0.12668 0.29492 0.16406 0.12623 0.03738 0.28061 0.050782 0.46289 0.050782 0.19627 0 0.35438-0.019261 0.48047-0.056641 0.12152-0.032666 0.22018-0.093089 0.29492-0.16797 0.070175-0.074742 0.12048-0.16834 0.14844-0.28516 0.0281-0.11211 0.042969-0.2462 0.042969-0.40039v-2.8652h0.83203v2.9766c0 0.35973-0.070862 0.64998-0.21094 0.87891-0.1355 0.21966-0.33642 0.3874-0.60742 0.49023-0.26644 0.10284-0.5938 0.1543-0.98633 0.1543-0.2897 0-0.54126-0.022869-0.76562-0.074219-0.21966-0.056057-0.40636-0.14099-0.56055-0.25781-0.15419-0.11682-0.26626-0.27639-0.3457-0.47266-0.079308-0.19156-0.11719-0.43376-0.11719-0.71875v-2.9766z" fill="#fff" stroke-width="1.3937"/></svg>
