<svg xmlns="http://www.w3.org/2000/svg" xml:space="preserve" width="32" height="32"><g transform="translate(-2.799 -5.642)scale(.16537)"><rect width="89.05" height="193.505" x="69.152" y="34.116" ry="23.26" style="fill:#fff;stroke-width:.264999"/><g transform="translate(.833 -.564)"><circle cx="139.715" cy="57.993" r="5.12" style="fill:#b3b3b3;stroke-width:.316293"/><circle cx="121.801" cy="57.993" r="5.12" style="fill:#b3b3b3;stroke-width:.316293"/><circle cx="103.887" cy="57.993" r="5.12" style="fill:#b3b3b3;stroke-width:.316293"/><circle cx="85.973" cy="57.993" r="5.12" style="fill:#b3b3b3;stroke-width:.316293"/></g><g transform="translate(.833 15.756)"><circle cx="139.715" cy="57.993" r="5.12" style="fill:#b3b3b3;stroke-width:.316293"/><circle cx="121.801" cy="57.993" r="5.12" style="fill:#b3b3b3;stroke-width:.316293"/><circle cx="103.887" cy="57.993" r="5.12" style="fill:#b3b3b3;stroke-width:.316293"/><circle cx="85.973" cy="57.993" r="5.12" style="fill:#b3b3b3;stroke-width:.316293"/></g><g transform="translate(.833 32.076)"><circle cx="139.715" cy="57.993" r="5.12" style="fill:#b3b3b3;stroke-width:.316293"/><circle cx="121.801" cy="57.993" r="5.12" style="fill:#b3b3b3;stroke-width:.316293"/><circle cx="103.887" cy="57.993" r="5.12" style="fill:#b3b3b3;stroke-width:.316293"/><circle cx="85.973" cy="57.993" r="5.12" style="fill:#b3b3b3;stroke-width:.316293"/></g><g transform="translate(.833 48.395)"><circle cx="139.715" cy="57.993" r="5.12" style="fill:#b3b3b3;stroke-width:.316293"/><circle cx="121.801" cy="57.993" r="5.12" style="fill:#b3b3b3;stroke-width:.316293"/><circle cx="103.887" cy="57.993" r="5.12" style="fill:#b3b3b3;stroke-width:.316293"/><circle cx="85.973" cy="57.993" r="5.12" style="fill:#b3b3b3;stroke-width:.316293"/></g><g transform="translate(.833 64.715)"><circle cx="139.715" cy="57.993" r="5.12" style="fill:#b3b3b3;stroke-width:.316293"/><circle cx="85.973" cy="57.993" r="5.12" style="fill:#b3b3b3;stroke-width:.316293"/></g><g transform="translate(.833 81.034)"><circle cx="139.715" cy="57.993" r="5.12" style="fill:#b3b3b3;stroke-width:.316293"/><circle cx="85.973" cy="57.993" r="5.12" style="fill:#b3b3b3;stroke-width:.316293"/><path d="m-36.07 408.765 58.254-33.632 58.252-33.632V476.03l-58.252-33.633z" style="fill:#000;stroke-width:.264999" transform="matrix(-.26458 0 0 .26458 122.638 -58.319)"/></g><g transform="translate(.833 97.354)"><circle cx="139.715" cy="57.993" r="5.12" style="fill:#b3b3b3;stroke-width:.316293"/><circle cx="121.801" cy="57.993" r="5.12" style="fill:#b3b3b3;stroke-width:.316293"/><circle cx="103.887" cy="57.993" r="5.12" style="fill:#b3b3b3;stroke-width:.316293"/><circle cx="85.973" cy="57.993" r="5.12" style="fill:#b3b3b3;stroke-width:.316293"/></g><g transform="translate(.833 146.313)"><circle cx="139.715" cy="57.993" r="5.12" style="fill:#b3b3b3;stroke-width:.316293"/><circle cx="121.801" cy="57.993" r="5.12" style="fill:#b3b3b3;stroke-width:.316293"/><circle cx="103.887" cy="57.993" r="5.12" style="fill:#b3b3b3;stroke-width:.316293"/><circle cx="85.973" cy="57.993" r="5.12" style="fill:#b3b3b3;stroke-width:.316293"/></g><g transform="translate(.833 129.993)"><circle cx="139.715" cy="57.993" r="5.12" style="fill:#b3b3b3;stroke-width:.316293"/><circle cx="121.801" cy="57.993" r="5.12" style="fill:#b3b3b3;stroke-width:.316293"/><circle cx="103.887" cy="57.993" r="5.12" style="fill:#b3b3b3;stroke-width:.316293"/><circle cx="85.973" cy="57.993" r="5.12" style="fill:#b3b3b3;stroke-width:.316293"/></g><g transform="translate(.833 113.674)"><circle cx="139.715" cy="57.993" r="5.12" style="fill:#b3b3b3;stroke-width:.316293"/><circle cx="121.801" cy="57.993" r="5.12" style="fill:#b3b3b3;stroke-width:.316293"/><circle cx="103.887" cy="57.993" r="5.12" style="fill:#b3b3b3;stroke-width:.316293"/><circle cx="85.973" cy="57.993" r="5.12" style="fill:#b3b3b3;stroke-width:.316293"/></g></g></svg>