<svg width="32" height="20" fill="none" version="1.1" viewBox="0 0 32 20" xml:space="preserve" xmlns="http://www.w3.org/2000/svg"><path d="m4.5 2c-1.662 0-3 1.338-3 3v10c0 1.662 1.338 3 3 3h23c1.662 0 3-1.338 3-3v-10c0-1.662-1.338-3-3-3h-23zm1.9219 5.75c0.15642 0 0.3073 0.0096775 0.44531 0.023438 0.14263 0.01389 0.2724 0.031668 0.38281 0.054688 0.11502 0.02752 0.20694 0.050605 0.28516 0.078125v0.69922c-0.059819-0.0229-0.12813-0.042147-0.21094-0.060547-0.087414-0.0184-0.17614-0.035068-0.27734-0.048828-0.10122-0.0184-0.20153-0.029209-0.30273-0.042969-0.10582-0.00466-0.20222-0.013672-0.29883-0.013672-0.17483 0-0.32318 0.014585-0.43359 0.046875-0.11502 0.03216-0.19674 0.087796-0.25195 0.16602-0.055201 0.078216-0.083984 0.18741-0.083984 0.33008 0 0.082849 0.0089478 0.15307 0.027344 0.21289 0.018397 0.059821 0.056114 0.10896 0.11133 0.15039 0.055201 0.046052 0.13247 0.08357 0.23828 0.125 0.10582 0.036797 0.24509 0.073221 0.41992 0.11914 0.25303 0.05982 0.46329 0.12954 0.62891 0.20312 0.17022 0.073584 0.29989 0.1599 0.39648 0.26563 0.096614 0.10124 0.16562 0.22588 0.20703 0.37305 0.036811 0.14717 0.059258 0.32218 0.054688 0.5293 0.0046044 0.2852-0.054901 0.52417-0.16992 0.71289-0.11502 0.19322-0.29398 0.33698-0.5332 0.43359-0.24383 0.096628-0.55175 0.14258-0.93359 0.14258-0.17022 0-0.34023-0.005038-0.50586-0.023438-0.16562-0.01377-0.31385-0.031667-0.44727-0.054687-0.13802-0.02303-0.24266-0.050465-0.33008-0.078125v-0.73633c0.069005 0.02766 0.14558 0.049375 0.24219 0.072266 0.096612 0.018389 0.20404 0.04288 0.31445 0.05664 0.11502 0.01854 0.22998 0.031916 0.34961 0.041016 0.11961 0.0093 0.23851 0.013672 0.35352 0.013672 0.20244 0 0.36408-0.017768 0.48828-0.054688 0.12422-0.036791 0.21628-0.1027 0.27148-0.18555 0.055214-0.087348 0.086641-0.20621 0.082031-0.35352 0.0046051-0.10111-0.008248-0.18423-0.03125-0.25781-0.023002-0.069092-0.064506-0.12913-0.12891-0.17969-0.05982-0.050566-0.14865-0.095299-0.26367-0.13672-0.11501-0.041432-0.25613-0.082986-0.43555-0.12891-0.23003-0.055188-0.42366-0.11146-0.58008-0.17578-0.15183-0.069084-0.27713-0.1463-0.36914-0.23828-0.096611-0.091979-0.15976-0.20376-0.20117-0.3418-0.041397-0.1334-0.060547-0.2931-0.060547-0.48633 0-0.29447 0.06076-0.53479 0.17578-0.71875 0.11961-0.18409 0.29341-0.32146 0.52344-0.4043 0.23003-0.087472 0.51112-0.12891 0.85156-0.12891zm15.793 0.0039062c0.21162 0 0.39558 0.014219 0.55664 0.037109 0.16556 0.023022 0.31386 0.055642 0.44727 0.10156v0.72656c-0.13804-0.046053-0.28107-0.086355-0.4375-0.10938-0.15643-0.02752-0.32704-0.042969-0.51562-0.042969-0.21162 0-0.40021 0.022935-0.55664 0.078125-0.15643 0.050688-0.28938 0.1344-0.39062 0.25391-0.10124 0.11501-0.17991 0.27552-0.23047 0.46875-0.05056 0.19786-0.072266 0.44123-0.072266 0.72656 0 0.30823 0.021706 0.56204 0.072266 0.75977 0.046057 0.19786 0.11959 0.35374 0.2207 0.46875 0.10124 0.11038 0.23101 0.19418 0.38281 0.24024 0.1518 0.04592 0.33585 0.069053 0.54297 0.064453 0.12877 0 0.24827-0.005642 0.36328-0.019532 0.11964-0.00915 0.22948-0.027027 0.33984-0.054687 0.11051-0.02302 0.22166-0.054273 0.33203-0.095703v0.71289c-0.1334 0.050683-0.29124 0.092127-0.4707 0.12891-0.18396 0.03217-0.3814 0.050781-0.59766 0.050781-0.24841 0.00463-0.48174-0.015211-0.69336-0.056641-0.21162-0.041425-0.40597-0.11043-0.57617-0.20703-0.1702-0.096612-0.312-0.23019-0.43164-0.40039-0.11951-0.1702-0.20703-0.38504-0.27148-0.64258-0.06432-0.26231-0.097657-0.57604-0.097657-0.93945 0-0.42324 0.051838-0.77266 0.14844-1.0625 0.096612-0.28984 0.23401-0.52049 0.41797-0.69531 0.18409-0.17483 0.40053-0.29873 0.6582-0.37695 0.25304-0.078218 0.54188-0.11523 0.85938-0.11523zm-13.268 0.064453h2.5898v0.71875h-1.7656v1.0566h1.6367v0.68555h-1.6367v1.1836h1.877v0.72656h-2.7012v-4.3711zm3.8516 0h0.82227v3.6445h1.7949v0.72656h-2.6172v-4.3711zm3.6016 0h2.5898v0.71875h-1.7617v1.0566h1.6328v0.68555h-1.6328v1.1836h1.873v0.72656h-2.7012v-4.3711zm7.5625 0h3.1973v0.72266h-1.1914v3.6484h-0.82227v-3.6484h-1.1836v-0.72266z" fill="#fff" stroke-width="1.3937"/></svg>
