<?xml version="1.0" encoding="UTF-8" standalone="no"?>
<svg
   width="32"
   height="20"
   viewBox="0 0 32 20"
   fill="none"
   version="1.1"
   id="svg2"
   xml:space="preserve"
   xmlns="http://www.w3.org/2000/svg"
   xmlns:svg="http://www.w3.org/2000/svg"><defs
     id="defs2" /><rect
     style="fill:#ffffff;fill-opacity:1;stroke:none;stroke-width:1.39373"
     id="rect2"
     width="29"
     height="16"
     x="1.5"
     y="2"
     clip-path="none"
     rx="3" /><path
     id="path8333"
     d="m 27.161086,7.81893 h -3.19746 v 0.722339 h 1.182371 v 3.64823 h 0.823585 v -3.64823 h 1.191504 z m -4.959506,4.43039 c 0.216252,0 0.414108,-0.01839 0.598069,-0.05056 0.17946,-0.03678 0.335892,-0.07822 0.469295,-0.128903 v -0.713074 c -0.110368,0.04143 -0.220751,0.07358 -0.331259,0.0966 -0.110368,0.02766 -0.220752,0.04604 -0.340391,0.05519 -0.115009,0.01389 -0.234649,0.0184 -0.363422,0.0184 -0.207119,0.0046 -0.39108,-0.0184 -0.542879,-0.06432 -0.151801,-0.04606 -0.280705,-0.128903 -0.381949,-0.23928 -0.101109,-0.115009 -0.174696,-0.271441 -0.220753,-0.469297 -0.05056,-0.197723 -0.07358,-0.450767 -0.07358,-0.759 0,-0.285337 0.02302,-0.529116 0.07358,-0.726972 0.05056,-0.193225 0.128773,-0.354289 0.230018,-0.469297 0.101241,-0.119508 0.234648,-0.202356 0.39108,-0.253044 0.156432,-0.05519 0.345023,-0.07822 0.556645,-0.07822 0.188589,0 0.358786,0.0139 0.515218,0.04142 0.156433,0.02302 0.299101,0.06445 0.437138,0.110503 V 7.892493 c -0.133404,-0.04592 -0.280705,-0.07822 -0.446268,-0.101242 -0.161065,-0.02289 -0.345025,-0.03679 -0.556646,-0.03679 -0.317495,0 -0.607332,0.03679 -0.860376,0.115008 -0.257677,0.07822 -0.473796,0.20249 -0.657888,0.377317 -0.183961,0.174827 -0.321996,0.404844 -0.418608,0.69468 -0.0966,0.289836 -0.147301,0.639492 -0.147301,1.062734 0,0.363418 0.03229,0.676282 0.09661,0.938591 0.06445,0.257543 0.151931,0.473796 0.271439,0.643992 0.119641,0.170196 0.262308,0.303733 0.432504,0.400345 0.170197,0.0966 0.36342,0.165563 0.575041,0.206988 0.211619,0.04143 0.446268,0.05982 0.694679,0.05519 m -4.973273,-0.786667 v -1.182374 h 1.63327 V 9.594719 h -1.63327 V 8.536618 h 1.762043 V 7.818913 h -2.590124 v 4.370569 h 2.700637 v -0.72684 z m -3.606806,0 V 7.818912 h -0.823585 v 4.370569 h 2.61779 v -0.72684 z m -3.8507189,0 V 10.280265 H 11.408551 V 9.594719 H 9.7707782 V 8.536618 H 11.537454 V 7.818911 H 8.9471925 v 4.370568 H 11.647831 V 11.46264 Z m -3.6482954,0.78666 c 0.3818425,0 0.6900879,-0.04604 0.9339208,-0.142668 0.2392271,-0.09661 0.4186487,-0.239148 0.5336688,-0.432373 0.115021,-0.188723 0.1748282,-0.427871 0.1702238,-0.713075 0.00457,-0.207121 -0.018396,-0.381949 -0.055207,-0.529116 C 7.6636816,10.284898 7.5946757,10.160625 7.4980613,10.059382 7.4014671,9.953658 7.2726378,9.866179 7.1024153,9.792595 6.9367984,9.719013 6.7251649,9.649926 6.4721341,9.590106 6.2973062,9.544186 6.1592964,9.507396 6.0534731,9.470599 5.9476631,9.429169 5.8694471,9.392379 5.8142459,9.346327 5.7590319,9.304897 5.7222269,9.254347 5.70383,9.194526 5.685434,9.134706 5.676223,9.065755 5.676223,8.982906 c 0,-0.142668 0.027607,-0.253044 0.082808,-0.33126 0.055214,-0.07822 0.1380229,-0.133403 0.2530442,-0.165563 0.1104158,-0.03229 0.2576232,-0.04606 0.4324515,-0.04606 0.096612,0 0.193224,0.0091 0.2990473,0.01376 0.1012037,0.01376 0.2024221,0.02302 0.3036396,0.04142 0.1012047,0.01376 0.1886194,0.03216 0.276033,0.05056 0.082805,0.0184 0.1518141,0.03692 0.2116335,0.05982 V 7.906275 C 7.4566611,7.878755 7.3646572,7.855715 7.2496361,7.828195 7.1392197,7.805175 7.0104083,7.786775 6.8677798,7.772885 6.7297702,7.759125 6.5779437,7.749995 6.4215248,7.749995 c -0.3404449,0 -0.621083,0.0413 -0.8511124,0.128772 -0.2300294,0.08284 -0.4048573,0.220752 -0.524471,0.404844 -0.1150213,0.18396 -0.1748281,0.42324 -0.1748281,0.717708 0,0.193224 0.018409,0.354289 0.059806,0.487693 0.041411,0.138035 0.1058244,0.248412 0.2024353,0.340391 0.092006,0.09198 0.216226,0.170196 0.3680524,0.23928 0.1564189,0.06432 0.3496429,0.119641 0.5796723,0.174829 0.1794205,0.04592 0.3220489,0.08734 0.4370569,0.128772 0.1150213,0.04142 0.2024221,0.08747 0.2622422,0.138036 0.0644,0.05056 0.1058098,0.110369 0.1288117,0.179461 0.023002,0.07358 0.036805,0.156431 0.0322,0.257543 0.00461,0.147301 -0.027594,0.26694 -0.082808,0.354288 -0.055202,0.08285 -0.1472209,0.147169 -0.27144,0.18396 -0.1242062,0.03692 -0.2852307,0.05533 -0.487666,0.05533 -0.115008,0 -0.2346216,-0.0046 -0.3542353,-0.0139 -0.119627,-0.0091 -0.2346349,-0.02289 -0.3496561,-0.04143 -0.110416,-0.01376 -0.2162259,-0.0368 -0.3128379,-0.05519 -0.096612,-0.02289 -0.1748279,-0.04592 -0.2438329,-0.07358 v 0.736103 c 0.087414,0.02766 0.1932241,0.05519 0.3312469,0.07822 0.1334173,0.02302 0.2806383,0.04142 0.446255,0.05519 0.1656301,0.0184 0.3358526,0.02302 0.5060752,0.02302"
     style="fill:#000000;fill-opacity:1;fill-rule:nonzero;stroke:none;stroke-width:1.32344"
     clip-path="none" /></svg>
