<?xml version="1.0" encoding="UTF-8" standalone="no"?>
<svg
   width="32"
   height="20"
   viewBox="0 0 32 20"
   fill="none"
   version="1.1"
   id="svg2"
   xml:space="preserve"
   xmlns="http://www.w3.org/2000/svg"
   xmlns:svg="http://www.w3.org/2000/svg"><defs
     id="defs2"><clipPath
       clipPathUnits="userSpaceOnUse"
       id="clipPath8332"><path
         d="M 0,419.529 H 674.649 V 0 H 0 Z"
         transform="translate(-543.20432,-224.24661)"
         id="path8332" /></clipPath></defs><rect
     style="fill:#ffffff;fill-opacity:1;stroke:none;stroke-width:1.39373"
     id="rect2"
     width="29"
     height="16"
     x="1.5"
     y="2"
     clip-path="none"
     rx="3" /><path
     id="path8331"
     d="m 0,0 h -0.695 v -0.157 h 0.257 V -0.95 h 0.179 v 0.793 H 0 Z m -1.317,-0.454 v 0.309 h 0.092 c 0.037,0 0.07,-0.002 0.097,-0.006 0.026,-0.004 0.048,-0.012 0.065,-0.022 0.017,-0.011 0.029,-0.026 0.037,-0.046 0.008,-0.02 0.011,-0.045 0.011,-0.075 0,-0.034 -0.003,-0.061 -0.011,-0.082 -0.008,-0.022 -0.02,-0.038 -0.037,-0.049 -0.017,-0.011 -0.039,-0.019 -0.065,-0.023 -0.027,-0.005 -0.06,-0.007 -0.097,-0.006 z m 0.571,-0.496 -0.273,0.379 c 0.042,0.011 0.077,0.029 0.104,0.052 0.027,0.023 0.047,0.053 0.06,0.089 0.013,0.037 0.02,0.083 0.02,0.136 0,0.071 -0.013,0.128 -0.038,0.172 -0.025,0.043 -0.065,0.074 -0.119,0.094 C -1.046,-0.009 -1.115,0 -1.201,0 h -0.295 v -0.95 h 0.179 v 0.359 h 0.116 0.007 l 0.237,-0.359 z m -1.561,0.403 h 0.29 l -0.136,0.387 h -0.016 z m 0.431,-0.403 -0.088,0.252 H -2.361 L -2.451,-0.95 H -2.636 L -2.28,0 h 0.241 l 0.353,-0.95 z M -2.628,0 h -0.695 v -0.157 h 0.257 V -0.95 h 0.179 v 0.793 h 0.259 z m -1.199,-0.963 c 0.082,0 0.149,0.01 0.202,0.031 0.052,0.021 0.091,0.052 0.116,0.094 0.025,0.041 0.038,0.093 0.037,0.155 10e-4,0.045 -0.004,0.083 -0.012,0.115 -0.009,0.032 -0.024,0.059 -0.045,0.081 -0.021,0.023 -0.049,0.042 -0.086,0.058 -0.036,0.016 -0.082,0.031 -0.137,0.044 -0.038,0.01 -0.068,0.018 -0.091,0.026 -0.022,0.009 -0.04,0.017 -0.052,0.027 -0.012,0.009 -0.02,0.02 -0.024,0.033 -0.004,0.013 -0.006,0.028 -0.006,0.046 0,0.031 0.006,0.055 0.018,0.072 0.012,0.017 0.03,0.029 0.055,0.036 0.025,0.007 0.056,0.01 0.094,0.01 0.021,0 0.043,-0.002 0.065,-0.003 0.023,-0.003 0.044,-0.005 0.066,-0.009 0.022,-0.003 0.042,-0.007 0.06,-0.011 0.018,-0.004 0.034,-0.008 0.046,-0.013 v 0.152 c -0.017,0.006 -0.037,0.011 -0.062,0.017 -0.024,0.005 -0.052,0.009 -0.083,0.012 -0.03,0.003 -0.063,0.005 -0.097,0.005 -0.074,0 -0.135,-0.009 -0.185,-0.028 -0.05,-0.018 -0.088,-0.048 -0.113,-0.088 -0.026,-0.04 -0.039,-0.092 -0.039,-0.156 0,-0.042 0.004,-0.077 0.013,-0.106 0.009,-0.03 0.024,-0.054 0.044,-0.074 0.02,-0.02 0.047,-0.037 0.081,-0.052 0.034,-0.014 0.075,-0.026 0.125,-0.038 0.039,-0.01 0.07,-0.019 0.095,-0.028 0.025,-0.009 0.044,-0.019 0.057,-0.03 0.014,-0.011 0.023,-0.024 0.028,-0.039 0.005,-0.016 0.008,-0.034 0.007,-0.056 10e-4,-0.032 -0.005,-0.058 -0.018,-0.077 -0.012,-0.018 -0.032,-0.032 -0.059,-0.04 -0.027,-0.008 -0.062,-0.012 -0.106,-0.012 -0.025,0 -0.051,0.001 -0.077,0.003 -0.026,0.002 -0.051,0.005 -0.076,0.009 -0.024,0.003 -0.047,0.008 -0.068,0.012 -0.02,0.005 -0.038,0.01 -0.053,0.016 v -0.16 c 0.019,-0.006 0.042,-0.012 0.072,-0.017 0.029,-0.005 0.061,-0.009 0.097,-0.012 0.036,-0.004 0.073,-0.005 0.111,-0.005"
     style="fill:#000000;fill-opacity:1;fill-rule:nonzero;stroke:none"
     transform="matrix(4.601227,0,0,-4.601227,25.44862,7.819018)"
     clip-path="url(#clipPath8332)" /></svg>
