<svg xmlns="http://www.w3.org/2000/svg" width="32" height="32"><path d="M6.322 12.063c-.2-.002-.312.095-.433.257.775 0 1.523.004 2.27-.002a.98.98 0 0 1 .73.3c1.908 1.908 3.82 3.817 5.724 5.73.088.087.174.212.188.328.031.268.031.542.017.812-.008.173-.175.225-.312.114-.043-.035-.081-.078-.121-.118q-3.08-3.078-6.155-6.162a1.35 1.35 0 0 0-1.027-.426c-.383.008-.766.01-1.148-.002-.17-.005-.222.046-.221.22.006 1.747 0 3.495.01 5.243 0 .12.067.265.15.354.343.364.707.71 1.057 1.068.107.11.223.155.377.155q1.686-.006 3.373-.004c.054 0 .107-.006.15-.008L7.86 16.824l.104.178c.31.513.622 1.022.928 1.537.188.316.031.654-.334.703a2.5 2.5 0 0 1-.573.006c-.74-.077-1.138-.526-1.138-1.27v-2.927c0-.056-.005-.114.004-.168.03-.174.206-.25.351-.15.05.034.093.08.137.124 1.555 1.555 3.114 3.107 4.664 4.666.28.282.595.412.992.41 1.97-.007 3.942-.012 5.912.005.482.003.844-.154 1.18-.495 1.519-1.539 3.053-3.062 4.582-4.591.096-.097.187-.214.348-.145.157.069.14.214.14.352q.001 1.51-.002 3.021c-.002.534-.345 1.008-.853 1.115a3 3 0 0 1-.864.041c-.356-.03-.509-.377-.332-.687q.122-.209.248-.414l.727-1.203-3 2.994c-.017-.004 0 .004.018.004 1.186 0 2.372.002 3.558-.004a.4.4 0 0 0 .244-.106q.58-.56 1.139-1.14a.47.47 0 0 0 .12-.293c.006-1.773.004-3.548.007-5.32 0-.13-.04-.173-.17-.17a39 39 0 0 1-1.205.001c-.4-.005-.727.131-1.01.417-1.214 1.223-2.436 2.44-3.654 3.658-.86.86-1.72 1.723-2.584 2.58-.056.056-.183.112-.234.086-.068-.034-.12-.146-.13-.23-.02-.165-.002-.334-.01-.5a.75.75 0 0 1 .245-.596c.433-.424.86-.856 1.287-1.284 1.446-1.445 2.893-2.889 4.334-4.34.256-.257.541-.384.908-.374.655.016 1.31.005 1.965.005h.203c-.123-.167-.237-.258-.437-.257q-2.096.011-4.19 0a.9.9 0 0 0-.69.289c-1.415 1.424-2.843 2.835-4.251 4.265-.36.365-.732.36-1.08.006-1.418-1.439-2.854-2.86-4.278-4.293a.83.83 0 0 0-.638-.267q-2.113.012-4.225 0z" style="fill:#000;fill-opacity:1;stroke-width:.0593532"/><path d="M16 1.5C7.992 1.5 1.5 7.992 1.5 16S7.992 30.5 16 30.5 30.5 24.008 30.5 16 24.008 1.5 16 1.5M6.322 12.063q2.113.011 4.225 0a.83.83 0 0 1 .639.267c1.423 1.433 2.859 2.854 4.277 4.293.348.353.72.36 1.08-.006 1.408-1.43 2.836-2.842 4.252-4.265a.9.9 0 0 1 .69-.29q2.093.013 4.189 0c.2 0 .314.09.437.258h-.203c-.654 0-1.31.01-1.965-.006a1.17 1.17 0 0 0-.908.375c-1.44 1.451-2.888 2.894-4.334 4.34-.428.428-.854.86-1.287 1.283a.75.75 0 0 0-.244.596c.007.167-.01.336.01.5.01.085.062.197.129.23.051.027.178-.03.234-.085.865-.857 1.723-1.72 2.584-2.58 1.219-1.219 2.44-2.435 3.654-3.659.283-.285.61-.422 1.01-.416q.603.009 1.205-.002c.13-.002.17.041.17.17-.003 1.773 0 3.548-.008 5.32 0 .1-.05.222-.119.294q-.558.58-1.139 1.14a.4.4 0 0 1-.244.106c-1.186.006-2.372.004-3.558.004-.018 0-.035-.008-.018-.004l3-2.994c-.188.311-.458.756-.726 1.203q-.128.206-.248.414c-.178.31-.025.656.332.687.285.025.584.018.863-.04.508-.108.852-.582.853-1.116q.003-1.511.002-3.022c0-.137.017-.282-.14-.351-.16-.07-.252.048-.348.144-1.529 1.53-3.063 3.053-4.582 4.592-.336.34-.698.498-1.18.494-1.97-.016-3.941-.01-5.912-.004a1.3 1.3 0 0 1-.992-.41c-1.55-1.56-3.109-3.111-4.664-4.666-.044-.044-.086-.09-.137-.125-.145-.098-.322-.023-.351.15-.01.055-.004.113-.004.169v2.927c0 .743.398 1.193 1.138 1.27.19.02.385.018.573-.006.365-.049.522-.387.334-.703-.306-.515-.619-1.024-.928-1.537l-.104-.178 3.092 3.098c-.043.002-.096.008-.15.008q-1.687-.002-3.373.003a.49.49 0 0 1-.377-.154c-.35-.358-.714-.704-1.057-1.068a.58.58 0 0 1-.15-.354c-.01-1.748-.004-3.496-.01-5.244 0-.173.051-.224.22-.219.383.012.766.01 1.15.002.406-.007.738.136 1.027.426q3.073 3.085 6.154 6.162c.04.04.078.083.12.117.138.112.305.06.313-.113.014-.27.014-.544-.017-.812-.014-.116-.1-.24-.188-.328-1.904-1.913-3.815-3.822-5.724-5.731a.98.98 0 0 0-.73-.299c-.747.006-1.494.002-2.27.002.121-.162.233-.259.433-.258" style="fill:#fff;stroke-width:.0593532"/></svg>