<svg width="32" height="32" version="1.1" xmlns="http://www.w3.org/2000/svg">
 <path d="m16 1.5c-8.008 0-14.5 6.492-14.5 14.5s6.492 14.5 14.5 14.5 14.5-6.492 14.5-14.5-6.492-14.5-14.5-14.5zm-9.6777 10.562c1.408 8e-3 2.8179 8e-3 4.2266 0a0.83 0.83 0 0 1 0.11328 0.005859 0.83 0.83 0 0 1 0.18555 0.041016 0.83 0.83 0 0 1 0.09375 0.039063 0.83 0.83 0 0 1 0.24414 0.18164c1.423 1.433 2.8593 2.854 4.2773 4.293 3.22e-4 3.27e-4 0.00163-3.27e-4 0.001953 0 0.04314 0.043664 0.085098 0.082254 0.12891 0.11523 0.00726 0.005502 0.014208 0.01042 0.021484 0.015625 0.014904 0.010595 0.029955 0.021897 0.044922 0.03125 0.022679 0.014237 0.045549 0.025748 0.06836 0.03711 0.022359 0.011144 0.043938 0.020914 0.066406 0.029296 0.023008 0.008635 0.045256 0.015769 0.068359 0.021485 0.022559 0.005606 0.043775 0.008901 0.066407 0.011719 0.023258 0.002945 0.046995 0.003922 0.070312 0.003906 0.1128-3.2e-4 0.22698-0.034912 0.33984-0.10547 0.067738-0.04233 0.13599-0.098089 0.20312-0.16602 1.408-1.43 2.836-2.8426 4.252-4.2656a0.9 0.9 0 0 1 0.26367-0.19726 0.9 0.9 0 0 1 0.20703-0.072266 0.9 0.9 0 0 1 0.21875-0.019531c0.69787 0.003666 1.3975 0.005859 2.0957 0.005859 0.69805 0 1.3952-0.001526 2.0938-0.005859 6.51e-4 -3e-6 0.001302 3e-6 0.001953 0 6.89e-4 -3e-6 0.001267 1e-6 0.001953 0 0.040138 2.44e-4 0.077365 0.004246 0.11133 0.011719 0.084206 0.018238 0.15191 0.058561 0.21484 0.11914 0.036826 0.035449 0.071435 0.078093 0.10742 0.12695h-0.20312c-0.655 0-1.3098 0.010141-1.9648-0.005859-0.09175-0.0025-0.17744 0.005016-0.25976 0.019531-0.026553 0.004682-0.052439 0.011142-0.078125 0.017578a1.17 1.17 0 0 0-0.072266 0.021485c-0.016421 0.005345-0.03274 0.009523-0.048828 0.015625a1.17 1.17 0 0 0-0.054687 0.023437c-0.030325 0.013456-0.060604 0.026718-0.089844 0.042969-0.10695 0.059443-0.20869 0.138-0.30469 0.23438-1.441 1.451-2.888 2.8948-4.334 4.3398-0.427 0.428-0.85411 0.8592-1.2871 1.2832a0.75 0.75 0 0 0-0.12305 0.14453 0.75 0.75 0 0 0-0.10742 0.26172 0.75 0.75 0 0 0-0.013672 0.09375 0.75 0.75 0 0 0 0 0.095703c8e-3 0.166-0.010234 0.335 0.009766 0.5 0.001289 0.010964 0.003229 0.021569 0.005859 0.033203 1.38e-4 6.21e-4 -1.42e-4 0.001331 0 0.001953 0.002556 0.011056 0.006111 0.021964 0.009765 0.033203 1.96e-4 6.07e-4 -1.98e-4 0.001347 0 0.001954 0.003721 0.011277 0.008951 0.022152 0.013672 0.033203 0.010492 0.024733 0.022304 0.047684 0.03711 0.068359 0.003769 0.005264 0.007718 0.010821 0.011718 0.015625 0.003851 0.004606 0.007669 0.009541 0.011719 0.013672 0.00908 0.009203 0.019369 0.017257 0.029297 0.023437 0.003309 0.002061 0.006376 0.00419 0.009766 0.00586 4.63e-4 2.4e-4 0.001488-2.33e-4 0.001953 0 0.001594 8.12e-4 0.002168 0.001298 0.003906 0.001953 0.001738 6.82e-4 0.003987 0.001427 0.005859 0.001953 0.003746 0.001052 0.007488 0.001494 0.011719 0.001953 0.008463 9.18e-4 0.017367 0.001203 0.027344 0 0.019953-0.002406 0.041891-0.008703 0.064453-0.017578 0.022563-0.008875 0.045828-0.020547 0.066406-0.033203 0.020117-0.012434 0.038855-0.02733 0.052735-0.041016 0.865-0.857 1.723-1.7201 2.584-2.5801 1.219-1.219 2.4403-2.4342 3.6543-3.6582 0.034884-0.035254 0.071146-0.068897 0.10742-0.099609 0.03668-0.030922 0.075067-0.059581 0.11328-0.085938 0.11402-0.078765 0.23556-0.1374 0.36524-0.17578 5.94e-4 -1.75e-4 0.001358 1.74e-4 0.001953 0 0.086436-0.025257 0.177-0.043193 0.27148-0.050781 0.049099-0.004042 0.10089-0.00455 0.15234-0.003906 0.11527 0.001714 0.23049 0.003288 0.3457 0.003906a39 39 0 0 0 0.85742-0.00586c0.019953-3.07e-4 0.036841-8e-6 0.052734 0.001954 5.66e-4 6.1e-5 0.001392-6.5e-5 0.001953 0 0.00723 9.46e-4 0.015053 0.002432 0.021485 0.003906 0.010937 0.002386 0.020512 0.005736 0.029296 0.009765 0.006419 0.002945 0.012231 0.00588 0.017579 0.009766 0.002674 0.001943 0.005393 0.003671 0.007812 0.005859 0.00272 0.002436 0.003449 0.005067 0.005859 0.007813 0.006882 0.007528 0.012953 0.015269 0.017579 0.025391 0.01184 0.02591 0.017578 0.060149 0.017578 0.10547-3e-3 1.772-0.001813 3.5473-0.007813 5.3203a0.47 0.47 0 0 1-0.003906 0.029297c-2.51e-4 0.00272 3.15e-4 0.005073 0 0.007812a0.47 0.47 0 0 1-0.001953 0.007813 0.47 0.47 0 0 1-0.005859 0.033203c-0.002883 0.013312-0.005624 0.025765-0.009766 0.039062a0.47 0.47 0 0 1-0.011719 0.03125c-9.82e-4 0.002535-9.3e-4 0.005294-0.001953 0.007813a0.47 0.47 0 0 1-0.013672 0.03125c-0.001243 0.002559-0.002623 0.005281-0.003906 0.007812a0.47 0.47 0 0 1-0.007813 0.013672c-0.004113 0.007494-0.009225 0.014339-0.013671 0.021485a0.47 0.47 0 0 1-0.013672 0.021484c-0.002745 0.003867-0.004975 0.008007-0.007813 0.011719a0.47 0.47 0 0 1-0.025391 0.029297c-0.37267 0.38667-0.752 0.76729-1.1387 1.1406a0.4 0.4 0 0 1-0.042969 0.033204 0.4 0.4 0 0 1-0.044922 0.029296 0.4 0.4 0 0 1-0.15625 0.042969c-1.1853 0.005997-2.3713 0.003909-3.5566 0.003907-0.00275 0-0.005226 3.02e-4 -0.007812 0-9.1e-4 -7.6e-5 -0.001073 1.05e-4 -0.001953 0-6.03e-4 -8.6e-5 -0.001372 9.5e-5 -0.001953 0-0.002722-4.17e-4 -0.005698-0.001416-0.007813-0.001954-9.49e-4 -2.44e-4 -0.001178 2.4e-4 -0.001953 0l-0.001953-0.001953c9.81e-4 1.42e-4 0.002162-3.96e-4 0.003906 0l2.998-2.9922-0.72461 1.2012c-0.084 0.13667-0.16671 0.27473-0.24805 0.41406-0.008095 0.014177-0.014758 0.028671-0.021485 0.042969-0.013452 0.028595-0.025077 0.057265-0.033203 0.085937-0.020314 0.071682-0.024525 0.14274-0.013672 0.20898 0.006512 0.039744 0.018299 0.077934 0.035157 0.11328 0.061062 0.12804 0.18832 0.22142 0.36523 0.23633a3 3 0 0 0 0.86328-0.041016c0.051651-0.01098 0.10232-0.024742 0.15039-0.042968 0.18926-0.071349 0.34939-0.19811 0.46875-0.35742 0.059388-0.079345 0.10865-0.16599 0.14648-0.25977 0.037834-0.093774 0.064674-0.19351 0.078125-0.29688 0.0068-0.051726 0.009567-0.10498 0.009766-0.1582 2e-3 -1.0073 0.00262-2.0148 0.001953-3.0215 0-0.0345 8.59e-4 -0.069438 0-0.10352-0.001074-0.042422-0.004669-0.083774-0.017578-0.12109-0.007745-0.022391-0.019793-0.043421-0.035156-0.0625-0.009964-0.012372-0.021117-0.024561-0.035157-0.035156-4.2e-4 -3.13e-4 -0.001529 3.11e-4 -0.001953 0-0.00686-0.005105-0.013543-0.010991-0.021484-0.015625-4.86e-4 -2.79e-4 -0.001463 2.78e-4 -0.001953 0-0.008014-0.004606-0.016212-0.009574-0.025391-0.013672-6.03e-4 -2.58e-4 -0.001352 2.54e-4 -0.001953 0-0.013174-0.005764-0.024817-0.01034-0.037109-0.013672-0.025718-0.006727-0.049925-0.008038-0.072266-0.005859-0.067023 0.006536-0.12157 0.048528-0.17188 0.097656-0.022358 0.021835-0.042472 0.044196-0.064453 0.066406-3.25e-4 3.26e-4 -0.001628-3.25e-4 -0.001953 0-1.529 1.53-3.063 3.0528-4.582 4.5918-0.083671 0.084808-0.16946 0.15833-0.25781 0.2207-0.044359 0.031282-0.090629 0.060149-0.13672 0.085938-0.091714 0.05119-0.18636 0.093119-0.28711 0.12305-0.051208 0.015275-0.1041 0.027215-0.1582 0.037109-0.10642 0.019392-0.22004 0.02809-0.33984 0.027344-1.97-0.017-3.9421-0.010906-5.9121-0.003906a1.3 1.3 0 0 1-0.14453-0.00586 1.3 1.3 0 0 1-0.13867-0.017578 1.3 1.3 0 0 1-0.11328-0.027344c-0.009153-0.002535-0.018281-0.00508-0.027344-0.007812a1.3 1.3 0 0 1-0.10547-0.037109c-0.00671-0.002708-0.012871-0.006939-0.019532-0.009766a1.3 1.3 0 0 1-0.097656-0.044922c-0.014421-0.007658-0.028767-0.01517-0.042968-0.023437a1.3 1.3 0 0 1-0.083985-0.052735 1.3 1.3 0 0 1-0.2168-0.18359c-3.24e-4 -3.27e-4 -0.001628 3.26e-4 -0.001953 0-1.5497-1.5597-3.1074-3.1113-4.6621-4.666-3.35e-4 -3.35e-4 -0.0016183 3.35e-4 -0.0019532 0-0.034701-0.034701-0.06786-0.070751-0.10547-0.10156-0.0098247-0.007945-0.020896-0.016396-0.03125-0.023437-0.0088423-0.006098-0.016358-0.010818-0.025391-0.015625-0.0093341-0.004959-0.017881-0.008083-0.027344-0.011719-0.0087692-0.003406-0.018546-0.007483-0.027344-0.009766-0.026379-0.006789-0.052715-0.008451-0.078125-0.005859-0.017468 0.00186-0.034558 0.005672-0.050781 0.011719-0.010815 0.004031-0.021219 0.009835-0.03125 0.015625s-0.018282 0.012064-0.027344 0.019531c-0.0095503 0.007654-0.019062 0.014048-0.027344 0.023438-2.84e-4 3.21e-4 2.824e-4 0.001629 0 0.001953-0.0075919 0.008701-0.015123 0.017245-0.021484 0.027343-2.65e-4 4.21e-4 2.628e-4 0.00153 0 0.001954-0.016424 0.026445-0.027165 0.056775-0.033203 0.091796-0.00225 0.0135-0.0050625 0.02711-0.0058594 0.041016-0.0023906 0.041719 0.0019531 0.084953 0.0019531 0.12695v2.9277c0 0.093 0.0052501 0.18004 0.017578 0.26367 0.012328 0.08363 0.03025 0.16237 0.054688 0.23633s0.055469 0.14304 0.091797 0.20703c0.018164 0.032 0.037498 0.06234 0.058594 0.091797 0.0095059 0.013313 0.019197 0.026274 0.029297 0.039062 0.012602 0.015958 0.02554 0.031742 0.039062 0.046875 0.023729 0.026498 0.047686 0.052229 0.074219 0.076172 0.080865 0.073118 0.17477 0.13302 0.28125 0.18164 0.035344 0.016156 0.071264 0.031543 0.10938 0.044922 5.744e-4 2.02e-4 0.0013782-2.02e-4 0.0019532 0 0.037577 0.013135 0.076952 0.024753 0.11719 0.035156 6.155e-4 1.6e-4 0.0013371-1.59e-4 0.0019532 0 0.081191 0.020891 0.16793 0.037319 0.25977 0.046875a2.5 2.5 0 0 0 0.57227-0.005859c0.022812-0.003063 0.045252-0.006475 0.066406-0.011719 0.020552-0.005095 0.041623-0.012518 0.060547-0.019531 0.019429-0.007275 0.039004-0.016239 0.056641-0.025391 0.017128-0.008889 0.033453-0.018778 0.048828-0.029297 0.031555-0.021758 0.060268-0.046467 0.083984-0.074219s0.04325-0.059265 0.058594-0.091797c0.0076719-0.016265 0.014053-0.033548 0.019531-0.050781 0.0054782-0.017233 0.010454-0.034686 0.013672-0.052734 0.0032177-0.018048 0.0049689-0.035977 0.0058593-0.054688 0.0044519-0.093556-0.021328-0.19422-0.080078-0.29297-0.306-0.515-0.61873-1.0241-0.92773-1.5371l-0.10352-0.17773 3.0918 3.0977c-0.021403 9.95e-4 -0.045065 0.002162-0.070313 0.003906-0.025464 0.001759-0.052972 0.003907-0.080078 0.003907-1.1247-0.001334-2.2491-9.4e-5 -3.373 0.003906-0.026125 0-0.050139-0.001219-0.074219-0.003906a0.49 0.49 0 0 1-0.037109-0.00586c-0.057431-0.010286-0.10944-0.029038-0.1582-0.058594-0.026807-0.016248-0.052924-0.035822-0.078125-0.058593a0.49 0.49 0 0 1-0.029297-0.027344c-0.35-0.358-0.71364-0.70436-1.0566-1.0684-0.010172-0.010907-0.0197-0.022717-0.029297-0.035157a0.58 0.58 0 0 1-0.027344-0.037109c-0.02403-0.03677-0.044536-0.077241-0.060547-0.11914a0.58 0.58 0 0 1 0-0.003906c-0.020068-0.053508-0.033203-0.10751-0.033203-0.1582-0.01-1.748-0.0037656-3.4971-0.0097656-5.2441-1.497e-4 -0.026036 0.0014648-0.047607 0.0039062-0.068359 0.0011706-0.010066 0.0020742-0.018431 0.0039063-0.027344 0.0036376-0.017922 0.0089714-0.033301 0.015625-0.046875 0.0035347-0.007211 0.0072474-0.013459 0.011719-0.019531 0.032578-0.044239 0.090208-0.059445 0.18555-0.056641 0.382 0.012 0.76544 0.009953 1.1484 0.001953a1.35 1.35 0 0 1 0.31836 0.027344 1.35 1.35 0 0 1 0.14648 0.039063c5.96e-4 1.96e-4 0.0013574-1.97e-4 0.0019531 0a1.35 1.35 0 0 1 0.14062 0.05664c0.035863 0.016852 0.072834 0.036372 0.10742 0.056641a1.35 1.35 0 0 1 0.0058593 0.003906 1.35 1.35 0 0 1 0.076172 0.048828c0.0063624 0.00436 0.013211 0.007237 0.019531 0.011719a1.35 1.35 0 0 1 0.0097657 0.007813 1.35 1.35 0 0 1 0.18359 0.15625 1.35 1.35 0 0 1 0.017578 0.017578c2.05 2.056 4.101 4.1101 6.1543 6.1621 0.04 0.04 0.078093 0.082187 0.12109 0.11719 0.025875 0.021001 0.051451 0.03517 0.078125 0.044922 0.017784 0.006502 0.035514 0.01196 0.052735 0.013672 0.008581 8.27e-4 0.017083 3.34e-4 0.02539 0 0.008332-3.09e-4 0.017429-4.99e-4 0.025391-0.001953 0.03574-0.006633 0.066644-0.026108 0.089844-0.054687 0.00258-0.003173 0.005445-0.006334 0.007812-0.009766 0.018922-0.027469 0.031203-0.062219 0.033203-0.10547 0.014-0.27 0.013422-0.5445-0.017578-0.8125-0.014-0.116-0.0995-0.24112-0.1875-0.32812-1.904-1.913-3.8166-3.8225-5.7246-5.7305a0.98 0.98 0 0 0-0.21289-0.16602 0.98 0.98 0 0 0-0.12109-0.060547 0.98 0.98 0 0 0-0.39648-0.072266c-0.747 6e-3 -1.4945 0.001953-2.2695 0.001953 0.045375-0.060749 0.090713-0.11362 0.13867-0.1543 0.047959-0.040729 0.099383-0.068711 0.16016-0.085938 0.040516-0.011344 0.084766-0.018078 0.13477-0.017578z" fill="#fff" stroke-width=".059353"/>
</svg>
