<?xml version="1.0" encoding="UTF-8" standalone="no"?>
<!-- Created with Inkscape (http://www.inkscape.org/) -->

<svg
   width="125.23759mm"
   height="53.038021mm"
   viewBox="0 0 125.23759 53.038021"
   version="1.1"
   id="svg1"
   xml:space="preserve"
   xmlns="http://www.w3.org/2000/svg"
   xmlns:svg="http://www.w3.org/2000/svg"><defs
     id="defs1"><clipPath
       clipPathUnits="userSpaceOnUse"
       id="clipPath3464"><path
         d="M 0,0 H 3024 V 1326 H 0 V 0"
         transform="translate(-1231.57,-972.63902)"
         id="path3464" /></clipPath><clipPath
       clipPathUnits="userSpaceOnUse"
       id="clipPath3466"><path
         d="M 0,0 H 3024 V 1326 H 0 V 0"
         transform="translate(-939.47702,-983.63203)"
         id="path3466" /></clipPath><clipPath
       clipPathUnits="userSpaceOnUse"
       id="clipPath3468"><path
         d="M 0,0 H 3024 V 1326 H 0 V 0"
         transform="translate(-897.49802,-972.63902)"
         id="path3468" /></clipPath><clipPath
       clipPathUnits="userSpaceOnUse"
       id="clipPath3470"><path
         d="M 0,0 H 3024 V 1326 H 0 V 0"
         transform="translate(-1064.3601,-984.10903)"
         id="path3470" /></clipPath><clipPath
       clipPathUnits="userSpaceOnUse"
       id="clipPath3472"><path
         d="M 0,0 H 3024 V 1326 H 0 V 0"
         transform="translate(-1222.11,-961.66502)"
         id="path3472" /></clipPath><clipPath
       clipPathUnits="userSpaceOnUse"
       id="clipPath3474"><path
         d="M 0,0 H 3024 V 1326 H 0 V 0"
         transform="translate(-1200.76,-951.01202)"
         id="path3474" /></clipPath><clipPath
       clipPathUnits="userSpaceOnUse"
       id="clipPath3476"><path
         d="M 0,0 H 3024 V 1326 H 0 V 0"
         transform="translate(-1232.9301,-950.94602)"
         id="path3476" /></clipPath><clipPath
       clipPathUnits="userSpaceOnUse"
       id="clipPath3478"><path
         d="M 0,0 H 3024 V 1326 H 0 V 0"
         transform="translate(-1206.49,-856.77602)"
         id="path3478" /></clipPath><clipPath
       clipPathUnits="userSpaceOnUse"
       id="clipPath3480"><path
         d="M 0,0 H 3024 V 1326 H 0 V 0"
         transform="translate(-1208.76,-859.76302)"
         id="path3480" /></clipPath><clipPath
       clipPathUnits="userSpaceOnUse"
       id="clipPath3482"><path
         d="M 0,0 H 3024 V 1326 H 0 V 0"
         transform="translate(-1185.5601,-963.94102)"
         id="path3482" /></clipPath><clipPath
       clipPathUnits="userSpaceOnUse"
       id="clipPath3484"><path
         d="M 0,0 H 3024 V 1326 H 0 V 0"
         transform="translate(-1191.03,-966.77702)"
         id="path3484" /></clipPath><clipPath
       clipPathUnits="userSpaceOnUse"
       id="clipPath3486"><path
         d="M 0,0 H 3024 V 1326 H 0 V 0"
         transform="translate(-1200.84,-899.95302)"
         id="path3486" /></clipPath><clipPath
       clipPathUnits="userSpaceOnUse"
       id="clipPath3488"><path
         d="M 0,0 H 3024 V 1326 H 0 V 0"
         transform="translate(-1200.84,-867.41202)"
         id="path3488" /></clipPath><clipPath
       clipPathUnits="userSpaceOnUse"
       id="clipPath3490"><path
         d="M 0,0 H 3024 V 1326 H 0 V 0"
         transform="translate(-928.54105,-899.67502)"
         id="path3490" /></clipPath><clipPath
       clipPathUnits="userSpaceOnUse"
       id="clipPath3492"><path
         d="M 0,0 H 3024 V 1326 H 0 V 0"
         transform="translate(-928.54105,-867.13302)"
         id="path3492" /></clipPath><clipPath
       clipPathUnits="userSpaceOnUse"
       id="clipPath3494"><path
         d="M 0,0 H 3024 V 1326 H 0 V 0"
         transform="translate(-936.676,-963.97303)"
         id="path3494" /></clipPath><clipPath
       clipPathUnits="userSpaceOnUse"
       id="clipPath3496"><path
         d="M 0,0 H 3024 V 1326 H 0 V 0"
         transform="translate(-936.90302,-954.20302)"
         id="path3496" /></clipPath><clipPath
       clipPathUnits="userSpaceOnUse"
       id="clipPath3498"><path
         d="M 0,0 H 3024 V 1326 H 0 V 0"
         transform="translate(-940.87405,-957.03902)"
         id="path3498" /></clipPath><clipPath
       clipPathUnits="userSpaceOnUse"
       id="clipPath3500"><path
         d="M 0,0 H 3024 V 1326 H 0 V 0"
         transform="translate(-945.151,-917.37002)"
         id="path3500" /></clipPath><clipPath
       clipPathUnits="userSpaceOnUse"
       id="clipPath3502"><path
         d="M 0,0 H 3024 V 1326 H 0 V 0"
         transform="translate(-1177.36,-841.91702)"
         id="path3502" /></clipPath><clipPath
       clipPathUnits="userSpaceOnUse"
       id="clipPath3504"><path
         d="M 0,0 H 3024 V 1326 H 0 V 0"
         transform="translate(-1188.9,-965.28002)"
         id="path3504" /></clipPath><clipPath
       clipPathUnits="userSpaceOnUse"
       id="clipPath3506"><path
         d="M 0,0 H 3024 V 1326 H 0 V 0"
         transform="translate(0,2.5000001e-5)"
         id="path3506" /></clipPath><clipPath
       clipPathUnits="userSpaceOnUse"
       id="clipPath3508"><path
         d="M 0,0 H 3024 V 1326 H 0 V 0"
         transform="translate(-937.966,-955.97702)"
         id="path3508" /></clipPath><clipPath
       clipPathUnits="userSpaceOnUse"
       id="clipPath3512"><path
         d="M 0,0 H 3024 V 1326 H 0 V 0"
         transform="translate(-1220.98,-943.35403)"
         id="path3512" /></clipPath><clipPath
       clipPathUnits="userSpaceOnUse"
       id="clipPath3520"><path
         d="M 0.030029,1325.91 H 3023.37 V 0.03 H 0.030029 Z"
         transform="translate(-925.78502,-948.67802)"
         id="path3520" /></clipPath><clipPath
       clipPathUnits="userSpaceOnUse"
       id="clipPath3521"><path
         d="M 3023.35,1325.87 H 0 V 0 h 3023.35 z"
         transform="matrix(1.3333333,0,0,-1.3333333,0,1767.8267)"
         id="path3521" /></clipPath><clipPath
       clipPathUnits="userSpaceOnUse"
       id="clipPath3523"><path
         d="M 0,0 H 3024 V 1326 H 0 V 0"
         transform="matrix(1.3333333,0,0,-1.3333333,0,1767.8267)"
         id="path3523" /></clipPath><clipPath
       clipPathUnits="userSpaceOnUse"
       id="clipPath3525"><path
         d="M 0,0 H 3024 V 1326 H 0 V 0"
         transform="translate(-923.87102,-948.67802)"
         id="path3525" /></clipPath><clipPath
       clipPathUnits="userSpaceOnUse"
       id="clipPath3527"><path
         d="M 0,0 H 3024 V 1326 H 0 V 0"
         transform="translate(-920.76805,-948.67802)"
         id="path3527" /></clipPath><clipPath
       clipPathUnits="userSpaceOnUse"
       id="clipPath3551"><path
         d="M 0,0 H 3024 V 1326 H 0 V 0"
         transform="translate(-937.17902,-859.03502)"
         id="path3551" /></clipPath><clipPath
       clipPathUnits="userSpaceOnUse"
       id="clipPath3553"><path
         d="M 0,0 H 3024 V 1326 H 0 V 0"
         transform="translate(-937.17902,-858.02702)"
         id="path3553" /></clipPath><clipPath
       clipPathUnits="userSpaceOnUse"
       id="clipPath3555"><path
         d="M 0,0 H 3024 V 1326 H 0 V 0"
         transform="translate(-937.17902,-857.39702)"
         id="path3555" /></clipPath><clipPath
       clipPathUnits="userSpaceOnUse"
       id="clipPath3557"><path
         d="M 0,0 H 3024 V 1326 H 0 V 0"
         transform="translate(-925.61005,-859.72602)"
         id="path3557" /></clipPath><clipPath
       clipPathUnits="userSpaceOnUse"
       id="clipPath3559"><path
         d="M 0,0 H 3024 V 1326 H 0 V 0"
         transform="translate(-928.83902,-857.14802)"
         id="path3559" /></clipPath><clipPath
       clipPathUnits="userSpaceOnUse"
       id="clipPath3561"><path
         d="M 0,0 H 3024 V 1326 H 0 V 0"
         transform="translate(-1196.59,-859.29002)"
         id="path3561" /></clipPath><clipPath
       clipPathUnits="userSpaceOnUse"
       id="clipPath3597"><path
         d="M 0,0 H 3024 V 1326 H 0 V 0"
         transform="translate(-1216.44,-959.20202)"
         id="path3597" /></clipPath><clipPath
       clipPathUnits="userSpaceOnUse"
       id="clipPath3599"><path
         d="M 0,0 H 3024 V 1326 H 0 V 0"
         transform="translate(-1206.42,-951.15302)"
         id="path3599" /></clipPath><clipPath
       clipPathUnits="userSpaceOnUse"
       id="clipPath3601"><path
         d="M 0,0 H 3024 V 1326 H 0 V 0"
         transform="translate(-1229.25,-949.30102)"
         id="path3601" /></clipPath><clipPath
       clipPathUnits="userSpaceOnUse"
       id="clipPath3603"><path
         d="M 0,0 H 3024 V 1326 H 0 V 0"
         transform="translate(-1217.34,-939.51602)"
         id="path3603" /></clipPath><clipPath
       clipPathUnits="userSpaceOnUse"
       id="clipPath3605"><path
         d="M 0,0 H 3024 V 1326 H 0 V 0"
         transform="translate(-1199.08,-857.93302)"
         id="path3605" /></clipPath><clipPath
       clipPathUnits="userSpaceOnUse"
       id="clipPath3607"><path
         d="M 0,0 H 3024 V 1326 H 0 V 0"
         transform="translate(-1210.84,-857.90602)"
         id="path3607" /></clipPath><clipPath
       clipPathUnits="userSpaceOnUse"
       id="clipPath3609"><path
         d="M 0,0 H 3024 V 1326 H 0 V 0"
         transform="translate(-943.615,-917.37002)"
         id="path3609" /></clipPath><clipPath
       clipPathUnits="userSpaceOnUse"
       id="clipPath3611"><path
         d="M 0,0 H 3024 V 1326 H 0 V 0"
         transform="translate(-929.32202,-927.74002)"
         id="path3611" /></clipPath><clipPath
       clipPathUnits="userSpaceOnUse"
       id="clipPath3613"><path
         d="M 0,0 H 3024 V 1326 H 0 V 0"
         transform="translate(-929.32202,-909.79502)"
         id="path3613" /></clipPath><clipPath
       clipPathUnits="userSpaceOnUse"
       id="clipPath3615"><path
         d="M 0,0 H 3024 V 1326 H 0 V 0"
         transform="translate(-939.43,-917.08202)"
         id="path3615" /></clipPath><clipPath
       clipPathUnits="userSpaceOnUse"
       id="clipPath3617"><path
         d="M 0,0 H 3024 V 1326 H 0 V 0"
         transform="translate(-921.48505,-917.08202)"
         id="path3617" /></clipPath><clipPath
       clipPathUnits="userSpaceOnUse"
       id="clipPath3619"><path
         d="M 0,0 H 3024 V 1326 H 0 V 0"
         transform="translate(-943.783,-857.83902)"
         id="path3619" /></clipPath><clipPath
       clipPathUnits="userSpaceOnUse"
       id="clipPath3621"><path
         d="M 0,0 H 3024 V 1326 H 0 V 0"
         transform="translate(-939.115,-966.81002)"
         id="path3621" /></clipPath><clipPath
       clipPathUnits="userSpaceOnUse"
       id="clipPath3623"><path
         d="M 0,0 H 3024 V 1326 H 0 V 0"
         transform="translate(-941.04505,-966.81002)"
         id="path3623" /></clipPath><clipPath
       clipPathUnits="userSpaceOnUse"
       id="clipPath3625"><path
         d="M 0,0 H 3024 V 1326 H 0 V 0"
         transform="translate(-940.624,-966.81002)"
         id="path3625" /></clipPath><clipPath
       clipPathUnits="userSpaceOnUse"
       id="clipPath3627"><path
         d="M 0,0 H 3024 V 1326 H 0 V 0"
         transform="translate(-1212.2301,-919.72402)"
         id="path3627" /></clipPath><clipPath
       clipPathUnits="userSpaceOnUse"
       id="clipPath3629"><path
         d="M 0,0 H 3024 V 1326 H 0 V 0"
         transform="translate(-1210.32,-919.72402)"
         id="path3629" /></clipPath><clipPath
       clipPathUnits="userSpaceOnUse"
       id="clipPath3631"><path
         d="M 0,0 H 3024 V 1326 H 0 V 0"
         transform="translate(-1207.21,-919.72402)"
         id="path3631" /></clipPath></defs><g
     id="layer1"
     transform="translate(54.306989,-29.434543)"><path
       id="path3463"
       d="m 0,0 c -0.06,1.005 -0.09,2.612 -0.15,3.711 -0.03,0.704 -0.34,1.508 -1.41,1.946 -1.88,0.772 -3.75,1.553 -6.85,2.615 -7.73,2.653 -15.83,3.861 -16.73,4.001 -0.89,0.142 -3.17,0.491 -4.17,0.62 -0.99,0.128 -2.05,0.252 -3.15,0.364 -1.11,0.113 -2.27,0.216 -3.44,0.305 -1.16,0.088 -4.4,0.243 -5.01,0.262 l -0.53,-2.855"
       style="fill:none;fill-opacity:1;fill-rule:nonzero;stroke:#899099;stroke-opacity:1"
       transform="matrix(0.35277776,0,0,-0.35277776,67.302753,34.380137)"
       clip-path="url(#clipPath3464)" /><path
       id="path3465"
       d="M 0,0 -0.493,2.856 C 0.003,2.871 2.16,2.971 2.656,2.981 3.322,2.996 3.987,3.007 4.653,3.014 5.396,3.022 6.139,3.026 6.882,3.026 h 4.645 c 75.572,0 151.144,0 226.716,0 h 4.65 c 0.74,0 1.48,-0.004 2.22,-0.012 0.67,-0.007 1.34,-0.018 2,-0.033 0.5,-0.01 3.05,-0.154 3.54,-0.168 l -0.6,-2.881"
       style="fill:none;fill-opacity:1;fill-rule:nonzero;stroke:#899099;stroke-opacity:1"
       transform="matrix(0.35277776,0,0,-0.35277776,-35.741156,30.502049)"
       clip-path="url(#clipPath3466)" /><path
       id="path3467"
       d="M 0,0 C 0.057,1.005 0.093,2.612 0.146,3.711 0.18,4.415 0.49,5.219 1.56,5.657 3.442,6.429 5.311,7.21 8.407,8.272 c 7.732,2.653 15.835,3.861 16.731,4.001 0.896,0.142 3.171,0.491 4.167,0.62 0.997,0.128 2.05,0.252 3.156,0.364 1.106,0.113 2.266,0.216 3.434,0.305 1.168,0.088 4.405,0.243 5.013,0.262 l 0.53,-2.855"
       style="fill:none;fill-opacity:1;fill-rule:nonzero;stroke:#899099;stroke-opacity:1"
       transform="matrix(0.35277776,0,0,-0.35277776,-50.550414,34.380137)"
       clip-path="url(#clipPath3468)" /><path
       id="path3469"
       d="m 0,0 h 104.39 l 0.08,0.002 c 0.21,0.003 0.43,0.006 0.64,0.009 0.24,0.004 0.49,0.007 0.73,0.01 l 0.79,0.008 c 0.28,0.002 0.57,0.005 0.85,0.006 0.31,0.002 0.62,0.003 0.93,0.004 0.33,0.001 0.67,0.002 1,0.001 0.37,0 0.73,-0.001 1.09,-0.002 0.4,-0.001 0.79,-0.004 1.19,-0.007 0.43,-0.003 0.85,-0.008 1.28,-0.012 0.47,-0.007 0.94,-0.014 1.41,-0.023 0.51,-0.009 1.02,-0.019 1.53,-0.032 0.56,-0.014 1.12,-0.028 1.67,-0.046 0.61,-0.019 1.22,-0.039 1.82,-0.062 0.51,-0.018 0.99,-0.038 1.46,-0.058 l 0.19,-0.009 c 0.11,-0.005 0.22,-0.01 0.33,-0.015 0.73,-0.032 1.46,-0.068 2.18,-0.108 0.81,-0.043 1.61,-0.091 2.41,-0.142 0.89,-0.057 1.79,-0.119 2.68,-0.186 0.98,-0.073 1.97,-0.153 2.95,-0.241 1.04,-0.093 2.09,-0.194 3.13,-0.303 0.35,-0.036 0.7,-0.074 1.04,-0.112 0.68,-0.076 1.36,-0.156 2.04,-0.24 0.95,-0.118 1.9,-0.244 2.85,-0.382 0.86,-0.125 1.72,-0.261 2.58,-0.407 0.79,-0.133 1.58,-0.276 2.36,-0.429 0.71,-0.141 1.43,-0.289 2.14,-0.448 0.65,-0.144 1.29,-0.297 1.94,-0.458 0.58,-0.146 1.17,-0.301 1.75,-0.464 0.54,-0.147 1.06,-0.301 1.59,-0.462 0.47,-0.145 0.94,-0.294 1.41,-0.45 0.42,-0.137 0.83,-0.281 1.25,-0.427 0.37,-0.135 0.75,-0.273 1.12,-0.413 0.36,-0.136 0.71,-0.274 1.06,-0.415 0.35,-0.143 0.7,-0.29 1.05,-0.44 0.37,-0.158 0.73,-0.32 1.09,-0.487 0.4,-0.182 0.79,-0.369 1.17,-0.562 0.43,-0.212 0.85,-0.429 1.26,-0.653 0.43,-0.235 0.85,-0.478 1.27,-0.727 0.4,-0.242 0.8,-0.491 1.18,-0.745 0.36,-0.234 0.7,-0.473 1.04,-0.716 0.3,-0.217 0.59,-0.437 0.88,-0.659 0.24,-0.195 0.49,-0.391 0.72,-0.589 0.2,-0.172 0.39,-0.345 0.58,-0.52 0.16,-0.153 0.32,-0.307 0.47,-0.462 0.13,-0.137 0.26,-0.274 0.38,-0.414 l 0.09,-0.117 0.08,-0.105 c 0.16,-0.261 0.33,-0.522 0.49,-0.786 l -0.02,0.032 0.05,-0.07 0.17,-0.252 0.13,-0.224 0.02,-0.051 0.06,-0.146 0.02,-0.074 c 0.05,-0.174 0.1,-0.348 0.15,-0.522 l 0.01,-0.025 c 1.24,-4.467 2.29,-8.984 3.16,-13.533 0.65,-3.366 1.21,-6.745 1.7,-10.136 0.22,-1.557 0.43,-3.115 0.62,-4.675 0.02,-0.107 0.03,-0.215 0.04,-0.321 0.05,-0.343 0.09,-0.685 0.13,-1.027 0.16,-1.335 0.31,-2.672 0.44,-4.008 0.14,-1.336 0.26,-2.673 0.38,-4.01 0.1,-1.252 0.2,-2.503 0.28,-3.755 0.09,-1.251 0.16,-2.502 0.23,-3.752 0.06,-1.251 0.12,-2.501 0.16,-3.75 0.05,-1.249 0.08,-2.498 0.11,-3.745 0.04,-1.894 0.05,-3.787 0.04,-5.675 -0.01,-1.888 -0.05,-3.773 -0.13,-5.651 -0.07,-1.879 -0.17,-3.752 -0.3,-5.617 -0.14,-1.866 -0.31,-3.724 -0.52,-5.571 -0.16,-1.461 -0.35,-2.917 -0.57,-4.364 -0.22,-1.448 -0.46,-2.889 -0.74,-4.327 -0.28,-1.437 -0.59,-2.871 -0.94,-4.303 -0.34,-1.431 -0.73,-2.86 -1.16,-4.285 -0.27,-0.882 -0.55,-1.762 -0.86,-2.638 -0.3,-0.876 -0.62,-1.751 -0.97,-2.619 -0.69,-1.738 -1.46,-3.458 -2.32,-5.139 -0.79,-1.558 -1.65,-3.083 -2.57,-4.563 -0.78,-1.259 -1.61,-2.484 -2.47,-3.67 l -0.01,-0.04 c -1.57,-2.144 -3.26,-4.132 -5.05,-5.975 -0.89,-0.922 -1.81,-1.808 -2.76,-2.653 -0.95,-0.843 -1.93,-1.645 -2.94,-2.4 -1.1,-0.819 -2.23,-1.578 -3.41,-2.271 -0.69,-0.405 -1.4,-0.79 -2.13,-1.155 -0.74,-0.365 -1.5,-0.711 -2.27,-1.032 -0.77,-0.322 -1.55,-0.619 -2.35,-0.894 -0.79,-0.273 -1.59,-0.522 -2.4,-0.755 -0.81,-0.231 -1.64,-0.446 -2.48,-0.652 -0.84,-0.206 -1.7,-0.403 -2.57,-0.599 -0.87,-0.195 -1.76,-0.386 -2.67,-0.566 l -0.15,-0.029 0.11,0.043 c -0.95,-0.189 -1.9,-0.362 -2.85,-0.521 -1.1,-0.184 -2.21,-0.35 -3.33,-0.497 -1.11,-0.146 -2.23,-0.274 -3.36,-0.384 -2.25,-0.22 -4.52,-0.37 -6.82,-0.468 -2.06,-0.087 -4.14,-0.133 -6.24,-0.158 -1.05,-0.012 -2.11,-0.019 -3.17,-0.023 -0.9,-0.004 -1.8,-0.005 -2.7,-0.005 v 0.004 L 0,-147.782 h -0.02 c -34.79,-0.003 -69.587,-0.006 -104.383,-0.009 v -0.004 c -0.903,0 -1.806,10e-4 -2.705,0.005 -1.06,0.004 -2.116,0.011 -3.167,0.023 -2.102,0.025 -4.183,0.071 -6.24,0.158 -2.3,0.098 -4.573,0.248 -6.823,0.468 -1.126,0.11 -2.246,0.238 -3.36,0.384 -1.115,0.147 -2.224,0.313 -3.328,0.497 -0.952,0.159 -1.901,0.332 -2.846,0.521 l 0.103,-0.043 -0.146,0.029 c -0.91,0.18 -1.798,0.371 -2.671,0.566 -0.873,0.196 -1.731,0.393 -2.572,0.599 -0.841,0.206 -1.665,0.421 -2.477,0.652 -0.811,0.233 -1.611,0.482 -2.404,0.755 -0.792,0.275 -1.578,0.572 -2.35,0.894 -0.771,0.321 -1.528,0.667 -2.263,1.032 -0.732,0.365 -1.442,0.75 -2.133,1.155 -1.179,0.693 -2.312,1.452 -3.408,2.271 -1.009,0.755 -1.988,1.557 -2.938,2.4 -0.951,0.845 -1.872,1.731 -2.767,2.653 -1.79,1.843 -3.474,3.831 -5.047,5.975 l -0.012,0.04 c -0.863,1.186 -1.687,2.411 -2.47,3.67 -0.919,1.48 -1.78,3.005 -2.571,4.563 -0.855,1.681 -1.628,3.401 -2.318,5.139 -0.345,0.868 -0.669,1.743 -0.973,2.619 -0.304,0.876 -0.59,1.756 -0.857,2.638 -0.432,1.425 -0.817,2.854 -1.164,4.285 -0.348,1.432 -0.657,2.866 -0.935,4.303 -0.277,1.438 -0.521,2.879 -0.739,4.327 -0.218,1.447 -0.408,2.903 -0.574,4.364 -0.209,1.847 -0.378,3.705 -0.514,5.571 -0.135,1.865 -0.236,3.738 -0.308,5.617 -0.071,1.878 -0.113,3.763 -0.126,5.651 -0.013,1.888 0.002,3.781 0.04,5.675 0.026,1.247 0.062,2.496 0.107,3.745 0.046,1.249 0.101,2.499 0.166,3.75 0.066,1.25 0.141,2.501 0.226,3.752 0.085,1.252 0.18,2.503 0.286,3.755 0.112,1.337 0.236,2.674 0.373,4.01 0.136,1.336 0.284,2.673 0.444,4.008 0.041,0.342 0.083,0.684 0.125,1.027 0.013,0.106 0.026,0.214 0.04,0.321 h -10e-4 c 0.195,1.56 0.404,3.118 0.627,4.675 0.487,3.391 1.044,6.77 1.694,10.136 0.878,4.549 1.924,9.066 3.166,13.533 l 0.007,0.025 c 0.048,0.174 0.097,0.348 0.147,0.522 l 0.021,0.074 0.058,0.146 0.027,0.051 0.13,0.224 0.167,0.252 0.051,0.07 -0.023,-0.032 c 0.165,0.264 0.329,0.525 0.494,0.786 l 0.075,0.105 0.098,0.117 c 0.12,0.14 0.245,0.277 0.376,0.414 0.15,0.155 0.306,0.309 0.47,0.462 0.186,0.175 0.381,0.348 0.583,0.52 0.231,0.198 0.472,0.394 0.721,0.589 0.283,0.222 0.576,0.442 0.878,0.659 0.336,0.243 0.682,0.482 1.038,0.716 0.383,0.254 0.778,0.503 1.182,0.745 0.414,0.249 0.838,0.492 1.27,0.727 0.411,0.224 0.83,0.441 1.254,0.653 0.385,0.193 0.775,0.38 1.17,0.562 0.361,0.167 0.725,0.329 1.092,0.487 0.348,0.15 0.699,0.297 1.051,0.44 0.351,0.141 0.704,0.279 1.06,0.415 0.372,0.14 0.747,0.278 1.124,0.413 0.413,0.146 0.829,0.29 1.246,0.427 0.468,0.156 0.938,0.305 1.41,0.45 0.526,0.161 1.054,0.315 1.586,0.462 0.583,0.163 1.17,0.318 1.759,0.464 0.643,0.161 1.29,0.314 1.938,0.458 0.711,0.159 1.424,0.307 2.139,0.448 0.783,0.153 1.568,0.296 2.355,0.429 0.86,0.146 1.723,0.282 2.587,0.407 0.947,0.138 1.896,0.264 2.847,0.382 0.678,0.084 1.358,0.164 2.04,0.24 0.344,0.038 0.691,0.076 1.038,0.112 1.043,0.109 2.087,0.21 3.132,0.303 0.983,0.088 1.968,0.168 2.953,0.241 0.891,0.067 1.782,0.129 2.674,0.186 0.803,0.051 1.606,0.099 2.409,0.142 0.726,0.04 1.452,0.076 2.179,0.108 0.11,0.005 0.22,0.01 0.33,0.015 l 0.193,0.009 c 0.469,0.02 0.956,0.04 1.46,0.058 0.606,0.023 1.211,0.043 1.817,0.062 0.557,0.018 1.114,0.032 1.671,0.046 0.511,0.013 1.023,0.023 1.535,0.032 0.468,0.009 0.936,0.016 1.405,0.023 0.429,0.004 0.858,0.009 1.287,0.012 0.394,0.003 0.788,0.006 1.183,0.007 0.363,0.001 0.727,0.002 1.09,0.002 0.336,0.001 0.671,0 1.007,-0.001 0.309,-0.001 0.619,-0.002 0.928,-0.004 0.283,-0.001 0.565,-0.004 0.848,-0.006 l 0.793,-0.008 c 0.242,-0.003 0.485,-0.006 0.727,-0.01 0.214,-0.003 0.427,-0.006 0.641,-0.009 L -104.402,0 H -0.02"
       style="fill:none;fill-opacity:1;fill-rule:nonzero;stroke:#899099;stroke-opacity:1"
       transform="matrix(0.35277776,0,0,-0.35277776,8.3147996,30.333774)"
       clip-path="url(#clipPath3470)" /><path
       id="path3471"
       d="M 0,0 C 0,0.31 -0.03,0.604 -0.07,0.877 -0.12,1.15 -0.18,1.402 -0.26,1.642 -0.34,1.882 -0.43,2.109 -0.55,2.337 -0.66,2.565 -0.79,2.794 -0.95,3.021 -1.11,3.25 -1.3,3.478 -1.51,3.7 -1.73,3.922 -1.98,4.139 -2.27,4.338 -2.56,4.538 -2.89,4.721 -3.25,4.874 -3.62,5.026 -4.03,5.148 -4.48,5.216 -4.93,5.284 -5.42,5.298 -5.92,5.237 -6.42,5.176 -6.93,5.038 -7.4,4.831 -7.87,4.624 -8.31,4.347 -8.7,4.015 -9.09,3.683 -9.43,3.296 -9.7,2.869 -9.98,2.441 -10.2,1.974 -10.34,1.488 -10.48,1.003 -10.55,0.5 -10.55,0 c 0,-0.444 0.05,-0.89 0.16,-1.318 0.1,-0.383 0.25,-0.753 0.43,-1.104 0.18,-0.357 0.41,-0.693 0.67,-0.999 0.29,-0.342 0.62,-0.646 0.99,-0.903 0.39,-0.274 0.82,-0.492 1.27,-0.651 0.45,-0.159 0.92,-0.255 1.39,-0.289 0.48,-0.032 0.96,0 1.43,0.096 0.47,0.098 0.93,0.26 1.36,0.481 0.43,0.223 0.83,0.506 1.18,0.839 0.36,0.331 0.66,0.711 0.91,1.129 0.25,0.408 0.44,0.852 0.57,1.316 C -0.07,-0.948 0,-0.474 0,0"
       style="fill:none;fill-opacity:1;fill-rule:nonzero;stroke:#899099;stroke-opacity:1"
       transform="matrix(0.35277776,0,0,-0.35277776,63.965485,38.25152)"
       clip-path="url(#clipPath3472)" /><path
       id="path3473"
       d="m 0,0 c 0,0.484 0.07,0.97 0.2,1.437 0.13,0.459 0.32,0.9 0.57,1.307 0.25,0.406 0.55,0.778 0.9,1.104 0.34,0.323 0.73,0.6 1.15,0.82 C 3.23,4.889 3.68,5.053 4.15,5.154 4.61,5.256 5.09,5.295 5.57,5.269 6.04,5.242 6.52,5.15 6.97,4.996 7.42,4.843 7.85,4.628 8.25,4.358 8.63,4.103 8.97,3.798 9.26,3.455 9.53,3.146 9.76,2.808 9.95,2.446 10.14,2.092 10.28,1.718 10.38,1.332 10.49,0.897 10.55,0.448 10.55,0 10.55,-1.399 10,-2.74 9.01,-3.73 8.02,-4.72 6.67,-5.275 5.28,-5.276 3.88,-5.276 2.53,-4.72 1.54,-3.73 0.56,-2.741 0,-1.399 0,0"
       style="fill:none;fill-opacity:1;fill-rule:nonzero;stroke:#899099;stroke-opacity:1"
       transform="matrix(0.35277776,0,0,-0.35277776,56.43367,42.009661)"
       clip-path="url(#clipPath3474)" /><path
       id="path3475"
       d="M 0,0 C 0,0.31 -0.03,0.604 -0.07,0.877 -0.12,1.15 -0.18,1.402 -0.26,1.643 -0.34,1.882 -0.43,2.109 -0.55,2.338 -0.66,2.565 -0.79,2.794 -0.95,3.021 -1.11,3.25 -1.3,3.478 -1.51,3.7 -1.73,3.922 -1.98,4.139 -2.27,4.339 -2.56,4.538 -2.89,4.722 -3.25,4.874 -3.62,5.026 -4.03,5.148 -4.48,5.217 -4.93,5.284 -5.42,5.299 -5.92,5.237 -6.42,5.176 -6.92,5.038 -7.4,4.831 -7.87,4.624 -8.31,4.347 -8.7,4.015 -9.09,3.683 -9.43,3.296 -9.7,2.869 -9.98,2.441 -10.2,1.974 -10.34,1.488 -10.48,1.003 -10.55,0.5 -10.55,0 c 0,-0.444 0.05,-0.89 0.17,-1.318 0.09,-0.383 0.24,-0.753 0.42,-1.104 0.18,-0.357 0.41,-0.693 0.67,-0.998 0.29,-0.343 0.62,-0.647 0.99,-0.904 0.39,-0.273 0.82,-0.492 1.27,-0.651 0.45,-0.159 0.92,-0.255 1.39,-0.288 0.48,-0.033 0.96,-0.001 1.43,0.095 0.47,0.098 0.93,0.26 1.36,0.481 0.43,0.224 0.83,0.506 1.18,0.839 0.36,0.331 0.66,0.712 0.92,1.129 0.24,0.408 0.43,0.852 0.56,1.316 C -0.07,-0.948 0,-0.474 0,0"
       style="fill:none;fill-opacity:1;fill-rule:nonzero;stroke:#899099;stroke-opacity:1"
       transform="matrix(0.35277776,0,0,-0.35277776,67.782549,42.032945)"
       clip-path="url(#clipPath3476)" /><path
       id="path3477"
       d="M 0,0 0.01,-0.041 0.03,-0.076 0.06,-0.101 0.1,-0.112 0.14,-0.11 c 0.23,0.053 0.46,0.107 0.7,0.161 0.09,0.02 0.18,0.041 0.27,0.062 L 1.34,0.167 1.52,0.208 C 1.74,0.259 1.96,0.31 2.18,0.361 L 2.25,0.403 2.27,0.472 V 1.146 L 2.26,1.187 2.24,1.223 2.21,1.247 2.19,1.253 2.17,1.259 2.13,1.257 C 1.91,1.206 1.69,1.155 1.47,1.104 1.24,1.051 1.01,0.999 0.78,0.946 0.55,0.893 0.32,0.839 0.09,0.785 L 0.02,0.746 0,0.675 V 0"
       style="fill:#8a9199;fill-opacity:1;fill-rule:nonzero;stroke:none"
       transform="matrix(0.35277776,0,0,-0.35277776,58.455087,75.254028)"
       clip-path="url(#clipPath3478)" /><path
       id="path3479"
       d="m 0,0 v -0.675 l -0.03,-0.071 -0.06,-0.04 -0.04,-0.01 C -0.34,-0.844 -0.55,-0.892 -0.75,-0.939 -0.98,-0.992 -1.21,-1.044 -1.43,-1.097 -1.67,-1.15 -1.9,-1.204 -2.13,-1.258 l -0.04,-0.002 -0.04,0.012 -0.03,0.025 -0.02,0.036 -0.01,0.04 v 0.674 l 0.03,0.072 0.06,0.04 c 0.23,0.053 0.46,0.107 0.69,0.16 0.23,0.053 0.46,0.105 0.69,0.157 0.2,0.048 0.41,0.097 0.62,0.145 L -0.14,0.11 -0.1,0.112 -0.06,0.1 -0.03,0.075 -0.01,0.04 0,0"
       style="fill:#8a9199;fill-opacity:1;fill-rule:nonzero;stroke:none"
       transform="matrix(0.35277776,0,0,-0.35277776,59.255901,74.20028)"
       clip-path="url(#clipPath3480)" /><path
       id="path3481"
       d="m 0,0 c -0.27,0 -0.54,0.038 -0.81,0.117 -0.26,0.079 -0.52,0.198 -0.75,0.35 -0.23,0.15 -0.43,0.333 -0.61,0.543 -0.18,0.21 -0.32,0.448 -0.43,0.7 -0.11,0.253 -0.18,0.52 -0.22,0.789 -0.03,0.269 -0.02,0.538 0.02,0.802 0.05,0.262 0.13,0.518 0.24,0.76 0.12,0.241 0.27,0.466 0.44,0.666 0.18,0.199 0.39,0.372 0.61,0.513 0.23,0.143 0.48,0.253 0.74,0.325 0.25,0.073 0.51,0.108 0.77,0.108 h 6.81 c 0.26,0 0.52,-0.036 0.78,-0.11 C 7.84,5.49 8.09,5.38 8.32,5.236 8.55,5.093 8.75,4.917 8.93,4.717 9.11,4.516 9.26,4.29 9.37,4.053 9.48,3.814 9.56,3.564 9.61,3.309 9.65,3.039 9.66,2.762 9.62,2.488 9.59,2.214 9.51,1.943 9.4,1.69 9.29,1.437 9.14,1.203 8.97,0.995 8.79,0.787 8.58,0.604 8.35,0.455 8.12,0.307 7.87,0.19 7.61,0.114 7.34,0.037 7.08,0 6.81,0 H 0"
       style="fill:none;fill-opacity:1;fill-rule:nonzero;stroke:#899099;stroke-opacity:1"
       transform="matrix(0.35277776,0,0,-0.35277776,51.071466,37.448597)"
       clip-path="url(#clipPath3482)" /><path
       id="path3483"
       d="M 0,0 C 0,0.279 -0.06,0.55 -0.16,0.801 -0.27,1.051 -0.42,1.273 -0.6,1.46 -0.79,1.646 -1.01,1.798 -1.26,1.902 -1.51,2.008 -1.78,2.063 -2.06,2.063 -2.34,2.063 -2.62,2.008 -2.87,1.902 -3.11,1.798 -3.34,1.646 -3.52,1.46 -3.71,1.273 -3.86,1.051 -3.97,0.801 -4.07,0.55 -4.13,0.279 -4.13,0 c 0,-0.278 0.06,-0.549 0.16,-0.8 0.11,-0.25 0.26,-0.472 0.45,-0.659 0.18,-0.187 0.41,-0.338 0.65,-0.442 0.25,-0.106 0.53,-0.162 0.81,-0.162 0.28,0 0.55,0.056 0.8,0.162 0.25,0.104 0.47,0.255 0.66,0.442 0.18,0.187 0.33,0.409 0.44,0.659 C -0.06,-0.549 0,-0.278 0,0"
       style="fill:none;fill-opacity:1;fill-rule:nonzero;stroke:#899099;stroke-width:0.433701;stroke-dasharray:none;stroke-opacity:1"
       transform="matrix(0.35277776,0,0,-0.35277776,53.001151,36.44812)"
       clip-path="url(#clipPath3484)" /><path
       id="path3485"
       d="m 0,0 c -9.35,0 -16.93,-7.58 -16.93,-16.932 0,-9.35 7.58,-16.931 16.93,-16.931 9.35,0 16.93,7.581 16.93,16.931 C 16.93,-7.58 9.35,0 0,0"
       style="fill:none;fill-opacity:1;fill-rule:nonzero;stroke:#899099;stroke-opacity:1"
       transform="matrix(0.35277776,0,0,-0.35277776,56.461901,60.02214)"
       clip-path="url(#clipPath3486)" /><path
       id="path3487"
       d="m 0,0 c -8.62,0 -15.61,6.988 -15.61,15.609 0,8.621 6.99,15.61 15.61,15.61 8.62,0 15.61,-6.989 15.61,-15.61 C 15.61,6.988 8.62,0 0,0"
       style="fill:none;fill-opacity:1;fill-rule:nonzero;stroke:#899099;stroke-opacity:1"
       transform="matrix(0.35277776,0,0,-0.35277776,56.461901,71.501882)"
       clip-path="url(#clipPath3488)" /><path
       id="path3489"
       d="m 0,0 c -9.351,0 -16.932,-7.581 -16.932,-16.932 0,-9.351 7.581,-16.931 16.932,-16.931 9.351,0 16.932,7.58 16.932,16.931 C 16.932,-7.581 9.351,0 0,0"
       style="fill:none;fill-opacity:1;fill-rule:nonzero;stroke:#899099;stroke-opacity:1"
       transform="matrix(0.35277776,0,0,-0.35277776,-39.599125,60.120213)"
       clip-path="url(#clipPath3490)" /><path
       id="path3491"
       d="m 0,0 c -8.621,0 -15.61,6.989 -15.61,15.61 0,8.621 6.989,15.61 15.61,15.61 8.621,0 15.61,-6.989 15.61,-15.61 C 15.61,6.989 8.621,0 0,0"
       style="fill:none;fill-opacity:1;fill-rule:nonzero;stroke:#899099;stroke-opacity:1"
       transform="matrix(0.35277776,0,0,-0.35277776,-39.599125,71.600307)"
       clip-path="url(#clipPath3492)" /><path
       id="path3493"
       d="M 0,0 C -0.272,0 -0.543,0.039 -0.808,0.118 -1.072,0.196 -1.328,0.316 -1.559,0.467 -1.79,0.618 -1.994,0.8 -2.17,1.011 c -0.176,0.21 -0.324,0.447 -0.434,0.7 -0.109,0.253 -0.18,0.52 -0.213,0.789 -0.032,0.269 -0.025,0.538 0.019,0.802 0.043,0.261 0.124,0.518 0.239,0.76 0.116,0.241 0.266,0.465 0.444,0.665 0.177,0.199 0.382,0.373 0.609,0.514 0.228,0.142 0.478,0.252 0.732,0.325 C -0.519,5.639 -0.26,5.674 0,5.674 h 6.808 c 0.263,0 0.525,-0.036 0.781,-0.11 C 7.844,5.49 8.092,5.38 8.32,5.237 8.547,5.094 8.754,4.918 8.932,4.717 9.109,4.517 9.258,4.291 9.371,4.053 9.484,3.815 9.562,3.565 9.605,3.31 9.65,3.04 9.657,2.763 9.623,2.489 9.589,2.215 9.514,1.943 9.403,1.691 9.291,1.438 9.144,1.204 8.966,0.996 8.788,0.788 8.58,0.605 8.35,0.456 8.119,0.307 7.866,0.191 7.605,0.115 7.344,0.038 7.076,0 6.808,0 H 0"
       style="fill:none;fill-opacity:1;fill-rule:nonzero;stroke:#899099;stroke-opacity:1"
       transform="matrix(0.35277776,0,0,-0.35277776,-36.729295,37.437307)"
       clip-path="url(#clipPath3494)" /><path
       id="path3495"
       d="m 0,0 h 6.354 c 1.567,0 2.837,1.27 2.837,2.837 0,1.566 -1.27,2.836 -2.837,2.836 H 0 c -1.567,0 -2.837,-1.27 -2.837,-2.836 C -2.837,1.27 -1.567,0 0,0"
       style="fill:none;fill-opacity:1;fill-rule:nonzero;stroke:#899099;stroke-opacity:1"
       transform="matrix(0.35277776,0,0,-0.35277776,-36.649206,40.883947)"
       clip-path="url(#clipPath3496)" /><path
       id="path3497"
       d="m 0,0 c 0,-0.215 0.029,-0.429 0.087,-0.637 0.057,-0.207 0.142,-0.405 0.253,-0.59 0.212,-0.352 0.512,-0.644 0.869,-0.846 0.358,-0.202 0.762,-0.309 1.174,-0.309 0.163,0 0.327,0.017 0.487,0.05 0.536,0.112 1.017,0.405 1.362,0.83 0.171,0.211 0.305,0.449 0.396,0.705 0.046,0.128 0.08,0.259 0.103,0.393 C 4.754,-0.271 4.765,-0.135 4.765,0 4.765,0.137 4.754,0.272 4.73,0.406 4.707,0.541 4.673,0.673 4.627,0.801 4.535,1.058 4.4,1.297 4.228,1.508 3.88,1.934 3.396,2.226 2.858,2.335 2.702,2.367 2.542,2.383 2.383,2.383 1.971,2.383 1.567,2.277 1.209,2.074 0.852,1.872 0.552,1.58 0.34,1.228 0.229,1.043 0.144,0.845 0.087,0.638 0.029,0.43 0,0.216 0,0"
       style="fill:none;fill-opacity:1;fill-rule:nonzero;stroke:#899099;stroke-width:0.433701;stroke-dasharray:none;stroke-opacity:1"
       transform="matrix(0.35277776,0,0,-0.35277776,-35.248316,39.88347)"
       clip-path="url(#clipPath3498)" /><path
       d="M 0.03988661,-0.05429994 4031.1623,-0.05468773 l 2e-4,1767.84098773 -4031.1224607,4e-4 z"
       id="path3513"
       style="fill:none;stroke:#899099;stroke-width:1.33333;stroke-opacity:1"
       transform="matrix(0.26458333,0,0,0.26458333,-367.16776,-90.231911)" /><path
       id="path3499"
       d="m 0,0 c 0,-8.898 -7.214,-16.112 -16.112,-16.112 -8.898,0 -16.112,7.214 -16.112,16.112 0,8.898 7.214,16.112 16.112,16.112 C -7.214,16.112 0,8.898 0,0"
       style="fill:none;fill-opacity:1;fill-rule:nonzero;stroke:#899099;stroke-opacity:1"
       transform="matrix(0.35277776,0,0,-0.35277776,-33.739504,53.877811)"
       clip-path="url(#clipPath3500)" /><path
       id="path3501"
       d="m 0,0 h -225.963 c -1.241,0 -2.248,1.006 -2.248,2.248 V 137.45 c 0,1.241 1.007,2.247 2.248,2.247 H 0 c 1.24,0 2.25,-1.006 2.25,-2.247 V 2.248 C 2.25,1.006 1.24,0 0,0"
       style="fill:none;fill-opacity:1;fill-rule:nonzero;stroke:#899099;stroke-opacity:1"
       transform="matrix(0.35277776,0,0,-0.35277776,48.17867,80.495953)"
       clip-path="url(#clipPath3502)" /><path
       id="path3503"
       d="m 0,0 -0.15,0.153 c 0,0.214 0,0.436 0,0.661 0,0.113 0,0.229 0,0.342 -0.01,0.11 -0.02,0.235 -0.05,0.341 l -0.03,0.085 -0.17,0.186 -0.24,0.06 c -0.14,0.013 -0.35,0.013 -0.48,0.013 l -0.09,0.033 -0.03,0.08 v 0.274 l 0.03,0.08 0.09,0.034 H 1.29 L 1.37,2.308 1.4,2.228 V 1.954 L 1.37,1.874 1.29,1.841 c -0.14,0 -0.35,0 -0.49,-0.013 L 0.56,1.768 0.39,1.582 0.36,1.497 C 0.33,1.391 0.32,1.266 0.32,1.156 0.31,1.043 0.31,0.927 0.31,0.814 c 0,-0.225 0,-0.447 0,-0.661 L 0.16,0 0.08,-0.035 0,0"
       style="fill:#899099;fill-opacity:1;fill-rule:nonzero;stroke:none;stroke-opacity:1"
       transform="matrix(0.35277776,0,0,-0.35277776,52.249735,36.976228)"
       clip-path="url(#clipPath3504)" /><path
       id="path3505"
       d="M 961.416,847.301 H 1167.31 V 976.242 H 961.416 Z"
       style="fill:none;fill-opacity:1;fill-rule:nonzero;stroke:#899099;stroke-opacity:1"
       transform="matrix(0.35277776,0,0,-0.35277776,-367.16776,377.50557)"
       clip-path="url(#clipPath3506)" /><path
       id="path3507"
       d="m 0,0 c -0.282,-0.282 -0.664,-0.44 -1.063,-0.44 -0.301,0 -0.594,0.089 -0.843,0.258 -0.249,0.168 -0.441,0.408 -0.553,0.687 -0.071,0.178 -0.107,0.367 -0.107,0.558 0,0.179 0.032,0.357 0.094,0.524 0.107,0.288 0.299,0.536 0.551,0.711 0.252,0.175 0.551,0.268 0.858,0.268 0.399,0 0.781,-0.158 1.063,-0.44 C 0.282,1.845 0.44,1.462 0.44,1.063 0.44,0.664 0.282,0.282 0,0 M 1.138,1.975 C 1.019,2.264 0.843,2.526 0.622,2.748 0.175,3.194 -0.431,3.445 -1.063,3.445 -1.532,3.445 -1.99,3.308 -2.381,3.048 -2.708,2.831 -2.977,2.536 -3.163,2.189 -3.255,2.017 -3.326,1.834 -3.374,1.644 -3.422,1.454 -3.446,1.259 -3.446,1.062 c 0,-0.199 0.025,-0.398 0.075,-0.592 0.05,-0.194 0.124,-0.38 0.22,-0.556 0.194,-0.351 0.474,-0.648 0.813,-0.864 0.381,-0.241 0.823,-0.369 1.275,-0.369 0.632,0 1.238,0.251 1.685,0.697 0.221,0.222 0.397,0.484 0.516,0.773 0.12,0.289 0.182,0.599 0.182,0.911 0,0.314 -0.062,0.624 -0.182,0.913"
       style="fill:none;fill-opacity:1;fill-rule:nonzero;stroke:#899099;stroke-width:0.433701;stroke-dasharray:none;stroke-opacity:1"
       transform="matrix(0.35277776,0,0,-0.35277776,-36.274212,40.25812)"
       clip-path="url(#clipPath3508)" /><path
       id="path3511"
       d="M 0,0 C -0.17,0.205 -0.36,0.396 -0.56,0.569 -0.92,0.885 -1.31,1.145 -1.74,1.351 -2.17,1.558 -2.63,1.711 -3.11,1.797 -3.6,1.883 -4.1,1.901 -4.59,1.849 -5.09,1.796 -5.58,1.671 -6.05,1.479 -6.51,1.288 -6.95,1.03 -7.35,0.703 -7.76,0.377 -8.12,-0.018 -8.41,-0.448 -8.7,-0.879 -8.93,-1.346 -9.08,-1.843 -9.23,-2.34 -9.31,-2.867 -9.31,-3.397 v -0.218 l 0.02,-0.232 0.02,-0.247 0.05,-0.261 c 0.01,-0.089 0.03,-0.181 0.05,-0.275 0.03,-0.095 0.05,-0.19 0.08,-0.288 0.12,-0.377 0.27,-0.722 0.43,-1.028 0.17,-0.306 0.36,-0.574 0.56,-0.819 0.2,-0.245 0.42,-0.466 0.68,-0.676 0.25,-0.211 0.53,-0.411 0.84,-0.58 0.31,-0.169 0.64,-0.309 0.97,-0.413 0.33,-0.102 0.66,-0.17 0.97,-0.206 0.31,-0.036 0.6,-0.042 0.88,-0.027 0.27,0.015 0.53,0.048 0.77,0.097 0.24,0.049 0.46,0.111 0.67,0.184 0.21,0.073 0.41,0.155 0.59,0.243 0.18,0.088 0.35,0.182 0.5,0.28 0.16,0.096 0.3,0.197 0.43,0.298 0.13,0.101 0.25,0.204 0.36,0.306 0.11,0.103 0.21,0.205 0.3,0.307 0.1,0.101 0.18,0.202 0.26,0.301 0.07,0.098 0.14,0.195 0.21,0.29 0.06,0.093 0.12,0.186 0.17,0.276 l 0.15,0.262 0.12,0.247 0.1,0.233 0.08,0.22 0.07,0.209 c 0.05,0.182 0.09,0.359 0.13,0.533 0.03,0.173 0.05,0.342 0.07,0.506 0.01,0.164 0.02,0.323 0.02,0.478 0,1.243 -0.44,2.446 -1.24,3.398"
       style="fill:none;fill-opacity:1;fill-rule:nonzero;stroke:#899099;stroke-opacity:1"
       transform="matrix(0.35277776,0,0,-0.35277776,63.566837,44.711232)"
       clip-path="url(#clipPath3512)" /><g
       id="g3523"
       clip-path="url(#clipPath3523)"
       transform="matrix(0.26458333,0,0,0.26458333,-367.16776,-90.23191)"
       style="fill:none;stroke:#899099;stroke-opacity:1"><g
         clip-path="url(#clipPath3521)"
         id="g3522"
         style="fill:none;stroke:#899099;stroke-opacity:1"><path
           d="m 0,0 c 0,-6.483 -5.255,-11.738 -11.738,-11.738 -6.483,0 -11.738,5.255 -11.738,11.738 0,6.482 5.255,11.737 11.738,11.737 C -5.255,11.737 0,6.482 0,0"
           style="fill:none;fill-opacity:1;fill-rule:nonzero;stroke:#899099;stroke-opacity:1"
           transform="matrix(1.3333333,0,0,-1.3333333,1234.38,502.92267)"
           clip-path="url(#clipPath3520)"
           id="path3522" /></g></g><path
       id="path3524"
       d="m 0,0 c 0,-5.426 -4.398,-9.824 -9.824,-9.824 -5.426,0 -9.824,4.398 -9.824,9.824 0,5.425 4.398,9.823 9.824,9.823 C -4.398,9.823 0,5.425 0,0"
       style="fill:none;fill-opacity:1;fill-rule:nonzero;stroke:#899099;stroke-opacity:1"
       transform="matrix(0.35277776,0,0,-0.35277776,-41.246606,42.833045)"
       clip-path="url(#clipPath3525)" /><path
       id="path3526"
       d="m 0,0 h 0.125 c 0,-3.781 -3.065,-6.847 -6.846,-6.847 -3.781,0 -6.846,3.066 -6.846,6.847 0,3.78 3.065,6.846 6.846,6.846 C -2.94,6.846 0.125,3.78 0.125,0 h -0.25 c 0,1.821 -0.738,3.47 -1.932,4.664 -1.194,1.194 -2.842,1.932 -4.664,1.932 -1.822,0 -3.47,-0.738 -4.664,-1.932 C -12.579,3.47 -13.317,1.821 -13.317,0 c 0,-1.822 0.738,-3.47 1.932,-4.665 1.194,-1.194 2.842,-1.932 4.664,-1.932 1.822,0 3.47,0.738 4.664,1.932 1.194,1.195 1.932,2.843 1.932,4.665 L 0,0"
       style="fill:none;fill-opacity:1;fill-rule:nonzero;stroke:#899099;stroke-opacity:1"
       transform="matrix(0.35277776,0,0,-0.35277776,-42.341266,42.833045)"
       clip-path="url(#clipPath3527)" /><path
       id="path3550"
       d="M 0,0 -0.134,0.056 -0.189,0.189 -0.134,0.323 0,0.379 H 2.788 L 2.922,0.323 2.977,0.189 2.922,0.056 2.788,0 H 0"
       style="fill:#8a9199;fill-opacity:1;fill-rule:nonzero;stroke:none"
       transform="matrix(0.35277776,0,0,-0.35277776,-36.551839,74.457103)"
       clip-path="url(#clipPath3551)" /><path
       id="path3552"
       d="M 0,0 -0.134,0.055 -0.189,0.188 -0.134,0.322 0,0.378 H 2.788 L 2.922,0.322 2.977,0.188 2.922,0.055 2.788,0 H 0"
       style="fill:#8a9199;fill-opacity:1;fill-rule:nonzero;stroke:none"
       transform="matrix(0.35277776,0,0,-0.35277776,-36.551839,74.812703)"
       clip-path="url(#clipPath3553)" /><path
       id="path3554"
       d="M 0,0 H 2.788 L 2.922,-0.056 2.977,-0.188 2.941,-0.3 2.922,-0.322 2.807,-0.377 2.788,-0.378 H 0 l -0.134,0.056 -0.007,0.007 -0.048,0.127 0.055,0.132 L 0,0"
       style="fill:#8a9199;fill-opacity:1;fill-rule:nonzero;stroke:none"
       transform="matrix(0.35277776,0,0,-0.35277776,-36.551839,75.034953)"
       clip-path="url(#clipPath3555)" /><path
       id="path3556"
       d="m 0,0 c -0.095,0 -0.193,-0.04 -0.26,-0.107 -0.067,-0.068 -0.108,-0.164 -0.108,-0.261 v -1.481 l 0.056,-0.133 0.06,-0.04 0.073,-0.015 0.074,0.015 0.06,0.04 0.055,0.133 v 1.408 l 0.019,0.045 0.044,0.018 h 2.364 l 0.134,0.055 0.04,0.06 0.015,0.074 -0.015,0.074 -0.04,0.059 L 2.437,0"
       style="fill:#8a9199;fill-opacity:1;fill-rule:nonzero;stroke:none"
       transform="matrix(0.35277776,0,0,-0.35277776,-40.633116,74.213331)"
       clip-path="url(#clipPath3557)" /><path
       id="path3558"
       d="M 0,0 -0.018,-0.044 -0.063,-0.062 H -2.364 L -2.408,-0.044 -2.427,0 v 1.345 l 0.019,0.044 0.044,0.018 h 2.301 L -0.018,1.389 0,1.345 Z M 0.271,1.678 C 0.203,1.745 0.105,1.785 0.01,1.785 h -2.447 c -0.095,0 -0.193,-0.04 -0.26,-0.107 -0.067,-0.067 -0.108,-0.164 -0.108,-0.26 v -1.491 l 0.016,-0.106 0.092,-0.154 c 0.068,-0.068 0.166,-0.108 0.26,-0.108 H 0.01 c 0.096,0 0.193,0.041 0.261,0.108 l 0.101,0.195 0.006,0.065 v 1.491 c 0,0.096 -0.04,0.192 -0.107,0.26"
       style="fill:#8a9199;fill-opacity:1;fill-rule:nonzero;stroke:none"
       transform="matrix(0.35277776,0,0,-0.35277776,-39.494006,75.122794)"
       clip-path="url(#clipPath3559)" /><path
       id="path3560"
       d="m 0,0 -2.43,-2.434 -0.11,0.046 v 0.26 l 0.06,0.156 2.21,2.214 c 0.07,0.066 0.16,0.103 0.25,0.103 H 0.89 L 0.77,0.453 H -0.95 L -1.13,0.376 -2.84,-1.334 H -3.16 L -4.88,0.389 -5.04,0.453 H -6.77 L -6.89,0.345 h 0.91 c 0.09,0 0.18,-0.037 0.25,-0.103 l 2.21,-2.214 0.07,-0.156 v -0.26 L -3.57,-2.434 -6,0 c -0.08,0.085 -0.2,0.133 -0.32,0.133 h -0.57 v -2.126 l 0.03,-0.078 0.47,-0.466 0.07,-0.03 h 1.43 l -1.29,1.288 0.46,-0.761 c 0.07,-0.111 -0.01,-0.254 -0.14,-0.254 h -0.19 c -0.25,0 -0.44,0.198 -0.44,0.443 v 1.208 l 0.14,0.059 1.85,-1.854 c 0.08,-0.083 0.19,-0.129 0.31,-0.129 h 2.38 c 0.12,0 0.23,0.046 0.31,0.129 l 1.86,1.854 0.14,-0.059 v -1.208 c 0,-0.245 -0.2,-0.443 -0.45,-0.443 h -0.19 c -0.13,0 -0.21,0.143 -0.14,0.254 l 0.46,0.761 -1.29,-1.288 h 1.43 l 0.07,0.03 0.47,0.466 0.03,0.078 V 0.133 H 0.32 C 0.2,0.133 0.08,0.085 0,0"
       style="fill:#8a9199;fill-opacity:1;fill-rule:nonzero;stroke:none"
       transform="matrix(0.35277776,0,0,-0.35277776,54.962587,74.367144)"
       clip-path="url(#clipPath3561)" /><path
       id="path3596"
       d="M 0,0 V 2.087 C -0.08,2.212 -0.17,2.338 -0.25,2.463 -0.32,2.565 -0.39,2.669 -0.46,2.771 -0.53,2.874 -0.6,2.978 -0.66,3.08 -0.8,3.285 -0.94,3.492 -1.08,3.697 -1.35,4.101 -1.63,4.526 -1.9,4.927 h 0.79 C -0.95,4.682 -0.78,4.431 -0.62,4.185 -0.46,3.938 -0.3,3.688 -0.13,3.44 -0.06,3.318 0.02,3.193 0.1,3.068 L 0.21,2.88 0.32,2.689 0.37,2.607 C 0.45,2.755 0.54,2.902 0.63,3.047 0.72,3.191 0.81,3.336 0.9,3.478 1.22,3.954 1.55,4.456 1.86,4.927 H 2.62 C 2.34,4.531 2.05,4.104 1.77,3.701 1.63,3.496 1.48,3.289 1.34,3.083 1.27,2.979 1.2,2.876 1.13,2.773 L 0.91,2.463 C 0.83,2.338 0.74,2.212 0.65,2.087 V 0 H 0"
       style="fill:#899099;fill-opacity:1;fill-rule:nonzero;stroke:none;stroke-opacity:1"
       transform="matrix(0.35277776,0,0,-0.35277776,61.965235,39.120411)"
       clip-path="url(#clipPath3597)" /><path
       id="path3598"
       d="M 0,0 C 0.07,0.097 0.14,0.194 0.22,0.291 0.29,0.389 0.36,0.485 0.43,0.583 0.58,0.776 0.72,0.972 0.87,1.165 1.15,1.546 1.45,1.946 1.73,2.322 H 1.02 C 0.86,2.106 0.69,1.887 0.53,1.67 0.36,1.452 0.2,1.232 0.03,1.015 -0.11,0.835 -0.24,0.646 -0.36,0.453 l -0.12,0.193 c -0.08,0.135 -0.18,0.282 -0.28,0.413 -0.14,0.21 -0.3,0.422 -0.44,0.632 -0.15,0.21 -0.3,0.422 -0.45,0.631 H -2.43 C -2.15,1.939 -1.87,1.533 -1.59,1.146 -1.45,0.949 -1.31,0.751 -1.17,0.555 -1.1,0.456 -1.03,0.357 -0.96,0.259 l 0.11,-0.149 0.1,-0.147 -0.07,-0.105 -0.12,-0.154 -0.11,-0.154 c -0.08,-0.104 -0.16,-0.206 -0.23,-0.31 -0.16,-0.205 -0.31,-0.412 -0.46,-0.617 -0.3,-0.403 -0.62,-0.83 -0.91,-1.227 h 0.78 c 0.21,0.282 0.41,0.572 0.62,0.856 0.2,0.285 0.41,0.575 0.62,0.86 l 0.15,0.242 0.08,0.128 c 0.07,-0.111 0.15,-0.221 0.22,-0.329 0.1,-0.147 0.21,-0.295 0.31,-0.441 0.1,-0.147 0.21,-0.294 0.31,-0.44 0.2,-0.291 0.42,-0.588 0.62,-0.876 H 1.87 C 1.58,-2.208 1.27,-1.781 0.99,-1.378 0.84,-1.173 0.69,-0.966 0.54,-0.76 0.47,-0.657 0.4,-0.554 0.32,-0.451 0.25,-0.348 0.17,-0.244 0.1,-0.142"
       style="fill:#899099;fill-opacity:1;fill-rule:nonzero;stroke:none;stroke-opacity:1"
       transform="matrix(0.35277776,0,0,-0.35277776,58.430401,41.95992)"
       clip-path="url(#clipPath3599)" /><path
       id="path3600"
       d="M 0,0 C -0.06,-0.111 -0.14,-0.207 -0.25,-0.273 -0.36,-0.345 -0.5,-0.385 -0.62,-0.408 L -0.86,-0.429 -1.07,-0.432 H -2.3 v 1.694 h 1.14 L -1,1.26 -0.85,1.251 -0.64,1.228 -0.44,1.18 -0.22,1.07 -0.04,0.894 0.01,0.805 C 0.07,0.685 0.1,0.554 0.1,0.415 0.1,0.271 0.07,0.129 0,0 m -2.3,2.588 v 0.744 h 0.99 c 0.14,0 0.31,-0.004 0.45,-0.017 0.09,-0.008 0.21,-0.024 0.3,-0.052 0.14,-0.044 0.25,-0.127 0.33,-0.255 L -0.19,2.949 C -0.13,2.833 -0.11,2.707 -0.11,2.576 L -0.14,2.351 -0.23,2.146 -0.4,1.992 -0.46,1.96 -0.61,1.9 -0.85,1.858 C -0.97,1.847 -1.11,1.844 -1.23,1.844 H -2.3 Z M 0.53,1.161 C 0.44,1.278 0.33,1.374 0.21,1.45 0.1,1.52 -0.03,1.57 -0.16,1.608 -0.05,1.659 0.05,1.721 0.14,1.796 0.22,1.871 0.3,1.958 0.36,2.059 0.47,2.24 0.53,2.438 0.53,2.653 0.53,2.889 0.46,3.104 0.34,3.304 0.21,3.514 0.03,3.666 -0.19,3.764 -0.4,3.855 -0.65,3.893 -0.87,3.906 L -1.1,3.913 h -1.85 v -4.927 h 1.88 l 0.2,0.005 c 0.2,0.008 0.4,0.03 0.6,0.078 0.19,0.048 0.38,0.124 0.53,0.244 0.16,0.119 0.28,0.282 0.37,0.458 0.1,0.204 0.14,0.418 0.14,0.644 0,0.275 -0.07,0.527 -0.24,0.746"
       style="fill:#899099;fill-opacity:1;fill-rule:nonzero;stroke:none;stroke-opacity:1"
       transform="matrix(0.35277776,0,0,-0.35277776,66.484318,42.613263)"
       clip-path="url(#clipPath3601)" /><path
       id="path3602"
       d="m 0,0 h -1.28 c 0.05,0.146 0.11,0.293 0.16,0.44 0.06,0.167 0.13,0.335 0.19,0.502 0.06,0.167 0.13,0.335 0.19,0.503 0.11,0.307 0.2,0.62 0.26,0.941 C -0.45,2.294 -0.42,2.2 -0.39,2.109 -0.31,1.863 -0.22,1.606 -0.13,1.364 -0.07,1.21 -0.01,1.056 0.05,0.902 0.11,0.748 0.16,0.594 0.22,0.44 0.28,0.293 0.33,0.146 0.39,0 Z M 1.4,-0.797 C 1.32,-0.592 1.24,-0.385 1.15,-0.179 1.07,0.026 0.98,0.234 0.9,0.44 0.73,0.845 0.56,1.267 0.39,1.672 0.23,2.079 0.06,2.497 -0.11,2.903 h -0.7 C -0.97,2.498 -1.13,2.081 -1.28,1.674 -1.44,1.268 -1.6,0.847 -1.76,0.44 -1.84,0.234 -1.92,0.027 -2,-0.178 -2.07,-0.383 -2.15,-0.59 -2.23,-0.795 -2.39,-1.2 -2.55,-1.623 -2.7,-2.023 h 0.69 c 0.09,0.246 0.18,0.497 0.27,0.745 0.09,0.248 0.18,0.498 0.27,0.747 h 2.06 c 0.1,-0.249 0.19,-0.5 0.29,-0.748 0.09,-0.248 0.19,-0.498 0.28,-0.744 H 1.91 C 1.74,-1.625 1.57,-1.202 1.4,-0.797"
       style="fill:#899099;fill-opacity:1;fill-rule:nonzero;stroke:none;stroke-opacity:1"
       transform="matrix(0.35277776,0,0,-0.35277776,62.282735,46.065195)"
       clip-path="url(#clipPath3603)" /><path
       id="path3604"
       d="M 0,0 C -0.01,-0.093 -0.01,-0.185 -0.02,-0.276 L -0.05,-0.527 -0.09,-0.754 -0.14,-0.955 C -0.18,-1.128 -0.23,-1.308 -0.29,-1.49 -0.35,-1.674 -0.43,-1.86 -0.52,-2.052 -0.61,-2.243 -0.72,-2.44 -0.84,-2.64 -0.97,-2.84 -1.12,-3.043 -1.29,-3.247 -1.46,-3.45 -1.66,-3.654 -1.88,-3.849 -2.1,-4.043 -2.35,-4.228 -2.62,-4.394 c -0.27,-0.165 -0.56,-0.31 -0.87,-0.429 -0.3,-0.12 -0.62,-0.213 -0.96,-0.279 -0.33,-0.065 -0.69,-0.103 -1.07,-0.1 -0.38,0.003 -0.8,0.046 -1.2,0.138 -0.4,0.091 -0.8,0.231 -1.15,0.4 -0.35,0.169 -0.67,0.366 -0.94,0.573 -0.28,0.207 -0.51,0.424 -0.72,0.65 -0.21,0.225 -0.39,0.459 -0.56,0.712 -0.17,0.253 -0.32,0.525 -0.45,0.83 -0.13,0.304 -0.25,0.641 -0.33,1.003 -0.02,0.094 -0.04,0.188 -0.05,0.283 l -0.04,0.26 -0.02,0.24 -0.01,0.217 -0.01,0.197 c 0,0.55 0.09,1.1 0.25,1.626 0.16,0.529 0.4,1.032 0.72,1.488 0.31,0.455 0.69,0.863 1.12,1.205 0.44,0.343 0.93,0.619 1.44,0.817 0.52,0.198 1.06,0.318 1.61,0.354 0.51,0.035 1.03,-0.003 1.53,-0.113 0.45,-0.097 0.89,-0.25 1.29,-0.454 C -2.68,5.043 -2.33,4.823 -2.02,4.569 -1.75,4.345 -1.49,4.094 -1.26,3.82 -1.06,3.575 -0.88,3.313 -0.72,3.036 -0.57,2.778 -0.45,2.508 -0.34,2.229 -0.23,1.938 -0.15,1.64 -0.09,1.335 -0.03,0.994 0.01,0.647 0.01,0.301 0.01,0.2 0.01,0.1 0,0 M 0.52,1.083 C 0.45,1.645 0.3,2.208 0.06,2.741 -0.17,3.273 -0.48,3.775 -0.86,4.222 -1.24,4.668 -1.68,5.059 -2.17,5.378 -2.66,5.698 -3.19,5.947 -3.75,6.115 -4.31,6.282 -4.89,6.369 -5.48,6.371 -6.06,6.373 -6.64,6.29 -7.2,6.127 -7.76,5.963 -8.3,5.718 -8.79,5.402 -9.28,5.086 -9.72,4.699 -10.1,4.257 c -0.38,-0.443 -0.7,-0.941 -0.93,-1.47 -0.24,-0.53 -0.4,-1.092 -0.48,-1.642 -0.08,-0.551 -0.08,-1.092 0,-1.64 l 0.01,-0.11 0.02,-0.111 0.02,-0.109 c 0.09,-0.5 0.25,-0.987 0.48,-1.475 0.23,-0.487 0.55,-0.974 0.92,-1.402 0.37,-0.428 0.8,-0.796 1.28,-1.1 0.47,-0.303 0.98,-0.543 1.52,-0.707 0.54,-0.163 1.1,-0.252 1.67,-0.26 0.57,-0.008 1.13,0.062 1.68,0.21 0.55,0.148 1.07,0.373 1.56,0.666 0.48,0.292 0.92,0.651 1.3,1.065 0.39,0.414 0.71,0.882 0.97,1.378 0.25,0.495 0.43,1.017 0.54,1.585 l 0.02,0.084 0.01,0.086 0.02,0.088 c 0.08,0.568 0.09,1.128 0.01,1.69"
       style="fill:#8a9199;fill-opacity:1;fill-rule:nonzero;stroke:none"
       transform="matrix(0.35277776,0,0,-0.35277776,55.841004,74.845863)"
       clip-path="url(#clipPath3605)" /><path
       id="path3606"
       d="M 0,0 C -0.01,-0.12 -0.03,-0.237 -0.06,-0.356 -0.09,-0.477 -0.12,-0.599 -0.17,-0.725 -0.21,-0.852 -0.27,-0.98 -0.34,-1.111 L -0.48,-1.369 C -0.54,-1.457 -0.6,-1.546 -0.67,-1.636 L -0.91,-1.904 C -1,-1.994 -1.09,-2.082 -1.2,-2.167 c -0.11,-0.085 -0.22,-0.168 -0.35,-0.244 -0.13,-0.076 -0.27,-0.148 -0.42,-0.21 -0.15,-0.063 -0.31,-0.117 -0.49,-0.16 -0.17,-0.042 -0.36,-0.073 -0.57,-0.084 -0.2,-0.012 -0.41,-0.005 -0.62,0.024 -0.21,0.028 -0.42,0.079 -0.62,0.149 -0.21,0.07 -0.4,0.16 -0.57,0.261 -0.18,0.102 -0.34,0.215 -0.49,0.346 -0.15,0.13 -0.29,0.279 -0.43,0.454 -0.14,0.175 -0.26,0.376 -0.37,0.602 -0.07,0.138 -0.13,0.284 -0.17,0.429 -0.05,0.147 -0.08,0.292 -0.11,0.452 -0.02,0.159 -0.04,0.332 -0.04,0.511 0,0.34 0.06,0.68 0.16,0.999 0.1,0.321 0.26,0.621 0.45,0.894 0.2,0.272 0.44,0.516 0.72,0.718 0.27,0.2 0.58,0.357 0.9,0.464 0.33,0.105 0.67,0.16 1.02,0.159 0.34,-10e-4 0.68,-0.059 1,-0.162 0.31,-0.104 0.6,-0.252 0.84,-0.423 0.25,-0.171 0.45,-0.363 0.62,-0.561 0.16,-0.198 0.29,-0.401 0.4,-0.612 0.11,-0.211 0.2,-0.428 0.26,-0.673 C -0.02,0.921 0.02,0.648 0.02,0.363 0.02,0.241 0.01,0.119 0,0 M 0.38,1.591 C 0.26,1.949 0.08,2.307 -0.17,2.639 -0.42,2.97 -0.73,3.275 -1.09,3.517 -1.45,3.759 -1.85,3.938 -2.27,4.044 -2.68,4.151 -3.12,4.187 -3.54,4.15 -3.96,4.113 -4.38,4.006 -4.76,3.833 -5.15,3.66 -5.51,3.423 -5.81,3.135 -6.12,2.848 -6.38,2.509 -6.58,2.138 -6.77,1.766 -6.9,1.36 -6.97,0.952 -7.03,0.543 -7.03,0.131 -6.96,-0.295 l 0.04,-0.183 0.04,-0.178 0.06,-0.176 c 0.14,-0.392 0.32,-0.745 0.55,-1.06 0.23,-0.314 0.5,-0.587 0.82,-0.821 0.33,-0.232 0.7,-0.425 1.09,-0.55 0.4,-0.125 0.82,-0.182 1.22,-0.175 0.41,0.009 0.8,0.084 1.17,0.208 0.36,0.125 0.69,0.297 0.99,0.52 0.31,0.223 0.58,0.495 0.81,0.798 0.23,0.302 0.41,0.636 0.54,1.017 l 0.04,0.102 0.03,0.102 0.03,0.102 C 0.56,-0.221 0.6,0.146 0.58,0.509 0.57,0.872 0.51,1.232 0.38,1.591"
       style="fill:#8a9199;fill-opacity:1;fill-rule:nonzero;stroke:none"
       transform="matrix(0.35277776,0,0,-0.35277776,59.98967,74.855388)"
       clip-path="url(#clipPath3607)" /><path
       id="path3608"
       d="m 0,0 c 0,-8.05 -6.526,-14.576 -14.576,-14.576 -8.05,0 -14.577,6.526 -14.577,14.576 0,8.05 6.527,14.576 14.577,14.576 C -6.526,14.576 0,8.05 0,0"
       style="fill:none;fill-opacity:1;fill-rule:nonzero;stroke:#899099;stroke-opacity:1"
       transform="matrix(0.35277776,0,0,-0.35277776,-34.28137,53.877811)"
       clip-path="url(#clipPath3609)" /><path
       id="path3610"
       d="m 0,0 v -2.821 c 0,-0.153 -0.123,-0.276 -0.276,-0.276 -0.152,0 -0.276,0.123 -0.276,0.276 V 0 c 0,0.152 0.124,0.276 0.276,0.276 C -0.123,0.276 0,0.152 0,0"
       style="fill:#8a9199;fill-opacity:1;fill-rule:nonzero;stroke:none"
       transform="matrix(0.35277776,0,0,-0.35277776,-39.323614,50.219505)"
       clip-path="url(#clipPath3611)" /><path
       id="path3612"
       d="m 0,0 v -2.821 c 0,-0.153 -0.123,-0.276 -0.276,-0.276 -0.152,0 -0.276,0.123 -0.276,0.276 V 0 c 0,0.152 0.124,0.276 0.276,0.276 C -0.123,0.276 0,0.152 0,0"
       style="fill:#8a9199;fill-opacity:1;fill-rule:nonzero;stroke:none"
       transform="matrix(0.35277776,0,0,-0.35277776,-39.323614,56.550103)"
       clip-path="url(#clipPath3613)" /><path
       id="path3614"
       d="m 0,0 h -2.821 c -0.153,0 -0.276,0.123 -0.276,0.275 0,0.153 0.123,0.276 0.276,0.276 H 0 C 0.152,0.551 0.276,0.428 0.276,0.275 0.276,0.123 0.152,0 0,0"
       style="fill:#8a9199;fill-opacity:1;fill-rule:nonzero;stroke:none"
       transform="matrix(0.35277776,0,0,-0.35277776,-35.757745,53.979411)"
       clip-path="url(#clipPath3615)" /><path
       id="path3616"
       d="m 0,0 h -2.821 c -0.153,0 -0.276,0.123 -0.276,0.275 0,0.153 0.123,0.276 0.276,0.276 H 0 C 0.152,0.551 0.276,0.428 0.276,0.275 0.276,0.123 0.152,0 0,0"
       style="fill:#8a9199;fill-opacity:1;fill-rule:nonzero;stroke:none"
       transform="matrix(0.35277776,0,0,-0.35277776,-42.088325,53.979411)"
       clip-path="url(#clipPath3617)" /><path
       id="path3618"
       d="M 0,0 C -0.037,-0.302 -0.118,-0.599 -0.24,-0.877 -0.361,-1.152 -0.514,-1.393 -0.682,-1.599 -0.85,-1.804 -1.033,-1.974 -1.217,-2.113 -1.401,-2.252 -1.587,-2.361 -1.778,-2.45 -1.97,-2.54 -2.167,-2.61 -2.386,-2.661 -2.605,-2.712 -2.846,-2.743 -3.097,-2.743 h -0.967 c -4.759,0 -9.517,0 -14.276,0 h -0.642 c -0.221,0 -0.433,0.023 -0.629,0.064 -0.196,0.04 -0.378,0.097 -0.547,0.165 -0.169,0.07 -0.325,0.15 -0.471,0.241 -0.147,0.09 -0.284,0.192 -0.416,0.309 -0.133,0.117 -0.26,0.249 -0.382,0.402 -0.12,0.152 -0.234,0.325 -0.333,0.516 -0.14,0.275 -0.241,0.571 -0.295,0.882 -0.055,0.31 -0.062,0.634 -0.021,0.949 0.042,0.317 0.132,0.624 0.265,0.908 0.133,0.286 0.308,0.545 0.503,0.765 0.195,0.22 0.411,0.397 0.641,0.546 0.23,0.148 0.476,0.266 0.757,0.352 0.28,0.086 0.596,0.141 0.928,0.141 h 1.635 c 4.527,0 9.055,0 13.582,0 h 0.668 c 0.308,0 0.617,-0.046 0.911,-0.136 C -1.896,3.273 -1.62,3.143 -1.368,2.975 -1.114,2.806 -0.885,2.599 -0.691,2.364 -0.502,2.135 -0.346,1.878 -0.229,1.605 -0.121,1.353 -0.046,1.086 -0.008,0.814 0.03,0.545 0.033,0.271 0,0 M 0.624,0.792 C 0.583,1.147 0.49,1.508 0.347,1.846 0.204,2.183 0.011,2.497 -0.223,2.777 c -0.234,0.281 -0.51,0.527 -0.815,0.727 -0.305,0.201 -0.64,0.356 -0.985,0.46 -0.346,0.104 -0.702,0.157 -1.074,0.157 -1.967,-0.001 -3.839,0 -5.658,0 -1.818,10e-4 -3.584,10e-4 -5.3,10e-4 -1.717,0 -3.386,0 -4.927,-10e-4 -0.379,0 -0.741,-0.054 -1.098,-0.164 -0.356,-0.11 -0.706,-0.276 -1.024,-0.494 -0.316,-0.218 -0.6,-0.486 -0.834,-0.787 -0.235,-0.302 -0.42,-0.636 -0.551,-0.985 -0.13,-0.348 -0.207,-0.713 -0.23,-1.079 -0.024,-0.366 0.006,-0.732 0.094,-1.104 l 0.031,-0.12 0.035,-0.118 0.038,-0.117 c 0.077,-0.231 0.181,-0.458 0.316,-0.684 0.136,-0.227 0.303,-0.454 0.507,-0.668 0.202,-0.215 0.441,-0.418 0.721,-0.593 0.28,-0.175 0.601,-0.322 0.936,-0.423 0.335,-0.099 0.685,-0.152 1.059,-0.152 0.739,-10e-4 1.443,-10e-4 2.108,-10e-4 0.666,0 1.292,0 1.889,10e-4 h 6.186 c 0.474,0 0.948,0 1.423,10e-4 h 1.425 c 0.475,10e-4 0.951,10e-4 1.427,0 0.475,0 0.95,0 1.427,-10e-4 0.405,0 0.789,0.062 1.161,0.184 0.371,0.122 0.73,0.304 1.051,0.539 0.32,0.235 0.602,0.522 0.831,0.84 0.23,0.319 0.406,0.669 0.528,1.057 l 0.045,0.152 0.038,0.158 0.033,0.165 c 0.063,0.357 0.075,0.708 0.034,1.064"
       style="fill:#8a9199;fill-opacity:1;fill-rule:nonzero;stroke:none"
       transform="matrix(0.35277776,0,0,-0.35277776,-34.222104,74.879023)"
       clip-path="url(#clipPath3619)" /><path
       id="path3509"
       d="m 0,0 c 0,0.278 -0.056,0.55 -0.162,0.801 -0.105,0.249 -0.256,0.471 -0.442,0.658 -0.187,0.187 -0.41,0.338 -0.658,0.442 -0.251,0.107 -0.521,0.162 -0.802,0.162 -0.28,0 -0.551,-0.055 -0.801,-0.162 C -3.113,1.797 -3.336,1.646 -3.523,1.459 -3.709,1.272 -3.861,1.05 -3.966,0.801 -4.071,0.55 -4.127,0.278 -4.127,0 c 0,-0.278 0.056,-0.55 0.161,-0.801 0.105,-0.249 0.257,-0.471 0.443,-0.658 0.187,-0.187 0.41,-0.338 0.658,-0.442 0.25,-0.106 0.521,-0.162 0.801,-0.162 0.281,0 0.551,0.056 0.802,0.162 0.248,0.104 0.471,0.255 0.658,0.442 0.186,0.187 0.337,0.409 0.442,0.658 C -0.056,-0.55 0,-0.278 0,0"
       style="fill:none;fill-opacity:1;fill-rule:nonzero;stroke:#899099;stroke-width:0.433701;stroke-dasharray:none;stroke-opacity:1"
       transform="matrix(0.35277776,0,0,-0.35277776,-34.800298,36.436478)"
       clip-path="none" /><path
       id="path3620"
       d="m 0,0 -0.089,-0.215 c -0.677,-0.425 -0.683,0.853 0,0.431 L 0,0"
       style="fill:#899099;fill-opacity:1;fill-rule:nonzero;stroke:none;stroke-opacity:1"
       transform="matrix(0.35277776,0,0,-0.35277776,-35.86887,36.436478)"
       clip-path="url(#clipPath3621)" /><path
       id="path3622"
       d="m 0,0 0.089,0.216 c 0.683,0.421 0.677,-0.855 0,-0.431 L 0,0"
       style="fill:#899099;fill-opacity:1;fill-rule:nonzero;stroke:none;stroke-opacity:1"
       transform="matrix(0.35277776,0,0,-0.35277776,-35.187991,36.436478)"
       clip-path="url(#clipPath3623)" /><path
       id="path3624"
       d="m 0,0 c 0,-0.145 -0.057,-0.283 -0.159,-0.385 l -0.177,-0.118 -0.208,-0.041 -0.209,0.041 -0.176,0.118 c -0.102,0.102 -0.159,0.24 -0.159,0.385 0,0.145 0.057,0.283 0.159,0.385 l 0.176,0.118 0.209,0.041 0.208,-0.041 0.177,-0.118 C -0.057,0.283 0,0.145 0,0"
       style="fill:#899099;fill-opacity:1;fill-rule:nonzero;stroke:none;stroke-opacity:1"
       transform="matrix(0.35277776,0,0,-0.35277776,-35.336529,36.436478)"
       clip-path="url(#clipPath3625)" /><path
       id="path3626"
       d="m 0,0 c 0,-6.483 -5.26,-11.738 -11.74,-11.738 -6.48,0 -11.74,5.255 -11.74,11.738 0,6.482 5.26,11.737 11.74,11.737 C -5.26,11.737 0,6.482 0,0"
       style="fill:none;fill-opacity:1;fill-rule:nonzero;stroke:#899099;stroke-opacity:1"
       transform="matrix(0.35277776,0,0,-0.35277776,60.480049,53.047372)"
       clip-path="url(#clipPath3627)" /><path
       id="path3628"
       d="m 0,0 c 0,-5.426 -4.4,-9.824 -9.82,-9.824 -5.43,0 -9.83,4.398 -9.83,9.824 0,5.425 4.4,9.823 9.83,9.823 C -4.4,9.823 0,5.425 0,0"
       style="fill:none;fill-opacity:1;fill-rule:nonzero;stroke:#899099;stroke-opacity:1"
       transform="matrix(0.35277776,0,0,-0.35277776,59.806235,53.047372)"
       clip-path="url(#clipPath3629)" /><path
       id="path3630"
       d="m 0,0 h 0.12 c 0,-3.781 -3.06,-6.847 -6.84,-6.847 -3.78,0 -6.85,3.066 -6.85,6.847 0,3.78 3.07,6.846 6.85,6.846 3.78,0 6.84,-3.066 6.84,-6.846 h -0.25 c 0,1.821 -0.73,3.47 -1.93,4.664 -1.19,1.194 -2.84,1.932 -4.66,1.932 -1.82,0 -3.47,-0.738 -4.67,-1.932 C -12.58,3.47 -13.32,1.821 -13.32,0 c 0,-1.822 0.74,-3.47 1.93,-4.665 1.2,-1.194 2.85,-1.932 4.67,-1.932 1.82,0 3.47,0.738 4.66,1.932 1.2,1.195 1.93,2.843 1.93,4.665 L 0,0"
       style="fill:none;fill-opacity:1;fill-rule:nonzero;stroke:#899099;stroke-opacity:1"
       transform="matrix(0.35277776,0,0,-0.35277776,58.709087,53.047372)"
       clip-path="url(#clipPath3631)" /></g></svg>
