<?xml version="1.0" encoding="UTF-8" standalone="no"?>
<svg
   width="32"
   height="32"
   viewBox="0 0 32 32"
   fill="none"
   version="1.1"
   id="svg3"
   xml:space="preserve"
   xmlns="http://www.w3.org/2000/svg"
   xmlns:svg="http://www.w3.org/2000/svg"><defs
     id="defs3" /><path
     d="M 0,2 C 0,0.895431 0.895431,0 2,0 h 28 c 1.1046,0 2,0.895431 2,2 v 28 c 0,1.1046 -0.8954,2 -2,2 H 2 C 0.895431,32 0,31.1046 0,30 Z"
     fill="#ffffff"
     id="path1" /><g
     id="g3"><path
       d="M 15.1853,22 H 7.66528 V 10.8 h 2.35202 v 9.088 h 5.168 z"
       fill="#0e141b"
       id="path2" /><path
       fill="currentColor"
       d="m 24.644311,18.98462 1.1077,1.61538 q -0.64616,0.63077 -1.66923,1.01538 Q 23.059701,22 21.859701,22 q -1.06154,0 -1.99231,-0.36154 -0.93077,-0.36154 -1.66154,-1.04615 -0.73077,-0.68462 -1.16154,-1.77693 -0.43076,-1.0923 -0.43076,-2.46153 -0.0154,-1.36923 0.4,-2.43847 0.41538,-1.06923 1.15384,-1.73846 0.73846,-0.66923 1.70769,-1.02307 0.96923,-0.35385 2.1077,-0.35385 1.06153,0 2.00769,0.26923 0.94615,0.26923 1.54615,0.74615 l -1.04615,1.76924 q -1.03077,-0.7077 -2.44616,-0.7077 -1.30769,0 -2.17692,0.9 -0.86923,0.9 -0.86923,2.57693 0,1.75384 0.87692,2.66153 0.87693,0.9077 2.18462,0.89231 1.44615,0 2.58461,-0.92307 z"
       id="path1-3"
       style="stroke-width:0.0153846" /></g></svg>
