<svg xmlns="http://www.w3.org/2000/svg" width="32" height="32"><path d="M19.115 12.26q-1.926 0-1.926 1.54v4.397q0 1.541 1.926 1.541h5.326v-1.36h-4.59q-.396.002-.396-.315v-4.125q0-.317.397-.317h4.59V12.26zM7.559 12.26v7.478h6.912v-1.36H9.824V12.26z" style="fill:#000;fill-opacity:1;stroke-width:.0654582"/><path d="M2.291 9.873A2.29 2.29 0 0 0 0 12.164v7.67a2.293 2.293 0 0 0 2.291 2.293h27.418A2.293 2.293 0 0 0 32 19.834v-7.67a2.29 2.29 0 0 0-2.291-2.291zm5.268 2.387h2.265v6.119h4.647v1.36H7.559Zm11.556 0h5.326v1.361h-4.59q-.396 0-.396.317v4.125q0 .317.397.316h4.59v1.36h-5.327q-1.926 0-1.926-1.542v-4.396q0-1.54 1.926-1.541" style="fill:#fff;stroke-width:.0654582"/></svg>