<svg width="32" height="32" fill="none" version="1.1" viewBox="0 0 32 32" xml:space="preserve" xmlns="http://www.w3.org/2000/svg"><path d="m5.1699 2c-2.852-0.04451-5.1843 2.2833-5.1699 5.1602l0.097656 19.492c0.013988 2.8036 2.2556 5.0766 5.0352 5.1074l21.719 0.24023c3.3702 0.0372 5.845-3.1793 4.9727-6.4629l-5.1738-19.471c-0.5888-2.2162-2.5634-3.7711-4.8379-3.8066zm-0.56445 9.8457h2.3535v9.0879h5.168v2.1133h-7.5215zm14.318 0c0.70769 0 1.377 0.09004 2.0078 0.26953 0.6308 0.17949 1.1469 0.42815 1.5469 0.74609l-1.0469 1.7695c-0.6872-0.4718-1.5037-0.70703-2.4473-0.70703-0.87178 0-1.5963 0.30039-2.1758 0.90039s-0.86914 1.4582-0.86914 2.5762c0 1.1692 0.29234 2.057 0.87695 2.6621 0.5846 0.60513 1.3118 0.90088 2.1836 0.89062 0.96407 0 1.8269-0.3065 2.5859-0.92188l1.1074 1.6152c-0.43073 0.42053-0.98786 0.75922-1.6699 1.0156-0.68207 0.25641-1.4227 0.38477-2.2227 0.38477-0.70771 3.3e-5 -1.3717-0.12027-1.9922-0.36133s-1.1749-0.59047-1.6621-1.0469c-0.48715-0.4564-0.87493-1.0491-1.1621-1.7773-0.28717-0.7282-0.42969-1.5481-0.42969-2.4609-0.01027-0.91287 0.12346-1.7267 0.40039-2.4395 0.27689-0.71283 0.66003-1.2921 1.1523-1.7383s1.0628-0.78559 1.709-1.0215c0.64613-0.2359 1.3484-0.35547 2.1074-0.35547z" clip-rule="evenodd" fill="#fff" fill-rule="evenodd"/></svg>
