<svg width="32" height="32" fill="none" version="1.1" viewBox="0 0 32 32" xml:space="preserve" xmlns="http://www.w3.org/2000/svg"><path d="m26.83 2-16.643 0.25977c-2.2745 0.03549-4.2491 1.5903-4.8379 3.8066l-5.1738 19.471c-0.87231 3.2836 1.6026 6.5001 4.9727 6.4629l21.719-0.24023c2.7796-0.0308 5.0212-2.3038 5.0352-5.1074l0.097656-19.492c0.0144-2.8768-2.3179-5.2047-5.1699-5.1602zm-0.25781 10.883h1.4609v7.4043h1.7188v1.6406h-5.7754v-1.6406h2.1309v-5.3105l-1.8984 0.80078-0.60742-1.4219zm-19.82 0.0332h1.8984v7.3379h4.1738v1.707h-6.0723zm11.562 0c0.57148 0 1.1117 0.07185 1.6211 0.2168 0.50937 0.14495 0.92507 0.3448 1.248 0.60156l-0.84375 1.4297c-0.55493-0.38101-1.2146-0.57227-1.9766-0.57227-0.70403 0-1.2898 0.24398-1.7578 0.72852-0.46797 0.48453-0.70117 1.1773-0.70117 2.0801 0 0.94425 0.23492 1.6598 0.70703 2.1484 0.47213 0.48869 1.0616 0.729 1.7656 0.7207 0.77855 0 1.473-0.24718 2.0859-0.74414l0.89453 1.3047c-0.34787 0.33959-0.79682 0.61129-1.3477 0.81836-0.55081 0.20707-1.1489 0.3125-1.7949 0.3125-0.5715 0-1.1083-0.09832-1.6094-0.29297-0.50111-0.19465-0.94837-0.47713-1.3418-0.8457-0.39343-0.36859-0.70559-0.84551-0.9375-1.4336-0.23191-0.58807-0.34766-1.2511-0.34766-1.9883-0.0083-0.73715 0.09863-1.393 0.32226-1.9688 0.22363-0.57564 0.53407-1.044 0.93164-1.4043 0.39759-0.36029 0.85711-0.63567 1.3789-0.82617 0.52181-0.19051 1.0902-0.28516 1.7031-0.28516z" clip-rule="evenodd" fill="#fff" fill-rule="evenodd"/></svg>
