<svg xmlns="http://www.w3.org/2000/svg" width="32" height="32"><path d="M19.684 12.262q-1.928 0-1.928 1.54v4.395q0 1.542 1.928 1.543h5.324V18.38h-4.59q-.396 0-.395-.317v-4.125q-.001-.316.395-.316h4.59v-1.36z"/><path d="M9.258 13.621v1.926h2.55q.397 0 .397-.317v-1.293q0-.316-.396-.316z" style="fill:#fff"/><path d="M6.992 12.262v7.478h2.266v-2.834h1.236l1.87 2.834h2.447l-1.87-2.834q1.53-.18 1.53-1.54v-1.563q0-1.54-1.926-1.541zm2.266 1.36h2.55q.397 0 .397.315v1.293q0 .317-.396.317H9.258Z"/><path d="M2.291 9.873A2.293 2.293 0 0 0 0 12.166v7.67a2.29 2.29 0 0 0 2.291 2.291h27.42A2.29 2.29 0 0 0 32 19.836v-7.67a2.29 2.29 0 0 0-2.29-2.293Zm4.701 2.389h5.553q1.926 0 1.926 1.54v1.563q0 1.36-1.53 1.541l1.87 2.834h-2.448l-1.869-2.834H9.258v2.834H6.992zm12.692 0h5.324v1.36h-4.59q-.396 0-.395.315v4.126q-.001.316.395.316h4.59v1.361h-5.324q-1.928 0-1.928-1.543v-4.394q0-1.54 1.928-1.541" style="fill:#fff"/></svg>