<?xml version="1.0" encoding="UTF-8" standalone="no"?>
<svg
   width="32"
   height="32"
   viewBox="0 0 32 32"
   fill="none"
   version="1.1"
   id="svg3"
   xml:space="preserve"
   xmlns="http://www.w3.org/2000/svg"
   xmlns:svg="http://www.w3.org/2000/svg"><defs
     id="defs3" /><path
     d="M 0,2 C 0,0.895431 0.895431,0 2,0 h 28 c 1.1046,0 2,0.895431 2,2 v 28 c 0,1.1046 -0.8954,2 -2,2 H 2 C 0.895431,32 0,31.1046 0,30 Z"
     fill="#ffffff"
     id="path1" /><path
     d="m 15.5126,22 h -2.608 l -2.256,-3.776 h -0.272 -1.664 V 22 H 6.3606 V 10.8 h 4.192 c 1.536,0 2.6667,0.3093 3.392,0.928 0.7253,0.608 1.088,1.4613 1.088,2.56 0,0.864 -0.192,1.584 -0.576,2.16 -0.3733,0.576 -0.9013,1.0133 -1.584,1.312 z m -6.8,-9.2 v 3.408 h 1.84 c 0.6187,0 1.0987,-0.1547 1.44,-0.464 0.352,-0.32 0.528,-0.7573 0.528,-1.312 0,-0.544 -0.1707,-0.9493 -0.512,-1.216 -0.3307,-0.2773 -0.864,-0.416 -1.6,-0.416 z"
     fill="#0e141b"
     id="path2" /><path
     fill="currentColor"
     d="m 24.948311,18.98462 1.1077,1.61538 q -0.64616,0.63077 -1.66923,1.01538 Q 23.363701,22 22.163701,22 q -1.06154,0 -1.99231,-0.36154 -0.93077,-0.36154 -1.66154,-1.04615 -0.73077,-0.68462 -1.16154,-1.77693 -0.43076,-1.0923 -0.43076,-2.46153 -0.0154,-1.36923 0.4,-2.43847 0.41538,-1.06923 1.15384,-1.73846 0.73846,-0.66923 1.70769,-1.02307 0.96923,-0.35385 2.1077,-0.35385 1.06153,0 2.00769,0.26923 0.94615,0.26923 1.54615,0.74615 l -1.04615,1.76924 q -1.03077,-0.7077 -2.44616,-0.7077 -1.30769,0 -2.17692,0.9 -0.86923,0.9 -0.86923,2.57693 0,1.75384 0.87692,2.66153 0.87693,0.9077 2.18462,0.89231 1.44615,0 2.58461,-0.92307 z"
     id="path1-3"
     style="stroke-width:0.0153846" /></svg>
