<svg width="32" height="32" fill="none" version="1.1" viewBox="0 0 32 32" xml:space="preserve" xmlns="http://www.w3.org/2000/svg"><path d="m5.1699 2c-2.852-0.04451-5.1843 2.2833-5.1699 5.1602l0.097656 19.492c0.013988 2.8036 2.2556 5.0766 5.0352 5.1074l21.719 0.24023c3.3702 0.0372 5.845-3.1793 4.9727-6.4629l-5.1738-19.471c-0.5888-2.2162-2.5634-3.7711-4.8379-3.8066zm-1.2363 9.8477h4.1914c1.536 0 2.6673 0.30904 3.3926 0.92774 0.7253 0.608 1.0879 1.4618 1.0879 2.5605 0 0.864-0.19217 1.5842-0.57617 2.1602-0.3733 0.576-0.90126 1.0118-1.584 1.3105l2.6406 4.2402h-2.6094l-2.2559-3.7754h-1.9355v3.7754h-2.3516zm15.926 0c0.70769 0 1.377 0.09004 2.0078 0.26953 0.6308 0.17949 1.1469 0.42815 1.5469 0.74609l-1.0469 1.7695c-0.6872-0.4718-1.5037-0.70898-2.4473-0.70898-0.87178 0-1.5963 0.30039-2.1758 0.90039s-0.86914 1.4582-0.86914 2.5762c0 1.1692 0.29234 2.057 0.87695 2.6621 0.5846 0.60513 1.3118 0.90284 2.1836 0.89258 0.96407 0 1.8269-0.30845 2.5859-0.92383l1.1074 1.6172c-0.43073 0.42053-0.98788 0.75723-1.6699 1.0137-0.68207 0.25641-1.4227 0.38477-2.2227 0.38477-0.70771 3.3e-5 -1.3717-0.12027-1.9922-0.36133s-1.1749-0.58853-1.6621-1.0449c-0.48715-0.4564-0.87294-1.0491-1.1602-1.7773-0.28717-0.7282-0.43164-1.5481-0.43164-2.4609-0.01027-0.91287 0.12346-1.7267 0.40039-2.4395 0.27689-0.71283 0.66198-1.2921 1.1543-1.7383s1.0609-0.78758 1.707-1.0234c0.64613-0.2359 1.3484-0.35352 2.1074-0.35352zm-13.574 2v3.4082h1.8398c0.6187 0 1.0982-0.15554 1.4395-0.46484 0.352-0.32 0.5293-0.7578 0.5293-1.3125 0-0.544-0.17042-0.94818-0.51172-1.2148-0.3307-0.2773-0.86552-0.41602-1.6016-0.41602z" clip-rule="evenodd" fill="#fff" fill-rule="evenodd"/></svg>
