<?xml version="1.0" encoding="UTF-8" standalone="no"?>
<svg
   width="32"
   height="32"
   viewBox="0 0 32 32"
   fill="none"
   version="1.1"
   id="svg3"
   xml:space="preserve"
   xmlns="http://www.w3.org/2000/svg"
   xmlns:svg="http://www.w3.org/2000/svg"><defs
     id="defs3" /><path
     d="M 1.0170648e-8,2.0000001 C 1.0170648e-8,0.89543107 0.89543102,4.0109448e-8 2,4.0109448e-8 h 28.000001 c 1.104599,0 2,0.895431029890552 2,2.000000059890552 V 30.000001 c 0,1.1046 -0.895401,2 -2,2 H 2 c -1.10456898,0 -1.999999989829352,-0.8954 -1.999999989829352,-2 z"
     fill="#ffffff"
     id="path1"
     style="stroke-width:0.999996" /><g
     id="g4"
     transform="translate(1.3417054)"><path
       fill="currentColor"
       d="m 17.808994,18.103393 0.894537,1.30452 q -0.521815,0.509386 -1.348007,0.819982 -0.826201,0.310605 -1.795276,0.310605 -0.85726,0 -1.608914,-0.291966 -0.751655,-0.291966 -1.341797,-0.844831 -0.590143,-0.552874 -0.938016,-1.434982 -0.347866,-0.8821 -0.347866,-1.987839 -0.01244,-1.105738 0.323025,-1.969216 0.335445,-0.86347 0.931798,-1.403915 0.596352,-0.540445 1.379066,-0.826193 0.782713,-0.285755 1.702099,-0.285755 0.857251,0 1.621335,0.21742 0.764075,0.21742 1.248612,0.602562 l -0.844831,1.428772 q -0.832411,-0.571512 -1.975427,-0.571512 -1.056041,0 -1.757998,0.726806 -0.701958,0.726806 -0.701958,2.081031 0,1.416335 0.708168,2.149352 0.708175,0.733024 1.764217,0.720595 1.167856,0 2.087233,-0.745436 z"
       id="path1-3"
       style="stroke-width:0.012424" /><path
       d="m 24.433306,11.4615 v 7.403731 h 1.718493 v 1.640967 h -5.775685 v -1.640967 h 2.131964 v -5.31053 l -1.899387,0.801102 -0.607286,-1.421309 2.971829,-1.472994 z"
       fill="#0e141b"
       id="path3"
       style="stroke-width:0.807562" /><path
       d="M 10.555853,20.5225 H 8.4496542 l -1.82192,-3.049457 H 6.4080702 5.0642412 V 20.5225 h -1.899451 v -9.045 h 3.385414 c 1.240457,0 2.153599,0.249787 2.7393446,0.749443 0.5857474,0.491014 0.8786602,1.18013 0.8786602,2.067428 0,0.697758 -0.155057,1.279222 -0.4651726,1.744393 -0.3014742,0.465172 -0.7278828,0.818331 -1.2792252,1.059557 z M 5.0642412,13.092679 v 2.752264 h 1.485964 c 0.499656,0 0.887299,-0.124934 1.162928,-0.374722 0.284272,-0.258428 0.426408,-0.611587 0.426408,-1.059557 0,-0.439328 -0.137855,-0.766644 -0.413487,-0.982028 -0.267069,-0.223945 -0.697756,-0.335957 -1.292142,-0.335957 z"
       fill="#0e141b"
       id="path2-3"
       style="stroke-width:0.807589" /></g></svg>
