<?xml version="1.0" encoding="UTF-8" standalone="no"?>
<svg
   width="32"
   height="32"
   viewBox="0 0 32 32"
   fill="none"
   version="1.1"
   id="svg2"
   xml:space="preserve"
   xmlns="http://www.w3.org/2000/svg"
   xmlns:svg="http://www.w3.org/2000/svg"><defs
     id="defs2" /><path
     d="M 30.5,16 C 30.5,24.0081 24.0081,30.5 16,30.5 7.99187,30.5 1.5,24.0081 1.5,16 1.5,7.99187 7.99187,1.5 16,1.5 24.0081,1.5 30.5,7.99187 30.5,16 Z"
     fill="white"
     id="path1"
     style="fill:#8b6ae2;fill-opacity:1" /><path
     fill="currentColor"
     d="m 18.898625,20.17718 v -3.57207 h -5.79729 v 3.57207 z m -0.0195,-7.16367 -0.0195,-1.22973 q -0.95645,0 -2.87912,-0.0195 -1.92268,-0.0195 -2.87913,-0.0195 v 2.51802 h 5.81681 z M 8.885135,22.5 v -13 h 6.24625 q 6.24624,0 6.42192,0.0976 0.17567,0.0976 0.35135,0.48799 0.19519,0.44894 0.19519,2.28378 v 1.89339 h 1.01502 V 22.5 Z"
     id="path1-6"
     style="fill:#ffffff;fill-opacity:1;stroke-width:0.0195195" /></svg>
