<?xml version="1.0" encoding="UTF-8" standalone="no"?>
<svg
   width="32"
   height="32"
   viewBox="0 0 32 32"
   fill="none"
   version="1.1"
   id="svg2"
   xml:space="preserve"
   xmlns="http://www.w3.org/2000/svg"
   xmlns:svg="http://www.w3.org/2000/svg"><defs
     id="defs2" /><path
     d="M 30.5,16 C 30.5,24.0081 24.0081,30.5 16,30.5 7.99187,30.5 1.5,24.0081 1.5,16 1.5,7.99187 7.99187,1.5 16,1.5 24.0081,1.5 30.5,7.99187 30.5,16 Z"
     fill="white"
     id="path1"
     style="fill:#04b2e1;fill-opacity:1" /><path
     fill="currentColor"
     d="m 8.055545,9.654195 q 0,-0.0578 0.0578,-0.0867 0.0578,-0.0289 0.32741,-0.0482 0.26962,-0.0193 0.69333,-0.0193 h 1.25185 2.33037 l 0.44296,0.48148 q 0.17334,0.19259 1.48297,1.71408 0.23111,0.26963 0.53926,0.60666 0.30814,0.33704 0.47185,0.52963 0.1637,0.19259 0.20222,0.23111 0.0578,0.0578 0.0963,0.0578 0.11555,0 0.43333,-0.32741 0.31778,-0.3274 1.28074,-1.42518 l 1.63704,-1.86815 h 2.33037 q 1.71407,0 2.01259,0.0289 0.29852,0.0289 0.29852,0.1637 0,0.15408 -1.1363,1.46371 -4.25629,4.81481 -4.25629,4.89185 0,0.0578 1.4637,1.69481 2.61926,2.94667 3.15852,3.52445 0.77037,0.86666 0.77037,1.00148 0,0.15407 -0.31778,0.19259 -0.31778,0.0385 -1.22296,0.0385 h -0.78963 -2.31111 l -1.57926,-1.77185 q -1.56,-1.77185 -1.67556,-1.82963 -0.0963,0 -1.67555,1.79111 l -1.61778,1.81037 h -2.34963 q -2.34963,0 -2.34963,-0.13481 0,-0.13482 1.4637,-1.77186 2.61926,-2.9274 3.28371,-3.7074 0.66444,-0.78 0.66444,-0.89556 0,-0.0385 -0.0385,-0.077 -0.19259,-0.25037 -1.4637,-1.65629 -0.4237,-0.46223 -1.05926,-1.20371 -0.63556,-0.74148 -0.75111,-0.85703 -0.0578,-0.077 -0.54889,-0.6163 -0.49111,-0.53926 -0.74148,-0.84741 -0.80889,-0.90518 -0.80889,-1.07852 z"
     id="path1-7"
     style="fill:#ffffff;fill-opacity:1;stroke-width:0.0192593" /></svg>
