<?xml version="1.0" encoding="UTF-8" standalone="no"?>
<svg
   width="32"
   height="32"
   viewBox="0 0 32 32"
   fill="none"
   version="1.1"
   id="svg2"
   xml:space="preserve"
   xmlns="http://www.w3.org/2000/svg"
   xmlns:svg="http://www.w3.org/2000/svg"><defs
     id="defs2" /><path
     d="M 30.5,16 C 30.5,24.0081 24.0081,30.5 16,30.5 7.99187,30.5 1.5,24.0081 1.5,16 1.5,7.99187 7.99187,1.5 16,1.5 24.0081,1.5 30.5,7.99187 30.5,16 Z"
     fill="white"
     id="path1"
     style="fill:#cf63cf;fill-opacity:1" /><path
     fill="currentColor"
     d="m 8.055555,9.67335 q 0,-0.11555 0.33704,-0.13481 0.33703,-0.0193 2.01259,-0.0193 h 2.34963 l 0.53926,0.63555 q 0.46222,0.52 1.57926,1.79112 1.00148,1.17481 1.13629,1.17481 0.0963,0 1.69482,-1.81037 l 1.59852,-1.81037 h 2.33037 q 1.71407,0 2.01259,0.0289 0.29852,0.0289 0.29852,0.1637 0,0.1926 -1.75259,2.15704 -0.50074,0.57778 -1.55037,1.76222 -1.04963,1.18445 -1.35778,1.53111 l -1.19408,1.32889 v 6.02818 h -4.17926 v -6.16296 l -0.46222,-0.46223 q -0.8474,-0.86666 -3.12,-3.48592 -2.27259,-2.61926 -2.27259,-2.71556 z"
     id="path1-5"
     style="fill:#ffffff;fill-opacity:1;stroke-width:0.0192593" /></svg>
