<svg width="178.14mm" height="197.07mm" version="1.1" viewBox="0 0 178.14 197.07" xml:space="preserve" xmlns="http://www.w3.org/2000/svg"><path d="m6.3271 87.461h163.01c1.8331 0 3.3088 1.4757 3.3088 3.3088v105.88c0 1.833-1.4757 3.3088-3.3088 3.3088h-163.01c-1.8331 0-3.3088-1.4757-3.3088-3.3088v-105.88c0-1.8331 1.4757-3.3088 3.3088-3.3088z" fill="none" stroke="#8a9199" stroke-linejoin="round" stroke-width=".49984"/><path d="m6.487 93.243v100.27c0 1.9672 1.5914 3.5586 3.5586 3.5586h156.47c1.9672 0 3.5586-1.5914 3.5586-3.5586v-100.27m-0.5 0v100.27c0 1.6989-1.3597 3.0586-3.0586 3.0586h-156.47c-1.6989 0-3.0586-1.3597-3.0586-3.0586v-100.27" fill="#8a9199" stroke-linejoin="round"/><g fill="none"><g stroke="#8a9199" stroke-linejoin="round"><path transform="rotate(-40.576)" d="m-54.036 86.743c7.2424 0 13.073 5.8305 13.073 13.073v23.849c0 7.2424-5.8305 13.073-13.073 13.073s-13.073-5.8305-13.073-13.073v-23.849c0-7.2424 5.8305-13.073 13.073-13.073z" stroke-width=".5"/><g stroke-width=".5"><path d="m29.113 110.67a5.1811 5.1811 0 0 1-5.1811 5.1811 5.1811 5.1811 0 0 1-5.1811-5.1811 5.1811 5.1811 0 0 1 5.1811-5.1811 5.1811 5.1811 0 0 1 5.1811 5.1811z"/><path d="m30.204 110.67a6.2719 6.2719 0 0 1-6.2719 6.2719 6.2719 6.2719 0 0 1-6.2719-6.2719 6.2719 6.2719 0 0 1 6.2719-6.2719 6.2719 6.2719 0 0 1 6.2719 6.2719z"/><path d="m35.034 110.67a11.102 11.102 0 0 1-11.102 11.102 11.102 11.102 0 0 1-11.102-11.102 11.102 11.102 0 0 1 11.102-11.102 11.102 11.102 0 0 1 11.102 11.102z"/></g></g><path transform="matrix(1.2605 0 0 -1.2605 47.955 126.88)" d="m0 0a1.03 1.03 0 0 1-0.997 0.766h-3.119a0.445 0.445 0 0 0-0.445 0.445v3.119c0 0.468-0.314 0.877-0.766 0.997a7.5 7.5 0 0 1-3.868 0 1.03 1.03 0 0 1-0.766-0.997v-3.119c0-0.246-0.2-0.445-0.445-0.445h-3.119a1.03 1.03 0 0 1-0.997-0.766 7.5 7.5 0 0 1 0-3.869 1.03 1.03 0 0 1 0.997-0.765h3.119a0.446 0.446 0 0 0 0.445-0.446v-3.119c0-0.467 0.314-0.876 0.766-0.996a7.5 7.5 0 0 1 3.868 0c0.452 0.12 0.766 0.529 0.766 0.996v3.119c0 0.247 0.199 0.446 0.445 0.446h3.119c0.468 0 0.876 0.314 0.997 0.765a7.53 7.53 0 0 1 0 3.869"/><g stroke="#8a9199" stroke-linecap="round" stroke-linejoin="round" stroke-miterlimit="22.926" stroke-width=".25"><path transform="matrix(1.2605 0 0 -1.2605 30.904 125.91)" d="m0 0v-0.068"/><path transform="matrix(1.2605 0 0 -1.2605 30.904 132.63)" d="m0 0v-0.068"/><path transform="matrix(1.2605 0 0 -1.2605 34.838 132.72)" d="m0 0v0.068"/><path transform="matrix(1.2605 0 0 -1.2605 34.838 126)" d="m0 0v0.068"/><path transform="matrix(1.2605 0 0 -1.2605 35.399 137.21)" d="m0 0v3.119"/><path transform="matrix(1.2605 0 0 -1.2605 35.399 125.35)" d="m0 0v3.119"/><path transform="matrix(1.2605 0 0 -1.2605 35.477 121.42)" d="m0 0v-3.119"/><path transform="matrix(1.2605 0 0 -1.2605 35.477 133.28)" d="m0 0v-3.119"/><path transform="matrix(1.2605 0 0 -1.2605 35.485 137.21)" d="m0 0v3.119"/><path transform="matrix(1.2605 0 0 -1.2605 35.485 125.35)" d="m0 0v3.119"/><path transform="matrix(1.2605 0 0 -1.2605 42.116 121.42)" d="m0 0v-3.119"/><path transform="matrix(1.2605 0 0 -1.2605 42.116 133.28)" d="m0 0v-3.119"/><path transform="matrix(1.2605 0 0 -1.2605 42.123 137.21)" d="m0 0v3.119"/><path transform="matrix(1.2605 0 0 -1.2605 42.123 125.35)" d="m0 0v3.119"/><path transform="matrix(1.2605 0 0 -1.2605 42.206 121.42)" d="m0 0v-3.119"/><path transform="matrix(1.2605 0 0 -1.2605 42.206 133.28)" d="m0 0v-3.119"/><path transform="matrix(1.2605 0 0 -1.2605 42.766 125.91)" d="m0 0v-0.068"/><path transform="matrix(1.2605 0 0 -1.2605 42.766 132.63)" d="m0 0v-0.068"/><path transform="matrix(1.2605 0 0 -1.2605 46.697 132.72)" d="m0 0v0.068"/><path transform="matrix(1.2605 0 0 -1.2605 46.697 126)" d="m0 0v0.068"/><path transform="matrix(1.2605 0 0 -1.2605 36.364 138.47)" d="m0 0 0.018 0.066"/><path transform="matrix(1.2605 0 0 -1.2605 41.216 120.25)" d="m0 0 0.018 0.066"/><path transform="matrix(1.2605 0 0 -1.2605 41.241 138.47)" d="m0 0-0.018 0.066"/><path transform="matrix(1.2605 0 0 -1.2605 36.385 120.25)" d="m0 0-0.018 0.066"/><path transform="matrix(1.2605 0 0 -1.2605 29.646 126.88)" d="m0 0 0.066-0.018"/><path transform="matrix(1.2605 0 0 -1.2605 47.869 131.73)" d="m0 0 0.066-0.018"/><path transform="matrix(1.2605 0 0 -1.2605 42.116 137.21)" d="m0 0h0.068"/><path transform="matrix(1.2605 0 0 -1.2605 35.399 137.21)" d="m0 0h0.069"/><path transform="matrix(1.2605 0 0 -1.2605 35.485 133.28)" d="m0 0h-0.069"/><path transform="matrix(1.2605 0 0 -1.2605 42.206 133.28)" d="m0 0h-0.068"/><path transform="matrix(1.2605 0 0 -1.2605 46.697 132.72)" d="m0 0h-3.119"/><path transform="matrix(1.2605 0 0 -1.2605 34.838 132.72)" d="m0 0h-3.119"/><path transform="matrix(1.2605 0 0 -1.2605 30.904 132.64)" d="m0 0h3.119"/><path transform="matrix(1.2605 0 0 -1.2605 42.766 132.64)" d="m0 0h3.119"/><path transform="matrix(1.2605 0 0 -1.2605 46.697 132.63)" d="m0 0h-3.119"/><path transform="matrix(1.2605 0 0 -1.2605 34.838 132.63)" d="m0 0h-3.119"/><path transform="matrix(1.2605 0 0 -1.2605 30.904 126)" d="m0 0h3.119"/><path transform="matrix(1.2605 0 0 -1.2605 42.766 126)" d="m0 0h3.119"/><path transform="matrix(1.2605 0 0 -1.2605 46.697 125.99)" d="m0 0h-3.119"/><path transform="matrix(1.2605 0 0 -1.2605 34.838 125.99)" d="m0 0h-3.119"/><path transform="matrix(1.2605 0 0 -1.2605 30.904 125.91)" d="m0 0h3.119"/><path transform="matrix(1.2605 0 0 -1.2605 42.766 125.91)" d="m0 0h3.119"/><path transform="matrix(1.2605 0 0 -1.2605 42.116 125.35)" d="m0 0h0.068"/><path transform="matrix(1.2605 0 0 -1.2605 35.399 125.35)" d="m0 0h0.069"/><path transform="matrix(1.2605 0 0 -1.2605 35.485 121.42)" d="m0 0h-0.069"/><path transform="matrix(1.2605 0 0 -1.2605 42.206 121.42)" d="m0 0h-0.068"/><path transform="matrix(1.2605 0 0 -1.2605 29.646 131.75)" d="m0 0 0.066 0.018"/><path transform="matrix(1.2605 0 0 -1.2605 47.869 126.9)" d="m0 0 0.066 0.017"/><path transform="matrix(1.2605 0 0 -1.2605 35.485 133.28)" d="m0 0c0 0.284-0.23 0.514-0.514 0.514"/><path transform="matrix(1.2605 0 0 -1.2605 35.477 133.28)" d="m0 0a0.51 0.51 0 0 1-0.509 0.51"/><path transform="matrix(1.2605 0 0 -1.2605 35.399 133.28)" d="m0 0a0.445 0.445 0 0 1-0.445 0.445"/><path transform="matrix(1.2605 0 0 -1.2605 29.646 131.75)" d="m0 0c0.12-0.451 0.529-0.766 0.997-0.766"/><path transform="matrix(1.2605 0 0 -1.2605 29.728 131.73)" d="m0 0a0.966 0.966 0 0 1 0.935-0.718"/><path transform="matrix(1.2605 0 0 -1.2605 29.732 131.73)" d="m0 0a0.964 0.964 0 0 1 0.931-0.715"/><path transform="matrix(1.2605 0 0 -1.2605 35.399 137.21)" d="m0 0c0-0.467 0.314-0.876 0.766-0.996"/><path transform="matrix(1.2605 0 0 -1.2605 35.477 137.21)" d="m0 0a0.97 0.97 0 0 1 0.718-0.935"/><path transform="matrix(1.2605 0 0 -1.2605 35.485 137.21)" d="m0 0c0-0.436 0.293-0.817 0.715-0.93"/><path transform="matrix(1.2605 0 0 -1.2605 29.646 126.88)" d="m0 0a7.5 7.5 0 0 1 0-3.869"/><path transform="matrix(1.2605 0 0 -1.2605 36.364 138.47)" d="m0 0a7.5 7.5 0 0 1 3.868 0"/><path transform="matrix(1.2605 0 0 -1.2605 47.955 131.75)" d="m0 0a7.53 7.53 0 0 1 0 3.869"/><path transform="matrix(1.2605 0 0 -1.2605 41.241 120.16)" d="m0 0a7.53 7.53 0 0 1-3.869 0"/><path transform="matrix(1.2605 0 0 -1.2605 41.219 120.24)" d="m0 0a7.44 7.44 0 0 1-3.835 0"/><path transform="matrix(1.2605 0 0 -1.2605 47.876 131.73)" d="m0 0a7.45 7.45 0 0 1 0 3.836"/><path transform="matrix(1.2605 0 0 -1.2605 36.385 138.39)" d="m0 0a7.45 7.45 0 0 1 3.836 0"/><path transform="matrix(1.2605 0 0 -1.2605 29.728 126.89)" d="m0 0a7.45 7.45 0 0 1 0-3.836"/><path transform="matrix(1.2605 0 0 -1.2605 29.732 126.9)" d="m0 0a7.46 7.46 0 0 1 0-3.833"/><path transform="matrix(1.2605 0 0 -1.2605 36.385 138.38)" d="m0 0a7.44 7.44 0 0 1 3.833 0"/><path transform="matrix(1.2605 0 0 -1.2605 47.869 131.73)" d="m0 0a7.46 7.46 0 0 1 0 3.834"/><path transform="matrix(1.2605 0 0 -1.2605 41.216 120.25)" d="m0 0a7.44 7.44 0 0 1-3.833 0"/><path transform="matrix(1.2605 0 0 -1.2605 30.904 125.91)" d="m0 0c-0.467 0-0.876-0.314-0.997-0.766"/><path transform="matrix(1.2605 0 0 -1.2605 36.364 120.16)" d="m0 0a1.03 1.03 0 0 1-0.766-0.997"/><path transform="matrix(1.2605 0 0 -1.2605 36.385 120.24)" d="m0 0a0.97 0.97 0 0 1-0.718-0.935"/><path transform="matrix(1.2605 0 0 -1.2605 30.904 125.99)" d="m0 0a0.97 0.97 0 0 1-0.935-0.718"/><path transform="matrix(1.2605 0 0 -1.2605 30.904 126)" d="m0 0a0.96 0.96 0 0 1-0.931-0.715"/><path transform="matrix(1.2605 0 0 -1.2605 36.385 120.25)" d="m0 0a0.96 0.96 0 0 1-0.715-0.93"/><path transform="matrix(1.2605 0 0 -1.2605 34.838 126)" d="m0 0c0.284 0 0.514 0.229 0.514 0.513"/><path transform="matrix(1.2605 0 0 -1.2605 34.838 125.99)" d="m0 0c0.281 0 0.509 0.227 0.509 0.509"/><path transform="matrix(1.2605 0 0 -1.2605 34.838 125.91)" d="m0 0c0.246 0 0.445 0.199 0.445 0.445"/><path transform="matrix(1.2605 0 0 -1.2605 41.241 138.47)" d="m0 0c0.452 0.12 0.766 0.529 0.766 0.996"/><path transform="matrix(1.2605 0 0 -1.2605 46.697 132.72)" d="m0 0c0.468 0 0.876 0.314 0.997 0.766"/><path transform="matrix(1.2605 0 0 -1.2605 46.697 132.64)" d="m0 0c0.438 0 0.822 0.294 0.935 0.718"/><path transform="matrix(1.2605 0 0 -1.2605 41.219 138.39)" d="m0 0a0.97 0.97 0 0 1 0.718 0.935"/><path transform="matrix(1.2605 0 0 -1.2605 41.216 138.38)" d="m0 0a0.96 0.96 0 0 1 0.715 0.93"/><path transform="matrix(1.2605 0 0 -1.2605 46.697 132.63)" d="m0 0c0.437 0 0.818 0.293 0.93 0.715"/><path transform="matrix(1.2605 0 0 -1.2605 42.766 132.63)" d="m0 0a0.513 0.513 0 0 1-0.513-0.514"/><path transform="matrix(1.2605 0 0 -1.2605 42.766 132.64)" d="m0 0a0.51 0.51 0 0 1-0.509-0.51"/><path transform="matrix(1.2605 0 0 -1.2605 42.766 132.72)" d="m0 0a0.444 0.444 0 0 1-0.444-0.444"/><path transform="matrix(1.2605 0 0 -1.2605 47.955 126.88)" d="m0 0a1.03 1.03 0 0 1-0.997 0.766"/><path transform="matrix(1.2605 0 0 -1.2605 42.206 121.42)" d="m0 0c0 0.467-0.314 0.876-0.766 0.997"/><path transform="matrix(1.2605 0 0 -1.2605 42.123 121.42)" d="m0 0a0.97 0.97 0 0 1-0.718 0.935"/><path transform="matrix(1.2605 0 0 -1.2605 47.876 126.89)" d="m0 0a0.97 0.97 0 0 1-0.935 0.718"/><path transform="matrix(1.2605 0 0 -1.2605 47.869 126.9)" d="m0 0a0.96 0.96 0 0 1-0.93 0.715"/><path transform="matrix(1.2605 0 0 -1.2605 42.116 121.42)" d="m0 0a0.96 0.96 0 0 1-0.715 0.93"/><path transform="matrix(1.2605 0 0 -1.2605 42.116 125.35)" d="m0 0c0-0.284 0.229-0.514 0.514-0.514"/><path transform="matrix(1.2605 0 0 -1.2605 42.123 125.35)" d="m0 0a0.51 0.51 0 0 1 0.509-0.509"/><path transform="matrix(1.2605 0 0 -1.2605 42.206 125.35)" d="m0 0c0-0.246 0.199-0.445 0.445-0.445"/><path transform="matrix(1.2605 0 0 -1.2605 30.968 126.48)" d="m0 0v-0.054"/><path transform="matrix(1.2605 0 0 -1.2605 30.968 132.07)" d="m0 0v-0.054"/><path transform="matrix(1.2605 0 0 -1.2605 33.948 132.63)" d="m0 0v0.386"/><path transform="matrix(1.2605 0 0 -1.2605 33.948 126.48)" d="m0 0v0.385"/><path transform="matrix(1.2605 0 0 -1.2605 33.962 126.49)" d="m0 0v0.388"/><path transform="matrix(1.2605 0 0 -1.2605 33.962 132.63)" d="m0 0v0.389"/><path transform="matrix(1.2605 0 0 -1.2605 34.363 132.13)" d="m0 0v-0.396"/><path transform="matrix(1.2605 0 0 -1.2605 34.363 126)" d="m0 0v-0.396"/><path transform="matrix(1.2605 0 0 -1.2605 35.159 132.13)" d="m0 0v0.032"/><path transform="matrix(1.2605 0 0 -1.2605 35.159 126.54)" d="m0 0v0.033"/><path transform="matrix(1.2605 0 0 -1.2605 35.971 137.15)" d="m0 0v2.363"/><path transform="matrix(1.2605 0 0 -1.2605 35.971 124.46)" d="m0 0v2.364"/><path transform="matrix(1.2605 0 0 -1.2605 35.985 124.87)" d="m0 0v-0.632"/><path transform="matrix(1.2605 0 0 -1.2605 35.985 133.75)" d="m0 0v0.632"/><path transform="matrix(1.2605 0 0 -1.2605 41.62 124.87)" d="m0 0v-0.632"/><path transform="matrix(1.2605 0 0 -1.2605 41.62 133.75)" d="m0 0v0.632"/><path transform="matrix(1.2605 0 0 -1.2605 41.634 121.48)" d="m0 0v-2.364"/><path transform="matrix(1.2605 0 0 -1.2605 41.634 134.17)" d="m0 0v-2.363"/><path transform="matrix(1.2605 0 0 -1.2605 42.441 126.5)" d="m0 0v-0.033"/><path transform="matrix(1.2605 0 0 -1.2605 42.441 132.09)" d="m0 0v-0.032"/><path transform="matrix(1.2605 0 0 -1.2605 43.238 126.5)" d="m0 0v0.396"/><path transform="matrix(1.2605 0 0 -1.2605 43.238 132.63)" d="m0 0v0.396"/><path transform="matrix(1.2605 0 0 -1.2605 43.642 126)" d="m0 0v-0.389"/><path transform="matrix(1.2605 0 0 -1.2605 43.642 132.14)" d="m0 0v-0.389"/><path transform="matrix(1.2605 0 0 -1.2605 43.653 126)" d="m0 0v-0.385"/><path transform="matrix(1.2605 0 0 -1.2605 43.653 132.15)" d="m0 0v-0.386"/><path transform="matrix(1.2605 0 0 -1.2605 46.636 132.15)" d="m0 0v0.054"/><path transform="matrix(1.2605 0 0 -1.2605 46.636 126.55)" d="m0 0v0.054"/><path transform="matrix(1.2605 0 0 -1.2605 36.771 137.18)" d="m0 0-0.155-0.599"/><path transform="matrix(1.2605 0 0 -1.2605 40.83 121.45)" d="m0 0 0.154 0.599"/><path transform="matrix(1.2605 0 0 -1.2605 35.971 134.17)" d="m0 0 3e-3 0.012"/><path transform="matrix(1.2605 0 0 -1.2605 41.634 124.46)" d="m0 0-3e-3 -0.011"/><path transform="matrix(1.2605 0 0 -1.2605 35.974 124.47)" d="m0 0-3e-3 0.011"/><path transform="matrix(1.2605 0 0 -1.2605 41.63 134.15)" d="m0 0 3e-3 -0.012"/><path transform="matrix(1.2605 0 0 -1.2605 41.026 137.93)" d="m0 0-0.154 0.599"/><path transform="matrix(1.2605 0 0 -1.2605 36.771 121.45)" d="m0 0-0.155 0.599"/><path transform="matrix(1.2605 0 0 -1.2605 43.642 126.49)" d="m0 0 0.011 3e-3"/><path transform="matrix(1.2605 0 0 -1.2605 30.94 127.29)" d="m0 0-0.598 0.154"/><path transform="matrix(1.2605 0 0 -1.2605 46.665 131.34)" d="m0 0 0.599-0.155"/><path transform="matrix(1.2605 0 0 -1.2605 43.653 132.15)" d="m0 0-0.011 3e-3"/><path transform="matrix(1.2605 0 0 -1.2605 33.948 126.48)" d="m0 0 0.011-3e-3"/><path transform="matrix(1.2605 0 0 -1.2605 33.962 132.14)" d="m0 0-0.011-4e-3"/><path transform="matrix(1.2605 0 0 -1.2605 41.566 137.15)" d="m0 0h0.054"/><path transform="matrix(1.2605 0 0 -1.2605 35.971 137.15)" d="m0 0h0.054"/><path transform="matrix(1.2605 0 0 -1.2605 42.116 134.17)" d="m0 0h-0.385"/><path transform="matrix(1.2605 0 0 -1.2605 35.971 134.17)" d="m0 0h-0.385"/><path transform="matrix(1.2605 0 0 -1.2605 42.116 134.15)" d="m0 0h-0.388"/><path transform="matrix(1.2605 0 0 -1.2605 35.974 134.15)" d="m0 0h-0.388"/><path transform="matrix(1.2605 0 0 -1.2605 35.485 133.75)" d="m0 0h0.396"/><path transform="matrix(1.2605 0 0 -1.2605 41.62 133.75)" d="m0 0h0.396"/><path transform="matrix(1.2605 0 0 -1.2605 36.024 132.95)" d="m0 0h-0.033"/><path transform="matrix(1.2605 0 0 -1.2605 41.62 132.95)" d="m0 0h-0.033"/><path transform="matrix(1.2605 0 0 -1.2605 46.636 132.15)" d="m0 0h-2.363"/><path transform="matrix(1.2605 0 0 -1.2605 33.948 132.15)" d="m0 0h-2.363"/><path transform="matrix(1.2605 0 0 -1.2605 34.363 132.13)" d="m0 0h0.632"/><path transform="matrix(1.2605 0 0 -1.2605 43.238 132.13)" d="m0 0h-0.632"/><path transform="matrix(1.2605 0 0 -1.2605 43.238 126.5)" d="m0 0h-0.632"/><path transform="matrix(1.2605 0 0 -1.2605 34.363 126.5)" d="m0 0h0.632"/><path transform="matrix(1.2605 0 0 -1.2605 30.968 126.48)" d="m0 0h2.364"/><path transform="matrix(1.2605 0 0 -1.2605 43.653 126.48)" d="m0 0h2.364"/><path transform="matrix(1.2605 0 0 -1.2605 41.58 125.67)" d="m0 0h0.033"/><path transform="matrix(1.2605 0 0 -1.2605 35.985 125.67)" d="m0 0h0.033"/><path transform="matrix(1.2605 0 0 -1.2605 42.116 124.87)" d="m0 0h-0.396"/><path transform="matrix(1.2605 0 0 -1.2605 35.985 124.87)" d="m0 0h-0.396"/><path transform="matrix(1.2605 0 0 -1.2605 35.485 124.47)" d="m0 0h0.388"/><path transform="matrix(1.2605 0 0 -1.2605 41.63 124.47)" d="m0 0h0.389"/><path transform="matrix(1.2605 0 0 -1.2605 35.485 124.46)" d="m0 0h0.385"/><path transform="matrix(1.2605 0 0 -1.2605 41.634 124.46)" d="m0 0h0.385"/><path transform="matrix(1.2605 0 0 -1.2605 36.038 121.48)" d="m0 0h-0.054"/><path transform="matrix(1.2605 0 0 -1.2605 41.634 121.48)" d="m0 0h-0.054"/><path transform="matrix(1.2605 0 0 -1.2605 47.419 127.09)" d="m0 0-0.599-0.155"/><path transform="matrix(1.2605 0 0 -1.2605 30.182 131.54)" d="m0 0 0.598 0.154"/><path transform="matrix(1.2605 0 0 -1.2605 35.985 132.95)" d="m0 0c0 0.36-0.292 0.653-0.653 0.653"/><path transform="matrix(1.2605 0 0 -1.2605 30.182 131.54)" d="m0 0a0.64 0.64 0 0 1 0.621-0.481"/><path transform="matrix(1.2605 0 0 -1.2605 41.026 137.93)" d="m0 0a0.64 0.64 0 0 1 0.481 0.621"/><path transform="matrix(1.2605 0 0 -1.2605 35.971 137.15)" d="m0 0c0-0.292 0.198-0.548 0.481-0.621"/><path transform="matrix(1.2605 0 0 -1.2605 41.026 120.7)" d="m0 0a7.06 7.06 0 0 1-3.53 0"/><path transform="matrix(1.2605 0 0 -1.2605 47.419 131.54)" d="m0 0a7.06 7.06 0 0 1 0 3.53"/><path transform="matrix(1.2605 0 0 -1.2605 30.182 127.09)" d="m0 0a7.06 7.06 0 0 1 0-3.531"/><path transform="matrix(1.2605 0 0 -1.2605 36.578 137.93)" d="m0 0a7.06 7.06 0 0 1 3.53 0"/><path transform="matrix(1.2605 0 0 -1.2605 36.592 137.86)" d="m0 0a7 7 0 0 1 3.503 0"/><path transform="matrix(1.2605 0 0 -1.2605 41.009 120.76)" d="m0 0a7 7 0 0 1-3.503 0"/><path transform="matrix(1.2605 0 0 -1.2605 47.354 131.52)" d="m0 0a7 7 0 0 1 0 3.503"/><path transform="matrix(1.2605 0 0 -1.2605 30.254 127.11)" d="m0 0a7 7 0 0 1 0-3.503"/><path transform="matrix(1.2605 0 0 -1.2605 36.771 137.18)" d="m0 0a6.44 6.44 0 0 1 3.221 0"/><path transform="matrix(1.2605 0 0 -1.2605 30.94 127.29)" d="m0 0a6.46 6.46 0 0 1 0-3.221"/><path transform="matrix(1.2605 0 0 -1.2605 46.665 131.34)" d="m0 0a6.44 6.44 0 0 1 0 3.221"/><path transform="matrix(1.2605 0 0 -1.2605 40.83 121.45)" d="m0 0a6.44 6.44 0 0 1-3.221 0"/><path transform="matrix(1.2605 0 0 -1.2605 35.159 126.5)" d="m0 0c0.36 0 0.653 0.292 0.653 0.653"/><path transform="matrix(1.2605 0 0 -1.2605 36.578 120.7)" d="m0 0a0.64 0.64 0 0 1-0.481-0.622"/><path transform="matrix(1.2605 0 0 -1.2605 41.634 121.48)" d="m0 0a0.644 0.644 0 0 1-0.481 0.622"/><path transform="matrix(1.2605 0 0 -1.2605 30.968 126.48)" d="m0 0a0.644 0.644 0 0 1-0.622-0.481"/><path transform="matrix(1.2605 0 0 -1.2605 42.441 132.13)" d="m0 0a0.654 0.654 0 0 1-0.652-0.653"/><path transform="matrix(1.2605 0 0 -1.2605 46.636 132.15)" d="m0 0c0.292 0 0.548 0.197 0.622 0.481"/><path transform="matrix(1.2605 0 0 -1.2605 41.62 125.67)" d="m0 0c0-0.36 0.292-0.653 0.653-0.653"/><path transform="matrix(1.2605 0 0 -1.2605 47.419 127.09)" d="m0 0a0.64 0.64 0 0 1-0.622 0.481"/><path transform="matrix(1.2605 0 0 -1.2605 30.993 131.38)" d="m0 0v-0.098l-1e-3 -0.1-2e-3 -0.097-3e-3 -0.088-1e-3 -0.038-2e-3 -0.033-1e-3 -0.029-2e-3 -0.024-2e-3 -0.018-2e-3 -0.013-2e-3 -9e-3 -2e-3 -3e-3"/><path transform="matrix(1.2605 0 0 -1.2605 30.254 131.52)" d="m0 0a0.58 0.58 0 0 1 0.209-0.317 0.57 0.57 0 0 1 0.36-0.123"/><path transform="matrix(1.2605 0 0 -1.2605 30.968 132.07)" d="m0 0 1.66-4e-3 1.667-7e-3"/><path transform="matrix(1.2605 0 0 -1.2605 34.363 132.13)" d="m0 0-0.116-2e-3h-0.053l-0.048-1e-3 -0.04-1e-3 -0.031-1e-3 -0.021-2e-3 -0.011-1e-3"/><path transform="matrix(1.2605 0 0 -1.2605 36.024 132.95)" d="m0 0 6e-3 -1.657 4e-3 -1.669"/><path transform="matrix(1.2605 0 0 -1.2605 35.974 134.15)" d="m0 0 1e-3 0.01 2e-3 0.021 1e-3 0.031 1e-3 0.041 1e-3 0.046 1e-3 0.054 1e-3 0.116"/><path transform="matrix(1.2605 0 0 -1.2605 36.732 137.12)" d="m0 0-0.097-1e-3 -0.1-1e-3 -0.097-1e-3 -0.088-3e-3 -0.038-2e-3 -0.034-1e-3 -0.029-2e-3 -0.024-2e-3 -0.018-2e-3 -0.014-1e-3 -8e-3 -2e-3 -3e-3 -2e-3"/><path transform="matrix(1.2605 0 0 -1.2605 36.038 137.15)" d="m0 0q0-0.097 0.032-0.19a0.56 0.56 0 0 1 0.233-0.301 0.6 0.6 0 0 1 0.176-0.078"/><path transform="matrix(1.2605 0 0 -1.2605 42.352 127.28)" d="m0 0q0 0.105 4e-3 0.209l7e-3 0.104a1.5 1.5 0 0 0 0.034 0.229l7e-3 0.019 8e-3 0.014a0.02 0.02 0 0 0 0.013 0.012"/><path transform="matrix(1.2605 0 0 -1.2605 40.873 137.12)" d="m0 0 0.098-1e-3 0.101-1e-3 0.097-2e-3 0.087-2e-3 0.038-2e-3 0.034-1e-3 0.029-2e-3 0.023-2e-3 0.019-2e-3 0.013-1e-3 8e-3 -2e-3 4e-3 -2e-3"/><path transform="matrix(1.2605 0 0 -1.2605 33.962 126.49)" d="m0 0 0.011-1e-3 0.021-2e-3 0.031-1e-3 0.04-1e-3 0.047-1e-3 0.054-1e-3 0.116-1e-3"/><path transform="matrix(1.2605 0 0 -1.2605 35.159 126.54)" d="m0 0-1.667-6e-3q-0.83-3e-3 -1.66-4e-3"/><path transform="matrix(1.2605 0 0 -1.2605 36.024 125.67)" d="m0 0a0.69 0.69 0 0 0-0.686-0.686"/><path transform="matrix(1.2605 0 0 -1.2605 35.985 124.87)" d="m0 0v0.116l-1e-3 0.053-1e-3 0.048-1e-3 0.04-2e-3 0.031-1e-3 0.021-2e-3 0.011"/><path transform="matrix(1.2605 0 0 -1.2605 36.038 121.48)" d="m0 0q0-0.835-4e-3 -1.669l-6e-3 -1.657"/><path transform="matrix(1.2605 0 0 -1.2605 36.592 120.76)" d="m0 0a0.61 0.61 0 0 1-0.41-0.379 0.6 0.6 0 0 1-0.031-0.19"/><path transform="matrix(1.2605 0 0 -1.2605 36.732 121.51)" d="m0 0h-0.098l-0.1 1e-3 -0.098 2e-3 -0.087 3e-3 -0.038 1e-3 -0.034 2e-3 -0.029 2e-3 -0.023 1e-3 -0.019 2e-3 -0.013 2e-3 -8e-3 2e-3q-2e-3 0-3e-3 2e-3"/><path transform="matrix(1.2605 0 0 -1.2605 41.566 121.48)" d="m0 0a0.59 0.59 0 0 1-0.441 0.569"/><path transform="matrix(1.2605 0 0 -1.2605 40.873 121.51)" d="m0 0h0.098l0.099 1e-3 0.097 2e-3 0.088 3e-3 0.038 1e-3 0.034 2e-3 0.029 2e-3 0.024 1e-3 0.018 2e-3 0.014 2e-3 8e-3 2e-3q2e-3 0 4e-3 2e-3"/><path transform="matrix(1.2605 0 0 -1.2605 41.63 124.47)" d="m0 0-1e-3 -0.011-2e-3 -0.021-1e-3 -0.032-1e-3 -0.039-1e-3 -0.047-1e-3 -0.054-1e-3 -0.116"/><path transform="matrix(1.2605 0 0 -1.2605 41.58 125.67)" d="m0 0-6e-3 1.658-4e-3 1.669"/><path transform="matrix(1.2605 0 0 -1.2605 46.611 131.38)" d="m0 0v-0.1l1e-3 -0.101 2e-3 -0.098 3e-3 -0.087 1e-3 -0.038 2e-3 -0.033 1e-3 -0.028 2e-3 -0.023 2e-3 -0.018 2e-3 -0.013 2e-3 -8e-3 1e-3 -3e-3"/><path transform="matrix(1.2605 0 0 -1.2605 42.352 131.35)" d="m0 0h0.421l0.842-6e-3 0.422-4e-3 0.422-5e-3 0.424-4e-3 0.849-8e-3"/><path transform="matrix(1.2605 0 0 -1.2605 41.009 137.86)" d="m0 0a0.586 0.586 0 0 1 0.44 0.569"/><path transform="matrix(1.2605 0 0 -1.2605 41.566 137.15)" d="m0 0q0 0.835 3e-3 1.669l7e-3 1.657"/><path transform="matrix(1.2605 0 0 -1.2605 41.62 133.75)" d="m0 0v-0.116l1e-3 -0.054 1e-3 -0.047 1e-3 -0.04 1e-3 -0.031 2e-3 -0.022q0-4e-3 2e-3 -0.01"/><path transform="matrix(1.2605 0 0 -1.2605 42.441 132.09)" d="m0 0 1.667 7e-3 1.66 4e-3"/><path transform="matrix(1.2605 0 0 -1.2605 43.642 132.14)" d="m0 0-0.011 1e-3 -0.021 2e-3 -0.031 1e-3 -0.04 2e-3h-0.047l-0.053 1e-3 -0.117 1e-3"/><path transform="matrix(1.2605 0 0 -1.2605 46.636 132.07)" d="m0 0q0.097 0 0.19 0.031a0.58 0.58 0 0 1 0.379 0.409"/><path transform="matrix(1.2605 0 0 -1.2605 30.993 131.38)" d="m0 0a0.1 0.1 0 0 0-0.026 9e-3 0.04 0.04 0 0 0-0.016 0.023"/><path transform="matrix(1.2605 0 0 -1.2605 41.58 132.95)" d="m0 0a0.68 0.68 0 0 0 0.202 0.483 0.68 0.68 0 0 0 0.484 0.203"/><path transform="matrix(1.2605 0 0 -1.2605 35.256 131.35)" d="m0 0h-0.211l-0.631-3e-3 -0.843-7e-3 -1.695-0.017"/><path transform="matrix(1.2605 0 0 -1.2605 36.764 132.86)" d="m0 0q0 0.117-0.022 0.233a1.22 1.22 0 0 1-0.512 0.765 1.2 1.2 0 0 1-0.666 0.202"/><path transform="matrix(1.2605 0 0 -1.2605 36.732 137.12)" d="m0 0 8e-3 0.858a271 271 0 0 1 0.019 2.522"/><path transform="matrix(1.2605 0 0 -1.2605 36.771 137.18)" d="m0 0a0.04 0.04 0 0 0-0.023 0.016 0.1 0.1 0 0 0-9e-3 0.026"/><path transform="matrix(1.2605 0 0 -1.2605 40.873 137.12)" d="m0 0q0-0.016-9e-3 -0.026a0.04 0.04 0 0 0-0.022-0.017"/><path transform="matrix(1.2605 0 0 -1.2605 40.837 132.86)" d="m0 0q0-0.414 2e-3 -0.827 4e-3 -0.634 0.012-1.267 7e-3 -0.642 0.012-1.286"/><path transform="matrix(1.2605 0 0 -1.2605 42.352 131.35)" d="m0 0a1.17 1.17 0 0 1-0.666-0.203 1.2 1.2 0 0 1-0.332-0.331 1.2 1.2 0 0 1-0.179-0.434 1.2 1.2 0 0 1-0.023-0.232"/><path transform="matrix(1.2605 0 0 -1.2605 46.665 131.34)" d="m0 0a0.04 0.04 0 0 0-0.016-0.023 0.1 0.1 0 0 0-0.026-9e-3"/><path transform="matrix(1.2605 0 0 -1.2605 46.611 127.24)" d="m0 0v0.098a3 3 0 0 0 3e-3 0.198l2e-3 0.087 2e-3 0.038 2e-3 0.034 1e-3 0.029 2e-3 0.023 2e-3 0.019 1e-3 0.013 2e-3 8e-3 2e-3 4e-3"/><path transform="matrix(1.2605 0 0 -1.2605 47.354 127.11)" d="m0 0a0.6 0.6 0 0 1-0.209 0.318 0.6 0.6 0 0 1-0.17 0.092 0.6 0.6 0 0 1-0.19 0.031"/><path transform="matrix(1.2605 0 0 -1.2605 46.636 126.55)" d="m0 0q-0.83 0-1.66 3e-3l-1.666 7e-3"/><path transform="matrix(1.2605 0 0 -1.2605 43.238 126.5)" d="m0 0h0.117l0.053 1e-3 0.047 1e-3 0.04 1e-3 0.031 2e-3 0.021 1e-3 0.011 2e-3"/><path transform="matrix(1.2605 0 0 -1.2605 42.441 126.54)" d="m0 0a0.68 0.68 0 0 0-0.483 0.202 0.68 0.68 0 0 0-0.203 0.484"/><path transform="matrix(1.2605 0 0 -1.2605 40.837 125.76)" d="m0 0a4 4 0 0 1 0.315 0.011q0.048 4e-3 0.094 9e-3a1 1 0 0 1 0.133 0.025l0.019 7e-3 0.014 8e-3q0.01 4e-3 0.012 0.013"/><path transform="matrix(1.2605 0 0 -1.2605 46.611 127.24)" d="m0 0a0.04 0.04 0 0 0 0.026-9e-3 0.04 0.04 0 0 0 0.016-0.023"/><path transform="matrix(1.2605 0 0 -1.2605 42.352 127.28)" d="m0 0h0.421l0.421 2e-3 0.843 8e-3 1.695 0.017"/><path transform="matrix(1.2605 0 0 -1.2605 40.837 125.76)" d="m0 0a1.3 1.3 0 0 1 0.051-0.347q0.017-0.056 0.04-0.111 0.046-0.108 0.111-0.208a1.198 1.198 0 0 1 0.998-0.534"/><path transform="matrix(1.2605 0 0 -1.2605 40.873 121.51)" d="m0 0-8e-3 -0.859q-7e-3 -0.638-0.013-1.275-6e-3 -0.622-5e-3 -1.246"/><path transform="matrix(1.2605 0 0 -1.2605 40.83 121.45)" d="m0 0a0.04 0.04 0 0 0 0.022-0.016 0.04 0.04 0 0 0 9e-3 -0.026"/><path transform="matrix(1.2605 0 0 -1.2605 36.732 121.51)" d="m0 0q0 0.013 9e-3 0.027a0.04 0.04 0 0 0 0.023 0.015"/><path transform="matrix(1.2605 0 0 -1.2605 36.764 125.76)" d="m0 0q0 0.414-2e-3 0.828-4e-3 0.633-0.012 1.265l-0.012 1.287"/><path transform="matrix(1.2605 0 0 -1.2605 35.256 127.28)" d="m0 0q0.117 1e-3 0.233 0.023a1.2 1.2 0 0 1 0.765 0.512 1.18 1.18 0 0 1 0.202 0.665"/><path transform="matrix(1.2605 0 0 -1.2605 30.94 127.29)" d="m0 0a0.04 0.04 0 0 0 0.016 0.022 0.04 0.04 0 0 0 0.026 9e-3"/><path transform="matrix(1.2605 0 0 -1.2605 36.764 125.76)" d="m0 0q-0.104-1e-3 -0.208 4e-3l-0.104 6e-3a3 3 0 0 0-0.172 0.022q-0.028 5e-3 -0.057 0.013l-0.02 7e-3 -0.014 8e-3q-9e-3 3e-3 -0.012 0.013"/><path transform="matrix(1.2605 0 0 -1.2605 35.256 127.28)" d="m0 0q1e-3 0.106-4e-3 0.211-2e-3 0.053-7e-3 0.104a1.5 1.5 0 0 1-0.034 0.227l-8e-3 0.019-7e-3 0.014a0.02 0.02 0 0 1-0.013 0.012"/><path transform="matrix(1.2605 0 0 -1.2605 30.993 127.24)" d="m0 0v0.1l-1e-3 0.101-2e-3 0.098-3e-3 0.087-1e-3 0.038-2e-3 0.034-2e-3 0.027-2e-3 0.024-1e-3 0.017-2e-3 0.013-2e-3 8e-3 -2e-3 4e-3"/><path transform="matrix(1.2605 0 0 -1.2605 35.256 127.28)" d="m0 0a15 15 0 0 0-0.421 0q-0.211 0-0.421 3e-3l-0.421 3e-3 -0.422 4e-3 -0.422 5e-3 -0.423 3e-3q-0.425 5e-3 -0.85 9e-3"/><path transform="matrix(1.2605 0 0 -1.2605 30.968 126.55)" d="m0 0a0.6 0.6 0 0 1-0.19-0.032 0.585 0.585 0 0 1-0.379-0.409"/><path transform="matrix(1.2605 0 0 -1.2605 42.352 131.35)" d="m0 0a5 5 0 0 1 0.011-0.315 3 3 0 0 1 0.021-0.171l0.013-0.057 7e-3 -0.019 8e-3 -0.013q4e-3 -0.01 0.013-0.013"/><path transform="matrix(1.2605 0 0 -1.2605 40.837 132.86)" d="m0 0a5 5 0 0 0 0.312-0.011l0.095-9e-3a1 1 0 0 0 0.154-0.032l0.014-8e-3q9e-3 -3e-3 0.012-0.013"/><path transform="matrix(1.2605 0 0 -1.2605 35.159 132.09)" d="m0 0a0.69 0.69 0 0 0 0.686-0.686"/><path transform="matrix(1.2605 0 0 -1.2605 36.764 132.86)" d="m0 0a5 5 0 0 1-0.315-0.011 3 3 0 0 1-0.171-0.021l-0.056-0.014-0.019-7e-3 -0.014-7e-3q-9e-3 -4e-3 -0.012-0.013"/><path transform="matrix(1.2605 0 0 -1.2605 35.256 131.35)" d="m0 0q1e-3 -0.105-4e-3 -0.21-2e-3 -0.05-7e-3 -0.104a1.5 1.5 0 0 0-0.034-0.229l-7e-3 -0.019-8e-3 -0.013a0.02 0.02 0 0 0-0.013-0.013"/></g><path transform="matrix(1.2704 0 0 -1.2704 139.75 121.59)" d="m0 0a2.826 2.826 0 1 1-5.651 0 2.826 2.826 0 0 1 5.651 0"/><g stroke="#8a9199" stroke-linecap="round" stroke-linejoin="round" stroke-miterlimit="22.926" stroke-width=".25"><path transform="matrix(1.2704 0 0 -1.2704 132.07 121.56)" d="M 0,0 A 3.053,3.053 0 1 0 6.106,0 3.053,3.053 0 0 0 0,0"/><path transform="matrix(1.2704 0 0 -1.2704 132.16 121.56)" d="M 0,0 A 2.989,2.989 0 1 0 5.977,0 2.989,2.989 0 0 0 0,0"/><path transform="matrix(1.2704 0 0 -1.2704 132.16 121.56)" d="m0 0a2.985 2.985 0 1 0 5.97 0 2.985 2.985 0 0 0-5.97 0"/><path transform="matrix(1.2704 0 0 -1.2704 132.32 121.56)" d="M 0,0 A 2.861,2.861 0 1 0 5.722,0 2.861,2.861 0 0 0 0,0"/><path transform="matrix(1.2704 0 0 -1.2704 132.38 121.56)" d="M 0,0 A 2.814,2.814 0 1 0 5.628,0 2.814,2.814 0 0 0 0,0"/><path transform="matrix(1.2704 0 0 -1.2704 132.96 121.56)" d="m0 0a2.3605 2.3605 0 1 0 4.721-1e-3 2.3605 2.3605 0 0 0-4.721 1e-3"/></g></g><path transform="matrix(1.2704 0 0 -1.2704 135.23 120.24)" d="m0 0h-0.716l0.768-1.062 0.358 0.494z" fill="#8a9199" fill-rule="evenodd"/><path transform="matrix(1.2704 0 0 -1.2704 136.74 120.24)" d="m0 0-0.595-0.823-0.28-0.387v-0.991l1e-3 3e-3v-0.318h0.582v1.122l1.008 1.394h-0.369z" fill="#8a9199" fill-rule="evenodd"/><g fill="none"><path transform="matrix(1.2704 0 0 -1.2704 132.34 128.81)" d="m0 0a2.826 2.826 0 1 1-5.651 0 2.826 2.826 0 0 1 5.651 0"/><g stroke="#8a9199" stroke-linecap="round" stroke-linejoin="round" stroke-miterlimit="22.926" stroke-width=".25"><path transform="matrix(1.2704 0 0 -1.2704 124.9 128.73)" d="M 0,0 A 3.053,3.053 0 1 0 6.106,0 3.053,3.053 0 0 0 0,0"/><path transform="matrix(1.2704 0 0 -1.2704 124.98 128.73)" d="M 0,0 A 2.989,2.989 0 1 0 5.977,0 2.989,2.989 0 0 0 0,0"/><path transform="matrix(1.2704 0 0 -1.2704 124.99 128.73)" d="m0 0a2.985 2.985 0 1 0 5.97 0 2.985 2.985 0 0 0-5.97 0"/><path transform="matrix(1.2704 0 0 -1.2704 125.14 128.73)" d="M 0,0 A 2.8615,2.8615 0 1 0 5.723,0 2.862,2.862 0 0 0 0,0"/><path transform="matrix(1.2704 0 0 -1.2704 125.2 128.73)" d="M 0,0 A 2.814,2.814 0 1 0 5.628,0 2.814,2.814 0 0 0 0,0"/><path transform="matrix(1.2704 0 0 -1.2704 125.78 128.73)" d="m0 0a2.3605 2.3605 0 1 0 4.721-1e-3 2.3605 2.3605 0 0 0-4.721 1e-3"/></g></g><path transform="matrix(1.2704 0 0 -1.2704 128.61 127.88)" d="m0 0-0.419 0.581h-0.717l0.778-1.076z" fill="#8a9199" fill-rule="evenodd"/><path transform="matrix(1.2704 0 0 -1.2704 130.1 127.14)" d="m0 0h-0.487l-0.552-0.763-0.358-0.495-0.813-1.125-0.097-0.133h0.717l0.551 0.763 0.552-0.763h0.716l-0.91 1.258 0.91 1.258z" fill="#8a9199" fill-rule="evenodd"/><g fill="none" stroke="#8a9199" stroke-linecap="round" stroke-linejoin="round" stroke-miterlimit="22.926" stroke-width=".25"><path transform="matrix(1.2704 0 0 -1.2704 146.92 128.73)" d="m0 0h0.077"/><path transform="matrix(1.2704 0 0 -1.2704 147.02 128.73)" d="m0 0q2e-3 0.07-1e-3 0.14"/><path transform="matrix(1.2704 0 0 -1.2704 143.3 132.61)" d="m0 0-3e-3 0.064"/><path transform="matrix(1.2704 0 0 -1.2704 143.43 124.96)" d="m0 0 5e-3 0.064"/><path transform="matrix(1.2704 0 0 -1.2704 143.44 124.87)" d="m0 0a3.05 3.05 0 1 1-0.109-6.085"/><path transform="matrix(1.2704 0 0 -1.2704 139.34 128.73)" d="m0 0a2.985 2.985 0 1 0 5.97 0 2.985 2.985 0 0 0-5.97 0"/><path transform="matrix(1.2704 0 0 -1.2704 143.3 132.61)" d="m0 0c0.193 0.018 0.388 0.042 0.578 0.084a2.8 2.8 0 0 1 0.81 0.318q0.127 0.072 0.246 0.157 0.238 0.167 0.441 0.377a3.1 3.1 0 0 1 0.796 1.53q0.053 0.288 0.056 0.58"/><path transform="matrix(1.2704 0 0 -1.2704 147.02 128.56)" d="m0 0a3 3 0 0 1-0.027 0.275 3.32 3.32 0 0 1-0.223 0.795 3.07 3.07 0 0 1-2.566 1.829"/><path transform="matrix(1.2704 0 0 -1.2704 139.49 128.73)" d="M 0,0 A 2.86,2.86 0 1 0 5.72,0.001 2.86,2.86 0 0 0 0,0"/><path transform="matrix(1.2704 0 0 -1.2704 139.56 128.73)" d="M 0,0 A 2.814,2.814 0 1 0 5.628,0 2.814,2.814 0 0 0 0,0"/><path transform="matrix(1.2704 0 0 -1.2704 140.13 128.73)" d="m0 0a2.3605 2.3605 0 1 0 4.721-1e-3 2.3605 2.3605 0 0 0-4.721 1e-3"/></g><path transform="matrix(1.2704 0 0 -1.2704 144.28 128.53)" d="m0 0c0.082 0.027 0.13 0.197 0.13 0.284v0.175a0.63 0.63 0 0 1-0.63 0.631h-1.321v-2.531h0.654v0.457h-1e-3v0.583h0.729c0.148 0 0.269-0.12 0.269-0.268v-0.047a0.27 0.27 0 0 0-0.269-0.268h-0.469v-0.457h0.578c0.349 0 0.646 0.282 0.646 0.631v0.215c0 0.215-0.063 0.479-0.316 0.595m-0.341 0.321a0.27 0.27 0 0 0-0.268-0.268h-0.559v0.594h0.559c0.148 0 0.268-0.12 0.268-0.268z" fill="#8a9199" fill-rule="evenodd"/><g fill="none" stroke="#8a9199" stroke-linecap="round" stroke-linejoin="round" stroke-miterlimit="22.926" stroke-width=".25"><path transform="matrix(1.2704 0 0 -1.2704 132.07 135.91)" d="M 0,0 A 3.053,3.053 0 1 0 6.106,0 3.053,3.053 0 0 0 0,0"/><path transform="matrix(1.2704 0 0 -1.2704 132.16 135.91)" d="M 0,0 A 2.989,2.989 0 1 0 5.977,0 2.989,2.989 0 0 0 0,0"/><path transform="matrix(1.2704 0 0 -1.2704 132.16 135.91)" d="m0 0a2.985 2.985 0 1 0 5.97 0 2.985 2.985 0 0 0-5.97 0"/><path transform="matrix(1.2704 0 0 -1.2704 132.32 135.91)" d="M 0,0 A 2.8615,2.8615 0 1 0 5.723,0.001 2.8615,2.8615 0 0 0 0,0"/><path transform="matrix(1.2704 0 0 -1.2704 132.38 135.91)" d="M 0,0 A 2.814,2.814 0 1 0 5.628,0 2.814,2.814 0 0 0 0,0"/><path transform="matrix(1.2704 0 0 -1.2704 132.96 135.91)" d="m0 0a2.36 2.36 0 1 0 4.72 0 2.36 2.36 0 0 0-4.72 0"/></g><g fill="#8a9199"><path transform="matrix(1.2704 0 0 -1.2704 136.17 134.28)" d="m0 0-0.144 0.245-0.358-0.609-1.118-1.902h0.716l0.76 1.293 0.358 0.609z" fill-rule="evenodd"/><path transform="matrix(1.2704 0 0 -1.2704 136.62 135.05)" d="m0 0-0.257-0.438-0.101-0.171 0.431-0.732-0.316-0.316h1.217z" fill-rule="evenodd"/><g><path transform="matrix(1.2755 0 0 -1.0289 83.32 86.734)" d="m0 0h-0.416a0.1 0.1 0 0 0-0.102 0.101c0 0.056 0.046 0.101 0.102 0.101h0.416a0.1 0.1 0 0 0 0.101-0.101 0.1 0.1 0 0 0-0.101-0.101"/><path transform="matrix(1.2755 0 0 -1.0289 85.54 86.734)" d="m0 0h-0.437a0.1 0.1 0 0 0-0.101 0.101c0 0.056 0.046 0.101 0.101 0.101h0.437a0.1 0.1 0 0 0 0.101-0.101 0.1 0.1 0 0 0-0.101-0.101"/><path transform="matrix(1.2755 0 0 -1.0289 81.624 86.731)" d="m0 0h-1.96a0.102 0.102 0 1 0 0 0.203h1.96a0.1015 0.1015 0 0 0 0-0.203"/><path transform="matrix(1.2755 0 0 -1.0289 86.176 86.731)" d="m0 0h-0.29a0.1 0.1 0 0 0-0.102 0.102 0.1 0.1 0 0 0 0.102 0.101h0.29a0.102 0.102 0 1 0 0-0.203"/><path transform="matrix(1.2755 0 0 -1.0289 90.923 86.731)" d="m 0,0 h -1.511 a 0.102,0.102 0 1 0 0,0.203 H 0 A 0.1,0.1 0 0 0 0.103,0.102 0.103,0.103 0 0 0 0,0"/><path transform="matrix(1.2755 0 0 -1.0289 91.686 86.731)" d="m 0,0 h -0.361 a 0.102,0.102 0 1 0 0,0.203 H 0 A 0.1,0.1 0 0 0 0.103,0.102 0.1,0.1 0 0 0 0,0"/><path transform="matrix(1.2755 0 0 -1.0289 94.467 86.731)" d="m 0,0 h -1.759 a 0.102,0.102 0 0 0 0,0.203 H 0 A 0.1,0.1 0 0 0 0.101,0.102 0.1,0.1 0 0 0 0,0"/><path transform="matrix(1.2755 0 0 -1.0289 95.241 86.731)" d="m0 0h-0.291a0.102 0.102 0 1 0 0 0.203h0.291a0.102 0.102 0 1 0 0-0.203"/><path transform="matrix(1.2755 0 0 -1.0289 76.291 86.731)" d="m0 0h-0.425a0.102 0.102 0 0 0 0 0.203h0.425a0.102 0.102 0 1 0 0-0.203"/><path transform="matrix(1.2755 0 0 -1.0289 78.677 86.731)" d="m 0,0 h -0.425 a 0.102,0.102 0 0 0 0,0.203 H 0 A 0.1,0.1 0 0 0 0.102,0.102 0.1,0.1 0 0 0 0,0"/><path transform="matrix(1.2755 0 0 -1.0289 99.308 86.731)" d="m 0,0 h -2.009 a 0.1015,0.1015 0 0 0 0,0.203 H 0 A 0.103,0.103 0 0 0 0.103,0.102 0.103,0.103 0 0 0 0,0"/><path transform="matrix(1.2755 0 0 -1.0289 100.2 86.731)" d="m0 0h-0.29a0.102 0.102 0 1 0 0 0.203h0.29a0.102 0.102 0 1 0 0-0.203"/><path transform="matrix(1.2755 0 0 -1.0289 102.74 86.731)" d="m0 0h-0.265a0.102 0.102 0 0 0 0 0.203h0.265a0.102 0.102 0 1 0 0-0.203"/><path transform="matrix(1.2755 0 0 -1.0289 99.652 86.469)" d="m0 0h-1.985a0.1 0.1 0 0 0-0.102 0.101c0 0.057 0.045 0.102 0.102 0.102h1.985a0.102 0.102 0 1 0 0-0.203"/><path transform="matrix(1.2755 0 0 -1.0289 93.747 86.469)" d="m 0,0 h -1.023 a 0.1,0.1 0 0 0 -0.102,0.102 0.1,0.1 0 0 0 0.102,0.101 H 0 A 0.1,0.1 0 0 0 0.103,0.102 0.103,0.103 0 0 0 0,0"/><path transform="matrix(1.2755 0 0 -1.0289 91.253 86.469)" d="m0 0h-1.481a0.1 0.1 0 0 0-0.102 0.102 0.1 0.1 0 0 0 0.102 0.101h1.481a0.102 0.102 0 1 0 0-0.203"/><path transform="matrix(1.2755 0 0 -1.0289 82.025 86.399)" d="m0 0h-1.851a0.1 0.1 0 0 0-0.101 0.102c0 0.055 0.047 0.1 0.101 0.1h1.851a0.1 0.1 0 0 0 0.102-0.1 0.1 0.1 0 0 0-0.102-0.102"/><path transform="matrix(1.2755 0 0 -1.0289 81.628 86.177)" d="m0 0h-1.537a0.1 0.1 0 0 0-0.102 0.102c0 0.055 0.047 0.1 0.102 0.1h1.537a0.1 0.1 0 0 0 0.102-0.1 0.1 0.1 0 0 0-0.102-0.102"/><path transform="matrix(1.2755 0 0 -1.0289 88.154 86.139)" d="m0 0h-1.549a0.101 0.101 0 1 0 0 0.202h1.549a0.101 0.101 0 1 0 0-0.202"/><path transform="matrix(1.2755 0 0 -1.0289 99.308 86.139)" d="m 0,0 h -1.719 a 0.101,0.101 0 1 0 0,0.202 H 0 A 0.1,0.1 0 0 0 0.103,0.102 0.103,0.103 0 0 0 0,0"/><path transform="matrix(1.2755 0 0 -1.0289 101.95 86.139)" d="m0 0h-1.371a0.1 0.1 0 0 0-0.101 0.102 0.1 0.1 0 0 0 0.101 0.1h1.371a0.101 0.101 0 1 0 0-0.202"/><path transform="matrix(1.2755 0 0 -1.0289 99.652 85.88)" d="m 0,0 h -1.985 a 0.102,0.102 0 1 0 0,0.203 H 0 A 0.1,0.1 0 0 0 0.102,0.102 0.1,0.1 0 0 0 0,0"/><path transform="matrix(1.2755 0 0 -1.0289 88.15 85.874)" d="m0 0h-1.836a0.1 0.1 0 0 0-0.101 0.102 0.1 0.1 0 0 0 0.101 0.101h1.836a0.102 0.102 0 1 0 0-0.203"/><path transform="matrix(1.2755 0 0 -1.0289 102.18 85.874)" d="m0 0h-1.835a0.1 0.1 0 0 0-0.102 0.102 0.1 0.1 0 0 0 0.102 0.101h1.835a0.102 0.102 0 1 0 0-0.203"/><path transform="matrix(1.2755 0 0 -1.0289 82.025 85.845)" d="m0 0h-1.851a0.1 0.1 0 0 0-0.101 0.101c0 0.056 0.047 0.101 0.101 0.101h1.851a0.101 0.101 0 1 0 0-0.202"/><path transform="matrix(1.2755 0 0 -1.0289 81.624 85.617)" d="m0 0h-1.535a0.103 0.103 0 0 0-0.102 0.102c0 0.056 0.047 0.102 0.102 0.102h1.535a0.102 0.102 0 0 0 0-0.204"/><path transform="matrix(1.2755 0 0 -1.0289 99.308 85.55)" d="m0 0h-1.719a0.1 0.1 0 0 0-0.101 0.101 0.1 0.1 0 0 0 0.101 0.101h1.719a0.101 0.101 0 1 0 0-0.202"/><path transform="matrix(1.2755 0 0 -1.0289 88.15 85.547)" d="m0 0h-1.834a0.1 0.1 0 0 0-0.101 0.102c0 0.056 0.045 0.102 0.101 0.102h1.834a0.1 0.1 0 0 0 0.102-0.102 0.1 0.1 0 0 0-0.102-0.102"/><path transform="matrix(1.2755 0 0 -1.0289 102.18 85.547)" d="m0 0h-1.834a0.1 0.1 0 0 0-0.102 0.102c0 0.056 0.046 0.102 0.102 0.102h1.834a0.1 0.1 0 0 0 0.102-0.102 0.1 0.1 0 0 0-0.102-0.102"/><path transform="matrix(1.2755 0 0 -1.0289 78.677 85.302)" d="m0 0h-0.425a0.1015 0.1015 0 0 0 0 0.203h0.425a0.102 0.102 0 1 0 0-0.203"/><path transform="matrix(1.2755 0 0 -1.0289 76.378 85.302)" d="m0 0h-0.491a0.102 0.102 0 1 0 0 0.203h0.491a0.102 0.102 0 0 0 0-0.203"/><path transform="matrix(1.2755 0 0 -1.0289 85.655 85.29)" d="m 0,0 h -0.415 a 0.1,0.1 0 0 0 -0.101,0.102 0.1,0.1 0 0 0 0.101,0.101 H 0 A 0.1,0.1 0 0 0 0.101,0.102 0.1,0.1 0 0 0 0,0"/><path transform="matrix(1.2755 0 0 -1.0289 83.204 85.29)" d="m 0,0 h -0.437 a 0.1015,0.1015 0 0 0 0,0.203 H 0 A 0.1,0.1 0 0 0 0.101,0.102 0.1,0.1 0 0 0 0,0"/><path transform="matrix(1.2755 0 0 -1.0289 99.641 85.288)" d="m 0,0 h -2.27 a 0.102,0.102 0 0 0 0,0.204 H 0 A 0.103,0.103 0 0 0 0.103,0.102 0.103,0.103 0 0 0 0,0"/><path transform="matrix(1.2755 0 0 -1.0289 89.365 85.288)" d="m0 0h-0.291a0.103 0.103 0 0 0-0.103 0.102c0 0.056 0.046 0.102 0.103 0.102h0.291a0.102 0.102 0 1 0 0-0.204"/><path transform="matrix(1.2755 0 0 -1.0289 82.025 85.288)" d="m0 0h-2.275a0.1 0.1 0 0 0-0.102 0.102c0 0.056 0.046 0.102 0.102 0.102h2.275a0.1 0.1 0 0 0 0.102-0.102 0.1 0.1 0 0 0-0.102-0.102"/><path transform="matrix(1.2755 0 0 -1.0289 93.046 85.279)" d="m0 0h-0.312a0.1 0.1 0 0 0-0.101 0.101c0 0.056 0.046 0.102 0.101 0.102h0.312a0.1 0.1 0 0 0 0.102-0.102 0.1 0.1 0 0 0-0.102-0.101"/><path transform="matrix(1.2755 0 0 -1.0289 88.154 85.279)" d="m0 0h-1.567a0.1 0.1 0 0 0-0.103 0.101c0 0.056 0.046 0.102 0.103 0.102h1.567a0.102 0.102 0 1 0 0-0.203"/><path transform="matrix(1.2755 0 0 -1.0289 102.18 85.279)" d="m0 0h-1.567a0.1 0.1 0 0 0-0.102 0.101c0 0.056 0.046 0.102 0.102 0.102h1.567a0.1 0.1 0 0 0 0.102-0.102 0.1 0.1 0 0 0-0.102-0.101"/><path transform="matrix(1.2755 0 0 -1.0289 96.513 85.279)" d="m0 0h-0.404a0.1 0.1 0 0 0-0.102 0.101c0 0.056 0.046 0.102 0.102 0.102h0.404a0.102 0.102 0 1 0 0-0.203"/><path transform="matrix(1.2755 0 0 -1.0289 94.116 85.279)" d="m0 0h-0.405a0.103 0.103 0 0 0-0.103 0.101c0 0.056 0.047 0.102 0.103 0.102h0.405a0.1 0.1 0 0 0 0.102-0.102 0.1 0.1 0 0 0-0.102-0.101"/><path transform="matrix(1.2755 0 0 -1.0289 78.135 86.32)" d="m0 0a0.1 0.1 0 0 0-0.059 0.019l-1.379 0.988a0.10114 0.10114 0 1 0 0.117 0.165l1.38-0.988a0.103 0.103 0 0 0 0.023-0.142 0.1 0.1 0 0 0-0.082-0.042"/><path transform="matrix(1.2755 0 0 -1.0289 78.135 86.731)" d="m0 0a0.1 0.1 0 0 0-0.059 0.019l-1.446 1.032a0.1 0.1 0 0 0-0.023 0.141 0.1 0.1 0 0 0 0.142 0.024l1.445-1.032a0.103 0.103 0 0 0 0.023-0.142 0.1 0.1 0 0 0-0.082-0.042"/><path transform="matrix(1.2755 0 0 -1.0289 94.868 86.055)" d="m0 0a0.1 0.1 0 0 0-0.062 0.021l-0.997 0.752a0.1 0.1 0 0 0-0.019 0.143 0.1 0.1 0 0 0 0.141 0.02l0.998-0.752a0.103 0.103 0 0 0-0.061-0.184"/><path transform="matrix(1.2755 0 0 -1.0289 95.056 85.853)" d="m0 0a0.1 0.1 0 0 0-0.061 0.021l-0.738 0.557a0.1 0.1 0 0 0-0.019 0.143 0.1 0.1 0 0 0 0.141 0.019l0.739-0.557a0.1 0.1 0 0 0 0.019-0.142 0.1 0.1 0 0 0-0.081-0.041"/><path transform="matrix(1.2755 0 0 -1.0289 84.166 85.885)" d="m0 0a0.1 0.1 0 0 0-0.062 0.021l-0.753 0.577a0.1 0.1 0 0 0-0.019 0.142c0.033 0.044 0.097 0.051 0.143 0.019l0.752-0.576a0.104 0.104 0 0 0 0.019-0.144 0.1 0.1 0 0 0-0.08-0.039"/><path transform="matrix(1.2755 0 0 -1.0289 84.987 86.734)" d="m0 0a0.1 0.1 0 0 0-0.062 0.021l-0.654 0.501a0.1 0.1 0 0 0-0.018 0.143 0.1 0.1 0 0 0 0.141 0.019l0.655-0.501a0.105 0.105 0 0 0 0.019-0.144 0.1 0.1 0 0 0-0.081-0.039"/><path transform="matrix(1.2755 0 0 -1.0289 83.887 86.055)" d="m0 0a0.1 0.1 0 0 0-0.062 0.02l-0.971 0.744a0.1 0.1 0 0 0-0.019 0.142 0.105 0.105 0 0 0 0.143 0.019l0.971-0.742a0.103 0.103 0 0 0 0.018-0.143 0.1 0.1 0 0 0-0.08-0.04"/><path transform="matrix(1.2755 0 0 -1.0289 85.54 86.734)" d="m0 0a0.1 0.1 0 0 0-0.062 0.021l-0.873 0.668a0.104 0.104 0 0 0-0.019 0.142 0.1 0.1 0 0 0 0.142 0.021l0.874-0.669a0.106 0.106 0 0 0 0.018-0.144 0.1 0.1 0 0 0-0.08-0.039"/><path transform="matrix(1.2755 0 0 -1.0289 94.467 86.731)" d="m0 0a0.1 0.1 0 0 0-0.08 0.039l-1.113 1.411a0.1 0.1 0 0 0 0.015 0.142 0.1 0.1 0 0 0 0.143-0.017l1.114-1.411a0.1 0.1 0 0 0-0.017-0.143 0.1 0.1 0 0 0-0.062-0.021"/><path transform="matrix(1.2755 0 0 -1.0289 93.747 86.469)" d="m0 0a0.1 0.1 0 0 0-0.079 0.039l-0.706 0.895a0.102 0.102 0 0 0 0.159 0.126l0.706-0.896a0.101 0.101 0 0 0-0.08-0.164"/><path transform="matrix(1.2755 0 0 -1.0289 75.748 86.731)" d="m0 0a0.1 0.1 0 0 0-0.102 0.102v1.387a0.102 0.102 0 1 0 0.203 0v-1.387a0.1 0.1 0 0 0-0.101-0.102"/><path transform="matrix(1.2755 0 0 -1.0289 76.291 86.731)" d="m0 0a0.1 0.1 0 0 0-0.102 0.102v1.032c0 0.056 0.046 0.101 0.102 0.101a0.1 0.1 0 0 0 0.102-0.101v-1.032a0.1 0.1 0 0 0-0.102-0.102"/><path transform="matrix(1.2755 0 0 -1.0289 78.135 86.32)" d="M 0,0 A 0.1,0.1 0 0 0 -0.102,0.101 V 1.089 A 0.1,0.1 0 0 0 0,1.19 0.1,0.1 0 0 0 0.102,1.089 V 0.101 A 0.1,0.1 0 0 0 0,0"/><path transform="matrix(1.2755 0 0 -1.0289 78.677 86.731)" d="m0 0a0.1 0.1 0 0 0-0.102 0.102v1.387a0.102 0.102 0 1 0 0.204 0v-1.387a0.1 0.1 0 0 0-0.102-0.102"/><path transform="matrix(1.2755 0 0 -1.0289 79.126 86.731)" d="m0 0a0.1 0.1 0 0 0-0.102 0.102v1.403c0 0.056 0.046 0.101 0.102 0.101a0.1 0.1 0 0 0 0.102-0.101v-1.403a0.1 0.1 0 0 0-0.102-0.102"/><path transform="matrix(1.2755 0 0 -1.0289 79.668 86.399)" d="m0 0a0.1 0.1 0 0 0-0.102 0.102v0.218a0.102 0.102 0 0 0 0.204 0v-0.218a0.1 0.1 0 0 0-0.102-0.102"/><path transform="matrix(1.2755 0 0 -1.0289 79.668 85.845)" d="m0 0a0.1 0.1 0 0 0-0.102 0.101v0.22c0 0.057 0.047 0.103 0.102 0.103a0.103 0.103 0 0 0 0.102-0.103v-0.22a0.1 0.1 0 0 0-0.102-0.101"/><path transform="matrix(1.2755 0 0 -1.0289 85.807 86.731)" d="M 0,0 A 0.1,0.1 0 0 0 -0.102,0.102 V 0.935 A 0.1,0.1 0 0 0 0,1.036 0.1,0.1 0 0 0 0.101,0.935 V 0.102 A 0.1,0.1 0 0 0 0,0"/><path transform="matrix(1.2755 0 0 -1.0289 86.176 86.731)" d="m0 0a0.1 0.1 0 0 0-0.102 0.102v0.575a0.1 0.1 0 0 0 0.102 0.1 0.1 0.1 0 0 0 0.102-0.1v-0.575a0.1 0.1 0 0 0-0.102-0.102"/><path transform="matrix(1.2755 0 0 -1.0289 88.996 86.731)" d="m0 0a0.1 0.1 0 0 0-0.103 0.102v1.403c0 0.056 0.046 0.101 0.103 0.101a0.1 0.1 0 0 0 0.101-0.101v-1.403a0.1 0.1 0 0 0-0.101-0.102"/><path transform="matrix(1.2755 0 0 -1.0289 89.365 86.469)" d="m0 0a0.1 0.1 0 0 0-0.102 0.102v1.149a0.102 0.102 0 1 0 0.204 0v-1.149a0.1 0.1 0 0 0-0.102-0.102"/><path transform="matrix(1.2755 0 0 -1.0289 94.868 86.731)" d="m0 0a0.1 0.1 0 0 0-0.102 0.102v0.658c0 0.056 0.046 0.102 0.102 0.102a0.1 0.1 0 0 0 0.102-0.102v-0.658a0.1 0.1 0 0 0-0.102-0.102"/><path transform="matrix(1.2755 0 0 -1.0289 95.241 86.731)" d="m0 0a0.1 0.1 0 0 0-0.102 0.102v0.658c0 0.056 0.046 0.102 0.102 0.102a0.1 0.1 0 0 0 0.102-0.102v-0.658a0.1 0.1 0 0 0-0.102-0.102"/><path transform="matrix(1.2755 0 0 -1.0289 96.748 86.731)" d="m0 0a0.1 0.1 0 0 0-0.101 0.102v1.402c0 0.056 0.046 0.101 0.101 0.101a0.1 0.1 0 0 0 0.103-0.101v-1.402a0.103 0.103 0 0 0-0.103-0.102"/><path transform="matrix(1.2755 0 0 -1.0289 97.117 86.469)" d="m0 0a0.1 0.1 0 0 0-0.102 0.101v0.323a0.1 0.1 0 0 0 0.102 0.1 0.1 0.1 0 0 0 0.102-0.1v-0.323a0.1 0.1 0 0 0-0.102-0.101"/><path transform="matrix(1.2755 0 0 -1.0289 97.117 85.88)" d="M 0,0 A 0.1,0.1 0 0 0 -0.102,0.102 V 0.421 A 0.1,0.1 0 0 0 0,0.522 0.1,0.1 0 0 0 0.102,0.421 V 0.102 A 0.1,0.1 0 0 0 0,0"/><path transform="matrix(1.2755 0 0 -1.0289 99.836 86.731)" d="M 0,0 A 0.1,0.1 0 0 0 -0.102,0.102 V 0.934 A 0.1,0.1 0 0 0 0,1.035 0.1,0.1 0 0 0 0.102,0.934 V 0.102 A 0.1,0.1 0 0 0 0,0"/><path transform="matrix(1.2755 0 0 -1.0289 100.2 86.731)" d="m0 0a0.1 0.1 0 0 0-0.101 0.102v0.574a0.1 0.1 0 0 0 0.101 0.1 0.1 0.1 0 0 0 0.102-0.1v-0.574a0.1 0.1 0 0 0-0.102-0.102"/><path transform="matrix(1.2755 0 0 -1.0289 92.225 86.731)" d="m0 0a0.1 0.1 0 0 0-0.056 0.018 0.1 0.1 0 0 0-0.027 0.14l0.17 0.254a0.1 0.1 0 0 0 0.141 0.027 0.103 0.103 0 0 0 0.028-0.141l-0.172-0.254a0.1 0.1 0 0 0-0.084-0.044"/><path transform="matrix(1.2755 0 0 -1.0289 91.227 86.731)" d="m0 0a0.1 0.1 0 0 0-0.062 0.021 0.103 0.103 0 0 0-0.018 0.143l1.113 1.411c0.034 0.045 0.1 0.052 0.143 0.018a0.1 0.1 0 0 0 0.015-0.143l-1.11-1.411a0.1 0.1 0 0 0-0.081-0.039"/><path transform="matrix(1.2755 0 0 -1.0289 91.686 86.731)" d="m0 0a0.1 0.1 0 0 0-0.062 0.021 0.1 0.1 0 0 0-0.018 0.143l0.908 1.149c0.035 0.043 0.1 0.05 0.144 0.016a0.1 0.1 0 0 0 0.015-0.142l-0.906-1.148a0.1 0.1 0 0 0-0.081-0.039"/><path transform="matrix(1.2755 0 0 -1.0289 81.628 86.177)" d="m0 0a0.1 0.1 0 0 0-0.07 0.027 0.103 0.103 0 0 0-2e-3 0.145l0.312 0.32c0.04 0.04 0.104 0.041 0.144 3e-3a0.1 0.1 0 0 0 2e-3 -0.143l-0.314-0.322a0.1 0.1 0 0 0-0.072-0.03"/><path transform="matrix(1.2755 0 0 -1.0289 81.624 86.731)" d="m0 0a0.1 0.1 0 0 0-0.072 0.029 0.103 0.103 0 0 0-1e-3 0.144l0.315 0.321c0.04 0.04 0.104 0.041 0.144 1e-3a0.1 0.1 0 0 0 2e-3 -0.143l-0.316-0.323a0.1 0.1 0 0 0-0.072-0.029"/><path transform="matrix(1.2755 0 0 -1.0289 81.624 85.617)" d="m0 0a0.102 0.102 0 0 0-0.072 0.174l0.314 0.32c0.04 0.039 0.105 0.041 0.144 0a0.1 0.1 0 0 0 1e-3 -0.144l-0.316-0.319a0.1 0.1 0 0 0-0.071-0.031"/><path transform="matrix(1.2755 0 0 -1.0289 85.811 85.547)" d="m0 0a0.1 0.1 0 0 0-0.072 0.031 0.1 0.1 0 0 0 2e-3 0.144l0.268 0.261a0.105 0.105 0 0 0 0.144-3e-3 0.1 0.1 0 0 0-3e-3 -0.144l-0.269-0.26a0.1 0.1 0 0 0-0.07-0.029"/><path transform="matrix(1.2755 0 0 -1.0289 99.308 85.55)" d="m0 0a0.101 0.101 0 0 0-0.07 0.174l0.261 0.254c0.04 0.039 0.104 0.038 0.143-2e-3a0.1 0.1 0 0 0-2e-3 -0.144l-0.262-0.254a0.1 0.1 0 0 0-0.07-0.028"/><path transform="matrix(1.2755 0 0 -1.0289 90.923 86.731)" d="m0 0a0.1 0.1 0 0 0-0.072 0.03 0.1 0.1 0 0 0 2e-3 0.144l0.261 0.254a0.1 0.1 0 0 0 0.144-2e-3 0.1 0.1 0 0 0-2e-3 -0.144l-0.263-0.253a0.1 0.1 0 0 0-0.07-0.029"/><path transform="matrix(1.2755 0 0 -1.0289 99.836 85.547)" d="m0 0a0.102 0.102 0 0 0-0.071 0.175l0.27 0.261c0.04 0.037 0.106 0.036 0.143-3e-3a0.1 0.1 0 0 0-2e-3 -0.144l-0.27-0.26a0.1 0.1 0 0 0-0.07-0.029"/><path transform="matrix(1.2755 0 0 -1.0289 99.308 86.139)" d="m0 0a0.1 0.1 0 0 0-0.072 0.03 0.1 0.1 0 0 0 4e-3 0.144l0.264 0.255c0.04 0.037 0.105 0.037 0.144-3e-3a0.103 0.103 0 0 0-3e-3 -0.144l-0.267-0.254a0.1 0.1 0 0 0-0.07-0.028"/><path transform="matrix(1.2755 0 0 -1.0289 99.308 86.731)" d="m0 0a0.1 0.1 0 0 0-0.073 0.031 0.1 0.1 0 0 0 5e-3 0.144l0.264 0.252a0.1015 0.1015 0 1 0 0.14-0.147l-0.266-0.252a0.1 0.1 0 0 0-0.07-0.028"/><path transform="matrix(1.2755 0 0 -1.0289 84.43 86.046)" d="m0 0a0.1 0.1 0 0 0-0.081 0.04 0.107 0.107 0 0 0 0.019 0.144l0.96 0.734a0.103 0.103 0 0 0 0.142-0.019 0.1 0.1 0 0 0-0.018-0.142l-0.96-0.736a0.1 0.1 0 0 0-0.062-0.021"/><path transform="matrix(1.2755 0 0 -1.0289 82.788 86.734)" d="m0 0a0.1 0.1 0 0 0-0.08 0.039 0.103 0.103 0 0 0 0.018 0.144l0.862 0.661c0.046 0.031 0.109 0.024 0.142-0.02a0.1 0.1 0 0 0-0.018-0.143l-0.862-0.66a0.1 0.1 0 0 0-0.062-0.021"/><path transform="matrix(1.2755 0 0 -1.0289 84.166 85.885)" d="m0 0a0.1 0.1 0 0 0-0.081 0.039 0.103 0.103 0 0 0 0.019 0.144l0.752 0.576a0.105 0.105 0 0 0 0.143-0.019 0.1 0.1 0 0 0-0.019-0.142l-0.753-0.577a0.1 0.1 0 0 0-0.061-0.021"/><path transform="matrix(1.2755 0 0 -1.0289 83.32 86.734)" d="m0 0a0.1 0.1 0 0 0-0.081 0.039 0.103 0.103 0 0 0 0.019 0.144l0.653 0.501a0.1 0.1 0 0 0 0.141-0.019 0.1 0.1 0 0 0-0.018-0.143l-0.652-0.501a0.1 0.1 0 0 0-0.062-0.021"/><path transform="matrix(1.2755 0 0 -1.0289 95.056 85.853)" d="m0 0a0.1 0.1 0 0 0-0.08 0.041 0.103 0.103 0 0 0 0.019 0.142l0.738 0.557a0.1 0.1 0 0 0 0.141-0.019 0.103 0.103 0 0 0-0.019-0.143l-0.737-0.557a0.1 0.1 0 0 0-0.062-0.021"/><path transform="matrix(1.2755 0 0 -1.0289 95.241 86.055)" d="m0 0a0.103 0.103 0 0 0-0.061 0.184l0.997 0.752a0.1 0.1 0 0 0 0.142-0.02 0.103 0.103 0 0 0-0.02-0.143l-0.996-0.752a0.1 0.1 0 0 0-0.062-0.021"/><path transform="matrix(1.2755 0 0 -1.0289 102.42 85.993)" d="m0 0-7e-3 -4e-3"/><path transform="matrix(1.2755 0 0 -1.0289 74.136 86.965)" d="m 0,0 a 1.026,1.026 0 0 0 -1.023,1.023 c 0,0.564 0.459,1.023 1.023,1.023 A 0.1,0.1 0 0 0 0.102,1.944 0.1,0.1 0 0 0 0,1.843 0.8205,0.8205 0 0 1 0,0.202 0.1,0.1 0 0 0 0.102,0.101 0.1,0.1 0 0 0 0,0"/><path transform="matrix(1.2755 0 0 -1.0289 74.136 86.965)" d="m0 0a0.1 0.1 0 0 0-0.103 0.101c0 0.057 0.046 0.101 0.103 0.101 0.452 0 0.82 0.369 0.82 0.821a0.82 0.82 0 0 1-0.819 0.82 0.103 0.103 0 0 0-0.103 0.101c0 0.056 0.047 0.102 0.103 0.102a1.026 1.026 0 0 0 1.022-1.023c0-0.564-0.46-1.023-1.023-1.023"/><path transform="matrix(1.2755 0 0 -1.0289 74.136 86.416)" d="m 0,0 a 0.5,0.5 0 0 0 -0.349,0.149 0.5,0.5 0 0 0 -0.142,0.34 c 0,0.129 0.053,0.256 0.142,0.348 A 0.5,0.5 0 0 0 0,0.98 0.1,0.1 0 0 0 0.102,0.879 0.1,0.1 0 0 0 0,0.777 0.3,0.3 0 0 1 -0.204,0.693 0.3,0.3 0 0 1 -0.288,0.489 0.295,0.295 0 0 1 0,0.203 0.102,0.102 0 1 0 0,0"/><path transform="matrix(1.2755 0 0 -1.0289 74.136 86.416)" d="m0 0a0.1 0.1 0 0 0-0.103 0.102c0 0.056 0.046 0.101 0.103 0.101a0.28 0.28 0 0 1 0.202 0.088 0.3 0.3 0 0 1 0.085 0.2 0.3 0.3 0 0 1-0.084 0.203 0.3 0.3 0 0 1-0.203 0.083 0.1 0.1 0 0 0-0.103 0.102c0 0.057 0.046 0.101 0.103 0.101a0.5 0.5 0 0 0 0.346-0.141 0.493 0.493 0 0 0-0.346-0.839"/><path transform="matrix(1.2755 0 0 -1.0289 88.154 86.139)" d="m0 0a0.101 0.101 0 1 0 0 0.202c0.153 0 0.333 0.172 0.333 0.316s-0.18 0.318-0.333 0.318a0.102 0.102 0 1 0 0 0.203c0.266 0 0.537-0.264 0.537-0.521s-0.271-0.518-0.537-0.518"/><path transform="matrix(1.2755 0 0 -1.0289 88.15 85.874)" d="m0 0a0.1 0.1 0 0 0-0.102 0.102 0.1 0.1 0 0 0 0.102 0.101c0.024 0 0.064 0.038 0.064 0.057s-0.038 0.057-0.064 0.057a0.1 0.1 0 0 0-0.102 0.102c0 0.057 0.045 0.102 0.102 0.102 0.137 0 0.268-0.127 0.268-0.261 0-0.132-0.132-0.26-0.268-0.26"/><path transform="matrix(1.2755 0 0 -1.0289 102.18 85.874)" d="m0 0a0.102 0.102 0 0 0 0 0.203c0.023 0 0.064 0.038 0.064 0.057 0 0.021-0.042 0.057-0.064 0.057a0.102 0.102 0 0 0 0 0.204c0.135 0 0.269-0.129 0.269-0.261s-0.134-0.26-0.269-0.26"/><path transform="matrix(1.2755 0 0 -1.0289 102.4 86.731)" d="m0 0a0.1 0.1 0 0 0-0.102 0.102c0 0.19-0.128 0.406-0.289 0.48a0.103 0.103 0 0 0-0.047 0.137c0.023 0.05 0.084 0.071 0.134 0.048 0.232-0.11 0.406-0.397 0.406-0.665a0.1 0.1 0 0 0-0.102-0.102"/><path transform="matrix(1.2755 0 0 -1.0289 102.74 86.731)" d="m0 0a0.1 0.1 0 0 0-0.102 0.102 0.8 0.8 0 0 1-0.217 0.544 0.1 0.1 0 0 0 0 0.143 0.1 0.1 0 0 0 0.143-1e-3c0.172-0.173 0.278-0.436 0.278-0.686a0.1 0.1 0 0 0-0.102-0.102"/><path transform="matrix(1.2755 0 0 -1.0289 102.42 86.095)" d="m0 0a0.1 0.1 0 0 0-0.042 0.192c0.107 0.051 0.193 0.176 0.188 0.28-4e-3 0.15-0.182 0.322-0.334 0.322a0.103 0.103 0 0 0-0.102 0.101c0 0.056 0.047 0.102 0.102 0.102 0.263 0 0.53-0.257 0.538-0.518a0.53 0.53 0 0 0-0.308-0.47 0.1 0.1 0 0 0-0.042-9e-3"/></g></g><g fill="none" stroke="#8a9199" stroke-linejoin="round"><g stroke-width=".5"><path d="m27.36 88.624c-21.976-0.34549-23.37-0.31895-24.231 1.2466l-0.07791 3.3112h24.231z"/><path d="m27.36 88.702v-1.2076"/><path d="m43.249 97.818h7.4099c0.2518 0 0.45451 0.18428 0.45451 0.41319v2.2588c0 0.22891-0.20271 0.41319-0.45451 0.41319h-7.4099c-0.2518 0-0.45451-0.18428-0.45451-0.41319v-2.2588c0-0.2289 0.20271-0.41319 0.45451-0.41319z"/><path d="m52.774 97.818h7.4099c0.2518 0 0.45451 0.18428 0.45451 0.41319v2.2588c0 0.22891-0.20271 0.41319-0.45451 0.41319h-7.4099c-0.2518 0-0.45451-0.18428-0.45451-0.41319v-2.2588c0-0.2289 0.20271-0.41319 0.45451-0.41319z"/><path d="m14.544 139.38h7.4099c0.2518 0 0.45451 0.18428 0.45451 0.41319v2.2588c0 0.2289-0.20271 0.41318-0.45451 0.41318h-7.4099c-0.2518 0-0.45451-0.18428-0.45451-0.41318v-2.2588c0-0.22891 0.20271-0.41319 0.45451-0.41319z"/><path d="m14.544 144.14h7.4099c0.2518 0 0.45451 0.18428 0.45451 0.41318v2.2588c0 0.22891-0.20271 0.41319-0.45451 0.41319h-7.4099c-0.2518 0-0.45451-0.18428-0.45451-0.41319v-2.2588c0-0.2289 0.20271-0.41318 0.45451-0.41318z"/><path d="m24.599 144.14h5.3452c0.2518 0 0.45451 0.18428 0.45451 0.41318v2.2588c0 0.2289-0.20271 0.41319-0.45451 0.41319h-5.3452c-0.2518 0-0.45451-0.18429-0.45451-0.41319v-2.2588c0-0.2289 0.20271-0.41318 0.45451-0.41318z"/><path d="m32.536 144.14h5.3452c0.2518 0 0.45451 0.18428 0.45451 0.41318v2.2588c0 0.2289-0.20271 0.41319-0.45451 0.41319h-5.3452c-0.2518 0-0.45451-0.18429-0.45451-0.41319v-2.2588c0-0.2289 0.20271-0.41318 0.45451-0.41318z"/><path d="m84.141 99.484a0.70242 0.70242 0 0 1-0.70242 0.70242 0.70242 0.70242 0 0 1-0.70242-0.70242 0.70242 0.70242 0 0 1 0.70242-0.70242 0.70242 0.70242 0 0 1 0.70242 0.70242z"/><path d="m86.258 99.484a0.70242 0.70242 0 0 1-0.70242 0.70242 0.70242 0.70242 0 0 1-0.70242-0.70242 0.70242 0.70242 0 0 1 0.70242-0.70242 0.70242 0.70242 0 0 1 0.70242 0.70242z"/><path d="m88.375 99.484a0.70242 0.70242 0 0 1-0.70242 0.70242 0.70242 0.70242 0 0 1-0.70242-0.70242 0.70242 0.70242 0 0 1 0.70242-0.70242 0.70242 0.70242 0 0 1 0.70242 0.70242z"/><path d="m90.491 99.484a0.70242 0.70242 0 0 1-0.70242 0.70242 0.70242 0.70242 0 0 1-0.70242-0.70242 0.70242 0.70242 0 0 1 0.70242-0.70242 0.70242 0.70242 0 0 1 0.70242 0.70242z"/><path d="m92.608 99.484a0.70242 0.70242 0 0 1-0.70242 0.70242 0.70242 0.70242 0 0 1-0.70242-0.70242 0.70242 0.70242 0 0 1 0.70242-0.70242 0.70242 0.70242 0 0 1 0.70242 0.70242z"/></g><path transform="rotate(-40.576)" d="m-54.036 86.743c7.2424 0 13.073 5.8305 13.073 13.073v23.849c0 7.2424-5.8305 13.073-13.073 13.073s-13.073-5.8305-13.073-13.073v-23.849c0-7.2424 5.8305-13.073 13.073-13.073z" stroke-width=".5"/><g stroke-width=".5"><path d="m29.113 110.67a5.1811 5.1811 0 0 1-5.1811 5.1811 5.1811 5.1811 0 0 1-5.1811-5.1811 5.1811 5.1811 0 0 1 5.1811-5.1811 5.1811 5.1811 0 0 1 5.1811 5.1811z"/><path d="m30.204 110.67a6.2719 6.2719 0 0 1-6.2719 6.2719 6.2719 6.2719 0 0 1-6.2719-6.2719 6.2719 6.2719 0 0 1 6.2719-6.2719 6.2719 6.2719 0 0 1 6.2719 6.2719z"/><path d="m35.034 110.67a11.102 11.102 0 0 1-11.102 11.102 11.102 11.102 0 0 1-11.102-11.102 11.102 11.102 0 0 1 11.102-11.102 11.102 11.102 0 0 1 11.102 11.102z"/><path d="m27.36 88.624c-21.976-0.34549-23.37-0.31895-24.231 1.2466l-0.07791 3.3112h24.231z"/><path d="m27.36 88.702v-1.2076"/><path d="m43.249 97.818h7.4099c0.2518 0 0.45451 0.18428 0.45451 0.41319v2.2588c0 0.22891-0.20271 0.41319-0.45451 0.41319h-7.4099c-0.2518 0-0.45451-0.18428-0.45451-0.41319v-2.2588c0-0.2289 0.20271-0.41319 0.45451-0.41319z"/><path d="m52.774 97.818h7.4099c0.2518 0 0.45451 0.18428 0.45451 0.41319v2.2588c0 0.22891-0.20271 0.41319-0.45451 0.41319h-7.4099c-0.2518 0-0.45451-0.18428-0.45451-0.41319v-2.2588c0-0.2289 0.20271-0.41319 0.45451-0.41319z"/><path d="m14.544 139.38h7.4099c0.2518 0 0.45451 0.18428 0.45451 0.41319v2.2588c0 0.2289-0.20271 0.41318-0.45451 0.41318h-7.4099c-0.2518 0-0.45451-0.18428-0.45451-0.41318v-2.2588c0-0.22891 0.20271-0.41319 0.45451-0.41319z"/><path d="m14.544 144.14h7.4099c0.2518 0 0.45451 0.18428 0.45451 0.41318v2.2588c0 0.22891-0.20271 0.41319-0.45451 0.41319h-7.4099c-0.2518 0-0.45451-0.18428-0.45451-0.41319v-2.2588c0-0.2289 0.20271-0.41318 0.45451-0.41318z"/><path d="m24.599 144.14h5.3452c0.2518 0 0.45451 0.18428 0.45451 0.41318v2.2588c0 0.2289-0.20271 0.41319-0.45451 0.41319h-5.3452c-0.2518 0-0.45451-0.18429-0.45451-0.41319v-2.2588c0-0.2289 0.20271-0.41318 0.45451-0.41318z"/><path d="m32.536 144.14h5.3452c0.2518 0 0.45451 0.18428 0.45451 0.41318v2.2588c0 0.2289-0.20271 0.41319-0.45451 0.41319h-5.3452c-0.2518 0-0.45451-0.18429-0.45451-0.41319v-2.2588c0-0.2289 0.20271-0.41318 0.45451-0.41318z"/></g><path transform="matrix(-.75955 -.65045 -.65045 .75955 0 0)" d="m-187.46-27.513c7.2424 0 13.073 5.8305 13.073 13.073v23.849c0 7.2424-5.8305 13.073-13.073 13.073s-13.073-5.8305-13.073-13.073v-23.849c0-7.2424 5.8305-13.073 13.073-13.073z" stroke-width=".5"/><g stroke-width=".5"><path transform="scale(-1,1)" d="m-146.54 110.67a5.1811 5.1811 0 0 1-5.1811 5.1811 5.1811 5.1811 0 0 1-5.1811-5.1811 5.1811 5.1811 0 0 1 5.1811-5.1811 5.1811 5.1811 0 0 1 5.1811 5.1811z"/><path transform="scale(-1,1)" d="m-145.45 110.67a6.2719 6.2719 0 0 1-6.2719 6.2719 6.2719 6.2719 0 0 1-6.2719-6.2719 6.2719 6.2719 0 0 1 6.2719-6.2719 6.2719 6.2719 0 0 1 6.2719 6.2719z"/><path transform="scale(-1,1)" d="m-140.62 110.67a11.102 11.102 0 0 1-11.102 11.102 11.102 11.102 0 0 1-11.102-11.102 11.102 11.102 0 0 1 11.102-11.102 11.102 11.102 0 0 1 11.102 11.102z"/><path d="m148.3 88.624c21.976-0.34549 23.37-0.31895 24.231 1.2466l0.0779 3.3112h-24.231z"/><path d="m148.3 88.702v-1.2076"/><path transform="scale(-1,1)" d="m-132.41 97.818h7.4099c0.2518 0 0.45451 0.18428 0.45451 0.41319v2.2588c0 0.22891-0.20271 0.41319-0.45451 0.41319h-7.4099c-0.2518 0-0.45451-0.18428-0.45451-0.41319v-2.2588c0-0.2289 0.20271-0.41319 0.45451-0.41319z"/><path transform="scale(-1,1)" d="m-122.88 97.818h7.4099c0.25179 0 0.4545 0.18428 0.4545 0.41319v2.2588c0 0.22891-0.20271 0.41319-0.4545 0.41319h-7.4099c-0.2518 0-0.45451-0.18428-0.45451-0.41319v-2.2588c0-0.2289 0.20271-0.41319 0.45451-0.41319z"/><path transform="scale(-1,1)" d="m-152.12 144.14h5.3452c0.2518 0 0.45451 0.18428 0.45451 0.41318v2.2588c0 0.2289-0.20271 0.41319-0.45451 0.41319h-5.3452c-0.2518 0-0.45451-0.18429-0.45451-0.41319v-2.2588c0-0.2289 0.20271-0.41318 0.45451-0.41318z"/><path transform="scale(-1,1)" d="m-144.18 144.14h5.3452c0.2518 0 0.45451 0.18428 0.45451 0.41318v2.2588c0 0.2289-0.20271 0.41319-0.45451 0.41319h-5.3452c-0.2518 0-0.45451-0.18429-0.45451-0.41319v-2.2588c0-0.2289 0.20271-0.41318 0.45451-0.41318z"/></g><path transform="matrix(-.75955 -.65045 -.65045 .75955 0 0)" d="m-187.46-27.513c7.2424 0 13.073 5.8305 13.073 13.073v23.849c0 7.2424-5.8305 13.073-13.073 13.073s-13.073-5.8305-13.073-13.073v-23.849c0-7.2424 5.8305-13.073 13.073-13.073z" stroke-width=".5"/><path transform="scale(-1,1)" d="m-160.05 144.14h5.3452c0.25179 0 0.45451 0.18428 0.45451 0.41318v2.2588c0 0.2289-0.20272 0.41319-0.45451 0.41319h-5.3452c-0.2518 0-0.45451-0.18429-0.45451-0.41319v-2.2588c0-0.2289 0.20271-0.41318 0.45451-0.41318z" stroke-width=".5"/><path d="m110.45 111.18-22.532 10.908-22.531-10.908 22.531 23.997z" stroke-width=".5"/><path d="m104.18 115.96-16.254 7.8687-16.254-7.8687 16.254 17.311z" stroke-width=".3607"/></g><path d="m5.5349 4.9825c-0.37377 0-0.71788 0.28778-0.70508 0.66406l2.6458 77.758c0.0128 0.37628 0.3313 0.66282 0.70508 0.66406l159.38 0.52917c0.37378 0.0012 0.68222-0.28826 0.70508-0.66406l4.7625-78.288c0.0229-0.37581-0.3313-0.66406-0.70508-0.66406zm0 0.5h166.79c0.12982 0 0.21002 0.0829 0.20508 0.16406l-4.7625 78.288c-5e-3 0.08117-0.0753 0.16449-0.20508 0.16406l-159.38-0.52917c-0.12982-4.31e-4 -0.20231-0.08281-0.20508-0.16406l-2.6458-77.758c-0.0028-0.08127 0.07526-0.16406 0.20508-0.16406z" fill="#8a9199" stroke-linejoin="round"/><path d="m172.86 85.021 4.2333-81.989c0.0194-0.376-0.3313-0.66211-0.70508-0.66211h-174.7c-0.37378 0-0.71388 0.28571-0.70508 0.66211l1.9181 82.044m0.5 0-1.9181-82.044c-0.0019-0.08129 0.07526-0.16211 0.20508-0.16211h174.7c0.12982 0 0.20927 0.080906 0.20508 0.16211l-4.2333 81.989" fill="#8a9199" stroke-linejoin="round"/><g fill="none" stroke="#8a9199" stroke-linejoin="round"><g stroke-width=".5"><path d="m172.45 84.806c0.34025 0.1374 0.87902 0.27168 0.91546 0.66225l-0.0195 2.4542c-0.11236 0.40769-0.45197 0.46258-0.64277 0.60382-0.19869 1.0895-0.0911 0.9876-0.13635 1.6167"/><path d="m3.3202 84.859c-0.34025 0.1374-1.0091 0.21923-1.0455 0.60981l0.0195 2.4542c0.11236 0.40769 0.45197 0.46258 0.64277 0.60382 0.19869 1.0895 0.0911 0.9876 0.13635 1.6167"/><path d="m173.36 85.037-0.0779 0.19478 4.5954-83.053c0.0999-1.4767-0.61015-1.7835-1.4324-1.9282h-174.86c-0.919 0.12262-1.4306 0.59445-1.3222 1.5977l2.0109 83.616"/></g><g stroke-width=".5"><path d="m13.596 149.9h148.37c0.76976 0 1.3895 0.80976 1.3895 1.8156v38.285c0 1.0058-0.6197 1.8156-1.3895 1.8156h-148.37c-0.76976 0-1.3895-0.80976-1.3895-1.8156v-38.285c0-1.0058 0.6197-1.8156 1.3895-1.8156z"/><path d="m17.296 155.47h3.222c0.76951 0 1.389 0.80976 1.389 1.8156v2.3688c0 1.0058-0.61949 1.8156-1.389 1.8156h-3.222c-0.76951 0-1.389-0.80976-1.389-1.8156v-2.3688c0-1.0058 0.61949-1.8156 1.389-1.8156z"/><path d="m23.601 155.47h3.222c0.76951 0 1.389 0.80976 1.389 1.8156v2.3688c0 1.0058-0.61949 1.8156-1.389 1.8156h-3.222c-0.76951 0-1.389-0.80976-1.389-1.8156v-2.3688c0-1.0058 0.61949-1.8156 1.389-1.8156z"/><path d="m29.905 155.47h3.222c0.76951 0 1.389 0.80976 1.389 1.8156v2.3688c0 1.0058-0.61949 1.8156-1.389 1.8156h-3.222c-0.76951 0-1.389-0.80976-1.389-1.8156v-2.3688c0-1.0058 0.61949-1.8156 1.389-1.8156z"/><path d="m36.21 155.47h3.222c0.76951 0 1.389 0.80976 1.389 1.8156v2.3688c0 1.0058-0.61949 1.8156-1.389 1.8156h-3.222c-0.76951 0-1.389-0.80976-1.389-1.8156v-2.3688c0-1.0058 0.61949-1.8156 1.389-1.8156z"/><path d="m42.514 155.47h3.222c0.76951 0 1.389 0.80976 1.389 1.8156v2.3688c0 1.0058-0.61949 1.8156-1.389 1.8156h-3.222c-0.76951 0-1.389-0.80976-1.389-1.8156v-2.3688c0-1.0058 0.61949-1.8156 1.389-1.8156z"/><path d="m48.819 155.47h3.222c0.76951 0 1.389 0.80976 1.389 1.8156v2.3688c0 1.0058-0.61949 1.8156-1.389 1.8156h-3.222c-0.76951 0-1.389-0.80976-1.389-1.8156v-2.3688c0-1.0058 0.61949-1.8156 1.389-1.8156z"/><path d="m55.123 155.47h3.222c0.76951 0 1.389 0.80976 1.389 1.8156v2.3688c0 1.0058-0.61949 1.8156-1.389 1.8156h-3.222c-0.76951 0-1.389-0.80976-1.389-1.8156v-2.3688c0-1.0058 0.6195-1.8156 1.389-1.8156z"/><path d="m17.296 162.22h6.222c0.76951 0 1.389 0.80976 1.389 1.8156v2.3688c0 1.0058-0.61949 1.8156-1.389 1.8156h-6.222c-0.76951 0-1.389-0.80976-1.389-1.8156v-2.3688c0-1.0058 0.61949-1.8156 1.389-1.8156z"/></g><g stroke-width=".53697"><path d="m27.344 162.24h3.7391c0.89302 0 1.6119 0.80477 1.6119 1.8044v2.3542c0 0.99965-0.71893 1.8044-1.6119 1.8044h-3.7391c-0.89302 0-1.6119-0.80477-1.6119-1.8044v-2.3542c0-0.99965 0.71893-1.8044 1.6119-1.8044z"/><path d="m35.151 162.24h3.7391c0.89302 0 1.6119 0.80477 1.6119 1.8044v2.3542c0 0.99965-0.71893 1.8044-1.6119 1.8044h-3.7391c-0.89302 0-1.6119-0.80477-1.6119-1.8044v-2.3542c0-0.99965 0.71892-1.8044 1.6119-1.8044z"/><path d="m42.958 162.24h3.7391c0.89302 0 1.6119 0.80477 1.6119 1.8044v2.3542c0 0.99965-0.71893 1.8044-1.6119 1.8044h-3.7391c-0.89302 0-1.6119-0.80477-1.6119-1.8044v-2.3542c0-0.99965 0.71892-1.8044 1.6119-1.8044z"/><path d="m50.765 162.24h3.7391c0.89302 0 1.6119 0.80477 1.6119 1.8044v2.3542c0 0.99965-0.71893 1.8044-1.6119 1.8044h-3.7391c-0.89302 0-1.6119-0.80477-1.6119-1.8044v-2.3542c0-0.99965 0.71892-1.8044 1.6119-1.8044z"/><path d="m58.572 162.24h3.7391c0.89302 0 1.6119 0.80477 1.6119 1.8044v2.3542c0 0.99965-0.71893 1.8044-1.6119 1.8044h-3.7391c-0.89302 0-1.6119-0.80477-1.6119-1.8044v-2.3542c0-0.99965 0.71892-1.8044 1.6119-1.8044z"/><path d="m32.297 168.98h3.7391c0.89302 0 1.6119 0.80477 1.6119 1.8044v2.3542c0 0.99965-0.71892 1.8044-1.6119 1.8044h-3.7391c-0.89302 0-1.6119-0.80477-1.6119-1.8044v-2.3542c0-0.99965 0.71893-1.8044 1.6119-1.8044z"/><path d="m40.056 168.98h3.7391c0.89302 0 1.6119 0.80477 1.6119 1.8044v2.3542c0 0.99965-0.71893 1.8044-1.6119 1.8044h-3.7391c-0.89302 0-1.6119-0.80477-1.6119-1.8044v-2.3542c0-0.99965 0.71893-1.8044 1.6119-1.8044z"/><path d="m47.816 168.98h3.7391c0.89302 0 1.6119 0.80477 1.6119 1.8044v2.3542c0 0.99965-0.71893 1.8044-1.6119 1.8044h-3.7391c-0.89302 0-1.6119-0.80477-1.6119-1.8044v-2.3542c0-0.99965 0.71893-1.8044 1.6119-1.8044z"/><path d="m55.575 168.98h3.7391c0.89302 0 1.6119 0.80477 1.6119 1.8044v2.3542c0 0.99965-0.71893 1.8044-1.6119 1.8044h-3.7391c-0.89302 0-1.6119-0.80477-1.6119-1.8044v-2.3542c0-0.99965 0.71893-1.8044 1.6119-1.8044z"/><path d="m63.335 168.98h3.7391c0.89302 0 1.6119 0.80477 1.6119 1.8044v2.3542c0 0.99965-0.71893 1.8044-1.6119 1.8044h-3.7391c-0.89302 0-1.6119-0.80477-1.6119-1.8044v-2.3542c0-0.99965 0.71893-1.8044 1.6119-1.8044z"/><path d="m34.826 175.73h3.7391c0.89302 0 1.6119 0.80477 1.6119 1.8044v2.3542c0 0.99965-0.71893 1.8044-1.6119 1.8044h-3.7391c-0.89302 0-1.6119-0.80477-1.6119-1.8044v-2.3542c0-0.99965 0.71893-1.8044 1.6119-1.8044z"/><path d="m42.615 175.73h3.7391c0.89302 0 1.6119 0.80477 1.6119 1.8044v2.3542c0 0.99965-0.71893 1.8044-1.6119 1.8044h-3.7391c-0.89302 0-1.6119-0.80477-1.6119-1.8044v-2.3542c0-0.99965 0.71892-1.8044 1.6119-1.8044z"/><path d="m50.403 175.73h3.7391c0.89302 0 1.6119 0.80477 1.6119 1.8044v2.3542c0 0.99965-0.71893 1.8044-1.6119 1.8044h-3.7391c-0.89302 0-1.6119-0.80477-1.6119-1.8044v-2.3542c0-0.99965 0.71893-1.8044 1.6119-1.8044z"/><path d="m58.192 175.73h3.7391c0.89302 0 1.6119 0.80477 1.6119 1.8044v2.3542c0 0.99965-0.71893 1.8044-1.6119 1.8044h-3.7391c-0.89302 0-1.6119-0.80477-1.6119-1.8044v-2.3542c0-0.99965 0.71893-1.8044 1.6119-1.8044z"/><path d="m65.981 175.73h3.7391c0.89302 0 1.6119 0.80477 1.6119 1.8044v2.3542c0 0.99965-0.71893 1.8044-1.6119 1.8044h-3.7391c-0.89302 0-1.6119-0.80477-1.6119-1.8044v-2.3542c0-0.99965 0.71893-1.8044 1.6119-1.8044z"/></g><path d="m17.296 168.97h11.222c0.76951 0 1.389 0.80976 1.389 1.8156v2.3688c0 1.0058-0.61949 1.8156-1.389 1.8156h-11.222c-0.76951 0-1.389-0.80976-1.389-1.8156v-2.3688c0-1.0058 0.61949-1.8156 1.389-1.8156z" stroke-width=".5"/><path d="m17.296 175.71h13.722c0.76951 0 1.389 0.80976 1.389 1.8156v2.3688c0 1.0058-0.61949 1.8156-1.389 1.8156h-13.722c-0.76951 0-1.389-0.80976-1.389-1.8156v-2.3688c0-1.0058 0.61949-1.8156 1.389-1.8156z" stroke-width=".5"/><g stroke-width=".53697"><path d="m33.289 182.48h3.7391c0.89302 0 1.6119 0.80477 1.6119 1.8044v2.3542c0 0.99965-0.71893 1.8044-1.6119 1.8044h-3.7391c-0.89302 0-1.6119-0.80477-1.6119-1.8044v-2.3542c0-0.99965 0.71892-1.8044 1.6119-1.8044z"/><path d="m25.413 182.48h3.7391c0.89302 0 1.6119 0.80477 1.6119 1.8044v2.3542c0 0.99965-0.71893 1.8044-1.6119 1.8044h-3.7391c-0.89302 0-1.6119-0.80477-1.6119-1.8044v-2.3542c0-0.99965 0.71893-1.8044 1.6119-1.8044z"/><path d="m17.538 182.48h3.7391c0.89302 0 1.6119 0.80477 1.6119 1.8044v2.3542c0 0.99965-0.71893 1.8044-1.6119 1.8044h-3.7391c-0.89302 0-1.6119-0.80477-1.6119-1.8044v-2.3542c0-0.99965 0.71893-1.8044 1.6119-1.8044z"/><path d="m41.165 182.48h3.7391c0.89302 0 1.6119 0.80477 1.6119 1.8044v2.3542c0 0.99965-0.71893 1.8044-1.6119 1.8044h-3.7391c-0.89302 0-1.6119-0.80477-1.6119-1.8044v-2.3542c0-0.99965 0.71892-1.8044 1.6119-1.8044z"/><path d="m49.04 182.48h23.776c0.89302 0 1.6119 0.80477 1.6119 1.8044v2.3542c0 0.99965-0.71893 1.8044-1.6119 1.8044h-23.776c-0.89302 0-1.6119-0.80477-1.6119-1.8044v-2.3542c0-0.99965 0.71893-1.8044 1.6119-1.8044z"/></g><g stroke-width=".5"><path transform="scale(-1,1)" d="m-157.83 155.47h3.222c0.7695 0 1.389 0.80976 1.389 1.8156v2.3688c0 1.0058-0.6195 1.8156-1.389 1.8156h-3.222c-0.76951 0-1.389-0.80976-1.389-1.8156v-2.3688c0-1.0058 0.61949-1.8156 1.389-1.8156z"/><path transform="scale(-1,1)" d="m-151.52 155.47h3.222c0.76951 0 1.389 0.80976 1.389 1.8156v2.3688c0 1.0058-0.61949 1.8156-1.389 1.8156h-3.222c-0.76951 0-1.389-0.80976-1.389-1.8156v-2.3688c0-1.0058 0.61949-1.8156 1.389-1.8156z"/><path transform="scale(-1,1)" d="m-145.22 155.47h3.222c0.76951 0 1.389 0.80976 1.389 1.8156v2.3688c0 1.0058-0.61949 1.8156-1.389 1.8156h-3.222c-0.7695 0-1.389-0.80976-1.389-1.8156v-2.3688c0-1.0058 0.6195-1.8156 1.389-1.8156z"/><path transform="scale(-1,1)" d="m-138.91 155.47h3.222c0.76951 0 1.389 0.80976 1.389 1.8156v2.3688c0 1.0058-0.61949 1.8156-1.389 1.8156h-3.222c-0.7695 0-1.389-0.80976-1.389-1.8156v-2.3688c0-1.0058 0.6195-1.8156 1.389-1.8156z"/><path transform="scale(-1,1)" d="m-132.61 155.47h3.222c0.76951 0 1.389 0.80976 1.389 1.8156v2.3688c0 1.0058-0.61949 1.8156-1.389 1.8156h-3.222c-0.7695 0-1.389-0.80976-1.389-1.8156v-2.3688c0-1.0058 0.6195-1.8156 1.389-1.8156z"/><path transform="scale(-1,1)" d="m-126.3 155.47h3.222c0.76951 0 1.389 0.80976 1.389 1.8156v2.3688c0 1.0058-0.61949 1.8156-1.389 1.8156h-3.222c-0.76951 0-1.389-0.80976-1.389-1.8156v-2.3688c0-1.0058 0.61949-1.8156 1.389-1.8156z"/><path transform="scale(-1,1)" d="m-120 155.47h3.222c0.76951 0 1.389 0.80976 1.389 1.8156v2.3688c0 1.0058-0.61949 1.8156-1.389 1.8156h-3.222c-0.76951 0-1.389-0.80976-1.389-1.8156v-2.3688c0-1.0058 0.61949-1.8156 1.389-1.8156z"/><path transform="scale(-1,1)" d="m-157.83 162.22h6.222c0.7695 0 1.389 0.80976 1.389 1.8156v2.3688c0 1.0058-0.6195 1.8156-1.389 1.8156h-6.222c-0.76951 0-1.389-0.80976-1.389-1.8156v-2.3688c0-1.0058 0.61949-1.8156 1.389-1.8156z"/></g><g stroke-width=".53697"><path transform="scale(-1,1)" d="m-147.78 162.24h3.7392c0.89301 0 1.6119 0.80477 1.6119 1.8044v2.3542c0 0.99965-0.71893 1.8044-1.6119 1.8044h-3.7392c-0.89302 0-1.6119-0.80477-1.6119-1.8044v-2.3542c0-0.99965 0.71892-1.8044 1.6119-1.8044z"/><path transform="scale(-1,1)" d="m-139.97 162.24h3.7392c0.89301 0 1.6119 0.80477 1.6119 1.8044v2.3542c0 0.99965-0.71893 1.8044-1.6119 1.8044h-3.7392c-0.89301 0-1.6119-0.80477-1.6119-1.8044v-2.3542c0-0.99965 0.71893-1.8044 1.6119-1.8044z"/><path transform="scale(-1,1)" d="m-132.16 162.24h3.7392c0.89301 0 1.6119 0.80477 1.6119 1.8044v2.3542c0 0.99965-0.71893 1.8044-1.6119 1.8044h-3.7392c-0.89301 0-1.6119-0.80477-1.6119-1.8044v-2.3542c0-0.99965 0.71893-1.8044 1.6119-1.8044z"/><path transform="scale(-1,1)" d="m-124.36 162.24h3.7392c0.89302 0 1.6119 0.80477 1.6119 1.8044v2.3542c0 0.99965-0.71892 1.8044-1.6119 1.8044h-3.7392c-0.89301 0-1.6119-0.80477-1.6119-1.8044v-2.3542c0-0.99965 0.71893-1.8044 1.6119-1.8044z"/><path transform="scale(-1,1)" d="m-116.55 162.24h3.7392c0.89302 0 1.6119 0.80477 1.6119 1.8044v2.3542c0 0.99965-0.71892 1.8044-1.6119 1.8044h-3.7392c-0.89301 0-1.6119-0.80477-1.6119-1.8044v-2.3542c0-0.99965 0.71893-1.8044 1.6119-1.8044z"/><path transform="scale(-1,1)" d="m-134.69 168.98h3.7392c0.89302 0 1.6119 0.80477 1.6119 1.8044v2.3542c0 0.99965-0.71892 1.8044-1.6119 1.8044h-3.7392c-0.89301 0-1.6119-0.80477-1.6119-1.8044v-2.3542c0-0.99965 0.71893-1.8044 1.6119-1.8044z"/><path transform="scale(-1,1)" d="m-127.05 168.98h3.7392c0.89302 0 1.6119 0.80477 1.6119 1.8044v2.3542c0 0.99965-0.71892 1.8044-1.6119 1.8044h-3.7392c-0.89301 0-1.6119-0.80477-1.6119-1.8044v-2.3542c0-0.99965 0.71893-1.8044 1.6119-1.8044z"/><path transform="scale(-1,1)" d="m-119.42 168.98h3.7392c0.89302 0 1.6119 0.80477 1.6119 1.8044v2.3542c0 0.99965-0.71892 1.8044-1.6119 1.8044h-3.7392c-0.89301 0-1.6119-0.80477-1.6119-1.8044v-2.3542c0-0.99965 0.71893-1.8044 1.6119-1.8044z"/><path transform="scale(-1,1)" d="m-111.79 168.98h3.7392c0.89301 0 1.6119 0.80477 1.6119 1.8044v2.3542c0 0.99965-0.71893 1.8044-1.6119 1.8044h-3.7392c-0.89302 0-1.6119-0.80477-1.6119-1.8044v-2.3542c0-0.99965 0.71892-1.8044 1.6119-1.8044z"/><path transform="scale(-1,1)" d="m-140.3 175.73h3.7392c0.89302 0 1.6119 0.80477 1.6119 1.8044v2.3542c0 0.99965-0.71892 1.8044-1.6119 1.8044h-3.7392c-0.89301 0-1.6119-0.80477-1.6119-1.8044v-2.3542c0-0.99965 0.71893-1.8044 1.6119-1.8044z"/><path transform="scale(-1,1)" d="m-132.51 175.73h3.7392c0.89302 0 1.6119 0.80477 1.6119 1.8044v2.3542c0 0.99965-0.71892 1.8044-1.6119 1.8044h-3.7392c-0.89301 0-1.6119-0.80477-1.6119-1.8044v-2.3542c0-0.99965 0.71893-1.8044 1.6119-1.8044z"/><path transform="scale(-1,1)" d="m-124.72 175.73h3.7392c0.89301 0 1.6119 0.80477 1.6119 1.8044v2.3542c0 0.99965-0.71893 1.8044-1.6119 1.8044h-3.7392c-0.89302 0-1.6119-0.80477-1.6119-1.8044v-2.3542c0-0.99965 0.71892-1.8044 1.6119-1.8044z"/><path transform="scale(-1,1)" d="m-116.93 175.73h3.7392c0.89301 0 1.6119 0.80477 1.6119 1.8044v2.3542c0 0.99965-0.71893 1.8044-1.6119 1.8044h-3.7392c-0.89302 0-1.6119-0.80477-1.6119-1.8044v-2.3542c0-0.99965 0.71892-1.8044 1.6119-1.8044z"/><path transform="scale(-1,1)" d="m-109.14 175.73h3.7392c0.89302 0 1.6119 0.80477 1.6119 1.8044v2.3542c0 0.99965-0.71892 1.8044-1.6119 1.8044h-3.7392c-0.89301 0-1.6119-0.80477-1.6119-1.8044v-2.3542c0-0.99965 0.71893-1.8044 1.6119-1.8044z"/></g><path transform="scale(-1,1)" d="m-157.83 175.71h13.722c0.7695 0 1.389 0.80976 1.389 1.8156v2.3688c0 1.0058-0.6195 1.8156-1.389 1.8156h-13.722c-0.76951 0-1.389-0.80976-1.389-1.8156v-2.3688c0-1.0058 0.61949-1.8156 1.389-1.8156z" stroke-width=".5"/><g stroke-width=".53697"><path transform="scale(-1,1)" d="m-142.02 182.48h3.7392c0.89302 0 1.6119 0.80477 1.6119 1.8044v2.3542c0 0.99965-0.71892 1.8044-1.6119 1.8044h-3.7392c-0.89301 0-1.6119-0.80477-1.6119-1.8044v-2.3542c0-0.99965 0.71893-1.8044 1.6119-1.8044z"/><path transform="scale(-1,1)" d="m-157.58 182.48h3.7392c0.89302 0 1.6119 0.80477 1.6119 1.8044v2.3542c0 0.99965-0.71892 1.8044-1.6119 1.8044h-3.7392c-0.89301 0-1.6119-0.80477-1.6119-1.8044v-2.3542c0-0.99965 0.71893-1.8044 1.6119-1.8044z"/><path transform="scale(-1,1)" d="m-134.24 182.48h3.7392c0.89301 0 1.6119 0.80477 1.6119 1.8044v2.3542c0 0.99965-0.71893 1.8044-1.6119 1.8044h-3.7392c-0.89302 0-1.6119-0.80477-1.6119-1.8044v-2.3542c0-0.99965 0.71892-1.8044 1.6119-1.8044z"/><path transform="scale(-1,1)" d="m-118.67 182.48h16.776c0.89301 0 1.6119 0.80477 1.6119 1.8044v2.3542c0 0.99965-0.71893 1.8044-1.6119 1.8044h-16.776c-0.89302 0-1.6119-0.80477-1.6119-1.8044v-2.3542c0-0.99965 0.71892-1.8044 1.6119-1.8044z"/><path transform="scale(-1,1)" d="m-126.46 182.48h3.7392c0.89301 0 1.6119 0.80477 1.6119 1.8044v2.3542c0 0.99965-0.71893 1.8044-1.6119 1.8044h-3.7392c-0.89302 0-1.6119-0.80477-1.6119-1.8044v-2.3542c0-0.99965 0.71892-1.8044 1.6119-1.8044z"/><path d="m149.8 182.48h-3.7392c-0.89301 0-1.6119 0.80477-1.6119 1.8044v2.3542c0 0.99964 0.71893 1.8044 1.6119 1.8044h3.7392c0.89302 0 1.6119-0.80477 1.6119-1.8044v-2.3542c0-0.99964-0.71892-1.8044-1.6119-1.8044z"/></g><path d="m144.45 185.41h6.9416" stroke-width=".5"/><path transform="scale(-1,1)" d="m-141.32 168.98h2.7391c0.89301 0 1.6119 0.80477 1.6119 1.8044v2.3542c0 0.99965-0.71893 1.8044-1.6119 1.8044h-2.7391c-0.89301 0-1.6119-0.80477-1.6119-1.8044v-2.3542c0-0.99965 0.71893-1.8044 1.6119-1.8044z" stroke-width=".53697"/><path transform="scale(-1,1)" d="m-147.95 168.98h2.7391c0.89302 0 1.6119 0.80477 1.6119 1.8044v2.3542c0 0.99965-0.71892 1.8044-1.6119 1.8044h-2.7391c-0.89301 0-1.6119-0.80477-1.6119-1.8044v-2.3542c0-0.99965 0.71893-1.8044 1.6119-1.8044z" stroke-width=".53697"/><path transform="scale(-1,1)" d="m-157.83 168.97h6.222c0.7695 0 1.389 0.80976 1.389 1.8156v2.3688c0 1.0058-0.6195 1.8156-1.389 1.8156h-6.222c-0.76951 0-1.389-0.80976-1.389-1.8156v-2.3688c0-1.0058 0.61949-1.8156 1.389-1.8156z" stroke-width=".5"/></g></svg>
