<svg width="32" height="20" fill="none" version="1.1" viewBox="0 0 32 20" xml:space="preserve" xmlns="http://www.w3.org/2000/svg"><path d="m4.5 2c-1.662 0-3 1.338-3 3v10c0 1.662 1.338 3 3 3h23c1.662 0 3-1.338 3-3v-10c0-1.662-1.338-3-3-3zm8.9824 5.5742c0.30222 0 0.59022 0.04871 0.86133 0.14648 0.27111 0.09333 0.51801 0.23326 0.74023 0.41992 0.22667 0.18667 0.40432 0.4364 0.5332 0.75195 0.13333 0.31111 0.19922 0.66836 0.19922 1.0684 0 0.32889-0.04392 0.63069-0.13281 0.90625-0.08444 0.27111-0.2024 0.50225-0.35352 0.69336-0.14667 0.19111-0.31953 0.353-0.51953 0.48633-0.2 0.12889-0.41254 0.22489-0.63477 0.28711-0.22222 0.06222-0.45336 0.0918-0.69336 0.0918-0.30222 0-0.58968-0.05012-0.86523-0.15234-0.27111-0.10222-0.51801-0.24834-0.74024-0.43945-0.22222-0.19556-0.39987-0.45344-0.5332-0.77344-0.12889-0.32444-0.19336-0.69072-0.19336-1.0996 0-0.4 0.06447-0.75725 0.19336-1.0684 0.13333-0.31555 0.31098-0.56529 0.5332-0.75195 0.22222-0.18667 0.46912-0.32659 0.74024-0.41992 0.27556-0.09778 0.56301-0.14648 0.86523-0.14648zm-7.3262 0.08008h0.98047v1.9121h2.127v-1.9121h0.9668v4.666h-0.9668v-1.9141h-2.127v1.9141h-0.98047zm10.574 0h0.93359l1.5723 3.3652 1.5137-3.3652h0.93945v4.666h-0.93945v-2.8594l-1.2734 2.7266h-0.55273l-1.2539-2.707v2.8398h-0.93945zm5.9668 0h3.1465v0.83203h-2.168v1.0527h1.8672v0.8418h-1.8672v1.0918h2.168v0.84766h-3.1465zm-9.2148 0.81836c-0.38667 0-0.69945 0.12894-0.93945 0.38672-0.23556 0.25333-0.35352 0.62439-0.35352 1.1133s0.11796 0.87093 0.35352 1.1465c0.24 0.27111 0.54996 0.4082 0.92773 0.4082 0.38222 0 0.69359-0.13709 0.93359-0.4082 0.24444-0.27111 0.36523-0.65315 0.36523-1.1465 0-0.48889-0.11938-0.85995-0.35938-1.1133-0.23556-0.25778-0.54551-0.38672-0.92773-0.38672z" fill="#fff" stroke-width="1.3937"/></svg>
