<?xml version="1.0" encoding="UTF-8" standalone="no"?>
<svg
   width="32"
   height="20"
   viewBox="0 0 32 20"
   fill="none"
   version="1.1"
   id="svg2"
   xml:space="preserve"
   xmlns="http://www.w3.org/2000/svg"
   xmlns:svg="http://www.w3.org/2000/svg"><defs
     id="defs2" /><g
     style="fill:none"
     id="g1"
     transform="translate(0,-6)"><rect
       style="fill:#ffffff;fill-opacity:1;stroke:none;stroke-width:1.39373"
       id="rect2-5"
       width="29"
       height="16"
       x="1.5"
       y="8"
       clip-path="none"
       rx="3" /><path
       style="-inkscape-font-specification:'Motiva Sans Bold';fill:#000000;stroke-width:1.88976;stroke-linejoin:round"
       d="M 10.230001,18.320002 H 9.2633336 V 16.406667 H 7.136666 v 1.913335 H 6.1566655 V 13.653333 H 7.136666 v 1.913334 h 2.1266676 v -1.913334 h 0.9666674 z m 2.386666,-4.600003 q 0.413333,-0.146666 0.866667,-0.146666 0.453333,0 0.86,0.146666 0.406667,0.14 0.74,0.420001 0.340001,0.28 0.533334,0.753333 0.2,0.466667 0.2,1.066667 0,0.493334 -0.133333,0.906668 -0.126667,0.406666 -0.353334,0.693333 -0.22,0.286667 -0.52,0.486667 -0.3,0.193334 -0.633334,0.286667 -0.333333,0.09333 -0.693333,0.09333 -0.453334,0 -0.866667,-0.153333 -0.406667,-0.153333 -0.740001,-0.44 -0.333333,-0.293334 -0.533333,-0.773334 -0.193334,-0.486667 -0.193334,-1.100001 0,-0.6 0.193334,-1.066667 0.2,-0.47333 0.533333,-0.75333 0.333334,-0.280001 0.740001,-0.420001 z m 0.866667,0.753334 q -0.580001,0 -0.940001,0.386667 Q 12.19,15.24 12.19,15.973334 q 0,0.733333 0.353333,1.146667 0.36,0.406667 0.926667,0.406667 0.573334,0 0.933334,-0.406667 0.366667,-0.406667 0.366667,-1.146667 0,-0.733334 -0.36,-1.113334 -0.353334,-0.386667 -0.926667,-0.386667 z m 8.20667,-0.82 v 4.666669 h -0.94 V 15.46 L 19.47667,18.186668 H 18.923336 L 17.670003,15.48 v 2.840002 h -0.940001 v -4.666669 h 0.933334 l 1.573334,3.366668 1.513334,-3.366668 z m 4.153331,0.833333 H 23.676667 V 15.54 h 1.866667 v 0.840001 h -1.866667 v 1.093334 h 2.166668 v 0.846667 h -3.146669 v -4.666669 h 3.146669 z"
       id="text1"
       aria-label="HOME" /></g></svg>
