<svg width="231.21" height="100.12" version="1.1" viewBox="0 0 61.175 26.491" xml:space="preserve" xmlns="http://www.w3.org/2000/svg"><g fill="none" stroke="#899099" stroke-miterlimit="10"><g><g stroke-width=".061383"><path d="m8.732 12.894q7e-3 0 0.016-2e-3l0.016-9e-3m51.996-9.787-0.064-0.135-0.218-0.47m-60.026 0.626-0.087 3.472-0.294 11.755m59.099-17.341a9 9 0 0 1-0.266-0.103c-0.169-0.07-0.328-0.15-0.486-0.23m-3.877-0.341-0.011 0.01-0.284 0.234m0.359-0.278-0.027 0.01-0.036 0.023m0.26 0.246h-0.335m3.014 0.281-0.024-8e-3m1.047 0.534-4e-3 -1e-3 -0.068-0.044m0-1e-3 -3e-3 -2e-3m0.087 0.057-0.012-9e-3m0.429 0.284-0.037-0.024-0.38-0.251m0.499 0.33-0.047-0.031-0.035-0.024m-3.184 6.718-4e-3 7e-3m-47.011 4.515-4e-3 -5e-3m-6.533-4.558q0.129 0.112 0.27 0.21m-0.69 14.399c0.184 0.414 0.489 0.762 0.874 0.999m55.782-22.615q0-0.148-2e-3 -0.29 0-0.14-2e-3 -0.274"/><path d="m58.462 0.692t-6e-3 0.022l-0.026 0.056m-3.817-0.479a0.1 0.1 0 0 0-0.055 0.035m-42.36 25.599v0.016m36.82-24.922v-0.017m0 0.017v-0.017m-36.82 24.923v0.016m-9.858-17.268 0.113-0.164m0.098-4.542 0.094 0.165m-0.133 0.072a2.5 2.5 0 0 0-0.85 0.713 2.5 2.5 0 0 0-0.338 0.588m1.321-1.373q-0.068 0.038-0.133 0.072m-0.265 4.172a2 2 0 0 1 0.206 0.133m-1.237-1.459a2.2 2.2 0 0 0 0.402 0.785 2.3 2.3 0 0 0 0.63 0.54m-0.924-2.87q-0.075 0.182-0.122 0.37a2.35 2.35 0 0 0 0.014 1.175"/><path d="m1.324 5.505a0.2 0.2 0 0 0-0.042-0.031 1 1 0 0 0-0.073-0.04"/><path d="m1.209 5.437a2.7 2.7 0 0 1 0.51-0.815 2.7 2.7 0 0 1 0.751-0.574m0.042 0.156a0.3 0.3 0 0 0-0.042-0.156m-0.25 4.484a2.6 2.6 0 0 1-0.673-0.596 2.5 2.5 0 0 1-0.414-0.788l-0.018-0.059"/><path d="m1.216 7.05-0.038 0.017-0.063 0.022m1.105 1.443a0.23 0.23 0 0 0 0.027-0.156m7.303 0.324 1e-3 -1e-3m-7.211-0.026a4 4 0 0 0-0.12-0.141m53.464-7.895h-0.04m0.28 1e-3h-0.24m1.922 0.337a4.3 4.3 0 0 0-1.682-0.337m2.545 0.79a7 7 0 0 0-0.423-0.243 5 5 0 0 0-0.44-0.21m0.863 0.453-0.017 0.064-0.018 0.07-0.018 0.078-0.02 0.083m-2.857-0.902a6 6 0 0 1 0.761 0.054 5 5 0 0 1 1.102 0.292 4.3 4.3 0 0 1 0.993 0.556m-2.856-0.902 9e-3 -0.017 0.038-0.067 0.039-0.067 0.02-0.033"/><path d="m58.373 1.753a4.3 4.3 0 0 0-1.338-0.675 4.6 4.6 0 0 0-0.74-0.163 5.4 5.4 0 0 0-0.756-0.052m1e-3 -1e-3 -1e-3 -0.04m2.834 0.931 0.022-0.03m-55.575 0a4.3 4.3 0 0 1 1.355-0.683 5.211 5.211 0 0 1 1.502-0.219"/><path d="m5.677 0.862a5.3 5.3 0 0 0-1.49 0.214 4.5 4.5 0 0 0-0.703 0.28 4.2 4.2 0 0 0-0.641 0.397l-0.022-0.03m2.856-0.902v0.041m-3.629 10.902 5e-3 8e-3m0.417-7.724q0.041-0.04 0.081-0.081m8.185-3.105h-5.059m0-0.041h5.066m-7e-3 0.041q2e-3 -0.024 6e-3 -0.04m19.866 0.041v-0.043m0 0.043h-19.872m7e-3 -0.042h19.865m19.865 0q5e-3 0.017 7e-3 0.041m0 1e-3h-19.872m0-0.042h19.866m5.066 0.041h-5.06m-7e-3 -0.041h5.066m-45.614 24.952 0.133 0.14 0.137-0.138-0.134-0.14m-1e-3 -1e-3 -0.135 0.138m-2.974-1.219 0.134 0.141 0.136-0.138-0.133-0.141m-1e-3 0-0.136 0.138m0.932 0.481 0.134 0.141 0.136-0.138-0.133-0.141-0.137 0.138m0.932 0.481 0.134 0.141 0.136-0.138-0.133-0.141m-1e-3 0-0.136 0.138m1.768 0.259 0.134 0.14m0 1e-3 0.136-0.139-0.133-0.14-0.137 0.138m-5.47-4.349 0.134 0.14 0.136-0.138-0.133-0.14m0-1e-3 -0.137 0.139m0.712-0.723 0.134 0.14m1e-3 1e-3 0.135-0.139m1e-3 0-0.134-0.14-0.136 0.138m0.712-0.722 0.133 0.14 0.136-0.138m1e-3 0-0.134-0.141-0.136 0.138m0.712-0.722 0.133 0.14 0.137-0.138m0 1e-3 -0.134-0.142-0.136 0.139m0.712-0.723 0.133 0.14m1e-3 1e-3 0.136-0.139-0.134-0.14-0.136 0.138m-2.76 3.514 0.134 0.141 0.136-0.138m0-1e-3 -0.134-0.14-0.136 0.138m0.698-0.708 0.134 0.14 0.136-0.138-0.134-0.14-0.136 0.138m0.698-0.708 0.133 0.14m1e-3 0 0.136-0.138-0.134-0.14m0-1e-3 -0.136 0.139m0.698-0.709 0.133 0.141m1e-3 0 0.136-0.138-0.134-0.141-0.136 0.138m0.697-0.708 0.134 0.14m0 1e-3 0.137-0.138-0.134-0.141-0.136 0.138m-2.347 3.095 0.133 0.141 0.137-0.138-0.134-0.141-0.136 0.138m0.683-0.694 0.134 0.141 0.136-0.138-0.133-0.14m0-1e-3 -0.137 0.138m0.684-0.693 0.134 0.14 0.136-0.138-0.134-0.14m0-1e-3 -0.136 0.139m0.684-0.694 0.133 0.14m0 1e-3 0.137-0.139-0.134-0.14m0-1e-3 -0.136 0.139m0.683-0.694 0.134 0.14m0 1e-3 0.136-0.139-0.133-0.14-0.137 0.138m-2.227 2.974 0.134 0.14m0 1e-3 0.136-0.139-0.134-0.14m0-1e-3 -0.136 0.139m0.711-0.722 0.134 0.14m1e-3 1e-3 0.135-0.139m0 1e-3 -0.133-0.142-0.136 0.139m0.711-0.722 0.133 0.14m0 1e-3 0.137-0.139-0.134-0.14-0.136 0.138m0.711-0.722 0.134 0.14m0 1e-3 0.136-0.139-0.134-0.14-0.136 0.138m-1.691 2.429 0.134 0.14m0 1e-3 0.136-0.138m1e-3 0-0.134-0.141-0.136 0.138m0.696-0.706 0.133 0.14 0.137-0.138-0.134-0.14m0-1e-3 -0.136 0.139m0.696-0.707 0.134 0.14m0 1e-3 0.136-0.139-0.134-0.14m0-1e-3 -0.136 0.139m0.696-0.707 0.134 0.141 0.136-0.138-0.134-0.14m0-1e-3 -0.136 0.138m-1.274 2.007 0.134 0.14m0 1e-3 0.136-0.139-0.134-0.14m0-1e-3 -0.136 0.139m0.696-0.707 0.134 0.14m0 1e-3 0.136-0.139m1e-3 0-0.134-0.14-0.136 0.138m0.696-0.707 0.134 0.141 0.136-0.138-0.134-0.141-0.136 0.138m-1.642 2.38 0.134 0.14m0 1e-3 0.136-0.139-0.133-0.14m0-1e-3 -0.137 0.139m0.678-0.688 0.134 0.14 0.136-0.138-0.133-0.14m0-1e-3 -0.137 0.139m0.679-0.689 0.133 0.141m0 1e-3 0.136-0.14m1e-3 0-0.134-0.14-0.136 0.138m0.678-0.688 0.133 0.141m0-1e-3 0.136-0.137m1e-3 0-0.134-0.141-0.136 0.138m-1.89 2.631 0.134 0.14m0 1e-3 0.136-0.138-0.133-0.141m-1e-3 0-0.136 0.138m1.072-1.087 0.133 0.141 0.136-0.138m1e-3 0-0.134-0.141m-1e-3 0-0.136 0.138m0.714-0.724 0.134 0.14 0.136-0.138-0.133-0.14m0-1e-3 -0.137 0.139m-0.983 1.71 0.134 0.141 0.136-0.138-0.133-0.141-0.136 0.138m0.346-0.352 0.134 0.141m-1e-3 1e-3 0.137-0.14-0.134-0.14-0.136 0.138m0.693-0.703 0.134 0.14m0 1e-3 0.136-0.139-0.133-0.14-0.136 0.138m-0.597 1.319 0.134 0.14 0.136-0.138-0.134-0.14m0-1e-3 -0.136 0.139m0.336-0.341 0.133 0.14m0 1e-3 0.136-0.138m1e-3 0-0.134-0.141-0.136 0.138m0.67-0.681 0.134 0.141 0.136-0.138-0.133-0.141m-1e-3 0-0.136 0.138m-0.85 1.576 0.134 0.14m1e-3 1e-3 0.136-0.139m-1e-3 0-0.133-0.14-0.136 0.138m1.085-1.101 0.133 0.14m1e-3 1e-3 0.136-0.139m0 1e-3 -0.134-0.141-0.136 0.138m-0.636 1.357 0.135 0.141 0.136-0.138-0.134-0.141-0.136 0.138m1.037-1.052 0.134 0.14 0.136-0.138-0.133-0.14m-1e-3 -1e-3 -0.136 0.139m-0.528 1.249 0.134 0.141 0.136-0.138-0.134-0.141-0.136 0.138m0.915-0.259 0.134 0.14m1e-3 1e-3 0.135-0.139m1e-3 0-0.134-0.14m0-1e-3 -0.136 0.139m-0.331 0.335 0.134 0.14m0 1e-3 0.136-0.138-0.134-0.141-0.136 0.138m0.192-0.865 0.134 0.141m-1e-3 0 0.137-0.138-0.133-0.14m-1e-3 -1e-3 -0.136 0.138m-0.389 0.395 0.134 0.14m0 1e-3 0.136-0.139m1e-3 1e-3 -0.134-0.141-0.136 0.138m-0.207-0.504 0.134 0.14 0.136-0.138m1e-3 0-0.134-0.14m0-1e-3 -0.136 0.139m-0.346 0.351 0.133 0.14 0.137-0.138-0.134-0.14m0-1e-3 -0.136 0.138m-0.073-0.639 0.134 0.14m0 1e-3 0.136-0.139-0.134-0.14-0.136 0.138m-0.362 0.366 0.134 0.142 0.136-0.139-0.133-0.14-0.137 0.138m0.153-0.868 0.133 0.14m1e-3 1e-3 0.136-0.139-0.134-0.14m0-1e-3 -0.136 0.139m-1.006 1.021 0.133 0.14m0 1e-3 0.137-0.139-0.134-0.14-0.136 0.138m1.278-2.011 0.134 0.14m-1e-3 1e-3 0.137-0.138m0-1e-3 -0.134-0.14-0.136 0.138m-0.693 0.704 0.133 0.14m1e-3 0 0.136-0.138m0 1e-3 -0.134-0.142-0.136 0.139m-1.04 1.055 0.134 0.14m0 1e-3 0.136-0.138-0.134-0.141-0.136 0.138m1.686-2.425 0.134 0.141 0.136-0.138-0.134-0.141-0.136 0.138m-0.714 0.725 0.134 0.14m0 1e-3 0.136-0.139-0.133-0.14m-1e-3 0-0.136 0.138m-0.714 0.725 0.134 0.14 0.136-0.138-0.133-0.14m-1e-3 -1e-3 -0.136 0.139m-0.357 0.362 0.134 0.14m0 1e-3 0.136-0.139-0.133-0.14m-1e-3 -1e-3 -0.136 0.139m1.193-1.925 0.134 0.141 0.136-0.138m1e-3 0-0.134-0.141-0.136 0.138m-0.679 0.688 0.134 0.141 0.136-0.138-0.133-0.14m0-1e-3 -0.137 0.138m-0.678 0.688 0.134 0.141 0.136-0.138-0.133-0.14m0-1e-3 -0.137 0.139m-0.678 0.688 0.134 0.14m0 1e-3 0.136-0.139-0.133-0.14m-1e-3 -1e-3 -0.136 0.139m1.633-2.37 0.133 0.14m0 1e-3 0.137-0.139-0.134-0.14m0-1e-3 -0.136 0.139m-0.697 0.706 0.134 0.141 0.136-0.138-0.133-0.14m0-1e-3 -0.137 0.138m-0.696 0.707 0.134 0.141 0.136-0.138-0.134-0.141-0.136 0.138m-0.348 0.354 0.133 0.14m1e-3 0 0.136-0.138-0.134-0.14m0-1e-3 -0.136 0.139m1.622-2.36 0.134 0.14 0.136-0.138-0.134-0.14m0-1e-3 -0.136 0.139m-0.696 0.706 0.133 0.141m1e-3 0 0.136-0.138-0.134-0.141-0.136 0.138m-0.696 0.707 0.133 0.14m1e-3 1e-3 0.136-0.139-0.134-0.14m0-1e-3 -0.136 0.139m-0.696 0.706 0.133 0.141 0.136-0.138m1e-3 0-0.134-0.14m0-1e-3 -0.137 0.138m1.683-2.421 0.134 0.14m0 1e-3 0.136-0.139-0.133-0.14-0.137 0.138m-0.711 0.722 0.134 0.14m0 1e-3 0.136-0.139-0.134-0.14-0.136 0.138m-0.711 0.722 0.133 0.14m1e-3 1e-3 0.136-0.139-0.134-0.14-0.136 0.138m-0.712 0.722 0.134 0.14 0.136-0.138m1e-3 0-0.134-0.14m0-1e-3 -0.136 0.139m2.241-2.988 0.133 0.14m0 1e-3 0.137-0.139-0.134-0.14m0-1e-3 -0.136 0.139m-0.684 0.694 0.134 0.14 0.136-0.138-0.134-0.14m0-1e-3 -0.136 0.139m-0.684 0.694 0.134 0.14 0.136-0.138-0.133-0.14m-1e-3 -1e-3 -0.136 0.138m-0.684 0.694 0.134 0.141 0.136-0.138m1e-3 0-0.134-0.141-0.136 0.138m-0.684 0.694 0.133 0.141m1e-3 0 0.136-0.138-0.134-0.141-0.136 0.138m2.34-3.087 0.133 0.14 0.137-0.138-0.134-0.141m-1e-3 -1e-3 -0.135 0.14m-0.698 0.707 0.133 0.141 0.137-0.138-0.134-0.14-0.136 0.137m-0.698 0.709 0.133 0.14m1e-3 1e-3 0.136-0.139-0.134-0.14m0-1e-3 -0.136 0.139m-0.699 0.708 0.135 0.14m0 1e-3 0.136-0.139-0.134-0.14-0.136 0.138m2.844-2.887-0.053 0.054m0-1e-3 0.134 0.142m0.39 0.932-0.086-0.09-0.136 0.138 0.133 0.14m0 1e-3 0.118-0.12m0.337 0.809-0.079 0.08 0.134 0.14m0 1e-3 0.026-0.027m0.547 1.309-0.016 0.016 0.04 0.043m0.241 0.578-0.093-0.098-0.136 0.138 0.133 0.14m1e-3 1e-3 0.12-0.122m0.128 0.306-0.12 0.123m-1e-3 0 0.134 0.14m-1e-3 0 0.069-0.068m0.798 1.911-0.112-0.118-0.136 0.139m-1e-3 0 0.134 0.14 0.128-0.13m0.115 0.277-0.043 0.044 0.11 0.116m-4.717-2.167 3e-3 -2e-3m-1e-3 -1e-3 -0.133-0.14m0-1e-3 -0.035 0.036m-1.555-1.149 0.073 0.076 0.136-0.138-0.134-0.141m1e-3 0-0.12 0.121m2.736-3.49 0.133 0.141m1e-3 0 0.136-0.138-0.134-0.141-0.136 0.138m-0.712 0.723 0.133 0.14m0 1e-3 0.137-0.139-0.134-0.14-0.136 0.138m-0.713 0.722 0.134 0.141 0.136-0.138m1e-3 0-0.134-0.14m0-1e-3 -0.136 0.139m-0.712 0.722 0.133 0.141 0.136-0.138m1e-3 0-0.134-0.141-0.137 0.138m-0.712 0.723 0.134 0.14m0 1e-3 0.136-0.138-0.133-0.141-0.137 0.138m4.524 3.97 0.134 0.14 0.136-0.138-0.133-0.14m0-1e-3 -0.137 0.139m-0.931-0.481 0.133 0.14m0 1e-3 0.136-0.139m1e-3 0-0.134-0.14m-1e-3 -1e-3 -0.136 0.139m-0.932-0.481 0.134 0.14m0 1e-3 0.136-0.139-0.133-0.14m-1e-3 0-0.136 0.138m-0.932-0.481 0.134 0.14m0 1e-3 0.136-0.139-0.133-0.14m-1e-3 0-0.136 0.138m-4.36-6.99 0.134 0.14m1e-3 1e-3 0.135-0.139m1e-3 0-0.134-0.14-0.136 0.138m0.073-1.501 0.133 0.14m0 1e-3 0.137-0.139-0.134-0.14-0.136 0.138m0.073-1.501 0.133 0.14m0 1e-3 0.137-0.139-0.134-0.14-0.136 0.138m0.135-1.564 0.134 0.14m-1e-3 0 0.137-0.138m0 1e-3 -0.134-0.142-0.136 0.139m2.184 8.484-0.136 0.138m0 1e-3 0.134 0.14 0.136-0.138-0.134-0.141m0.708-0.718-0.136 0.138 0.133 0.141 0.136-0.138m1e-3 0-0.134-0.141m0.707-0.718-0.136 0.138 0.134 0.141 0.136-0.138-0.134-0.141m0.708-0.718-0.136 0.138m-1e-3 0 0.134 0.141 0.136-0.138m1e-3 0-0.134-0.141m0.707-0.717-0.136 0.137 0.134 0.141 0.136-0.138-0.134-0.141m-4.871-3.617 0.134 0.14 0.136-0.138-0.133-0.14m0-1e-3 -0.137 0.138m0.63-0.639 0.135 0.14 0.136-0.138-0.134-0.14m0-1e-3 -0.136 0.138m-0.624-0.793 0.134 0.14m-1e-3 1e-3 0.137-0.139-0.134-0.14-0.136 0.138m1.913 7.332-0.136 0.138 0.134 0.141m0 1e-3 0.136-0.14-0.133-0.14m0.739-0.75-0.136 0.138 0.134 0.14 0.136-0.138-0.134-0.14m0.74-0.751-0.136 0.138 0.134 0.14m0 1e-3 0.136-0.139m0 1e-3 -0.134-0.141m0.74-0.751-0.136 0.138 0.133 0.14m0 1e-3 0.137-0.138-0.134-0.141m0.74-0.751-0.136 0.138m-1e-3 0 0.134 0.141 0.136-0.138m1e-3 0-0.134-0.141m-4.279-4.219 0.134 0.141m0 1e-3 0.136-0.139m0-1e-3 -0.134-0.14-0.136 0.138m1.456 6.37-0.136 0.138 0.134 0.141 0.136-0.138-0.134-0.141m0.708-0.718-0.136 0.138 0.133 0.14m1e-3 1e-3 0.136-0.139-0.134-0.14m0.708-0.719-0.136 0.139 0.133 0.14 0.137-0.138-0.134-0.14m0.707-0.719-0.136 0.138 0.134 0.141 0.136-0.138-0.133-0.141m-2.965 2.296-0.136 0.138 0.133 0.14m0 1e-3 0.137-0.139m0 1e-3 -0.134-0.141m0.744-0.755-0.137 0.138 0.134 0.141 0.136-0.138-0.134-0.14m0.744-0.755-0.137 0.138 0.134 0.14m0 1e-3 0.136-0.139-0.133-0.14m0.743-0.755-0.136 0.139 0.133 0.14 0.137-0.138-0.134-0.14m0.744-0.756-0.137 0.14 0.134 0.14 0.136-0.138-0.134-0.141m-2.823 2.152-0.137 0.139m1e-3 0 0.133 0.14 0.136-0.138m1e-3 0-0.134-0.14m0.708-0.719-0.136 0.138m-1e-3 0 0.134 0.14m0 1e-3 0.136-0.139m1e-3 0-0.134-0.14m0.708-0.719-0.136 0.138 0.133 0.14m1e-3 1e-3 0.136-0.138-0.134-0.141m0.708-0.719-0.136 0.138 0.133 0.141m1e-3 0 0.136-0.138-0.134-0.14m-2.608 1.932-0.136 0.139m0 1e-3 0.133 0.14m1e-3 0 0.136-0.138-0.134-0.141m0.748-0.759-0.137 0.138 0.134 0.141m0-1e-3 0.136-0.137-0.133-0.141m0.747-0.759-0.136 0.138 0.134 0.141 0.136-0.138-0.134-0.141m0.748-0.759-0.136 0.138 0.133 0.141m1e-3 0 0.136-0.138-0.134-0.14m-2.451 1.774-0.137 0.138 0.134 0.14m0 1e-3 0.136-0.138-0.133-0.141m0.354-0.359-0.136 0.137m0 1e-3 0.133 0.14 0.137-0.138-0.134-0.14m0.708-0.72-0.136 0.138 0.134 0.141m0 1e-3 0.136-0.14-0.133-0.14m0.708-0.72-0.136 0.14 0.133 0.14m1e-3 0 0.136-0.138-0.134-0.141m0.709-0.719-0.136 0.138m-1e-3 0 0.134 0.14 0.136-0.138m1e-3 0-0.134-0.14m-2.019 1.335-0.136 0.139m-1e-3 0 0.134 0.14 0.136-0.138m1e-3 0-0.134-0.14m0.669-0.68-0.136 0.138 0.134 0.14m0 1e-3 0.136-0.138-0.134-0.141m0.67-0.68-0.136 0.139m-1e-3 0 0.134 0.14 0.136-0.138m1e-3 1e-3 -0.134-0.142m-2.238 1.558 0.134 0.14m0 1e-3 0.136-0.139-0.134-0.14-0.136 0.138m0.349-0.354 0.133 0.141 0.136-0.138m1e-3 0-0.134-0.141m-1e-3 0-0.135 0.138m0.696-0.707 0.134 0.14m0 1e-3 0.136-0.139m1e-3 0-0.134-0.14-0.136 0.138m0.697-0.707 0.133 0.14 0.136-0.138m1e-3 0-0.134-0.14q-0.069 0.067-0.136 0.138m-1.716 1.027 0.134 0.14m0 1e-3 0.136-0.138-0.134-0.141m1e-3 0-0.137 0.138m0.344-0.349 0.133 0.141 0.137-0.138-0.134-0.141-0.136 0.138m0.687-0.697 0.134 0.14m0 1e-3 0.136-0.139m0-1e-3 -0.133-0.14m-1e-3 0-0.136 0.138m0.688-0.698 0.134 0.142 0.136-0.139-0.134-0.14m0-1e-3 -0.136 0.139m-2.032 1.349 0.133 0.14q0.069-0.068 0.136-0.138m1e-3 0-0.134-0.14-0.136 0.138m1.012-1.027 0.133 0.14m1e-3 0 0.136-0.138-0.134-0.14m0-1e-3 -0.136 0.139m0.675-0.685 0.133 0.14 0.137-0.138-0.134-0.14-0.136 0.138m-1.66 0.971 0.134 0.14m-1e-3 1e-3 0.137-0.14-0.133-0.14m-1e-3 0-0.136 0.138m0.986-1 0.134 0.14m0 1e-3 0.136-0.138m0-1e-3 -0.134-0.14m1e-3 0-0.137 0.138m0.328-0.333 0.134 0.14 0.136-0.138m1e-3 0-0.134-0.14m0-1e-3 -0.136 0.139m-0.658 0.667 0.134 0.14 0.136-0.138-0.133-0.14m-1e-3 -1e-3 -0.136 0.139m-0.328 0.333 0.133 0.14m1e-3 1e-3 0.136-0.139-0.134-0.14-0.136 0.138m0.994-0.295 0.133 0.14 0.136-0.137m1e-3 0-0.134-0.141m-1e-3 0-0.136 0.138m-0.675 0.685 0.134 0.14m0 1e-3 0.136-0.138m0-1e-3 -0.133-0.14m-1e-3 0-0.136 0.138m-0.337 0.343 0.134 0.14m-1e-3 0 0.137-0.138-0.134-0.14-0.136 0.137m1.351-0.657 0.134 0.14 0.136-0.138-0.134-0.14m0-1e-3 -0.136 0.139m-0.688 0.697 0.134 0.141 0.137-0.138m-1e-3 0-0.133-0.141m0 1e-3 -0.136 0.137m-1.031 1.047 0.133 0.14m0 1e-3 0.136-0.139m1e-3 0-0.134-0.14-0.137 0.138m2.408-1.73 0.134 0.14m-1e-3 1e-3 0.137-0.139-0.134-0.14-0.136 0.138m-0.697 0.707 0.134 0.141 0.136-0.138-0.134-0.141-0.136 0.138m-0.697 0.708 0.134 0.14m0 1e-3 0.136-0.139-0.134-0.14m1e-3 -1e-3 -0.137 0.139m-1.046 1.061 0.134 0.14 0.136-0.138m1e-3 0-0.134-0.14m0-1e-3 -0.136 0.139m2.921-2.251-0.137 0.138 0.134 0.14m0 1e-3 0.136-0.139m0 1e-3 -0.133-0.141m-0.67 0.679-0.136 0.138 0.133 0.141m1e-3 0 0.136-0.138-0.134-0.141m-0.669 0.68-0.137 0.138 0.134 0.14m0 1e-3 0.136-0.139-0.133-0.14m-0.67 0.679-0.136 0.138 0.133 0.141 0.137-0.138-0.134-0.141m-0.335 0.34-0.136 0.138 0.134 0.14m0 1e-3 0.136-0.138-0.134-0.141m2.335-1.656-0.137 0.139 0.134 0.14 0.136-0.138-0.133-0.14m-0.71 0.718-0.135 0.139m-1e-3 0 0.134 0.14m0 1e-3 0.136-0.139m1e-3 0-0.134-0.14m-0.709 0.719-0.136 0.138 0.134 0.14m0 1e-3 0.136-0.139-0.134-0.14m2.117-1.435-0.136 0.138 0.133 0.14m0 1e-3 0.137-0.138m0-1e-3 -0.134-0.14m-0.748 0.759-0.136 0.138 0.134 0.14m0 1e-3 0.136-0.139-0.134-0.14m-0.748 0.758-0.136 0.139m0-1e-3 0.134 0.142m-1e-3 0 0.137-0.139-0.133-0.14m-0.748 0.758-0.136 0.139 0.133 0.14 0.136-0.138m1e-3 0-0.134-0.14m2.588-1.914-0.136 0.138 0.134 0.14m0 1e-3 0.136-0.138-0.134-0.141m-0.708 0.719-0.136 0.138 0.133 0.14m0 1e-3 0.137-0.139-0.134-0.14m-0.708 0.718-0.136 0.138m-1e-3 1e-3 0.134 0.14 0.137-0.138-0.134-0.14m-0.708 0.718-0.137 0.138 0.134 0.141 0.136-0.138-0.133-0.141m-0.709 0.719-0.136 0.138m0-1e-3 0.134 0.142 0.136-0.139-0.133-0.14m2.806-2.135-0.137 0.138 0.134 0.141 0.136-0.138-0.133-0.141m-0.744 0.755-0.136 0.138m0-1e-3 0.134 0.142 0.136-0.139-0.134-0.14m-0.744 0.754-0.135 0.138 0.133 0.141 0.137-0.138-0.134-0.141m-0.743 0.754-0.138 0.139m1e-3 0 0.134 0.14 0.136-0.138-0.133-0.14m2.947-2.278-0.137 0.138 0.134 0.141 0.136-0.138-0.133-0.141m-0.708 0.718-0.136 0.139m-1e-3 -1e-3 0.134 0.141 0.136-0.138-0.133-0.14m-0.708 0.717-0.136 0.139 0.133 0.14m0 1e-3 0.137-0.139-0.134-0.14m-0.708 0.718-0.136 0.138 0.134 0.14m0 1e-3 0.136-0.138-0.134-0.141m-0.708 0.718-0.136 0.138m0 1e-3 0.134 0.14m-1e-3 0 0.137-0.138-0.133-0.14m-1.448-7.093 0.133 0.141m1e-3 0 0.136-0.138-0.134-0.14m0-1e-3 -0.136 0.138m0.052 0.661 0.134 0.14m0 1e-3 0.136-0.139-0.134-0.14-0.136 0.138m4.202 4.296-0.136 0.139m0-1e-3 0.133 0.142m0-1e-3 0.137-0.138-0.134-0.14m-0.74 0.75-0.136 0.138m0 1e-3 0.133 0.14m1e-3 0 0.136-0.138-0.134-0.14m-0.74 0.75-0.136 0.138 0.134 0.141 0.136-0.138-0.134-0.141m-0.74 0.751-0.136 0.138 0.134 0.14m0 1e-3 0.136-0.138-0.133-0.141m-0.871 0.446 0.063-0.064-0.133-0.14m0-1e-3 -0.027 0.027m-0.9-1.664 0.03-0.03m0 1e-3 -0.106-0.112m-0.173-0.32 0.09-0.09m0-1e-3 -0.133-0.14m-1e-3 0-0.052 0.053m1.592 2.942 0.015-0.016-0.055-0.058m-0.684-7.316 0.134 0.14 0.136-0.138-0.133-0.14m-1e-3 -1e-3 -0.136 0.139m-0.63 0.64 0.133 0.14m1e-3 0 0.136-0.138-0.134-0.14m0-1e-3 -0.136 0.139m4.909 3.578-0.136 0.138 0.133 0.141m0 1e-3 0.137-0.14-0.134-0.14m-0.708 0.718-0.136 0.138 0.134 0.141 0.136-0.138-0.133-0.141m-0.708 0.718-0.136 0.138 0.133 0.141m1e-3 0 0.136-0.138-0.134-0.141m-0.707 0.718-0.137 0.138 0.134 0.141 0.136-0.138-0.133-0.141m-0.708 0.718-0.136 0.138 0.133 0.141m1e-3 0 0.136-0.138-0.134-0.141m-2.38-6.858 0.133 0.14m1e-3 0 0.136-0.138-0.134-0.14m0-1e-3 -0.136 0.138m-0.257-0.453 0.134 0.141 0.136-0.138-0.133-0.14m-1e-3 -1e-3 -0.136 0.138m-0.073 1.501 0.134 0.141 0.136-0.138-0.134-0.14m0-1e-3 -0.136 0.138m-0.073 1.501 0.134 0.141 0.136-0.138-0.134-0.14m0-1e-3 -0.136 0.138m56.624-4.628-0.134 0.14m-2e-3 -0.279 0.136 0.139m-0.27 2e-3 0.133-0.14m3e-3 0.278-0.136-0.138m-1.282 1.629-0.136-0.138m0.27-2e-3 -0.134 0.14m-2e-3 -0.279 0.136 0.139m-0.27 2e-3 0.134-0.14m0.348-0.085-0.137-0.138m0.27-2e-3 -0.133 0.14m-3e-3 -0.279 0.136 0.139m-0.27 2e-3 0.134-0.14m0.348-0.084-0.136-0.139m0.27-2e-3 -0.134 0.14m-3e-3 -0.279 0.136 0.139m-0.27 2e-3 0.134-0.14m-2.068 2.457-0.137-0.139m0.27-2e-3 -0.133 0.14m-3e-3 -0.278 0.136 0.138m-0.27 3e-3 0.134-0.141m0.348-0.084-0.136-0.139m0.27-2e-3 -0.134 0.14m-3e-3 -0.278 0.136 0.138m-0.27 2e-3 0.134-0.14m0.348-0.084-0.136-0.139m0.27-3e-3 -0.134 0.142m-3e-3 -0.279 0.137 0.138m-0.27 2e-3 0.133-0.14m0.349-0.084-0.137-0.139m0.27-2e-3 -0.134 0.14m-2e-3 -0.278 0.136 0.138m-0.27 2e-3 0.134-0.14m-4e-3 -0.441-0.136-0.139m0.27-2e-3 -0.134 0.14m-3e-3 -0.278 0.136 0.138m-0.27 2e-3 0.134-0.14m0.348-0.084-0.136-0.139m0.27-2e-3 -0.134 0.14m-3e-3 -0.279 0.137 0.139m-0.27 2e-3 0.133-0.14m0.348-0.085-0.136-0.138m0.27-2e-3 -0.134 0.14m-3e-3 -0.279 0.137 0.139m-0.27 2e-3 0.134-0.14m-2.069 2.456-0.136-0.137m0.27-3e-3 -0.134 0.14m-2e-3 -0.278 0.136 0.138m-0.27 3e-3 0.133-0.141m0.348-0.084-0.136-0.138m0.269-3e-3 -0.133 0.14m-2e-3 -0.278 0.136 0.138m-0.271 3e-3 0.135-0.141m0.347-0.084-0.136-0.139m0.27-2e-3 -0.134 0.14m-2e-3 -0.278 0.136 0.138m-0.27 2e-3 0.134-0.14m0.348-0.084-0.137-0.139m0.27-3e-3 -0.133 0.142m-3e-3 -0.279 0.136 0.138m-0.27 2e-3 0.134-0.14m-4e-3 -0.441-0.136-0.139m0.27-2e-3 -0.134 0.14m-2e-3 -0.278 0.136 0.138m-0.27 2e-3 0.134-0.14m0.347-0.084-0.136-0.139m0.27-2e-3 -0.134 0.14m-2e-3 -0.278 0.136 0.138m-0.27 2e-3 0.134-0.14m0.348-0.084-0.137-0.139m0.27-2e-3 -0.133 0.14m-3e-3 -0.278 0.136 0.138m-0.27 2e-3 0.134-0.14m-2.069 2.457-0.136-0.138m0.27-3e-3 -0.134 0.141m-2e-3 -0.279 0.136 0.138m-0.27 3e-3 0.134-0.141m0.348-0.084-0.137-0.138m0.271-3e-3 -0.134 0.14m-3e-3 -0.278 0.136 0.138m-0.269 3e-3 0.133-0.141m0.347-0.084-0.135-0.138m0.27-3e-3 -0.134 0.14m-3e-3 -0.278 0.136 0.138m-0.27 3e-3 0.134-0.141m0.348-0.084-0.136-0.138m0.27-3e-3 -0.134 0.14m-3e-3 -0.278 0.137 0.138m-0.27 2e-3 0.133-0.14m-3e-3 -0.441-0.137-0.138m0.27-3e-3 -0.133 0.14m-3e-3 -0.278 0.136 0.138m-0.27 3e-3 0.134-0.141m0.348-0.084-0.136-0.138m0.27-3e-3 -0.134 0.14m-3e-3 -0.278 0.136 0.138m-0.27 2e-3 0.134-0.14m0.348-0.084-0.136-0.139m0.27-2e-3 -0.134 0.14m-3e-3 -0.278 0.137 0.138m-0.27 2e-3 0.133-0.14m-2.068 2.457-0.137-0.138m0.27-3e-3 -0.133 0.141m-3e-3 -0.279 0.136 0.138m-0.27 3e-3 0.134-0.14m0.348-0.085-0.136-0.138m0.27-3e-3 -0.134 0.141m-3e-3 -0.279 0.137 0.138m-0.27 3e-3 0.133-0.141m0.349-0.084-0.137-0.138m0.27-3e-3 -0.134 0.141m-2e-3 -0.279 0.136 0.138m-0.27 3e-3 0.133-0.141m0.348-0.084-0.136-0.138m0.27-3e-3 -0.134 0.141m-2e-3 -0.279 0.136 0.138m-0.27 3e-3 0.134-0.141m-4e-3 -0.441-0.136-0.138m0.27-3e-3 -0.134 0.141m-3e-3 -0.279 0.137 0.138m-0.27 3e-3 0.133-0.141m0.348-0.084-0.136-0.138m0.27-3e-3 -0.134 0.141m-3e-3 -0.279 0.137 0.138m-0.27 3e-3 0.133-0.141m0.348-0.084-0.136-0.138m0.27-3e-3 -0.134 0.14m-2e-3 -0.278 0.136 0.138m-0.27 3e-3 0.134-0.141m-3.316 3.769-0.134 0.14m-2e-3 -0.278 0.136 0.138m-0.27 2e-3 0.134-0.14m2e-3 0.279-0.136-0.139m0.615-0.365-0.133 0.14m-3e-3 -0.279 0.136 0.139m-0.27 2e-3 0.134-0.14m2e-3 0.279-0.136-0.139m0.615-0.365-0.133 0.14m-3e-3 -0.279 0.136 0.139m-0.27 2e-3 0.134-0.14m3e-3 0.278-0.137-0.138m0.616-0.365-0.134 0.14m-2e-3 -0.279 0.136 0.139m-0.27 2e-3 0.133-0.14m3e-3 0.278-0.136-0.138m0.481-0.225-0.136-0.138m0.269-2e-3 -0.133 0.14m-2e-3 -0.279 0.136 0.139m-0.271 2e-3 0.134-0.14m0.348-0.085-0.136-0.138m0.27-3e-3 -0.134 0.141m-2e-3 -0.279 0.136 0.138m-0.27 3e-3 0.134-0.14m0.347-0.085-0.136-0.138m0.27-3e-3 -0.133 0.141m-3e-3 -0.279 0.136 0.138m-0.27 3e-3 0.134-0.14m0.348-0.085-0.137-0.138m0.27-3e-3 -0.133 0.141m-3e-3 -0.279 0.136 0.138m-0.27 3e-3 0.134-0.141m3.238-1.671-0.133 0.14m-3e-3 -0.278 0.136 0.138m-0.27 3e-3 0.134-0.141m3e-3 0.279-0.136-0.138m0.303 0.688-0.134 0.141m-2e-3 -0.279 0.136 0.138m-0.27 3e-3 0.134-0.14m2e-3 0.278-0.136-0.138m0.203-1.385-0.134 0.14m-2e-3 -0.278 0.136 0.138m-0.27 2e-3 0.133-0.14m3e-3 0.278-0.136-0.138m0.236-0.693-0.133 0.14m-3e-3 -0.279 0.136 0.139m-0.27 2e-3 0.134-0.14m2e-3 0.279-0.136-0.139m-0.107 3.309-0.136-0.137m0.27-3e-3 -0.133 0.14m-3e-3 -0.278 0.136 0.138m-0.27 2e-3 0.134-0.14m-0.703-0.437-0.136-0.138m0.27-3e-3 -0.134 0.14m-3e-3 -0.278 0.137 0.138m-0.27 2e-3 0.133-0.14m0.356 0.637-0.136-0.139m0.27-2e-3 -0.134 0.14m-2e-3 -0.278 0.135 0.138m-0.27 2e-3 0.134-0.14m-0.703-0.437-0.136-0.138m0.27-3e-3 -0.134 0.14m-2e-3 -0.278 0.136 0.138m-0.27 2e-3 0.134-0.14m-0.351-0.079-0.136-0.138m0.27-3e-3 -0.133 0.14m-3e-3 -0.278 0.136 0.138m-0.27 2e-3 0.134-0.14m1.222 0.45-0.134 0.14m-3e-3 -0.278 0.136 0.138m-0.27 2e-3 0.134-0.14m3e-3 0.278-0.136-0.137m0.621 0.354-0.134 0.14m-2e-3 -0.278 0.136 0.138m-0.27 3e-3 0.134-0.141m2e-3 0.279-0.136-0.139m-0.434-0.716-0.133 0.14m-2e-3 -0.278 0.136 0.138m-0.271 3e-3 0.134-0.141m3e-3 0.279-0.136-0.138m-0.081-0.36-0.134 0.141m-3e-3 -0.279 0.136 0.138m-0.269 3e-3 0.133-0.141m2e-3 0.279-0.136-0.138m0.94 0.02-0.134 0.14m-2e-3 -0.279 0.136 0.139m-0.27 2e-3 0.133-0.14m3e-3 0.279-0.136-0.139m0.621 0.355-0.133 0.14m-3e-3 -0.279 0.136 0.139m-0.27 2e-3 0.134-0.14m3e-3 0.278-0.136-0.138m-0.434-0.716-0.133 0.14m-3e-3 -0.278 0.136 0.138m-0.27 2e-3 0.134-0.14m2e-3 0.279-0.136-0.139m0.588-0.337-0.133 0.141m-3e-3 -0.278 0.136 0.137m-0.27 3e-3 0.134-0.14m2e-3 0.278-0.136-0.138m0.622 0.354-0.134 0.141m-3e-3 -0.279 0.137 0.138m-0.27 3e-3 0.133-0.141m3e-3 0.279-0.136-0.138m0.236-0.694-0.133 0.14m-3e-3 -0.278 0.136 0.138m-0.27 2e-3 0.134-0.14m3e-3 0.279-0.137-0.139m-4.987 7.411 7e-3 7e-3 0.136 0.138 0.352 0.357m-0.629-0.361 0.134-0.141m0.361 0.644-0.136-0.14-0.215-0.218-0.137-0.138-7e-3 -7e-3m0.628 0.361-0.133 0.141m-0.367-2.076 0.136 0.139 0.216 0.218 0.136 0.139 7e-3 7e-3m-0.629-0.362 0.134-0.14m0.361 0.643-7e-3 -7e-3 -0.136-0.139-0.352-0.356m0.629 0.361-0.133 0.14m0.687-0.292 0.136 0.138m-0.136-0.138-0.216-0.219m-0.136-0.138 0.136 0.139m-0.136-0.139-0.215-0.218m-0.137-0.139 0.137 0.139m-0.27 2e-3 0.133-0.14m3e-3 0.279-0.136-0.139m0.136 0.139 0.215 0.218m0.137 0.138-0.137-0.138m0.137 0.138 0.215 0.219m0.136 0.138-0.136-0.138m0.136 0.138 0.215 0.219m0.137 0.138-0.136-0.138m0.27-2e-3 -0.134 0.14m-3e-3 -0.28 0.136 0.14m-0.136-0.14-0.215-0.218m-1.534-0.566-0.048-0.05m0.182-0.091-0.134 0.14m-2e-3 -0.278 0.136 0.138m-0.206-0.065 0.07-0.073m5.796-13.277-0.142-0.107m0.197 0.153-0.055-0.047m-5.423 16.073-0.037-0.037m0.171-0.103-0.134 0.14m-0.087-0.364 0.084 0.085 0.137 0.139m0.69-0.727-0.134 0.141m-0.016-1.006 7e-3 7e-3 0.136 0.138 0.352 0.357m-0.629-0.362 0.134-0.14m0.362 0.643-0.137-0.138-0.215-0.219-0.136-0.138-7e-3 -7e-3m0.628 0.361-0.133 0.141m-6e-3 -1.433-7e-3 -6e-3 -0.136-0.139m0.277 5e-3 -0.134 0.14m-0.01-0.286 0.136 0.138 7e-3 7e-3m-0.143-0.145-0.215-0.219m-0.137-0.138 0.137 0.139m-0.27 2e-3 0.133-0.14m3e-3 0.278-0.136-0.138m0.136 0.138 0.215 0.22m0.479 0.208 7e-3 7e-3 0.136 0.138m-0.277-5e-3 0.134-0.14m9e-3 0.286-0.136-0.138-7e-3 -7e-3m0.143 0.145 0.215 0.219m0.137 0.138-0.136-0.138m0.27-3e-3 -0.134 0.141m-3e-3 -0.279 0.137 0.138m-0.137-0.138-0.215-0.219m0.209-0.501 0.136 0.138m-0.136-0.138-0.215-0.219m-0.137-0.138 0.137 0.138m-0.137-0.138-0.215-0.219m-0.136-0.138 0.136 0.139m-0.27 2e-3 0.134-0.14m2e-3 0.278-0.136-0.138m0.136 0.138 0.215 0.219m0.137 0.138-0.136-0.138m0.136 0.138 0.215 0.219m0.137 0.138-0.137-0.138m0.137 0.138 0.215 0.219m0.136 0.138-0.136-0.138m0.27-3e-3 -0.134 0.14m-3e-3 -0.278 0.137 0.138m-0.137-0.138q-0.106-0.11-0.215-0.219m0.202-0.508 7e-3 7e-3 0.136 0.138m-0.277-5e-3 0.134-0.14m0.01 0.286-0.136-0.138-7e-3 -7e-3m0.143 0.145 0.215 0.219m0.136 0.137-0.136-0.138m0.27-2e-3 -0.134 0.14m-2e-3 -0.278 0.136 0.138m-0.136-0.138-0.215-0.219m-0.84-0.852 0.136 0.138m-0.27 3e-3 0.134-0.14m2e-3 0.278-0.136-0.138m0.136 0.138 0.216 0.219m0.143 0.145-7e-3 -7e-3 -0.136-0.138m0.277 5e-3 -0.134 0.14m-9e-3 -0.286 0.136 0.138 7e-3 7e-3m-0.143-0.145-0.216-0.219m-1.837 1.704q0.584 0.59 1.166 1.183m-0.134 0.14-0.982-0.997m-50.236-4.125-0.134-0.14m0.27 2e-3 -0.136 0.138m3e-3 -0.279 0.133 0.141m-0.27-2e-3 0.136-0.139m1.552 1.632-0.136 0.138m2e-3 -0.279 0.134 0.141m-0.27-2e-3 0.136-0.139m-2e-3 0.279-0.134-0.14m-0.075-0.361-0.136 0.138m2e-3 -0.279 0.134 0.141m-0.27-2e-3 0.136-0.139m-3e-3 0.279-0.133-0.14m-0.075-0.361-0.137 0.138m3e-3 -0.279 0.133 0.141m-0.27-2e-3 0.137-0.139m-3e-3 0.28-0.133-0.141m2.341 2.181-0.136 0.138m2e-3 -0.279 0.134 0.14m-0.27-2e-3 0.136-0.138m-3e-3 0.279-0.133-0.141m-0.075-0.361-0.137 0.139m3e-3 -0.279 0.133 0.14m-0.27-2e-3 0.137-0.138m-3e-3 0.279-0.133-0.141m-0.076-0.361-0.136 0.139m3e-3 -0.279 0.133 0.14m-0.27-3e-3 0.136-0.137m-2e-3 0.279-0.134-0.141m-0.075-0.361-0.136 0.138m3e-3 -0.278 0.133 0.14m-0.27-2e-3 0.136-0.139m-2e-3 0.28-0.134-0.141m0.277-0.718-0.137 0.139m3e-3 -0.279 0.133 0.14m-0.269-2e-3 0.136-0.138m-3e-3 0.279-0.133-0.141m-0.076-0.361-0.136 0.138m2e-3 -0.279 0.134 0.141m-0.27-2e-3 0.136-0.139m-2e-3 0.28-0.134-0.141m-0.074-0.361-0.137 0.138m2e-3 -0.279 0.134 0.141m-0.27-2e-3 0.136-0.139m-2e-3 0.279-0.134-0.14m2.341 2.181-0.136 0.138m3e-3 -0.279 0.133 0.14m-0.27-2e-3 0.136-0.138m-2e-3 0.278-0.134-0.14m-0.075-0.36-0.136 0.138m2e-3 -0.279 0.134 0.14m-0.27-2e-3 0.136-0.138m-2e-3 0.279-0.134-0.14m-0.075-0.362-0.136 0.139m2e-3 -0.279 0.134 0.14m-0.27-2e-3 0.136-0.138m-2e-3 0.279-0.134-0.141m-0.075-0.361-0.136 0.139m2e-3 -0.279 0.134 0.14m-0.27-3e-3 0.136-0.137m-3e-3 0.279-0.133-0.141m0.276-0.718-0.136 0.139m2e-3 -0.279 0.134 0.14m-0.27-2e-3 0.136-0.138m-2e-3 0.279-0.134-0.141m-0.075-0.361-0.136 0.139m2e-3 -0.279 0.134 0.14m-0.27-2e-3 0.136-0.138m-2e-3 0.279-0.134-0.141m-0.076-0.361-0.135 0.139m2e-3 -0.279 0.134 0.14m-0.271-2e-3 0.137-0.138m-3e-3 0.279-0.133-0.141m2.341 2.181-0.136 0.138m2e-3 -0.279 0.134 0.14m-0.27-2e-3 0.136-0.138m-2e-3 0.279-0.134-0.14m-0.075-0.361-0.136 0.138m2e-3 -0.279 0.134 0.14m-0.27-2e-3 0.136-0.138m-3e-3 0.279-0.133-0.14m-0.075-0.361-0.137 0.138m3e-3 -0.279 0.133 0.14m-0.27-2e-3 0.137-0.138m-3e-3 0.279-0.133-0.14m-0.076-0.362-0.136 0.139m3e-3 -0.279 0.133 0.14m-0.27-2e-3 0.136-0.138m-2e-3 0.279-0.134-0.141m0.277-0.717-0.136 0.138m2e-3 -0.279 0.134 0.14m-0.27-2e-3 0.136-0.138m-2e-3 0.279-0.134-0.14m-0.075-0.362-0.137 0.139m3e-3 -0.279 0.133 0.14m-0.269-2e-3 0.136-0.138m-3e-3 0.279-0.133-0.142m-0.076-0.36-0.136 0.139m3e-3 -0.279 0.133 0.14m-0.27-2e-3 0.136-0.138m-2e-3 0.279-0.134-0.141m2.342 2.181-0.137 0.138m3e-3 -0.279 0.134 0.14m-0.27-2e-3 0.136-0.138m-3e-3 0.279-0.133-0.14m-0.076-0.361-0.136 0.138m3e-3 -0.279 0.133 0.14m-0.27-2e-3 0.136-0.138m-2e-3 0.279-0.134-0.14m-0.075-0.361-0.136 0.138m3e-3 -0.279 0.133 0.14m-0.27-2e-3 0.136-0.138m-2e-3 0.279-0.134-0.14m-0.075-0.361-0.136 0.138m2e-3 -0.279 0.134 0.14m-0.27-2e-3 0.136-0.138m-2e-3 0.279-0.134-0.14m0.276-0.718-0.136 0.138m2e-3 -0.279 0.134 0.14m-0.27-2e-3 0.136-0.138m-2e-3 0.279-0.134-0.14m-0.074-0.361-0.137 0.138m2e-3 -0.279 0.134 0.14m-0.269-2e-3 0.135-0.138m-2e-3 0.279-0.134-0.14m-0.075-0.361-0.136 0.138m2e-3 -0.279 0.134 0.14m-0.27-2e-3 0.136-0.138m-2e-3 0.279-0.134-0.14m3.586 3.771-0.134-0.141m0.27 2e-3 -0.136 0.139m2e-3 -0.279 0.134 0.14m-0.27-2e-3 0.136-0.138m-0.347-0.084-0.134-0.141m0.269 2e-3 -0.135 0.138m2e-3 -0.279 0.134 0.141m-0.271-2e-3 0.137-0.139m-0.347-0.084-0.134-0.14m0.27 2e-3 -0.137 0.138m3e-3 -0.279 0.134 0.141m-0.27-2e-3 0.136-0.139m-0.348-0.084-0.134-0.14m0.27 2e-3 -0.136 0.138m3e-3 -0.279 0.133 0.141m-0.27-2e-3 0.137-0.139m-0.212-0.222-0.136 0.138m2e-3 -0.279 0.134 0.141m-0.27-2e-3 0.136-0.139m-2e-3 0.279-0.134-0.14m-0.075-0.361-0.136 0.138m2e-3 -0.279 0.134 0.14m-0.27-2e-3 0.136-0.138m-2e-3 0.279-0.134-0.14m-0.075-0.361-0.136 0.138m2e-3 -0.279 0.134 0.14m-0.27-2e-3 0.136-0.138m-2e-3 0.279-0.134-0.14m-0.075-0.361-0.137 0.138m3e-3 -0.279 0.134 0.14m-0.27-2e-3 0.136-0.138m-3e-3 0.279-0.133-0.14m-2.969-1.669-0.133-0.14m0.27 2e-3 -0.137 0.138m3e-3 -0.279 0.134 0.14m-0.27-2e-3 0.136-0.138m-0.036 0.97-0.134-0.14m0.27 2e-3 -0.136 0.138m2e-3 -0.279 0.134 0.14m-0.27-2e-3 0.136-0.138m0.065-1.104-0.134-0.14m0.27 2e-3 -0.136 0.139m2e-3 -0.279 0.134 0.14m-0.27-2e-3 0.136-0.138m0.032-0.412-0.134-0.141m0.27 2e-3 -0.136 0.138m2e-3 -0.279 0.134 0.141m-0.27-2e-3 0.135-0.139m0.378 3.312-0.136 0.139m2e-3 -0.279 0.134 0.14m-0.27-2e-3 0.136-0.138m-2e-3 0.278-0.134-0.14m0.975-0.714-0.136 0.139m3e-3 -0.279 0.133 0.14m-0.27-2e-3 0.136-0.138m-2e-3 0.279-0.134-0.141m-0.083 0.36-0.136 0.139m3e-3 -0.279 0.133 0.14m-0.27-2e-3 0.137-0.138m-3e-3 0.279-0.133-0.141m0.975-0.714-0.136 0.139m2e-3 -0.279 0.134 0.14m-0.27-2e-3 0.136-0.138m-2e-3 0.279-0.134-0.141m0.623-0.356-0.136 0.139m2e-3 -0.279 0.134 0.14m-0.27-2e-3 0.136-0.138m-2e-3 0.279-0.134-0.141m-0.952 0.452-0.133-0.14m0.27 2e-3 -0.137 0.139m3e-3 -0.279 0.133 0.14m-0.27-2e-3 0.137-0.138m-0.354 0.636-0.134-0.141m0.27 3e-3 -0.136 0.138m2e-3 -0.279 0.134 0.14m-0.27-2e-3 0.136-0.138m0.701-0.435-0.134-0.14m0.27 2e-3 -0.136 0.138m2e-3 -0.279 0.134 0.14m-0.27-2e-3 0.136-0.138m0.349-0.078-0.133-0.14m0.27 2e-3 -0.136 0.138m2e-3 -0.279 0.134 0.14m-0.27-2e-3 0.136-0.138m-0.673 0.302-0.133-0.141m0.27 2e-3 -0.136 0.138m2e-3 -0.279 0.134 0.141m-0.27-2e-3 0.136-0.139m-0.353 0.636-0.134-0.14m0.27 2e-3 -0.137 0.138m3e-3 -0.279 0.133 0.141m-0.27-2e-3 0.137-0.139m0.701-0.434-0.134-0.141m0.27 2e-3 -0.136 0.139m2e-3 -0.279 0.134 0.14m-0.27-2e-3 0.136-0.138m-0.32-0.056-0.134-0.14m0.269 2e-3 -0.135 0.138m2e-3 -0.278 0.134 0.14m-0.271-3e-3 0.137-0.138m-0.354 0.636-0.134-0.14m0.271 2e-3 -0.137 0.138m2e-3 -0.279 0.134 0.14m-0.269-2e-3 0.135-0.138m0.032-0.412-0.134-0.141m0.27 2e-3 -0.136 0.139m3e-3 -0.279 0.133 0.14m-0.27-2e-3 0.136-0.138m4.565 6.965-8e-3 8e-3 -0.136 0.138-0.215 0.219-0.137 0.138m0.362-0.643 0.133 0.14m-0.628 0.362 0.136-0.138 0.215-0.219 0.137-0.138 7e-3 -7e-3m-0.362 0.643-0.133-0.14m0.276-0.718-0.136 0.138m0.136-0.138 0.215-0.219m0.137-0.138-0.136 0.138m0.136-0.138 0.215-0.219m0.136-0.138-0.136 0.138m2e-3 -0.279 0.134 0.141m-0.27-2e-3 0.137-0.139m-0.137 0.139-0.215 0.218m-0.136 0.139 0.136-0.139m-0.136 0.139-0.216 0.218m-0.136 0.138 0.136-0.138m-0.136 0.138-0.215 0.22m-0.136 0.138 0.136-0.139m-3e-3 0.279-0.133-0.14m0.27 2e-3 -0.137 0.138m0.137-0.138 0.215-0.219m1.185-0.489-0.137 0.138-0.215 0.22-0.136 0.137-8e-3 7e-3m0.362-0.643 0.134 0.141m-0.63 0.362 8e-3 -7e-3 0.136-0.138 0.216-0.219 0.136-0.138m-0.361 0.643-0.134-0.141m0.473 1.936-0.134-0.14m0.171 0.103-0.037 0.037m-5.424-16.072-0.055 0.046m0.198-0.153-0.142 0.106m5.796 13.278 0.07 0.073m-0.206 0.065 0.136-0.138m-2e-3 0.279-0.134-0.141m0.182 0.092-0.048 0.049m-1.061 1.79-0.134-0.14m0.69 0.726 0.136-0.139 0.084-0.085m0.064-0.501-7e-3 7e-3 -0.136 0.138-0.216 0.218-0.136 0.139m0.361-0.643 0.134 0.14m-0.629 0.362 0.136-0.138 0.215-0.219 0.137-0.138 7e-3 -7e-3m-0.361 0.644-0.134-0.142m-0.685-2.158 7e-3 -7e-3 0.137-0.139m-0.01 0.286-0.134-0.14m0.278-5e-3 -0.137 0.138-7e-3 7e-3m0.144-0.145 0.215-0.219m0.137-0.138-0.137 0.138m2e-3 -0.279 0.134 0.141m-0.269-2e-3 0.135-0.139m-0.135 0.139-0.216 0.218m-0.211 0.49-7e-3 7e-3 -0.136 0.139m0.01-0.286 0.133 0.14m-0.277 6e-3 0.136-0.139 7e-3 -7e-3m-0.143 0.146-0.215 0.218m-0.137 0.138 0.136-0.138m-2e-3 0.279-0.134-0.14m0.27 2e-3 -0.136 0.138m0.136-0.138 0.216-0.22m-0.21-0.5-0.135 0.138m0.135-0.138 0.216-0.22m0.136-0.137-0.136 0.138m0.136-0.138 0.216-0.219m0.136-0.138-0.136 0.138m2e-3 -0.279 0.134 0.141m-0.27-2e-3 0.136-0.139m-0.136 0.139-0.215 0.218m-0.137 0.139 0.136-0.139m-0.136 0.139-0.215 0.218m-0.137 0.138 0.137-0.138m-0.137 0.138-0.215 0.219m-0.136 0.138 0.136-0.138m-2e-3 0.279-0.134-0.14m0.271 2e-3 -0.137 0.138m0.137-0.138 0.214-0.22m-0.127-0.86 0.136-0.138m-3e-3 0.279-0.133-0.14m0.27 2e-3 -0.136 0.138m0.136-0.138 0.215-0.219m0.137-0.138-0.136 0.138m2e-3 -0.279 0.134 0.14m-0.27-1e-3 0.136-0.139m-0.136 0.139-0.215 0.218m-0.84 0.852 0.136-0.138m-2e-3 0.278-0.134-0.14m0.27 2e-3 -0.136 0.139m0.136-0.139 0.215-0.218m0.137-0.138-0.137 0.138m3e-3 -0.279 0.133 0.14m-0.27-2e-3 0.137-0.138m-0.137 0.138-0.215 0.219m1.59 1.953 1.165-1.182m-0.049 0.327-0.982 0.996m44.386-0.842-0.134 0.14m-3e-3 -0.278 0.136 0.138m-0.269 3e-3 0.133-0.141m2e-3 0.279-0.136-0.138m0.615-0.366-0.133 0.14m-3e-3 -0.278 0.136 0.138m-0.27 2e-3 0.134-0.14m2e-3 0.279-0.136-0.138m0.616-0.366-0.134 0.14m-3e-3 -0.278 0.136 0.138m-0.269 2e-3 0.133-0.14m3e-3 0.279-0.136-0.139m-0.9 1.228-0.136-0.138m0.27-3e-3 -0.134 0.141m-2e-3 -0.279 0.136 0.138m-0.27 3e-3 0.134-0.141m1.021 2.74-0.136-0.139m0.27-2e-3 -0.134 0.14m-3e-3 -0.278 0.137 0.138m-0.27 2e-3 0.133-0.14m-1.706-1.456-0.136-0.138m0.27-3e-3 -0.134 0.141m-3e-3 -0.279 0.136 0.138m-0.269 3e-3 0.133-0.141m1.436 2.447-0.136-0.138m0.27-3e-3 -0.134 0.14m-3e-3 -0.278 0.137 0.138m-0.27 3e-3 0.133-0.141m-1.775-1.526-0.137-0.138m0.27-3e-3 -0.133 0.141m-3e-3 -0.279 0.136 0.138m-0.27 3e-3 0.134-0.14m1.746 2.761-0.136-0.138m0.27-2e-3 -0.134 0.14m-2e-3 -0.28 0.136 0.14m-0.27 2e-3 0.133-0.141m-0.345-0.074-0.136-0.139m0.27-2e-3 -0.134 0.14m-3e-3 -0.278 0.137 0.138m-0.27 2e-3 0.133-0.14m-1.737-1.488-0.137-0.138m0.27-2e-3 -0.133 0.14m-3e-3 -0.279 0.136 0.138m-0.27 3e-3 0.134-0.14m1.623 2.638-0.135-0.14m0.27-2e-3 -0.134 0.141m-3e-3 -0.279 0.136 0.138m-0.27 2e-3 0.134-0.14m-0.345-0.074-0.137-0.139m0.27-2e-3 -0.133 0.14m-3e-3 -0.278 0.136 0.138m-0.27 2e-3 0.134-0.14m-0.346-0.075-0.136-0.138m0.27-2e-3 -0.134 0.14m-2e-3 -0.279 0.136 0.139m-0.27 2e-3 0.134-0.14m-0.346-0.075-0.136-0.138m0.27-3e-3 -0.134 0.14m-2e-3 -0.278 0.136 0.138m-0.27 2e-3 0.133-0.14m-0.345-0.075-0.136-0.138m0.27-2e-3 -0.134 0.14m-3e-3 -0.279 0.137 0.139m-0.27 2e-3 0.133-0.14m-0.345-0.075-0.137-0.138m0.27-3e-3 -0.133 0.141m-3e-3 -0.279 0.136 0.138m-0.27 3e-3 0.134-0.141m1.709 2.724-0.137-0.138m0.271-3e-3 -0.134 0.14m-3e-3 -0.278 0.136 0.138m-0.269 3e-3 0.133-0.141m-0.336-0.065-0.137-0.139m0.27-2e-3 -0.133 0.14m-3e-3 -0.278 0.136 0.138m-0.27 2e-3 0.134-0.14m-0.336-0.065-0.137-0.139m0.27-2e-3 -0.133 0.14m-3e-3 -0.278 0.136 0.138m-0.27 2e-3 0.134-0.14m-0.337-0.065-0.136-0.139m0.27-2e-3 -0.133 0.14m-3e-3 -0.278 0.136 0.138m-0.27 2e-3 0.134-0.14m-0.336-0.066-0.137-0.138m0.27-2e-3 -0.133 0.14m-3e-3 -0.279 0.136 0.139m-0.27 2e-3 0.134-0.14m-0.337-0.066-0.136-0.138m0.27-2e-3 -0.133 0.14m-3e-3 -0.279 0.136 0.139m-0.27 2e-3 0.134-0.14m1.427 2.438-0.136-0.139m0.27-2e-3 -0.134 0.14m-2e-3 -0.278 0.136 0.138m-0.27 2e-3 0.134-0.14m-0.355-0.084-0.136-0.138m0.27-2e-3 -0.134 0.14m-2e-3 -0.279 0.136 0.139m-0.27 2e-3 0.134-0.14m-0.355-0.084-0.136-0.138m0.27-3e-3 -0.134 0.141m-2e-3 -0.279 0.136 0.138m-0.27 3e-3 0.134-0.14m-0.355-0.084-0.136-0.138m0.27-3e-3 -0.134 0.14m-2e-3 -0.278 0.136 0.138m-0.27 2e-3 0.134-0.14m-0.355-0.083-0.136-0.139m0.27-2e-3 -0.134 0.14m-2e-3 -0.279 0.136 0.139m-0.271 2e-3 0.135-0.14m1.047 2.052-0.136-0.138m0.27-2e-3 -0.134 0.14m-2e-3 -0.279 0.136 0.138m-0.27 3e-3 0.133-0.14m-0.344-0.074-0.136-0.138m0.27-2e-3 -0.134 0.14m-2e-3 -0.278 0.136 0.138m-0.27 2e-3 0.134-0.14m-0.344-0.073-0.137-0.139m0.27-2e-3 -0.133 0.14m-3e-3 -0.278 0.136 0.138m-0.27 2e-3 0.134-0.14m-0.344-0.073-0.136-0.139m0.27-2e-3 -0.134 0.14m-2e-3 -0.278 0.136 0.138m-0.27 2e-3 0.133-0.14m1.002 2.006-0.136-0.138m0.27-2e-3 -0.134 0.14m-2e-3 -0.279 0.136 0.139m-0.27 2e-3 0.134-0.14m-0.333-0.062-0.136-0.138m0.27-3e-3 -0.134 0.14m-3e-3 -0.278 0.136 0.138m-0.269 3e-3 0.133-0.141m-0.333-0.061-0.136-0.139m0.27-3e-3 -0.134 0.142m-2e-3 -0.279 0.136 0.138m-0.27 2e-3 0.134-0.14m-0.333-0.062-0.136-0.138m0.27-3e-3 -0.134 0.141m-3e-3 -0.279 0.137 0.138m-0.27 3e-3 0.133-0.14m0.721 1.721-0.136-0.139m0.27-2e-3 -0.133 0.14m-3e-3 -0.278 0.136 0.138m-0.27 2e-3 0.134-0.14m-0.359-0.088-0.136-0.139m0.27-2e-3 -0.134 0.14m-2e-3 -0.278 0.136 0.138m-0.27 2e-3 0.133-0.14m-0.359-0.088-0.136-0.139m0.27-1e-3 -0.134 0.14m-2e-3 -0.28 0.136 0.139m-0.27 2e-3 0.134-0.14m0.7 1.701-0.136-0.139m0.27-3e-3 -0.134 0.142m-2e-3 -0.279 0.136 0.138m-0.27 2e-3 0.134-0.14m-0.343-0.073-0.137-0.138m0.27-2e-3 -0.133 0.14m-3e-3 -0.278 0.136 0.138m-0.27 2e-3 0.134-0.14m-0.343-0.072-0.136-0.138m0.269-2e-3 -0.133 0.14m-3e-3 -0.28 0.137 0.14m-0.271 2e-3 0.134-0.141m0.402 1.398-0.136-0.138m0.27-3e-3 -0.133 0.14m-3e-3 -0.278 0.136 0.138m-0.27 2e-3 0.134-0.14m-0.386-0.116-0.136-0.138m0.27-2e-3 -0.134 0.14m-3e-3 -0.279 0.137 0.139m-0.27 2e-3 0.133-0.14m0.311 1.261-0.136-0.138m0.27-3e-3 -0.134 0.141m-2e-3 -0.279 0.136 0.138m-0.27 3e-3 0.134-0.14m-0.328-0.057-0.136-0.138m0.27-3e-3 -0.134 0.14m-3e-3 -0.278 0.137 0.138m-0.27 3e-3 0.133-0.141m0.015 0.961-0.136-0.138m0.27-2e-3 -0.134 0.14m-2e-3 -0.279 0.136 0.139m-0.27 2e-3 0.134-0.14m-40.316-8.471-0.133-0.14m0.27 2e-3 -0.136 0.138m2e-3 -0.279 0.134 0.14m-0.27-2e-3 0.136-0.138m-0.348-0.084-0.133-0.142m0.27 3e-3 -0.137 0.139m3e-3 -0.279 0.134 0.14m-0.27-2e-3 0.136-0.138m-0.348-0.084-0.134-0.141m0.27 2e-3 -0.136 0.139m3e-3 -0.279 0.133 0.14m-0.27-2e-3 0.137-0.138m1.169 1.23-0.136 0.138m2e-3 -0.279 0.134 0.14m-0.27-2e-3 0.136-0.138m-2e-3 0.279-0.134-0.14m0.615 0.365-0.136 0.138m2e-3 -0.279 0.134 0.14m-0.27-2e-3 0.136-0.138m-2e-3 0.279-0.134-0.14m-1.094 2.099-0.136 0.139m3e-3 -0.279 0.133 0.14m-0.27-2e-3 0.136-0.138m-2e-3 0.279-0.134-0.141m1.98-1.732-0.137 0.138m3e-3 -0.279 0.133 0.14m-0.27-2e-3 0.137-0.138m-3e-3 0.279-0.133-0.14m-1.163 2.17-0.137 0.138m3e-3 -0.279 0.133 0.14m-0.269-2e-3 0.135-0.138m-2e-3 0.279-0.133-0.14m2.048-1.803-0.136 0.138m2e-3 -0.279 0.134 0.14m-0.27-2e-3 0.136-0.138m-3e-3 0.279-0.133-0.14m-1.474 2.485-0.136 0.138m2e-3 -0.28 0.134 0.142m-0.27-2e-3 0.136-0.14m-2e-3 0.28-0.134-0.14m0.618-0.352-0.136 0.139m3e-3 -0.279 0.133 0.14m-0.27-2e-3 0.136-0.138m-2e-3 0.279-0.134-0.141m2.011-1.764-0.136 0.138m3e-3 -0.279 0.133 0.14m-0.27-1e-3 0.136-0.139m-2e-3 0.279-0.134-0.14m-1.351 2.36-0.137 0.14m3e-3 -0.28 0.133 0.14m-0.27-2e-3 0.137-0.138m-3e-3 0.28-0.133-0.142m0.618-0.351-0.136 0.139m2e-3 -0.279 0.134 0.14m-0.27-2e-3 0.136-0.138m-3e-3 0.279-0.133-0.141m0.618-0.351-0.136 0.138m2e-3 -0.279 0.134 0.141m-0.27-2e-3 0.136-0.139m-2e-3 0.279-0.134-0.14m0.618-0.352-0.136 0.139m2e-3 -0.279 0.134 0.14m-0.27-2e-3 0.136-0.138m-2e-3 0.279-0.134-0.14m0.618-0.352-0.136 0.138m2e-3 -0.279 0.134 0.141m-0.27-2e-3 0.137-0.139m-3e-3 0.279-0.134-0.14m0.619-0.351-0.137 0.138m3e-3 -0.279 0.134 0.14m-0.27-2e-3 0.136-0.138m-3e-3 0.279-0.133-0.14m-1.436 2.447-0.137 0.138m3e-3 -0.279 0.134 0.14m-0.27-2e-3 0.136-0.138m-3e-3 0.279-0.133-0.14m0.609-0.343-0.136 0.139m2e-3 -0.279 0.134 0.14m-0.27-2e-3 0.136-0.138m-2e-3 0.279-0.134-0.141m0.609-0.342-0.136 0.139m2e-3 -0.279 0.134 0.14m-0.27-2e-3 0.136-0.138m-3e-3 0.279-0.133-0.141m0.609-0.342-0.136 0.139m2e-3 -0.279 0.134 0.14m-0.27-2e-3 0.136-0.138m-2e-3 0.279-0.134-0.141m0.609-0.342-0.136 0.138m3e-3 -0.279 0.133 0.141m-0.27-2e-3 0.136-0.139m-2e-3 0.279-0.134-0.14m0.609-0.342-0.136 0.138m2e-3 -0.279 0.134 0.141m-0.27-2e-3 0.136-0.139m-2e-3 0.279-0.134-0.14m-1.155 2.161-0.136 0.139m2e-3 -0.279 0.134 0.14m-0.27-2e-3 0.136-0.138m-3e-3 0.279-0.133-0.141m0.627-0.36-0.136 0.138m2e-3 -0.279 0.134 0.141m-0.27-2e-3 0.136-0.139m-2e-3 0.279-0.134-0.14m0.627-0.36-0.136 0.138m2e-3 -0.279 0.134 0.14m-0.27-2e-3 0.136-0.138m-2e-3 0.279-0.134-0.14m0.627-0.361-0.136 0.139m2e-3 -0.279 0.134 0.14m-0.27-2e-3 0.136-0.138m-2e-3 0.279-0.134-0.14m0.627-0.361-0.136 0.139m2e-3 -0.28 0.134 0.141m-0.27-2e-3 0.136-0.138m-2e-3 0.279-0.134-0.141m-0.775 1.776-0.136 0.138m3e-3 -0.279 0.133 0.14m-0.27-1e-3 0.137-0.139m-3e-3 0.279-0.134-0.14m0.617-0.35-0.136 0.138m2e-3 -0.278 0.134 0.14m-0.27-2e-3 0.136-0.139m-3e-3 0.279-0.133-0.14m0.617-0.35-0.136 0.139m2e-3 -0.279 0.134 0.14m-0.27-2e-3 0.136-0.138m-3e-3 0.279-0.133-0.141m0.616-0.35-0.136 0.139m3e-3 -0.279 0.133 0.14m-0.27-2e-3 0.136-0.138m-2e-3 0.279-0.134-0.141m-0.729 1.73-0.136 0.138m2e-3 -0.279 0.134 0.141m-0.27-2e-3 0.136-0.139m-2e-3 0.279-0.134-0.14m0.605-0.338-0.136 0.138m3e-3 -0.279 0.133 0.14m-0.27-2e-3 0.137-0.138m-3e-3 0.279-0.133-0.14m0.605-0.339-0.136 0.139m2e-3 -0.279 0.134 0.14m-0.27-3e-3 0.136-0.137m-2e-3 0.279-0.134-0.141m0.605-0.338-0.136 0.138m3e-3 -0.279 0.133 0.14m-0.27-2e-3 0.136-0.138m-2e-3 0.279-0.134-0.14m-0.448 1.444-0.136 0.139m2e-3 -0.279 0.134 0.14m-0.27-2e-3 0.136-0.138m-2e-3 0.279-0.134-0.141m0.631-0.365-0.136 0.139m3e-3 -0.279 0.133 0.14m-0.27-2e-3 0.136-0.138m-2e-3 0.279-0.134-0.141m0.632-0.365-0.136 0.139m2e-3 -0.28 0.134 0.141m-0.27-1e-3 0.136-0.14m-2e-3 0.28-0.134-0.141m-0.428 1.424-0.136 0.139m2e-3 -0.279 0.134 0.14m-0.27-3e-3 0.136-0.137m-2e-3 0.279-0.134-0.141m0.616-0.349-0.136 0.139m2e-3 -0.279 0.134 0.14m-0.27-2e-3 0.136-0.138m-3e-3 0.278-0.133-0.14m0.615-0.348-0.136 0.138m3e-3 -0.28 0.133 0.142m-0.27-2e-3 0.137-0.14m-2e-3 0.28-0.135-0.14m-0.129 1.12-0.136 0.139m2e-3 -0.279 0.134 0.14m-0.27-2e-3 0.136-0.138m-2e-3 0.279-0.134-0.141m0.658-0.392-0.136 0.138m2e-3 -0.279 0.134 0.141m-0.27-2e-3 0.137-0.139m-3e-3 0.279-0.134-0.14m-0.038 0.985-0.136 0.138m2e-3 -0.279 0.134 0.14m-0.27-2e-3 0.136-0.138m-2e-3 0.279-0.134-0.14m0.6-0.333-0.136 0.138m3e-3 -0.279 0.133 0.14m-0.27-2e-3 0.136-0.138m-2e-3 0.279-0.134-0.14m0.258 0.684-0.136 0.138m2e-3 -0.279 0.134 0.141m-0.27-2e-3 0.136-0.139m-2e-3 0.279-0.134-0.14m-1.359-7.808 0.133 0.14m-1.317 1.061 1.183-1.2m-1.049 1.341-0.134-0.141m1.317-1.06-1.183 1.2m0.697-1.697 0.134 0.141m-0.633 0.366 0.5-0.507m-0.367 0.648-0.133-0.14m0.633-0.368-0.5 0.508m1.402 0.441 0.134 0.14m-1.337 1.081 1.203-1.22m-1.069 1.36-0.134-0.14m1.337-1.08-1.202 1.22m40.815-1.006 0.492 0.5m-0.626-0.359 0.134-0.14m0.358 0.639-0.492-0.499m0.626 0.358-0.134 0.141m1.602-1.228 0.134-0.14m0.365 0.647-0.5-0.507m0.634 0.367-0.133 0.14m-0.366-0.647 0.5 0.507m-0.519-1.953 0.495 0.502m-0.629-0.362 0.134-0.14m0.361 0.643-0.495-0.503m0.629 0.362-0.134 0.14m-1.209 1.628 0.134-0.142m0.351 0.634-0.485-0.493m0.619 0.352-0.134 0.14m-0.351-0.632 0.485 0.492m-1.627-0.661 0.134-0.141m1.069 1.361-1.203-1.22m1.337 1.08-0.134 0.14m-1.069-1.361 1.203 1.221m-1.006-1.457 0.134-0.141m0.351 0.633-0.485-0.492m0.619 0.351-0.133 0.141m-0.351-0.633 0.485 0.492m0.085-1.064 0.134-0.14m0.366 0.648-0.5-0.507m0.633 0.366-0.133 0.14m-0.366-0.647 0.5 0.507m-1.334 1.777 0.134-0.14m0.358 0.639-0.492-0.498m0.626 0.358-0.134 0.14m-0.358-0.639 0.492 0.499m-42.305-3.01 0.134 0.14m-1.105 0.845 0.971-0.985m-0.69-0.726 0.134 0.14m6e-3 -0.72-0.088 0.09m0.024-0.157 0.064 0.067m43.954 0 0.064-0.067m0.024 0.157-0.088-0.09m6e-3 0.72 0.134-0.14m-0.69 0.726 0.97 0.985m-1.105-0.845 0.134-0.14m1.021 1.312-1.155-1.172m0.837 2 0.084 0.084m-0.218 0.056 0.134-0.14m3e-3 0.279-0.137-0.138m-0.301 1.12 0.049-0.05m-0.03 0.07-0.019-0.02m-0.375 0.769 0.057 0.059m-0.191 0.082 0.133-0.14m-0.023 0.252-0.11-0.112m-0.557 1.299 0.12 0.122m-0.254 0.019 0.134-0.141m3e-3 0.279-0.137-0.138m0.23 0.04-0.093 0.098m-0.189 0.522 0.04-0.042m-0.024 0.058-0.016-0.016m-0.127 0.308 0.015 0.016m-0.149 0.124 0.133-0.14m-0.065 0.21-0.068-0.07m-0.752 2.004 0.022-0.023m-0.013 0.032-8e-3 -0.01m-0.2 0.192 0.093 0.094m-0.227 0.047 0.134-0.141m2e-3 0.279-0.136-0.138m0.16 0.113-0.023 0.025m-38.465 0-0.024-0.025m0.16-0.113-0.136 0.138m2e-3 -0.279 0.134 0.14m-0.227-0.046 0.093-0.094m-0.199-0.191-9e-3 0.01m-0.013-0.033 0.022 0.023m-0.752-2.004-0.068 0.07m-0.066-0.21 0.134 0.14m-0.149-0.125 0.015-0.015m-0.127-0.308-0.016 0.017m-0.025-0.059 0.04 0.043m-0.188-0.523-0.093-0.098m0.23-0.04-0.136 0.138m2e-3 -0.279 0.134 0.14m-0.254-0.018 0.12-0.122m-0.557-1.299-0.11 0.112m-0.023-0.253 0.133 0.141m-0.191-0.082 0.058-0.058m-0.376-0.77-0.02 0.02m-0.028-0.07 0.048 0.05m-0.301-1.121-0.137 0.138m3e-3 -0.278 0.133 0.14m-0.217-0.056 0.084-0.084m0.836-2-1.154 1.172m0.656-0.229 0.134 0.14m-0.633 0.367 0.5-0.507m-0.366 0.647-0.134-0.14m0.633-0.367-0.5 0.507m0.519-1.953-0.495 0.503m0.361-0.643 0.134 0.14m-0.629 0.362 0.495-0.502m-0.361 0.643-0.134-0.141m2.704 1.813-0.492 0.499m0.358-0.64 0.134 0.141m-0.625 0.358 0.491-0.498m-0.358 0.639-0.133-0.14m-0.198 0.2 0.134 0.14m-0.626 0.359 0.492-0.5m-0.358 0.64-0.134-0.14m0.626-0.359-0.492 0.5m-0.314-1.385 0.134 0.14m-0.619 0.352 0.485-0.492m-0.351 0.633-0.134-0.141m0.619-0.351-0.485 0.492m1.028-1.32 0.134 0.14m-0.619 0.352 0.485-0.492m-0.352 0.633-0.133-0.14m0.618-0.352-0.485 0.492m41.312-0.848 0.154-0.163m1.05 1.386-1.204-1.223m1.359 1.06-0.155 0.162m-1.05-1.385 1.205 1.222m-1.554-1.575 0.157 0.16m-0.31 2e-3 0.154-0.162m2e-3 0.321-0.156-0.16m0.31-2e-3 -0.154 0.162m-42.53-1.369 0.026-0.026m44.234 0 0.026 0.026m0.049 0.327-0.209-0.213m-43.966 0-0.209 0.212m42.739 9.425-0.134 0.14m0 1e-3 0.136 0.138m1e-3 0 0.133-0.14-0.136-0.139m2.974-1.219-0.134 0.14m0 1e-3 0.136 0.138 0.134-0.14m0-1e-3 -0.136-0.138m-0.932 0.481-0.134 0.14m0 1e-3 0.136 0.138 0.134-0.14m0-1e-3 -0.136-0.138m-0.933 0.481-0.133 0.14m-1e-3 1e-3 0.137 0.138 0.134-0.14m-1e-3 -1e-3 -0.135-0.138m-1.768 0.259-0.134 0.14 0.136 0.139 0.134-0.141-0.136-0.138m5.469-4.35-0.133 0.141 0.136 0.138 0.134-0.14-0.136-0.139m-0.713-0.722-0.133 0.14m-1e-3 0 0.137 0.139 0.133-0.141-0.136-0.138m-0.712-0.723-0.134 0.14m0 1e-3 0.137 0.138 0.133-0.14-0.136-0.139m-0.712-0.723-0.134 0.141m0 1e-3 0.136 0.137m1e-3 0 0.133-0.14-0.136-0.139m-0.712-0.722-0.134 0.14 0.136 0.139 0.134-0.141-0.136-0.138m2.76 3.514-0.134 0.14 0.136 0.139 0.134-0.14m0-1e-3 -0.136-0.138m-0.698-0.708-0.134 0.14 0.136 0.139m0-1e-3 0.134-0.14-0.136-0.138m-0.698-0.709-0.134 0.141 0.136 0.138 0.134-0.14-0.136-0.139m-0.698-0.708-0.134 0.14m0 1e-3 0.136 0.138m1e-3 0 0.133-0.14m0-1e-3 -0.136-0.138m-0.698-0.708-0.134 0.14m0 1e-3 0.137 0.138 0.133-0.14m0-1e-3 -0.136-0.138m2.347 3.095-0.134 0.14m1e-3 1e-3 0.135 0.138m1e-3 0 0.133-0.14m1e-3 -1e-3 -0.137-0.138m-0.683-0.694-0.134 0.14m0 1e-3 0.136 0.138 0.134-0.14m0-1e-3 -0.136-0.138m-0.684-0.694-0.134 0.141 0.136 0.138 0.134-0.14-0.136-0.139m-0.684-0.694-0.134 0.141 0.136 0.138m1e-3 1e-3 0.133-0.141-0.136-0.139m-0.684-0.693-0.133 0.14 0.136 0.139m-1e-3 0 0.135-0.141-0.137-0.138m2.228 2.973-0.134 0.141 0.136 0.138m0 1e-3 0.134-0.141-0.136-0.139m-0.712-0.722-0.133 0.141m-1e-3 1e-3 0.137 0.138 0.133-0.141-0.136-0.138m-0.711-0.722-0.134 0.14m1e-3 0 0.135 0.139 0.134-0.141m1e-3 0-0.137-0.138m-0.711-0.722-0.134 0.14 0.136 0.139 0.134-0.141-0.136-0.138m1.69 2.429-0.133 0.14m-1e-3 1e-3 0.137 0.138 0.133-0.14m1e-3 -1e-3 -0.137-0.138m-0.696-0.707-0.134 0.141 0.136 0.138m1e-3 0 0.133-0.14-0.136-0.139m-0.696-0.707-0.134 0.141 0.136 0.139 0.134-0.141-0.136-0.138m-0.696-0.707-0.134 0.14m0 1e-3 0.136 0.138 0.134-0.14m0-1e-3 -0.136-0.138m1.274 2.006-0.134 0.141 0.136 0.139 0.134-0.141-0.136-0.138m-0.697-0.707-0.134 0.14 0.137 0.139 0.133-0.141-0.136-0.138m-0.696-0.707-0.134 0.14m-1e-3 1e-3 0.137 0.138 0.134-0.14m0-1e-3 -0.136-0.138m1.641 2.379-0.133 0.141 0.136 0.138m0 1e-3 0.134-0.141-0.136-0.139m-0.679-0.688-0.133 0.141 0.136 0.138m-1e-3 0 0.135-0.14-0.136-0.139m-0.679-0.688-0.133 0.14m-1e-3 0 0.137 0.14 0.133-0.142m1e-3 0-0.137-0.138m-0.678-0.688-0.134 0.14m0 1e-3 0.137 0.138m0-1e-3 0.133-0.14-0.136-0.138m1.89 2.631-0.134 0.14m0 1e-3 0.136 0.138 0.134-0.14m0-1e-3 -0.136-0.138m-1.072-1.087-0.133 0.14m0 1e-3 0.136 0.138 0.134-0.14m0-1e-3 -0.136-0.138m-0.714-0.725-0.134 0.141 0.136 0.138m1e-3 0 0.133-0.14-0.136-0.139m0.983 1.711-0.134 0.14m-1e-3 1e-3 0.137 0.138 0.133-0.14m1e-3 -1e-3 -0.137-0.138m-0.346-0.352-0.134 0.14 0.136 0.14 0.134-0.142-0.136-0.138m-0.693-0.703-0.134 0.14 0.136 0.139 0.133-0.141m1e-3 0-0.137-0.138m0.597 1.318-0.134 0.141 0.136 0.138 0.134-0.14-0.136-0.139m-0.336-0.34-0.133 0.14m-1e-3 1e-3 0.137 0.138 0.134-0.14m0-1e-3 -0.137-0.138m-0.67-0.681-0.134 0.14m0 1e-3 0.136 0.138 0.134-0.14m0-1e-3 -0.136-0.138m0.849 1.576-0.134 0.14 0.136 0.139 0.134-0.141-0.136-0.138m-1.085-1.101-0.134 0.14m0 1e-3 0.137 0.138 0.133-0.141-0.136-0.138m0.635 1.357-0.134 0.14m0 1e-3 0.136 0.138 0.134-0.14m0-1e-3 -0.136-0.138m-1.037-1.053-0.134 0.141 0.136 0.138 0.134-0.14-0.136-0.139m0.528 1.25-0.134 0.14m0 1e-3 0.136 0.138 0.134-0.14m0-1e-3 -0.136-0.138m-0.916-0.26-0.133 0.141m-1e-3 0 0.137 0.139 0.133-0.141-0.136-0.138m0.331 0.335-0.134 0.14m-1e-3 1e-3 0.137 0.138 0.134-0.14m0-1e-3 -0.136-0.138m-0.192-0.865-0.134 0.14m0 1e-3 0.136 0.138 0.134-0.14m0-1e-3 -0.136-0.138m0.388 0.395-0.134 0.14m0 1e-3 0.137 0.138 0.133-0.141m1e-3 0-0.137-0.138m0.206-0.505-0.133 0.141m-1e-3 0 0.137 0.138 0.133-0.14m1e-3 0-0.137-0.139m0.346 0.351-0.134 0.14m1e-3 1e-3 0.135 0.138m1e-3 0 0.133-0.14m1e-3 0-0.137-0.139m0.073-0.639-0.134 0.14 0.136 0.139 0.134-0.141-0.136-0.138m0.361 0.367-0.133 0.14 0.136 0.139 0.134-0.141m0-1e-3 -0.137-0.137m-0.152-0.869-0.134 0.141 0.136 0.138m0 1e-3 0.134-0.141-0.136-0.139m1.006 1.022-0.134 0.14 0.136 0.139m1e-3 0 0.133-0.141-0.136-0.138m-1.278-2.011-0.134 0.14 0.136 0.139 0.134-0.14m0-1e-3 -0.136-0.138m0.693 0.703-0.134 0.141m0 1e-3 0.136 0.137 0.134-0.14-0.136-0.139m1.04 1.056-0.134 0.14m0 1e-3 0.136 0.138 0.134-0.14m0-1e-3 -0.136-0.138m-1.686-2.425-0.134 0.14m0 1e-3 0.136 0.138 0.134-0.14m0-1e-3 -0.136-0.138m0.714 0.725-0.134 0.14 0.136 0.139 0.134-0.141-0.136-0.138m0.714 0.724-0.134 0.141 0.136 0.138 0.134-0.14-0.136-0.139m0.357 0.362-0.134 0.141m-1e-3 0 0.137 0.138m0 1e-3 0.134-0.141m-1e-3 0-0.135-0.138m-1.194-1.925-0.133 0.14m-1e-3 1e-3 0.137 0.138 0.133-0.14m1e-3 -1e-3 -0.137-0.138m0.679 0.688-0.134 0.14m0 1e-3 0.136 0.138 0.134-0.14m0-1e-3 -0.137-0.138m0.678 0.688-0.133 0.141 0.136 0.138 0.134-0.14m0-1e-3 -0.136-0.138m0.677 0.688-0.133 0.141 0.136 0.139 0.134-0.141-0.136-0.138m-1.633-2.371-0.134 0.141m1e-3 0 0.135 0.138m0 1e-3 0.134-0.141m1e-3 0-0.137-0.139m0.697 0.707-0.134 0.14m0 1e-3 0.136 0.138 0.134-0.14m0-1e-3 -0.136-0.138m0.696 0.707-0.134 0.14m0 1e-3 0.136 0.138 0.134-0.14m0-1e-3 -0.136-0.138m0.348 0.353-0.134 0.141 0.136 0.138m1e-3 0 0.133-0.14-0.136-0.139m-1.622-2.36-0.134 0.141 0.136 0.138 0.134-0.14-0.136-0.139m0.696 0.707-0.134 0.14m0 1e-3 0.136 0.138 0.134-0.14m0-1e-3 -0.136-0.138m0.696 0.706-0.134 0.141 0.137 0.139 0.133-0.141-0.136-0.138m0.696 0.706-0.133 0.14m0 1e-3 0.136 0.138 0.134-0.14m0-1e-3 -0.137-0.138m-1.683-2.421-0.133 0.14 0.136 0.139 0.134-0.141-0.137-0.138m0.712 0.722-0.134 0.14 0.136 0.139 0.134-0.141-0.136-0.138m0.711 0.722-0.134 0.14 0.136 0.138m0 1e-3 0.134-0.141-0.136-0.139m0.711 0.722-0.133 0.141m-1e-3 0 0.137 0.138 0.133-0.14m1e-3 0-0.137-0.139m-2.241-2.988-0.134 0.141 0.137 0.138m0 1e-3 0.133-0.141-0.136-0.138m0.684 0.693-0.134 0.141 0.136 0.138 0.134-0.14-0.136-0.139m0.684 0.694-0.134 0.14m0 1e-3 0.136 0.138 0.134-0.14-0.136-0.139m0.683 0.694-0.133 0.14m-1e-3 1e-3 0.137 0.138 0.133-0.14m1e-3 -1e-3 -0.137-0.138m0.684 0.694-0.134 0.14m0 1e-3 0.136 0.138 0.134-0.14m0-1e-3 -0.136-0.138m-2.34-3.089-0.134 0.142 0.137 0.138 0.133-0.14-0.136-0.14m0.698 0.71-0.134 0.14m1e-3 0 0.135 0.138m1e-3 0 0.133-0.14m1e-3 -1e-3 -0.137-0.138m0.697 0.708-0.133 0.141 0.136 0.138m0 1e-3 0.134-0.141-0.136-0.138m0.698 0.708-0.134 0.14 0.136 0.139 0.134-0.141-0.136-0.138m0.698 0.708-0.134 0.14m0 1e-3 0.136 0.138m1e-3 0 0.072-0.076m-1.555 1.149-0.035-0.035m0-1e-3 -0.133 0.141 2e-3 2e-3m-4.717 2.168 0.11-0.116-0.043-0.044m0.115-0.276 0.128 0.13m0-1e-3 0.133-0.14m1e-3 0-0.137-0.139-0.112 0.118m0.798-1.911 0.068 0.069m0-1e-3 0.134-0.14-0.12-0.122m0.127-0.308 0.12 0.123m1e-3 0 0.133-0.141-0.136-0.138-0.093 0.098m0.241-0.578 0.04-0.043-0.016-0.016m0.547-1.309 0.026 0.027 0.134-0.141-0.08-0.08m0.338-0.808 0.117 0.119m1e-3 0 0.133-0.141-0.136-0.138-0.086 0.09m0.39-0.932 0.133-0.141m1e-3 -1e-3 -0.053-0.053m3.525 3.578-0.12-0.12m-2.752-3.508-0.134 0.14m0 1e-3 0.136 0.138m1e-3 0 0.133-0.14m0-1e-3 -0.136-0.138m0.712 0.723-0.134 0.14 0.136 0.139m1e-3 0 0.133-0.141-0.136-0.138m0.712 0.722-0.133 0.141m-1e-3 0 0.137 0.138m-1e-3 0 0.134-0.14m1e-3 -1e-3 -0.137-0.138m0.712 0.723-0.133 0.14m0 1e-3 0.136 0.138 0.134-0.14m0-1e-3 -0.137-0.138m0.712 0.723-0.133 0.14m0 1e-3 0.136 0.138 0.134-0.14m0-1e-3 -0.136-0.138m-4.524 3.969-0.134 0.141 0.136 0.138 0.134-0.14-0.136-0.139m0.931-0.481-0.133 0.141 0.136 0.138m0 1e-3 0.134-0.141-0.136-0.138m0.932-0.481-0.134 0.14 0.136 0.139 0.134-0.141-0.136-0.138m0.932-0.481-0.134 0.14m-1e-3 0 0.137 0.139 0.134-0.141m-1e-3 0-0.135-0.138m4.359-6.99q-0.068 0.07-0.133 0.14m-1e-3 0 0.137 0.139 0.133-0.141-0.136-0.138m-0.073-1.501-0.134 0.14 0.137 0.139 0.133-0.141-0.136-0.138m-0.073-1.501-0.134 0.14 0.136 0.139 0.134-0.141-0.136-0.138m-0.135-1.565-0.134 0.141m0 1e-3 0.136 0.137 0.134-0.14-0.136-0.139m-2.183 8.764 0.137 0.138 0.134-0.14-0.136-0.139-0.134 0.14m-0.708-0.717 0.137 0.138 0.133-0.14m0-1e-3 -0.136-0.138-0.134 0.14m-0.707-0.717 0.136 0.138 0.134-0.14m0-1e-3 -0.136-0.138-0.134 0.14m-0.708-0.717 0.137 0.138 0.133-0.14m1e-3 -1e-3 -0.137-0.138-0.133 0.14m-0.708-0.717 0.136 0.138 0.134-0.14m0-1e-3 -0.136-0.138m0 1e-3 -0.134 0.14m4.869-3.897-0.134 0.14m0 1e-3 0.136 0.138 0.134-0.14-0.137-0.139m-0.63-0.64-0.134 0.141 0.136 0.138 0.134-0.14-0.136-0.139m0.624-0.793-0.134 0.14 0.136 0.139 0.134-0.141-0.136-0.138m-1.911 7.61 0.136 0.14 0.134-0.142-0.136-0.138m-1e-3 0-0.133 0.14m-0.74-0.75 0.136 0.138 0.134-0.14-0.136-0.139m0 1e-3 -0.134 0.14m-0.74-0.75 0.136 0.138 0.134-0.141-0.136-0.138-0.134 0.14m-0.74-0.75 0.136 0.138m1e-3 0 0.133-0.14m0-1e-3 -0.136-0.138-0.134 0.14m-0.74-0.75 0.137 0.138 0.133-0.14m1e-3 -1e-3 -0.137-0.138-0.133 0.14m4.276-4.497-0.134 0.14 0.136 0.14 0.134-0.142-0.136-0.138m-1.454 6.649 0.136 0.138 0.134-0.14m0-1e-3 -0.136-0.138-0.134 0.14m-0.708-0.718 0.136 0.139 0.134-0.141-0.136-0.138m-1e-3 0-0.133 0.14m-0.707-0.718 0.136 0.138 0.133-0.14m1e-3 0-0.137-0.139-0.134 0.141m-0.707-0.718 0.136 0.138 0.134-0.14m0-1e-3 -0.137-0.138-0.133 0.14m2.964 2.297 0.137 0.138 0.133-0.141-0.136-0.138-0.134 0.14m-0.743-0.754 0.136 0.138m1e-3 0 0.133-0.14m0-1e-3 -0.136-0.138-0.134 0.14m-0.743-0.754 0.136 0.139 0.134-0.141-0.136-0.138m-1e-3 0-0.133 0.14m-0.744-0.754 0.136 0.138m1e-3 0 0.133-0.14-0.136-0.139-0.134 0.141m-0.743-0.754 0.136 0.138m1e-3 0 0.133-0.14-0.136-0.14-0.134 0.142m2.824 2.152 0.136 0.138 0.134-0.14-0.136-0.139m-1e-3 0-0.133 0.141m-0.709-0.719 0.137 0.139 0.133-0.141m1e-3 0-0.137-0.138-0.133 0.14m-0.709-0.718 0.136 0.138m1e-3 0 0.133-0.14m0-1e-3 -0.136-0.138-0.134 0.14m-0.708-0.718 0.136 0.138 0.134-0.14m0-1e-3 -0.136-0.138-0.134 0.14m2.608 1.935 0.137 0.138 0.133-0.14-0.136-0.14-0.134 0.142m-0.747-0.759 0.136 0.138m0-1e-3 0.134-0.14-0.136-0.138m-1e-3 0-0.133 0.14m-0.748-0.758 0.136 0.138 0.134-0.14m0-1e-3 -0.136-0.138-0.134 0.14m-0.748-0.758 0.136 0.138 0.134-0.14m0-1e-3 -0.136-0.138m-1e-3 0-0.133 0.14m2.452 1.776 0.136 0.138 0.134-0.14m0-1e-3 -0.136-0.138m-1e-3 0-0.133 0.14m-0.355-0.359 0.137 0.138m-1e-3 0 0.134-0.14-0.136-0.139m0 1e-3 -0.134 0.14m-0.708-0.72 0.136 0.139m0 1e-3 0.134-0.142-0.136-0.138-0.134 0.14m-0.709-0.718 0.136 0.138 0.134-0.14-0.136-0.14m-1e-3 0-0.133 0.142m-0.709-0.72 0.137 0.139m0-1e-3 0.133-0.14m1e-3 0-0.137-0.138-0.133 0.14m2.018 1.336 0.137 0.138 0.133-0.14m1e-3 0-0.137-0.139-0.133 0.141m-0.67-0.679 0.136 0.138 0.134-0.14m0-1e-3 -0.136-0.138-0.134 0.14m-0.67-0.678 0.137 0.137 0.133-0.14m1e-3 0-0.137-0.139-0.133 0.141m2.235 1.279-0.134 0.14 0.136 0.139 0.134-0.141-0.136-0.138m-0.349-0.354-0.133 0.14m-1e-3 1e-3 0.137 0.138 0.133-0.14m1e-3 -1e-3 -0.137-0.138m-0.697-0.707-0.133 0.14m-1e-3 0 0.137 0.139m-1e-3 0 0.134-0.141-0.136-0.138m-0.697-0.707-0.134 0.14 0.137 0.138 0.133-0.14-0.136-0.139m1.716 1.028-0.134 0.14m0 1e-3 0.136 0.138m1e-3 0 0.133-0.14m0-1e-3 -0.136-0.138m-0.344-0.349-0.134 0.14m1e-3 1e-3 0.135 0.138 0.134-0.14m1e-3 -1e-3 -0.137-0.138m-0.688-0.698-0.133 0.141m0-1e-3 0.136 0.14 0.134-0.142m0 1e-3 -0.136-0.139m-0.688-0.698-0.134 0.141 0.136 0.138m0 1e-3 0.134-0.141m0-1e-3 -0.136-0.138m2.032 1.35-0.133 0.14m-1e-3 0 0.137 0.139m0-1e-3 0.133-0.14m1e-3 0-0.137-0.138m-1.012-1.028-0.134 0.141 0.136 0.138 0.134-0.14-0.136-0.139m-0.675-0.684-0.134 0.14m1e-3 0 0.135 0.138m1e-3 0 0.133-0.14m1e-3 0-0.137-0.139m1.66 0.971-0.134 0.14 0.136 0.14 0.134-0.142m0 1e-3 -0.136-0.139m-0.986-1-0.134 0.14 0.136 0.139m1e-3 0 0.133-0.14m0-1e-3 -0.136-0.138m-0.329-0.334-0.133 0.141m-1e-3 0 0.137 0.138m-1e-3 0 0.134-0.14m1e-3 0-0.137-0.139m0.657 0.667-0.133 0.141 0.136 0.138 0.134-0.14-0.136-0.139m0.328 0.334-0.134 0.14 0.136 0.139m1e-3 0 0.133-0.141-0.136-0.138m-0.994-0.295-0.133 0.14m0 1e-3 0.136 0.138m0-1e-3 0.134-0.14-0.136-0.138m0.674 0.685-0.133 0.14 0.136 0.139 0.134-0.14m0-1e-3 -0.136-0.138m0.337 0.343-0.134 0.14 0.136 0.138 0.134-0.14m1e-3 0-0.137-0.139m-1.351-0.658-0.134 0.141 0.136 0.138 0.134-0.14-0.136-0.139m0.688 0.699-0.135 0.14 0.137 0.138 0.133-0.14m0-1e-3 -0.136-0.138m1.031 1.047-0.133 0.14 0.136 0.139 0.134-0.141-0.136-0.138m-2.408-1.73-0.134 0.14 0.136 0.139 0.134-0.141-0.136-0.138m0.697 0.707-0.134 0.14m0 1e-3 0.136 0.138 0.134-0.14m0-1e-3 -0.136-0.138m0.697 0.707-0.134 0.141 0.136 0.138m1e-3 1e-3 0.133-0.141-0.136-0.139m1.045 1.061-0.133 0.141m-1e-3 0 0.137 0.138 0.133-0.14m1e-3 0-0.137-0.139m-2.918-1.971 0.136 0.138 0.134-0.141-0.136-0.138m-1e-3 0-0.133 0.14m0.669 0.68 0.136 0.138m1e-3 0 0.133-0.14m0-1e-3 -0.136-0.138-0.134 0.14m0.67 0.68 0.136 0.139 0.134-0.141-0.136-0.138-0.134 0.14m0.669 0.68 0.136 0.138m1e-3 0 0.133-0.14m0-1e-3 -0.136-0.138-0.134 0.14m0.335 0.341 0.136 0.138 0.134-0.14m0-1e-3 -0.136-0.138m-1e-3 0-0.133 0.14m-2.334-1.655 0.136 0.138m1e-3 0 0.133-0.14-0.136-0.139-0.134 0.141m0.708 0.719 0.137 0.138m0 1e-3 0.133-0.141m1e-3 0-0.137-0.139-0.133 0.141m0.708 0.719 0.136 0.139 0.134-0.141-0.136-0.138-0.134 0.14m-2.117-1.435 0.136 0.139m1e-3 0 0.133-0.14m0-1e-3 -0.136-0.138-0.134 0.14m0.748 0.759 0.136 0.139 0.134-0.141-0.136-0.138-0.134 0.14m0.748 0.759 0.136 0.138m0 1e-3 0.134-0.141m0-1e-3 -0.136-0.137m0-1e-3 -0.134 0.141m0.747 0.759 0.137 0.138q0.068-0.07 0.133-0.14m1e-3 0-0.137-0.139-0.133 0.141m-2.589-1.913 0.136 0.138 0.134-0.14m0-1e-3 -0.136-0.138-0.134 0.14m0.708 0.719 0.136 0.139m1e-3 0 0.133-0.141-0.136-0.138-0.134 0.14m0.708 0.719 0.137 0.138m-1e-3 0 0.134-0.14-0.136-0.139-0.134 0.14m0.709 0.72 0.136 0.138 0.134-0.14m0-1e-3 -0.137-0.138-0.133 0.14m0.707 0.719 0.137 0.139 0.134-0.141m-1e-3 -1e-3 -0.135-0.137-0.134 0.14m-2.806-2.134 0.136 0.138m-1e-3 0 0.135-0.14m0-1e-3 -0.137-0.138-0.133 0.14m0.743 0.755 0.136 0.139 0.134-0.141m0-1e-3 -0.136-0.137-0.134 0.14m0.743 0.755 0.136 0.138m1e-3 0 0.133-0.14m0-1e-3 -0.136-0.138-0.134 0.14m0.744 0.755 0.136 0.138m-1e-3 0 0.135-0.14-0.136-0.139m-1e-3 0-0.133 0.141m-2.947-2.277 0.136 0.138 0.134-0.14m0-1e-3 -0.136-0.138m-1e-3 0-0.133 0.14m0.707 0.719 0.137 0.138 0.133-0.14m1e-3 -1e-3 -0.137-0.138m1e-3 0-0.134 0.141m0.707 0.718 0.136 0.139m1e-3 0 0.133-0.141-0.136-0.138m0-1e-3 -0.134 0.141m0.708 0.719 0.136 0.138 0.134-0.14m0-1e-3 -0.136-0.138-0.134 0.14m0.708 0.719 0.136 0.138 0.134-0.14-0.136-0.139-0.134 0.14m1.445-7.37-0.134 0.14m0 1e-3 0.136 0.138 0.134-0.14m0-1e-3 -0.136-0.138m-0.052 0.661-0.134 0.14 0.136 0.139 0.134-0.141-0.136-0.138m-4.2 4.575 0.137 0.138 0.133-0.14m0-1e-3 -0.136-0.138-0.134 0.141m0.74 0.751 0.136 0.138 0.134-0.14-0.136-0.139-0.134 0.14m0.74 0.752 0.136 0.138 0.134-0.14m0-1e-3 -0.136-0.138-0.134 0.14m0.74 0.752 0.136 0.138 0.134-0.14m0-1e-3 -0.136-0.138-0.134 0.14m0.739 0.751 0.016 0.016m1.591-2.942-0.052-0.054m0 1e-3 -0.134 0.14 0.09 0.091m-0.173 0.32-0.106 0.111m0 1e-3 0.03 0.03m-0.9 1.663-0.027-0.027m1e-3 0-0.134 0.141 0.063 0.064m-0.209 0.387-0.055 0.058m0.601-7.513-0.133 0.141 0.136 0.138 0.134-0.14-0.136-0.139m0.63 0.64-0.134 0.141 0.136 0.138m1e-3 0 0.133-0.14-0.136-0.139m-4.907 3.857 0.136 0.14m1e-3 0 0.133-0.142-0.136-0.138-0.134 0.14m0.708 0.719 0.136 0.138 0.134-0.14m0-1e-3 -0.136-0.138m-1e-3 0-0.133 0.14m0.707 0.719 0.136 0.138 0.134-0.14m0-1e-3 -0.136-0.138-0.134 0.14m0.708 0.719 0.136 0.138 0.134-0.14m0-1e-3 -0.136-0.138m-1e-3 0-0.133 0.14m0.707 0.719 0.136 0.138 0.134-0.14m0-1e-3 -0.136-0.138m-1e-3 0-0.133 0.14m2.378-7.137-0.134 0.14m0 1e-3 0.136 0.138 0.134-0.14-0.136-0.139m0.257-0.453-0.134 0.14m0 1e-3 0.136 0.138 0.134-0.14m0-1e-3 -0.136-0.138m0.073 1.501-0.134 0.14m-1e-3 1e-3 0.137 0.138 0.134-0.14m0-1e-3 -0.136-0.138m0.073 1.501-0.134 0.14m0 1e-3 0.136 0.138 0.134-0.14m0-1e-3 -0.136-0.138m-9.9-15.439v-8e-3m-39.467 7.712h2e-3m41.44 8.253-0.134 0.14m0 1e-3h-0.02m0.154-0.141v-0.02m0.156 0.158h-0.02l-0.136-0.138m2e-3 0.3v-0.02m0-1e-3 0.134-0.14m-0.27 2e-3 0.136 0.138m1.551 1.276h-0.021l-1.184-1.2m0-0.023v0.022l-0.133 0.14m0 1e-3h-0.021m0.021 0 1.183 1.2m-1e-3 1e-3 1e-3 0.021m-1e-3 -0.021 0.134-0.141m-40.326 7.442v8e-3m38.443-25.365h-0.201m1.658 8e-3 -1.216-6e-3h-0.241m3.913 0.043q-1.228-0.023-2.456-0.037m2.572 0.038h-0.098l-0.018-1e-3m0.167 0h-0.051m0.974 0h-0.923m-4.281-0.044c0.013 0.076 0.02 0.152 0.033 0.228m-43.978-0.184h0.051m1e-3 1e-3h0.097l0.018-1e-3m2.456-0.037 0.608-4e-3 0.608-3e-3h0.241m20.033 0v0.227m-20.248 22.69-0.081-0.193m39.582 2.577 0.069-0.164m-38.575 0.164-0.069-0.164m40.044-3.353 0.025-0.063m-41.468 0.063-0.026-0.063m-1.318-6.948 0.024-0.156m-0.089 3.79-0.043-0.102-0.039-0.092m44.342 0.194 0.043-0.102 0.039-0.092m-43.924 1.197-0.028-0.066m43.452 0.066 0.028-0.066m-0.446 1.068 0.08-0.194m-42.668 0.194-0.08-0.194m0.916 2.199-0.022-0.055m40.937 0.055 0.023-0.055m-39.917 2.499-0.012-0.028m38.886 0.028 0.012-0.028m10.303-14.915 0.126 2.027 0.127 2.021 0.127 2.017 0.107 1.701m-1.361-0.302 0.327 0.072 0.354 0.079 0.68 0.151m-60.479 0 0.341-0.076 0.34-0.075 0.34-0.076 0.34-0.075m-0.873-7.464-0.126 2.031-0.13 2.032q-0.016 0.225-0.028 0.451l-0.1 1.581-0.105 1.671m1.681-6.513-1.192-1.253m59.504 0a443 443 0 0 1-0.145-1.922l-0.07-0.96-0.026-0.32q-0.029-0.321-0.047-0.642m-58.957 0.422-5e-3 0.059-0.039 0.48-0.035 0.48-0.036 0.482-0.035 0.481-0.036 0.48-0.037 0.48-0.036 0.481m8.697-1.811-3e-3 -1e-3m49.083-6.755-4e-3 -3e-3m1.244 0.932-0.709-0.531-0.531-0.398m1.24 0.929 0.023 0.446 0.024 0.44 0.022 0.435 0.023 0.428 0.022 0.421 0.022 0.415 0.021 0.41 0.021 0.402 0.02 0.396m-1.442-4.725-0.058-0.036m-57.161 0.918-0.067 0.05m1.24-0.929-0.587 0.44-0.586 0.44m1.177-0.883-4e-3 3e-3m-1.24 0.929-0.05 0.933-0.049 0.954-0.035 0.675m1.436-3.53-0.058 0.036m55.983-0.036 5e-3 -4e-3 0.019-0.019 3e-3 -4e-3 3e-3 -3e-3m-3e-3 1e-3 0.048 0.037m-0.016 0.028 0.016-0.028m-56.075 1e-3 0.017 0.027m-0.017-0.027 0.049-0.038m0.026 0.029-3e-3 -4e-3 -4e-3 -4e-3 -3e-3 -4e-3 -7e-3 -7e-3 -6e-3 -8e-3 -3e-3 -3e-3m55.776-0.153 0.142 0.107m-0.022 0.03 0.022-0.03m-55.858 0 0.022 0.03m-0.022-0.03 0.142-0.107m-0.202 0.154 0.06-0.047m55.858 0q0.032 0.021 0.06 0.047m0.048 0.038 4e-3 3e-3m-0.016 0.027 0.017-0.027m-56.084 0 0.017 0.027m-0.017-0.027 5e-3 -3e-3m56.079 3e-3 0.53 0.399 0.709 0.532m-0.016 0.025 0.016-0.025m-58.496-0.049 0.016 0.024m-0.016-0.024 0.587-0.442 0.586-0.44m55.971-0.088-0.022-0.181-0.016-0.13-0.01-0.079m0.073 0.044-0.073-0.043m0.09 0.053-0.017-0.01m0.017 0.01 7e-3 0.041 0.022 0.13 0.023 0.134 0.019 0.119m-0.161-0.478-0.02-0.012m0.574 0.383a11 11 0 0 0-0.385-0.265l-0.079-0.052m1.118 0.792 2e-3 4e-3 0.063 0.167 0.06 0.168 0.062 0.168 0.025 0.07m-0.02-0.013q0.01 7e-3 0.02 0.013m-58.582-0.013 0.066-0.05m-0.086 0.063 0.02-0.014m0.192-0.563-2e-3 4e-3 -0.062 0.167-0.122 0.336-0.026 0.07m29.301-2.27v-0.019m19.832 0.018v-0.02m-39.865 0.02v-0.02m39.865 1e-3h0.2m1e-3 0.019v-0.02m-40.065 1e-3h-0.241l-0.608 3e-3 -0.609 5e-3m45.709-2e-3 0.018-2e-3m-0.018 2e-3 -0.064 8e-3 -0.064 0.01"/><path d="m54.7 0.597-0.294-1e-3 -0.238-1e-3q-0.267 0-0.532-3e-3l-0.498-3e-3 -0.565-4e-3 -0.28-2e-3 -0.195-1e-3m-1.458-9e-3h0.241l0.608 3e-3 0.609 5e-3m-1.458-8e-3h4.052m0.15 4e-3q-0.085-4e-3 -0.15-4e-3m0.153 4e-3h-3e-3m-45.724 0.023v-0.018m42.98 0.018v-0.018m5.508 0.393 8e-3 -0.02m-1.69-0.317q0-0.01-2e-3 -0.02 0.11 1e-3 0.217 5e-3 0.108 4e-3 0.216 0.016a4.4 4.4 0 0 1 1.258 0.316"/><path d="m52.098 0.581q1.242 0.013 2.485 0.038a0.05 0.05 0 0 0-0.029 0.018m0.031-0.019 0.114-0.021m-0.116 0.022h2e-3m-2e-3 0h0.085m2e-3 0.019-2e-3 -0.02m0 1e-3h0.052m1e-3 0.018v-0.017m2.831 21.839 0.136 0.138 0.134-0.14m0-1e-3 -0.136-0.138-0.134 0.14m0.338-1.083 0.137 0.139 0.133-0.141-0.136-0.138-0.133 0.14m0.169-0.541 0.136 0.138 0.134-0.14m0-1e-3 -0.136-0.138m-1e-3 0-0.133 0.14m0.338-1.083 0.136 0.139 0.134-0.141-0.136-0.138-0.134 0.14m0.339-1.083 0.136 0.138 0.134-0.14-0.137-0.139-0.133 0.141m-1.892 3.073 0.136 0.14m-1e-3 0 0.135-0.142-0.136-0.138m-1e-3 0-0.133 0.14m0.506-0.198 0.137 0.138 0.133-0.14-0.136-0.139-0.134 0.14m0.186-0.525 0.136 0.139 0.134-0.141-0.137-0.138-0.133 0.14m0.338-1.083 0.136 0.138 0.134-0.14m0-1e-3 -0.136-0.138-0.134 0.14m0.149-0.562 0.136 0.14 0.134-0.142m0 1e-3 -0.136-0.139-0.134 0.141m-0.336 1.086 0.136 0.138 0.134-0.14m0-1e-3 -0.136-0.138-0.134 0.14m-0.442 0.265 0.073 0.074 0.134-0.14-0.11-0.112m0.899-1.664 0.107 0.108m1e-3 0 0.133-0.14-0.136-0.139-0.028 0.03m0.173-0.32 0.046 0.048 0.134-0.141-0.084-0.085m-1.591 2.942 0.12 0.123m1e-3 0 0.133-0.141m1e-3 0-0.137-0.138-0.078 0.082m0.161 0.992 0.137 0.138 0.133-0.14m0-1e-3 -0.136-0.138-0.134 0.14m1.369-2.89 0.136 0.138m1e-3 0 0.133-0.14m0-1e-3 -0.136-0.138-0.134 0.14m-0.338 1.084 0.136 0.138 0.134-0.14-0.136-0.139-0.134 0.141m-0.508 1.625 0.136 0.138m1e-3 0 0.133-0.14-0.136-0.139-0.134 0.141m1.269-3.982-0.133 0.14m0 1e-3 0.136 0.138 0.134-0.14m0-1e-3 -0.136-0.138m-55.461 4.383-0.136 0.138 0.134 0.141 0.136-0.138-0.134-0.141m-0.338-1.083-0.136 0.138m-1e-3 0 0.134 0.14m1e-3 1e-3 0.135-0.139m1e-3 0-0.134-0.14m-0.169-0.542-0.137 0.138 0.134 0.141 0.136-0.138-0.133-0.141m-0.339-1.083-0.136 0.138 0.133 0.14m1e-3 1e-3 0.136-0.139-0.134-0.14m-0.338-1.084-0.137 0.139m1e-3 0 0.133 0.14 0.136-0.138m1e-3 0-0.134-0.14m1.892 3.073-0.137 0.138 0.134 0.141m0 1e-3 0.136-0.14-0.133-0.14m-0.508-0.199-0.135 0.138m0 1e-3 0.133 0.14 0.137-0.138-0.135-0.142m-0.184-0.524-0.137 0.138m1e-3 0 0.133 0.14m0 1e-3 0.136-0.139m1e-3 0-0.134-0.14m-0.339-1.084-0.136 0.138 0.134 0.141 0.136-0.138-0.134-0.141m-0.149-0.562-0.136 0.138m0 1e-3 0.133 0.14m0 1e-3 0.137-0.139m0-1e-3 -0.134-0.14m0.336 1.086-0.136 0.138 0.134 0.14m0 1e-3 0.136-0.138-0.134-0.141m0.706 0.71-0.135 0.138m-1e-3 0 0.134 0.14m0 1e-3 0.121-0.123m-1.591-2.942-0.084 0.085 0.134 0.14m0 1e-3 0.047-0.048m0.172 0.32-0.028-0.03m1e-3 0-0.137 0.139 0.134 0.14 0.107-0.108m0.899 1.664-0.11 0.112 0.134 0.14 0.073-0.074m0.21 0.387-0.08-0.083m-0.216 0.934-0.136 0.138 0.133 0.141 0.137-0.138-0.134-0.141m-1.369-2.891-0.136 0.138 0.133 0.141 0.137-0.138-0.134-0.141m0.338 1.083-0.136 0.139 0.134 0.14m-1e-3 0 0.137-0.138-0.134-0.14m0.507 1.624-0.135 0.139 0.133 0.14 0.137-0.138-0.134-0.14m-1.272-3.704 0.134 0.141 0.136-0.138m1e-3 0-0.135-0.141-0.136 0.138m53.555-17.436v-0.017m-0.924-1e-3h0.923m-1.727 16.447q-0.146-0.15-0.292-0.296l-0.146-0.149-0.145-0.148-0.292-0.296-0.292-0.295m-44.282-1e-3 -0.584 0.592-0.145 0.148-0.438 0.444m0.911 0.503-0.22 0.224m0.054 0.058 0.08 0.082m44.967 0 0.079-0.083m0.055-0.057-0.22-0.224m-44.866-0.642-0.247 0.251-0.248 0.251m45.926 1e-3 -0.248-0.252-0.247-0.25m1.185-0.225-0.247-0.25-0.248-0.252m-46.316 0-0.248 0.252-0.248 0.25m47.653-0.362-0.596-0.605-0.298-0.302-0.15-0.152-0.148-0.15m-45.615-1e-3 -0.148 0.152-0.149 0.15-0.298 0.303-0.596 0.604m48.343-0.363-0.24-0.244-0.255-0.258m-47.697 0-0.255 0.258-0.241 0.244m49.033-0.363-0.286-0.29-0.31-0.314-0.29-0.295-0.305-0.31m-46.996 0-0.305 0.31-0.29 0.295-0.31 0.315-0.286 0.29m-4.76-10.027a2 2 0 0 1 0.05-0.152m-0.094 1.654-0.01-0.028q-2e-3 -7e-3 -6e-3 -0.013l-4e-3 -0.014q-8e-3 -0.029-0.013-0.058a1.4 1.4 0 0 1-0.026-0.174 3.2 3.2 0 0 1 0.103-1.215m6.987 9.907-0.248 0.25-0.247 0.252m45.914 0-0.247-0.251-0.248-0.251m0.696 0.706-0.134 0.14m-46.048 0-0.134-0.14m0.273-0.128 0.062 0.065m45.646 0 0.062-0.066m0.964-0.597-0.134 0.14m-47.43 1e-3 -0.134-0.141m0.697-0.707-0.248 0.252-0.248 0.25m47.296 1e-3 -0.248-0.252-0.248-0.25m0.346-0.364-0.134 0.141m-46.728 0-0.134-0.14m48.533-13.786h0.04m1e-3 0.018-1e-3 -0.017m-1e-3 -1e-3h0.24m-1.2-1e-3h-0.137m0.135 1e-3h2e-3m2.668 22.113-0.133 0.14m0 1e-3 0.136 0.138m0-1e-3 0.134-0.14-0.136-0.138m-0.466 0.24-0.134 0.141m-1e-3 0 0.137 0.138 0.134-0.14m-1e-3 -1e-3 -0.135-0.138m-1.398 0.722-0.134 0.14 0.136 0.139m1e-3 0 0.133-0.141-0.136-0.138m1.152-1.684-0.134 0.14 0.136 0.138 0.134-0.14m0-1e-3 -0.136-0.138m-2.098 1.715 0.134 0.136 0.134-0.14-0.102-0.104m1.555-1.149 0.06-0.065m1e-3 0-0.017-0.017m-0.229 0.481-0.134 0.14m0 1e-3 0.136 0.138m1e-3 0 0.133-0.14m0-1e-3 -0.136-0.138m-0.939 0.474-0.133 0.141 0.136 0.138m-1e-3 1e-3 0.135-0.141-0.136-0.139m0.458-0.248-0.134 0.141 0.136 0.138m1e-3 0 0.133-0.14m0-1e-3 -0.136-0.138m0.939-0.474-0.134 0.14m0 1e-3 0.136 0.138 0.134-0.14m0-1e-3 -0.136-0.138m0.459-0.248-0.134 0.141m-1e-3 0 0.137 0.138m0 1e-3 0.134-0.141m-1e-3 0-0.135-0.138m-1.975 1.563-0.133 0.14m0 1e-3 0.136 0.138 0.134-0.14m0-1e-3 -0.136-0.138m0.932-0.481-0.134 0.141 0.136 0.138 0.134-0.14-0.136-0.139m0.466-0.24-0.134 0.14m0 1e-3 0.136 0.138 0.134-0.14m0-1e-3 -0.136-0.138m-52.769-0.343 0.133 0.14 0.136-0.137m1e-3 0-0.135-0.141-0.136 0.138m0.466 0.24 0.134 0.141 0.136-0.138-0.133-0.14m-1e-3 -1e-3 -0.136 0.139m1.398 0.721 0.134 0.14m0 1e-3 0.136-0.139-0.133-0.14-0.137 0.138m-1.152-1.685 0.134 0.141 0.136-0.138-0.133-0.14m-1e-3 0-0.136 0.137m0.452 0.255 0.061 0.065m1.556 1.149-0.103 0.103m0 1e-3 0.134 0.14 0.134-0.136m-1.765-1.339-0.017 0.017m0.11 0.602 0.134 0.14m0 1e-3 0.136-0.138-0.134-0.141m1e-3 0-0.137 0.138m0.938 0.475 0.134 0.14m0 1e-3 0.136-0.139-0.133-0.14m0-1e-3 -0.137 0.139m-0.458-0.249 0.133 0.141m1e-3 0 0.136-0.138-0.134-0.14m1e-3 -1e-3 -0.137 0.139m-0.939-0.475 0.134 0.141 0.136-0.138-0.134-0.14m0-1e-3 -0.136 0.138m-0.459-0.247 0.134 0.14m0 1e-3 0.136-0.139-0.133-0.14m-1e-3 -1e-3 -0.136 0.139m1.975 1.563 0.133 0.141 0.136-0.138m1e-3 0-0.134-0.14m-1e-3 -1e-3 -0.136 0.138m-0.932-0.48 0.134 0.14m-1e-3 0 0.137-0.138-0.133-0.14m-1e-3 -1e-3 -0.136 0.139m-0.466-0.241 0.134 0.14m0 1e-3 0.136-0.138-0.133-0.141m-1e-3 0-0.136 0.138m51.344-22.768h-0.916m2.408 0.265a4.4 4.4 0 0 0-1.492-0.265m1.516 0.273-0.024-8e-3m0.973 0.485a5 5 0 0 0-0.462-0.265 5 5 0 0 0-0.487-0.212m0.951 0.479q-2e-3 0-3e-3 -2e-3m0.075 0.049-0.01-6e-3 -0.04-0.027-0.023-0.014m0.137 0.129-0.017-0.021-0.024-0.03-0.023-0.03m-4e-3 0.037 0.068 0.044m-0.09-0.056 0.021 0.013m-0.886-0.465q0.226 0.094 0.442 0.21 0.216 0.113 0.423 0.242m-3.756-0.79 0.202-0.038m0.125 3e-3 -0.125-3e-3m2.58 22.816 0.508 0.508 0.165 0.164m-55.138 0 0.096-0.095 0.406-0.406 0.172-0.17m54.756-21.969 0.01-0.02m-50 24.876h-0.016l-8e-3 1e-3h-8e-3l-8e-3 1e-3h-8e-3l-7e-3 1e-3h-7e-3l-0.017 1e-3 -0.018 2e-3h-0.012m-0.01 1e-3h0.011m50.118-24.851 0.01-0.02m-52.013 22.894 1e-3 -3e-3m48.243 3e-3v-3e-3m3.832-22.827q7e-3 -0.015 6e-3 -0.02l0.016 0.01m-5e-3 0.02a0.1 0.1 0 0 0 5e-3 -0.02l0.08 0.051 0.13 0.086 0.13 0.089 0.128 0.09m-9e-3 0.021 0.01-0.02m1.593 17.837-0.668-0.384-0.38-0.218-0.285-0.165m-57.41 1e-3 -0.332 0.19-0.333 0.192-0.668 0.384"/><path d="m0.57 19.628a3 3 0 0 1-0.189-0.74 3 3 0 0 1-0.02-0.382q0-0.114 8e-3 -0.229m0.974-15.403-0.016-0.025m0.016 0.025-0.023 0.014m-0.013-0.025 0.013 0.024m58.576 1e-3 -0.023-0.014m0.023 0.014 0.013-0.025m0.451 7.648 0.011-0.013 6e-3 -7e-3 5e-3 -6e-3 0.012-0.013v-1e-3l0.011-0.012 8e-3 -0.01 0.038-0.041 0.111-0.125 0.042-0.047 0.023-0.025 0.036-0.04 0.04-0.045 0.025-0.03 0.085-0.094 5e-3 -5e-3 4e-3 -5e-3 5e-3 -6e-3 2e-3 -3e-3 5e-3 -6e-3v-1e-3l6e-3 -6e-3m-0.609-6.893a1 1 0 0 0-0.06-0.043l-0.08-0.044q-0.09-0.045-0.195-0.103m0.364 0.206q-0.012 0-0.029-0.016m-59.696 7.096 0.034 0.034 0.024 0.026 0.037 0.038 0.026 0.028 0.02 0.02q8e-3 0.01 0.019 0.02l0.027 0.03 0.042 0.044 0.03 0.032 0.025 0.026 0.013 0.013 0.024 0.026m-0.321-0.337 0.044-0.799 0.121-2.126 0.037-0.619 0.058-0.942 0.056-0.903 0.053-0.865 0.052-0.826m0.029-0.016q-0.016 0.016-0.03 0.016m0.365-0.205q-0.052 0.03-0.101 0.054l-0.094 0.048q-0.045 0.023-0.08 0.044a1 1 0 0 0-0.06 0.043m57.949-1.41-0.037-0.025-0.17-0.113-0.17-0.112-0.04-0.026m0.481 0.32-0.064-0.044m0.118 0.123-0.014-0.02-0.022-0.032-0.018-0.027m-0.482-0.321q-1e-3 0-2e-3 -2e-3l-0.01-7e-3m1.405 1.482c0.067 0.04 0.13 0.072 0.188 0.104q0.042 0.022 0.076 0.045t0.057 0.046m1e-3 0.019v-0.02"/><path d="m0.986 3.058a0.1 0.1 0 0 0-1e-3 0.02m1e-3 -0.02a0.4 0.4 0 0 1 0.057-0.045q0.034-0.023 0.076-0.046l0.09-0.05q0.048-0.024 0.098-0.054m56.953 19.435 1.073 0.594m-57.45 0q0.135-0.075 0.268-0.148l0.269-0.149 0.268-0.148 0.268-0.149m-2.386-2.67 0.287 0.712 0.39 0.97 0.386 0.96 0.25 0.622m-0.679-20.542-0.06 0.191q-0.03 0.104-0.063 0.207l-0.06 0.195-0.036 0.115m59.03-0.589-0.1-0.057-0.127-0.07m0.264 0.141a0.1 0.1 0 0 1-0.037-0.014m0.037 0.014 0.049 0.156 0.1 0.325 0.03 0.094m-5.371-2.466-0.014-0.014h-2e-3m2.614 0.268v2e-3m-2.41-0.266v1e-3m1e-3 -1e-3v1e-3m2.432 0.272v2e-3m-54.525 21.441c0.112 0.368 0.276 0.843 0.756 1.098m56.08-21.076 0.119 0.072q0.056 0.035 0.096 0.058m8e-3 0.019a0.04 0.04 0 0 0-8e-3 -0.019m-0.105-0.146 0.105 0.146m-58.124 20.442a2 2 0 0 0 0.2 0.369 2.4 2.4 0 0 0 0.337 0.389 2.5 2.5 0 0 0 0.43 0.323q0.092 0.054 0.189 0.096m57.191-21.011q0.016 0.015 0.026 0.016m0.215-0.59h-0.047l-0.186-1e-3h-0.185m0.701 0.612-0.142-0.305-0.07-0.153-0.035-0.076-0.036-0.077m-0.214 0.59 0.203 9e-3 0.152 7e-3q0.026 0 0.052 2e-3 0.045 1e-3 0.09 4e-3m-59.794-0.022q0.01 0 0.026-0.016m-0.524 0.037 0.194-8e-3 0.151-6e-3 0.152-7e-3"/><path d="m0.956 3.093q0-0.01 3e-3 -0.02m59.301 0.02-4e-3 -0.02m0.503 0.046-0.117-6e-3 -0.381-0.021m-59.305 1e-3 -0.128 7e-3 -0.127 7e-3 -0.244 0.013m-0.29 15.202q0.077-2.036 0.168-4.073 0.09-2.039 0.2-4.076m-0.464 8.17 0.096-0.021m0.29-15.203-2e-3 0.06-1e-3 0.059-3e-3 0.119-6e-3 0.237-0.012 0.476-0.025 0.952-0.048 1.903-0.097 3.806-0.144 5.709-0.024 0.951-0.024 0.952m60.978-0.021 0.05 0.01q4e-3 2e-3 0.01 3e-3 7e-3 0 0.016 4e-3 0.01 1e-3 0.02 4e-3m-1.138-15.893a0.1 0.1 0 0 0 0.033 0.012m0 1e-3 0.185-1e-3h0.184l0.047 1e-3m-0.404 0.02-0.012-0.02m0.808 15.814q4e-3 0 0.01 2e-3 4e-3 0 9e-3 2e-3 5e-3 0 9e-3 2e-3 5e-3 0 9e-3 2e-3l0.017 4e-3q8e-3 0 0.016 4e-3 8e-3 0 0.016 4e-3l0.015 3e-3 0.028 6e-3 0.045 9e-3h7e-3l3e-3 2e-3q4e-3 0 7e-3 2e-3h6e-3l5e-3 2e-3"/><path d="m0.369 18.277q-9e-3 1e-3 -0.018 4e-3 -0.01 1e-3 -0.017 4e-3 -0.01 0-0.017 4e-3l-0.015 3e-3q-8e-3 0-0.015 4e-3l-0.013 3e-3q-8e-3 0-0.014 3e-3l-0.012 3e-3 -0.022 4e-3 -0.01 2e-3q-4e-3 0-0.01 2e-3l-7e-3 2e-3q-4e-3 0-8e-3 2e-3h-6e-3l-6e-3 2e-3h-5e-3l-4e-3 2e-3h-3e-3m60.629 1.393-4e-3 -2e-3q-2e-3 0-4e-3 -2e-3 -2e-3 0-5e-3 -3e-3h-2e-3l-4e-3 -3e-3q-3e-3 0-6e-3 -4e-3l-7e-3 -4e-3 -0.017-0.01-0.02-0.011-0.012-6e-3 -0.012-7e-3 -0.013-7e-3 -0.028-0.016-8e-3 -5e-3 -7e-3 -4e-3m0.216 0.123-0.067-0.038m-60.376-1e-3 6e-3 -3e-3q3e-3 -1e-3 8e-3 -5e-3l0.01-6e-3 0.013-7e-3 0.016-0.01 0.019-0.01 0.022-0.013 0.027-0.015 0.029-0.017m-0.218 0.125 0.068-0.038m-0.349-1.372a3.3 3.3 0 0 0 0.282 1.41m1.457 3.179h2e-3l1e-3 -1e-3 5e-3 -2e-3 3e-3 -1e-3 0.012-8e-3h1e-3q2e-3 -3e-3 5e-3 -3e-3 2e-3 0 5e-3 -3e-3l6e-3 -3e-3 7e-3 -4e-3q4e-3 -1e-3 7e-3 -5e-3l0.02-0.01m-0.074 0.04-1.39-3.217m58.913 3.177 0.013 7e-3 0.016 9e-3 0.015 8e-3 6e-3 3e-3 0.013 8e-3 0.01 6e-3m0.034 0.017-4e-3 -1e-3 -0.01-5e-3 -7e-3 -5e-3 -2e-3 -1e-3 -0.01-6e-3m-57.631 0.018 0.034-0.018m-1.458-3.179 0.712 1.6 0.356 0.799 0.178 0.4 0.178 0.399m56.401 1.117 0.01 0.01 1e-3 2e-3h1e-3l1e-3 2e-3h1e-3l1e-3 2e-3 2e-3 2e-3h1e-3l1e-3 2e-3 7e-3 7e-3h1e-3l6e-3 7e-3 8e-3 8e-3 7e-3 6e-3m-55.238 4e-3 0.019-0.019 7e-3 -8e-3 5e-3 -5e-3 3e-3 -2e-3 5e-3 -5e-3q3e-3 0 4e-3 -3e-3l9e-3 -9e-3m-1.263-1.119a2.2 2.2 0 0 0 0.656 0.845q0.085 0.068 0.175 0.125 0.18 0.118 0.38 0.2m52.193 1.16 6e-3 0.015 6e-3 0.012 3e-3 7e-3 4e-3 8e-3v1e-3q1e-3 4e-3 4e-3 8e-3l4e-3 8e-3v2e-3m-49.171-0.061-3e-3 5e-3 -4e-3 0.01-2e-3 4e-3 -1e-3 4e-3 -2e-3 4e-3 -3e-3 7e-3 -4e-3 8e-3v1e-3l-8e-3 0.016v2e-3m-5.527-22.224-0.027 1.104m54.103-3.895-0.284 0.247m0.284-0.247h-0.01q-5e-3 2e-3 -6e-3 4e-3m4.392 1.337-4e-3 3e-3"/></g><path d="m48.191 24.02h-35.155v-21.982h35.155z" stroke-width=".10231"/></g><path d="m49.005 25.953h-36.802a0.21 0.21 0 0 1-0.209-0.209v-24.52c0-0.116 0.093-0.21 0.209-0.21h36.802c0.115 0 0.209 0.094 0.209 0.21v24.52a0.21 0.21 0 0 1-0.209 0.209" stroke-linecap="round" stroke-linejoin="round" stroke-width=".15381"/><path d="m60.72 3.14a0.13 0.13 0 0 0-0.013-0.054l-0.27-0.576-0.04-0.05-0.133-0.107a0.1 0.1 0 0 0-0.049-0.02l-0.456-0.029-1.712-1.115c-0.606-0.361-1.413-0.572-2.12-0.571l-25.077-0.011v0h-0.527v0l-25.08 0.01c-0.706 0-1.513 0.21-2.12 0.572l-1.71 1.115-0.457 0.03a0.1 0.1 0 0 0-0.05 0.019l-0.132 0.106-0.04 0.05-0.27 0.577a0.1 0.1 0 0 0-0.012 0.054l-0.35 15.478c0 0.403 0.083 0.803 0.244 1.173l1.264 2.916c0.327 0.755 0.94 1.349 1.706 1.651l4.913 1.905c0.215 0.083 0.443 0.126 0.674 0.126h43.365c0.23 0 0.46-0.043 0.674-0.126l4.914-1.905a3.1 3.1 0 0 0 1.705-1.65l1.264-2.917c0.16-0.37 0.243-0.77 0.243-1.173z" stroke-linecap="round" stroke-linejoin="round" stroke-width=".20496"/><g><g stroke-width=".061383"><path d="m37.66 0.573-0.011-0.068m-0.198 0-0.01 0.068m0.832 0-0.011-0.068m-0.197 0-0.011 0.068m0.832 0-0.01-0.068m-0.198 0-0.01 0.068m-1.622 0-0.01-0.068m-0.198 0-0.01 0.068m-16.894 0-0.01-0.068m-0.198 0-0.01 0.068m3.795 0-0.01-0.068m-0.198 0-0.01 0.068m14.199-0.103a0.04 0.04 0 0 0-0.04 0.035m0.197 0a0.04 0.04 0 0 0-0.04-0.034m0.496-1e-3a0.04 0.04 0 0 0-0.04 0.035m0.197 0a0.04 0.04 0 0 0-0.04-0.034m-1.343-1e-3a0.04 0.04 0 0 0-0.04 0.035m0.196 0a0.04 0.04 0 0 0-0.04-0.034m1.723-1e-3a0.04 0.04 0 0 0-0.04 0.035m0.197 0a0.04 0.04 0 0 0-0.04-0.034m-19.069-1e-3a0.04 0.04 0 0 0-0.04 0.035m0.197 0a0.04 0.04 0 0 0-0.04-0.034m3.461-1e-3a0.04 0.04 0 0 0-0.04 0.035m0.196 0a0.04 0.04 0 0 0-0.04-0.034m25.065 0.102-0.015-0.15m-2.485 0.15-0.036-0.157m2.521 7e-3a0.06 0.06 0 0 0-0.061-0.055m-2.459 0.048a0.06 0.06 0 0 0-0.06-0.048m-2.549 0.055-0.016 0.15m0.077-0.205a0.06 0.06 0 0 0-0.061 0.055"/><path d="m45.961 0.368-0.01 1e-3 -6e-3 1e-3m-8.453 0.1h0.116m0.497 0h0.116m-1.342 0h0.116m1.723 0h0.117m-19.069 0h0.117m3.461 0h0.116m24.968-0.047h-2.003m-2.533 0h-0.063m2.596 0h-0.047m-0.448 0h-2.038m-0.016-0.055h0.016v0.055m-0.016-0.055a0.054 0.054 0 0 0-0.047 0.055m4.599 0v-0.055h0.02m-2.023 0v0.055m0-0.055h2.003m-2.003 0a0.054 0.054 0 0 0-0.047 0.055m-0.448 0v-0.055m-2.038 0h2.038m-2.101 0.055h-0.429m2.561-0.055h0.464m-2.978 0h0.429m-0.429 0a0.054 0.054 0 0 0-0.047 0.055m0.042-0.055h5e-3m-32.671 0.225h19.832m19.832 0h-19.832m0-0.02h-19.831m19.831 0h19.831m-12.79-0.068h-0.198m0.811 0h-0.197m0.81 0h-0.197m-1.643 0h-0.197m-16.915 0h-0.197m3.774 0h-0.197m23.122-0.082-7e-3 0.15m2.01-0.15v0.15m-4.599-0.15-0.012 0.15m0.075-0.15v0.15m4.618-0.15h-0.082m-2.058 0.15 8e-3 -0.15m-0.415 0.15-0.033-0.15m0.06-7e-3a0.14 0.14 0 0 0-0.06 7e-3m0.448 0h-0.387m-2.591 0-0.012 0.15"/><path d="m45.961 0.368-8e-3 1e-3 -5e-3 2e-3m-2.548 0.052h-0.019m-40.594 0.909-3e-3 2e-3m0.044-0.027-1e-3 1e-3 -0.04 0.025-3e-3 2e-3"/></g><g stroke-width=".15381"><path d="m6.011 0.089-0.015-5e-3a0.2 0.2 0 0 0-0.042-6e-3h-0.027m0.676 0.216-0.162-0.057q-0.22-0.077-0.431-0.147m-3.228 0.586a7 7 0 0 1-0.47 0.223q-0.13 0.054-0.266 0.104m4.924-0.43-0.296-0.245m0 2e-3 -0.021-0.018a0.1 0.1 0 0 0-0.033-0.015q-6e-3 0-0.01-3e-3m-5.403 1.242-0.015 0.212-0.04 0.555m0.248-1.039-0.025 0.014-0.038 0.027m-0.129 0.225-1e-3 8e-3m0.493-0.395q-0.034 0.014-0.069 0.026l-0.205 0.079m1.346 0.159c0-0.11 0.011-0.295 0.012-0.402l2e-3 -0.311"/><path d="m2.786 0.77-0.025-0.056q-9e-3 -0.022-7e-3 -0.022m3.174-0.612-0.408-3e-3h-0.205a6 6 0 0 0-1.81 0.292 5 5 0 0 0-0.567 0.228q-0.092 0.046-0.183 0.094m3.328-0.539q0.29 0.085 0.575 0.174m-0.575-0.174a0.12 0.12 0 0 0-0.071-0.064"/><path d="m2.754 0.692-0.066 0.034-0.066 0.035-0.132 0.069a49 49 0 0 1-0.79 0.404m4.958-0.908a0.1 0.1 0 0 0-0.054-0.036m-5.394 1.246v-4e-3l0.152-0.023 0.162-0.024m-0.12-0.217 0.021-0.014 0.022-0.014m0.253-0.097 0.11-0.043m1e-3 0 0.259-0.106m-0.401 0.257a0.3 0.3 0 0 0-0.098 0.103 0.3 0.3 0 0 0-0.047 0.13m0.176-0.251q-0.016 8e-3 -0.031 0.018m-0.459 0.281a0.3 0.3 0 0 1 0.06-0.16 0.3 0.3 0 0 1 0.134-0.104"/><path d="m1.21 1.53a0.31 0.31 0 0 1 0.194-0.262m-0.196 0.262h1e-3m0.191-0.265 0.047-0.025m4.859-0.657-0.102-0.181a3 3 0 0 1-0.09-0.183l-0.03-0.067m0.574 0.174 0.284 0.247m-5.418 0.912 0.019 0.452 0.01 0.227m-0.397 0.139 0.022-0.318 3e-3 -0.045 0.03-0.404m5.447-1.21h0.01l5e-3 4e-3m-5.463 1.202h-2e-3v-2e-3m2e-3 6e-3h-3e-3"/></g><path d="m58.42 1.384-4e-3 -2e-3m0 1e-3 -0.04-0.025v-1e-3m0.043 0.028-3e-3 -2e-3" stroke-width=".061383"/><g stroke-width=".15381"><path d="m55.276 0.127h-0.026a0.2 0.2 0 0 0-0.042 6e-3l-0.016 5e-3m2e-3 2e-3q-0.213 0.07-0.432 0.146l-0.162 0.058m4.557 0.709q-0.136-0.05-0.266-0.104c-0.163-0.068-0.317-0.146-0.47-0.223m-3.893-0.348-0.294 0.245m0.358-0.279q-6e-3 0-0.01 3e-3a0.2 0.2 0 0 0-0.053 0.032m5.521 1.974-0.039-0.555-0.015-0.212m-0.13-0.231q-0.015-0.012-0.038-0.027l-0.024-0.014m0.192 0.274v-8e-3m-0.219-0.282-0.205-0.078-0.069-0.027m-1.086-0.449 2e-3 0.31c0 0.108 0.012 0.293 0.012 0.403"/><path d="m58.449 0.741q1e-3 1e-3 -7e-3 0.022l-0.026 0.057m0.033-0.079-0.183-0.094a4.798 4.798 0 0 0-0.567-0.228 6 6 0 0 0-0.792-0.198 6 6 0 0 0-1.017-0.094h-0.205l-0.41 2e-3m-0.73 0.246q0.285-0.088 0.575-0.173m0.072-0.064a0.12 0.12 0 0 0-0.072 0.064"/><path d="m59.504 1.283a83 83 0 0 1-0.79-0.404l-0.134-0.068-0.132-0.07m-3.848-0.4a0.1 0.1 0 0 0-0.055 0.035m5.447 1.206v4e-3m-0.312-0.051 0.312 0.047m-0.236-0.292 0.022 0.014 0.021 0.014m-0.407-0.168 0.112 0.043m-0.371-0.149 0.259 0.106m0.288 0.385a0.3 0.3 0 0 0-0.048-0.131 0.4 0.4 0 0 0-0.098-0.103m0-1e-3 -0.03-0.017m0.296 0.035a0.3 0.3 0 0 1 0.174 0.18q0.015 0.04 0.018 0.084"/><path d="m59.8 1.318a0.3 0.3 0 0 1 0.074 0.042 0.33 0.33 0 0 1 0.101 0.136q0.015 0.04 0.019 0.084h1e-3m-0.239-0.29 0.048 0.025m-4.684-1.113-0.03 0.067q-0.042 0.09-0.09 0.183-0.05 0.09-0.103 0.18m-0.636-9e-3 0.08-0.07q0.104-0.089 0.204-0.178m5.106 1.839 0.01-0.227 0.02-0.452m0.312 0.051 0.029 0.404 3e-3 0.045 0.022 0.318"/><path d="m54.53 0.38 5e-3 -4e-3h0.01m5.45 1.204v1e-3h-1e-3l-1e-3 1e-3m3e-3 4e-3h-3e-3"/></g></g><g stroke-linecap="round" stroke-linejoin="round"><path d="m2.66 1.569-0.123 2.341-0.761 13.5a3.7 3.7 0 0 0 0.111 1.136l0.34 1.325 0.837 2.779c0.102 0.34 0.337 0.624 0.652 0.788l5.604 2.92m49.242-24.783 0.135 2.355 0.761 13.5c0.022 0.383 0.047 0.698-0.048 1.129l-0.404 1.332-0.836 2.78c-0.102 0.339-0.337 0.623-0.652 0.787l-5.604 2.92" stroke-width=".12277"/><path d="m9.915 5.284-5e-3 5e-3 -6e-3 3e-3h-0.014l-5e-3 -4e-3 -4e-3 -5e-3 -3e-3 -7e-3v-7e-3l1e-3 -3e-3 0.016-0.038 0.01-0.02m-1e-3 0 2e-3 -7e-3v-7e-3q0-4e-3 -3e-3 -6e-3l-3e-3 -5e-3q-3e-3 0-6e-3 -4e-3h-0.014q-3e-3 0-7e-3 3e-3l-4e-3 5e-3v1e-3m-1e-3 0-0.042 0.074m-1e-3 0q4e-3 8e-3 3e-3 0.017 0 8e-3 -2e-3 0.017a0.1 0.1 0 0 1-0.012 0.031 0.2 0.2 0 0 1-0.041 0.053l-0.022 0.081m-1e-3 0v3e-3l-5e-3 0.01-3e-3 3e-3 -4e-3 2e-3h-8e-3m0 1e-3 -3e-3 -1e-3h-3e-3l-3e-3 1e-3v1e-3m-1e-3 0-1e-3 2e-3v6e-3m0 1e-3 0.03 0.075m1e-3 0v2e-3l-1e-3 1e-3 -0.023 0.026m0 1e-3v3e-3l0.04 0.058m-1e-3 0 5e-3 5e-3 6e-3 3e-3h7e-3l6e-3 -1e-3 6e-3 -3e-3 5e-3 -5e-3 2e-3 -7e-3v-4e-3m1e-3 0a0.5 0.5 0 0 1 0.075-0.28l0.02-0.03 5e-3 -5e-3 6e-3 -3e-3h0.014l6e-3 4e-3 4e-3 5e-3 2e-3 6e-3v0.01m0 1e-3 -0.015 0.047m0 1e-3 -0.03 0.05v8e-3l3e-3 2e-3 2e-3 1e-3h2e-3m-1e-3 1e-3 6e-3 2e-3 8e-3 5e-3 5e-3 5e-3q8e-3 0.01 0.012 0.023a0.1 0.1 0 0 1-2e-3 0.026q-9e-3 0.024-0.024 0.046m-1e-3 0v4e-3l1e-3 2e-3 2e-3 2e-3m0 1e-3 0.043 0.037m-1e-3 0q3e-3 1e-3 6e-3 4e-3h0.014l6e-3 -3e-3 5e-3 -5e-3 3e-3 -6e-3v-4e-3m1e-3 -1e-3a0.5 0.5 0 0 1 0.017-0.11l0.014-0.055q6e-3 -0.027 0.02-0.053" stroke-width=".051153"/><path d="m10.03 5.382 5e-3 -6e-3 5e-3 -4e-3 7e-3 -2e-3h7e-3l6e-3 3e-3 5e-3 5e-3 3e-3 6e-3v5e-3m1e-3 1e-3 1e-3 0.037v0.039l-3e-3 0.04m0-1e-3 0.02 0.042m-1e-3 1e-3 4e-3 0.102 0.065 0.06 5e-3 5e-3 7e-3 2e-3h7e-3l7e-3 -4e-3 4e-3 -5e-3 3e-3 -6e-3 1e-3 -7e-3v-4e-3m0-1e-3 -1e-3 -2e-3 -2e-3 -6e-3 -1e-3 -6e-3 -3e-3 -0.012m0-1e-3 -3e-3 -0.01m0-1e-3a2 2 0 0 1-0.034-0.218 3 3 0 0 1-0.01-0.22l-1e-3 -7e-3 -4e-3 -6e-3q0-2e-3 -4e-3 -5e-3l-7e-3 -2e-3h-6e-3q-4e-3 0-7e-3 2e-3 -3e-3 0-6e-3 4e-3l-4e-3 6e-3m0-1e-3q-7e-3 0.014-0.015 0.029l-0.032 0.052m-1e-3 0-2e-3 4e-3 -4e-3 5e-3 -3e-3 5e-3m-1e-3 0-4e-3 5e-3 -6e-3 3e-3h-0.014l-6e-3 -4e-3 -4e-3 -5e-3 -3e-3 -7e-3v-8e-3m1e-3 -1e-3 5e-3 -0.022 7e-3 -0.023 0.011-0.035m1e-3 0a0.02 0.02 0 0 0 0-0.014q-1e-3 -4e-3 -4e-3 -6e-3l-5e-3 -5e-3 -6e-3 -2e-3h-7e-3l-7e-3 1e-3 -5e-3 4e-3 -2e-3 2e-3m0 1e-3 -0.075 0.1" stroke-width=".051153"/></g><path d="m57.966 4.439a1.162 1.162 0 1 1-2.323 0 1.162 1.162 0 0 1 2.323 0m1.954 1.917a1.162 1.162 0 1 1-2.323 0 1.162 1.162 0 0 1 2.323 0" stroke-width=".081844"/><path d="m10.215 3.34v-0.255m-0.525-0.183v0.256m0.525-0.073h-0.338m-0.127-0.125h0.225m-0.098 0.125v0.255m0.098-0.38v0.088m-0.135 0.059h-0.09m0.09 0.051v-0.052m-0.09 1e-3v-0.147m-0.06 0.198h0.15m0.037 0.182h0.339m-0.188-0.438h-0.339m0.339 0.146v-0.146m-0.053 0.146h0.053m-0.091 0.095v0.146m0.218 1e-3v-0.147m-0.218 0.147h0.218m0-0.147h-0.218" stroke-linecap="round" stroke-linejoin="round" stroke-width=".027517"/><g><path d="m8.118 13.183h-0.017a2.48 2.48 0 0 1-2.472-2.472 2.48 2.48 0 0 1 2.471-2.473h0.017a2.48 2.48 0 0 1 2.473 2.473 2.48 2.48 0 0 1-2.473 2.472z" stroke-width=".10231"/><path d="m10.369 10.71a2.27 2.27 0 0 1-2.26 2.28 2.27 2.27 0 0 1-2.258-2.28 2.27 2.27 0 0 1 2.259-2.277 2.27 2.27 0 0 1 2.259 2.279z" stroke-width=".061383"/><path d="m10.145 10.71a2.035 2.035 0 1 1-4.07 0 2.035 2.035 0 0 1 4.07 0z" stroke-width=".10231"/></g><path d="m7.395 8.788 0.055 1.253 1.285-0.031 0.037-1.206m0 3.839-0.055-1.254-1.285 0.032-0.037 1.206m-1.197-1.292 1.164-0.028-0.03-1.247-1.158-0.01m3.839 1.285-1.213-0.028 0.032-1.247 1.206-0.01" stroke-linecap="round" stroke-linejoin="round" stroke-width=".081844"/><g><path d="m6.625 6.395c0 1.539-1.23 2.786-2.745 2.786-1.517 0-2.746-1.247-2.746-2.786s1.23-2.785 2.746-2.785 2.745 1.248 2.745 2.786" stroke-width=".10231"/><path d="m5.603 6.395a1.723 1.723 0 1 1-3.446 0 1.723 1.723 0 0 1 3.446 0z" stroke-width=".10231"/><path d="m5.168 6.395c0 0.731-0.577 1.324-1.288 1.324s-1.288-0.593-1.288-1.324c0-0.73 0.577-1.323 1.288-1.323 0.71 0 1.288 0.592 1.288 1.323z" stroke-width=".061383"/><path d="m6.28 6.395a2.4005 2.4005 0 1 1-4.801 0 2.401 2.401 0 0 1 4.802 0z" stroke-width=".10231"/></g><g stroke-linecap="round" stroke-linejoin="round" stroke-width=".051153"><path d="m57.23 8.434h-0.712v-0.176h0.712v-0.198l-0.41-0.045-0.412 0.045v0.756l-0.088-0.022-0.074-0.03m1e-3 0v-0.844l0.572-0.08 0.58 0.08v0.844l-0.096 0.03-0.073 0.022v-0.382m-0.03 0.029v0.345m-0.785-8e-3v-0.542m-7e-3 -0.198 7e-3 0.021m0.095 0.155v0.161m0.72-0.139-0.015-0.015-0.014-0.015m-1e-3 0-0.344 7e-3h-0.345m0.719 0.199-0.029 0.029"/><path d="m56.408 8.816-0.088-0.022-0.074-0.03m0.162 0.052v-0.383m0 1e-3v-0.374l0.411-0.045 0.411 0.045m0 0.198v-0.198m0 0.198h-0.712m0 0.176v-0.176m0 0.176h0.712v0.382l0.096-0.022 0.073-0.03v-0.844l-0.58-0.08-0.572 0.08v0.844m2.527-2.915 0.345 0.022 0.235 0.059m-1e-3 0v0.337l-0.103 0.03-0.095 0.014h-7e-3l-0.014 0.014v0.014l0.014 0.014h7e-3m0 2e-3 0.11 0.023 0.089 0.022m-1e-3 0v0.33l-0.58 0.088m1e-3 0h-0.301v-0.169h0.3m1e-3 0 0.41-0.037m1e-3 0v-0.161m0-1e-3 -0.228-0.028-0.206-7e-3m1e-3 -1e-3h-0.279v-0.161h0.286l0.426-0.037v-0.162m0 1e-3 -0.411-0.037h-0.411v0.8h-0.163m1e-3 0v-0.969h0.573m-0.404 0.198v0.762m-7e-3 -0.791 7e-3 0.015v0.014m0.983-0.117v0.337m-0.579-0.418h-0.574m1e-3 0.969v-0.969m0 0.969h0.162v-0.8h0.41m1e-3 0 0.41 0.037m1e-3 0.161v-0.162m-0.426 0.199 0.426-0.037m-0.712 0.037h0.286m-0.286 0.161v-0.161m0 0.161h0.279"/><path d="m58.752 6.414 0.256 0.015 0.177 0.022m0 0.161v-0.161m0 0.161-0.411 0.037h-0.301m0 0.169h0.3m0.58-0.088-0.58 0.088m0.58-0.088v-0.33l-0.11-0.03-0.088-0.015h-7e-3l-0.014-0.014v-0.014l0.014-0.014h7e-3m0-2e-3 0.199-0.044m-5.111-0.337 0.11-0.029 0.089-0.015 0.374 0.36 0.374-0.36 0.199 0.044-0.25 0.242-0.198 0.199m-1e-3 -1e-3 0.456 0.434-0.118 0.03-0.087 0.021m-1e-3 0-0.374-0.367-0.213 0.206-0.161 0.161-0.118-0.022-0.08-0.03m-1e-3 1e-3 0.448-0.433m0-1e-3 -0.257-0.249-0.19-0.19m0.946-0.045 0.199 0.044m-0.199-0.044-0.374 0.36-0.374-0.36"/><path d="m54.243 5.93 0.11-0.029 0.089-0.015m-0.199 0.044 0.448 0.441m0-1e-3 -0.447 0.434m0.198 0.051-0.118-0.022-0.08-0.03m0.198 0.052 0.374-0.367 0.374 0.367m0.206-0.051-0.118 0.03-0.087 0.021m0.205-0.051-0.455-0.433m-1e-3 -1e-3 0.448-0.44m1.337-0.946v-0.462l-0.492-0.463m0 1e-3 0.117-0.03 0.088-0.015m0.375 0.353-0.374-0.353m0.374 0.353 0.374-0.353m0.198 0.045-0.11-0.023-0.088-0.022m-0.293 0.507 0.491-0.463m-0.491 0.463v0.462m-0.169 0 0.095 7e-3 0.073-7e-3"/><path d="m56.725 4.984 0.095 7e-3 0.073-7e-3m1e-3 0v-0.462l0.491-0.463m0 1e-3 -0.11-0.023-0.088-0.022-0.374 0.353-0.374-0.353m-0.206 0.045 0.117-0.03 0.088-0.015m-0.205 0.045 0.492 0.462v0.462"/></g><g><path d="m57.798 4.439a0.993 0.993 0 1 1-1.986 0 0.993 0.993 0 0 1 1.986 0z" stroke-width=".051153"/><path d="m56.007 6.398a1.162 1.162 0 1 1-2.323 0 1.162 1.162 0 0 1 2.323 0z" stroke-width=".081844"/><path d="m55.839 6.398a0.9935 0.9935 0 1 1-1.987 0 0.9935 0.9935 0 0 1 1.987 0z" stroke-width=".051153"/><path d="m57.953 8.33a1.162 1.162 0 1 1-2.323 0 1.162 1.162 0 0 1 2.323 0z" stroke-width=".081844"/><path d="m57.785 8.33a0.9935 0.9935 0 1 1-1.987-1e-3 0.9935 0.9935 0 0 1 1.987 0zm1.967-1.974a0.9935 0.9935 0 1 1-1.987 0 0.9935 0.9935 0 0 1 1.987 0z" stroke-width=".051153"/><path d="m53.762 10.923a1.039 1.039 0 1 1-2.078 0 1.039 1.039 0 0 1 2.078 0z" stroke-width=".061383"/><g stroke-width=".10231"><path d="m54.313 10.923a1.59 1.59 0 1 1-3.18 0 1.59 1.59 0 0 1 3.18 0z"/><path d="m55.529 10.923c0 1.531-1.256 2.773-2.806 2.773s-2.806-1.242-2.806-2.773 1.256-2.773 2.806-2.773 2.806 1.242 2.806 2.773z"/><path d="m55.147 10.923a2.4245 2.4245 0 1 1-4.849 0 2.425 2.425 0 0 1 4.85 0z"/></g></g><path d="m51.484 3.008h-0.448v-0.082h0.448zm-7e-3 0.317h-0.448v-0.082h0.448zm0-0.159h-0.448v-0.082h0.448zm-0.231 2.077v-0.086m0.192 0.265v0.187m-0.385-0.366h0.192m-0.192 0.367v-0.367m0.193-0.085h-0.233m0.417 0.179 0.04-8e-3 0.024-0.024 0.024-0.023 8e-3 -0.04-8e-3 -0.03-0.024-0.031-0.024-0.016-0.04-8e-3 -0.032 8e-3 -0.032 0.016-0.016 0.03-8e-3 0.032 8e-3 0.04 0.016 0.022 0.032 0.024zm0.096 0.085h-0.088m0.088 0.226v-0.226m-0.048 0.273h0.016l0.024-0.024v-0.016l8e-3 -8e-3m-0.513 0.048h0.465m-0.505-0.047v0.016l8e-3 8e-3v8e-3l0.016 0.016h0.016m-0.04-0.492v0.444m0.04-0.49h-0.016l-0.024 0.024v0.023m0.465 0.405h-0.385" stroke-linecap="round" stroke-linejoin="round" stroke-width=".051153"/><g stroke-width=".10231"><path d="m11.425 7.692a0.1125 0.1125 0 1 1-0.225 0 0.1125 0.1125 0 0 1 0.225 0zm-1.43-1.337h-0.098a0.556 0.556 0 0 1-0.556-0.556v-3.096c0-0.307 0.249-0.556 0.556-0.556h0.098c0.308 0 0.557 0.25 0.557 0.556v3.097c0 0.307-0.25 0.556-0.557 0.556z"/><path d="m9.34 2.892v0.565c0 0.307 0.25 0.556 0.557 0.556h0.098c0.307 0 0.557-0.249 0.557-0.556v-0.565m0 2.588v-0.38a0.556 0.556 0 0 0-0.557-0.556h-0.098a0.556 0.556 0 0 0-0.556 0.556v0.381m41.949 0.887h-0.098a0.556 0.556 0 0 1-0.556-0.556v-3.095c0-0.307 0.25-0.556 0.556-0.556h0.099c0.307 0 0.556 0.249 0.556 0.556v3.095c0 0.307-0.249 0.556-0.556 0.556z"/><path d="m50.636 2.905v0.565c0 0.308 0.249 0.557 0.556 0.557h0.099c0.307 0 0.556-0.25 0.556-0.557v-0.565m0 2.589v-0.382a0.556 0.556 0 0 0-0.556-0.556h-0.099a0.556 0.556 0 0 0-0.556 0.556v0.382m-0.651 2.176a0.112 0.112 0 1 1-0.224 0 0.112 0.112 0 0 1 0.224 0z"/></g></g></svg>
