<svg width="145.07mm" height="59.444mm" version="1.1" viewBox="0 0 145.07 59.444" xml:space="preserve" xmlns="http://www.w3.org/2000/svg" xmlns:xlink="http://www.w3.org/1999/xlink"><defs><clipPath id="clipPath4193"><path transform="translate(-326 -306.84)" d="m71.95 353.87c-16.096 0-29.144-13.048-29.144-29.145v-202.81c0-16.095 13.048-29.143 29.144-29.143h814.55c16.097 0 29.145 13.048 29.145 29.143v202.81c0 16.097-13.048 29.145-29.145 29.145z"/></clipPath><clipPath id="clipPath4195"><path transform="translate(-280.2 -293.25)" d="m71.95 353.87c-16.096 0-29.144-13.048-29.144-29.145v-202.81c0-16.095 13.048-29.143 29.144-29.143h814.55c16.097 0 29.145 13.048 29.145 29.143v202.81c0 16.097-13.048 29.145-29.145 29.145z"/></clipPath><clipPath id="clipPath4197"><path transform="translate(-629.03 -306.87)" d="m71.95 353.87c-16.096 0-29.144-13.048-29.144-29.145v-202.81c0-16.095 13.048-29.143 29.144-29.143h814.55c16.097 0 29.145 13.048 29.145 29.143v202.81c0 16.097-13.048 29.145-29.145 29.145z"/></clipPath><clipPath id="clipPath4199"><path transform="translate(-340.96 -303.38)" d="m71.95 353.87c-16.096 0-29.144-13.048-29.144-29.145v-202.81c0-16.095 13.048-29.143 29.144-29.143h814.55c16.097 0 29.145 13.048 29.145 29.143v202.81c0 16.097-13.048 29.145-29.145 29.145z"/></clipPath><clipPath id="clipPath4201"><path transform="translate(-609.45 -154.12)" d="m71.95 353.87c-16.096 0-29.144-13.048-29.144-29.145v-202.81c0-16.095 13.048-29.143 29.144-29.143h814.55c16.097 0 29.145 13.048 29.145 29.143v202.81c0 16.097-13.048 29.145-29.145 29.145z"/></clipPath><clipPath id="clipPath4203"><path transform="translate(-345.43 -155.94)" d="m71.95 353.87c-16.096 0-29.144-13.048-29.144-29.145v-202.81c0-16.095 13.048-29.143 29.144-29.143h814.55c16.097 0 29.145 13.048 29.145 29.143v202.81c0 16.097-13.048 29.145-29.145 29.145z"/></clipPath><clipPath id="clipPath4205"><path transform="translate(0 2.5e-5)" d="m71.95 353.87c-16.096 0-29.144-13.048-29.144-29.145v-202.81c0-16.095 13.048-29.143 29.144-29.143h814.55c16.097 0 29.145 13.048 29.145 29.143v202.81c0 16.097-13.048 29.145-29.145 29.145z"/></clipPath><clipPath id="clipPath4207"><path transform="translate(-324.63 -218.01)" d="m71.95 353.87c-16.096 0-29.144-13.048-29.144-29.145v-202.81c0-16.095 13.048-29.143 29.144-29.143h814.55c16.097 0 29.145 13.048 29.145 29.143v202.81c0 16.097-13.048 29.145-29.145 29.145z"/></clipPath><clipPath id="clipPath4209"><path transform="translate(-303.97 -198.86)" d="m71.95 353.87c-16.096 0-29.144-13.048-29.144-29.145v-202.81c0-16.095 13.048-29.143 29.144-29.143h814.55c16.097 0 29.145 13.048 29.145 29.143v202.81c0 16.097-13.048 29.145-29.145 29.145z"/></clipPath><clipPath id="clipPath4211"><path transform="translate(-304.03 -229.6)" d="m71.95 353.87c-16.096 0-29.144-13.048-29.144-29.145v-202.81c0-16.095 13.048-29.143 29.144-29.143h814.55c16.097 0 29.145 13.048 29.145 29.143v202.81c0 16.097-13.048 29.145-29.145 29.145z"/></clipPath><clipPath id="clipPath4213"><path transform="translate(-304.03 -201.96)" d="m71.95 353.87c-16.096 0-29.144-13.048-29.144-29.145v-202.81c0-16.095 13.048-29.143 29.144-29.143h814.55c16.097 0 29.145 13.048 29.145 29.143v202.81c0 16.097-13.048 29.145-29.145 29.145z"/></clipPath><clipPath id="clipPath4215"><path transform="translate(-315.61 -217.96)" d="m71.95 353.87c-16.096 0-29.144-13.048-29.144-29.145v-202.81c0-16.095 13.048-29.143 29.144-29.143h814.55c16.097 0 29.145 13.048 29.145 29.143v202.81c0 16.097-13.048 29.145-29.145 29.145z"/></clipPath><clipPath id="clipPath4217"><path transform="translate(-287.97 -217.96)" d="m71.95 353.87c-16.096 0-29.144-13.048-29.144-29.145v-202.81c0-16.095 13.048-29.143 29.144-29.143h814.55c16.097 0 29.145 13.048 29.145 29.143v202.81c0 16.097-13.048 29.145-29.145 29.145z"/></clipPath><clipPath id="clipPath4219"><path transform="translate(-311.64 -166.82)" d="m71.95 353.87c-16.096 0-29.144-13.048-29.144-29.145v-202.81c0-16.095 13.048-29.143 29.144-29.143h814.55c16.097 0 29.145 13.048 29.145 29.143v202.81c0 16.097-13.048 29.145-29.145 29.145z"/></clipPath><clipPath id="clipPath4221"><path transform="translate(-321.26 -176.39)" d="m71.95 353.87c-16.096 0-29.144-13.048-29.144-29.145v-202.81c0-16.095 13.048-29.143 29.144-29.143h814.55c16.097 0 29.145 13.048 29.145 29.143v202.81c0 16.097-13.048 29.145-29.145 29.145z"/></clipPath><clipPath id="clipPath4223"><path transform="translate(-645.03 -178.08)" d="m71.95 353.87c-16.096 0-29.144-13.048-29.144-29.145v-202.81c0-16.095 13.048-29.143 29.144-29.143h814.55c16.097 0 29.145 13.048 29.145 29.143v202.81c0 16.097-13.048 29.145-29.145 29.145z"/></clipPath><clipPath id="clipPath4225"><path transform="translate(-654.05 -166.49)" d="m71.95 353.87c-16.096 0-29.144-13.048-29.144-29.145v-202.81c0-16.095 13.048-29.143 29.144-29.143h814.55c16.097 0 29.145 13.048 29.145 29.143v202.81c0 16.097-13.048 29.145-29.145 29.145z"/></clipPath><clipPath id="clipPath4227"><path transform="translate(-657.61 -254.7)" d="m71.95 353.87c-16.096 0-29.144-13.048-29.144-29.145v-202.81c0-16.095 13.048-29.143 29.144-29.143h814.55c16.097 0 29.145 13.048 29.145 29.143v202.81c0 16.097-13.048 29.145-29.145 29.145z"/></clipPath><clipPath id="clipPath4229"><path transform="translate(-643.57 -268.8)" d="m71.95 353.87c-16.096 0-29.144-13.048-29.144-29.145v-202.81c0-16.095 13.048-29.143 29.144-29.143h814.55c16.097 0 29.145 13.048 29.145 29.143v202.81c0 16.097-13.048 29.145-29.145 29.145z"/></clipPath><clipPath id="clipPath4231"><path transform="translate(-657.6 -282.87)" d="m71.95 353.87c-16.096 0-29.144-13.048-29.144-29.145v-202.81c0-16.095 13.048-29.143 29.144-29.143h814.55c16.097 0 29.145 13.048 29.145 29.143v202.81c0 16.097-13.048 29.145-29.145 29.145z"/></clipPath><clipPath id="clipPath4233"><path transform="translate(-671.74 -268.8)" d="m71.95 353.87c-16.096 0-29.144-13.048-29.144-29.145v-202.81c0-16.095 13.048-29.143 29.144-29.143h814.55c16.097 0 29.145 13.048 29.145 29.143v202.81c0 16.097-13.048 29.145-29.145 29.145z"/></clipPath><clipPath id="clipPath4235"><path transform="translate(-343.84 -307.03)" d="m71.95 353.87c-16.096 0-29.144-13.048-29.144-29.145v-202.81c0-16.095 13.048-29.143 29.144-29.143h814.55c16.097 0 29.145 13.048 29.145 29.143v202.81c0 16.097-13.048 29.145-29.145 29.145z"/></clipPath><clipPath id="clipPath4237"><path transform="translate(-335.03 -308.31)" d="m71.95 353.87c-16.096 0-29.144-13.048-29.144-29.145v-202.81c0-16.095 13.048-29.143 29.144-29.143h814.55c16.097 0 29.145 13.048 29.145 29.143v202.81c0 16.097-13.048 29.145-29.145 29.145z"/></clipPath><clipPath id="clipPath4239"><path transform="translate(-619.91 -307.03)" d="m71.95 353.87c-16.096 0-29.144-13.048-29.144-29.145v-202.81c0-16.095 13.048-29.143 29.144-29.143h814.55c16.097 0 29.145 13.048 29.145 29.143v202.81c0 16.097-13.048 29.145-29.145 29.145z"/></clipPath><clipPath id="clipPath4241"><path transform="translate(-611.1 -308.31)" d="m71.95 353.87c-16.096 0-29.144-13.048-29.144-29.145v-202.81c0-16.095 13.048-29.143 29.144-29.143h814.55c16.097 0 29.145 13.048 29.145 29.143v202.81c0 16.097-13.048 29.145-29.145 29.145z"/></clipPath><clipPath id="clipPath4243"><path transform="translate(-383.18 -307.04)" d="m71.95 353.87c-16.096 0-29.144-13.048-29.144-29.145v-202.81c0-16.095 13.048-29.143 29.144-29.143h814.55c16.097 0 29.145 13.048 29.145 29.143v202.81c0 16.097-13.048 29.145-29.145 29.145z"/></clipPath><clipPath id="clipPath4245"><path transform="translate(-308.57 -165.63)" d="m71.95 353.87c-16.096 0-29.144-13.048-29.144-29.145v-202.81c0-16.095 13.048-29.143 29.144-29.143h814.55c16.097 0 29.145 13.048 29.145 29.143v202.81c0 16.097-13.048 29.145-29.145 29.145z"/></clipPath><clipPath id="clipPath4247"><path transform="translate(-307.93 -168.95)" d="m71.95 353.87c-16.096 0-29.144-13.048-29.144-29.145v-202.81c0-16.095 13.048-29.143 29.144-29.143h814.55c16.097 0 29.145 13.048 29.145 29.143v202.81c0 16.097-13.048 29.145-29.145 29.145z"/></clipPath><clipPath id="clipPath4249"><path transform="translate(-318.13 -177.83)" d="m71.95 353.87c-16.096 0-29.144-13.048-29.144-29.145v-202.81c0-16.095 13.048-29.143 29.144-29.143h814.55c16.097 0 29.145 13.048 29.145 29.143v202.81c0 16.097-13.048 29.145-29.145 29.145z"/></clipPath><clipPath id="clipPath4251"><path transform="translate(-318.13 -176.2)" d="m71.95 353.87c-16.096 0-29.144-13.048-29.144-29.145v-202.81c0-16.095 13.048-29.143 29.144-29.143h814.55c16.097 0 29.145 13.048 29.145 29.143v202.81c0 16.097-13.048 29.145-29.145 29.145z"/></clipPath><clipPath id="clipPath4253"><path transform="translate(-318.13 -174.56)" d="m71.95 353.87c-16.096 0-29.144-13.048-29.144-29.145v-202.81c0-16.095 13.048-29.143 29.144-29.143h814.55c16.097 0 29.145 13.048 29.145 29.143v202.81c0 16.097-13.048 29.145-29.145 29.145z"/></clipPath><clipPath id="clipPath4255"><path transform="translate(-641.61 -179.65)" d="m71.95 353.87c-16.096 0-29.144-13.048-29.144-29.145v-202.81c0-16.095 13.048-29.143 29.144-29.143h814.55c16.097 0 29.145 13.048 29.145 29.143v202.81c0 16.097-13.048 29.145-29.145 29.145z"/></clipPath><clipPath id="clipPath4257"><path transform="translate(-646.71 -167.17)" d="m71.95 353.87c-16.096 0-29.144-13.048-29.144-29.145v-202.81c0-16.095 13.048-29.143 29.144-29.143h814.55c16.097 0 29.145 13.048 29.145 29.143v202.81c0 16.097-13.048 29.145-29.145 29.145z"/></clipPath><clipPath id="clipPath4259"><path transform="translate(-646.71 -164.99)" d="m71.95 353.87c-16.096 0-29.144-13.048-29.144-29.145v-202.81c0-16.095 13.048-29.143 29.144-29.143h814.55c16.097 0 29.145 13.048 29.145 29.143v202.81c0 16.097-13.048 29.145-29.145 29.145z"/></clipPath><clipPath id="clipPath4261"><path transform="translate(-650.9 -256.66)" d="m71.95 353.87c-16.096 0-29.144-13.048-29.144-29.145v-202.81c0-16.095 13.048-29.143 29.144-29.143h814.55c16.097 0 29.145 13.048 29.145 29.143v202.81c0 16.097-13.048 29.145-29.145 29.145z"/></clipPath><clipPath id="clipPath4263"><path transform="translate(-664.2 -270.92)" d="m71.95 353.87c-16.096 0-29.144-13.048-29.144-29.145v-202.81c0-16.095 13.048-29.143 29.144-29.143h814.55c16.097 0 29.145 13.048 29.145 29.143v202.81c0 16.097-13.048 29.145-29.145 29.145z"/></clipPath><clipPath id="clipPath4265"><path transform="translate(-638.37 -265.6)" d="m71.95 353.87c-16.096 0-29.144-13.048-29.144-29.145v-202.81c0-16.095 13.048-29.143 29.144-29.143h814.55c16.097 0 29.145 13.048 29.145 29.143v202.81c0 16.097-13.048 29.145-29.145 29.145z"/></clipPath><clipPath id="clipPath4267"><path transform="translate(-650.33 -279.6)" d="m71.95 353.87c-16.096 0-29.144-13.048-29.144-29.145v-202.81c0-16.095 13.048-29.143 29.144-29.143h814.55c16.097 0 29.145 13.048 29.145 29.143v202.81c0 16.097-13.048 29.145-29.145 29.145z"/></clipPath><clipPath id="clipPath4269"><path transform="translate(-629.99 -310.33)" d="m71.95 353.87c-16.096 0-29.144-13.048-29.144-29.145v-202.81c0-16.095 13.048-29.143 29.144-29.143h814.55c16.097 0 29.145 13.048 29.145 29.143v202.81c0 16.097-13.048 29.145-29.145 29.145z"/></clipPath><clipPath id="clipPath4271"><path transform="translate(-279.1 -298.08)" d="m71.95 353.87c-16.096 0-29.144-13.048-29.144-29.145v-202.81c0-16.095 13.048-29.143 29.144-29.143h814.55c16.097 0 29.145 13.048 29.145 29.143v202.81c0 16.097-13.048 29.145-29.145 29.145z"/></clipPath><clipPath id="clipPath4273"><path transform="translate(-286.26 -266.97)" d="m71.95 353.87c-16.096 0-29.144-13.048-29.144-29.145v-202.81c0-16.095 13.048-29.143 29.144-29.143h814.55c16.097 0 29.145 13.048 29.145 29.143v202.81c0 16.097-13.048 29.145-29.145 29.145z"/></clipPath><clipPath id="clipPath4275"><path transform="translate(-290.08 -266.97)" d="m71.95 353.87c-16.096 0-29.144-13.048-29.144-29.145v-202.81c0-16.095 13.048-29.143 29.144-29.143h814.55c16.097 0 29.145 13.048 29.145 29.143v202.81c0 16.097-13.048 29.145-29.145 29.145z"/></clipPath><clipPath id="clipPath4277"><path transform="translate(-292.22 -266.97)" d="m71.95 353.87c-16.096 0-29.144-13.048-29.144-29.145v-202.81c0-16.095 13.048-29.143 29.144-29.143h814.55c16.097 0 29.145 13.048 29.145 29.143v202.81c0 16.097-13.048 29.145-29.145 29.145z"/></clipPath><clipPath id="clipPath4279"><path transform="translate(-293.38 -266.97)" d="m71.95 353.87c-16.096 0-29.144-13.048-29.144-29.145v-202.81c0-16.095 13.048-29.143 29.144-29.143h814.55c16.097 0 29.145 13.048 29.145 29.143v202.81c0 16.097-13.048 29.145-29.145 29.145z"/></clipPath><clipPath id="clipPath4281"><path transform="translate(-633.08 -218.03)" d="m71.95 353.87c-16.096 0-29.144-13.048-29.144-29.145v-202.81c0-16.095 13.048-29.143 29.144-29.143h814.55c16.097 0 29.145 13.048 29.145 29.143v202.81c0 16.097-13.048 29.145-29.145 29.145z"/></clipPath><clipPath id="clipPath4283"><path transform="translate(-636.9 -218.03)" d="m71.95 353.87c-16.096 0-29.144-13.048-29.144-29.145v-202.81c0-16.095 13.048-29.143 29.144-29.143h814.55c16.097 0 29.145 13.048 29.145 29.143v202.81c0 16.097-13.048 29.145-29.145 29.145z"/></clipPath><clipPath id="clipPath4285"><path transform="translate(-639.03 -218.03)" d="m71.95 353.87c-16.096 0-29.144-13.048-29.144-29.145v-202.81c0-16.095 13.048-29.143 29.144-29.143h814.55c16.097 0 29.145 13.048 29.145 29.143v202.81c0 16.097-13.048 29.145-29.145 29.145z"/></clipPath><clipPath id="clipPath4287"><path transform="translate(-640.19 -218.03)" d="m71.95 353.87c-16.096 0-29.144-13.048-29.144-29.145v-202.81c0-16.095 13.048-29.143 29.144-29.143h814.55c16.097 0 29.145 13.048 29.145 29.143v202.81c0 16.097-13.048 29.145-29.145 29.145z"/></clipPath></defs><g transform="translate(6.5369 -268.4)"><g fill="none" stroke="#8a9199" stroke-miterlimit="10" stroke-width=".641"><g><path transform="matrix(.35278 0 0 -.35278 12.576 270.05)" d="m0 0 21.611 0.095 36.471 0.206 46.368-0.153 191.4-0.166 15.243-0.109s15.04 0.362 24.814-3.84c9.775-4.203 13.701-10.709 15.943-15.081 4.986-11.175 5.051-31.922 4.779-43.73-0.117-5.107-0.126-11.367-0.11-13.33 0.071-8.412 0.071-23.821 0.071-28.655 0-5.961-1.285-30.028-9.455-40.155-7.593-9.811-15.814-15.152-36.057-17.585-13.263-1.14-32.249-0.821-32.249-0.821l-158.19-0.041-94.742 0.041s-23.139-0.851-37.292 1.228c-14.155 2.078-39.02 6.359-41.82 47.324-1.002 8.312-0.524 42.501-0.524 42.501l0.457 34.275s0.342 12.092 6.504 22.977c8.413 12.577 23.723 13.783 23.723 13.783s9.121 1.525 23.059 1.236z" clip-path="url(#clipPath4193)"/><path transform="matrix(.35278 0 0 -.35278 -3.5815 274.84)" d="m0 0-1.105 4.832s-0.576 0.347 2.599 3.019c3.176 2.671 6.26 4.243 6.26 4.243s5.559 3.155 14.685 4.736c9.125 1.582 18.667 1.029 18.667 1.029l3.022-0.032s0.517-0.057 0.7-0.851c0.183-0.795 0.76-3.293 0.76-3.293s-14.114 0.316-24.858-1.66c-14.791-2.721-20.73-12.023-20.73-12.023z" clip-path="url(#clipPath4195)"/><path transform="matrix(.35278 0 0 -.35278 119.48 270.04)" d="m0 0 0.964 3.787s0.148 0.454 0.866 0.454h5.759s10.801 0.322 20.157-2.031c10.432-2.304 16.409-8.048 16.409-8.048s2.477-2.197 2.576-2.695c0.024-0.575-1.112-5.25-1.112-5.25s-2.872 4.304-8.013 7.385c-5.934 3.557-12.046 4.664-12.046 4.664s-5.905 1.528-13.157 1.559c-4.337 0.017-12.403 0.175-12.403 0.175z" clip-path="url(#clipPath4197)"/></g><path transform="matrix(.35278 0 0 -.35278 17.853 271.27)" d="m0 0h-0.493s-27.104 2.051-43.364-6.559c-16.26-8.609-19.694-31.391-19.694-31.391s-1.13-7.915-1.548-14.739c-0.073-1.195-0.08-3.002-0.058-4.803 0.029-2.485 0.112-4.957 0.142-5.781 0.399-10.556 1.844-37.731 4.496-45.753 3.011-9.101 10.55-49.427 57.379-48.516 46.828 0.91 84.345-0.011 84.345-0.011h193.89s28.787-2.4 45.299 19.13c12.176 14.759 14.601 37.511 14.601 37.511l1.707 13.34s1.37 19.515 1.37 27.572c0 8.056 0.601 28.169-10.067 44.044-13.263 20.151-54.875 15.959-54.875 15.959" clip-path="url(#clipPath4199)" stroke-linecap="round"/><g><path transform="matrix(.35278 0 0 -.35278 112.57 323.92)" d="m0 0h-264.01c-3.2 0-5.795 2.595-5.795 5.795v139.65c0 3.201 2.595 5.795 5.795 5.795h264.01c3.2 0 5.795-2.594 5.795-5.795v-139.65c0-3.2-2.595-5.795-5.795-5.795z" clip-path="url(#clipPath4201)"/><path transform="matrix(.35278 0 0 -.35278 19.431 323.28)" d="m0 0c-2.194 0-3.979 1.785-3.979 3.979v139.65c0 2.195 1.785 3.98 3.979 3.98h264.01c2.194 0 3.979-1.785 3.979-3.98v-139.65c0-2.194-1.785-3.979-3.979-3.979z" clip-path="url(#clipPath4203)"/><path transform="matrix(.35278 0 0 -.35278 -102.43 378.29)" d="m598.45 161.38h-242v136.7h242z" clip-path="url(#clipPath4205)"/><path transform="matrix(.35278 0 0 -.35278 12.093 301.38)" d="m0 0h-1e-3c-4e-3 2.191-0.367 4.253-0.574 5.141-0.523 2.25-2.613 2.499-2.613 2.499h-8.244c-0.826 5e-3 -1.495 0.674-1.5 1.5l-1e-3 0.028v8.243s-0.248 2.091-2.498 2.613c-0.887 0.207-2.95 0.57-5.141 0.575h-0.02-0.018c-2.192-5e-3 -4.254-0.368-5.142-0.575-2.25-0.522-2.499-2.613-2.499-2.613v-8.243c-5e-3 -0.827-0.674-1.495-1.5-1.501h-8.271s-2.09-0.248-2.614-2.498c-0.206-0.888-0.569-2.95-0.573-5.142h-1e-3v-0.038h1e-3c4e-3 -2.191 0.367-4.254 0.573-5.141 0.524-2.25 2.614-2.499 2.614-2.499h8.243c0.827-5e-3 1.495-0.674 1.501-1.5v-8.272s0.249-2.09 2.499-2.613c0.887-0.206 2.95-0.569 5.14-0.574h0.039c2.192 5e-3 4.254 0.368 5.142 0.574 2.25 0.523 2.498 2.613 2.498 2.613v8.244c6e-3 0.826 0.674 1.495 1.501 1.5h8.271s2.09 0.249 2.613 2.499c0.207 0.888 0.57 2.95 0.574 5.141h1e-3c0 7e-3 -1e-3 0.013-1e-3 0.019 0 7e-3 1e-3 0.013 1e-3 0.02z" clip-path="url(#clipPath4207)"/><path transform="matrix(.35278 0 0 -.35278 4.8029 308.14)" d="m0 0c-2.428 6e-3 -4.552 0.483-4.786 0.537-1.045 0.243-1.312 1.04-1.374 1.325v8.117c-0.011 1.65-1.331 2.97-2.944 2.98l-8.134 1e-3c-0.255 0.055-1.071 0.314-1.318 1.375-0.054 0.233-0.531 2.355-0.536 4.815 0 0.017-1e-3 0.059-1e-3 0.062 6e-3 2.432 0.483 4.553 0.537 4.787 0.244 1.044 1.039 1.311 1.326 1.374h8.116c1.65 0.01 2.97 1.331 2.981 2.943v8.135c0.055 0.255 0.314 1.07 1.375 1.317 0.234 0.054 2.355 0.531 4.816 0.536 0.014 0 0.048 1e-3 0.051 1e-3 2.454-9e-3 4.563-0.483 4.796-0.537 1.046-0.243 1.313-1.039 1.375-1.325v-8.116c0.011-1.651 1.331-2.971 2.944-2.982h8.134c0.254-0.054 1.071-0.314 1.317-1.375 0.054-0.233 0.531-2.355 0.536-4.815 0-0.017 1e-3 -0.059 2e-3 -0.062-7e-3 -2.431-0.484-4.552-0.538-4.786-0.242-1.046-1.039-1.312-1.324-1.375h-8.118c-1.65-0.011-2.97-1.331-2.98-2.944l-1e-3 -8.134c-0.055-0.254-0.314-1.07-1.374-1.317-0.233-0.054-2.358-0.531-4.816-0.536l2e-3 -1e-3h-0.064z" clip-path="url(#clipPath4209)"/></g></g><g fill="#8a9199"><path transform="matrix(.35278 0 0 -.35278 4.8239 297.29)" d="m0 0c-0.164 0-0.297 0.133-0.297 0.297v3.764c0 0.164 0.133 0.297 0.297 0.297s0.297-0.133 0.297-0.297v-3.764c0-0.164-0.133-0.297-0.297-0.297" clip-path="url(#clipPath4211)"/><path transform="matrix(.35278 0 0 -.35278 4.8239 307.05)" d="m0 0c-0.164 0-0.297 0.133-0.297 0.297v3.764c0 0.164 0.133 0.296 0.297 0.296s0.297-0.132 0.297-0.296v-3.764c0-0.164-0.133-0.297-0.297-0.297" clip-path="url(#clipPath4213)"/><path transform="matrix(.35278 0 0 -.35278 8.9104 301.4)" d="m0 0c0 0.164 0.133 0.296 0.297 0.296h3.764c0.164 0 0.296-0.132 0.296-0.296s-0.132-0.297-0.296-0.297h-3.764c-0.164 0-0.297 0.133-0.297 0.297" clip-path="url(#clipPath4215)"/><path transform="matrix(.35278 0 0 -.35278 -.84228 301.4)" d="m0 0c0 0.164 0.134 0.296 0.298 0.296h3.764c0.164 0 0.296-0.132 0.296-0.296s-0.132-0.297-0.296-0.297h-3.764c-0.164 0-0.298 0.133-0.298 0.297" clip-path="url(#clipPath4217)"/></g><g fill="none" stroke="#8a9199" stroke-miterlimit="10" stroke-width=".641"><path transform="matrix(.35278 0 0 -.35278 7.5076 319.44)" d="m0 0c0-2.844-2.306-5.149-5.149-5.149-2.844 0-5.15 2.305-5.15 5.149s2.306 5.149 5.15 5.149c2.843 0 5.149-2.305 5.149-5.149z" clip-path="url(#clipPath4219)"/><path transform="matrix(.35278 0 0 -.35278 10.903 316.07)" d="m0 0c0-2.844-2.306-5.149-5.149-5.149-2.844 0-5.15 2.305-5.15 5.149s2.306 5.149 5.15 5.149c2.843 0 5.149-2.305 5.149-5.149z" clip-path="url(#clipPath4221)"/><path transform="matrix(.35278 0 0 -.35278 125.12 315.47)" d="m0 0c0-4.384-3.554-7.938-7.938-7.938s-7.938 3.554-7.938 7.938 3.554 7.938 7.938 7.938 7.938-3.554 7.938-7.938z" clip-path="url(#clipPath4223)"/><path transform="matrix(.35278 0 0 -.35278 128.3 319.56)" d="m0 0c0-2.943-2.386-5.329-5.328-5.329-2.943 0-5.329 2.386-5.329 5.329s2.386 5.329 5.329 5.329c2.942 0 5.328-2.386 5.328-5.329z" clip-path="url(#clipPath4225)"/><path transform="matrix(.35278 0 0 -.35278 129.56 288.44)" d="m0 0c0-3.748-3.038-6.786-6.786-6.786-3.747 0-6.786 3.038-6.786 6.786s3.039 6.786 6.786 6.786c3.748 0 6.786-3.038 6.786-6.786z" clip-path="url(#clipPath4227)"/><path transform="matrix(.35278 0 0 -.35278 124.61 283.47)" d="m0 0c0-3.748-3.038-6.786-6.786-6.786-3.747 0-6.785 3.038-6.785 6.786s3.038 6.786 6.785 6.786c3.748 0 6.786-3.038 6.786-6.786z" clip-path="url(#clipPath4229)"/><path transform="matrix(.35278 0 0 -.35278 129.55 278.5)" d="m0 0c0-3.748-3.038-6.786-6.786-6.786s-6.786 3.038-6.786 6.786 3.038 6.786 6.786 6.786 6.786-3.038 6.786-6.786z" clip-path="url(#clipPath4231)"/><path transform="matrix(.35278 0 0 -.35278 134.54 283.47)" d="m0 0c0-3.748-3.038-6.786-6.786-6.786s-6.786 3.038-6.786 6.786 3.038 6.786 6.786 6.786 6.786-3.038 6.786-6.786z" clip-path="url(#clipPath4233)"/><path transform="matrix(.35278 0 0 -.35278 18.867 269.98)" d="m0 0h-8.81v1.278c0 0.435 0.311 0.81 0.74 0.889 1.038 0.19 2.885 0.27 3.665 0.27s2.628-0.08 3.665-0.27c0.429-0.079 0.74-0.454 0.74-0.889z" clip-path="url(#clipPath4235)"/><path transform="matrix(.35278 0 0 -.35278 15.759 269.53)" d="m0 0s2.225 0.254 4.345 0.254 4.465-0.254 4.465-0.254" clip-path="url(#clipPath4237)"/><path transform="matrix(.35278 0 0 -.35278 116.26 269.98)" d="m0 0h-8.811v1.278c0 0.435 0.312 0.81 0.741 0.889 1.038 0.19 2.885 0.27 3.665 0.27 0.779 0 2.628-0.08 3.665-0.27 0.428-0.079 0.74-0.454 0.74-0.889z" clip-path="url(#clipPath4239)"/><path transform="matrix(.35278 0 0 -.35278 113.15 269.53)" d="m0 0s2.226 0.254 4.346 0.254c2.119 0 4.465-0.254 4.465-0.254" clip-path="url(#clipPath4241)"/><path transform="matrix(.35278 0 0 -.35278 32.746 269.98)" d="m0 0s-0.892 0.91 5.561 0.668c7.651-1e-3 18.264 0.041 18.264 0.041s3.932 0.067 4.567-0.162c0.634-0.229 0.546-0.606 0.546-0.606z" clip-path="url(#clipPath4243)"/></g><g fill="#8a9199"><path transform="matrix(.35278 0 0 -.35278 6.4255 319.86)" d="m0 0c0-0.096-0.078-0.174-0.174-0.174h-2.921c-0.095 0-0.174 0.078-0.174 0.174v1.469c0 0.095 0.079 0.173 0.174 0.173h2.921c0.096 0 0.174-0.078 0.174-0.173zm-0.174 2.187h-2.921c-0.396 0-0.718-0.322-0.718-0.718v-1.469c0-0.396 0.322-0.719 0.718-0.719h2.921c0.397 0 0.719 0.323 0.719 0.719v1.469c0 0.396-0.322 0.718-0.719 0.718" clip-path="url(#clipPath4245)"/><path transform="matrix(.35278 0 0 -.35278 6.2012 318.69)" d="m0 0h-3.162c-0.61 0-1.105-0.494-1.105-1.104v-1.695c0-0.151 0.122-0.273 0.273-0.273 0.15 0 0.272 0.122 0.272 0.273v1.685c0 0.314 0.255 0.57 0.57 0.57h3.152c0.15 0 0.272 0.121 0.272 0.272 0 0.15-0.122 0.272-0.272 0.272" clip-path="url(#clipPath4247)"/><path transform="matrix(.35278 0 0 -.35278 9.8 315.56)" d="m0 0h-4.045c-0.15 0-0.272 0.122-0.272 0.272 0 0.151 0.122 0.272 0.272 0.272h4.045c0.15 0 0.272-0.121 0.272-0.272 0-0.15-0.122-0.272-0.272-0.272" clip-path="url(#clipPath4249)"/><path transform="matrix(.35278 0 0 -.35278 9.8 316.14)" d="m0 0h-4.045c-0.15 0-0.272 0.122-0.272 0.272 0 0.151 0.122 0.272 0.272 0.272h4.045c0.15 0 0.272-0.121 0.272-0.272 0-0.15-0.122-0.272-0.272-0.272" clip-path="url(#clipPath4251)"/><path transform="matrix(.35278 0 0 -.35278 9.8 316.71)" d="m0 0h-4.045c-0.15 0-0.272 0.122-0.272 0.272 0 0.151 0.122 0.273 0.272 0.273h4.045c0.15 0 0.272-0.122 0.272-0.273 0-0.15-0.122-0.272-0.272-0.272" clip-path="url(#clipPath4253)"/><path transform="matrix(.35278 0 0 -.35278 123.92 314.92)" d="m0 0-3.615-3.614c-0.061-0.061-0.165-0.018-0.165 0.068v0.385c0 0.087 0.035 0.171 0.096 0.233l3.289 3.289c0.097 0.097 0.23 0.152 0.368 0.152h1.35l-0.177 0.161h-2.551c-0.105 0-0.204-0.041-0.279-0.115l-2.54-2.54c-0.128-0.128-0.336-0.128-0.464 0l-2.559 2.559c-0.062 0.061-0.146 0.096-0.233 0.096h-2.579l-0.176-0.161h1.351c0.138 0 0.27-0.055 0.367-0.152l3.288-3.289c0.063-0.062 0.097-0.146 0.097-0.233v-0.385c0-0.086-0.104-0.129-0.165-0.068l-3.614 3.614c-0.126 0.126-0.298 0.197-0.476 0.197h-0.848v-3.157c0-0.044 0.017-0.086 0.048-0.117l0.693-0.692c0.028-0.028 0.066-0.044 0.107-0.044h2.126l-1.913 1.913 0.683-1.13c0.099-0.166-0.02-0.378-0.214-0.378h-0.285c-0.364 0-0.659 0.295-0.659 0.659v1.795c0 0.109 0.131 0.163 0.209 0.086l2.753-2.754c0.124-0.122 0.29-0.191 0.462-0.191h3.537c0.173 0 0.339 0.069 0.462 0.191l2.754 2.754c0.077 0.077 0.209 0.023 0.209-0.086v-1.795c0-0.364-0.295-0.659-0.658-0.659h-0.286c-0.194 0-0.314 0.212-0.213 0.378l0.683 1.13-1.914-1.913h2.127c0.04 0 0.079 0.016 0.107 0.044l0.691 0.692c0.032 0.031 0.049 0.073 0.049 0.117v3.157h-0.847c-0.179 0-0.35-0.071-0.476-0.197" clip-path="url(#clipPath4255)"/><path transform="matrix(.35278 0 0 -.35278 125.71 319.32)" d="m0 0v-0.439s-0.015-0.24 0.354-0.101c0.34 0.13 3.526 1.285 3.526 1.285s0.164 0.067 0.164 0.276v0.387s-0.021 0.183-0.243 0.091c-0.224-0.092-3.685-1.352-3.685-1.352s-0.116-0.042-0.116-0.147" clip-path="url(#clipPath4257)"/><path transform="matrix(.35278 0 0 -.35278 125.71 320.09)" d="m0 0v-0.449s0.013-0.215 0.354-0.091c0.342 0.125 3.537 1.289 3.537 1.289s0.153 0.062 0.153 0.271v0.388s-0.021 0.183-0.243 0.091c-0.224-0.093-3.685-1.353-3.685-1.353s-0.116-0.042-0.116-0.146" clip-path="url(#clipPath4259)"/><path transform="matrix(.35278 0 0 -.35278 127.19 287.75)" d="m0 0c-0.038 0-0.071-0.025-0.084-0.063l-0.202-0.634-0.563-1.477c-0.01-0.028-6e-3 -0.059 0.01-0.084s0.043-0.04 0.072-0.04h1.533c0.029 0 0.056 0.015 0.073 0.04 0.016 0.025 0.019 0.056 9e-3 0.084l-0.562 1.477-0.202 0.634c-0.013 0.038-0.046 0.063-0.084 0.063m1.974-4.937c-0.059 0-0.112 0.038-0.132 0.095l-0.506 1.376c-0.013 0.036-0.046 0.059-0.082 0.059h-2.508c-0.036 0-0.069-0.023-0.083-0.059l-0.506-1.377c-0.02-0.056-0.073-0.094-0.131-0.094h-1.111c-0.048 0-0.092 0.025-0.117 0.066-0.027 0.04-0.031 0.091-0.014 0.136l2.445 6.112c0.023 0.055 0.074 0.09 0.131 0.09h1.28c0.057 0 0.108-0.035 0.13-0.089l2.446-6.113c0.017-0.045 0.013-0.097-0.013-0.137-0.026-0.041-0.07-0.065-0.117-0.065z" clip-path="url(#clipPath4261)"/><path transform="matrix(.35278 0 0 -.35278 131.88 282.72)" d="m0 0c-0.048 0-0.088-0.041-0.088-0.091v-1.347c0-0.05 0.04-0.091 0.088-0.091h1.198c0.297 0 0.53 0.076 0.692 0.228 0.161 0.152 0.243 0.333 0.243 0.541 0 0.21-0.079 0.385-0.238 0.536-0.16 0.149-0.38 0.224-0.659 0.224zm0-2.566c-0.048 0-0.088-0.041-0.088-0.091v-1.464c0-0.05 0.04-0.091 0.088-0.091h1.342c0.322 0 0.571 0.076 0.742 0.228 0.174 0.153 0.258 0.346 0.258 0.586 0 0.241-0.086 0.436-0.262 0.594s-0.436 0.238-0.776 0.238zm-1.232-2.754c-0.079 0-0.141 0.065-0.141 0.145v6.112c0 0.08 0.062 0.146 0.141 0.146h2.526c0.291 0 0.566-0.044 0.819-0.131 0.254-0.086 0.477-0.206 0.662-0.357 0.185-0.149 0.333-0.327 0.444-0.532 0.107-0.202 0.162-0.422 0.162-0.653 0-0.337-0.089-0.625-0.263-0.854-0.151-0.198-0.336-0.356-0.549-0.472-0.031-0.017-0.049-0.05-0.048-0.085 2e-3 -0.036 0.025-0.067 0.057-0.08 0.295-0.118 0.542-0.292 0.732-0.517 0.213-0.256 0.318-0.565 0.318-0.943 0-0.274-0.06-0.522-0.177-0.738-0.117-0.217-0.279-0.405-0.48-0.559-0.2-0.153-0.44-0.273-0.71-0.358-0.27-0.082-0.563-0.124-0.872-0.124z" clip-path="url(#clipPath4263)"/><path transform="matrix(.35278 0 0 -.35278 122.77 284.6)" d="m0 0c-0.048 0-0.091 0.024-0.116 0.064l-1.41 2.188c-0.016 0.026-0.043 0.041-0.074 0.041-0.029 0-0.056-0.015-0.073-0.041l-1.408-2.188c-0.026-0.04-0.07-0.064-0.117-0.064h-1.257c-0.053 0-0.101 0.029-0.124 0.077-0.025 0.048-0.022 0.106 8e-3 0.15l2.05 3.065c0.022 0.031 0.022 0.073 0 0.104l-1.877 2.778c-0.031 0.046-0.034 0.101-9e-3 0.151 0.023 0.048 0.071 0.078 0.124 0.078h1.245c0.049 0 0.093-0.025 0.117-0.066l1.248-1.971c0.016-0.026 0.044-0.041 0.073-0.041 0.031 0 0.058 0.015 0.074 0.041l1.247 1.971c0.026 0.041 0.069 0.066 0.118 0.066h1.245c0.052 0 0.101-0.03 0.124-0.079 0.024-0.048 0.021-0.105-0.01-0.151l-1.876-2.777c-0.021-0.031-0.021-0.073 0-0.104l2.05-3.063c0.03-0.045 0.033-0.104 9e-3 -0.151-0.024-0.048-0.071-0.078-0.125-0.078z" clip-path="url(#clipPath4265)"/><path transform="matrix(.35278 0 0 -.35278 126.99 279.66)" d="m0 0c-0.077 0-0.141 0.065-0.141 0.145v2.833l-2.142 3.197c-0.03 0.044-0.034 0.102-0.01 0.15s0.072 0.078 0.125 0.078h1.189c0.047 0 0.091-0.025 0.118-0.066l1.285-1.998c0.015-0.026 0.043-0.041 0.073-0.041s0.058 0.016 0.074 0.042l1.238 1.995c0.026 0.042 0.07 0.068 0.119 0.068h1.209c0.051 0 0.099-0.03 0.124-0.077 0.024-0.048 0.022-0.106-8e-3 -0.15l-2.107-3.198v-2.833c0-0.08-0.064-0.145-0.141-0.145z" clip-path="url(#clipPath4267)"/></g><g fill="none" stroke="#8a9199" stroke-miterlimit="10" stroke-width=".641"><path transform="matrix(.35278 0 0 -.35278 119.82 268.82)" d="m0 0 3.579-0.129s13.861 0.469 21.994-1.715c8.132-2.184 10.388-3.702 10.388-3.702s4.12-2.094 6.635-4.44c2.408-1.785 3.073-2.389 3.073-2.389" clip-path="url(#clipPath4269)"/><path transform="matrix(.35278 0 0 -.35278 -3.9715 273.14)" d="m0 0s7.74 6.937 17.667 9.707 23.613 2.413 23.613 2.413l4.654 0.024" clip-path="url(#clipPath4271)"/><path transform="matrix(.35278 0 0 -.35278 -1.4434 284.11)" d="m0 0c0 9.815 7.957 17.772 17.772 17.772 9.816 0 17.773-7.957 17.773-17.772s-7.957-17.772-17.773-17.772c-9.815 0-17.772 7.957-17.772 17.772z" clip-path="url(#clipPath4273)"/><path transform="matrix(.35278 0 0 -.35278 -.095729 284.11)" d="m0 0c0 7.706 6.246 13.952 13.952 13.952 7.705 0 13.952-6.246 13.952-13.952s-6.247-13.952-13.952-13.952c-7.706 0-13.952 6.246-13.952 13.952z" clip-path="url(#clipPath4275)"/><path transform="matrix(.35278 0 0 -.35278 .6584 284.11)" d="m0 0c0 6.525 5.289 11.814 11.814 11.814s11.814-5.289 11.814-11.814c0-6.524-5.289-11.814-11.814-11.814s-11.814 5.29-11.814 11.814z" clip-path="url(#clipPath4277)"/><path transform="matrix(.35278 0 0 -.35278 1.0673 284.11)" d="m0 0c0 5.885 4.771 10.655 10.655 10.655 5.885 0 10.655-4.77 10.655-10.655 0-5.884-4.77-10.655-10.655-10.655-5.884 0-10.655 4.771-10.655 10.655z" clip-path="url(#clipPath4279)"/><path transform="matrix(.35278 0 0 -.35278 120.9 301.38)" d="m0 0c0 9.815 7.957 17.772 17.772 17.772 9.816 0 17.773-7.957 17.773-17.772s-7.957-17.772-17.773-17.772c-9.815 0-17.772 7.957-17.772 17.772z" clip-path="url(#clipPath4281)"/><path transform="matrix(.35278 0 0 -.35278 122.25 301.38)" d="m0 0c0 7.706 6.247 13.952 13.952 13.952s13.952-6.246 13.952-13.952-6.247-13.952-13.952-13.952-13.952 6.246-13.952 13.952z" clip-path="url(#clipPath4283)"/><path transform="matrix(.35278 0 0 -.35278 123.01 301.38)" d="m0 0c0 6.524 5.29 11.814 11.814 11.814 6.525 0 11.815-5.29 11.815-11.814 0-6.525-5.29-11.814-11.815-11.814-6.524 0-11.814 5.289-11.814 11.814z" clip-path="url(#clipPath4285)"/><path transform="matrix(.35278 0 0 -.35278 123.42 301.38)" d="m0 0c0 5.884 4.771 10.655 10.655 10.655 5.885 0 10.656-4.771 10.656-10.655 0-5.885-4.771-10.655-10.656-10.655-5.884 0-10.655 4.77-10.655 10.655z" clip-path="url(#clipPath4287)"/></g></g></svg>
