<svg width="147.35mm" height="63.187mm" version="1.1" viewBox="0 0 147.35 63.187" xml:space="preserve" xmlns="http://www.w3.org/2000/svg" xmlns:xlink="http://www.w3.org/1999/xlink"><defs><clipPath id="clipPath59"><path transform="translate(-781.15 -420.23)" d="M 0,685.093 H 1217.943 V 0 H 0 Z"/></clipPath><clipPath id="clipPath249"><path transform="translate(-483.58 -493.14)" d="M 0,685.093 H 1217.943 V 0 H 0 Z"/></clipPath><clipPath id="clipPath251"><path transform="translate(-796.12 -535.88)" d="M 0,685.093 H 1217.943 V 0 H 0 Z"/></clipPath><clipPath id="clipPath253"><path transform="translate(-808.21 -547.98)" d="M 0,685.093 H 1217.943 V 0 H 0 Z"/></clipPath><clipPath id="clipPath255"><path transform="translate(-808.21 -523.79)" d="M 0,685.093 H 1217.943 V 0 H 0 Z"/></clipPath><clipPath id="clipPath257"><path transform="translate(-820.3 -535.88)" d="M 0,685.093 H 1217.943 V 0 H 0 Z"/></clipPath><clipPath id="clipPath259"><path transform="translate(-816.85 -437.32)" d="M 0,685.093 H 1217.943 V 0 H 0 Z"/></clipPath><clipPath id="clipPath261"><path transform="translate(-797.6 -443.19)" d="M 0,685.093 H 1217.943 V 0 H 0 Z"/></clipPath><clipPath id="clipPath263"><path transform="translate(-848.18 -555.69)" d="M 0,685.093 H 1217.943 V 0 H 0 Z"/></clipPath><clipPath id="clipPath265"><path transform="translate(-454.13 -489.02)" d="M 0,685.093 H 1217.943 V 0 H 0 Z"/></clipPath><clipPath id="clipPath267"><path transform="translate(-467.88 -475.27)" d="M 0,685.093 H 1217.943 V 0 H 0 Z"/></clipPath><clipPath id="clipPath269"><path transform="translate(-467.88 -502.15)" d="M 0,685.093 H 1217.943 V 0 H 0 Z"/></clipPath><clipPath id="clipPath271"><path transform="translate(-477.89 -489.02)" d="M 0,685.093 H 1217.943 V 0 H 0 Z"/></clipPath><clipPath id="clipPath273"><path transform="translate(-471.16 -443.19)" d="M 0,685.093 H 1217.943 V 0 H 0 Z"/></clipPath><clipPath id="clipPath275"><path transform="translate(-799.9 -485.59)" d="M 0,685.093 H 1217.943 V 0 H 0 Z"/></clipPath><clipPath id="clipPath277"><path transform="translate(-455.55 -443.19)" d="M 0,685.093 H 1217.943 V 0 H 0 Z"/></clipPath><clipPath id="clipPath279"><path transform="translate(-814.3 -525.59)" d="M 0,685.093 H 1217.943 V 0 H 0 Z"/></clipPath><clipPath id="clipPath281"><path transform="translate(-825.7 -537.7)" d="M 0,685.093 H 1217.943 V 0 H 0 Z"/></clipPath><clipPath id="clipPath283"><path transform="translate(-803.62 -533.14)" d="M 0,685.093 H 1217.943 V 0 H 0 Z"/></clipPath><clipPath id="clipPath285"><path transform="translate(-813.87 -544.92)" d="M 0,685.093 H 1217.943 V 0 H 0 Z"/></clipPath><clipPath id="clipPath287"><path transform="translate(-492.58 -584.06)" d="M 0,685.093 H 1217.943 V 0 H 0 Z"/></clipPath><clipPath id="clipPath289"><path transform="translate(-536.74 -581.76)" d="M 0,685.093 H 1217.943 V 0 H 0 Z"/></clipPath><clipPath id="clipPath291"><path transform="translate(-564.25 -581.94)" d="M 0,685.093 H 1217.943 V 0 H 0 Z"/></clipPath><clipPath id="clipPath293"><path transform="translate(-549.77 -582.23)" d="M 0,685.093 H 1217.943 V 0 H 0 Z"/></clipPath><clipPath id="clipPath389"><path transform="translate(-453.13 -536.82)" d="M 0,685.093 H 1217.943 V 0 H 0 Z"/></clipPath><clipPath id="clipPath435"><path transform="translate(-477.09 -444.21)" d="M 0,685.093 H 1217.943 V 0 H 0 Z"/></clipPath><clipPath id="clipPath437"><path transform="translate(-477.09 -442.96)" d="M 0,685.093 H 1217.943 V 0 H 0 Z"/></clipPath><clipPath id="clipPath439"><path transform="translate(-477.09 -441.71)" d="M 0,685.093 H 1217.943 V 0 H 0 Z"/></clipPath><clipPath id="clipPath441"><path transform="translate(-461.76 -441.87)" d="M 0,685.093 H 1217.943 V 0 H 0 Z"/></clipPath><clipPath id="clipPath443"><path transform="translate(-460.78 -444.59)" d="M 0,685.093 H 1217.943 V 0 H 0 Z"/></clipPath></defs><g transform="translate(-42.625 -62.995)"><g fill="none" stroke="#899099"><path transform="matrix(.35278 0 0 -.35278 165.78 121.03)" d="m0 0c0-2.021-1.638-3.658-3.659-3.658h-272.95c-2.021 0-3.659 1.637-3.659 3.658v154.48c0 2.02 1.638 3.659 3.659 3.659h272.95c2.021 0 3.659-1.639 3.659-3.659zm67.598 48.589c-0.069 3.1-2.937 82.121-2.937 82.121s-0.762 7e-3 -1.108 0.026-1.167-0.189-1.81 3.12l-0.01 0.055c-0.533 2.346-2.429 14.062-15.97 21.305-10.867 5.852-35.722 5.577-37.743 5.575l-0.014-7e-3h-224.68s-69.882 7e-3 -71.758 7e-3 -26.862 0.296-37.765-5.575c-13.541-7.243-15.438-18.959-15.972-21.306s-1.426-3.135-1.705-3.154c-0.28-0.02-1.171-0.127-1.171-0.127s-2.939-79.835-3.05-83.008c-0.109-3.174-0.501-12.143-0.501-17.727 0.232-9.245 1.142-27.916 13.668-36.441 12.527-8.524 24.361-9.049 34.838-5.244 10.479 3.806 15.578 5.755 25.084 5.755 9.507 0 259.78-0.103 271.08-0.103 11.31 0 19.728-4.569 24.319-5.985 4.593-1.415 13.371-4.388 27.218 1.581 13.847 5.968 18.188 17.646 19.699 28.876 1.511 11.229 0.378 25.936 0.284 30.256" clip-path="url(#clipPath59)"/><path transform="matrix(.35278 0 0 -.35278 60.806 95.305)" d="m0 0c0.803-2.9 0.803-5.963 0-8.863-0.168-0.609-0.722-1.03-1.354-1.03h-6.705c-1.379 0-2.497-1.118-2.497-2.497v-6.705c0-0.631-0.421-1.185-1.029-1.353-2.9-0.803-5.964-0.803-8.863 0-0.609 0.168-1.031 0.722-1.031 1.353v6.705c0 1.379-1.117 2.497-2.496 2.497h-6.705c-0.632 0-1.185 0.421-1.353 1.03-0.803 2.9-0.803 5.963 0 8.863 0.168 0.609 0.721 1.03 1.353 1.03h6.705c1.379 0 2.496 1.118 2.496 2.497v6.705c0 0.631 0.422 1.185 1.031 1.353 2.899 0.803 5.963 0.803 8.863 0 0.608-0.168 1.029-0.722 1.029-1.353v-6.705c0-1.379 1.118-2.497 2.497-2.497h6.705c0.632 0 1.186-0.421 1.354-1.03" clip-path="url(#clipPath249)"/><path transform="matrix(.35278 0 0 -.35278 171.06 80.227)" d="m0 0c0 3.361 2.725 6.085 6.085 6.085 3.361 0 6.086-2.724 6.086-6.085s-2.725-6.086-6.086-6.086c-3.36 0-6.085 2.725-6.085 6.086" clip-path="url(#clipPath251)"/><path transform="matrix(.35278 0 0 -.35278 175.33 75.96)" d="m0 0c0 3.361 2.725 6.086 6.086 6.086s6.086-2.725 6.086-6.086-2.725-6.086-6.086-6.086-6.086 2.725-6.086 6.086" clip-path="url(#clipPath253)"/><path transform="matrix(.35278 0 0 -.35278 175.33 84.493)" d="m0 0c0 3.361 2.725 6.086 6.086 6.086s6.086-2.725 6.086-6.086-2.725-6.085-6.086-6.085-6.086 2.724-6.086 6.085" clip-path="url(#clipPath255)"/><path transform="matrix(.35278 0 0 -.35278 179.59 80.227)" d="m0 0c0 3.361 2.725 6.085 6.086 6.085 3.36 0 6.085-2.724 6.085-6.085s-2.725-6.086-6.085-6.086c-3.361 0-6.086 2.725-6.086 6.086" clip-path="url(#clipPath257)"/><path transform="matrix(.35278 0 0 -.35278 178.37 115)" d="m0 0c0 2.327 1.887 4.213 4.214 4.213 2.326 0 4.213-1.886 4.213-4.213s-1.887-4.213-4.213-4.213c-2.327 0-4.214 1.886-4.214 4.213" clip-path="url(#clipPath259)"/><path transform="matrix(.35278 0 0 -.35278 171.58 112.93)" d="m0 0c0 4.051 3.283 7.334 7.334 7.334 4.05 0 7.334-3.283 7.334-7.334 0-4.05-3.284-7.334-7.334-7.334-4.051 0-7.334 3.284-7.334 7.334" clip-path="url(#clipPath261)"/><path transform="matrix(.35278 0 0 -.35278 189.43 73.237)" d="m0 0c-0.437 2.2-1.072 4.375-1.934 6.446-0.019 0.048-0.039 0.096-0.059 0.143-0.631 1.496-1.387 2.947-2.266 4.311l0.01-0.025c-1.123 1.736-2.45 3.35-3.935 4.797-1.439 1.404-3.026 2.65-4.709 3.745-1.658 1.079-3.41 2.011-5.213 2.823-1.847 0.831-3.749 1.537-5.681 2.141-2.603 0.827-5.265 1.473-7.948 1.991-2.684 0.519-5.39 0.91-8.106 1.21s-5.442 0.509-8.171 0.653c-2.728 0.144-5.461 0.223-8.193 0.247l-0.457 4e-3c-0.147 2e-3 -0.293 4e-3 -0.441 6e-3 -0.134 1e-3 -0.269 3e-3 -0.404 5e-3 -0.119 2e-3 -0.237 4e-3 -0.355 6e-3 -0.098 2e-3 -0.195 5e-3 -0.291 8e-3 -0.04 1e-3 -0.079 2e-3 -0.118 3e-3 -0.034 2e-3 -0.067 3e-3 -0.099 4e-3 -0.026 2e-3 -0.051 3e-3 -0.077 4e-3 -0.02 1e-3 -0.04 2e-3 -0.057 4e-3 -0.01 2e-3 -0.018 4e-3 -0.033 4e-3 -6e-3 0-0.012 0-0.012 4e-3 -0.081 1e-3 -0.164-0.022-0.234-0.062-0.047-0.027-0.09-0.063-0.125-0.105-0.069-0.081-0.11-0.194-0.11-0.301v-2.739c2.022 1e-3 26.876 0.276 37.744-5.576 13.541-7.243 15.437-18.959 15.97-21.305l0.01-0.054c0.245-1.264 0.517-2.013 0.777-2.459 0.739-0.225 1.623-0.191 2.116-0.191-0.046 0.514-0.214 1.95-0.367 2.704h2.494c0.088 0 0.181 0.028 0.255 0.076 0.076 0.049 0.137 0.123 0.173 0.205 0.035 0.082 0.047 0.177 0.033 0.265-0.058 0.337-0.12 0.673-0.187 1.008" clip-path="url(#clipPath263)"/></g><g fill="#8a9199"><path transform="matrix(.35278 0 0 -.35278 50.414 96.758)" d="m0 0h3.121c0.172 0 0.312-0.14 0.312-0.312 0-0.173-0.14-0.313-0.312-0.313h-3.121c-0.172 0-0.312 0.14-0.312 0.313 0 0.172 0.14 0.312 0.312 0.312" clip-path="url(#clipPath265)"/><path transform="matrix(.35278 0 0 -.35278 55.265 101.61)" d="m0 0v3.121c0 0.172-0.14 0.312-0.312 0.312s-0.312-0.14-0.312-0.312v-3.121c0-0.172 0.14-0.312 0.312-0.312s0.312 0.14 0.312 0.312" clip-path="url(#clipPath267)"/><path transform="matrix(.35278 0 0 -.35278 55.265 92.127)" d="m0 0v-3.121c0-0.172-0.14-0.312-0.312-0.312s-0.312 0.14-0.312 0.312v3.121c0 0.172 0.14 0.312 0.312 0.312s0.312-0.14 0.312-0.312" clip-path="url(#clipPath269)"/><path transform="matrix(.35278 0 0 -.35278 58.796 96.758)" d="m0 0h3.121c0.172 0 0.312-0.14 0.312-0.312 0-0.173-0.14-0.313-0.312-0.313h-3.121c-0.173 0-0.312 0.14-0.312 0.313 0 0.172 0.139 0.312 0.312 0.312" clip-path="url(#clipPath271)"/></g><g fill="none" stroke="#899099"><path transform="matrix(.35278 0 0 -.35278 56.421 112.93)" d="m0 0c0 2.327 1.887 4.213 4.213 4.213 2.327 0 4.214-1.886 4.214-4.213s-1.887-4.213-4.214-4.213c-2.326 0-4.213 1.886-4.213 4.213" clip-path="url(#clipPath273)"/><path transform="matrix(.35278 0 0 -.35278 172.4 97.969)" d="m0 0c0 7.972 6.463 14.434 14.435 14.434 7.971 0 14.433-6.462 14.433-14.434s-6.462-14.434-14.433-14.434c-7.972 0-14.435 6.462-14.435 14.434" clip-path="url(#clipPath275)"/><path transform="matrix(.35278 0 0 -.35278 50.917 112.93)" d="m0 0c0 2.327 1.887 4.213 4.213 4.213 2.327 0 4.214-1.886 4.214-4.213s-1.887-4.213-4.214-4.213c-2.326 0-4.213 1.886-4.213 4.213" clip-path="url(#clipPath277)"/></g><g fill="#8a9199"><path transform="matrix(.35278 0 0 -.35278 177.47 83.857)" d="m0 0c-0.034 0-0.063-0.021-0.074-0.054l-0.18-0.545-0.498-1.267c-0.01-0.024-7e-3 -0.051 8e-3 -0.072s0.039-0.035 0.064-0.035h1.359c0.026 0 0.05 0.014 0.064 0.035 0.015 0.021 0.019 0.048 9e-3 0.072l-0.499 1.267-0.179 0.545c-0.011 0.033-0.04 0.054-0.074 0.054m1.749-4.237c-0.051 0-0.098 0.032-0.116 0.08l-0.448 1.182c-0.012 0.031-0.041 0.051-0.074 0.051h-2.222c-0.033 0-0.062-0.02-0.074-0.051l-0.448-1.182c-0.018-0.048-0.065-0.08-0.117-0.08h-0.985c-0.042 0-0.08 0.021-0.104 0.055-0.023 0.035-0.027 0.078-0.012 0.117l2.168 5.248c0.02 0.046 0.065 0.076 0.116 0.076h1.133c0.052 0 0.097-0.03 0.117-0.076l2.168-5.248c0.015-0.039 0.011-0.082-0.012-0.117s-0.062-0.055-0.104-0.055z" clip-path="url(#clipPath279)"/><path transform="matrix(.35278 0 0 -.35278 181.5 79.585)" d="m0 0c-0.043 0-0.078-0.035-0.078-0.078v-1.156c0-0.044 0.035-0.078 0.078-0.078h1.062c0.263 0 0.469 0.065 0.613 0.195 0.142 0.13 0.216 0.286 0.216 0.465 0 0.18-0.07 0.331-0.212 0.46-0.141 0.128-0.336 0.192-0.582 0.192zm0-2.203c-0.043 0-0.078-0.035-0.078-0.078v-1.257c0-0.043 0.035-0.078 0.078-0.078h1.189c0.287 0 0.507 0.066 0.659 0.196 0.153 0.132 0.228 0.297 0.228 0.503 0 0.207-0.076 0.374-0.232 0.51s-0.387 0.204-0.689 0.204zm-1.093-2.364c-0.068 0-0.125 0.056-0.125 0.125v5.246c0 0.069 0.057 0.125 0.125 0.125h2.239c0.259 0 0.503-0.037 0.727-0.112 0.226-0.073 0.423-0.176 0.587-0.307 0.164-0.127 0.296-0.28 0.394-0.455 0.094-0.174 0.143-0.363 0.143-0.561 0-0.29-0.079-0.536-0.232-0.734-0.135-0.169-0.299-0.305-0.488-0.404-0.027-0.015-0.043-0.043-0.042-0.074 2e-3 -0.031 0.022-0.057 0.05-0.068 0.262-0.102 0.481-0.251 0.649-0.443 0.19-0.221 0.282-0.486 0.282-0.811 0-0.235-0.053-0.448-0.156-0.633-0.105-0.187-0.248-0.348-0.426-0.48-0.178-0.131-0.39-0.235-0.63-0.307-0.238-0.071-0.498-0.107-0.773-0.107z" clip-path="url(#clipPath281)"/><path transform="matrix(.35278 0 0 -.35278 173.71 81.196)" d="m0 0c-0.042 0-0.08 0.02-0.104 0.055l-1.249 1.879c-0.014 0.022-0.039 0.034-0.065 0.034s-0.05-0.012-0.064-0.034l-1.249-1.879c-0.024-0.034-0.062-0.055-0.104-0.055h-1.114c-0.047 0-0.089 0.025-0.111 0.066-0.021 0.041-0.018 0.091 8e-3 0.129l1.818 2.631c0.018 0.027 0.018 0.062 0 0.089l-1.664 2.385c-0.028 0.039-0.031 0.087-8e-3 0.129 0.02 0.042 0.063 0.067 0.109 0.067h1.105c0.043 0 0.081-0.021 0.103-0.056l1.107-1.692c0.013-0.022 0.038-0.036 0.064-0.036s0.052 0.014 0.065 0.036l1.106 1.691c0.022 0.036 0.061 0.057 0.104 0.057h1.104c0.047 0 0.089-0.026 0.11-0.067 0.022-0.041 0.019-0.091-9e-3 -0.13l-1.663-2.384c-0.019-0.027-0.019-0.062 0-0.089l1.818-2.63c0.026-0.039 0.029-0.088 8e-3 -0.13-0.022-0.041-0.064-0.066-0.111-0.066z" clip-path="url(#clipPath283)"/><path transform="matrix(.35278 0 0 -.35278 177.32 77.04)" d="m0 0c-0.069 0-0.125 0.056-0.125 0.125v2.431l-1.9 2.744c-0.027 0.038-0.03 0.088-8e-3 0.13 0.021 0.04 0.064 0.066 0.111 0.066h1.054c0.042 0 0.081-0.021 0.103-0.056l1.14-1.715c0.015-0.022 0.038-0.035 0.064-0.035h1e-3c0.027 0 0.051 0.013 0.066 0.036l1.097 1.712c0.023 0.037 0.062 0.058 0.105 0.058h1.072c0.046 0 0.089-0.025 0.111-0.066 0.021-0.041 0.018-0.09-8e-3 -0.128l-1.868-2.746v-2.432c0-0.068-0.056-0.124-0.125-0.124z" clip-path="url(#clipPath285)"/></g><g fill="none" stroke="#899099"><path transform="matrix(.35278 0 0 -.35278 63.98 63.23)" d="m0 0c-0.035 0.042-0.078 0.078-0.125 0.105-0.07 0.04-0.154 0.062-0.235 0.062 0-4e-3 -6e-3 -4e-3 -0.011-4e-3 -0.015 0-0.024-2e-3 -0.034-4e-3 -0.017-2e-3 -0.036-3e-3 -0.056-4e-3 -0.026-1e-3 -0.052-3e-3 -0.077-4e-3 -0.033-2e-3 -0.066-3e-3 -0.099-4e-3 -0.039-1e-3 -0.079-2e-3 -0.118-3e-3 -0.097-3e-3 -0.194-6e-3 -0.291-8e-3 -0.119-2e-3 -0.237-4e-3 -0.355-6e-3 -0.135-2e-3 -0.27-4e-3 -0.406-5e-3 -0.146-2e-3 -0.293-4e-3 -0.44-6e-3l-0.457-4e-3c-2.732-0.024-5.464-0.103-8.193-0.247s-5.455-0.353-8.17-0.654c-2.716-0.299-5.422-0.691-8.107-1.209-2.683-0.519-5.345-1.164-7.948-1.991-1.931-0.604-3.833-1.31-5.68-2.141-1.804-0.812-3.555-1.744-5.214-2.823-1.682-1.095-3.27-2.342-4.71-3.745-1.484-1.447-2.811-3.061-3.933-4.798l0.01 0.026c-0.879-1.365-1.635-2.815-2.266-4.311-0.021-0.048-0.04-0.095-0.061-0.143-0.86-2.072-1.496-4.246-1.933-6.446-0.067-0.335-0.128-0.671-0.186-1.008-0.014-0.088-3e-3 -0.184 0.032-0.266 0.036-0.081 0.098-0.155 0.172-0.204 0.076-0.049 0.167-0.076 0.257-0.076h2.559c-0.153-0.754-0.321-2.19-0.366-2.704 0.42 0 1.128-0.024 1.788 0.11 0.349 0.478 0.753 1.297 1.048 2.594 0.534 2.346 2.43 14.062 15.971 21.305 10.867 5.852 35.721 5.577 37.743 5.575v2.74c0 0.107-0.041 0.219-0.109 0.301" clip-path="url(#clipPath287)"/><path transform="matrix(.35278 0 0 -.35278 79.558 64.042)" d="m0 0h-23.5l-0.156-0.156v-0.58l23.812-1e-3v0.581l-0.103 0.104z" clip-path="url(#clipPath289)"/><path transform="matrix(.35278 0 0 -.35278 89.262 63.978)" d="m0 0c-0.07 0.168-0.237 0.286-0.431 0.286h-7.116c-0.258 0-0.468-0.21-0.468-0.468v-0.736h8.052v0.736c0 0.064-0.013 0.126-0.037 0.182" clip-path="url(#clipPath291)"/><path transform="matrix(.35278 0 0 -.35278 84.155 63.877)" d="m0 0h-7.116c-0.258 0-0.468-0.209-0.468-0.468v-0.736h8.052v0.736c0 0.259-0.21 0.468-0.468 0.468" clip-path="url(#clipPath293)"/><path transform="matrix(.35278 0 0 -.35278 50.064 79.896)" d="m0 0c0 7.972 6.462 14.434 14.434 14.434 7.971 0 14.433-6.462 14.433-14.434s-6.462-14.434-14.433-14.434c-7.972 0-14.434 6.462-14.434 14.434" clip-path="url(#clipPath389)"/></g><g fill="#8a9199"><path transform="matrix(.35278 0 0 -.35278 58.516 112.57)" d="m0 0h-3.451c-0.129 0-0.234 0.104-0.234 0.234 0 0.129 0.105 0.234 0.234 0.234h3.451c0.13 0 0.234-0.105 0.234-0.234 0-0.13-0.104-0.234-0.234-0.234" clip-path="url(#clipPath435)"/><path transform="matrix(.35278 0 0 -.35278 58.516 113.01)" d="m0 0h-3.451c-0.129 0-0.234 0.105-0.234 0.234s0.105 0.234 0.234 0.234h3.451c0.13 0 0.234-0.105 0.234-0.234s-0.104-0.234-0.234-0.234" clip-path="url(#clipPath437)"/><path transform="matrix(.35278 0 0 -.35278 58.516 113.45)" d="m0 0h-3.451c-0.129 0-0.234 0.105-0.234 0.234 0 0.13 0.105 0.234 0.234 0.234h3.451c0.13 0 0.234-0.104 0.234-0.234 0-0.129-0.104-0.234-0.234-0.234" clip-path="url(#clipPath439)"/><path transform="matrix(.35278 0 0 -.35278 53.106 113.39)" d="m0 0c0-0.043-0.035-0.078-0.078-0.078h-2.848c-0.043 0-0.078 0.035-0.078 0.078v1.664c0 0.043 0.035 0.078 0.078 0.078h2.848c0.043 0 0.078-0.035 0.078-0.078zm0.013 2.21h-3.03c-0.252 0-0.455-0.204-0.455-0.455v-1.846c0-0.251 0.203-0.455 0.455-0.455h3.03c0.251 0 0.455 0.204 0.455 0.455v1.846c0 0.251-0.204 0.455-0.455 0.455" clip-path="url(#clipPath441)"/><path transform="matrix(.35278 0 0 -.35278 52.76 112.43)" d="m0 0c0.13 0 0.234 0.105 0.234 0.234 0 0.13-0.104 0.234-0.234 0.234h-3.017c-0.251 0-0.455-0.203-0.455-0.455v-1.833c0-0.129 0.106-0.234 0.235-0.234s0.234 0.105 0.234 0.234v1.742c0 0.043 0.034 0.078 0.077 0.078z" clip-path="url(#clipPath443)"/></g></g></svg>
