<svg width="66.521mm" height="27.675mm" version="1.1" viewBox="0 0 66.521 27.675" xml:space="preserve" xmlns="http://www.w3.org/2000/svg"><path d="m57.024 17.707v-0.14464c0-0.04727-0.05398-0.07408-0.09172-0.04551l-0.40746 0.30903c-0.01446 0.01058-0.02258 0.02752-0.02258 0.04551v0.139c0 0.04692 0.05362 0.07373 0.09102 0.04586l0.40781-0.30339c0.01446-0.01094 0.02293-0.02787 0.02293-0.04586" fill="#889099"/><g fill="none"><g stroke="#889199" stroke-width=".11748"><path d="m9.483 0.12943c-0.074436-0.030339-0.045656-0.020261-0.13738-0.034372l-0.15381-0.023636c-0.062442-0.011994-0.11148-0.014111-0.16475-0.011994 0 0-3.1224 0.039511-4.1095 0.19403-0.67557 0.10583-1.1201 0.387-1.3331 0.58984-0.48507 0.46249-0.86607 0.92251-1.0047 1.0806-0.033514 0.0381-0.057503 0.082197-0.071614 0.13088l-0.15092 0.59203" stroke-miterlimit="10"/><path d="m57.06 0.12964c0.07444-0.030339 0.01871-0.02047 0.11043-0.034581l0.15381-0.023636c0.06244-0.011994 0.11148-0.014111 0.16439-0.011994 0 0 3.1228 0.039511 4.1099 0.19403 0.67557 0.10583 1.1201 0.387 1.3331 0.58984 0.48507 0.46249 0.86607 0.92251 1.0047 1.0806 0.03351 0.0381 0.0575 0.082197 0.07161 0.13088l0.15604 0.60412" stroke-miterlimit="10"/><path d="m39.797 0.89921-0.15536-0.16562c-0.04339-0.042686-0.1016-0.066675-0.16228-0.066675h-1.7498c-0.03069 0-0.06068 0.007056-0.08784 0.020461l-0.12912 0.0635c-0.02646 0.013053-0.05609 0.020108-0.08608 0.020108h-0.73413c-0.04163 0-0.08255-0.013406-0.11606-0.038453l-0.03598-0.026458c-0.03422-0.0254-0.0755-0.039158-0.11818-0.039158h-1.9572c-0.06138 0-0.11994 0.024342-0.16334 0.067733l-0.15427 0.16076" stroke-miterlimit="2"/></g><path d="m54.672 27.261c2.4888 0 5.1569 0.35489 7.2722 0.35489h0.35701c1.6185 0 2.0133-1.0844 2.4356-2.1512l1.3638-3.5906c0.15028-0.39476 0.24412-0.6477 0.2734-1.1469 0.03563-0.60854 0.08784-2.0966 0.08784-3.4555v-0.99624c0-1.9089-0.58102-8.9697-1.2139-11.809-0.0642-0.28892-0.18344-0.52423-0.32914-0.65264l-2.6123-2.4578c-0.32244-0.30304-0.74824-0.47202-1.1906-0.47202h-55.711c-0.44274 0-0.86819 0.16898-1.1906 0.47202l-2.6123 2.4578c-0.1457 0.12841-0.26494 0.36371-0.32949 0.65264-0.63288 2.8395-1.2139 9.9004-1.2139 11.809v0.99624c0 1.3589 0.052564 2.8469 0.088194 3.4555 0.029281 0.49918 0.12312 0.75212 0.27305 1.1469l1.3642 3.5906c0.42192 1.0668 0.81668 2.1512 2.4352 2.1512h0.35701c2.1156 0 4.7833-0.35489 7.2725-0.35489z"/><g stroke="#889199" stroke-miterlimit="2" stroke-width=".11748"><path d="m51.655 24.303h-36.795v-20.75h36.795z"/><path d="m52.62 26.571h-38.723c-0.10936 0-0.19791-0.08855-0.19791-0.19826v-24.812c0-0.10936 0.08855-0.19791 0.19791-0.19791h38.723c0.10936 0 0.19826 0.088547 0.19826 0.19791v24.812c0 0.10971-0.0889 0.19826-0.19826 0.19826z"/><path d="m11.981 7.2147v0.83855c0 0.10583 0.06738 0.20002 0.16757 0.23389l1.0703 0.36442c0.03775 0.013053 0.07691-0.015169 0.07691-0.055033v-1.9724c0-0.040922-0.04092-0.069144-0.07867-0.054328l-1.0777 0.41416c-0.09525 0.036689-0.1584 0.12841-0.1584 0.23072z"/><path d="m13.296 5.4587v-0.83855c0-0.10583-0.06738-0.20002-0.16757-0.23389l-1.0703-0.36442c-0.03775-0.013053-0.07691 0.015169-0.07691 0.055033v1.9724c0 0.040922 0.04092 0.069144 0.07867 0.054328l1.0774-0.41416c0.0956-0.036689 0.15875-0.12841 0.15875-0.23072z"/></g></g><path d="m12.398 5.3366h0.38171v-0.30586h-0.38171zm0.05045-0.254h0.28081v0.20214h-0.28081z" fill="#889099"/><path d="m12.234 4.8193h-0.04657v0.30515h0.13511v-0.0519h-0.08537v-0.20214h0.28081v0.0935h0.0508v-0.14464z" fill="#889099"/><path d="m12.24 11.454c0 1.4319-1.161 2.5929-2.5929 2.5929s-2.5929-1.161-2.5929-2.5929 1.161-2.5929 2.5929-2.5929 2.5929 1.161 2.5929 2.5929z" fill="none" stroke="#889199" stroke-miterlimit="2" stroke-width=".11748"/><path d="m10.42 9.0722c0-0.055386-0.03634-0.10548-0.08996-0.11994-0.21766-0.05962-0.44697-0.09137-0.68333-0.09137-0.23671 0-0.46602 0.03175-0.68368 0.09137-0.053622 0.014464-0.089958 0.064558-0.089958 0.11994v1.4845c0 0.06844-0.055386 0.12382-0.12347 0.12382h-1.4848c-0.055386 0-0.10548 0.03634-0.11994 0.0896-0.059267 0.21802-0.091369 0.44697-0.091369 0.68368s0.032103 0.46602 0.091369 0.68368c0.014464 0.05327 0.064558 0.08996 0.11994 0.08996h1.4848c0.068086 0 0.12347 0.05539 0.12347 0.12347v1.4848c0 0.05539 0.036336 0.10513 0.089958 0.11994 0.21766 0.05927 0.44697 0.09137 0.68368 0.09137 0.23636 0 0.46567-0.0321 0.68333-0.09137 0.05362-0.01482 0.08996-0.06456 0.08996-0.11994v-1.4848c0-0.06809 0.05539-0.12347 0.12347-0.12347h1.4848c0.05539 0 0.10548-0.03669 0.11994-0.08996 0.05927-0.21766 0.09102-0.44697 0.09102-0.68368s-0.03175-0.46567-0.09102-0.68368c-0.01446-0.05327-0.06456-0.0896-0.11994-0.0896h-1.4848c-0.06809 0-0.12347-0.05539-0.12347-0.12382z" fill="none" stroke="#889199" stroke-miterlimit="2" stroke-width=".11748"/><g fill="#889099"><path d="m9.5063 9.403h0.28081l-0.14041-0.14041z"/><path d="m9.5597 9.6306h-0.28081l0.14041-0.14041z"/><path d="m10.015 9.6306h-0.28081l0.14041-0.14041z"/><path d="m9.5063 13.505h0.28081l-0.14041 0.14041z"/><path d="m9.5597 13.277h-0.28081l0.14041 0.14041z"/><path d="m10.015 13.277h-0.28081l0.14041 0.14041z"/><path d="m11.698 11.313v0.28081l0.14041-0.1404z"/><path d="m11.47 11.367v-0.28081l0.14041 0.1404z"/><path d="m11.47 11.822v-0.28081l0.14041 0.1404z"/><path d="m7.5959 11.313v0.28081l-0.14041-0.1404z"/><path d="m7.8235 11.367v-0.28081l-0.14041 0.1404z"/><path d="m7.8235 11.822v-0.28081l-0.14041 0.1404z"/></g><g fill="none" stroke="#889199" stroke-miterlimit="2"><path d="m8.2217 6.175c0 1.3871-1.1243 2.5114-2.5114 2.5114s-2.5118-1.1243-2.5118-2.5114 1.1247-2.5114 2.5118-2.5114 2.5114 1.1243 2.5114 2.5114z" stroke-width=".078317"/><path d="m7.7791 6.175c0 1.1426-0.92639 2.069-2.069 2.069-1.1426 0-2.0687-0.92639-2.0687-2.069s0.92604-2.069 2.0687-2.069c1.1426 0 2.069 0.92639 2.069 2.069z" stroke-width=".11748"/><path d="m7.2674 6.175c0 0.86007-0.69709 1.5572-1.5572 1.5572-0.86007 0-1.5572-0.69709-1.5572-1.5572s0.69709-1.5572 1.5572-1.5572c0.86007 0 1.5572 0.69709 1.5572 1.5572z" stroke-width=".078317"/></g><path d="m53.873 7.7764h-0.40111l-0.04092 0.049742 0.3235 0.18062 0.11994-0.066675v-0.16369zm-0.11853-0.55492-0.04445 0.025047 0.37606 0.51118v-0.35137zm0.17745 0.68651 0.13723-0.076553-0.13723-0.18662zm-0.27199-0.63324-0.23671 0.13159v0.34361l0.30798-0.37818z" fill="#889099"/><path d="m54.54 7.2147v0.83855c0 0.10583-0.06738 0.20002-0.16757 0.23389l-1.0703 0.36442c-0.03775 0.013053-0.07691-0.015169-0.07691-0.055033v-1.9724c0-0.040922 0.04092-0.069144 0.07867-0.054328l1.0777 0.41416c0.09525 0.036689 0.1584 0.12841 0.1584 0.23072z" fill="none" stroke="#889199" stroke-miterlimit="2" stroke-width=".11748"/><g fill="#889099"><path d="m54.294 5.2548h-0.56444v-0.051858h0.56444z"/><path d="m54.294 5.0854h-0.56444v-0.051858h0.56444z"/><path d="m54.294 4.915h-0.56444v-0.051858h0.56444z"/></g><g fill="none" stroke="#889199"><g stroke-miterlimit="2"><path d="m53.225 5.4587v-0.83855c0-0.10583 0.06738-0.20002 0.16757-0.23389l1.0703-0.36442c0.03775-0.013053 0.07691 0.015169 0.07691 0.055033v1.9724c0 0.040922-0.04092 0.069144-0.07867 0.054328l-1.0777-0.41416c-0.09525-0.036689-0.1584-0.12841-0.1584-0.23072z" stroke-width=".11748"/><path d="m54.77 12.337c0 1.3871 1.1243 2.5114 2.5114 2.5114s2.5114-1.1243 2.5114-2.5114-1.1243-2.5114-2.5114-2.5114-2.5114 1.1243-2.5114 2.5114z" stroke-width=".078317"/><path d="m55.213 12.337c0 1.1426 0.92639 2.069 2.069 2.069 1.1426 0 2.0687-0.9264 2.0687-2.069s-0.92604-2.069-2.0687-2.069c-1.1426 0-2.069 0.9264-2.069 2.069z" stroke-width=".11748"/><path d="m55.725 12.337c0 0.86007 0.69709 1.5572 1.5572 1.5572s1.5572-0.69709 1.5572-1.5572-0.69709-1.5572-1.5572-1.5572-1.5572 0.69709-1.5572 1.5572z" stroke-width=".078317"/></g><path d="m60.47 4.4174c-0.65334 0-1.1829-0.52952-1.1829-1.1829s0.52952-1.1829 1.1829-1.1829 1.1829 0.52952 1.1829 1.1829-0.52952 1.1829-1.1829 1.1829z" stroke-miterlimit="10" stroke-width=".11748"/></g><path d="m60.295 3.2678-0.54716-0.61736h0.40358l0.31891 0.36054 0.31856-0.36054h0.40358l-0.54716 0.61736v0.55069h-0.35031z" fill="#889099"/><path d="m59.286 5.6016c0 0.65334-0.52952 1.1829-1.1829 1.1829-0.65334 0-1.1829-0.52952-1.1829-1.1829s0.52952-1.1829 1.1829-1.1829c0.65334 0 1.1829 0.52952 1.1829 1.1829z" fill="none" stroke="#889199" stroke-miterlimit="10" stroke-width=".11748"/><path d="m58.309 5.6074 0.52881 0.59196h-0.41592l-0.31997-0.36089-0.31997 0.36089h-0.4124l0.52352-0.59196-0.53199-0.60572h0.41381l0.32702 0.36971 0.32526-0.36971h0.41557z" fill="#889099"/><path d="m60.47 9.1515c-0.65334 0-1.1829-0.52952-1.1829-1.1829s0.52952-1.1829 1.1829-1.1829 1.1829 0.52952 1.1829 1.1829-0.52952 1.1829-1.1829 1.1829z" fill="none" stroke="#889199" stroke-miterlimit="10" stroke-width=".11748"/><path d="m60.176 7.884h0.5902v-0.31785h-0.5902zm0.94121-0.48613v1.1416h-0.34255v-0.48613h-0.60325v0.48613h-0.34925v-1.1416z" fill="#889099"/><path d="m64.02 5.6016c0 0.65334-0.52952 1.1829-1.1829 1.1829-0.65334 0-1.1829-0.52952-1.1829-1.1829s0.52952-1.1829 1.1829-1.1829c0.65334 0 1.1829 0.52952 1.1829 1.1829z" fill="none" stroke="#889199" stroke-miterlimit="10" stroke-width=".11748"/><path d="m62.556 5.9991h0.56162v-0.36512h-0.56162zm0-0.53128h0.56162v-0.26388h-0.56162zm0.89782 0.69709h-1.234v-1.1264h1.1359v0.42933h0.09807z" fill="#889099"/><path d="m54.672 27.261c2.4888 0 5.1569 0.35489 7.2722 0.35489h0.35701c1.6185 0 2.0133-1.0844 2.4356-2.1512l1.3638-3.5906c0.15028-0.39476 0.24412-0.6477 0.2734-1.1469 0.03563-0.60854 0.08784-2.0966 0.08784-3.4555v-0.99624c0-1.9089-0.58102-8.9697-1.2139-11.809-0.0642-0.28892-0.18344-0.52423-0.32914-0.65264l-2.6123-2.4578c-0.32244-0.30304-0.74824-0.47202-1.1906-0.47202h-55.711c-0.44274 0-0.86819 0.16898-1.1906 0.47202l-2.6123 2.4578c-0.1457 0.12841-0.26494 0.36371-0.32949 0.65264-0.63288 2.8395-1.2139 9.9004-1.2139 11.809v0.99624c0 1.3589 0.052564 2.8469 0.088194 3.4555 0.029281 0.49918 0.12312 0.75212 0.27305 1.1469l1.3642 3.5906c0.42192 1.0668 0.81668 2.1512 2.4352 2.1512h0.35701c2.1156 0 4.7833-0.35489 7.2725-0.35489z" fill="none" stroke="#889199" stroke-miterlimit="2" stroke-width=".11748"/><g fill="#889099"><path d="m10.946 24.039v-0.14464c0-0.04727 0.05397-0.07408 0.09172-0.04551l0.40746 0.30903c0.01446 0.01058 0.02258 0.02752 0.02258 0.04551v0.139c0 0.04692-0.05362 0.07373-0.09102 0.04586l-0.40781-0.30339c-0.01446-0.01094-0.02293-0.02787-0.02293-0.04586"/><path d="m11.697 24.623v-0.14464c0-0.04727 0.05397-0.07408 0.09172-0.04551l0.40746 0.30903c0.01446 0.01058 0.02258 0.02752 0.02258 0.04551v0.139c0 0.04692-0.05362 0.07373-0.09137 0.04586l-0.40746-0.30339c-0.01446-0.01094-0.02293-0.02787-0.02293-0.04586"/><path d="m10.946 18.935v-0.14464c0-0.04727 0.05397-0.07408 0.09172-0.04551l0.40746 0.30903c0.01446 0.01058 0.02258 0.02752 0.02258 0.04551v0.139c0 0.04692-0.05362 0.07373-0.09102 0.04586l-0.40781-0.30339c-0.01446-0.01094-0.02293-0.02787-0.02293-0.04586"/><path d="m11.697 19.519v-0.14464c0-0.04727 0.05397-0.07408 0.09172-0.04551l0.40746 0.30903c0.01446 0.01058 0.02258 0.02752 0.02258 0.04551v0.139c0 0.04692-0.05362 0.07373-0.09137 0.04586l-0.40746-0.30339c-0.01446-0.01094-0.02293-0.02787-0.02293-0.04586"/><path d="m10.946 23.473v-0.14429c0-0.04727 0.05397-0.07373 0.09172-0.04516l1.1518 0.87524c0.01446 0.01058 0.02258 0.02752 0.02258 0.04551v0.11395c0 0.04657-0.05327 0.07373-0.09102 0.04586l-1.1518-0.8449c-0.01482-0.01094-0.02328-0.02822-0.02328-0.04621"/><path d="m10.946 22.905v-0.14429c0-0.04727 0.05397-0.07373 0.09172-0.04516l1.1518 0.87524c0.01446 0.01058 0.02258 0.02752 0.02258 0.04551v0.11395c0 0.04657-0.05327 0.07373-0.09102 0.04586l-1.1518-0.8449c-0.01482-0.01094-0.02328-0.02822-0.02328-0.04621"/><path d="m10.946 22.337v-0.14429c0-0.04727 0.05397-0.07373 0.09172-0.04516l1.1518 0.87524c0.01446 0.01058 0.02258 0.02752 0.02258 0.04551v0.11395c0 0.04657-0.05327 0.07373-0.09102 0.04586l-1.1518-0.8449c-0.01482-0.01094-0.02328-0.02822-0.02328-0.04621"/><path d="m10.946 21.768v-0.14429c0-0.04727 0.05397-0.07373 0.09172-0.04516l1.1518 0.87524c0.01446 0.01058 0.02258 0.02752 0.02258 0.04551v0.11395c0 0.04657-0.05327 0.07373-0.09102 0.04586l-1.1518-0.8449c-0.01482-0.01094-0.02328-0.02822-0.02328-0.04621"/><path d="m10.946 21.2v-0.14393c0-0.04763 0.05397-0.07444 0.09172-0.04551l1.1518 0.87524c0.01446 0.01058 0.02258 0.02752 0.02258 0.04551v0.11395c0 0.04657-0.05327 0.07373-0.09102 0.04586l-1.1518-0.8449c-0.01482-0.01094-0.02328-0.02822-0.02328-0.04621"/><path d="m10.946 20.632v-0.14429c0-0.04727 0.05397-0.07373 0.09172-0.04516l1.1518 0.87524c0.01446 0.01058 0.02258 0.02752 0.02258 0.04551v0.11395c0 0.04657-0.05327 0.07373-0.09102 0.04586l-1.1518-0.8449c-0.01482-0.01094-0.02328-0.02822-0.02328-0.04621"/><path d="m10.946 20.064v-0.14429c0-0.04727 0.05397-0.07373 0.09172-0.04516l1.1518 0.87524c0.01446 0.01058 0.02258 0.02752 0.02258 0.04551v0.11395c0 0.04657-0.05327 0.07373-0.09102 0.04586l-1.1518-0.8449c-0.01482-0.01094-0.02328-0.02822-0.02328-0.04621"/><path d="m10.946 19.496v-0.14429c0-0.04727 0.05397-0.07373 0.09172-0.04516l1.1518 0.87524c0.01446 0.01058 0.02258 0.02752 0.02258 0.04551v0.11395c0 0.04657-0.05327 0.07373-0.09102 0.04586l-1.1518-0.8449c-0.01482-0.01094-0.02328-0.02822-0.02328-0.04621"/><path d="m9.4918 22.811v-0.14464c0-0.04727 0.053975-0.07408 0.091722-0.04551l0.40746 0.30903c0.014464 0.01058 0.022578 0.02752 0.022578 0.04551v0.139c0 0.04692-0.053622 0.07373-0.091016 0.04586l-0.40781-0.30339c-0.014464-0.010936-0.022931-0.027869-0.022931-0.045861"/><path d="m10.243 23.395v-0.14464c0-0.04727 0.05398-0.07408 0.09172-0.04551l0.40746 0.30903c0.01446 0.01058 0.02258 0.02752 0.02258 0.04551v0.139c0 0.04692-0.05362 0.07373-0.09137 0.04586l-0.40746-0.30339c-0.01446-0.01094-0.02293-0.02787-0.02293-0.04586"/><path d="m9.4918 17.707v-0.14464c0-0.04727 0.053975-0.07408 0.091722-0.04551l0.40746 0.30903c0.014464 0.01058 0.022578 0.02752 0.022578 0.04551v0.139c0 0.04692-0.053622 0.07373-0.091016 0.04586l-0.40781-0.30339c-0.014464-0.010936-0.022931-0.027869-0.022931-0.045861"/><path d="m10.243 18.291v-0.14464c0-0.04727 0.05398-0.07408 0.09172-0.04551l0.40746 0.30903c0.01446 0.01058 0.02258 0.02752 0.02258 0.04551v0.139c0 0.04692-0.05362 0.07373-0.09137 0.04586l-0.40746-0.30339c-0.01446-0.01094-0.02293-0.02787-0.02293-0.04586"/><path d="m9.4918 22.245v-0.14429c0-0.04727 0.053975-0.07408 0.091722-0.04516l1.1518 0.87524c0.01446 0.01058 0.02258 0.02752 0.02258 0.04551v0.11395c0 0.04657-0.05327 0.07373-0.09066 0.04586l-1.1522-0.8449c-0.014817-0.010936-0.023283-0.028222-0.023283-0.046214"/><path d="m9.4918 21.677v-0.14429c0-0.04727 0.053975-0.07373 0.091722-0.04516l1.1518 0.87524c0.01446 0.01058 0.02258 0.02752 0.02258 0.04551v0.11395c0 0.04657-0.05327 0.07373-0.09066 0.04586l-1.1522-0.8449c-0.014817-0.010936-0.023283-0.028222-0.023283-0.046214"/><path d="m9.4918 21.109v-0.14393c0-0.04763 0.053975-0.07408 0.091722-0.04551l1.1518 0.87524c0.01446 0.01058 0.02258 0.02752 0.02258 0.04551v0.11395c0 0.04657-0.05327 0.07373-0.09066 0.04586l-1.1522-0.8449c-0.014817-0.010936-0.023283-0.028222-0.023283-0.046214"/><path d="m9.4918 20.54v-0.14429c0-0.04727 0.053975-0.07373 0.091722-0.04516l1.1518 0.87524c0.01446 0.01058 0.02258 0.02752 0.02258 0.04551v0.11395c0 0.04657-0.05327 0.07373-0.09066 0.04586l-1.1522-0.8449c-0.014817-0.010936-0.023283-0.028222-0.023283-0.046214"/><path d="m9.4918 19.972v-0.14429c0-0.04727 0.053975-0.07408 0.091722-0.04516l1.1518 0.87524c0.01446 0.01058 0.02258 0.02752 0.02258 0.04551v0.11395c0 0.04657-0.05327 0.07373-0.09066 0.04586l-1.1522-0.8449c-0.014817-0.010936-0.023283-0.028222-0.023283-0.046214"/><path d="m9.4918 19.404v-0.14429c0-0.04727 0.053975-0.07373 0.091722-0.04516l1.1518 0.87525c0.01446 0.01058 0.02258 0.02752 0.02258 0.04551v0.11395c0 0.04657-0.05327 0.07373-0.09066 0.04586l-1.1522-0.8449c-0.014817-0.010936-0.023283-0.028222-0.023283-0.046214"/><path d="m9.4918 18.836v-0.14429c0-0.04727 0.053975-0.07373 0.091722-0.04516l1.1518 0.87524c0.01446 0.01058 0.02258 0.02752 0.02258 0.04551v0.11395c0 0.04657-0.05327 0.07373-0.09066 0.04586l-1.1522-0.8449c-0.014817-0.010936-0.023283-0.028222-0.023283-0.046214"/><path d="m9.4918 18.268v-0.14429c0-0.04727 0.053975-0.07373 0.091722-0.04516l1.1518 0.87524c0.01446 0.01058 0.02258 0.02752 0.02258 0.04551v0.11395c0 0.04657-0.05327 0.07373-0.09066 0.04586l-1.1522-0.8449c-0.014817-0.010936-0.023283-0.028222-0.023283-0.046214"/><path d="m55.57 24.039v-0.14464c0-0.04727-0.05398-0.07408-0.09172-0.04551l-0.40746 0.30903c-0.01446 0.01058-0.02258 0.02752-0.02258 0.04551v0.139c0 0.04692 0.05362 0.07373 0.09102 0.04586l0.40781-0.30339c0.01446-0.01094 0.02293-0.02787 0.02293-0.04586"/><path d="m54.819 24.623v-0.14464c0-0.04727-0.05397-0.07408-0.09172-0.04551l-0.40746 0.30903c-0.01446 0.01058-0.02258 0.02752-0.02258 0.04551v0.139c0 0.04692 0.05362 0.07373 0.09102 0.04586l0.40781-0.30339c0.01446-0.01094 0.02293-0.02787 0.02293-0.04586"/><path d="m55.57 18.935v-0.14464c0-0.04727-0.05398-0.07408-0.09172-0.04551l-0.40746 0.30903c-0.01446 0.01058-0.02258 0.02752-0.02258 0.04551v0.139c0 0.04692 0.05362 0.07373 0.09102 0.04586l0.40781-0.30339c0.01446-0.01094 0.02293-0.02787 0.02293-0.04586"/><path d="m54.819 19.519v-0.14464c0-0.04727-0.05397-0.07408-0.09172-0.04551l-0.40746 0.30903c-0.01446 0.01058-0.02258 0.02752-0.02258 0.04551v0.139c0 0.04692 0.05362 0.07373 0.09102 0.04586l0.40781-0.30339c0.01446-0.01094 0.02293-0.02787 0.02293-0.04586"/><path d="m55.57 23.473v-0.14429c0-0.04727-0.05398-0.07373-0.09172-0.04516l-1.1518 0.87524c-0.01446 0.01058-0.02293 0.02752-0.02293 0.04551v0.11395c0 0.04657 0.05362 0.07373 0.09102 0.04586l1.1522-0.8449c0.01482-0.01094 0.02328-0.02822 0.02328-0.04621"/><path d="m55.57 22.905v-0.14429c0-0.04727-0.05398-0.07373-0.09172-0.04516l-1.1518 0.87524c-0.01446 0.01058-0.02293 0.02752-0.02293 0.04551v0.11395c0 0.04657 0.05362 0.07373 0.09102 0.04586l1.1522-0.8449c0.01482-0.01094 0.02328-0.02822 0.02328-0.04621"/><path d="m55.57 22.337v-0.14429c0-0.04727-0.05398-0.07373-0.09172-0.04516l-1.1518 0.87524c-0.01446 0.01058-0.02293 0.02752-0.02293 0.04551v0.11395c0 0.04657 0.05362 0.07373 0.09102 0.04586l1.1522-0.8449c0.01482-0.01094 0.02328-0.02822 0.02328-0.04621"/><path d="m55.57 21.768v-0.14429c0-0.04727-0.05398-0.07373-0.09172-0.04516l-1.1518 0.87524c-0.01446 0.01058-0.02293 0.02752-0.02293 0.04551v0.11395c0 0.04657 0.05362 0.07373 0.09102 0.04586l1.1522-0.8449c0.01482-0.01094 0.02328-0.02822 0.02328-0.04621"/><path d="m55.57 21.2v-0.14393c0-0.04763-0.05398-0.07444-0.09172-0.04551l-1.1518 0.87524c-0.01446 0.01058-0.02293 0.02752-0.02293 0.04551v0.11395c0 0.04657 0.05362 0.07373 0.09102 0.04586l1.1522-0.8449c0.01482-0.01094 0.02328-0.02822 0.02328-0.04621"/><path d="m55.57 20.632v-0.14429c0-0.04727-0.05398-0.07373-0.09172-0.04516l-1.1518 0.87524c-0.01446 0.01058-0.02293 0.02752-0.02293 0.04551v0.11395c0 0.04657 0.05362 0.07373 0.09102 0.04586l1.1522-0.8449c0.01482-0.01094 0.02328-0.02822 0.02328-0.04621"/><path d="m55.57 20.064v-0.14429c0-0.04727-0.05398-0.07373-0.09172-0.04516l-1.1518 0.87524c-0.01446 0.01058-0.02293 0.02752-0.02293 0.04551v0.11395c0 0.04657 0.05362 0.07373 0.09102 0.04586l1.1522-0.8449c0.01482-0.01094 0.02328-0.02822 0.02328-0.04621"/><path d="m55.57 19.496v-0.14429c0-0.04727-0.05398-0.07373-0.09172-0.04516l-1.1518 0.87524c-0.01446 0.01058-0.02293 0.02752-0.02293 0.04551v0.11395c0 0.04657 0.05362 0.07373 0.09102 0.04586l1.1522-0.8449c0.01482-0.01094 0.02328-0.02822 0.02328-0.04621"/><path d="m57.024 22.811v-0.14464c0-0.04727-0.05398-0.07408-0.09172-0.04551l-0.40746 0.30903c-0.01446 0.01058-0.02258 0.02752-0.02258 0.04551v0.139c0 0.04692 0.05362 0.07373 0.09102 0.04586l0.40781-0.30339c0.01446-0.01094 0.02293-0.02787 0.02293-0.04586"/><path d="m56.273 23.395v-0.14464c0-0.04727-0.05398-0.07408-0.09172-0.04551l-0.40746 0.30903c-0.01446 0.01058-0.02258 0.02752-0.02258 0.04551v0.139c0 0.04692 0.05362 0.07373 0.09102 0.04586l0.40781-0.30339c0.01446-0.01094 0.02293-0.02787 0.02293-0.04586"/><path d="m56.273 18.291v-0.14464c0-0.04727-0.05398-0.07408-0.09172-0.04551l-0.40746 0.30903c-0.01446 0.01058-0.02258 0.02752-0.02258 0.04551v0.139c0 0.04692 0.05362 0.07373 0.09102 0.04586l0.40781-0.30339c0.01446-0.01094 0.02293-0.02787 0.02293-0.04586"/><path d="m57.024 22.245v-0.14429c0-0.04727-0.05398-0.07408-0.09172-0.04516l-1.1518 0.87524c-0.01446 0.01058-0.02293 0.02752-0.02293 0.04551v0.11395c0 0.04657 0.05362 0.07373 0.09102 0.04586l1.1522-0.8449c0.01482-0.01094 0.02328-0.02822 0.02328-0.04621"/><path d="m57.024 21.677v-0.14429c0-0.04727-0.05398-0.07373-0.09172-0.04516l-1.1518 0.87524c-0.01446 0.01058-0.02293 0.02752-0.02293 0.04551v0.11395c0 0.04657 0.05362 0.07373 0.09102 0.04586l1.1522-0.8449c0.01482-0.01094 0.02328-0.02822 0.02328-0.04621"/><path d="m57.024 21.109v-0.14393c0-0.04763-0.05398-0.07408-0.09172-0.04551l-1.1518 0.87524c-0.01446 0.01058-0.02293 0.02752-0.02293 0.04551v0.11395c0 0.04657 0.05362 0.07373 0.09102 0.04586l1.1522-0.8449c0.01482-0.01094 0.02328-0.02822 0.02328-0.04621"/><path d="m57.024 20.54v-0.14429c0-0.04727-0.05398-0.07373-0.09172-0.04516l-1.1518 0.87524c-0.01446 0.01058-0.02293 0.02752-0.02293 0.04551v0.11395c0 0.04657 0.05362 0.07373 0.09102 0.04586l1.1522-0.8449c0.01482-0.01094 0.02328-0.02822 0.02328-0.04621"/><path d="m57.024 19.972v-0.14429c0-0.04727-0.05398-0.07408-0.09172-0.04516l-1.1518 0.87524c-0.01446 0.01058-0.02293 0.02752-0.02293 0.04551v0.11395c0 0.04657 0.05362 0.07373 0.09102 0.04586l1.1522-0.8449c0.01482-0.01094 0.02328-0.02822 0.02328-0.04621"/><path d="m57.024 19.404v-0.14429c0-0.04727-0.05398-0.07373-0.09172-0.04516l-1.1518 0.87524c-0.01446 0.01058-0.02293 0.02752-0.02293 0.04551v0.11395c0 0.04657 0.05362 0.07373 0.09102 0.04586l1.1522-0.8449c0.01482-0.01094 0.02328-0.02822 0.02328-0.04621"/><path d="m57.024 18.836v-0.14429c0-0.04727-0.05398-0.07373-0.09172-0.04516l-1.1518 0.87524c-0.01446 0.01058-0.02293 0.02752-0.02293 0.04551v0.11395c0 0.04657 0.05362 0.07373 0.09102 0.04586l1.1522-0.8449c0.01482-0.01094 0.02328-0.02822 0.02328-0.04621"/><path d="m57.024 18.268v-0.14429c0-0.04727-0.05398-0.07373-0.09172-0.04516l-1.1518 0.87524c-0.01446 0.01058-0.02293 0.02752-0.02293 0.04551v0.11395c0 0.04657 0.05362 0.07373 0.09102 0.04586l1.1522-0.8449c0.01482-0.01094 0.02328-0.02822 0.02328-0.04621"/></g><g fill="none"><path d="m11.647 0.90359-0.03951-0.41698c-0.0049-0.051858-0.04092-0.077964-0.10019-0.094897l-0.73695-0.21167c-0.08502-0.033161-0.883-0.051858-1.0904-0.051858-0.20779 0-3.6534 0.032456-3.6534 0.032456-0.91722 0-1.9226 0.32738-2.4486 0.9211l-0.90946 1.0312c-0.33972 0.44732-0.47625 0.91899-0.50976 1.3688 0.61912-0.39476 0.91369-0.73378 1.9375-1.7036 0.53375-0.50553 1.0238-0.72178 1.4379-0.72178 1.1053 0 5.285-0.061736 5.552-0.061736 0.31432 0 0.51541-0.091017 0.56092-0.091017"/><path d="m11.647 0.90359-0.03951-0.41698c-0.0049-0.051858-0.04092-0.077964-0.10019-0.094897l-0.73695-0.21167c-0.08502-0.033161-0.883-0.051858-1.0904-0.051858-0.20779 0-3.6534 0.032456-3.6534 0.032456-0.91722 0-1.9226 0.32738-2.4486 0.9211l-0.90946 1.0312c-0.33972 0.44732-0.36587 0.62311-0.39938 1.0729" stroke="#889199" stroke-linejoin="round" stroke-miterlimit="10" stroke-width=".11748"/><path d="m54.869 0.90359 0.03951-0.41698c0.0049-0.051858 0.04092-0.077964 0.10019-0.094897l0.73695-0.21167c0.08502-0.033161 0.883-0.051858 1.0904-0.051858 0.20779 0 3.6534 0.032456 3.6534 0.032456 0.91722 0 1.9226 0.32738 2.4486 0.9211l0.90946 1.0312c0.33972 0.44732 0.47625 0.91899 0.50976 1.3688-0.61912-0.39476-0.91369-0.73378-1.9375-1.7036-0.53375-0.50553-1.0238-0.72178-1.4379-0.72178-1.1053 0-5.285-0.061736-5.552-0.061736-0.31432 0-0.51541-0.091017-0.56092-0.091017"/><g stroke="#889199" stroke-miterlimit="10"><path d="m54.869 0.90359 0.03951-0.41698c0.0049-0.051858 0.04092-0.077964 0.10019-0.094897l0.73695-0.21167c0.08502-0.033161 0.883-0.051858 1.0904-0.051858 0.20779 0 3.6534 0.032456 3.6534 0.032456 0.91722 0 1.9226 0.32738 2.4486 0.9211l0.90946 1.0312c0.33972 0.44732 0.36333 0.61604 0.39684 1.0658" stroke-linejoin="round" stroke-width=".11748"/><path d="m12.678 2.6299c0 0.045508-0.03704 0.082903-0.0829 0.082903-0.04551 0-0.08255-0.037395-0.08255-0.082903s0.03704-0.082903 0.08255-0.082903c0.04586 0 0.0829 0.037395 0.0829 0.082903z" stroke-width=".078317"/><path d="m53.983 2.5472c0 0.045508-0.03704 0.082903-0.0829 0.082903-0.04551 0-0.08255-0.037395-0.08255-0.082903s0.03704-0.082903 0.08255-0.082903c0.04586 0 0.0829 0.037395 0.0829 0.082903z" stroke-width=".078317"/></g></g><g fill="#889099"><path d="m31.99 25.383 0.33937 0.38806h-0.29316l-0.44732-0.51012h0.42016v-0.19826h-0.45826v0.70838h-0.25153v-0.83079h0.95426v0.44274z"/><path d="m33.163 25.489 0.14111 0.16016h0.30515v-0.58632h-0.44626zm-0.248 0.05327v-0.60149h0.94227v0.83079h-0.74048z"/><path d="m35.23 25.319h0.248v0.45226h-0.9458v-0.83079h0.98249l-0.10548 0.12206h-0.62442v0.58632h0.44521z"/><path d="m13.095 7.611-0.17462-0.10125v0.20179z"/><path d="m12.602 7.7177 0.26282-0.15134v-0.088194l-0.3175-0.1845-0.07796 0.045156v0.54469l0.07691 0.044097 0.31856-0.1838v-0.0889l-0.31857 0.18415v-0.45685l0.2413 0.13935-0.18556 0.1076z"/></g></svg>
