<?xml version="1.0" encoding="UTF-8" standalone="no"?>
<!-- Created with Inkscape (http://www.inkscape.org/) -->

<svg
   width="23.756924mm"
   height="24.000025mm"
   viewBox="0 0 23.756924 24.000025"
   version="1.1"
   id="svg1"
   xml:space="preserve"
   xmlns="http://www.w3.org/2000/svg"
   xmlns:svg="http://www.w3.org/2000/svg"><defs
     id="defs1" /><g
     id="g1"
     transform="matrix(0.26458333,0,0,0.26458334,25.72778,-61.784767)"><g
       id="g17"><path
         style="color:#000000;fill:#ffffff;stroke:#ffffff;stroke-width:0.569769;stroke-linecap:round;stroke-linejoin:round;stroke-dasharray:none;stroke-opacity:1"
         d="m -96.60238,247.91374 a 0.04286107,0.04286107 0 0 1 -0.03126,-0.0525 c 0.232759,-0.96543 0.56954,-1.89537 1.00009,-2.77481 0.884601,-1.80646 2.163514,-3.39737 3.745879,-4.64663 1.582365,-1.24984 3.467824,-2.1572 5.555197,-2.59176 a 0.04286107,0.04286107 0 0 1 0.05023,0.0324 0.04286107,0.04286107 0 0 1 -0.03236,0.0513 c -2.074143,0.4318 -3.948385,1.3332 -5.520592,2.57501 -1.572207,1.24125 -2.842335,2.8226 -3.721322,4.61762 -0.427817,0.87385 -0.763229,1.79763 -0.994513,2.75695 a 0.04286107,0.04286107 0 0 1 -0.05134,0.0324 z"
         id="path722" /><path
         style="color:#000000;fill:#ffffff;stroke:#ffffff;stroke-width:0.569769;stroke-linecap:round;stroke-linejoin:round;stroke-dasharray:none;stroke-opacity:1"
         d="m -96.912679,249.82797 a 0.04286107,0.04286107 0 0 1 -0.03907,-0.0469 c 0.01779,-0.19377 0.03902,-0.37929 0.06251,-0.55585 0.02406,-0.17646 0.05002,-0.34442 0.07813,-0.50451 0.0275,-0.15999 0.05725,-0.31211 0.08706,-0.4554 0.0298,-0.14272 0.06002,-0.27736 0.09041,-0.40406 a 0.04286107,0.04286107 0 0 1 0.05134,-0.0312 0.04286107,0.04286107 0 0 1 0.03126,0.0513 c -0.03019,0.1259 -0.05966,0.25994 -0.08929,0.40183 -0.02962,0.14244 -0.05861,0.29315 -0.08595,0.45204 -0.0279,0.15879 -0.05419,0.32559 -0.07813,0.50116 -0.02335,0.17548 -0.04375,0.35997 -0.06139,0.55251 a 0.04286107,0.04286107 0 0 1 -0.04688,0.0391 z"
         id="path723" /><path
         style="color:#000000;fill:#ffffff;stroke:#ffffff;stroke-width:0.569769;stroke-linecap:round;stroke-linejoin:round;stroke-dasharray:none;stroke-opacity:1"
         d="m -86.314608,237.93179 a 0.04286107,0.04286107 0 0 1 -0.05134,-0.0335 0.04286107,0.04286107 0 0 1 0.03351,-0.0502 l 16.216886,-3.37642 a 0.04286107,0.04286107 0 0 1 0.05134,0.0324 0.04286107,0.04286107 0 0 1 -0.03351,0.0513 z"
         id="path724" /><path
         style="color:#000000;fill:#ffffff;stroke:#ffffff;stroke-width:0.569769;stroke-linecap:round;stroke-linejoin:round;stroke-dasharray:none;stroke-opacity:1"
         d="m -70.097721,234.55537 a 0.04286107,0.04286107 0 0 1 -0.05023,-0.0335 0.04286107,0.04286107 0 0 1 0.03236,-0.0502 l 1.754627,-0.36611 a 0.04286107,0.04286107 0 0 1 0.05134,0.0335 0.04286107,0.04286107 0 0 1 -0.03351,0.0513 z"
         id="path725" /><path
         style="color:#000000;fill:#ffffff;stroke:#ffffff;stroke-width:0.569769;stroke-linecap:round;stroke-linejoin:round;stroke-dasharray:none;stroke-opacity:1"
         d="m -88.825997,258.61784 a 0.04286107,0.04286107 0 0 1 -0.04353,-0.0424 0.04286107,0.04286107 0 0 1 0.04353,-0.0424 h 0.0056 a 0.04286107,0.04286107 0 0 1 0.04242,0.0424 0.04286107,0.04286107 0 0 1 -0.04242,0.0424 z"
         id="path829" /><path
         style="color:#000000;fill:#ffffff;stroke:#ffffff;stroke-width:0.569769;stroke-linecap:round;stroke-linejoin:round;stroke-dasharray:none;stroke-opacity:1"
         d="m -67.081822,323.77671 -19.860076,-7.22834 a 0.04286107,0.04286107 0 0 1 -0.02565,-0.0558 0.04286107,0.04286107 0 0 1 0.05469,-0.0257 l 19.860076,7.22946 a 0.04286107,0.04286107 0 0 1 0.02565,0.0547 0.04286107,0.04286107 0 0 1 -0.05469,0.0257 z"
         id="path856" /><path
         style="color:#000000;fill:#ffffff;stroke:#ffffff;stroke-width:0.569769;stroke-linecap:round;stroke-linejoin:round;stroke-dasharray:none;stroke-opacity:1"
         d="m -86.941898,316.54837 c -0.656699,-0.2389 -1.315425,-0.48099 -1.962236,-0.76458 -0.646797,-0.28358 -1.281795,-0.60915 -1.88745,-0.99228 -0.606233,-0.38312 -1.182076,-0.82409 -1.711091,-1.32155 -0.528445,-0.49746 -1.009263,-1.05011 -1.427588,-1.64747 -0.418331,-0.59737 -0.774602,-1.23972 -1.061482,-1.90642 -0.286315,-0.66674 -0.503177,-1.35908 -0.656306,-2.05934 -0.152561,-0.70028 -0.241601,-1.40825 -0.286858,-2.11292 -0.04468,-0.70462 -0.04688,-1.40609 -0.04688,-2.1051 a 0.04286107,0.04286107 0 0 1 0.04353,-0.0424 0.04286107,0.04286107 0 0 1 0.04242,0.0424 c 0,0.69882 0.0022,1.3983 0.04688,2.09952 0.04503,0.70118 0.133154,1.40536 0.284624,2.10064 0.152039,0.69529 0.367824,1.38233 0.651843,2.04371 0.284602,0.66141 0.637664,1.29835 1.052551,1.8908 0.414896,0.59246 0.891087,1.14171 1.415312,1.6352 0.524795,0.49348 1.096939,0.93001 1.698815,1.31038 0.60131,0.38038 1.232684,0.70452 1.876286,0.9867 0.643597,0.28218 1.300089,0.52238 1.956656,0.76123 a 0.04286107,0.04286107 0 0 1 0.02569,0.0558 0.04286107,0.04286107 0 0 1 -0.05469,0.0257 z"
         id="path857" /><path
         style="color:#000000;fill:#ffffff;stroke:#ffffff;stroke-width:0.569769;stroke-linecap:round;stroke-linejoin:round;stroke-dasharray:none;stroke-opacity:1"
         d="m -66.427745,323.93967 c -0.216861,-0.0113 -0.438976,-0.0849 -0.654077,-0.16296 a 0.04286107,0.04286107 0 0 1 -0.02565,-0.0547 0.04286107,0.04286107 0 0 1 0.05469,-0.0256 c 0.213154,0.0773 0.428378,0.14677 0.628407,0.15738 0.200382,0.01 0.390868,-0.0383 0.539111,-0.14176 0.148309,-0.10408 0.258278,-0.265 0.316995,-0.45651 0.05875,-0.19217 0.06696,-0.41806 0.06696,-0.64515 a 0.04286107,0.04286107 0 0 1 0.04242,-0.0435 0.04286107,0.04286107 0 0 1 0.04353,0.0435 c 0,0.22896 -0.0068,0.46184 -0.07032,0.66971 -0.06358,0.20738 -0.184477,0.38577 -0.350475,0.50227 -0.166073,0.11595 -0.374777,0.16808 -0.591577,0.15738 z"
         id="path890" /><path
         style="color:#000000;fill:#ffffff;stroke:#ffffff;stroke-width:0.569769;stroke-linecap:round;stroke-linejoin:round;stroke-dasharray:none;stroke-opacity:1"
         d="m -85.650487,259.63914 c -3.038864,0 -5.502736,-2.46388 -5.502736,-5.50274 0,-3.03886 2.463876,-5.50273 5.502736,-5.50273 a 0.04286107,0.04286107 0 0 1 0.04242,0.0424 0.04286107,0.04286107 0 0 1 -0.04242,0.0435 c -2.992543,0 -5.41679,2.42425 -5.41679,5.41679 0,2.99254 2.424256,5.41791 5.41679,5.41791 a 0.04286107,0.04286107 0 0 1 0.04242,0.0424 0.04286107,0.04286107 0 0 1 -0.04242,0.0424 z"
         id="path921" /><path
         style="color:#000000;fill:#ffffff;stroke:#ffffff;stroke-width:0.569769;stroke-linecap:round;stroke-linejoin:round;stroke-dasharray:none;stroke-opacity:1"
         d="m -85.650487,259.63914 a 0.04286107,0.04286107 0 0 1 -0.04353,-0.0424 0.04286107,0.04286107 0 0 1 0.04353,-0.0424 c 2.992538,0 5.417907,-2.42537 5.417907,-5.41791 0,-2.99254 -2.425365,-5.41679 -5.417907,-5.41679 a 0.04286107,0.04286107 0 0 1 -0.04353,-0.0435 0.04286107,0.04286107 0 0 1 0.04353,-0.0424 c 3.038863,0 5.502735,2.46387 5.502735,5.50273 0,3.03887 -2.463867,5.50274 -5.502735,5.50274 z"
         id="path922" /><path
         style="color:#000000;fill:#ffffff;stroke:#ffffff;stroke-width:0.569769;stroke-linecap:round;stroke-linejoin:round;stroke-dasharray:none;stroke-opacity:1"
         d="m -95.93826,251.06582 a 0.04286107,0.04286107 0 0 1 -0.04353,-0.0435 c 0,-5.84215 4.07143,-10.96372 9.858044,-12.16852 a 0.04286107,0.04286107 0 0 1 0.05134,0.0324 0.04286107,0.04286107 0 0 1 -0.03346,0.0513 c -5.747007,1.19662 -9.78996,6.28254 -9.78996,12.08487 a 0.04286107,0.04286107 0 0 1 -0.04242,0.0435 z"
         id="path968" /><path
         style="color:#000000;fill:#ffffff;stroke:#ffffff;stroke-width:0.569769;stroke-linecap:round;stroke-linejoin:round;stroke-dasharray:none;stroke-opacity:1"
         d="m -95.93826,303.68224 a 0.04286107,0.04286107 0 0 1 -0.04353,-0.0435 v -52.61643 a 0.04286107,0.04286107 0 0 1 0.04353,-0.0424 0.04286107,0.04286107 0 0 1 0.04242,0.0424 v 52.61643 a 0.04286107,0.04286107 0 0 1 -0.04242,0.0435 z"
         id="path969" /><path
         style="color:#000000;fill:#ffffff;stroke:#ffffff;stroke-width:0.569769;stroke-linecap:round;stroke-linejoin:round;stroke-dasharray:none;stroke-opacity:1"
         d="m -86.105886,238.93747 a 0.04286107,0.04286107 0 0 1 -0.05022,-0.0335 0.04286107,0.04286107 0 0 1 0.03236,-0.0502 l 19.213813,-4.00037 a 0.04286107,0.04286107 0 0 1 0.05023,0.0335 0.04286107,0.04286107 0 0 1 -0.03351,0.0502 z"
         id="path970" /><path
         style="color:#000000;fill:#ffffff;stroke:#ffffff;stroke-width:0.569769;stroke-linecap:round;stroke-linejoin:round;stroke-dasharray:none;stroke-opacity:1"
         d="m -65.458906,236.11132 a 0.04286107,0.04286107 0 0 1 -0.04242,-0.0424 c 0,-0.19502 -0.0076,-0.39 -0.06027,-0.56256 -0.05258,-0.1719 -0.150826,-0.32584 -0.284625,-0.43419 a 0.04286536,0.04286536 0 0 1 -0.0013,0 c -0.133265,-0.10888 -0.303196,-0.17444 -0.48219,-0.19086 -0.179586,-0.0164 -0.372565,0.016 -0.563669,0.0558 a 0.04286107,0.04286107 0 0 1 -0.05023,-0.0324 0.04286107,0.04286107 0 0 1 0.03351,-0.0513 c 0.192935,-0.0402 0.392916,-0.0759 0.588226,-0.0581 0.19475,0.0179 0.38116,0.0901 0.529068,0.21096 0.148132,0.12022 0.256565,0.28881 0.313645,0.4755 0.05715,0.18748 0.06362,0.39008 0.06362,0.5871 a 0.04286107,0.04286107 0 0 1 -0.04357,0.0424 z"
         id="path971" /><path
         style="color:#000000;fill:#ffffff;stroke:#ffffff;stroke-width:0.569769;stroke-linecap:round;stroke-linejoin:round;stroke-dasharray:none;stroke-opacity:1"
         d="m -65.458906,322.65272 a 0.04286107,0.04286107 0 0 1 -0.04242,-0.0424 v -86.5414 a 0.04286107,0.04286107 0 0 1 0.04242,-0.0435 0.04286107,0.04286107 0 0 1 0.04353,0.0435 v 86.54141 a 0.04286107,0.04286107 0 0 1 -0.04353,0.0424 z"
         id="path972" /><path
         style="color:#000000;fill:#ffffff;stroke:#ffffff;stroke-width:0.569769;stroke-linecap:round;stroke-linejoin:round;stroke-dasharray:none;stroke-opacity:1"
         d="m -96.754181,250.26887 c -0.144787,-0.13589 -0.216835,-0.28057 -0.197562,-0.48777 a 0.04286107,0.04286107 0 0 1 0.04688,-0.0391 0.04286107,0.04286107 0 0 1 0.03907,0.0469 c -0.0173,0.18597 0.03558,0.2916 0.169658,0.41745 a 0.04286107,0.04286107 0 0 1 0.0022,0.0614 0.04286107,0.04286107 0 0 1 -0.06028,0.001 z"
         id="path999" /><path
         style="color:#000000;fill:#ffffff;stroke:#ffffff;stroke-width:0.569769;stroke-linecap:round;stroke-linejoin:round;stroke-dasharray:none;stroke-opacity:1"
         d="m -96.000765,251.2031 a 0.04286107,0.04286107 0 0 1 -0.0279,-0.0156 c -0.115995,-0.14457 -0.235858,-0.29253 -0.357177,-0.44647 -0.121813,-0.15384 -0.246964,-0.31306 -0.373916,-0.47661 a 0.04286107,0.04286107 0 0 1 0.0078,-0.0603 0.04286107,0.04286107 0 0 1 0.06027,0.008 c 0.126785,0.16333 0.251163,0.32187 0.3728,0.47549 0.120987,0.15352 0.24115,0.30186 0.357176,0.44647 a 0.04286107,0.04286107 0 0 1 -0.0067,0.0603 0.04286107,0.04286107 0 0 1 -0.03236,0.009 z"
         id="path1016" /><path
         style="color:#000000;fill:#ffffff;stroke:#ffffff;stroke-width:0.569769;stroke-linecap:round;stroke-linejoin:round;stroke-dasharray:none;stroke-opacity:1"
         d="m -66.980249,234.94268 -0.902979,-0.61166 a 0.04286107,0.04286107 0 0 1 -0.01112,-0.0592 0.04286107,0.04286107 0 0 1 0.05916,-0.0111 l 0.902988,0.61054 a 0.04286107,0.04286107 0 0 1 0.01112,0.0603 0.04286107,0.04286107 0 0 1 -0.05916,0.0111 z"
         id="path1043" /><path
         style="color:#000000;fill:#ffffff;stroke:#ffffff;stroke-width:0.569769;stroke-linecap:round;stroke-linejoin:round;stroke-dasharray:none;stroke-opacity:1"
         d="m -67.857558,234.33883 a 0.04286107,0.04286107 0 0 1 -0.03126,-0.0111 c -0.144812,-0.1327 -0.259183,-0.17793 -0.454281,-0.13729 a 0.04286107,0.04286107 0 0 1 -0.05023,-0.0335 0.04286107,0.04286107 0 0 1 0.03236,-0.0514 c 0.216363,-0.0451 0.374393,0.0158 0.53018,0.1585 a 0.04286107,0.04286107 0 0 1 0.0035,0.0614 0.04286107,0.04286107 0 0 1 -0.03011,0.0134 z"
         id="path1044" /><path
         style="color:#000000;fill:#ffffff;stroke:#ffffff;stroke-width:0.569769;stroke-linecap:round;stroke-linejoin:round;stroke-dasharray:none;stroke-opacity:1"
         d="m -96.60238,247.91374 a 0.04286107,0.04286107 0 0 1 -0.03126,-0.0525 c 0.232759,-0.96543 0.56954,-1.89537 1.00009,-2.77481 0.884601,-1.80646 2.163514,-3.39737 3.745879,-4.64663 1.582365,-1.24984 3.467824,-2.1572 5.555197,-2.59176 a 0.04286107,0.04286107 0 0 1 0.05023,0.0324 0.04286107,0.04286107 0 0 1 -0.03236,0.0513 c -2.074143,0.4318 -3.948385,1.3332 -5.520592,2.57501 -1.572207,1.24125 -2.842335,2.8226 -3.721322,4.61762 -0.427817,0.87385 -0.763229,1.79763 -0.994513,2.75695 a 0.04286107,0.04286107 0 0 1 -0.05134,0.0324 z"
         id="path1061" /><path
         style="color:#000000;fill:#ffffff;stroke:#ffffff;stroke-width:0.569769;stroke-linecap:round;stroke-linejoin:round;stroke-dasharray:none;stroke-opacity:1"
         d="m -96.912679,249.82797 a 0.04286107,0.04286107 0 0 1 -0.03907,-0.0469 c 0.01779,-0.19377 0.03902,-0.37929 0.06251,-0.55585 0.02406,-0.17646 0.05002,-0.34442 0.07813,-0.50451 0.0275,-0.15999 0.05725,-0.31211 0.08706,-0.4554 0.0298,-0.14272 0.06002,-0.27736 0.09041,-0.40406 a 0.04286107,0.04286107 0 0 1 0.05134,-0.0312 0.04286107,0.04286107 0 0 1 0.03126,0.0513 c -0.03019,0.1259 -0.05966,0.25994 -0.08929,0.40183 -0.02962,0.14244 -0.05861,0.29315 -0.08595,0.45204 -0.0279,0.15879 -0.05419,0.32559 -0.07813,0.50116 -0.02335,0.17548 -0.04375,0.35997 -0.06139,0.55251 a 0.04286107,0.04286107 0 0 1 -0.04688,0.0391 z"
         id="path1062" /><path
         style="color:#000000;fill:#ffffff;stroke:#ffffff;stroke-width:0.569769;stroke-linecap:round;stroke-linejoin:round;stroke-dasharray:none;stroke-opacity:1"
         d="m -86.314608,237.93179 a 0.04286107,0.04286107 0 0 1 -0.05134,-0.0335 0.04286107,0.04286107 0 0 1 0.03351,-0.0502 l 16.216886,-3.37642 a 0.04286107,0.04286107 0 0 1 0.05134,0.0324 0.04286107,0.04286107 0 0 1 -0.03351,0.0513 z"
         id="path1063" /><path
         style="color:#000000;fill:#ffffff;stroke:#ffffff;stroke-width:0.569769;stroke-linecap:round;stroke-linejoin:round;stroke-dasharray:none;stroke-opacity:1"
         d="m -70.097721,234.55537 a 0.04286107,0.04286107 0 0 1 -0.05023,-0.0335 0.04286107,0.04286107 0 0 1 0.03236,-0.0502 l 1.754627,-0.36611 a 0.04286107,0.04286107 0 0 1 0.05134,0.0335 0.04286107,0.04286107 0 0 1 -0.03351,0.0513 z"
         id="path1064" /><path
         style="color:#000000;fill:#ffffff;stroke:#ffffff;stroke-width:0.569769;stroke-linecap:round;stroke-linejoin:round;stroke-dasharray:none;stroke-opacity:1"
         d="m -67.081822,323.77671 -19.860076,-7.22834 a 0.04286107,0.04286107 0 0 1 -0.02565,-0.0558 0.04286107,0.04286107 0 0 1 0.05469,-0.0257 l 19.860076,7.22946 a 0.04286107,0.04286107 0 0 1 0.02565,0.0547 0.04286107,0.04286107 0 0 1 -0.05469,0.0257 z"
         id="path1096" /><path
         style="color:#000000;fill:#ffffff;stroke:#ffffff;stroke-width:0.569769;stroke-linecap:round;stroke-linejoin:round;stroke-dasharray:none;stroke-opacity:1"
         d="m -86.941898,316.54837 c -0.656699,-0.2389 -1.315425,-0.48099 -1.962236,-0.76458 -0.646797,-0.28358 -1.281795,-0.60915 -1.88745,-0.99228 -0.606233,-0.38312 -1.182076,-0.82409 -1.711091,-1.32155 -0.528445,-0.49746 -1.009263,-1.05011 -1.427588,-1.64747 -0.418331,-0.59737 -0.774602,-1.23972 -1.061482,-1.90642 -0.286315,-0.66674 -0.503177,-1.35908 -0.656306,-2.05934 -0.152561,-0.70028 -0.241601,-1.40825 -0.286858,-2.11292 -0.04468,-0.70462 -0.04688,-1.40609 -0.04688,-2.1051 a 0.04286107,0.04286107 0 0 1 0.04353,-0.0424 0.04286107,0.04286107 0 0 1 0.04242,0.0424 c 0,0.69882 0.0022,1.3983 0.04688,2.09952 0.04503,0.70118 0.133154,1.40536 0.284624,2.10064 0.152039,0.69529 0.367824,1.38233 0.651843,2.04371 0.284602,0.66141 0.637664,1.29835 1.052551,1.8908 0.414896,0.59246 0.891087,1.14171 1.415312,1.6352 0.524795,0.49348 1.096939,0.93001 1.698815,1.31038 0.60131,0.38038 1.232684,0.70452 1.876286,0.9867 0.643597,0.28218 1.300089,0.52238 1.956656,0.76123 a 0.04286107,0.04286107 0 0 1 0.02569,0.0558 0.04286107,0.04286107 0 0 1 -0.05469,0.0257 z"
         id="path1097" /><path
         style="color:#000000;fill:#ffffff;stroke:#ffffff;stroke-width:0.569769;stroke-linecap:round;stroke-linejoin:round;stroke-dasharray:none;stroke-opacity:1"
         d="m -86.105886,238.93747 a 0.04286107,0.04286107 0 0 1 -0.05022,-0.0335 0.04286107,0.04286107 0 0 1 0.03236,-0.0502 l 19.213813,-4.00037 a 0.04286107,0.04286107 0 0 1 0.05023,0.0335 0.04286107,0.04286107 0 0 1 -0.03351,0.0502 z"
         id="path1107" /><path
         style="color:#000000;fill:#ffffff;stroke:#ffffff;stroke-width:0.569769;stroke-linecap:round;stroke-linejoin:round;stroke-dasharray:none;stroke-opacity:1"
         d="m -65.458906,236.11132 a 0.04286107,0.04286107 0 0 1 -0.04242,-0.0424 c 0,-0.19502 -0.0076,-0.39 -0.06027,-0.56256 -0.05258,-0.1719 -0.150826,-0.32584 -0.284625,-0.43419 a 0.04286536,0.04286536 0 0 1 -0.0013,0 c -0.133265,-0.10888 -0.303196,-0.17444 -0.48219,-0.19086 -0.179586,-0.0164 -0.372565,0.016 -0.563669,0.0558 a 0.04286107,0.04286107 0 0 1 -0.05023,-0.0324 0.04286107,0.04286107 0 0 1 0.03351,-0.0513 c 0.192935,-0.0402 0.392916,-0.0759 0.588226,-0.0581 0.19475,0.0179 0.38116,0.0901 0.529068,0.21096 0.148132,0.12022 0.256565,0.28881 0.313645,0.4755 0.05715,0.18748 0.06362,0.39008 0.06362,0.5871 a 0.04286107,0.04286107 0 0 1 -0.04357,0.0424 z"
         id="path1108" /><path
         style="fill:#ffffff;stroke:#8a9199;stroke-width:0.110536"
         d="m -77.199773,319.63597 c -5.796776,-2.11246 -10.895716,-3.99115 -11.330977,-4.17486 -3.856067,-1.62757 -6.185029,-4.50323 -6.81863,-8.41925 -0.149411,-0.92344 -0.169688,-4.40167 -0.170079,-29.17347 -4.42e-4,-28.00086 5.64e-4,-28.12998 0.227818,-29.24513 0.456967,-2.24238 1.472506,-4.16537 3.097273,-5.86491 1.432754,-1.49869 2.939223,-2.47637 4.753716,-3.08511 0.63363,-0.21257 20.707318,-4.47719 21.074282,-4.47719 0.05085,0 0.191783,0.0993 0.313182,0.22073 0.219982,0.21998 0.220724,0.36787 0.220724,43.93142 0,29.91984 -0.03604,43.77805 -0.114245,43.92417 -0.07113,0.13291 -0.227315,0.21176 -0.413858,0.20895 -0.164787,-0.002 -5.04243,-1.7329 -10.839206,-3.84535 z m 4.656164,-16.87064 c 0.266697,-0.31119 0.861947,-1.41889 0.861947,-1.60399 0,-0.0935 -0.202945,-0.52201 -0.450989,-0.95224 l -0.450989,-0.78223 h -3.392007 -3.392007 l -0.461131,0.80595 c -0.253622,0.44328 -0.461131,0.86899 -0.461131,0.94602 0,0.14397 0.430106,0.93772 0.799862,1.47612 l 0.208429,0.3035 h 3.286247 c 2.993128,0 3.30101,-0.0172 3.451769,-0.19313 z m 0,-9.9326 c 0.266697,-0.31119 0.861947,-1.41889 0.861947,-1.60399 0,-0.0935 -0.202945,-0.52201 -0.450989,-0.95224 l -0.450989,-0.78223 h -3.389731 -3.38973 l -0.463408,0.81449 c -0.254874,0.44796 -0.463407,0.87367 -0.463407,0.94601 0,0.1368 0.438626,0.94159 0.799862,1.46759 l 0.208429,0.3035 h 3.286247 c 2.993128,0 3.30101,-0.0172 3.451769,-0.19313 z m -0.606506,-13.20609 0.30965,-0.26611 0.05518,-2.35499 0.05518,-2.35499 2.354988,-0.0552 2.354987,-0.0552 0.266116,-0.30965 c 0.264549,-0.30783 0.266115,-0.32458 0.266115,-2.84685 v -2.53719 l -0.27089,-0.27089 c -0.269517,-0.26952 -0.282036,-0.27089 -2.474123,-0.27089 -1.211779,0 -2.281791,-0.0301 -2.377804,-0.067 -0.15111,-0.058 -0.17457,-0.36276 -0.17457,-2.2679 0,-2.32845 -0.0693,-2.70426 -0.545698,-2.95922 -0.126842,-0.0679 -1.172764,-0.11364 -2.597851,-0.11364 -2.734679,0 -2.948498,0.0507 -3.141344,0.74512 -0.06319,0.22753 -0.115163,1.33955 -0.115501,2.47117 -5.29e-4,1.77398 -0.02467,2.06671 -0.175185,2.12447 -0.09601,0.0369 -1.156996,0.067 -2.357738,0.067 h -2.183169 l -0.290956,0.29096 -0.290954,0.29095 v 2.47536 c 0,1.47616 0.04557,2.5605 0.112891,2.68629 0.231631,0.43281 0.532068,0.49014 2.866889,0.54709 l 2.262426,0.0552 0.05518,2.26243 c 0.0563,2.30839 0.113801,2.62143 0.525573,2.86133 0.113623,0.0662 1.212499,0.1131 2.696368,0.11509 2.490053,0.004 2.506383,0.002 2.814237,-0.26276 z m -9.931442,-17.6409 c 2.570915,-0.89708 4.439232,-2.77483 5.297466,-5.32423 0.269208,-0.79969 0.297588,-1.03893 0.301119,-2.53833 0.0037,-1.57822 -0.01216,-1.70054 -0.340362,-2.62234 -0.477504,-1.34116 -0.943259,-2.07957 -1.969952,-3.12318 -1.000524,-1.017 -1.997907,-1.65212 -3.310866,-2.10831 -0.814957,-0.28315 -1.010287,-0.30659 -2.538332,-0.30452 -1.480971,0.002 -1.744603,0.0321 -2.501542,0.28574 -1.380623,0.46261 -2.250061,1.01297 -3.357764,2.12549 -1.157741,1.16278 -1.761576,2.2299 -2.156871,3.81169 -0.308269,1.23356 -0.249933,3.31176 0.124032,4.41858 0.929447,2.75086 3.059581,4.7915 5.765411,5.52317 1.188781,0.32146 3.563079,0.24864 4.687661,-0.14376 z m 11.798871,-14.33449 c 1.058778,-0.26555 1.019809,-0.22021 1.341929,-1.56118 l 0.179967,-0.74919 -2.311387,-2.31336 c -1.271264,-1.27235 -2.399371,-2.31336 -2.506905,-2.31336 -0.267727,0 -1.759366,0.41888 -1.863903,0.52342 -0.04647,0.0465 -0.194942,0.49715 -0.329931,1.00151 l -0.245437,0.91701 2.363887,2.3658 c 1.300138,1.3012 2.378534,2.36581 2.396434,2.36581 0.0179,0 0.456807,-0.10641 0.975346,-0.23646 z"
         id="path1" /></g><g
       id="g16"
       transform="translate(22)"><path
         id="path608"
         style="color:#000000;fill:#ffffff;stroke:#ffffff;stroke-width:0.333694;stroke-linecap:round;stroke-linejoin:round;stroke-dasharray:none;stroke-opacity:1"
         d="m -43.084558,246.56767 c -0.07653,0.0187 -0.02079,0.10119 0.01143,0.13324 0.336578,0.50543 0.673978,1.00962 1.010675,1.51505 0.0018,0.38963 -0.0035,0.77988 0.0026,1.16911 0.03704,0.054 0.113412,0.0191 0.169017,0.029 0.08621,-0.003 0.174148,0.006 0.259259,-0.004 0.05214,-0.0361 0.01527,-0.10972 0.02622,-0.16186 0,-0.34434 0,-0.68869 0,-1.03303 0.362151,-0.53033 0.737352,-1.06062 1.097857,-1.5952 -0.0026,-0.0818 -0.105197,-0.0416 -0.158498,-0.0512 -0.110596,0.005 -0.224989,-0.009 -0.333016,0.008 -0.219131,0.31578 -0.421177,0.63835 -0.633152,0.95783 -0.06525,0.0711 -0.135269,0.27436 -0.192768,0.26614 -0.205666,-0.36415 -0.451421,-0.70697 -0.675677,-1.06211 -0.05486,-0.0584 -0.07565,-0.19065 -0.178465,-0.16876 -0.135052,-8.8e-4 -0.271009,0.002 -0.405523,-0.002 z m 0.08277,0.0854 c 0.113236,0 0.226477,0 0.339713,0 0.252636,0.39157 0.515855,0.77771 0.755857,1.17794 0.01602,0.11182 0.130267,0.16402 0.173856,0.0226 0.245936,-0.40899 0.518319,-0.80003 0.777749,-1.20191 0.106336,0 0.212677,0 0.319013,0 -0.35085,0.51338 -0.707792,1.02121 -1.055482,1.53594 -0.0092,0.23527 -0.0013,0.47311 -0.004,0.70938 0,0.14349 0,0.287 0,0.43049 -0.09369,0 -0.187386,0 -0.281079,0 0,-0.37565 0,-0.75131 0,-1.12695 -0.111223,-0.1932 -0.246956,-0.37214 -0.366738,-0.56199 -0.220738,-0.32772 -0.439723,-0.66076 -0.658916,-0.98544 z" /><path
         style="color:#000000;fill:#ffffff;stroke:#ffffff;stroke-width:0.333694;stroke-linecap:round;stroke-linejoin:round;stroke-dasharray:none;stroke-opacity:1"
         d="m -35.663709,253.81895 c -0.126188,-0.10001 0.111638,-0.0893 0.180495,-0.092 0.06651,-0.004 0.295211,-0.0695 0.203464,0.0528 -0.12372,0.037 -0.257205,0.0386 -0.383959,0.0393 z"
         id="path623" /><path
         style="color:#000000;fill:#ffffff;stroke:#ffffff;stroke-width:0.333694;stroke-linecap:round;stroke-linejoin:round;stroke-dasharray:none;stroke-opacity:1"
         d="m -36.261974,253.81895 c -0.07287,-0.0262 -0.03346,-0.11917 -0.04353,-0.18002 0,-0.23207 0,-0.46413 0,-0.69619 0.07858,-0.11308 0.09793,0.0561 0.08595,0.12141 0,0.23746 0,0.47492 0,0.71238 l -0.01254,0.0299 z"
         id="path624" /><path
         style="color:#000000;fill:#ffffff;stroke:#ffffff;stroke-width:0.333694;stroke-linecap:round;stroke-linejoin:round;stroke-dasharray:none;stroke-opacity:1"
         d="m -36.261974,253.81895 c -0.115372,-0.0771 0.05559,-0.0985 0.121412,-0.0859 0.164307,0.002 0.329564,-0.005 0.493275,0.004 0.07914,0.0835 -0.07095,0.0908 -0.129742,0.0825 -0.161649,0 -0.323295,0 -0.484945,0 z"
         id="path625" /><path
         style="color:#000000;fill:#ffffff;stroke:#ffffff;stroke-width:0.333694;stroke-linecap:round;stroke-linejoin:round;stroke-dasharray:none;stroke-opacity:1"
         d="m -36.625847,253.97856 c -0.08905,-0.0864 -0.01982,-0.25843 -0.0411,-0.38091 -8.82e-4,-0.32732 0.0018,-0.65463 0.0013,-0.98195 0.07811,-0.11311 0.09814,0.0561 0.08595,0.12141 1.99e-4,0.39968 -0.0035,0.79935 -0.0026,1.19903 l -0.01293,0.0303 z"
         id="path626" /><path
         style="color:#000000;fill:#ffffff;stroke:#ffffff;stroke-width:0.333694;stroke-linecap:round;stroke-linejoin:round;stroke-dasharray:none;stroke-opacity:1"
         d="m -36.626959,255.42066 c -0.08578,-0.0704 -0.02375,-0.22249 -0.04242,-0.32845 -6.7e-5,-0.38535 0.0018,-0.7707 0.0013,-1.15606 0.07169,-0.11607 0.10065,0.0413 0.08595,0.10522 -0.0018,0.44562 -4.41e-4,0.89125 -0.0026,1.33687 0.04443,0.0232 -0.0642,0.0425 -0.0422,0.0424 z"
         id="path627" /><path
         style="color:#000000;fill:#ffffff;stroke:#ffffff;stroke-width:0.333694;stroke-linecap:round;stroke-linejoin:round;stroke-dasharray:none;stroke-opacity:1"
         d="m -34.799789,255.16729 c -0.0076,-0.11456 0.143445,-0.2 0.165071,-0.3248 0.06754,-0.0852 -0.0076,-0.30701 0.120388,-0.29219 0.03249,0.11672 -0.0136,0.24817 -0.05554,0.3599 -0.05162,0.0852 -0.117594,0.27306 -0.229916,0.25709 z"
         id="path628" /><path
         style="color:#000000;fill:#ffffff;stroke:#ffffff;stroke-width:0.333694;stroke-linecap:round;stroke-linejoin:round;stroke-dasharray:none;stroke-opacity:1"
         d="m -35.575529,255.42066 c -0.122789,-0.0969 0.103334,-0.0892 0.171794,-0.091 0.214359,-0.0172 0.445629,-0.0622 0.601717,-0.22268 0.17198,-0.0102 -0.03254,0.16111 -0.10537,0.18499 -0.204099,0.10754 -0.4414,0.12745 -0.668141,0.12872 z"
         id="path629" /><path
         style="color:#000000;fill:#ffffff;stroke:#ffffff;stroke-width:0.333694;stroke-linecap:round;stroke-linejoin:round;stroke-dasharray:none;stroke-opacity:1"
         d="m -36.626959,255.42066 c -0.112702,-0.0779 0.05667,-0.0966 0.121412,-0.0848 0.310007,0 0.62001,0 0.930018,0 0.112702,0.0778 -0.05667,0.0966 -0.121412,0.0848 -0.310007,0 -0.620011,0 -0.930018,0 z"
         id="path630" /><path
         style="color:#000000;fill:#ffffff;stroke:#ffffff;stroke-width:0.333694;stroke-linecap:round;stroke-linejoin:round;stroke-dasharray:none;stroke-opacity:1"
         d="m -35.021904,253.96405 c -0.161023,0.005 -0.03368,-0.16178 0.04867,-0.0613 0.01889,0.0298 -0.01338,0.0731 -0.04867,0.0613 z"
         id="path631" /><path
         style="color:#000000;fill:#ffffff;stroke:#ffffff;stroke-width:0.333694;stroke-linecap:round;stroke-linejoin:round;stroke-dasharray:none;stroke-opacity:1"
         d="m -35.246257,254.18394 c -0.131366,-0.0627 -0.319715,0.005 -0.419924,-0.0837 0.109713,-0.0924 0.319243,-0.0238 0.459195,0.009 0.03593,0.0267 0.0055,0.0895 -0.03929,0.0748 z"
         id="path632" /><path
         style="color:#000000;fill:#ffffff;stroke:#ffffff;stroke-width:0.333694;stroke-linecap:round;stroke-linejoin:round;stroke-dasharray:none;stroke-opacity:1"
         d="m -36.261974,254.14264 c -0.115372,-0.077 0.05559,-0.0985 0.121412,-0.0859 0.178076,0.002 0.35711,-0.005 0.53459,0.004 0.07912,0.0835 -0.07097,0.0908 -0.129755,0.0825 -0.175414,0 -0.350832,0 -0.526247,0 z"
         id="path633" /><path
         style="color:#000000;fill:#ffffff;stroke:#ffffff;stroke-width:0.333694;stroke-linecap:round;stroke-linejoin:round;stroke-dasharray:none;stroke-opacity:1"
         d="m -36.261974,255.0925 c -0.07279,-0.0267 -0.0335,-0.11993 -0.04353,-0.18117 0,-0.27038 0,-0.54076 0,-0.81115 0.07172,-0.11598 0.100641,0.0413 0.08595,0.10523 -0.0018,0.28659 0.004,0.5739 -0.0031,0.86004 -0.006,0.0159 -0.02238,0.0271 -0.03942,0.0271 z"
         id="path634" /><path
         style="color:#000000;fill:#ffffff;stroke:#ffffff;stroke-width:0.333694;stroke-linecap:round;stroke-linejoin:round;stroke-dasharray:none;stroke-opacity:1"
         d="m -36.261974,255.0925 c -0.115438,-0.0775 0.05562,-0.0983 0.121412,-0.0859 0.188344,0 0.376689,0 0.565033,0 0.11373,0.0719 -0.04181,0.10064 -0.105224,0.0859 -0.193739,0 -0.387482,0 -0.581221,0 z"
         id="path635" /><path
         style="color:#000000;fill:#ffffff;stroke:#ffffff;stroke-width:0.333694;stroke-linecap:round;stroke-linejoin:round;stroke-dasharray:none;stroke-opacity:1"
         d="m -35.575529,255.0925 c -0.115439,-0.0775 0.05562,-0.0983 0.121411,-0.0859 0.05851,0.005 0.121037,-0.0115 0.175953,0.0121 0.04618,0.097 -0.08843,0.0709 -0.143917,0.0738 -0.05115,0 -0.102297,0 -0.153447,0 z"
         id="path636" /><path
         style="color:#000000;fill:#ffffff;stroke:#ffffff;stroke-width:0.333694;stroke-linecap:round;stroke-linejoin:round;stroke-dasharray:none;stroke-opacity:1"
         d="m -35.268581,255.07353 c -0.139454,-0.0684 0.101931,-0.12415 0.16383,-0.15676 0.118106,0.076 -0.113421,0.14106 -0.16383,0.15676 z"
         id="path637" /><path
         style="color:#000000;fill:#ffffff;stroke:#ffffff;stroke-width:0.333694;stroke-linecap:round;stroke-linejoin:round;stroke-dasharray:none;stroke-opacity:1"
         d="m -35.089993,254.9954 c -0.161111,-0.0167 0.05615,-0.13474 0.07588,-0.20982 0.149196,-0.0574 0.03527,0.13129 -0.03037,0.17562 0.004,-0.0162 -0.04821,0.0535 -0.04552,0.0342 z"
         id="path638" /><path
         style="color:#000000;fill:#ffffff;stroke:#ffffff;stroke-width:0.333694;stroke-linecap:round;stroke-linejoin:round;stroke-dasharray:none;stroke-opacity:1"
         d="m -34.99735,254.8436 c -0.03404,-0.0862 0.04852,-0.19736 0.04495,-0.29663 0.143431,-0.0312 0.05717,0.30717 -0.04494,0.29662 z"
         id="path639" /><path
         style="color:#000000;fill:#ffffff;stroke:#ffffff;stroke-width:0.333694;stroke-linecap:round;stroke-linejoin:round;stroke-dasharray:none;stroke-opacity:1"
         d="m -34.921452,254.62036 c -0.07728,-0.0748 -0.04348,-0.23756 -0.130294,-0.32863 0.107502,-0.0945 0.16738,0.15173 0.171357,0.2429 0.0035,0.0322 0.0064,0.0849 -0.04105,0.0857 z"
         id="path640" /><path
         style="color:#000000;fill:#ffffff;stroke:#ffffff;stroke-width:0.333694;stroke-linecap:round;stroke-linejoin:round;stroke-dasharray:none;stroke-opacity:1"
         d="m -34.98284,254.33016 c -0.102685,-0.005 -0.177745,-0.14077 -0.288902,-0.16766 0.04022,-0.13775 0.236233,0.0313 0.295577,0.10851 0.01408,0.0174 0.01082,0.0454 -0.0067,0.0592 z"
         id="path641" /><path
         style="color:#000000;fill:#ffffff;stroke:#ffffff;stroke-width:0.333694;stroke-linecap:round;stroke-linejoin:round;stroke-dasharray:none;stroke-opacity:1"
         d="m -34.856714,252.86463 c -0.145267,-0.0342 -0.291559,-0.19252 -0.473255,-0.18773 -0.08968,-0.0429 -0.306816,0.0392 -0.292888,-0.0916 0.108592,-0.0277 0.226847,-8.9e-4 0.337677,0.0121 0.161249,0.0341 0.352798,0.091 0.441313,0.2372 0.01598,0.0108 -0.02163,0.0227 -0.01285,0.03 z"
         id="path642" /><path
         style="color:#000000;fill:#ffffff;stroke:#ffffff;stroke-width:0.333694;stroke-linecap:round;stroke-linejoin:round;stroke-dasharray:none;stroke-opacity:1"
         d="m -36.623613,252.65813 c -0.112609,-0.0779 0.05669,-0.0966 0.121412,-0.0848 0.303311,0 0.606617,0 0.909928,0 0.112701,0.0778 -0.05667,0.0966 -0.121412,0.0848 -0.303311,0 -0.606617,0 -0.909928,0 z"
         id="path643" /><path
         style="color:#000000;fill:#ffffff;stroke:#ffffff;stroke-width:0.333694;stroke-linecap:round;stroke-linejoin:round;stroke-dasharray:none;stroke-opacity:1"
         d="m -35.278624,253.77877 c -0.154392,-0.0504 0.08066,-0.11351 0.118277,-0.17711 0.07521,-0.10146 0.13119,0.0441 0.04057,0.0807 -0.0446,0.0442 -0.09976,0.0761 -0.158843,0.0965 z"
         id="path644" /><path
         style="color:#000000;fill:#ffffff;stroke:#ffffff;stroke-width:0.333694;stroke-linecap:round;stroke-linejoin:round;stroke-dasharray:none;stroke-opacity:1"
         d="m -35.135753,253.64148 c -0.01558,-0.0924 0.07333,-0.1974 0.06718,-0.30354 0.135816,-0.0147 0.05321,0.20751 0.0031,0.28073 -0.01254,0.0237 -0.0446,0.0443 -0.07026,0.0228 z"
         id="path645" /><path
         style="color:#000000;fill:#ffffff;stroke:#ffffff;stroke-width:0.333694;stroke-linecap:round;stroke-linejoin:round;stroke-dasharray:none;stroke-opacity:1"
         d="m -35.038648,253.41155 c -0.07935,-0.0622 -0.04477,-0.21038 -0.106654,-0.29825 0.115329,-0.0799 0.150132,0.16279 0.150199,0.25474 8.82e-4,0.0234 -0.02018,0.0446 -0.04353,0.0435 z"
         id="path646" /><path
         style="color:#000000;fill:#ffffff;stroke:#ffffff;stroke-width:0.333694;stroke-linecap:round;stroke-linejoin:round;stroke-dasharray:none;stroke-opacity:1"
         d="m -35.081067,253.16041 c -0.09001,-0.0118 -0.146428,-0.13476 -0.247092,-0.15943 0.03055,-0.13668 0.21733,0.0197 0.260468,0.10031 0.01276,0.0191 0.0063,0.0475 -0.01338,0.0591 z"
         id="path647" /><path
         style="color:#000000;fill:#ffffff;stroke:#ffffff;stroke-width:0.333694;stroke-linecap:round;stroke-linejoin:round;stroke-dasharray:none;stroke-opacity:1"
         d="m -35.302061,253.02201 c -0.133026,-0.0355 -0.272784,-0.0341 -0.409845,-0.0362 -0.121544,-0.10599 0.119553,-0.0896 0.191055,-0.0801 0.07905,0.0148 0.319812,-0.011 0.25042,0.11295 l -0.03187,0.004 z"
         id="path648" /><path
         style="color:#000000;fill:#ffffff;stroke:#ffffff;stroke-width:0.333694;stroke-linecap:round;stroke-linejoin:round;stroke-dasharray:none;stroke-opacity:1"
         d="m -36.261974,252.98629 c -0.115452,-0.0775 0.0556,-0.0984 0.121412,-0.086 0.142955,0 0.285909,0 0.428863,0 0.115987,0.0712 -0.04123,0.10092 -0.105223,0.086 -0.148349,0 -0.296703,0 -0.445052,0 z"
         id="path649" /><path
         style="color:#000000;fill:#ffffff;stroke:#ffffff;stroke-width:0.333694;stroke-linecap:round;stroke-linejoin:round;stroke-dasharray:none;stroke-opacity:1"
         d="m -34.545302,254.62371 c -0.08433,-0.0874 -0.03121,-0.26552 -0.119284,-0.37386 -0.06968,-0.13025 -0.195774,-0.22054 -0.330517,-0.27464 -0.08314,-0.13416 0.138575,-0.0511 0.186423,8.8e-4 0.206373,0.12475 0.313487,0.36838 0.307156,0.60497 0.0022,0.0301 -0.0226,0.0365 -0.04379,0.0425 z"
         id="path650" /><path
         style="color:#000000;fill:#ffffff;stroke:#ffffff;stroke-width:0.569769;stroke-linecap:round;stroke-linejoin:round;stroke-dasharray:none;stroke-opacity:1"
         d="m -51.879478,276.73511 a 0.04286107,0.04286107 0 0 1 -0.04353,-0.0424 0.04286107,0.04286107 0 0 1 0.04353,-0.0435 c 3.004537,0 5.439114,-2.43511 5.439114,-5.44023 0,-3.00454 -2.434577,-5.43911 -5.439114,-5.43911 a 0.04286107,0.04286107 0 0 1 -0.04353,-0.0424 0.04286107,0.04286107 0 0 1 0.04353,-0.0435 c 3.050867,0 5.52506,2.47418 5.52506,5.52505 0,3.05144 -2.474193,5.52618 -5.52506,5.52618 z"
         id="path659" /><path
         style="color:#000000;fill:#ffffff;stroke:#ffffff;stroke-width:0.333694;stroke-linecap:round;stroke-linejoin:round;stroke-dasharray:none;stroke-opacity:1"
         d="m -34.679238,253.36355 c -0.0797,-0.12064 -0.06133,-0.33318 -0.194785,-0.45073 -0.103581,-0.0596 -0.01046,-0.18361 0.05548,-0.0689 0.115126,0.13079 0.185034,0.30229 0.183025,0.47744 0.01077,0.007 -0.03108,0.0605 -0.0437,0.0422 z"
         id="path660" /><path
         id="path661"
         style="color:#000000;fill:#ffffff;stroke:#ffffff;stroke-width:0.350378;stroke-linecap:round;stroke-linejoin:round;stroke-dasharray:none;stroke-opacity:1"
         d="m -49.001002,252.57724 c -0.08833,0.0271 8.83e-4,0.11547 0.02936,0.15591 0.288963,0.40192 0.57406,0.80662 0.864992,1.20712 -0.346263,0.47616 -0.703395,0.94553 -1.051491,1.41972 -0.03103,0.0652 0.06275,0.0716 0.10593,0.0642 0.129958,-0.004 0.261823,0.007 0.390651,-0.005 0.118927,-0.14237 0.218897,-0.30395 0.331175,-0.45349 0.156944,-0.22408 0.324677,-0.43917 0.47028,-0.67317 0.260786,0.3735 0.522415,0.74847 0.787037,1.11782 0.05559,0.0284 0.126025,0.005 0.187303,0.0127 0.101193,-8.8e-4 0.202691,0.002 0.303695,-10e-4 0.08396,-0.0372 -0.01024,-0.10586 -0.03178,-0.14733 -0.325387,-0.44758 -0.638944,-0.90392 -0.968609,-1.34852 0.311142,-0.43435 0.638759,-0.85633 0.953428,-1.28753 0.02428,-0.0483 -0.04427,-0.076 -0.08446,-0.0636 -0.125239,0.004 -0.253295,-0.009 -0.376764,0.007 -0.235415,0.30706 -0.472897,0.61235 -0.698654,0.92637 -0.06933,0.16955 -0.135905,-0.0994 -0.209207,-0.16213 -0.18216,-0.2554 -0.358589,-0.51734 -0.546183,-0.76724 -0.0891,-0.0147 -0.184508,-0.001 -0.275897,-0.006 -0.06182,-3.2e-4 -0.123707,4.4e-4 -0.185475,-4.4e-4 z m 0.08794,0.0862 c 0.108928,0 0.217851,0 0.326778,0 0.237385,0.34498 0.498127,0.67756 0.712229,1.03558 0.125173,0.0375 0.143591,-0.18756 0.231991,-0.24534 0.19851,-0.26469 0.399052,-0.52796 0.598163,-0.79234 0.09685,0 0.193708,0 0.290562,0 -0.303647,0.41332 -0.620139,0.81924 -0.916122,1.23859 -0.01316,0.10445 0.12237,0.17357 0.161337,0.26691 0.276029,0.3908 0.556843,0.77821 0.833296,1.16871 -0.114675,0 -0.229346,0 -0.344021,0 -0.272184,-0.38705 -0.549215,-0.76691 -0.811454,-1.15816 -0.146358,0.0109 -0.181082,0.26099 -0.295717,0.35475 -0.192322,0.26711 -0.383412,0.5351 -0.576069,0.80197 -0.110936,0 -0.221872,0 -0.332808,0 0.341341,-0.46245 0.691256,-0.91855 1.02443,-1.38569 -0.03192,-0.1162 -0.146384,-0.20631 -0.205847,-0.3139 -0.232516,-0.32248 -0.462568,-0.65452 -0.696748,-0.97108 z" /><path
         style="color:#000000;fill:#ffffff;stroke:#ffffff;stroke-width:0.569769;stroke-linecap:round;stroke-linejoin:round;stroke-dasharray:none;stroke-opacity:1"
         d="m -51.879478,276.73511 c -3.051432,0 -5.526172,-2.47474 -5.526172,-5.52617 0,-3.05087 2.47474,-5.52506 5.526172,-5.52506 a 0.04286107,0.04286107 0 0 1 0.04242,0.0436 0.04286107,0.04286107 0 0 1 -0.04242,0.0424 c -3.005115,0 -5.440231,2.43457 -5.440231,5.43911 0,3.00512 2.435116,5.44023 5.440231,5.44023 a 0.04286107,0.04286107 0 0 1 0.04242,0.0435 0.04286107,0.04286107 0 0 1 -0.04242,0.0424 z"
         id="path678" /><path
         style="color:#000000;fill:#ffffff;stroke:#ffffff;stroke-width:0.569769;stroke-linecap:round;stroke-linejoin:round;stroke-dasharray:none;stroke-opacity:1"
         d="m -29.790399,282.00792 a 0.04286107,0.04286107 0 0 1 -0.04353,-0.0435 v -0.41968 a 0.04286107,0.04286107 0 0 1 0.04353,-0.0424 0.04286107,0.04286107 0 0 1 0.04242,0.0424 v 0.41968 a 0.04286107,0.04286107 0 0 1 -0.04242,0.0435 z"
         id="path682" /><path
         style="color:#000000;fill:#ffffff;stroke:#ffffff;stroke-width:0.569769;stroke-linecap:round;stroke-linejoin:round;stroke-dasharray:none;stroke-opacity:1"
         d="m -29.790399,281.58824 a 0.04286107,0.04286107 0 0 1 -0.04353,-0.0435 v -12.72326 a 0.04286107,0.04286107 0 0 1 0.04353,-0.0424 0.04286107,0.04286107 0 0 1 0.04242,0.0424 v 12.72326 a 0.04286107,0.04286107 0 0 1 -0.04242,0.0435 z"
         id="path683" /><path
         style="color:#000000;fill:#ffffff;stroke:#ffffff;stroke-width:0.569769;stroke-linecap:round;stroke-linejoin:round;stroke-dasharray:none;stroke-opacity:1"
         d="m -29.790399,268.86497 a 0.04286107,0.04286107 0 0 1 -0.04353,-0.0435 v -0.48442 a 0.04286107,0.04286107 0 0 1 0.04353,-0.0424 0.04286107,0.04286107 0 0 1 0.04242,0.0424 v 0.48442 a 0.04286107,0.04286107 0 0 1 -0.04242,0.0435 z"
         id="path684" /><path
         style="color:#000000;fill:#ffffff;stroke:#ffffff;stroke-width:0.592111;stroke-linecap:round;stroke-linejoin:round;stroke-dasharray:none;stroke-opacity:1"
         d="m -30.750307,282.59545 a 0.04286107,0.04628802 0 0 1 -0.04242,-0.0458 v -15.15812 a 0.04286107,0.04628802 0 0 1 0.04242,-0.047 0.04286107,0.04628802 0 0 1 0.04353,0.047 v 15.15812 a 0.04286107,0.04628802 0 0 1 -0.04353,0.0458 z"
         id="path685" /><path
         style="color:#000000;fill:#ffffff;stroke:#ffffff;stroke-width:0.569769;stroke-linecap:round;stroke-linejoin:round;stroke-dasharray:none;stroke-opacity:1"
         d="m -29.790399,284.08065 a 0.04286107,0.04286107 0 0 1 -0.04353,-0.0424 v -2.07385 a 0.04286107,0.04286107 0 0 1 0.04353,-0.0424 0.04286107,0.04286107 0 0 1 0.04242,0.0424 v 2.07385 a 0.04286107,0.04286107 0 0 1 -0.04242,0.0424 z"
         id="path687" /><path
         style="color:#000000;fill:#ffffff;stroke:#ffffff;stroke-width:0.569769;stroke-linecap:round;stroke-linejoin:round;stroke-dasharray:none;stroke-opacity:1"
         d="m -30.750307,285.1879 a 0.04286107,0.04286107 0 0 1 -0.04242,-0.0424 v -2.6275 a 0.04286107,0.04286107 0 0 1 0.04242,-0.0424 0.04286107,0.04286107 0 0 1 0.04353,0.0424 v 2.62747 a 0.04286107,0.04286107 0 0 1 -0.04353,0.0424 z"
         id="path688" /><path
         style="color:#000000;fill:#ffffff;stroke:#ffffff;stroke-width:0.569769;stroke-linecap:round;stroke-linejoin:round;stroke-dasharray:none;stroke-opacity:1"
         d="m -29.821653,268.36716 -0.887361,-0.88736 a 0.04286107,0.04286107 0 0 1 0,-0.0614 0.04286107,0.04286107 0 0 1 0.06028,0 l 0.888474,0.88847 a 0.04286107,0.04286107 0 0 1 0,0.0603 0.04286107,0.04286107 0 0 1 -0.06139,0 z"
         id="path691" /><path
         style="color:#000000;fill:#ffffff;stroke:#ffffff;stroke-width:0.333694;stroke-linecap:round;stroke-linejoin:round;stroke-dasharray:none;stroke-opacity:1"
         d="m -42.011386,259.47238 a 0.04286107,0.04286107 0 0 1 -0.02459,-0.0558 c 0.0313,-0.081 0.05776,-0.16695 0.08148,-0.25449 0.02366,-0.0874 0.04384,-0.17556 0.06139,-0.26453 a 0.04286107,0.04286107 0 0 1 0.05023,-0.0335 0.04286107,0.04286107 0 0 1 0.03457,0.0502 c -0.01788,0.0905 -0.03818,0.18037 -0.06251,0.27012 -0.02428,0.0896 -0.05212,0.17871 -0.08482,0.26341 a 0.04286107,0.04286107 0 0 1 -0.05583,0.0246 z"
         id="path705" /><path
         style="color:#000000;fill:#ffffff;stroke:#ffffff;stroke-width:0.333694;stroke-linecap:round;stroke-linejoin:round;stroke-dasharray:none;stroke-opacity:1"
         d="m -42.570583,260.00925 a 0.04286107,0.04286107 0 0 1 -0.02459,-0.0558 c 0.02905,-0.074 0.05848,-0.14837 0.08706,-0.22323 0.02865,-0.075 0.05744,-0.14967 0.08595,-0.22436 0.02856,-0.0749 0.05735,-0.14999 0.08595,-0.22435 0.02856,-0.0736 0.05686,-0.14739 0.08483,-0.221 a 0.04286536,0.04286536 0 0 1 0,-0.001 c 0.02856,-0.0743 0.0568,-0.14837 0.08595,-0.22435 0.02918,-0.0767 0.06017,-0.15509 0.09041,-0.2344 a 0.04286107,0.04286107 0 0 1 0.05469,-0.0246 0.04286107,0.04286107 0 0 1 0.02459,0.0558 c -0.03037,0.0796 -0.0602,0.15797 -0.0893,0.2344 -0.02914,0.076 -0.05737,0.15006 -0.08595,0.22435 -0.02808,0.0738 -0.05734,0.14833 -0.08595,0.22212 -0.02852,0.0742 -0.05623,0.14837 -0.08482,0.22323 -0.02861,0.075 -0.05856,0.14967 -0.08706,0.22435 -0.02856,0.0749 -0.05669,0.14982 -0.08594,0.22436 a 0.04286107,0.04286107 0 0 1 -0.05578,0.0246 z"
         id="path706" /><path
         style="color:#000000;fill:#ffffff;stroke:#ffffff;stroke-width:0.333694;stroke-linecap:round;stroke-linejoin:round;stroke-dasharray:none;stroke-opacity:1"
         d="m -43.108581,261.41563 a 0.04286107,0.04286107 0 0 1 -0.02565,-0.0558 c 0.03205,-0.0847 0.06398,-0.16603 0.09487,-0.24556 0.03028,-0.0795 0.05906,-0.15565 0.08818,-0.23216 0.02913,-0.0761 0.05844,-0.15109 0.08818,-0.22771 0.02914,-0.0766 0.05846,-0.15444 0.08817,-0.23216 0.02975,-0.0779 0.06078,-0.15522 0.09041,-0.23328 a 0.04286536,0.04286536 0 0 1 0,-0.001 c 0.03019,-0.0775 0.05958,-0.15499 0.08929,-0.23328 a 0.04286107,0.04286107 0 0 1 0.05583,-0.0246 0.04286107,0.04286107 0 0 1 0.02459,0.0547 c -0.02971,0.0783 -0.06003,0.15644 -0.09041,0.2344 h 0.0013 c -0.0298,0.0785 -0.06076,0.15573 -0.09041,0.23327 -0.02971,0.0777 -0.05905,0.15563 -0.08818,0.23217 a 0.04286536,0.04286536 0 0 1 0,10e-4 c -0.02971,0.0765 -0.05906,0.15177 -0.08818,0.22771 -0.02914,0.0766 -0.0579,0.15166 -0.08817,0.23105 a 0.04286536,0.04286536 0 0 1 0,10e-4 c -0.03081,0.0793 -0.06292,0.16112 -0.09488,0.24556 a 0.04286107,0.04286107 0 0 1 -0.05469,0.0246 z"
         id="path707" /><path
         style="color:#000000;fill:#ffffff;stroke:#ffffff;stroke-width:0.333694;stroke-linecap:round;stroke-linejoin:round;stroke-dasharray:none;stroke-opacity:1"
         d="m -42.03594,258.65868 a 0.04286107,0.04286107 0 0 1 -0.04242,-0.0424 0.04286107,0.04286107 0 0 1 0.04242,-0.0424 h 0.197566 0.196445 a 0.04286107,0.04286107 0 0 1 0.04242,0.0424 0.04286107,0.04286107 0 0 1 -0.04242,0.0424 h -0.196445 z"
         id="path708" /><path
         style="color:#000000;fill:#ffffff;stroke:#ffffff;stroke-width:0.333694;stroke-linecap:round;stroke-linejoin:round;stroke-dasharray:none;stroke-opacity:1"
         d="m -41.107286,260.00925 a 0.04286107,0.04286107 0 0 1 -0.02344,-0.0234 c -0.02967,-0.073 -0.05951,-0.1471 -0.08929,-0.221 -0.03033,-0.0739 -0.0602,-0.14745 -0.09041,-0.221 -0.02967,-0.0736 -0.05953,-0.14775 -0.0893,-0.221 -0.03024,-0.0736 -0.06034,-0.1467 -0.09041,-0.21989 -0.03042,-0.0739 -0.0607,-0.14845 -0.09264,-0.22658 -0.032,-0.0783 -0.06504,-0.15931 -0.09934,-0.24333 a 0.04286107,0.04286107 0 0 1 0.02344,-0.0569 0.04286107,0.04286107 0 0 1 0.05578,0.0246 c 0.0343,0.084 0.06734,0.16505 0.09934,0.24333 0.03205,0.0784 0.06245,0.15308 0.09264,0.22658 0.03042,0.0739 0.0602,0.14638 0.09041,0.21989 a 0.04286536,0.04286536 0 0 1 0,10e-4 c 0.02967,0.073 0.0595,0.14599 0.0893,0.21988 0.03033,0.0739 0.06019,0.14746 0.09041,0.221 0.02967,0.0735 0.05953,0.14775 0.08929,0.22101 a 0.04286107,0.04286107 0 0 1 -0.02344,0.0558 0.04286107,0.04286107 0 0 1 -0.03236,0 z"
         id="path709" /><path
         style="color:#000000;fill:#ffffff;stroke:#ffffff;stroke-width:0.333694;stroke-linecap:round;stroke-linejoin:round;stroke-dasharray:none;stroke-opacity:1"
         d="m -40.53357,261.41451 a 0.04286107,0.04286107 0 0 1 -0.02344,-0.0223 c -0.03492,-0.0853 -0.06795,-0.16852 -0.100452,-0.24778 -0.03196,-0.0787 -0.06394,-0.15487 -0.09487,-0.23105 -0.03086,-0.0759 -0.06173,-0.15099 -0.09264,-0.2277 -0.03148,-0.0761 -0.06227,-0.15262 -0.09376,-0.23105 -0.032,-0.0778 -0.06398,-0.1561 -0.09599,-0.2344 -0.0313,-0.0781 -0.06396,-0.15603 -0.09599,-0.2344 a 0.04286107,0.04286107 0 0 1 0.02344,-0.0558 0.04286107,0.04286107 0 0 1 0.05583,0.0234 c 0.03196,0.0782 0.06446,0.15587 0.09599,0.2344 0.03201,0.0783 0.06402,0.15674 0.09599,0.23439 0.03139,0.0782 0.06238,0.15519 0.09375,0.23105 0.03081,0.0765 0.06175,0.15163 0.09264,0.2277 0.03081,0.0758 0.0628,0.15202 0.09487,0.23105 0.03262,0.0796 0.06566,0.16167 0.100456,0.24668 a 0.04286107,0.04286107 0 0 1 -0.02344,0.0558 0.04286107,0.04286107 0 0 1 -0.03236,0 z"
         id="path710" /><path
         style="color:#000000;fill:#ffffff;stroke:#ffffff;stroke-width:0.333694;stroke-linecap:round;stroke-linejoin:round;stroke-dasharray:none;stroke-opacity:1"
         d="m -43.094075,261.41786 a 0.04286107,0.04286107 0 0 1 -0.04238,-0.0424 0.04286107,0.04286107 0 0 1 0.04238,-0.0424 h 0.191986 0.193098 a 0.04286107,0.04286107 0 0 1 0.04353,0.0424 0.04286107,0.04286107 0 0 1 -0.04353,0.0424 h -0.193098 z"
         id="path711" /><path
         style="color:#000000;fill:#ffffff;stroke:#ffffff;stroke-width:0.333694;stroke-linecap:round;stroke-linejoin:round;stroke-dasharray:none;stroke-opacity:1"
         d="m -41.484548,260.00925 a 0.04286107,0.04286107 0 0 1 -0.02234,-0.0246 c -0.01258,-0.0326 -0.02529,-0.0649 -0.03796,-0.0982 -0.01262,-0.0328 -0.02432,-0.0658 -0.03686,-0.0982 a 0.04286536,0.04286536 0 0 1 -0.0013,-0.001 c -0.01179,-0.0326 -0.02424,-0.0645 -0.03682,-0.0971 -0.01267,-0.0328 -0.02437,-0.0648 -0.03686,-0.0971 a 0.04286536,0.04286536 0 0 1 0,-0.001 c -0.01183,-0.0322 -0.02428,-0.0645 -0.03686,-0.0971 a 0.04286107,0.04286107 0 0 1 0.02459,-0.0547 0.04286107,0.04286107 0 0 1 0.05469,0.0246 c 0.01245,0.0322 0.02587,0.0645 0.03796,0.0971 v 10e-4 c 0.01254,0.0324 0.02446,0.064 0.03686,0.096 0.01245,0.0322 0.02477,0.0649 0.03686,0.0982 v 10e-4 c 0.01249,0.0324 0.02556,0.0661 0.03796,0.0982 0.01249,0.033 0.02538,0.0657 0.03796,0.0982 a 0.04286107,0.04286107 0 0 1 -0.02459,0.0547 0.04286107,0.04286107 0 0 1 -0.03351,0 z"
         id="path712" /><path
         style="color:#000000;fill:#ffffff;stroke:#ffffff;stroke-width:0.333694;stroke-linecap:round;stroke-linejoin:round;stroke-dasharray:none;stroke-opacity:1"
         d="m -41.348374,260.2816 a 0.04286107,0.04286107 0 0 1 -0.05584,-0.0257 c -0.01766,-0.0467 -0.03527,-0.0932 -0.05246,-0.13841 -0.01708,-0.045 -0.03408,-0.089 -0.05023,-0.13282 a 0.04286107,0.04286107 0 0 1 0.02565,-0.0558 0.04286107,0.04286107 0 0 1 0.05469,0.0256 c 0.01585,0.043 0.03302,0.0876 0.05023,0.13283 0.01713,0.0451 0.0347,0.0914 0.05246,0.1384 a 0.04286107,0.04286107 0 0 1 -0.02459,0.0558 z"
         id="path713" /><path
         style="color:#000000;fill:#ffffff;stroke:#ffffff;stroke-width:0.333694;stroke-linecap:round;stroke-linejoin:round;stroke-dasharray:none;stroke-opacity:1"
         d="m -41.638587,259.52037 a 0.04286107,0.04286107 0 0 1 -0.05469,-0.0257 c -0.03205,-0.0853 -0.0671,-0.17799 -0.100452,-0.27458 -0.0339,-0.0966 -0.06714,-0.19717 -0.09822,-0.30137 a 0.04286107,0.04286107 0 0 1 0.02905,-0.0535 0.04286107,0.04286107 0 0 1 0.05355,0.029 c 0.03064,0.10267 0.06358,0.20255 0.0971,0.29802 0.03293,0.0954 0.06627,0.18734 0.09822,0.27234 a 0.04286107,0.04286107 0 0 1 -0.02459,0.0558 z"
         id="path714" /><path
         style="color:#000000;fill:#ffffff;stroke:#ffffff;stroke-width:0.333694;stroke-linecap:round;stroke-linejoin:round;stroke-dasharray:none;stroke-opacity:1"
         d="m -42.300474,260.28383 a 0.04286107,0.04286107 0 0 1 -0.04242,-0.0424 0.04286107,0.04286107 0 0 1 0.04242,-0.0435 h 0.160727 0.155152 0.149563 0.148455 0.156264 0.166307 a 0.04286107,0.04286107 0 0 1 0.04242,0.0435 0.04286107,0.04286107 0 0 1 -0.04242,0.0424 h -0.166307 -0.156264 -0.148455 -0.149563 -0.155152 z"
         id="path715" /><path
         style="color:#000000;fill:#ffffff;stroke:#ffffff;stroke-width:0.333694;stroke-linecap:round;stroke-linejoin:round;stroke-dasharray:none;stroke-opacity:1"
         d="m -42.213411,260.00925 a 0.04286107,0.04286107 0 0 1 -0.02459,-0.0547 c 0.01364,-0.0353 0.02719,-0.0715 0.04017,-0.10715 0.01373,-0.036 0.02719,-0.0727 0.04017,-0.10828 0.01377,-0.0361 0.02834,-0.0717 0.04132,-0.10715 a 0.04286536,0.04286536 0 0 1 0,-0.001 c 0.0136,-0.0358 0.02636,-0.0702 0.04017,-0.10604 0.01333,-0.0365 0.02719,-0.0717 0.04017,-0.10715 a 0.04286107,0.04286107 0 0 1 0.05469,-0.0256 0.04286107,0.04286107 0 0 1 0.02565,0.0547 c -0.01333,0.0365 -0.02719,0.0728 -0.04017,0.10827 -0.01342,0.0348 -0.02653,0.0702 -0.04017,0.10604 v 0.001 c -0.0132,0.0362 -0.02777,0.0716 -0.04132,0.10715 -0.01315,0.0361 -0.02658,0.0715 -0.04017,0.10716 v 10e-4 c -0.01315,0.0361 -0.02768,0.0719 -0.04132,0.10715 a 0.04286107,0.04286107 0 0 1 -0.05469,0.0246 z"
         id="path716" /><path
         style="color:#000000;fill:#ffffff;stroke:#ffffff;stroke-width:0.333694;stroke-linecap:round;stroke-linejoin:round;stroke-dasharray:none;stroke-opacity:1"
         d="m -42.316101,260.2816 a 0.04286107,0.04286107 0 0 1 -0.02459,-0.0558 c 0.01664,-0.0442 0.03421,-0.0889 0.05132,-0.13393 0.01704,-0.0449 0.03417,-0.091 0.05132,-0.13729 a 0.04286107,0.04286107 0 0 1 0.05469,-0.0256 0.04286107,0.04286107 0 0 1 0.02565,0.0558 c -0.01713,0.0463 -0.03518,0.0919 -0.05246,0.13728 -0.01722,0.0453 -0.03373,0.0901 -0.05024,0.13395 a 0.04286107,0.04286107 0 0 1 -0.05577,0.0256 z"
         id="path717" /><path
         style="color:#000000;fill:#ffffff;stroke:#ffffff;stroke-width:0.333694;stroke-linecap:round;stroke-linejoin:round;stroke-dasharray:none;stroke-opacity:1"
         d="m -40.92981,261.41786 a 0.04286107,0.04286107 0 0 1 -0.04242,-0.0424 0.04286107,0.04286107 0 0 1 0.04242,-0.0424 h 0.206492 0.205371 a 0.04286107,0.04286107 0 0 1 0.04357,0.0424 0.04286107,0.04286107 0 0 1 -0.04357,0.0424 h -0.205371 z"
         id="path718" /><path
         style="color:#000000;fill:#ffffff;stroke:#ffffff;stroke-width:0.333694;stroke-linecap:round;stroke-linejoin:round;stroke-dasharray:none;stroke-opacity:1"
         d="m -40.914187,261.41563 a 0.04286107,0.04286107 0 0 1 -0.05584,-0.0246 c -0.03417,-0.0895 -0.06942,-0.18016 -0.104923,-0.27235 -0.03545,-0.092 -0.07171,-0.18477 -0.108266,-0.27904 -0.03593,-0.0941 -0.07218,-0.189 -0.109391,-0.28574 a 0.04286107,0.04286107 0 0 1 0.02459,-0.0558 0.04286107,0.04286107 0 0 1 0.05469,0.0246 c 0.03708,0.0964 0.07441,0.19121 0.110495,0.28573 0.0366,0.0943 0.07283,0.187 0.108274,0.27905 0.03536,0.0918 0.07054,0.18238 0.104919,0.27234 a 0.04286107,0.04286107 0 0 1 -0.02459,0.0558 z"
         id="path719" /><path
         style="color:#000000;fill:#ffffff;stroke:#ffffff;stroke-width:0.333694;stroke-linecap:round;stroke-linejoin:round;stroke-dasharray:none;stroke-opacity:1"
         d="m -42.40428,260.58073 a 0.04286107,0.04286107 0 0 1 -0.04242,-0.0424 0.04286107,0.04286107 0 0 1 0.04242,-0.0436 h 0.293554 0.284624 0.282395 0.290204 a 0.04286107,0.04286107 0 0 1 0.04353,0.0436 0.04286107,0.04286107 0 0 1 -0.04353,0.0424 h -0.290204 -0.282395 -0.284624 z"
         id="path720" /><path
         style="color:#000000;fill:#ffffff;stroke:#ffffff;stroke-width:0.333694;stroke-linecap:round;stroke-linejoin:round;stroke-dasharray:none;stroke-opacity:1"
         d="m -42.723501,261.41563 a 0.04286107,0.04286107 0 0 1 -0.02565,-0.0547 c 0.03885,-0.10628 0.07679,-0.20824 0.111616,-0.30471 0.03536,-0.0965 0.06846,-0.18827 0.100456,-0.27682 0.03253,-0.0884 0.06289,-0.17378 0.09264,-0.2556 a 0.04286107,0.04286107 0 0 1 0.05469,-0.0256 0.04286107,0.04286107 0 0 1 0.02565,0.0547 c -0.02953,0.0813 -0.06014,0.16721 -0.09264,0.2556 v 0.001 c -0.03187,0.0883 -0.06511,0.17936 -0.100451,0.27569 -0.03492,0.0967 -0.07275,0.19841 -0.111616,0.30472 a 0.04286107,0.04286107 0 0 1 -0.05469,0.0256 z"
         id="path721" /><path
         style="color:#000000;fill:#ffffff;stroke:#ffffff;stroke-width:0.569769;stroke-linecap:round;stroke-linejoin:round;stroke-dasharray:none;stroke-opacity:1"
         d="m -29.790399,266.32568 a 0.04286107,0.04286107 0 0 1 -0.04353,-0.0435 v -0.48443 a 0.04286107,0.04286107 0 0 1 0.04353,-0.0424 0.04286107,0.04286107 0 0 1 0.04242,0.0424 v 0.48443 a 0.04286107,0.04286107 0 0 1 -0.04242,0.0435 z"
         id="path731" /><path
         style="color:#000000;fill:#ffffff;stroke:#ffffff;stroke-width:0.569769;stroke-linecap:round;stroke-linejoin:round;stroke-dasharray:none;stroke-opacity:1"
         d="m -29.790399,250.86444 a 0.04286107,0.04286107 0 0 1 -0.04353,-0.0424 c 0,-2.09298 -0.486097,-4.10287 -1.365079,-5.89786 -0.878986,-1.79557 -2.150214,-3.3769 -3.722438,-4.61873 -1.572221,-1.24125 -3.445911,-2.14321 -5.51948,-2.57501 a 0.04286107,0.04286107 0 0 1 -0.03351,-0.0502 0.04286107,0.04286107 0 0 1 0.05024,-0.0335 c 2.086813,0.43456 3.972841,1.3425 5.555197,2.59175 1.582352,1.24983 2.862395,2.8407 3.746997,4.64775 0.884601,1.80647 1.374009,3.82955 1.374009,5.93581 a 0.04286107,0.04286107 0 0 1 -0.04238,0.0424 z"
         id="path732" /><path
         style="color:#000000;fill:#ffffff;stroke:#ffffff;stroke-width:0.569769;stroke-linecap:round;stroke-linejoin:round;stroke-dasharray:none;stroke-opacity:1"
         d="m -56.797338,234.32609 c -0.190958,-0.0394 -0.328292,-0.0693 -0.425265,-0.0893 a 0.04286107,0.04286107 0 0 1 -0.03351,-0.0502 0.04286107,0.04286107 0 0 1 0.05024,-0.0335 c 0.09734,0.02 0.235584,0.0487 0.426374,0.0882 a 0.04286107,0.04286107 0 0 1 0.03351,0.0513 0.04286107,0.04286107 0 0 1 -0.05138,0.0335 z"
         id="path733" /><path
         style="color:#000000;fill:#ffffff;stroke:#ffffff;stroke-width:0.569769;stroke-linecap:round;stroke-linejoin:round;stroke-dasharray:none;stroke-opacity:1"
         d="m -40.440928,237.73042 -16.35641,-3.40433 a 0.04286107,0.04286107 0 0 1 -0.03236,-0.0513 0.04286107,0.04286107 0 0 1 0.05024,-0.0335 l 16.355289,3.40544 a 0.04286107,0.04286107 0 0 1 0.03351,0.0502 0.04286107,0.04286107 0 0 1 -0.05023,0.0335 z"
         id="path734" /><path
         style="color:#000000;fill:#ffffff;stroke:#ffffff;stroke-width:0.657287;stroke-linecap:round;stroke-linejoin:round;stroke-dasharray:none;stroke-opacity:1"
         d="m -40.6444,238.66901 -19.211398,-3.96164 a 0.0496746,0.049216 0 0 1 -0.0388,-0.0577 0.0496746,0.049216 0 0 1 0.05948,-0.0384 l 19.210104,3.96164 a 0.0496746,0.049216 0 0 1 0.0388,0.0589 0.0496746,0.049216 0 0 1 -0.05822,0.0371 z"
         id="path736" /><path
         style="color:#000000;fill:#ffffff;stroke:#ffffff;stroke-width:0.581896;stroke-linecap:round;stroke-linejoin:round;stroke-dasharray:none;stroke-opacity:1"
         d="m -30.750307,267.27954 a 0.04286107,0.04470438 0 0 1 -0.04242,-0.0442 v -16.41139 a 0.04286107,0.04470438 0 0 1 0.04242,-0.0454 0.04286107,0.04470438 0 0 1 0.04353,0.0454 v 16.41139 a 0.04286107,0.04470438 0 0 1 -0.04353,0.0442 z"
         id="path739" /><path
         style="color:#000000;fill:#ffffff;stroke:#ffffff;stroke-width:0.569769;stroke-linecap:round;stroke-linejoin:round;stroke-dasharray:none;stroke-opacity:1"
         d="m -30.757004,267.24875 a 0.04286107,0.04286107 0 0 1 0,-0.0614 l 0.935351,-0.93535 a 0.04286107,0.04286107 0 0 1 0.06139,0 0.04286107,0.04286107 0 0 1 0,0.0614 l -0.935351,0.93535 a 0.04286107,0.04286107 0 0 1 -0.06139,0 z"
         id="path740" /><path
         style="color:#000000;fill:#ffffff;stroke:#ffffff;stroke-width:0.569769;stroke-linecap:round;stroke-linejoin:round;stroke-dasharray:none;stroke-opacity:1"
         d="m -57.223716,234.2368 -1.611752,-0.33597 a 0.04286107,0.04286107 0 0 1 -0.03351,-0.0502 0.04286107,0.04286107 0 0 1 0.05138,-0.0335 l 1.611752,0.33597 a 0.04286107,0.04286107 0 0 1 0.03351,0.0513 0.04286107,0.04286107 0 0 1 -0.05132,0.0324 z"
         id="path741" /><path
         style="color:#000000;fill:#ffffff;stroke:#ffffff;stroke-width:0.569769;stroke-linecap:round;stroke-linejoin:round;stroke-dasharray:none;stroke-opacity:1"
         d="m -30.750307,250.86444 a 0.04286107,0.04286107 0 0 1 -0.04242,-0.0424 c 0,-0.92836 -0.102972,-1.8552 -0.311411,-2.76811 -0.208443,-0.91292 -0.521898,-1.81289 -0.935355,-2.66543 -0.413461,-0.85312 -0.926208,-1.65893 -1.521343,-2.3953 -0.595135,-0.73638 -1.272071,-1.40315 -2.014694,-1.98233 -0.742627,-0.57861 -1.55122,-1.07037 -2.402007,-1.4633 -0.851392,-0.39295 -1.744677,-0.68822 -2.658723,-0.87843 a 0.04286107,0.04286107 0 0 1 -0.03351,-0.0502 0.04286107,0.04286107 0 0 1 0.05023,-0.0335 c 0.920404,0.19153 1.82148,0.48831 2.678814,0.884 0.856799,0.39572 1.669842,0.89184 2.417634,1.47448 0.747793,0.58321 1.429942,1.25312 2.029204,1.9946 0.599258,0.74147 1.11506,1.55413 1.531391,2.41316 0.416335,0.85848 0.732165,1.76292 0.942047,2.68217 0.209887,0.91925 0.313645,1.85353 0.313645,2.7882 a 0.04286107,0.04286107 0 0 1 -0.04357,0.0424 z"
         id="path742" /><path
         style="color:#000000;fill:#ffffff;stroke:#ffffff;stroke-width:0.569769;stroke-linecap:round;stroke-linejoin:round;stroke-dasharray:none;stroke-opacity:1"
         d="m -29.790399,265.84126 a 0.04286107,0.04286107 0 0 1 -0.04353,-0.0436 v -14.97567 a 0.04286107,0.04286107 0 0 1 0.04353,-0.0436 0.04286107,0.04286107 0 0 1 0.04242,0.0436 v 14.97569 a 0.04286107,0.04286107 0 0 1 -0.04242,0.0436 z"
         id="path745" /><path
         style="color:#000000;fill:#ffffff;stroke:#ffffff;stroke-width:0.569769;stroke-linecap:round;stroke-linejoin:round;stroke-dasharray:none;stroke-opacity:1"
         d="m -39.814754,316.347 a 0.04286107,0.04286107 0 0 1 -0.05469,-0.0257 0.04286107,0.04286107 0 0 1 0.02565,-0.0547 c 0.656558,-0.23885 1.313054,-0.48016 1.956656,-0.76234 0.64361,-0.28219 1.274984,-0.60521 1.876286,-0.98558 0.601324,-0.38039 1.173499,-0.81804 1.697697,-1.31151 0.524786,-0.49347 1.002646,-1.04273 1.417541,-1.63519 0.414896,-0.59246 0.76742,-1.2283 1.051439,-1.88968 0.284033,-0.66199 0.500382,-1.34959 0.651843,-2.04483 0.152031,-0.69525 0.239588,-1.39887 0.284625,-2.10064 0.04503,-0.70117 0.04686,-1.39956 0.04686,-2.09841 a 0.04286107,0.04286107 0 0 1 0.04238,-0.0435 0.04286107,0.04286107 0 0 1 0.04242,0.0435 c 0,0.69899 -0.0018,1.39932 -0.04686,2.10399 -0.04526,0.70522 -0.132606,1.41372 -0.285741,2.11403 -0.152569,0.70031 -0.370004,1.39206 -0.656311,2.05934 -0.286319,0.66674 -0.642043,1.30795 -1.060369,1.90531 -0.418321,0.59736 -0.899673,1.15112 -1.4287,1.64859 -0.528468,0.49748 -1.104338,0.93843 -1.709979,1.32155 -0.605664,0.38313 -1.24177,0.7087 -1.888567,0.99228 -0.646798,0.28358 -1.305528,0.52456 -1.962232,0.76346 z"
         id="path837" /><path
         style="color:#000000;fill:#ffffff;stroke:#ffffff;stroke-width:0.569769;stroke-linecap:round;stroke-linejoin:round;stroke-dasharray:none;stroke-opacity:1"
         d="m -59.444901,323.49274 a 0.04286107,0.04286107 0 0 1 -0.05469,-0.0257 0.04286107,0.04286107 0 0 1 0.02565,-0.0558 l 19.630156,-7.14462 a 0.04286107,0.04286107 0 0 1 0.05469,0.0257 0.04286107,0.04286107 0 0 1 -0.02565,0.0547 z"
         id="path855" /><path
         style="color:#000000;fill:#ffffff;stroke:#ffffff;stroke-width:0.569769;stroke-linecap:round;stroke-linejoin:round;stroke-dasharray:none;stroke-opacity:1"
         d="m -60.328907,323.7383 c -0.216866,0.0113 -0.425544,-0.0403 -0.591577,-0.15626 -0.166003,-0.11651 -0.285785,-0.29432 -0.349363,-0.50228 -0.06354,-0.20787 -0.07031,-0.44187 -0.07031,-0.67082 a 0.04286107,0.04286107 0 0 1 0.04242,-0.0424 0.04286107,0.04286107 0 0 1 0.04238,0.0424 c 0,0.22709 0.0082,0.45297 0.06697,0.64515 0.05872,0.19207 0.169799,0.35354 0.318108,0.45763 0.14815,0.10311 0.336953,0.15216 0.536877,0.14175 0.200396,-0.0104 0.415544,-0.0805 0.629528,-0.1585 a 0.04286107,0.04286107 0 0 1 0.05469,0.0257 0.04286107,0.04286107 0 0 1 -0.02565,0.0547 c -0.215767,0.0786 -0.437286,0.15167 -0.654068,0.16296 z"
         id="path891" /><path
         style="color:#000000;fill:#ffffff;stroke:#ffffff;stroke-width:0.333694;stroke-linecap:round;stroke-linejoin:round;stroke-dasharray:none;stroke-opacity:1"
         d="m -35.074366,253.94732 c -0.07342,-0.1152 0.177057,-0.14038 0.218531,-0.24741 0.133384,-0.1062 0.09345,-0.31444 0.176575,-0.4223 0.09336,0.0542 0.01867,0.20821 -0.0013,0.29579 -0.06351,0.16609 -0.202643,0.29372 -0.360205,0.37056 l -0.03351,0.004 z"
         id="path925" /><path
         style="color:#000000;fill:#ffffff;stroke:#ffffff;stroke-width:0.569769;stroke-linecap:round;stroke-linejoin:round;stroke-dasharray:none;stroke-opacity:1"
         d="m -40.65077,238.7361 -19.006203,-3.95684 a 0.04286107,0.04286107 0 0 1 -0.03351,-0.0502 0.04286107,0.04286107 0 0 1 0.05023,-0.0335 l 19.007324,3.95684 a 0.04286107,0.04286107 0 0 1 0.03236,0.0513 0.04286107,0.04286107 0 0 1 -0.05023,0.0324 z"
         id="path951" /><path
         style="color:#000000;fill:#ffffff;stroke:#ffffff;stroke-width:0.569769;stroke-linecap:round;stroke-linejoin:round;stroke-dasharray:none;stroke-opacity:1"
         d="m -61.297751,236.12202 a 0.04286107,0.04286107 0 0 1 -0.04242,-0.0435 c 0,-0.22553 0.0063,-0.45645 0.07144,-0.6697 0.06515,-0.21263 0.187567,-0.40341 0.356055,-0.54023 0.168479,-0.13741 0.38071,-0.21814 0.602737,-0.23886 0.22155,-0.0201 0.44875,0.0199 0.6697,0.0659 a 0.04286107,0.04286107 0 0 1 0.03351,0.0502 0.04286107,0.04286107 0 0 1 -0.05023,0.0335 c -0.219083,-0.0455 -0.439233,-0.0835 -0.645152,-0.0647 -0.206576,0.0192 -0.403126,0.0944 -0.556971,0.21989 -0.153819,0.1249 -0.266463,0.30234 -0.327034,0.50004 -0.06057,0.19821 -0.06921,0.42038 -0.06921,0.64403 a 0.04286107,0.04286107 0 0 1 -0.04242,0.0435 z"
         id="path952" /><path
         style="color:#000000;fill:#ffffff;stroke:#ffffff;stroke-width:0.569769;stroke-linecap:round;stroke-linejoin:round;stroke-dasharray:none;stroke-opacity:1"
         d="m -30.818396,250.86444 a 0.04286107,0.04286107 0 0 1 -0.04238,-0.0424 c 0,-5.80176 -4.042962,-10.88937 -9.78996,-12.08593 a 0.04286107,0.04286107 0 0 1 -0.03351,-0.0502 0.04286107,0.04286107 0 0 1 0.05132,-0.0335 c 5.786614,1.2048 9.856932,6.32806 9.856932,12.16964 a 0.04286107,0.04286107 0 0 1 -0.04242,0.0424 z"
         id="path953" /><path
         style="color:#000000;fill:#ffffff;stroke:#ffffff;stroke-width:0.569769;stroke-linecap:round;stroke-linejoin:round;stroke-dasharray:none;stroke-opacity:1"
         d="m -30.818396,303.48087 a 0.04286107,0.04286107 0 0 1 -0.04238,-0.0424 v -52.61641 a 0.04286107,0.04286107 0 0 1 0.04238,-0.0436 0.04286107,0.04286107 0 0 1 0.04242,0.0436 v 52.61642 a 0.04286107,0.04286107 0 0 1 -0.04242,0.0424 z"
         id="path954" /><path
         style="color:#000000;fill:#ffffff;stroke:#ffffff;stroke-width:0.569769;stroke-linecap:round;stroke-linejoin:round;stroke-dasharray:none;stroke-opacity:1"
         d="m -61.297751,322.20691 a 0.04286107,0.04286107 0 0 1 -0.04242,-0.0424 v -86.086 a 0.04286107,0.04286107 0 0 1 0.04242,-0.0424 0.04286107,0.04286107 0 0 1 0.04238,0.0424 v 86.08601 a 0.04286107,0.04286107 0 0 1 -0.04238,0.0424 z"
         id="path955" /><path
         style="color:#000000;fill:#ffffff;stroke:#ffffff;stroke-width:0.569769;stroke-linecap:round;stroke-linejoin:round;stroke-dasharray:none;stroke-opacity:1"
         d="m -60.190509,323.67803 c -0.247105,0.013 -0.484132,-0.0455 -0.67305,-0.17747 -0.18838,-0.132 -0.325229,-0.335 -0.397353,-0.57148 -0.07273,-0.23653 -0.07925,-0.50254 -0.07925,-0.76458 a 0.04286107,0.04286107 0 0 1 0.04242,-0.0424 0.04286107,0.04286107 0 0 1 0.04238,0.0424 c 0,0.26029 0.0091,0.51824 0.07702,0.73891 0.06731,0.22069 0.193368,0.40736 0.363873,0.52683 0.171119,0.11951 0.388828,0.17398 0.619472,0.16184 0.230128,-0.0121 0.476765,-0.092 0.72105,-0.18082 a 0.04286107,0.04286107 0 0 1 0.05469,0.0257 0.04286107,0.04286107 0 0 1 -0.02565,0.0558 c -0.246042,0.0895 -0.499107,0.17228 -0.745603,0.18529 z"
         id="path956" /><path
         style="color:#000000;fill:#ffffff;stroke:#ffffff;stroke-width:0.569769;stroke-linecap:round;stroke-linejoin:round;stroke-dasharray:none;stroke-opacity:1"
         d="m -30.818396,268.10597 a 0.04286107,0.04286107 0 0 1 -0.04238,-0.0424 0.04286107,0.04286107 0 0 1 0.04238,-0.0435 h 0.06809 a 0.04286107,0.04286107 0 0 1 0.04353,0.0435 0.04286107,0.04286107 0 0 1 -0.04353,0.0424 z"
         id="path1004" /><path
         style="color:#000000;fill:#ffffff;stroke:#ffffff;stroke-width:0.569769;stroke-linecap:round;stroke-linejoin:round;stroke-dasharray:none;stroke-opacity:1"
         d="m -30.778216,285.17785 a 0.04286107,0.04286107 0 0 1 -0.0046,-0.0614 l 0.959909,-1.10612 a 0.04286107,0.04286107 0 0 1 0.06027,-0.004 0.04286107,0.04286107 0 0 1 0.0046,0.0603 l -0.959909,1.10724 a 0.04286107,0.04286107 0 0 1 -0.06028,0.004 z"
         id="path1017" /><path
         style="color:#000000;fill:#ffffff;stroke:#ffffff;stroke-width:0.612625;stroke-linecap:round;stroke-linejoin:round;stroke-dasharray:none;stroke-opacity:1"
         d="m -59.888341,234.7144 a 0.04389395,0.04838499 0 0 1 -0.06058,-0.0139 0.04389395,0.04838499 0 0 1 0.01139,-0.0668 l 1.084772,-0.80894 a 0.04389395,0.04838499 0 0 1 0.06173,0.0126 0.04389395,0.04838499 0 0 1 -0.01258,0.0668 z"
         id="path1022" /><path
         style="color:#000000;fill:#ffffff;stroke:#ffffff;stroke-width:0.569769;stroke-linecap:round;stroke-linejoin:round;stroke-dasharray:none;stroke-opacity:1"
         d="m -29.790399,282.00792 a 0.04286107,0.04286107 0 0 1 -0.04353,-0.0435 v -0.41968 a 0.04286107,0.04286107 0 0 1 0.04353,-0.0424 0.04286107,0.04286107 0 0 1 0.04242,0.0424 v 0.41968 a 0.04286107,0.04286107 0 0 1 -0.04242,0.0435 z"
         id="path1056" /><path
         style="color:#000000;fill:#ffffff;stroke:#ffffff;stroke-width:0.569769;stroke-linecap:round;stroke-linejoin:round;stroke-dasharray:none;stroke-opacity:1"
         d="m -29.790399,281.58824 a 0.04286107,0.04286107 0 0 1 -0.04353,-0.0435 v -12.72326 a 0.04286107,0.04286107 0 0 1 0.04353,-0.0424 0.04286107,0.04286107 0 0 1 0.04242,0.0424 v 12.72326 a 0.04286107,0.04286107 0 0 1 -0.04242,0.0435 z"
         id="path1057" /><path
         style="color:#000000;fill:#ffffff;stroke:#ffffff;stroke-width:0.569769;stroke-linecap:round;stroke-linejoin:round;stroke-dasharray:none;stroke-opacity:1"
         d="m -29.790399,268.86497 a 0.04286107,0.04286107 0 0 1 -0.04353,-0.0435 v -0.48442 a 0.04286107,0.04286107 0 0 1 0.04353,-0.0424 0.04286107,0.04286107 0 0 1 0.04242,0.0424 v 0.48442 a 0.04286107,0.04286107 0 0 1 -0.04242,0.0435 z"
         id="path1058" /><path
         style="color:#000000;fill:#ffffff;stroke:#ffffff;stroke-width:0.569769;stroke-linecap:round;stroke-linejoin:round;stroke-dasharray:none;stroke-opacity:1"
         d="m -29.790399,284.08065 a 0.04286107,0.04286107 0 0 1 -0.04353,-0.0424 v -2.07385 a 0.04286107,0.04286107 0 0 1 0.04353,-0.0424 0.04286107,0.04286107 0 0 1 0.04242,0.0424 v 2.07385 a 0.04286107,0.04286107 0 0 1 -0.04242,0.0424 z"
         id="path1059" /><path
         style="color:#000000;fill:#ffffff;stroke:#ffffff;stroke-width:0.601863;stroke-linecap:round;stroke-linejoin:round;stroke-dasharray:none;stroke-opacity:1"
         d="m -29.8259,268.36645 -0.938459,-0.93624 a 0.0453291,0.04522181 0 0 1 0,-0.0648 0.0453291,0.04522181 0 0 1 0.06375,0 l 0.939637,0.93741 a 0.0453291,0.04522181 0 0 1 0,0.0636 0.0453291,0.04522181 0 0 1 -0.06492,0 z"
         id="path1060" /><path
         style="color:#000000;fill:#ffffff;stroke:#ffffff;stroke-width:0.569769;stroke-linecap:round;stroke-linejoin:round;stroke-dasharray:none;stroke-opacity:1"
         d="m -29.790399,266.32568 a 0.04286107,0.04286107 0 0 1 -0.04353,-0.0435 v -0.48443 a 0.04286107,0.04286107 0 0 1 0.04353,-0.0424 0.04286107,0.04286107 0 0 1 0.04242,0.0424 v 0.48443 a 0.04286107,0.04286107 0 0 1 -0.04242,0.0435 z"
         id="path1066" /><path
         style="color:#000000;fill:#ffffff;stroke:#ffffff;stroke-width:0.569769;stroke-linecap:round;stroke-linejoin:round;stroke-dasharray:none;stroke-opacity:1"
         d="m -29.790399,250.86444 a 0.04286107,0.04286107 0 0 1 -0.04353,-0.0424 c 0,-2.09298 -0.486097,-4.10287 -1.365079,-5.89786 -0.878986,-1.79557 -2.150214,-3.3769 -3.722438,-4.61873 -1.572221,-1.24125 -3.445911,-2.14321 -5.51948,-2.57501 a 0.04286107,0.04286107 0 0 1 -0.03351,-0.0502 0.04286107,0.04286107 0 0 1 0.05024,-0.0335 c 2.086813,0.43456 3.972841,1.3425 5.555197,2.59175 1.582352,1.24983 2.862395,2.8407 3.746997,4.64775 0.884601,1.80647 1.374009,3.82955 1.374009,5.93581 a 0.04286107,0.04286107 0 0 1 -0.04238,0.0424 z"
         id="path1067" /><path
         style="color:#000000;fill:#ffffff;stroke:#ffffff;stroke-width:0.569769;stroke-linecap:round;stroke-linejoin:round;stroke-dasharray:none;stroke-opacity:1"
         d="m -56.797338,234.32609 c -0.190958,-0.0394 -0.328292,-0.0693 -0.425265,-0.0893 a 0.04286107,0.04286107 0 0 1 -0.03351,-0.0502 0.04286107,0.04286107 0 0 1 0.05024,-0.0335 c 0.09734,0.02 0.235584,0.0487 0.426374,0.0882 a 0.04286107,0.04286107 0 0 1 0.03351,0.0513 0.04286107,0.04286107 0 0 1 -0.05138,0.0335 z"
         id="path1068" /><path
         style="color:#000000;fill:#ffffff;stroke:#ffffff;stroke-width:0.569769;stroke-linecap:round;stroke-linejoin:round;stroke-dasharray:none;stroke-opacity:1"
         d="m -40.440928,237.73042 -16.35641,-3.40433 a 0.04286107,0.04286107 0 0 1 -0.03236,-0.0513 0.04286107,0.04286107 0 0 1 0.05024,-0.0335 l 16.355289,3.40544 a 0.04286107,0.04286107 0 0 1 0.03351,0.0502 0.04286107,0.04286107 0 0 1 -0.05023,0.0335 z"
         id="path1069" /><path
         style="color:#000000;fill:#ffffff;stroke:#ffffff;stroke-width:0.569769;stroke-linecap:round;stroke-linejoin:round;stroke-dasharray:none;stroke-opacity:1"
         d="m -30.757004,267.24875 a 0.04286107,0.04286107 0 0 1 0,-0.0614 l 0.935351,-0.93535 a 0.04286107,0.04286107 0 0 1 0.06139,0 0.04286107,0.04286107 0 0 1 0,0.0614 l -0.935351,0.93535 a 0.04286107,0.04286107 0 0 1 -0.06139,0 z"
         id="path1070" /><path
         style="color:#000000;fill:#ffffff;stroke:#ffffff;stroke-width:0.569769;stroke-linecap:round;stroke-linejoin:round;stroke-dasharray:none;stroke-opacity:1"
         d="m -57.223716,234.2368 -1.611752,-0.33597 a 0.04286107,0.04286107 0 0 1 -0.03351,-0.0502 0.04286107,0.04286107 0 0 1 0.05138,-0.0335 l 1.611752,0.33597 a 0.04286107,0.04286107 0 0 1 0.03351,0.0513 0.04286107,0.04286107 0 0 1 -0.05132,0.0324 z"
         id="path1071" /><path
         style="color:#000000;fill:#ffffff;stroke:#ffffff;stroke-width:0.569769;stroke-linecap:round;stroke-linejoin:round;stroke-dasharray:none;stroke-opacity:1"
         d="m -29.790399,265.84126 a 0.04286107,0.04286107 0 0 1 -0.04353,-0.0436 v -14.97567 a 0.04286107,0.04286107 0 0 1 0.04353,-0.0436 0.04286107,0.04286107 0 0 1 0.04242,0.0436 v 14.97569 a 0.04286107,0.04286107 0 0 1 -0.04242,0.0436 z"
         id="path1072" /><path
         style="color:#000000;fill:#ffffff;stroke:#ffffff;stroke-width:0.569769;stroke-linecap:round;stroke-linejoin:round;stroke-dasharray:none;stroke-opacity:1"
         d="m -39.814754,316.347 a 0.04286107,0.04286107 0 0 1 -0.05469,-0.0257 0.04286107,0.04286107 0 0 1 0.02565,-0.0547 c 0.656558,-0.23885 1.313054,-0.48016 1.956656,-0.76234 0.64361,-0.28219 1.274984,-0.60521 1.876286,-0.98558 0.601324,-0.38039 1.173499,-0.81804 1.697697,-1.31151 0.524786,-0.49347 1.002646,-1.04273 1.417541,-1.63519 0.414896,-0.59246 0.76742,-1.2283 1.051439,-1.88968 0.284033,-0.66199 0.500382,-1.34959 0.651843,-2.04483 0.152031,-0.69525 0.239588,-1.39887 0.284625,-2.10064 0.04503,-0.70117 0.04686,-1.39956 0.04686,-2.09841 a 0.04286107,0.04286107 0 0 1 0.04238,-0.0435 0.04286107,0.04286107 0 0 1 0.04242,0.0435 c 0,0.69899 -0.0018,1.39932 -0.04686,2.10399 -0.04526,0.70522 -0.132606,1.41372 -0.285741,2.11403 -0.152569,0.70031 -0.370004,1.39206 -0.656311,2.05934 -0.286319,0.66674 -0.642043,1.30795 -1.060369,1.90531 -0.418321,0.59736 -0.899673,1.15112 -1.4287,1.64859 -0.528468,0.49748 -1.104338,0.93843 -1.709979,1.32155 -0.605664,0.38313 -1.24177,0.7087 -1.888567,0.99228 -0.646798,0.28358 -1.305528,0.52456 -1.962232,0.76346 z"
         id="path1094" /><path
         style="color:#000000;fill:#ffffff;stroke:#ffffff;stroke-width:0.569769;stroke-linecap:round;stroke-linejoin:round;stroke-dasharray:none;stroke-opacity:1"
         d="m -59.444901,323.49274 a 0.04286107,0.04286107 0 0 1 -0.05469,-0.0257 0.04286107,0.04286107 0 0 1 0.02565,-0.0558 l 19.630156,-7.14462 a 0.04286107,0.04286107 0 0 1 0.05469,0.0257 0.04286107,0.04286107 0 0 1 -0.02565,0.0547 z"
         id="path1095" /><path
         style="color:#000000;fill:#ffffff;stroke:#ffffff;stroke-width:0.569769;stroke-linecap:round;stroke-linejoin:round;stroke-dasharray:none;stroke-opacity:1"
         d="m -60.328907,323.7383 c -0.216866,0.0113 -0.425544,-0.0403 -0.591577,-0.15626 -0.166003,-0.11651 -0.285785,-0.29432 -0.349363,-0.50228 -0.06354,-0.20787 -0.07031,-0.44187 -0.07031,-0.67082 a 0.04286107,0.04286107 0 0 1 0.04242,-0.0424 0.04286107,0.04286107 0 0 1 0.04238,0.0424 c 0,0.22709 0.0082,0.45297 0.06697,0.64515 0.05872,0.19207 0.169799,0.35354 0.318108,0.45763 0.14815,0.10311 0.336953,0.15216 0.536877,0.14175 0.200396,-0.0104 0.415544,-0.0805 0.629528,-0.1585 a 0.04286107,0.04286107 0 0 1 0.05469,0.0257 0.04286107,0.04286107 0 0 1 -0.02565,0.0547 c -0.215767,0.0786 -0.437286,0.15167 -0.654068,0.16296 z"
         id="path1099" /><path
         style="color:#000000;fill:#ffffff;stroke:#ffffff;stroke-width:0.569769;stroke-linecap:round;stroke-linejoin:round;stroke-dasharray:none;stroke-opacity:1"
         d="m -61.297751,236.12202 a 0.04286107,0.04286107 0 0 1 -0.04242,-0.0435 c 0,-0.22553 0.0063,-0.45645 0.07144,-0.6697 0.06515,-0.21263 0.187567,-0.40341 0.356055,-0.54023 0.168479,-0.13741 0.38071,-0.21814 0.602737,-0.23886 0.22155,-0.0201 0.44875,0.0199 0.6697,0.0659 a 0.04286107,0.04286107 0 0 1 0.03351,0.0502 0.04286107,0.04286107 0 0 1 -0.05023,0.0335 c -0.219083,-0.0455 -0.439233,-0.0835 -0.645152,-0.0647 -0.206576,0.0192 -0.403126,0.0944 -0.556971,0.21989 -0.153819,0.1249 -0.266463,0.30234 -0.327034,0.50004 -0.06057,0.19821 -0.06921,0.42038 -0.06921,0.64403 a 0.04286107,0.04286107 0 0 1 -0.04242,0.0435 z"
         id="path1104" /><path
         style="color:#000000;fill:#ffffff;stroke:#ffffff;stroke-width:0.569769;stroke-linecap:round;stroke-linejoin:round;stroke-dasharray:none;stroke-opacity:1"
         d="m -61.297751,322.20691 a 0.04286107,0.04286107 0 0 1 -0.04242,-0.0424 v -86.086 a 0.04286107,0.04286107 0 0 1 0.04242,-0.0424 0.04286107,0.04286107 0 0 1 0.04238,0.0424 v 86.08601 a 0.04286107,0.04286107 0 0 1 -0.04238,0.0424 z"
         id="path1105" /><path
         style="color:#000000;fill:#ffffff;stroke:#ffffff;stroke-width:0.569769;stroke-linecap:round;stroke-linejoin:round;stroke-dasharray:none;stroke-opacity:1"
         d="m -60.190509,323.67803 c -0.247105,0.013 -0.484132,-0.0455 -0.67305,-0.17747 -0.18838,-0.132 -0.325229,-0.335 -0.397353,-0.57148 -0.07273,-0.23653 -0.07925,-0.50254 -0.07925,-0.76458 a 0.04286107,0.04286107 0 0 1 0.04242,-0.0424 0.04286107,0.04286107 0 0 1 0.04238,0.0424 c 0,0.26029 0.0091,0.51824 0.07702,0.73891 0.06731,0.22069 0.193368,0.40736 0.363873,0.52683 0.171119,0.11951 0.388828,0.17398 0.619472,0.16184 0.230128,-0.0121 0.476765,-0.092 0.72105,-0.18082 a 0.04286107,0.04286107 0 0 1 0.05469,0.0257 0.04286107,0.04286107 0 0 1 -0.02565,0.0558 c -0.246042,0.0895 -0.499107,0.17228 -0.745603,0.18529 z"
         id="path1106" /><path
         style="fill:#ffffff;stroke:#8a9199;stroke-width:0.110536"
         d="m -60.620883,323.09331 -0.245281,-0.1718 v -43.73526 c 0,-42.22985 0.0069,-43.74155 0.201824,-43.91791 0.260931,-0.23614 0.572618,-0.23016 1.814212,0.0348 0.560409,0.11958 4.991966,1.04139 9.847904,2.04845 4.855938,1.00707 9.191187,1.95252 9.633885,2.10101 4.003315,1.34277 7.019378,4.76 7.931914,8.98694 0.193492,0.89626 0.202519,2.20241 0.202519,29.30117 0,26.81702 -0.01077,28.41597 -0.197508,29.33313 -0.494374,2.42802 -1.290514,3.9396 -2.947656,5.59652 -1.288744,1.28856 -2.283858,1.94871 -3.990813,2.64743 -1.416354,0.57977 -21.683547,7.94734 -21.862066,7.94734 -0.07901,0 -0.25403,-0.0773 -0.388934,-0.1718 z m 20.411359,-21.09003 c 0.19256,-0.17427 0.201821,-0.62087 0.201821,-9.73078 0,-8.72976 -0.01567,-9.56542 -0.182649,-9.74995 -0.174284,-0.19259 -0.623295,-0.20183 -9.808721,-0.20183 -8.819501,0 -9.638771,0.0153 -9.777546,0.18251 -0.225614,0.27185 -0.225614,19.22834 0,19.50019 0.138771,0.16721 0.956707,0.18251 9.758369,0.18251 8.78445,0 9.624178,-0.0156 9.808726,-0.18265 z m -9.974671,-22.72763 c 2.871948,-0.59322 5.176408,-2.65198 6.165329,-5.508 0.278227,-0.80353 0.306083,-1.02675 0.30987,-2.48315 0.0035,-1.37809 -0.03174,-1.71462 -0.25453,-2.42408 -0.699657,-2.22812 -2.106542,-3.92544 -4.124157,-4.97554 -2.252502,-1.17235 -5.197011,-1.20007 -7.440936,-0.0701 -1.704982,0.85861 -2.871597,2.02678 -3.733119,3.73807 -0.675508,1.3418 -0.871078,2.31044 -0.805335,3.98869 0.08578,2.18964 0.723146,3.73904 2.18069,5.3011 1.970974,2.1123 4.850705,3.02195 7.702188,2.43296 z m 9.784923,-16.03388 c 0.694072,-0.30702 1.441962,-1.04171 1.795037,-1.76337 0.412768,-0.84367 0.431821,-2.10175 0.04489,-2.96433 -0.307505,-0.6855 -1.136426,-1.49767 -1.865832,-1.82812 -0.812174,-0.36795 -2.091515,-0.33969 -2.915753,0.0644 -1.651941,0.80987 -2.412478,2.70282 -1.804007,4.4901 0.304326,0.89391 1.225166,1.78181 2.166529,2.08902 0.846324,0.2762 1.832278,0.24268 2.579136,-0.0877 z m -5.860106,-6.12605 c 0.763472,-0.37353 1.424864,-1.10889 1.733945,-1.92787 0.32299,-0.85583 0.261112,-2.04029 -0.148491,-2.84235 -0.376096,-0.73644 -1.256041,-1.52159 -1.971718,-1.7593 -0.77733,-0.25819 -2.176449,-0.18085 -2.830199,0.15645 -1.169412,0.60335 -1.819582,1.66311 -1.88135,3.06654 -0.03496,0.79429 -0.004,0.97967 0.264764,1.57824 0.366504,0.81668 1.130166,1.54853 1.957989,1.87643 0.823165,0.32605 2.033296,0.2637 2.87506,-0.14814 z m 12.045692,-0.0384 c 0.565589,-0.2973 1.285619,-1.05028 1.611231,-1.68497 0.205393,-0.40035 0.255772,-0.67849 0.259855,-1.43471 0.0044,-0.81093 -0.03699,-1.0237 -0.305152,-1.56982 -0.347031,-0.7067 -0.987141,-1.32277 -1.731477,-1.66645 -0.368804,-0.17029 -0.723875,-0.23017 -1.379528,-0.23265 -1.15016,-0.004 -1.837641,0.2901 -2.584021,1.10676 -0.651459,0.7128 -0.892751,1.36507 -0.891312,2.40941 0.0018,1.34989 0.673929,2.42211 1.909567,3.04658 0.643796,0.32536 0.739705,0.34261 1.676128,0.3015 0.732625,-0.0322 1.109097,-0.10449 1.434709,-0.27565 z m -6.037356,-5.97411 c 0.722201,-0.37369 1.307982,-0.96175 1.645778,-1.65218 0.256531,-0.52433 0.305611,-0.76726 0.306781,-1.51842 0.0013,-0.80555 -0.03691,-0.96936 -0.384873,-1.6518 -1.086816,-2.13152 -3.907043,-2.58922 -5.633047,-0.91419 -0.692103,0.67166 -1.035511,1.50707 -1.038513,2.52637 -0.0022,0.72148 0.04611,0.93161 0.360271,1.56978 0.409245,0.8313 1.024259,1.40746 1.863232,1.74554 0.739352,0.29793 2.204812,0.24446 2.880371,-0.1051 z m -11.755083,-5.95296 c 1.2576,-1.26281 2.286546,-2.35602 2.286546,-2.42936 0,-0.29633 -0.449456,-1.72998 -0.578739,-1.84604 -0.164087,-0.14729 -1.404315,-0.49176 -1.770546,-0.49176 -0.18619,0 -0.876962,0.62574 -2.539999,2.30089 -1.256343,1.26548 -2.28426,2.3587 -2.28426,2.42936 0,0.28695 0.449702,1.72608 0.578741,1.85208 0.07624,0.0745 0.41176,0.20858 0.745605,0.29807 1.209133,0.32414 1.02879,0.43112 3.562652,-2.11324 z"
         id="path2" /></g></g></svg>
