<?xml version="1.0" encoding="UTF-8" standalone="no"?>
<!-- Created with Inkscape (http://www.inkscape.org/) -->

<svg
   width="23.756924mm"
   height="24.000025mm"
   viewBox="0 0 23.756924 24.000025"
   version="1.1"
   id="svg1"
   xml:space="preserve"
   sodipodi:docname="Controller-small-black.svg"
   inkscape:version="1.3.2 (091e20ef0f, 2023-11-25)"
   xmlns:inkscape="http://www.inkscape.org/namespaces/inkscape"
   xmlns:sodipodi="http://sodipodi.sourceforge.net/DTD/sodipodi-0.dtd"
   xmlns="http://www.w3.org/2000/svg"
   xmlns:svg="http://www.w3.org/2000/svg"><sodipodi:namedview
     id="namedview1"
     pagecolor="#505050"
     bordercolor="#eeeeee"
     borderopacity="1"
     inkscape:showpageshadow="0"
     inkscape:pageopacity="0"
     inkscape:pagecheckerboard="0"
     inkscape:deskcolor="#505050"
     inkscape:document-units="mm"
     inkscape:zoom="5.2806369"
     inkscape:cx="57.095386"
     inkscape:cy="59.273153"
     inkscape:window-width="2194"
     inkscape:window-height="1162"
     inkscape:window-x="0"
     inkscape:window-y="0"
     inkscape:window-maximized="1"
     inkscape:current-layer="svg1" /><defs
     id="defs1" /><path
     style="color:#000000;fill:#020202;stroke:#000000;stroke-width:0.150751;stroke-linecap:round;stroke-linejoin:round;stroke-dasharray:none;stroke-opacity:1;fill-opacity:1"
     d="m 0.16840061,3.8090784 a 0.01134032,0.01134033 0 0 1 -0.008271,-0.013891 C 0.22171389,3.539751 0.31082053,3.2937044 0.42473688,3.0610192 0.65878756,2.58306 0.99716662,2.1621317 1.415834,1.8315984 1.8345014,1.5009115 2.3333624,1.2608392 2.8856465,1.1458618 a 0.01134032,0.01134033 0 0 1 0.01329,0.00857 0.01134032,0.01134033 0 0 1 -0.00856,0.013573 C 2.341591,1.2822545 1.8456978,1.52075 1.429718,1.8493122 1.0137383,2.1777263 0.67768357,2.5961251 0.44511826,3.0710575 0.33192502,3.3022637 0.24318059,3.5466805 0.1819867,3.8005006 a 0.01134032,0.01134033 0 0 1 -0.0135837,0.00857 z"
     id="path722" /><path
     style="color:#000000;fill:#020202;stroke:#000000;stroke-width:0.150751;stroke-linecap:round;stroke-linejoin:round;stroke-dasharray:none;stroke-opacity:1;fill-opacity:1"
     d="M 0.08630067,4.3155517 A 0.01134032,0.01134033 0 0 1 0.0759634,4.3031428 C 0.0806703,4.2518748 0.08628744,4.202789 0.0925025,4.1560741 0.0988684,4.1093861 0.10573696,4.0649461 0.1131744,4.0225892 0.1204504,3.9802582 0.1283218,3.9400102 0.136209,3.9020979 0.144094,3.8643369 0.1520893,3.8287129 0.16013,3.7951904 a 0.01134032,0.01134033 0 0 1 0.0135837,-0.00826 0.01134032,0.01134033 0 0 1 0.008271,0.013573 C 0.1739967,3.8338144 0.1661997,3.8692794 0.15836,3.9068209 0.150523,3.9445079 0.1428528,3.9843839 0.1356191,4.0264232 0.1282371,4.0684362 0.1212813,4.1125692 0.1149472,4.1590218 0.1087692,4.2054508 0.1033717,4.2542638 0.09870443,4.3052067 a 0.01134032,0.01134033 0 0 1 -0.01240376,0.01035 z"
     id="path723" /><path
     style="color:#000000;fill:#020202;stroke:#000000;stroke-width:0.150751;stroke-linecap:round;stroke-linejoin:round;stroke-dasharray:none;stroke-opacity:1;fill-opacity:1"
     d="m 2.8903736,1.1680207 a 0.01134032,0.01134033 0 0 1 -0.013584,-0.00886 0.01134032,0.01134033 0 0 1 0.00887,-0.013282 L 7.1763738,0.25253058 a 0.01134032,0.01134033 0 0 1 0.013584,0.008572 0.01134032,0.01134033 0 0 1 -0.00887,0.0135731 z"
     id="path724" /><path
     style="color:#000000;fill:#020202;stroke:#000000;stroke-width:0.150751;stroke-linecap:round;stroke-linejoin:round;stroke-dasharray:none;stroke-opacity:1;fill-opacity:1"
     d="m 7.1810916,0.27467621 a 0.01134032,0.01134033 0 0 1 -0.01329,-0.008864 0.01134032,0.01134033 0 0 1 0.00856,-0.0132821 l 0.4642451,-0.0968666 a 0.01134032,0.01134033 0 0 1 0.013584,0.008864 0.01134032,0.01134033 0 0 1 -0.00887,0.0135731 z"
     id="path725" /><path
     style="color:#000000;fill:#020202;stroke:#000000;stroke-width:0.150751;stroke-linecap:round;stroke-linejoin:round;stroke-dasharray:none;stroke-opacity:1;fill-opacity:1"
     d="m 2.2259019,6.6412049 a 0.01134032,0.01134033 0 0 1 -0.011517,-0.011218 0.01134032,0.01134033 0 0 1 0.011517,-0.011218 h 0.00148 a 0.01134032,0.01134033 0 0 1 0.011224,0.011218 0.01134032,0.01134033 0 0 1 -0.011224,0.011218 z"
     id="path829" /><path
     style="color:#000000;fill:#020202;stroke:#000000;stroke-width:0.150751;stroke-linecap:round;stroke-linejoin:round;stroke-dasharray:none;stroke-opacity:1;fill-opacity:1"
     d="M 7.9790482,23.881156 2.7244031,21.968658 a 0.01134032,0.01134033 0 0 1 -0.00679,-0.01476 0.01134032,0.01134033 0 0 1 0.01447,-0.0068 l 5.2546451,1.912795 a 0.01134032,0.01134033 0 0 1 0.00679,0.01447 0.01134032,0.01134033 0 0 1 -0.01447,0.0068 z"
     id="path856" /><path
     style="color:#000000;fill:#020202;stroke:#000000;stroke-width:0.150751;stroke-linecap:round;stroke-linejoin:round;stroke-dasharray:none;stroke-opacity:1;fill-opacity:1"
     d="M 2.7244031,21.968658 C 2.5506515,21.905449 2.3763636,21.841396 2.2052282,21.766363 2.0340965,21.691332 1.8660866,21.605192 1.7058404,21.503822 1.5454412,21.402455 1.3930828,21.285782 1.2531142,21.154162 1.1132965,21.022542 0.98608005,20.87632 0.87539823,20.718269 0.76471482,20.560215 0.67045145,20.39026 0.59454779,20.213862 0.51879361,20.037454 0.46141554,19.854272 0.42090016,19.668995 c -0.0403651,-0.185283 -0.0639236,-0.3726 -0.0758979,-0.559044 -0.0118216,-0.18643 -0.0124037,-0.372028 -0.0124037,-0.556974 a 0.01134032,0.01134033 0 0 1 0.0115173,-0.01122 0.01134032,0.01134033 0 0 1 0.0112236,0.01122 c 0,0.184896 5.8209e-4,0.369967 0.0124037,0.555498 0.0119142,0.185521 0.0352303,0.371835 0.0753068,0.555794 0.040227,0.183963 0.0973201,0.365742 0.17246679,0.540732 0.0753009,0.174998 0.16871526,0.343522 0.27848745,0.500274 0.1097745,0.156755 0.2357667,0.302078 0.3744679,0.432647 0.138852,0.130566 0.2902318,0.246065 0.4494781,0.346705 0.1590967,0.100642 0.3261477,0.186404 0.496434,0.261064 0.1702851,0.07466 0.3439819,0.138213 0.5176986,0.201409 a 0.01134032,0.01134033 0 0 1 0.0068,0.01476 0.01134032,0.01134033 0 0 1 -0.01447,0.0068 z"
     id="path857" /><path
     style="color:#000000;fill:#020202;stroke:#000000;stroke-width:0.150751;stroke-linecap:round;stroke-linejoin:round;stroke-dasharray:none;stroke-opacity:1;fill-opacity:1"
     d="m 8.152106,23.924273 c -0.057378,-0.003 -0.1161457,-0.02246 -0.1730578,-0.04312 a 0.01134032,0.01134033 0 0 1 -0.00679,-0.01447 0.01134032,0.01134033 0 0 1 0.01447,-0.0068 c 0.056397,0.02045 0.1133416,0.03883 0.166266,0.04164 0.053018,0.0026 0.1034171,-0.01013 0.1426398,-0.03751 0.03924,-0.02754 0.068336,-0.07011 0.083872,-0.120785 0.015544,-0.05085 0.017716,-0.110612 0.017716,-0.170696 a 0.01134032,0.01134033 0 0 1 0.011224,-0.01151 0.01134032,0.01134033 0 0 1 0.011517,0.01151 c 0,0.06058 -0.0018,0.122195 -0.018605,0.177194 -0.016822,0.05487 -0.04881,0.102069 -0.09273,0.132893 -0.04394,0.03068 -0.09916,0.04447 -0.1565214,0.04164 z"
     id="path890" /><path
     style="color:#000000;fill:#020202;stroke:#000000;stroke-width:0.150751;stroke-linecap:round;stroke-linejoin:round;stroke-dasharray:none;stroke-opacity:1;fill-opacity:1"
     d="m 3.0660889,6.9114239 c -0.8040327,0 -1.4559322,-0.6519016 -1.4559322,-1.4559334 0,-0.8040317 0.6519005,-1.4559307 1.4559322,-1.4559307 a 0.01134032,0.01134033 0 0 1 0.011224,0.011218 0.01134032,0.01134033 0 0 1 -0.011224,0.011509 c -0.791777,0 -1.4331923,0.6414161 -1.4331923,1.4331923 0,0.7917763 0.6414177,1.4334888 1.4331923,1.4334888 a 0.01134032,0.01134033 0 0 1 0.011224,0.011218 0.01134032,0.01134033 0 0 1 -0.011224,0.011218 z"
     id="path921" /><path
     style="color:#000000;fill:#020202;stroke:#000000;stroke-width:0.150751;stroke-linecap:round;stroke-linejoin:round;stroke-dasharray:none;stroke-opacity:1;fill-opacity:1"
     d="m 3.0660889,6.9114239 a 0.01134032,0.01134033 0 0 1 -0.011517,-0.011218 0.01134032,0.01134033 0 0 1 0.011517,-0.011218 c 0.7917757,0 1.4334879,-0.6417125 1.4334879,-1.4334887 0,-0.7917763 -0.6417111,-1.4331924 -1.4334879,-1.4331924 a 0.01134032,0.01134033 0 0 1 -0.011517,-0.011509 0.01134032,0.01134033 0 0 1 0.011517,-0.011218 c 0.8040325,0 1.455932,0.6518989 1.455932,1.4559306 0,0.8040344 -0.6518982,1.4559334 -1.455932,1.4559334 z"
     id="path922" /><path
     style="color:#000000;fill:#020202;stroke:#000000;stroke-width:0.150751;stroke-linecap:round;stroke-linejoin:round;stroke-dasharray:none;stroke-opacity:1;fill-opacity:1"
     d="m 0.34411569,4.6430662 a 0.01134032,0.01134033 0 0 1 -0.0115173,-0.011509 c 0,-1.5457355 1.07723251,-2.9008176 2.60827411,-3.2195876 a 0.01134032,0.01134033 0 0 1 0.013584,0.00857 0.01134032,0.01134033 0 0 1 -0.00885,0.013573 C 1.425041,1.7507205 0.35534302,3.0963702 0.35534302,4.6315701 a 0.01134032,0.01134033 0 0 1 -0.0112236,0.011509 z"
     id="path968" /><path
     style="color:#000000;fill:#020202;stroke:#000000;stroke-width:0.150751;stroke-linecap:round;stroke-linejoin:round;stroke-dasharray:none;stroke-opacity:1;fill-opacity:1"
     d="m 0.34411569,18.564494 a 0.01134032,0.01134033 0 0 1 -0.0115173,-0.01151 V 4.6315542 a 0.01134032,0.01134033 0 0 1 0.0115173,-0.011218 0.01134032,0.01134033 0 0 1 0.0112236,0.011218 V 18.552985 a 0.01134032,0.01134033 0 0 1 -0.0112236,0.01151 z"
     id="path969" /><path
     style="color:#000000;fill:#020202;stroke:#000000;stroke-width:0.150751;stroke-linecap:round;stroke-linejoin:round;stroke-dasharray:none;stroke-opacity:1;fill-opacity:1"
     d="m 2.9455979,1.4341069 a 0.01134032,0.01134033 0 0 1 -0.013287,-0.00886 0.01134032,0.01134033 0 0 1 0.00856,-0.013282 L 8.0245271,0.35352998 a 0.01134032,0.01134033 0 0 1 0.01329,0.008864 0.01134032,0.01134033 0 0 1 -0.00887,0.0132821 z"
     id="path970" /><path
     style="color:#000000;fill:#020202;stroke:#000000;stroke-width:0.150751;stroke-linecap:round;stroke-linejoin:round;stroke-dasharray:none;stroke-opacity:1;fill-opacity:1"
     d="M 8.4084447,0.68635466 A 0.01134032,0.01134033 0 0 1 8.397221,0.67513632 c 0,-0.051599 -0.00201,-0.1031875 -0.015946,-0.148844 C 8.367363,0.48081042 8.341369,0.44008052 8.305968,0.41141288 a 0.01134146,0.01134146 0 0 1 -3.44e-4,0 c -0.03526,-0.0288078 -0.080221,-0.0461539 -0.1275794,-0.0504984 -0.047516,-0.004339 -0.098574,0.004233 -0.1491374,0.0147637 a 0.01134032,0.01134033 0 0 1 -0.01329,-0.008572 0.01134032,0.01134033 0 0 1 0.00887,-0.0135731 c 0.051047,-0.0106363 0.1039591,-0.0200819 0.1556348,-0.0153723 0.051528,0.004736 0.1008486,0.023839 0.1399826,0.0558165 0.039193,0.0318082 0.067883,0.0764143 0.082985,0.12580938 0.015121,0.0496041 0.016833,0.10320866 0.016833,0.15533687 a 0.01134032,0.01134033 0 0 1 -0.011528,0.0112183 z"
     id="path971" /><path
     style="color:#000000;fill:#020202;stroke:#000000;stroke-width:0.150751;stroke-linecap:round;stroke-linejoin:round;stroke-dasharray:none;stroke-opacity:1;fill-opacity:1"
     d="M 8.4084447,23.583767 A 0.01134032,0.01134033 0 0 1 8.397221,23.572549 V 0.67513632 a 0.01134032,0.01134033 0 0 1 0.011224,-0.0115094 0.01134032,0.01134033 0 0 1 0.011517,0.0115094 V 23.572552 a 0.01134032,0.01134033 0 0 1 -0.011517,0.01122 z"
     id="path972" /><path
     style="color:#000000;fill:#020202;stroke:#000000;stroke-width:0.150751;stroke-linecap:round;stroke-linejoin:round;stroke-dasharray:none;stroke-opacity:1;fill-opacity:1"
     d="M 0.1282366,4.4322065 C 0.08992837,4.3962523 0.07086567,4.3579724 0.07596499,4.3031507 a 0.01134032,0.01134033 0 0 1 0.01240366,-0.010345 0.01134032,0.01134033 0 0 1 0.01033727,0.012409 C 0.09412863,4.354419 0.1081198,4.382367 0.1435946,4.4156648 a 0.01134032,0.01134033 0 0 1 5.8209e-4,0.016245 0.01134032,0.01134033 0 0 1 -0.0159491,2.646e-4 z"
     id="path999" /><path
     style="color:#000000;fill:#020202;stroke:#000000;stroke-width:0.150751;stroke-linecap:round;stroke-linejoin:round;stroke-dasharray:none;stroke-opacity:1;fill-opacity:1"
     d="m 0.32757791,4.6793882 a 0.01134032,0.01134033 0 0 1 -0.007382,-0.00413 C 0.2895057,4.6370099 0.25779194,4.5978622 0.22569296,4.5571322 0.19346327,4.5164287 0.1603504,4.4743017 0.12676102,4.4310291 a 0.01134032,0.01134033 0 0 1 0.002064,-0.015954 0.01134032,0.01134033 0 0 1 0.0159464,0.00212 c 0.0335452,0.043214 0.0664535,0.085161 0.0986367,0.1258068 0.0320111,0.040619 0.0638043,0.079867 0.0945028,0.1181285 a 0.01134032,0.01134033 0 0 1 -0.001773,0.015954 0.01134032,0.01134033 0 0 1 -0.008562,0.00238 z"
     id="path1016" /><path
     style="color:#000000;fill:#020202;stroke:#000000;stroke-width:0.150751;stroke-linecap:round;stroke-linejoin:round;stroke-dasharray:none;stroke-opacity:1;fill-opacity:1"
     d="M 8.0059227,0.37715198 7.7670095,0.21531694 a 0.01134032,0.01134033 0 0 1 -0.00294,-0.0156633 0.01134032,0.01134033 0 0 1 0.015653,-0.002937 L 8.018638,0.35825535 a 0.01134032,0.01134033 0 0 1 0.00294,0.0159544 0.01134032,0.01134033 0 0 1 -0.015653,0.002937 z"
     id="path1043" /><path
     style="color:#000000;fill:#020202;stroke:#000000;stroke-width:0.150751;stroke-linecap:round;stroke-linejoin:round;stroke-dasharray:none;stroke-opacity:1;fill-opacity:1"
     d="m 7.7738013,0.21738333 a 0.01134032,0.01134033 0 0 1 -0.00827,-0.002937 C 7.7272156,0.17933625 7.696955,0.16736914 7.6453353,0.17812181 a 0.01134032,0.01134033 0 0 1 -0.01329,-0.008864 0.01134032,0.01134033 0 0 1 0.00856,-0.0135996 c 0.057246,-0.0119327 0.099058,0.00418 0.1402768,0.0419365 a 0.01134032,0.01134033 0 0 1 9.26e-4,0.0162454 0.01134032,0.01134033 0 0 1 -0.00797,0.003545 z"
     id="path1044" /><path
     style="color:#000000;fill:#020202;stroke:#000000;stroke-width:0.150751;stroke-linecap:round;stroke-linejoin:round;stroke-dasharray:none;stroke-opacity:1;fill-opacity:1"
     d="m 0.16840061,3.8090784 a 0.01134032,0.01134033 0 0 1 -0.008271,-0.013891 C 0.22171389,3.539751 0.31082053,3.2937044 0.42473688,3.0610192 0.65878756,2.58306 0.99716662,2.1621317 1.415834,1.8315984 1.8345014,1.5009115 2.3333624,1.2608392 2.8856465,1.1458618 a 0.01134032,0.01134033 0 0 1 0.01329,0.00857 0.01134032,0.01134033 0 0 1 -0.00856,0.013573 C 2.341591,1.2822545 1.8456978,1.52075 1.429718,1.8493122 1.0137383,2.1777263 0.67768357,2.5961251 0.44511826,3.0710575 0.33192502,3.3022637 0.24318059,3.5466805 0.1819867,3.8005006 a 0.01134032,0.01134033 0 0 1 -0.0135837,0.00857 z"
     id="path1061" /><path
     style="color:#000000;fill:#020202;stroke:#000000;stroke-width:0.150751;stroke-linecap:round;stroke-linejoin:round;stroke-dasharray:none;stroke-opacity:1;fill-opacity:1"
     d="M 0.08630067,4.3155517 A 0.01134032,0.01134033 0 0 1 0.0759634,4.3031428 C 0.0806703,4.2518748 0.08628744,4.202789 0.0925025,4.1560741 0.0988684,4.1093861 0.10573696,4.0649461 0.1131744,4.0225892 0.1204504,3.9802582 0.1283218,3.9400102 0.136209,3.9020979 0.144094,3.8643369 0.1520893,3.8287129 0.16013,3.7951904 a 0.01134032,0.01134033 0 0 1 0.0135837,-0.00826 0.01134032,0.01134033 0 0 1 0.008271,0.013573 C 0.1739967,3.8338144 0.1661997,3.8692794 0.15836,3.9068209 0.150523,3.9445079 0.1428528,3.9843839 0.1356191,4.0264232 0.1282371,4.0684362 0.1212813,4.1125692 0.1149472,4.1590218 0.1087692,4.2054508 0.1033717,4.2542638 0.09870443,4.3052067 a 0.01134032,0.01134033 0 0 1 -0.01240376,0.01035 z"
     id="path1062" /><path
     style="color:#000000;fill:#020202;stroke:#000000;stroke-width:0.150751;stroke-linecap:round;stroke-linejoin:round;stroke-dasharray:none;stroke-opacity:1;fill-opacity:1"
     d="m 2.8903736,1.1680207 a 0.01134032,0.01134033 0 0 1 -0.013584,-0.00886 0.01134032,0.01134033 0 0 1 0.00887,-0.013282 L 7.1763738,0.25253058 a 0.01134032,0.01134033 0 0 1 0.013584,0.008572 0.01134032,0.01134033 0 0 1 -0.00887,0.0135731 z"
     id="path1063" /><path
     style="color:#000000;fill:#020202;stroke:#000000;stroke-width:0.150751;stroke-linecap:round;stroke-linejoin:round;stroke-dasharray:none;stroke-opacity:1;fill-opacity:1"
     d="m 7.1810916,0.27467621 a 0.01134032,0.01134033 0 0 1 -0.01329,-0.008864 0.01134032,0.01134033 0 0 1 0.00856,-0.0132821 l 0.4642451,-0.0968666 a 0.01134032,0.01134033 0 0 1 0.013584,0.008864 0.01134032,0.01134033 0 0 1 -0.00887,0.0135731 z"
     id="path1064" /><path
     style="color:#000000;fill:#020202;stroke:#000000;stroke-width:0.150751;stroke-linecap:round;stroke-linejoin:round;stroke-dasharray:none;stroke-opacity:1;fill-opacity:1"
     d="M 7.9790482,23.881156 2.7244031,21.968658 a 0.01134032,0.01134033 0 0 1 -0.00679,-0.01476 0.01134032,0.01134033 0 0 1 0.01447,-0.0068 l 5.2546451,1.912795 a 0.01134032,0.01134033 0 0 1 0.00679,0.01447 0.01134032,0.01134033 0 0 1 -0.01447,0.0068 z"
     id="path1096" /><path
     style="color:#000000;fill:#020202;stroke:#000000;stroke-width:0.150751;stroke-linecap:round;stroke-linejoin:round;stroke-dasharray:none;stroke-opacity:1;fill-opacity:1"
     d="M 2.7244031,21.968658 C 2.5506515,21.905449 2.3763636,21.841396 2.2052282,21.766363 2.0340965,21.691332 1.8660866,21.605192 1.7058404,21.503822 1.5454412,21.402455 1.3930828,21.285782 1.2531142,21.154162 1.1132965,21.022542 0.98608005,20.87632 0.87539823,20.718269 0.76471482,20.560215 0.67045145,20.39026 0.59454779,20.213862 0.51879361,20.037454 0.46141554,19.854272 0.42090016,19.668995 c -0.0403651,-0.185283 -0.0639236,-0.3726 -0.0758979,-0.559044 -0.0118216,-0.18643 -0.0124037,-0.372028 -0.0124037,-0.556974 a 0.01134032,0.01134033 0 0 1 0.0115173,-0.01122 0.01134032,0.01134033 0 0 1 0.0112236,0.01122 c 0,0.184896 5.8209e-4,0.369967 0.0124037,0.555498 0.0119142,0.185521 0.0352303,0.371835 0.0753068,0.555794 0.040227,0.183963 0.0973201,0.365742 0.17246679,0.540732 0.0753009,0.174998 0.16871526,0.343522 0.27848745,0.500274 0.1097745,0.156755 0.2357667,0.302078 0.3744679,0.432647 0.138852,0.130566 0.2902318,0.246065 0.4494781,0.346705 0.1590967,0.100642 0.3261477,0.186404 0.496434,0.261064 0.1702851,0.07466 0.3439819,0.138213 0.5176986,0.201409 a 0.01134032,0.01134033 0 0 1 0.0068,0.01476 0.01134032,0.01134033 0 0 1 -0.01447,0.0068 z"
     id="path1097" /><path
     style="color:#000000;fill:#020202;stroke:#000000;stroke-width:0.150751;stroke-linecap:round;stroke-linejoin:round;stroke-dasharray:none;stroke-opacity:1;fill-opacity:1"
     d="m 2.9455979,1.4341069 a 0.01134032,0.01134033 0 0 1 -0.013287,-0.00886 0.01134032,0.01134033 0 0 1 0.00856,-0.013282 L 8.0245271,0.35352998 a 0.01134032,0.01134033 0 0 1 0.01329,0.008864 0.01134032,0.01134033 0 0 1 -0.00887,0.0132821 z"
     id="path1107" /><path
     style="color:#000000;fill:#020202;stroke:#000000;stroke-width:0.150751;stroke-linecap:round;stroke-linejoin:round;stroke-dasharray:none;stroke-opacity:1;fill-opacity:1"
     d="M 8.4084447,0.68635466 A 0.01134032,0.01134033 0 0 1 8.397221,0.67513632 c 0,-0.051599 -0.00201,-0.1031875 -0.015946,-0.148844 C 8.367363,0.48081042 8.341369,0.44008052 8.305968,0.41141288 a 0.01134146,0.01134146 0 0 1 -3.44e-4,0 c -0.03526,-0.0288078 -0.080221,-0.0461539 -0.1275794,-0.0504984 -0.047516,-0.004339 -0.098574,0.004233 -0.1491374,0.0147637 a 0.01134032,0.01134033 0 0 1 -0.01329,-0.008572 0.01134032,0.01134033 0 0 1 0.00887,-0.0135731 c 0.051047,-0.0106363 0.1039591,-0.0200819 0.1556348,-0.0153723 0.051528,0.004736 0.1008486,0.023839 0.1399826,0.0558165 0.039193,0.0318082 0.067883,0.0764143 0.082985,0.12580938 0.015121,0.0496041 0.016833,0.10320866 0.016833,0.15533687 a 0.01134032,0.01134033 0 0 1 -0.011528,0.0112183 z"
     id="path1108" /><path
     style="fill:#020202;stroke:#000000;stroke-width:0.029246;stroke-opacity:1;fill-opacity:1"
     d="M 5.302007,22.785586 C 3.7682767,22.226664 2.4191822,21.729594 2.3040194,21.680987 1.2837683,21.250359 0.66756379,20.489507 0.49992353,19.453394 0.46039187,19.209067 0.45502691,18.288785 0.45492346,11.73458 0.45480651,4.3260186 0.45507268,4.2918556 0.5152003,3.9968055 0.63610615,3.4035091 0.90480084,2.894718 1.3346871,2.4450481 1.7137699,2.0485197 2.1123565,1.7898418 2.5924411,1.6287793 2.7600891,1.5725369 8.0712523,0.44418946 8.1683448,0.44418946 c 0.013454,0 0.050743,0.0262731 0.082863,0.0584015 0.058203,0.058203 0.0584,0.0973323 0.0584,11.62352204 0,7.916291 -0.00954,11.582942 -0.030227,11.621603 -0.01882,0.03517 -0.060144,0.05603 -0.1094999,0.05528 -0.0436,-5.29e-4 -1.3341429,-0.458496 -2.8678732,-1.017415 z m 1.2319434,-4.463691 c 0.070563,-0.08234 0.2280568,-0.375414 0.2280568,-0.424389 0,-0.02474 -0.053696,-0.138115 -0.1193242,-0.251947 L 6.5233588,17.438594 H 5.6258903 4.7284218 l -0.1220076,0.213241 c -0.067104,0.117285 -0.1220075,0.229921 -0.1220075,0.250301 0,0.03809 0.1137988,0.248106 0.2116301,0.390557 l 0.055147,0.0803 H 5.62067 c 0.7919318,0 0.8733922,-0.0046 0.9132806,-0.0511 z m 0,-2.628 c 0.070563,-0.08234 0.2280568,-0.375415 0.2280568,-0.424389 0,-0.02474 -0.053696,-0.138115 -0.1193242,-0.251947 L 6.5233588,14.810594 H 5.6264925 4.7296265 l -0.1226101,0.2155 c -0.067435,0.118523 -0.1226097,0.231159 -0.1226097,0.250299 0,0.03619 0.1160531,0.249129 0.2116301,0.3883 l 0.055147,0.0803 H 5.62067 c 0.7919318,0 0.8733922,-0.0046 0.9132806,-0.0511 z m -0.1604714,-3.494112 0.081928,-0.07041 0.0146,-0.623091 0.0146,-0.623091 0.6230906,-0.0146 0.6230903,-0.01461 0.07041,-0.08193 c 0.069995,-0.08145 0.070409,-0.08588 0.070409,-0.753229 V 9.3475273 L 7.799934,9.2758544 c -0.07131,-0.071311 -0.074622,-0.071673 -0.6546117,-0.071673 -0.3206166,0 -0.6037239,-0.00796 -0.6291273,-0.017727 -0.039981,-0.015346 -0.046188,-0.09598 -0.046188,-0.6000486 0,-0.616069 -0.018336,-0.7155021 -0.1443826,-0.7829603 -0.03356,-0.017965 -0.3102938,-0.030067 -0.6873481,-0.030067 -0.7235505,0 -0.7801234,0.013414 -0.8311473,0.1971463 -0.016719,0.060201 -0.03047,0.3544226 -0.03056,0.6538304 -1.4e-4,0.4693656 -0.00653,0.5468171 -0.046351,0.5620994 -0.025403,0.00976 -0.3061219,0.017727 -0.6238182,0.017727 h -0.57763 l -0.076982,0.076983 -0.076982,0.076981 v 0.6549384 c 0,0.390567 0.012057,0.677466 0.029869,0.710748 0.061286,0.114514 0.1407763,0.129683 0.758531,0.144751 l 0.5986002,0.01461 0.0146,0.598601 c 0.014896,0.610761 0.03011,0.693587 0.1390579,0.75706 0.030063,0.01752 0.320807,0.02992 0.713414,0.03045 0.6588265,0.0011 0.6631472,5.29e-4 0.7446002,-0.06952 z M 3.745785,7.5322951 C 4.4260062,7.2949427 4.9203318,6.7981213 5.1474062,6.1235926 5.2186341,5.9120079 5.226143,5.848709 5.2270772,5.4519927 5.2280562,5.034422 5.2238599,5.0020582 5.1370231,4.7581653 5.0106835,4.4033167 4.8874525,4.2079457 4.6158067,3.9318239 4.3510847,3.6627426 4.0871938,3.4947004 3.7398067,3.3740002 3.5241827,3.2990834 3.4725016,3.2928816 3.0682064,3.2934292 2.6763662,3.2939584 2.6066135,3.3019224 2.4063401,3.3690313 2.0410503,3.4914302 1.8110114,3.6370463 1.5179317,3.9314005 1.2116127,4.2390527 1.0518481,4.5213949 0.94725959,4.9399102 0.86569675,5.2662896 0.88113148,5.8161467 0.98007639,6.1089929 1.2259926,6.8368246 1.7895905,7.3767439 2.505508,7.5703316 2.8200397,7.6553846 3.4482393,7.6361176 3.745785,7.5322951 Z M 6.8675696,3.7396279 C 7.1477046,3.6693678 7.137394,3.681364 7.2226216,3.3265657 L 7.2702379,3.1283425 6.6586834,2.516266 C 6.3223281,2.1796233 6.0238498,1.9041894 5.9953981,1.9041894 c -0.070836,0 -0.4654989,0.1108287 -0.4931576,0.1384882 -0.012295,0.012303 -0.051578,0.1315377 -0.087294,0.2649829 l -0.064939,0.2426256 0.6254451,0.6259512 c 0.3439948,0.3442759 0.6293204,0.625954 0.6340565,0.625954 0.00474,0 0.1208635,-0.028154 0.2580605,-0.062563 z"
     id="path1" /><path
     id="path608"
     style="color:#000000;fill:#020202;stroke:#000000;stroke-width:0.0882899;stroke-linecap:round;stroke-linejoin:round;stroke-dasharray:none;stroke-opacity:1;fill-opacity:1"
     d="m 20.149157,3.4529307 c -0.02025,0.00495 -0.0055,0.026773 0.003,0.035253 0.08905,0.1337284 0.178324,0.2671287 0.267408,0.400857 4.76e-4,0.1030896 -9.26e-4,0.2063433 6.88e-4,0.3093271 0.0098,0.014288 0.03001,0.00505 0.04472,0.00767 0.02281,-7.938e-4 0.04608,0.00159 0.0686,-0.00106 0.0138,-0.00955 0.004,-0.02903 0.0069,-0.042825 0,-0.091107 0,-0.1822159 0,-0.2733225 0.09582,-0.1403165 0.195091,-0.2806224 0.290475,-0.4220634 -6.88e-4,-0.021643 -0.02783,-0.011007 -0.04194,-0.013547 -0.02926,0.00132 -0.05953,-0.00238 -0.08811,0.00212 -0.05798,0.08355 -0.111436,0.1688968 -0.167521,0.2534259 -0.01726,0.018812 -0.03579,0.072591 -0.051,0.070416 -0.05442,-0.096348 -0.119439,-0.1870525 -0.178773,-0.2810166 -0.01451,-0.015452 -0.02002,-0.050443 -0.04722,-0.044651 -0.03573,-2.328e-4 -0.0717,5.292e-4 -0.107295,-5.292e-4 z m 0.0219,0.022595 c 0.02996,0 0.05992,0 0.08988,0 0.06684,0.1036029 0.136487,0.2057691 0.199987,0.3116633 0.0042,0.029586 0.03447,0.043397 0.046,0.00598 0.06507,-0.108212 0.137138,-0.2116746 0.205779,-0.3180054 0.02813,0 0.05627,0 0.08441,0 -0.09283,0.1358318 -0.18727,0.2701952 -0.279263,0.4063841 -0.0024,0.062249 -3.44e-4,0.1251771 -0.0011,0.1876902 0,0.037965 0,0.075935 0,0.1139004 -0.02479,0 -0.04958,0 -0.07437,0 0,-0.099391 0,-0.1987841 0,-0.2981721 C 20.41295,3.8338482 20.37704,3.7865042 20.34535,3.736273 20.28695,3.649564 20.229006,3.5614469 20.171012,3.475542 Z" /><path
     style="color:#000000;fill:#020202;stroke:#000000;stroke-width:0.0882899;stroke-linecap:round;stroke-linejoin:round;stroke-dasharray:none;stroke-opacity:1;fill-opacity:1"
     d="m 22.11259,5.3714985 c -0.03339,-0.026461 0.02954,-0.023627 0.04776,-0.024342 0.0176,-0.00106 0.07811,-0.018389 0.05383,0.01397 -0.03273,0.00979 -0.06805,0.010213 -0.101589,0.010398 z"
     id="path623" /><path
     style="color:#000000;fill:#020202;stroke:#000000;stroke-width:0.0882899;stroke-linecap:round;stroke-linejoin:round;stroke-dasharray:none;stroke-opacity:1;fill-opacity:1"
     d="m 21.954299,5.3714985 c -0.01928,-0.00693 -0.0089,-0.03153 -0.01152,-0.04763 0,-0.061402 0,-0.1228011 0,-0.1842003 0.02079,-0.029919 0.02591,0.014843 0.02274,0.032123 0,0.062828 0,0.125656 0,0.1884839 l -0.0033,0.00791 z"
     id="path624" /><path
     style="color:#000000;fill:#020202;stroke:#000000;stroke-width:0.0882899;stroke-linecap:round;stroke-linejoin:round;stroke-dasharray:none;stroke-opacity:1;fill-opacity:1"
     d="m 21.954299,5.3714985 c -0.03052,-0.020399 0.01471,-0.026061 0.03212,-0.022728 0.04347,5.292e-4 0.0872,-0.00132 0.130512,0.00106 0.02094,0.022093 -0.01877,0.024024 -0.03433,0.021828 -0.04277,0 -0.08554,0 -0.128309,0 z"
     id="path625" /><path
     style="color:#000000;fill:#020202;stroke:#000000;stroke-width:0.0882899;stroke-linecap:round;stroke-linejoin:round;stroke-dasharray:none;stroke-opacity:1;fill-opacity:1"
     d="m 21.858024,5.4137287 c -0.02356,-0.02286 -0.0052,-0.068376 -0.01087,-0.1007824 -2.33e-4,-0.086603 4.76e-4,-0.1732042 3.44e-4,-0.2598077 0.02067,-0.029927 0.02597,0.014843 0.02274,0.032123 5.3e-5,0.1057487 -9.26e-4,0.2114947 -6.88e-4,0.3172434 l -0.0034,0.00802 z"
     id="path626" /><path
     style="color:#000000;fill:#020202;stroke:#000000;stroke-width:0.0882899;stroke-linecap:round;stroke-linejoin:round;stroke-dasharray:none;stroke-opacity:1;fill-opacity:1"
     d="m 21.85773,5.7952843 c -0.0227,-0.018627 -0.0063,-0.058867 -0.01122,-0.086902 -1.8e-5,-0.1019572 4.76e-4,-0.2039144 3.44e-4,-0.3058742 0.01897,-0.03071 0.02663,0.010927 0.02274,0.027839 -4.76e-4,0.1179036 -1.16e-4,0.2358099 -6.87e-4,0.3537135 0.01176,0.00614 -0.01699,0.011245 -0.01117,0.011218 z"
     id="path627" /><path
     style="color:#000000;fill:#020202;stroke:#000000;stroke-width:0.0882899;stroke-linecap:round;stroke-linejoin:round;stroke-dasharray:none;stroke-opacity:1;fill-opacity:1"
     d="m 22.341169,5.7282468 c -0.002,-0.030311 0.03795,-0.052917 0.04368,-0.085937 0.01787,-0.022543 -0.002,-0.08123 0.03185,-0.077309 0.0086,0.030882 -0.0036,0.065662 -0.01469,0.095223 -0.01366,0.022543 -0.03111,0.072247 -0.06083,0.068022 z"
     id="path628" /><path
     style="color:#000000;fill:#020202;stroke:#000000;stroke-width:0.0882899;stroke-linecap:round;stroke-linejoin:round;stroke-dasharray:none;stroke-opacity:1;fill-opacity:1"
     d="m 22.135921,5.7952843 c -0.03249,-0.025638 0.02734,-0.023601 0.04545,-0.024077 0.05672,-0.00455 0.117906,-0.016457 0.159204,-0.058917 0.0455,-0.0027 -0.0086,0.042627 -0.02788,0.048945 -0.054,0.028453 -0.116787,0.033721 -0.176779,0.034057 z"
     id="path629" /><path
     style="color:#000000;fill:#020202;stroke:#000000;stroke-width:0.0882899;stroke-linecap:round;stroke-linejoin:round;stroke-dasharray:none;stroke-opacity:1;fill-opacity:1"
     d="m 21.85773,5.7952843 c -0.02982,-0.020611 0.01499,-0.025559 0.03212,-0.022437 0.08202,0 0.164044,0 0.246067,0 0.02982,0.020585 -0.01499,0.025559 -0.03212,0.022437 -0.08202,0 -0.164044,0 -0.246067,0 z"
     id="path630" /><path
     style="color:#000000;fill:#020202;stroke:#000000;stroke-width:0.0882899;stroke-linecap:round;stroke-linejoin:round;stroke-dasharray:none;stroke-opacity:1;fill-opacity:1"
     d="m 22.282401,5.4098896 c -0.0426,0.00132 -0.0089,-0.042804 0.01288,-0.016219 0.005,0.00788 -0.0035,0.019341 -0.01288,0.016219 z"
     id="path631" /><path
     style="color:#000000;fill:#020202;stroke:#000000;stroke-width:0.0882899;stroke-linecap:round;stroke-linejoin:round;stroke-dasharray:none;stroke-opacity:1;fill-opacity:1"
     d="m 22.223041,5.4680688 c -0.03476,-0.016589 -0.08459,0.00132 -0.111105,-0.022146 0.02903,-0.024447 0.08447,-0.0063 0.121495,0.00238 0.0095,0.00706 0.0015,0.02368 -0.01039,0.019791 z"
     id="path632" /><path
     style="color:#000000;fill:#020202;stroke:#000000;stroke-width:0.0882899;stroke-linecap:round;stroke-linejoin:round;stroke-dasharray:none;stroke-opacity:1;fill-opacity:1"
     d="m 21.954299,5.4571415 c -0.03052,-0.020373 0.01471,-0.026061 0.03212,-0.022728 0.04712,5.292e-4 0.09449,-0.00132 0.141443,0.00106 0.02093,0.022093 -0.01878,0.024024 -0.03433,0.021828 -0.04641,0 -0.09282,0 -0.139236,0 z"
     id="path633" /><path
     style="color:#000000;fill:#020202;stroke:#000000;stroke-width:0.0882899;stroke-linecap:round;stroke-linejoin:round;stroke-dasharray:none;stroke-opacity:1;fill-opacity:1"
     d="m 21.954299,5.7084587 c -0.01926,-0.00706 -0.0089,-0.031732 -0.01152,-0.047935 0,-0.071538 0,-0.1430761 0,-0.2146168 0.01898,-0.030686 0.02663,0.010927 0.02274,0.027842 -4.76e-4,0.075827 0.0011,0.1518444 -8.2e-4,0.2275523 -0.0016,0.00421 -0.0059,0.00717 -0.01043,0.00717 z"
     id="path634" /><path
     style="color:#000000;fill:#020202;stroke:#000000;stroke-width:0.0882899;stroke-linecap:round;stroke-linejoin:round;stroke-dasharray:none;stroke-opacity:1;fill-opacity:1"
     d="m 21.954299,5.7084587 c -0.03054,-0.020505 0.01472,-0.026009 0.03212,-0.022728 0.04983,0 0.09967,0 0.149498,0 0.03009,0.019024 -0.01106,0.026628 -0.02784,0.022728 -0.05126,0 -0.102522,0 -0.153782,0 z"
     id="path635" /><path
     style="color:#000000;fill:#020202;stroke:#000000;stroke-width:0.0882899;stroke-linecap:round;stroke-linejoin:round;stroke-dasharray:none;stroke-opacity:1;fill-opacity:1"
     d="m 22.135921,5.7084587 c -0.03054,-0.020505 0.01472,-0.026009 0.03212,-0.022728 0.01548,0.00132 0.03203,-0.00304 0.04656,0.0032 0.01222,0.025665 -0.0234,0.018759 -0.03808,0.019526 -0.01353,0 -0.02707,0 -0.0406,0 z"
     id="path636" /><path
     style="color:#000000;fill:#020202;stroke:#000000;stroke-width:0.0882899;stroke-linecap:round;stroke-linejoin:round;stroke-dasharray:none;stroke-opacity:1;fill-opacity:1"
     d="m 22.217134,5.7034395 c -0.0369,-0.018097 0.02697,-0.032848 0.04335,-0.041476 0.03125,0.020108 -0.03001,0.037322 -0.04335,0.041476 z"
     id="path637" /><path
     style="color:#000000;fill:#020202;stroke:#000000;stroke-width:0.0882899;stroke-linecap:round;stroke-linejoin:round;stroke-dasharray:none;stroke-opacity:1;fill-opacity:1"
     d="m 22.264386,5.6827676 c -0.04263,-0.00442 0.01486,-0.03565 0.02008,-0.055515 0.03947,-0.015187 0.0093,0.034737 -0.008,0.046466 0.0011,-0.00429 -0.01276,0.014155 -0.01204,0.00905 z"
     id="path638" /><path
     style="color:#000000;fill:#020202;stroke:#000000;stroke-width:0.0882899;stroke-linecap:round;stroke-linejoin:round;stroke-dasharray:none;stroke-opacity:1;fill-opacity:1"
     d="m 22.288898,5.6426039 c -0.009,-0.022807 0.01284,-0.052218 0.01189,-0.078483 0.03795,-0.00825 0.01513,0.081272 -0.01189,0.078481 z"
     id="path639" /><path
     style="color:#000000;fill:#020202;stroke:#000000;stroke-width:0.0882899;stroke-linecap:round;stroke-linejoin:round;stroke-dasharray:none;stroke-opacity:1;fill-opacity:1"
     d="m 22.308979,5.5835383 c -0.02045,-0.019791 -0.0115,-0.062854 -0.03447,-0.08695 0.02844,-0.025003 0.04429,0.040145 0.04534,0.064267 9.26e-4,0.00852 0.0017,0.022463 -0.01086,0.022675 z"
     id="path640" /><path
     style="color:#000000;fill:#020202;stroke:#000000;stroke-width:0.0882899;stroke-linecap:round;stroke-linejoin:round;stroke-dasharray:none;stroke-opacity:1;fill-opacity:1"
     d="m 22.292737,5.5067562 c -0.02717,-0.00132 -0.04703,-0.037245 -0.07644,-0.04436 0.01064,-0.036446 0.0625,0.00828 0.07821,0.02871 0.0037,0.0046 0.0029,0.012012 -0.0018,0.015663 z"
     id="path641" /><path
     style="color:#000000;fill:#020202;stroke:#000000;stroke-width:0.0882899;stroke-linecap:round;stroke-linejoin:round;stroke-dasharray:none;stroke-opacity:1;fill-opacity:1"
     d="m 22.326108,5.1190014 c -0.03844,-0.00905 -0.07714,-0.050938 -0.125216,-0.04967 -0.02373,-0.011351 -0.08118,0.010372 -0.07749,-0.024236 0.02873,-0.00733 0.06002,-2.355e-4 0.08934,0.0032 0.04266,0.00902 0.09334,0.024077 0.116764,0.062759 0.0042,0.00286 -0.0057,0.00601 -0.0034,0.00794 z"
     id="path642" /><path
     style="color:#000000;fill:#020202;stroke:#000000;stroke-width:0.0882899;stroke-linecap:round;stroke-linejoin:round;stroke-dasharray:none;stroke-opacity:1;fill-opacity:1"
     d="m 21.858616,5.0643649 c -0.0298,-0.020611 0.015,-0.025559 0.03212,-0.022437 0.08025,0 0.160501,0 0.240752,0 0.02982,0.020585 -0.01499,0.025559 -0.03212,0.022437 -0.08025,0 -0.1605,0 -0.240751,0 z"
     id="path643" /><path
     style="color:#000000;fill:#020202;stroke:#000000;stroke-width:0.0882899;stroke-linecap:round;stroke-linejoin:round;stroke-dasharray:none;stroke-opacity:1;fill-opacity:1"
     d="m 22.214477,5.3608676 c -0.04085,-0.013335 0.02134,-0.030033 0.03129,-0.04686 0.0199,-0.026845 0.03471,0.011668 0.01073,0.021352 -0.0118,0.011695 -0.02639,0.020135 -0.04203,0.025532 z"
     id="path644" /><path
     style="color:#000000;fill:#020202;stroke:#000000;stroke-width:0.0882899;stroke-linecap:round;stroke-linejoin:round;stroke-dasharray:none;stroke-opacity:1;fill-opacity:1"
     d="m 22.252278,5.3245429 c -0.0041,-0.024447 0.0194,-0.052229 0.01778,-0.080312 0.03593,-0.00389 0.01408,0.054904 8.2e-4,0.074276 -0.0033,0.00627 -0.0118,0.011721 -0.01859,0.00603 z"
     id="path645" /><path
     style="color:#000000;fill:#020202;stroke:#000000;stroke-width:0.0882899;stroke-linecap:round;stroke-linejoin:round;stroke-dasharray:none;stroke-opacity:1;fill-opacity:1"
     d="m 22.277971,5.2637073 c -0.02099,-0.016457 -0.01185,-0.055663 -0.02822,-0.078912 0.03051,-0.02114 0.03972,0.043071 0.03974,0.0674 2.33e-4,0.00619 -0.0053,0.0118 -0.01152,0.011509 z"
     id="path646" /><path
     style="color:#000000;fill:#020202;stroke:#000000;stroke-width:0.0882899;stroke-linecap:round;stroke-linejoin:round;stroke-dasharray:none;stroke-opacity:1;fill-opacity:1"
     d="m 22.266747,5.1972598 c -0.02381,-0.00312 -0.03874,-0.035655 -0.06538,-0.042183 0.0081,-0.036163 0.0575,0.00521 0.06892,0.02654 0.0034,0.00505 0.0017,0.012568 -0.0035,0.015637 z"
     id="path647" /><path
     style="color:#000000;fill:#020202;stroke:#000000;stroke-width:0.0882899;stroke-linecap:round;stroke-linejoin:round;stroke-dasharray:none;stroke-opacity:1;fill-opacity:1"
     d="m 22.208276,5.1606415 c -0.0352,-0.00939 -0.07217,-0.00902 -0.108438,-0.00958 -0.03216,-0.028043 0.03163,-0.023707 0.05055,-0.021193 0.02092,0.00392 0.08462,-0.00291 0.06626,0.029885 l -0.0084,0.00106 z"
     id="path648" /><path
     style="color:#000000;fill:#020202;stroke:#000000;stroke-width:0.0882899;stroke-linecap:round;stroke-linejoin:round;stroke-dasharray:none;stroke-opacity:1;fill-opacity:1"
     d="m 21.954299,5.1511906 c -0.03055,-0.020505 0.01471,-0.026035 0.03212,-0.022754 0.03782,0 0.07565,0 0.11347,0 0.03069,0.018838 -0.01091,0.026702 -0.02784,0.022754 -0.03925,0 -0.0785,0 -0.117754,0 z"
     id="path649" /><path
     style="color:#000000;fill:#020202;stroke:#000000;stroke-width:0.0882899;stroke-linecap:round;stroke-linejoin:round;stroke-dasharray:none;stroke-opacity:1;fill-opacity:1"
     d="m 22.408502,5.5844246 c -0.02231,-0.023124 -0.0083,-0.070252 -0.03156,-0.098917 -0.01844,-0.034462 -0.0518,-0.058351 -0.08745,-0.072665 -0.022,-0.035497 0.03666,-0.01352 0.04932,2.329e-4 0.0546,0.033007 0.08294,0.097467 0.08127,0.160065 5.82e-4,0.00796 -0.006,0.00966 -0.01159,0.011245 z"
     id="path650" /><path
     style="color:#000000;fill:#020202;stroke:#000000;stroke-width:0.150751;stroke-linecap:round;stroke-linejoin:round;stroke-dasharray:none;stroke-opacity:1;fill-opacity:1"
     d="m 17.822168,11.434733 a 0.01134032,0.01134033 0 0 1 -0.01152,-0.01122 0.01134032,0.01134033 0 0 1 0.01152,-0.01151 c 0.79495,0 1.439099,-0.64429 1.439099,-1.4393942 0,-0.7949513 -0.644149,-1.4390979 -1.439099,-1.4390979 a 0.01134032,0.01134033 0 0 1 -0.01152,-0.011218 0.01134032,0.01134033 0 0 1 0.01152,-0.011509 c 0.807209,0 1.461839,0.6546268 1.461839,1.4618361 0,0.807361 -0.65463,1.462136 -1.461839,1.462136 z"
     id="path659" /><path
     style="color:#000000;fill:#020202;stroke:#000000;stroke-width:0.0882899;stroke-linecap:round;stroke-linejoin:round;stroke-dasharray:none;stroke-opacity:1;fill-opacity:1"
     d="m 22.373065,5.2510073 c -0.02109,-0.031919 -0.01623,-0.088154 -0.05154,-0.1192557 -0.02741,-0.015769 -0.0028,-0.04858 0.01468,-0.01823 0.03046,0.034605 0.04896,0.079981 0.04842,0.1263226 0.0028,0.00185 -0.0082,0.016007 -0.01156,0.011165 z"
     id="path660" /><path
     id="path661"
     style="color:#000000;fill:#020202;stroke:#000000;stroke-width:0.0927042;stroke-linecap:round;stroke-linejoin:round;stroke-dasharray:none;stroke-opacity:1;fill-opacity:1"
     d="m 18.583765,5.0429628 c -0.02337,0.00717 2.33e-4,0.030551 0.0078,0.041251 0.07646,0.1063413 0.151887,0.2134182 0.228862,0.3193838 -0.09162,0.125984 -0.186106,0.2501715 -0.278207,0.3756343 -0.0082,0.017251 0.0166,0.018944 0.02803,0.016986 0.03438,-0.00106 0.06927,0.00185 0.103359,-0.00132 0.03147,-0.037669 0.05792,-0.08042 0.08762,-0.1199859 0.04153,-0.059288 0.0859,-0.1161971 0.124428,-0.1781096 0.069,0.098822 0.138222,0.1980327 0.208237,0.2957566 0.01471,0.00751 0.03334,0.00132 0.04956,0.00336 0.02677,-2.329e-4 0.05363,5.291e-4 0.08035,-2.646e-4 0.02221,-0.00984 -0.0027,-0.028009 -0.0084,-0.038981 -0.08609,-0.1184222 -0.169054,-0.2391621 -0.256277,-0.3567959 0.08232,-0.1149218 0.169005,-0.2265706 0.252261,-0.340659 0.0064,-0.012779 -0.01171,-0.020108 -0.02235,-0.016828 -0.03314,0.00106 -0.06702,-0.00238 -0.09968,0.00185 -0.06229,0.081243 -0.125121,0.1620176 -0.184853,0.2451021 -0.01834,0.04486 -0.03596,-0.0263 -0.05535,-0.042897 -0.0482,-0.067575 -0.09488,-0.1368796 -0.144511,-0.2029989 -0.02358,-0.00389 -0.04882,-2.646e-4 -0.073,-0.00159 -0.01636,-8.47e-5 -0.03273,1.164e-4 -0.04907,-1.165e-4 z m 0.02327,0.022807 c 0.02882,0 0.05764,0 0.08646,0 0.06281,0.091276 0.131796,0.179271 0.188444,0.2739972 0.03312,0.00992 0.03799,-0.049625 0.06138,-0.064913 0.05252,-0.070033 0.105583,-0.1396894 0.158264,-0.20964 0.02563,0 0.05125,0 0.07688,0 -0.08034,0.1093576 -0.164079,0.2167573 -0.242391,0.3277103 -0.0035,0.027636 0.03238,0.045924 0.04269,0.07062 0.07303,0.1033992 0.147332,0.2059014 0.220477,0.3092212 -0.03034,0 -0.06068,0 -0.09102,0 -0.07202,-0.1024069 -0.145313,-0.2029116 -0.214697,-0.3064298 -0.03872,0.00288 -0.04791,0.069054 -0.07824,0.093861 -0.05089,0.070673 -0.101444,0.1415786 -0.152418,0.2121879 -0.02935,0 -0.0587,0 -0.08806,0 0.09031,-0.1223565 0.182894,-0.243033 0.271047,-0.3666304 -0.0084,-0.030745 -0.03873,-0.054586 -0.05446,-0.083053 -0.06152,-0.085323 -0.122388,-0.173175 -0.184348,-0.2569315 z" /><path
     style="color:#000000;fill:#020202;stroke:#000000;stroke-width:0.150751;stroke-linecap:round;stroke-linejoin:round;stroke-dasharray:none;stroke-opacity:1;fill-opacity:1"
     d="m 17.822168,11.434733 c -0.807358,0 -1.462133,-0.654775 -1.462133,-1.4621328 0,-0.8072094 0.654775,-1.4618388 1.462133,-1.4618388 a 0.01134032,0.01134033 0 0 1 0.01122,0.011536 0.01134032,0.01134033 0 0 1 -0.01122,0.011218 c -0.795103,0 -1.439394,0.6441467 -1.439394,1.4390979 0,0.7951047 0.644291,1.4393947 1.439394,1.4393947 a 0.01134032,0.01134033 0 0 1 0.01122,0.01151 0.01134032,0.01134033 0 0 1 -0.01122,0.01122 z"
     id="path678" /><path
     style="color:#000000;fill:#020202;stroke:#000000;stroke-width:0.150751;stroke-linecap:round;stroke-linejoin:round;stroke-dasharray:none;stroke-opacity:1;fill-opacity:1"
     d="m 23.66657,12.82983 a 0.01134032,0.01134033 0 0 1 -0.01152,-0.01151 v -0.11104 a 0.01134032,0.01134033 0 0 1 0.01152,-0.01122 0.01134032,0.01134033 0 0 1 0.01122,0.01122 v 0.11104 a 0.01134032,0.01134033 0 0 1 -0.01122,0.01151 z"
     id="path682" /><path
     style="color:#000000;fill:#020202;stroke:#000000;stroke-width:0.150751;stroke-linecap:round;stroke-linejoin:round;stroke-dasharray:none;stroke-opacity:1;fill-opacity:1"
     d="M 23.66657,12.71879 A 0.01134032,0.01134033 0 0 1 23.65505,12.70728 V 9.340918 A 0.01134032,0.01134033 0 0 1 23.66657,9.3297 0.01134032,0.01134033 0 0 1 23.67779,9.340918 v 3.366363 a 0.01134032,0.01134033 0 0 1 -0.01122,0.01151 z"
     id="path683" /><path
     style="color:#000000;fill:#020202;stroke:#000000;stroke-width:0.150751;stroke-linecap:round;stroke-linejoin:round;stroke-dasharray:none;stroke-opacity:1;fill-opacity:1"
     d="M 23.66657,9.3524248 A 0.01134032,0.01134033 0 0 1 23.65505,9.3409158 V 9.2127459 a 0.01134032,0.01134033 0 0 1 0.01152,-0.011218 0.01134032,0.01134033 0 0 1 0.01122,0.011218 v 0.1281695 a 0.01134032,0.01134033 0 0 1 -0.01122,0.011509 z"
     id="path684" /><path
     style="color:#000000;fill:#020202;stroke:#000000;stroke-width:0.156663;stroke-linecap:round;stroke-linejoin:round;stroke-dasharray:none;stroke-opacity:1;fill-opacity:1"
     d="m 23.412594,12.985281 a 0.01134032,0.01224704 0 0 1 -0.01122,-0.01212 V 8.9625771 a 0.01134032,0.01224704 0 0 1 0.01122,-0.012435 0.01134032,0.01224704 0 0 1 0.01152,0.012435 v 4.0105859 a 0.01134032,0.01224704 0 0 1 -0.01152,0.01212 z"
     id="path685" /><path
     style="color:#000000;fill:#020202;stroke:#000000;stroke-width:0.150751;stroke-linecap:round;stroke-linejoin:round;stroke-dasharray:none;stroke-opacity:1;fill-opacity:1"
     d="m 23.66657,13.37824 a 0.01134032,0.01134033 0 0 1 -0.01152,-0.01122 v -0.548706 a 0.01134032,0.01134033 0 0 1 0.01152,-0.01122 0.01134032,0.01134033 0 0 1 0.01122,0.01122 v 0.548706 a 0.01134032,0.01134033 0 0 1 -0.01122,0.01122 z"
     id="path687" /><path
     style="color:#000000;fill:#020202;stroke:#000000;stroke-width:0.150751;stroke-linecap:round;stroke-linejoin:round;stroke-dasharray:none;stroke-opacity:1;fill-opacity:1"
     d="m 23.412594,13.6712 a 0.01134032,0.01134033 0 0 1 -0.01122,-0.01122 v -0.695193 a 0.01134032,0.01134033 0 0 1 0.01122,-0.01122 0.01134032,0.01134033 0 0 1 0.01152,0.01122 v 0.695185 a 0.01134032,0.01134033 0 0 1 -0.01152,0.01122 z"
     id="path688" /><path
     style="color:#000000;fill:#020202;stroke:#000000;stroke-width:0.150751;stroke-linecap:round;stroke-linejoin:round;stroke-dasharray:none;stroke-opacity:1;fill-opacity:1"
     d="M 23.658301,9.2207125 23.42352,8.9859319 a 0.01134032,0.01134033 0 0 1 0,-0.016246 0.01134032,0.01134033 0 0 1 0.01595,0 l 0.235075,0.2350744 a 0.01134032,0.01134033 0 0 1 0,0.015954 0.01134032,0.01134033 0 0 1 -0.01624,0 z"
     id="path691" /><path
     style="color:#000000;fill:#020202;stroke:#000000;stroke-width:0.0882899;stroke-linecap:round;stroke-linejoin:round;stroke-dasharray:none;stroke-opacity:1;fill-opacity:1"
     d="m 20.433101,6.8673019 a 0.01134032,0.01134033 0 0 1 -0.0065,-0.014764 c 0.0083,-0.021431 0.01528,-0.044172 0.02156,-0.067334 0.0063,-0.023125 0.0116,-0.04645 0.01624,-0.06999 a 0.01134032,0.01134033 0 0 1 0.01329,-0.00886 0.01134032,0.01134033 0 0 1 0.0091,0.013282 c -0.0047,0.023945 -0.0101,0.047723 -0.01654,0.071469 -0.0064,0.023707 -0.01379,0.047284 -0.02244,0.069694 a 0.01134032,0.01134033 0 0 1 -0.01477,0.00651 z"
     id="path705" /><path
     style="color:#000000;fill:#020202;stroke:#000000;stroke-width:0.0882899;stroke-linecap:round;stroke-linejoin:round;stroke-dasharray:none;stroke-opacity:1;fill-opacity:1"
     d="m 20.285146,7.0093488 a 0.01134032,0.01134033 0 0 1 -0.0065,-0.014764 c 0.0077,-0.019579 0.01547,-0.039256 0.02304,-0.059063 0.0076,-0.019844 0.0152,-0.0396 0.02274,-0.059362 0.0076,-0.019817 0.01517,-0.039685 0.02274,-0.059359 0.0076,-0.019473 0.01504,-0.038997 0.02244,-0.058473 a 0.01134146,0.01134146 0 0 1 0,-2.646e-4 c 0.0076,-0.019659 0.01503,-0.039256 0.02274,-0.059359 0.0077,-0.020293 0.01592,-0.041034 0.02392,-0.062018 a 0.01134032,0.01134033 0 0 1 0.01447,-0.00651 0.01134032,0.01134033 0 0 1 0.0065,0.014764 c -0.008,0.021061 -0.01593,0.041796 -0.02363,0.062018 -0.0077,0.020108 -0.01518,0.039703 -0.02274,0.059359 -0.0074,0.019526 -0.01517,0.039246 -0.02274,0.058769 -0.0075,0.019632 -0.01488,0.039256 -0.02244,0.059063 -0.0076,0.019844 -0.01549,0.0396 -0.02303,0.059359 -0.0076,0.019817 -0.015,0.03964 -0.02274,0.059362 a 0.01134032,0.01134033 0 0 1 -0.01476,0.00651 z"
     id="path706" /><path
     style="color:#000000;fill:#020202;stroke:#000000;stroke-width:0.0882899;stroke-linecap:round;stroke-linejoin:round;stroke-dasharray:none;stroke-opacity:1;fill-opacity:1"
     d="m 20.142801,7.3814535 a 0.01134032,0.01134033 0 0 1 -0.0068,-0.014764 c 0.0085,-0.02241 0.01693,-0.043929 0.0251,-0.064971 0.008,-0.021034 0.01563,-0.041182 0.02333,-0.061426 0.0077,-0.020135 0.01546,-0.039976 0.02333,-0.060248 0.0077,-0.020267 0.01547,-0.040862 0.02333,-0.061426 0.0079,-0.020611 0.01608,-0.041069 0.02392,-0.061722 a 0.01134146,0.01134146 0 0 1 0,-2.646e-4 c 0.008,-0.020505 0.01576,-0.041008 0.02362,-0.061722 a 0.01134032,0.01134033 0 0 1 0.01477,-0.00651 0.01134032,0.01134033 0 0 1 0.0065,0.014473 c -0.0079,0.020717 -0.01588,0.041392 -0.02392,0.062018 h 3.44e-4 c -0.0079,0.02077 -0.01608,0.041203 -0.02392,0.061719 -0.0079,0.020558 -0.01562,0.041177 -0.02333,0.061428 a 0.01134146,0.01134146 0 0 1 0,2.646e-4 c -0.0079,0.020241 -0.01563,0.040156 -0.02333,0.060248 -0.0077,0.020267 -0.01532,0.040127 -0.02333,0.061132 a 0.01134146,0.01134146 0 0 1 0,2.646e-4 c -0.0082,0.020981 -0.01665,0.04263 -0.0251,0.064971 a 0.01134032,0.01134033 0 0 1 -0.01447,0.00651 z"
     id="path707" /><path
     style="color:#000000;fill:#020202;stroke:#000000;stroke-width:0.0882899;stroke-linecap:round;stroke-linejoin:round;stroke-dasharray:none;stroke-opacity:1;fill-opacity:1"
     d="m 20.426604,6.6520105 a 0.01134032,0.01134033 0 0 1 -0.01122,-0.011218 0.01134032,0.01134033 0 0 1 0.01122,-0.011218 h 0.05227 0.05198 a 0.01134032,0.01134033 0 0 1 0.01122,0.011218 0.01134032,0.01134033 0 0 1 -0.01122,0.011218 h -0.05198 z"
     id="path708" /><path
     style="color:#000000;fill:#020202;stroke:#000000;stroke-width:0.0882899;stroke-linecap:round;stroke-linejoin:round;stroke-dasharray:none;stroke-opacity:1;fill-opacity:1"
     d="m 20.67231,7.0093488 a 0.01134032,0.01134033 0 0 1 -0.0062,-0.00619 c -0.0079,-0.019315 -0.01575,-0.03892 -0.02362,-0.058473 -0.008,-0.019553 -0.01593,-0.039013 -0.02392,-0.058473 -0.0079,-0.019473 -0.01575,-0.039092 -0.02363,-0.058473 -0.008,-0.019473 -0.01597,-0.038814 -0.02392,-0.058179 -0.008,-0.019553 -0.01606,-0.039277 -0.02451,-0.059949 -0.0085,-0.020717 -0.01721,-0.042151 -0.02628,-0.064381 a 0.01134032,0.01134033 0 0 1 0.0062,-0.015055 0.01134032,0.01134033 0 0 1 0.01476,0.00651 c 0.0091,0.022225 0.01782,0.043669 0.02628,0.064381 0.0085,0.020743 0.01652,0.040502 0.02451,0.059949 0.008,0.019553 0.01593,0.03873 0.02392,0.058179 a 0.01134146,0.01134146 0 0 1 0,2.646e-4 c 0.0079,0.019315 0.01574,0.038627 0.02363,0.058177 0.008,0.019553 0.01592,0.039015 0.02392,0.058473 0.0079,0.019447 0.01575,0.039092 0.02363,0.058476 a 0.01134032,0.01134033 0 0 1 -0.0062,0.014764 0.01134032,0.01134033 0 0 1 -0.0086,0 z"
     id="path709" /><path
     style="color:#000000;fill:#020202;stroke:#000000;stroke-width:0.0882899;stroke-linecap:round;stroke-linejoin:round;stroke-dasharray:none;stroke-opacity:1;fill-opacity:1"
     d="m 20.824106,7.3811572 a 0.01134032,0.01134033 0 0 1 -0.0062,-0.0059 c -0.0092,-0.022569 -0.01798,-0.044588 -0.02658,-0.065559 -0.0085,-0.020823 -0.01692,-0.040976 -0.0251,-0.061132 -0.0082,-0.020082 -0.01633,-0.039949 -0.02451,-0.060246 -0.0083,-0.020135 -0.01648,-0.040381 -0.02481,-0.061132 -0.0085,-0.020585 -0.01693,-0.041301 -0.0254,-0.062018 -0.0083,-0.020664 -0.01692,-0.041283 -0.0254,-0.062018 a 0.01134032,0.01134033 0 0 1 0.0062,-0.014764 0.01134032,0.01134033 0 0 1 0.01477,0.00619 c 0.0085,0.02069 0.01705,0.041241 0.0254,0.062018 0.0085,0.020717 0.01694,0.041471 0.0254,0.062016 0.0083,0.02069 0.0165,0.041061 0.02481,0.061132 0.0082,0.020241 0.01634,0.040119 0.02451,0.060246 0.0082,0.020055 0.01662,0.040222 0.0251,0.061132 0.0086,0.021061 0.01737,0.042775 0.02658,0.065267 a 0.01134032,0.01134033 0 0 1 -0.0062,0.014764 0.01134032,0.01134033 0 0 1 -0.0086,0 z"
     id="path710" /><path
     style="color:#000000;fill:#020202;stroke:#000000;stroke-width:0.0882899;stroke-linecap:round;stroke-linejoin:round;stroke-dasharray:none;stroke-opacity:1;fill-opacity:1"
     d="m 20.146639,7.3820435 a 0.01134032,0.01134033 0 0 1 -0.01121,-0.011218 0.01134032,0.01134033 0 0 1 0.01121,-0.011218 h 0.0508 0.05109 a 0.01134032,0.01134033 0 0 1 0.01152,0.011218 0.01134032,0.01134033 0 0 1 -0.01152,0.011218 h -0.05109 z"
     id="path711" /><path
     style="color:#000000;fill:#020202;stroke:#000000;stroke-width:0.0882899;stroke-linecap:round;stroke-linejoin:round;stroke-dasharray:none;stroke-opacity:1;fill-opacity:1"
     d="m 20.572493,7.0093488 a 0.01134032,0.01134033 0 0 1 -0.0059,-0.00651 c -0.0033,-0.00863 -0.0067,-0.017171 -0.01004,-0.025982 -0.0033,-0.00868 -0.0064,-0.01741 -0.0098,-0.025982 a 0.01134146,0.01134146 0 0 1 -3.44e-4,-2.646e-4 c -0.0031,-0.00863 -0.0064,-0.017066 -0.0097,-0.025691 -0.0034,-0.00868 -0.0064,-0.017145 -0.0098,-0.025691 a 0.01134146,0.01134146 0 0 1 0,-2.646e-4 c -0.0031,-0.00852 -0.0064,-0.017066 -0.0098,-0.025691 a 0.01134032,0.01134033 0 0 1 0.0065,-0.014473 0.01134032,0.01134033 0 0 1 0.01447,0.00651 c 0.0033,0.00852 0.0068,0.017066 0.01004,0.025691 v 2.646e-4 c 0.0033,0.00857 0.0065,0.016933 0.0098,0.0254 0.0033,0.00852 0.0066,0.017171 0.0098,0.025982 v 2.646e-4 c 0.0033,0.00857 0.0068,0.017489 0.01004,0.025982 0.0033,0.00873 0.0067,0.017383 0.01004,0.025982 a 0.01134032,0.01134033 0 0 1 -0.0065,0.014473 0.01134032,0.01134033 0 0 1 -0.0089,0 z"
     id="path712" /><path
     style="color:#000000;fill:#020202;stroke:#000000;stroke-width:0.0882899;stroke-linecap:round;stroke-linejoin:round;stroke-dasharray:none;stroke-opacity:1;fill-opacity:1"
     d="m 20.608523,7.0814081 a 0.01134032,0.01134033 0 0 1 -0.01478,-0.0068 c -0.0047,-0.012356 -0.0093,-0.024659 -0.01388,-0.036621 -0.0045,-0.011906 -0.009,-0.023548 -0.01329,-0.035142 a 0.01134032,0.01134033 0 0 1 0.0068,-0.014764 0.01134032,0.01134033 0 0 1 0.01447,0.00677 c 0.0042,0.011377 0.0087,0.023178 0.01329,0.035145 0.0045,0.011933 0.0092,0.024183 0.01388,0.036618 a 0.01134032,0.01134033 0 0 1 -0.0065,0.014764 z"
     id="path713" /><path
     style="color:#000000;fill:#020202;stroke:#000000;stroke-width:0.0882899;stroke-linecap:round;stroke-linejoin:round;stroke-dasharray:none;stroke-opacity:1;fill-opacity:1"
     d="m 20.531737,6.8799993 a 0.01134032,0.01134033 0 0 1 -0.01447,-0.0068 c -0.0085,-0.022569 -0.01775,-0.047093 -0.02658,-0.072649 -0.009,-0.025559 -0.01776,-0.052168 -0.02599,-0.079738 a 0.01134032,0.01134033 0 0 1 0.0077,-0.014155 0.01134032,0.01134033 0 0 1 0.01417,0.00767 c 0.0081,0.027165 0.01682,0.053591 0.02569,0.078851 0.0087,0.025241 0.01753,0.049567 0.02599,0.072057 a 0.01134032,0.01134033 0 0 1 -0.0065,0.014764 z"
     id="path714" /><path
     style="color:#000000;fill:#020202;stroke:#000000;stroke-width:0.0882899;stroke-linecap:round;stroke-linejoin:round;stroke-dasharray:none;stroke-opacity:1;fill-opacity:1"
     d="m 20.356613,7.0819981 a 0.01134032,0.01134033 0 0 1 -0.01122,-0.011218 0.01134032,0.01134033 0 0 1 0.01122,-0.011509 h 0.04253 0.04105 0.03957 0.03928 0.04134 0.044 a 0.01134032,0.01134033 0 0 1 0.01122,0.011509 0.01134032,0.01134033 0 0 1 -0.01122,0.011218 h -0.044 -0.04134 -0.03928 -0.03957 -0.04105 z"
     id="path715" /><path
     style="color:#000000;fill:#020202;stroke:#000000;stroke-width:0.0882899;stroke-linecap:round;stroke-linejoin:round;stroke-dasharray:none;stroke-opacity:1;fill-opacity:1"
     d="m 20.379648,7.0093488 a 0.01134032,0.01134033 0 0 1 -0.0065,-0.014473 c 0.0036,-0.00934 0.0072,-0.018918 0.01063,-0.02835 0.0036,-0.00953 0.0072,-0.019235 0.01063,-0.028649 0.0036,-0.00955 0.0075,-0.018971 0.01093,-0.02835 a 0.01134146,0.01134146 0 0 1 0,-2.646e-4 c 0.0036,-0.00947 0.007,-0.018574 0.01063,-0.028056 0.0035,-0.00966 0.0072,-0.018971 0.01063,-0.02835 a 0.01134032,0.01134033 0 0 1 0.01447,-0.00677 0.01134032,0.01134033 0 0 1 0.0068,0.014473 c -0.0035,0.00966 -0.0072,0.019262 -0.01063,0.028646 -0.0036,0.00921 -0.007,0.018574 -0.01063,0.028056 v 2.646e-4 c -0.0035,0.00958 -0.0073,0.018944 -0.01093,0.02835 -0.0035,0.00955 -0.007,0.018918 -0.01063,0.028353 v 2.645e-4 c -0.0035,0.00955 -0.0073,0.019024 -0.01093,0.02835 a 0.01134032,0.01134033 0 0 1 -0.01447,0.00651 z"
     id="path716" /><path
     style="color:#000000;fill:#020202;stroke:#000000;stroke-width:0.0882899;stroke-linecap:round;stroke-linejoin:round;stroke-dasharray:none;stroke-opacity:1;fill-opacity:1"
     d="m 20.352478,7.0814081 a 0.01134032,0.01134033 0 0 1 -0.0065,-0.014764 c 0.0044,-0.011695 0.0091,-0.023521 0.01358,-0.035436 0.0045,-0.01188 0.009,-0.024077 0.01358,-0.036325 a 0.01134032,0.01134033 0 0 1 0.01447,-0.00677 0.01134032,0.01134033 0 0 1 0.0068,0.014764 c -0.0045,0.01225 -0.0093,0.024315 -0.01388,0.036322 -0.0046,0.011986 -0.0089,0.023839 -0.01329,0.035441 a 0.01134032,0.01134033 0 0 1 -0.01476,0.00677 z"
     id="path717" /><path
     style="color:#000000;fill:#020202;stroke:#000000;stroke-width:0.0882899;stroke-linecap:round;stroke-linejoin:round;stroke-dasharray:none;stroke-opacity:1;fill-opacity:1"
     d="m 20.719268,7.3820435 a 0.01134032,0.01134033 0 0 1 -0.01122,-0.011218 0.01134032,0.01134033 0 0 1 0.01122,-0.011218 h 0.05463 0.05434 a 0.01134032,0.01134033 0 0 1 0.01153,0.011218 0.01134032,0.01134033 0 0 1 -0.01153,0.011218 h -0.05434 z"
     id="path718" /><path
     style="color:#000000;fill:#020202;stroke:#000000;stroke-width:0.0882899;stroke-linecap:round;stroke-linejoin:round;stroke-dasharray:none;stroke-opacity:1;fill-opacity:1"
     d="m 20.723401,7.3814535 a 0.01134032,0.01134033 0 0 1 -0.01477,-0.00651 c -0.009,-0.02368 -0.01837,-0.047667 -0.02776,-0.072059 -0.0094,-0.024342 -0.01897,-0.048887 -0.02865,-0.073829 -0.0095,-0.024897 -0.0191,-0.050006 -0.02894,-0.075602 a 0.01134032,0.01134033 0 0 1 0.0065,-0.014764 0.01134032,0.01134033 0 0 1 0.01447,0.00651 c 0.0098,0.025506 0.01969,0.050591 0.02923,0.075599 0.0097,0.02495 0.01927,0.049477 0.02865,0.073832 0.0094,0.024289 0.01866,0.048255 0.02776,0.072057 a 0.01134032,0.01134033 0 0 1 -0.0065,0.014764 z"
     id="path719" /><path
     style="color:#000000;fill:#020202;stroke:#000000;stroke-width:0.0882899;stroke-linecap:round;stroke-linejoin:round;stroke-dasharray:none;stroke-opacity:1;fill-opacity:1"
     d="m 20.329147,7.1605529 a 0.01134032,0.01134033 0 0 1 -0.01122,-0.011218 0.01134032,0.01134033 0 0 1 0.01122,-0.011536 h 0.07767 0.07531 0.07472 0.07678 a 0.01134032,0.01134033 0 0 1 0.01152,0.011536 0.01134032,0.01134033 0 0 1 -0.01152,0.011218 h -0.07678 -0.07472 -0.07531 z"
     id="path720" /><path
     style="color:#000000;fill:#020202;stroke:#000000;stroke-width:0.0882899;stroke-linecap:round;stroke-linejoin:round;stroke-dasharray:none;stroke-opacity:1;fill-opacity:1"
     d="m 20.244687,7.3814535 a 0.01134032,0.01134033 0 0 1 -0.0068,-0.014473 c 0.01028,-0.02812 0.02032,-0.055097 0.02953,-0.080621 0.0094,-0.025532 0.01811,-0.049813 0.02658,-0.073242 0.0086,-0.023389 0.01664,-0.045979 0.02451,-0.067627 a 0.01134032,0.01134033 0 0 1 0.01447,-0.00677 0.01134032,0.01134033 0 0 1 0.0068,0.014473 c -0.0078,0.021511 -0.01591,0.044241 -0.02451,0.067628 v 2.646e-4 c -0.0084,0.023363 -0.01723,0.047456 -0.02658,0.072943 -0.0092,0.025585 -0.01925,0.052496 -0.02953,0.080624 a 0.01134032,0.01134033 0 0 1 -0.01447,0.00677 z"
     id="path721" /><path
     style="color:#000000;fill:#020202;stroke:#000000;stroke-width:0.150751;stroke-linecap:round;stroke-linejoin:round;stroke-dasharray:none;stroke-opacity:1;fill-opacity:1"
     d="M 23.66657,8.6805709 A 0.01134032,0.01134033 0 0 1 23.65505,8.6690619 V 8.5408895 a 0.01134032,0.01134033 0 0 1 0.01152,-0.011218 0.01134032,0.01134033 0 0 1 0.01122,0.011218 v 0.1281721 a 0.01134032,0.01134033 0 0 1 -0.01122,0.011509 z"
     id="path731" /><path
     style="color:#000000;fill:#020202;stroke:#000000;stroke-width:0.150751;stroke-linecap:round;stroke-linejoin:round;stroke-dasharray:none;stroke-opacity:1;fill-opacity:1"
     d="m 23.66657,4.5897844 a 0.01134032,0.01134033 0 0 1 -0.01152,-0.011218 c 0,-0.5537677 -0.128613,-1.0855511 -0.361177,-1.5604755 C 23.061311,2.5430127 22.724965,2.1246191 22.308981,1.7960516 21.892997,1.4676375 21.39725,1.2289939 20.848618,1.1147468 a 0.01134032,0.01134033 0 0 1 -0.0089,-0.013282 0.01134032,0.01134033 0 0 1 0.01329,-0.00886 c 0.552136,0.1149773 1.051147,0.3552031 1.469812,0.6857339 0.418664,0.3306842 0.757342,0.7516019 0.991393,1.2297172 0.234051,0.4779619 0.36354,1.0132351 0.36354,1.5705164 a 0.01134032,0.01134033 0 0 1 -0.01121,0.011218 z"
     id="path732" /><path
     style="color:#000000;fill:#020202;stroke:#000000;stroke-width:0.150751;stroke-linecap:round;stroke-linejoin:round;stroke-dasharray:none;stroke-opacity:1;fill-opacity:1"
     d="m 16.520984,0.21401254 c -0.05052,-0.0104246 -0.08686,-0.0183356 -0.112518,-0.0236273 a 0.01134032,0.01134033 0 0 1 -0.0089,-0.0132821 0.01134032,0.01134033 0 0 1 0.01329,-0.008864 c 0.02575,0.005292 0.06233,0.0128852 0.112811,0.0233363 a 0.01134032,0.01134033 0 0 1 0.0089,0.0135731 0.01134032,0.01134033 0 0 1 -0.01359,0.008864 z"
     id="path733" /><path
     style="color:#000000;fill:#020202;stroke:#000000;stroke-width:0.150751;stroke-linecap:round;stroke-linejoin:round;stroke-dasharray:none;stroke-opacity:1;fill-opacity:1"
     d="M 20.848618,1.1147415 16.520984,0.21401254 a 0.01134032,0.01134033 0 0 1 -0.0086,-0.0135731 0.01134032,0.01134033 0 0 1 0.01329,-0.008864 l 4.327337,0.90102276 a 0.01134032,0.01134033 0 0 1 0.0089,0.013282 0.01134032,0.01134033 0 0 1 -0.01329,0.00886 z"
     id="path734" /><path
     style="color:#000000;fill:#020202;stroke:#000000;stroke-width:0.173907;stroke-linecap:round;stroke-linejoin:round;stroke-dasharray:none;stroke-opacity:1;fill-opacity:1"
     d="M 20.794782,1.3630768 15.711767,0.31489288 a 0.01314307,0.01302173 0 0 1 -0.01027,-0.0152665 0.01314307,0.01302173 0 0 1 0.01574,-0.01016 l 5.082674,1.04818402 a 0.01314307,0.01302173 0 0 1 0.01027,0.015584 0.01314307,0.01302173 0 0 1 -0.0154,0.00982 z"
     id="path736" /><path
     style="color:#000000;fill:#020202;stroke:#000000;stroke-width:0.15396;stroke-linecap:round;stroke-linejoin:round;stroke-dasharray:none;stroke-opacity:1;fill-opacity:1"
     d="m 23.412594,8.9329464 a 0.01134032,0.01182803 0 0 1 -0.01122,-0.011695 v -4.34218 a 0.01134032,0.01182803 0 0 1 0.01122,-0.012012 0.01134032,0.01182803 0 0 1 0.01152,0.012012 v 4.3421804 a 0.01134032,0.01182803 0 0 1 -0.01152,0.011695 z"
     id="path739" /><path
     style="color:#000000;fill:#020202;stroke:#000000;stroke-width:0.150751;stroke-linecap:round;stroke-linejoin:round;stroke-dasharray:none;stroke-opacity:1;fill-opacity:1"
     d="m 23.410822,8.9247999 a 0.01134032,0.01134033 0 0 1 0,-0.016245 l 0.247479,-0.2474781 a 0.01134032,0.01134033 0 0 1 0.01624,0 0.01134032,0.01134033 0 0 1 0,0.016246 l -0.247479,0.247478 a 0.01134032,0.01134033 0 0 1 -0.01624,-9e-7 z"
     id="path740" /><path
     style="color:#000000;fill:#020202;stroke:#000000;stroke-width:0.150751;stroke-linecap:round;stroke-linejoin:round;stroke-dasharray:none;stroke-opacity:1;fill-opacity:1"
     d="m 16.408172,0.19038789 -0.426443,-0.0888921 a 0.01134032,0.01134033 0 0 1 -0.0089,-0.01328208 0.01134032,0.01134033 0 0 1 0.01359,-0.0088635 L 16.4129,0.16824227 a 0.01134032,0.01134033 0 0 1 0.0089,0.0135731 0.01134032,0.01134033 0 0 1 -0.01358,0.008573 z"
     id="path741" /><path
     style="color:#000000;fill:#020202;stroke:#000000;stroke-width:0.150751;stroke-linecap:round;stroke-linejoin:round;stroke-dasharray:none;stroke-opacity:1;fill-opacity:1"
     d="m 23.412594,4.5897844 a 0.01134032,0.01134033 0 0 1 -0.01122,-0.011218 c 0,-0.2456286 -0.02725,-0.490855 -0.08239,-0.7323958 C 23.263826,3.6046269 23.180891,3.3665098 23.071497,3.1409419 22.962102,2.9152206 22.826438,2.7020167 22.668975,2.5071855 22.511512,2.3123516 22.332406,2.1359353 22.135921,1.982694 21.939434,1.8296034 21.725494,1.6994919 21.50039,1.5955292 21.275126,1.4915611 21.038777,1.4134376 20.796936,1.3631112 a 0.01134032,0.01134033 0 0 1 -0.0089,-0.013282 0.01134032,0.01134033 0 0 1 0.01329,-0.00886 c 0.243523,0.050676 0.481933,0.1291987 0.708769,0.2338917 0.226695,0.1047009 0.441813,0.235966 0.639666,0.3901228 0.197854,0.1543077 0.378339,0.3315547 0.536894,0.5277379 0.158553,0.1961806 0.295026,0.4111969 0.40518,0.638482 0.110155,0.2271395 0.193719,0.4664392 0.24925,0.7096575 0.05553,0.2432182 0.08299,0.4904131 0.08299,0.7377112 a 0.01134032,0.01134033 0 0 1 -0.01153,0.011218 z"
     id="path742" /><path
     style="color:#000000;fill:#020202;stroke:#000000;stroke-width:0.150751;stroke-linecap:round;stroke-linejoin:round;stroke-dasharray:none;stroke-opacity:1;fill-opacity:1"
     d="M 23.66657,8.5524015 A 0.01134032,0.01134033 0 0 1 23.65505,8.5408655 V 4.5785529 a 0.01134032,0.01134033 0 0 1 0.01152,-0.011536 0.01134032,0.01134033 0 0 1 0.01122,0.011536 v 3.962318 a 0.01134032,0.01134033 0 0 1 -0.01122,0.011536 z"
     id="path745" /><path
     style="color:#000000;fill:#020202;stroke:#000000;stroke-width:0.150751;stroke-linecap:round;stroke-linejoin:round;stroke-dasharray:none;stroke-opacity:1;fill-opacity:1"
     d="m 21.014293,21.915379 a 0.01134032,0.01134033 0 0 1 -0.01447,-0.0068 0.01134032,0.01134033 0 0 1 0.0068,-0.01447 c 0.173715,-0.0632 0.347413,-0.127042 0.517699,-0.201702 0.170288,-0.07466 0.337339,-0.160129 0.496434,-0.260768 0.1591,-0.100645 0.310488,-0.21644 0.449182,-0.347004 0.13885,-0.130564 0.265284,-0.275889 0.375058,-0.432644 0.109774,-0.156755 0.203046,-0.324988 0.278193,-0.499978 0.07515,-0.175151 0.132393,-0.357079 0.172467,-0.541028 0.04022,-0.183951 0.06339,-0.370117 0.07531,-0.555794 0.01191,-0.185518 0.0124,-0.3703 0.0124,-0.555204 a 0.01134032,0.01134033 0 0 1 0.01121,-0.01151 0.01134032,0.01134033 0 0 1 0.01122,0.01151 c 0,0.184941 -4.76e-4,0.370236 -0.0124,0.55668 -0.01197,0.18659 -0.03509,0.374047 -0.0756,0.559337 -0.04037,0.185291 -0.0979,0.368316 -0.173649,0.544868 -0.07576,0.176408 -0.169874,0.346061 -0.280556,0.504113 -0.11068,0.158051 -0.238038,0.304567 -0.37801,0.436189 -0.139824,0.131625 -0.292189,0.248293 -0.452432,0.34966 -0.160248,0.10137 -0.328551,0.187511 -0.499683,0.262541 -0.171132,0.07503 -0.345421,0.13879 -0.519174,0.201999 z"
     id="path837" /><path
     style="color:#000000;fill:#020202;stroke:#000000;stroke-width:0.150751;stroke-linecap:round;stroke-linejoin:round;stroke-dasharray:none;stroke-opacity:1;fill-opacity:1"
     d="m 15.820483,23.806023 a 0.01134032,0.01134033 0 0 1 -0.01447,-0.0068 0.01134032,0.01134033 0 0 1 0.0068,-0.01476 l 5.193812,-1.890347 a 0.01134032,0.01134033 0 0 1 0.01447,0.0068 0.01134032,0.01134033 0 0 1 -0.0068,0.01447 z"
     id="path855" /><path
     style="color:#000000;fill:#020202;stroke:#000000;stroke-width:0.150751;stroke-linecap:round;stroke-linejoin:round;stroke-dasharray:none;stroke-opacity:1;fill-opacity:1"
     d="m 15.58659,23.870994 c -0.05738,0.003 -0.112592,-0.01066 -0.156522,-0.04134 -0.04392,-0.03083 -0.07561,-0.07787 -0.09244,-0.132895 -0.01681,-0.055 -0.0186,-0.116911 -0.0186,-0.177488 a 0.01134032,0.01134033 0 0 1 0.01122,-0.01122 0.01134032,0.01134033 0 0 1 0.01121,0.01122 c 0,0.06008 0.0022,0.119849 0.01772,0.170696 0.01554,0.05082 0.04493,0.09354 0.08417,0.121081 0.0392,0.02728 0.08915,0.04026 0.142049,0.0375 0.05302,-0.0028 0.109946,-0.0213 0.166562,-0.04194 a 0.01134032,0.01134033 0 0 1 0.01447,0.0068 0.01134032,0.01134033 0 0 1 -0.0068,0.01447 c -0.05709,0.0208 -0.115699,0.04013 -0.173056,0.04312 z"
     id="path891" /><path
     style="color:#000000;fill:#020202;stroke:#000000;stroke-width:0.0882899;stroke-linecap:round;stroke-linejoin:round;stroke-dasharray:none;stroke-opacity:1;fill-opacity:1"
     d="m 22.26852,5.4054631 c -0.01942,-0.03048 0.04685,-0.037142 0.05782,-0.065461 0.03529,-0.028099 0.02473,-0.083195 0.04672,-0.1117335 0.0247,0.01434 0.0049,0.055089 -3.44e-4,0.078261 -0.0168,0.043945 -0.05362,0.077713 -0.0953,0.098044 l -0.0089,0.00106 z"
     id="path925" /><path
     style="color:#000000;fill:#020202;stroke:#000000;stroke-width:0.150751;stroke-linecap:round;stroke-linejoin:round;stroke-dasharray:none;stroke-opacity:1;fill-opacity:1"
     d="M 20.793097,1.3808277 15.764372,0.33391377 a 0.01134032,0.01134033 0 0 1 -0.0089,-0.0132821 0.01134032,0.01134033 0 0 1 0.01329,-0.008864 l 5.029021,1.04691393 a 0.01134032,0.01134033 0 0 1 0.0086,0.013573 0.01134032,0.01134033 0 0 1 -0.01329,0.00857 z"
     id="path951" /><path
     style="color:#000000;fill:#020202;stroke:#000000;stroke-width:0.150751;stroke-linecap:round;stroke-linejoin:round;stroke-dasharray:none;stroke-opacity:1;fill-opacity:1"
     d="M 15.33025,0.6891857 A 0.01134032,0.01134033 0 0 1 15.31903,0.6776763 c 0,-0.0596715 0.0017,-0.12076906 0.0189,-0.17719146 0.01724,-0.0562584 0.04963,-0.10673556 0.09421,-0.14293586 0.04458,-0.0363564 0.10073,-0.0577162 0.159475,-0.0631984 0.05862,-0.005318 0.118731,0.005265 0.177191,0.017436 a 0.01134032,0.01134033 0 0 1 0.0089,0.0132821 0.01134032,0.01134033 0 0 1 -0.01329,0.008864 c -0.05797,-0.0120385 -0.116214,-0.0220927 -0.170696,-0.0171185 -0.05466,0.00508 -0.106661,0.0249767 -0.147366,0.0581792 -0.0407,0.0330465 -0.0705,0.0799941 -0.08653,0.13230226 -0.01603,0.0524431 -0.01831,0.11122554 -0.01831,0.1703996 a 0.01134032,0.01134033 0 0 1 -0.01122,0.0115094 z"
     id="path952" /><path
     style="color:#000000;fill:#020202;stroke:#000000;stroke-width:0.150751;stroke-linecap:round;stroke-linejoin:round;stroke-dasharray:none;stroke-opacity:1;fill-opacity:1"
     d="m 23.394579,4.5897844 a 0.01134032,0.01134033 0 0 1 -0.01121,-0.011218 c 0,-1.535049 -1.0697,-2.8811459 -2.59026,-3.1977357 a 0.01134032,0.01134033 0 0 1 -0.0089,-0.013282 0.01134032,0.01134033 0 0 1 0.01358,-0.00886 c 1.531042,0.31877 2.60798,1.6742993 2.60798,3.219884 a 0.01134032,0.01134033 0 0 1 -0.01122,0.011218 z"
     id="path953" /><path
     style="color:#000000;fill:#020202;stroke:#000000;stroke-width:0.150751;stroke-linecap:round;stroke-linejoin:round;stroke-dasharray:none;stroke-opacity:1;fill-opacity:1"
     d="m 23.394579,18.511215 a 0.01134032,0.01134033 0 0 1 -0.01121,-0.01122 V 4.5785714 a 0.01134032,0.01134033 0 0 1 0.01121,-0.011536 0.01134032,0.01134033 0 0 1 0.01122,0.011536 V 18.5 a 0.01134032,0.01134033 0 0 1 -0.01122,0.01122 z"
     id="path954" /><path
     style="color:#000000;fill:#020202;stroke:#000000;stroke-width:0.150751;stroke-linecap:round;stroke-linejoin:round;stroke-dasharray:none;stroke-opacity:1;fill-opacity:1"
     d="m 15.33025,23.465813 a 0.01134032,0.01134033 0 0 1 -0.01122,-0.01122 V 0.67767368 a 0.01134032,0.01134033 0 0 1 0.01122,-0.0112183 0.01134032,0.01134033 0 0 1 0.01121,0.0112183 V 23.454598 a 0.01134032,0.01134033 0 0 1 -0.01121,0.01122 z"
     id="path955" /><path
     style="color:#000000;fill:#020202;stroke:#000000;stroke-width:0.150751;stroke-linecap:round;stroke-linejoin:round;stroke-dasharray:none;stroke-opacity:1;fill-opacity:1"
     d="m 15.623208,23.855047 c -0.06538,0.0034 -0.128094,-0.01204 -0.178078,-0.04696 -0.04984,-0.03492 -0.08605,-0.08864 -0.105133,-0.151204 -0.01924,-0.06258 -0.02097,-0.132964 -0.02097,-0.202296 a 0.01134032,0.01134033 0 0 1 0.01122,-0.01122 0.01134032,0.01134033 0 0 1 0.01121,0.01122 c 0,0.06887 0.0024,0.137118 0.02038,0.195504 0.01781,0.05839 0.05116,0.10778 0.09627,0.13939 0.04528,0.03162 0.102878,0.04603 0.163902,0.04282 0.06089,-0.0032 0.126144,-0.02434 0.190778,-0.04784 a 0.01134032,0.01134033 0 0 1 0.01447,0.0068 0.01134032,0.01134033 0 0 1 -0.0068,0.01476 c -0.0651,0.02368 -0.132056,0.04558 -0.197275,0.04903 z"
     id="path956" /><path
     style="color:#000000;fill:#020202;stroke:#000000;stroke-width:0.150751;stroke-linecap:round;stroke-linejoin:round;stroke-dasharray:none;stroke-opacity:1;fill-opacity:1"
     d="m 23.394579,9.151606 a 0.01134032,0.01134033 0 0 1 -0.01121,-0.011218 0.01134032,0.01134033 0 0 1 0.01121,-0.011509 h 0.01802 a 0.01134032,0.01134033 0 0 1 0.01152,0.011509 0.01134032,0.01134033 0 0 1 -0.01152,0.011218 z"
     id="path1004" /><path
     style="color:#000000;fill:#020202;stroke:#000000;stroke-width:0.150751;stroke-linecap:round;stroke-linejoin:round;stroke-dasharray:none;stroke-opacity:1;fill-opacity:1"
     d="m 23.40521,13.668541 a 0.01134032,0.01134033 0 0 1 -0.0012,-0.01624 l 0.253976,-0.292661 a 0.01134032,0.01134033 0 0 1 0.01595,-0.0011 0.01134032,0.01134033 0 0 1 0.0012,0.01595 l -0.253975,0.292957 a 0.01134032,0.01134033 0 0 1 -0.01595,0.0011 z"
     id="path1017" /><path
     style="color:#000000;fill:#020202;stroke:#000000;stroke-width:0.16209;stroke-linecap:round;stroke-linejoin:round;stroke-dasharray:none;stroke-opacity:1;fill-opacity:1"
     d="m 15.703156,0.3167529 a 0.01161361,0.01280186 0 0 1 -0.01603,-0.003678 0.01161361,0.01280186 0 0 1 0.003,-0.0176742 l 0.287013,-0.21403204 a 0.01161361,0.01280186 0 0 1 0.01633,0.0033338 0.01161361,0.01280186 0 0 1 -0.0033,0.01767416 z"
     id="path1022" /><path
     style="color:#000000;fill:#020202;stroke:#000000;stroke-width:0.150751;stroke-linecap:round;stroke-linejoin:round;stroke-dasharray:none;stroke-opacity:1;fill-opacity:1"
     d="m 23.66657,12.82983 a 0.01134032,0.01134033 0 0 1 -0.01152,-0.01151 v -0.11104 a 0.01134032,0.01134033 0 0 1 0.01152,-0.01122 0.01134032,0.01134033 0 0 1 0.01122,0.01122 v 0.11104 a 0.01134032,0.01134033 0 0 1 -0.01122,0.01151 z"
     id="path1056" /><path
     style="color:#000000;fill:#020202;stroke:#000000;stroke-width:0.150751;stroke-linecap:round;stroke-linejoin:round;stroke-dasharray:none;stroke-opacity:1;fill-opacity:1"
     d="M 23.66657,12.71879 A 0.01134032,0.01134033 0 0 1 23.65505,12.70728 V 9.340918 A 0.01134032,0.01134033 0 0 1 23.66657,9.3297 0.01134032,0.01134033 0 0 1 23.67779,9.340918 v 3.366363 a 0.01134032,0.01134033 0 0 1 -0.01122,0.01151 z"
     id="path1057" /><path
     style="color:#000000;fill:#020202;stroke:#000000;stroke-width:0.150751;stroke-linecap:round;stroke-linejoin:round;stroke-dasharray:none;stroke-opacity:1;fill-opacity:1"
     d="M 23.66657,9.3524248 A 0.01134032,0.01134033 0 0 1 23.65505,9.3409158 V 9.2127459 a 0.01134032,0.01134033 0 0 1 0.01152,-0.011218 0.01134032,0.01134033 0 0 1 0.01122,0.011218 v 0.1281695 a 0.01134032,0.01134033 0 0 1 -0.01122,0.011509 z"
     id="path1058" /><path
     style="color:#000000;fill:#020202;stroke:#000000;stroke-width:0.150751;stroke-linecap:round;stroke-linejoin:round;stroke-dasharray:none;stroke-opacity:1;fill-opacity:1"
     d="m 23.66657,13.37824 a 0.01134032,0.01134033 0 0 1 -0.01152,-0.01122 v -0.548706 a 0.01134032,0.01134033 0 0 1 0.01152,-0.01122 0.01134032,0.01134033 0 0 1 0.01122,0.01122 v 0.548706 a 0.01134032,0.01134033 0 0 1 -0.01122,0.01122 z"
     id="path1059" /><path
     style="color:#000000;fill:#020202;stroke:#000000;stroke-width:0.159243;stroke-linecap:round;stroke-linejoin:round;stroke-dasharray:none;stroke-opacity:1;fill-opacity:1"
     d="M 23.657177,9.2205247 23.408876,8.9728112 a 0.01199332,0.01196494 0 0 1 0,-0.017145 0.01199332,0.01196494 0 0 1 0.01687,0 l 0.248612,0.248023 a 0.01199332,0.01196494 0 0 1 0,0.016827 0.01199332,0.01196494 0 0 1 -0.01718,0 z"
     id="path1060" /><path
     style="color:#000000;fill:#020202;stroke:#000000;stroke-width:0.150751;stroke-linecap:round;stroke-linejoin:round;stroke-dasharray:none;stroke-opacity:1;fill-opacity:1"
     d="M 23.66657,8.6805709 A 0.01134032,0.01134033 0 0 1 23.65505,8.6690619 V 8.5408895 a 0.01134032,0.01134033 0 0 1 0.01152,-0.011218 0.01134032,0.01134033 0 0 1 0.01122,0.011218 v 0.1281721 a 0.01134032,0.01134033 0 0 1 -0.01122,0.011509 z"
     id="path1066" /><path
     style="color:#000000;fill:#020202;stroke:#000000;stroke-width:0.150751;stroke-linecap:round;stroke-linejoin:round;stroke-dasharray:none;stroke-opacity:1;fill-opacity:1"
     d="m 23.66657,4.5897844 a 0.01134032,0.01134033 0 0 1 -0.01152,-0.011218 c 0,-0.5537677 -0.128613,-1.0855511 -0.361177,-1.5604755 C 23.061311,2.5430127 22.724965,2.1246191 22.308981,1.7960516 21.892997,1.4676375 21.39725,1.2289939 20.848618,1.1147468 a 0.01134032,0.01134033 0 0 1 -0.0089,-0.013282 0.01134032,0.01134033 0 0 1 0.01329,-0.00886 c 0.552136,0.1149773 1.051147,0.3552031 1.469812,0.6857339 0.418664,0.3306842 0.757342,0.7516019 0.991393,1.2297172 0.234051,0.4779619 0.36354,1.0132351 0.36354,1.5705164 a 0.01134032,0.01134033 0 0 1 -0.01121,0.011218 z"
     id="path1067" /><path
     style="color:#000000;fill:#020202;stroke:#000000;stroke-width:0.150751;stroke-linecap:round;stroke-linejoin:round;stroke-dasharray:none;stroke-opacity:1;fill-opacity:1"
     d="m 16.520984,0.21401254 c -0.05052,-0.0104246 -0.08686,-0.0183356 -0.112518,-0.0236273 a 0.01134032,0.01134033 0 0 1 -0.0089,-0.0132821 0.01134032,0.01134033 0 0 1 0.01329,-0.008864 c 0.02575,0.005292 0.06233,0.0128852 0.112811,0.0233363 a 0.01134032,0.01134033 0 0 1 0.0089,0.0135731 0.01134032,0.01134033 0 0 1 -0.01359,0.008864 z"
     id="path1068" /><path
     style="color:#000000;fill:#020202;stroke:#000000;stroke-width:0.150751;stroke-linecap:round;stroke-linejoin:round;stroke-dasharray:none;stroke-opacity:1;fill-opacity:1"
     d="M 20.848618,1.1147415 16.520984,0.21401254 a 0.01134032,0.01134033 0 0 1 -0.0086,-0.0135731 0.01134032,0.01134033 0 0 1 0.01329,-0.008864 l 4.327337,0.90102276 a 0.01134032,0.01134033 0 0 1 0.0089,0.013282 0.01134032,0.01134033 0 0 1 -0.01329,0.00886 z"
     id="path1069" /><path
     style="color:#000000;fill:#020202;stroke:#000000;stroke-width:0.150751;stroke-linecap:round;stroke-linejoin:round;stroke-dasharray:none;stroke-opacity:1;fill-opacity:1"
     d="m 23.410822,8.9247999 a 0.01134032,0.01134033 0 0 1 0,-0.016245 l 0.247479,-0.2474781 a 0.01134032,0.01134033 0 0 1 0.01624,0 0.01134032,0.01134033 0 0 1 0,0.016246 l -0.247479,0.247478 a 0.01134032,0.01134033 0 0 1 -0.01624,-9e-7 z"
     id="path1070" /><path
     style="color:#000000;fill:#020202;stroke:#000000;stroke-width:0.150751;stroke-linecap:round;stroke-linejoin:round;stroke-dasharray:none;stroke-opacity:1;fill-opacity:1"
     d="m 16.408172,0.19038789 -0.426443,-0.0888921 a 0.01134032,0.01134033 0 0 1 -0.0089,-0.01328208 0.01134032,0.01134033 0 0 1 0.01359,-0.0088635 L 16.4129,0.16824227 a 0.01134032,0.01134033 0 0 1 0.0089,0.0135731 0.01134032,0.01134033 0 0 1 -0.01358,0.008573 z"
     id="path1071" /><path
     style="color:#000000;fill:#020202;stroke:#000000;stroke-width:0.150751;stroke-linecap:round;stroke-linejoin:round;stroke-dasharray:none;stroke-opacity:1;fill-opacity:1"
     d="M 23.66657,8.5524015 A 0.01134032,0.01134033 0 0 1 23.65505,8.5408655 V 4.5785529 a 0.01134032,0.01134033 0 0 1 0.01152,-0.011536 0.01134032,0.01134033 0 0 1 0.01122,0.011536 v 3.962318 a 0.01134032,0.01134033 0 0 1 -0.01122,0.011536 z"
     id="path1072" /><path
     style="color:#000000;fill:#020202;stroke:#000000;stroke-width:0.150751;stroke-linecap:round;stroke-linejoin:round;stroke-dasharray:none;stroke-opacity:1;fill-opacity:1"
     d="m 21.014293,21.915379 a 0.01134032,0.01134033 0 0 1 -0.01447,-0.0068 0.01134032,0.01134033 0 0 1 0.0068,-0.01447 c 0.173715,-0.0632 0.347413,-0.127042 0.517699,-0.201702 0.170288,-0.07466 0.337339,-0.160129 0.496434,-0.260768 0.1591,-0.100645 0.310488,-0.21644 0.449182,-0.347004 0.13885,-0.130564 0.265284,-0.275889 0.375058,-0.432644 0.109774,-0.156755 0.203046,-0.324988 0.278193,-0.499978 0.07515,-0.175151 0.132393,-0.357079 0.172467,-0.541028 0.04022,-0.183951 0.06339,-0.370117 0.07531,-0.555794 0.01191,-0.185518 0.0124,-0.3703 0.0124,-0.555204 a 0.01134032,0.01134033 0 0 1 0.01121,-0.01151 0.01134032,0.01134033 0 0 1 0.01122,0.01151 c 0,0.184941 -4.76e-4,0.370236 -0.0124,0.55668 -0.01197,0.18659 -0.03509,0.374047 -0.0756,0.559337 -0.04037,0.185291 -0.0979,0.368316 -0.173649,0.544868 -0.07576,0.176408 -0.169874,0.346061 -0.280556,0.504113 -0.11068,0.158051 -0.238038,0.304567 -0.37801,0.436189 -0.139824,0.131625 -0.292189,0.248293 -0.452432,0.34966 -0.160248,0.10137 -0.328551,0.187511 -0.499683,0.262541 -0.171132,0.07503 -0.345421,0.13879 -0.519174,0.201999 z"
     id="path1094" /><path
     style="color:#000000;fill:#020202;stroke:#000000;stroke-width:0.150751;stroke-linecap:round;stroke-linejoin:round;stroke-dasharray:none;stroke-opacity:1;fill-opacity:1"
     d="m 15.820483,23.806023 a 0.01134032,0.01134033 0 0 1 -0.01447,-0.0068 0.01134032,0.01134033 0 0 1 0.0068,-0.01476 l 5.193812,-1.890347 a 0.01134032,0.01134033 0 0 1 0.01447,0.0068 0.01134032,0.01134033 0 0 1 -0.0068,0.01447 z"
     id="path1095" /><path
     style="color:#000000;fill:#020202;stroke:#000000;stroke-width:0.150751;stroke-linecap:round;stroke-linejoin:round;stroke-dasharray:none;stroke-opacity:1;fill-opacity:1"
     d="m 15.58659,23.870994 c -0.05738,0.003 -0.112592,-0.01066 -0.156522,-0.04134 -0.04392,-0.03083 -0.07561,-0.07787 -0.09244,-0.132895 -0.01681,-0.055 -0.0186,-0.116911 -0.0186,-0.177488 a 0.01134032,0.01134033 0 0 1 0.01122,-0.01122 0.01134032,0.01134033 0 0 1 0.01121,0.01122 c 0,0.06008 0.0022,0.119849 0.01772,0.170696 0.01554,0.05082 0.04493,0.09354 0.08417,0.121081 0.0392,0.02728 0.08915,0.04026 0.142049,0.0375 0.05302,-0.0028 0.109946,-0.0213 0.166562,-0.04194 a 0.01134032,0.01134033 0 0 1 0.01447,0.0068 0.01134032,0.01134033 0 0 1 -0.0068,0.01447 c -0.05709,0.0208 -0.115699,0.04013 -0.173056,0.04312 z"
     id="path1099" /><path
     style="color:#000000;fill:#020202;stroke:#000000;stroke-width:0.150751;stroke-linecap:round;stroke-linejoin:round;stroke-dasharray:none;stroke-opacity:1;fill-opacity:1"
     d="M 15.33025,0.6891857 A 0.01134032,0.01134033 0 0 1 15.31903,0.6776763 c 0,-0.0596715 0.0017,-0.12076906 0.0189,-0.17719146 0.01724,-0.0562584 0.04963,-0.10673556 0.09421,-0.14293586 0.04458,-0.0363564 0.10073,-0.0577162 0.159475,-0.0631984 0.05862,-0.005318 0.118731,0.005265 0.177191,0.017436 a 0.01134032,0.01134033 0 0 1 0.0089,0.0132821 0.01134032,0.01134033 0 0 1 -0.01329,0.008864 c -0.05797,-0.0120385 -0.116214,-0.0220927 -0.170696,-0.0171185 -0.05466,0.00508 -0.106661,0.0249767 -0.147366,0.0581792 -0.0407,0.0330465 -0.0705,0.0799941 -0.08653,0.13230226 -0.01603,0.0524431 -0.01831,0.11122554 -0.01831,0.1703996 a 0.01134032,0.01134033 0 0 1 -0.01122,0.0115094 z"
     id="path1104" /><path
     style="color:#000000;fill:#020202;stroke:#000000;stroke-width:0.150751;stroke-linecap:round;stroke-linejoin:round;stroke-dasharray:none;stroke-opacity:1;fill-opacity:1"
     d="m 15.33025,23.465813 a 0.01134032,0.01134033 0 0 1 -0.01122,-0.01122 V 0.67767368 a 0.01134032,0.01134033 0 0 1 0.01122,-0.0112183 0.01134032,0.01134033 0 0 1 0.01121,0.0112183 V 23.454598 a 0.01134032,0.01134033 0 0 1 -0.01121,0.01122 z"
     id="path1105" /><path
     style="color:#000000;fill:#020202;stroke:#000000;stroke-width:0.150751;stroke-linecap:round;stroke-linejoin:round;stroke-dasharray:none;stroke-opacity:1;fill-opacity:1"
     d="m 15.623208,23.855047 c -0.06538,0.0034 -0.128094,-0.01204 -0.178078,-0.04696 -0.04984,-0.03492 -0.08605,-0.08864 -0.105133,-0.151204 -0.01924,-0.06258 -0.02097,-0.132964 -0.02097,-0.202296 a 0.01134032,0.01134033 0 0 1 0.01122,-0.01122 0.01134032,0.01134033 0 0 1 0.01121,0.01122 c 0,0.06887 0.0024,0.137118 0.02038,0.195504 0.01781,0.05839 0.05116,0.10778 0.09627,0.13939 0.04528,0.03162 0.102878,0.04603 0.163902,0.04282 0.06089,-0.0032 0.126144,-0.02434 0.190778,-0.04784 a 0.01134032,0.01134033 0 0 1 0.01447,0.0068 0.01134032,0.01134033 0 0 1 -0.0068,0.01476 c -0.0651,0.02368 -0.132056,0.04558 -0.197275,0.04903 z"
     id="path1106" /><path
     style="fill:#020202;stroke:#000000;stroke-width:0.029246;stroke-opacity:1;fill-opacity:1"
     d="m 15.509338,23.70034 -0.0649,-0.04546 V 12.083264 c 0,-11.17331525 0.0018,-11.57328589 0.0534,-11.61994781 0.06904,-0.0624787 0.151505,-0.0608965 0.48001,0.009207 0.148275,0.0316389 1.320791,0.27553445 2.605591,0.54198571 1.284801,0.266454 2.431835,0.5166043 2.548966,0.5558923 1.05921,0.3552746 1.85721,1.2594167 2.098652,2.3777946 0.05119,0.2371354 0.05358,0.582721 0.05358,7.7526022 0,7.095335 -0.0028,7.518391 -0.05226,7.761056 -0.130803,0.642414 -0.341449,1.042353 -0.779901,1.480746 -0.34098,0.340932 -0.604271,0.515596 -1.055902,0.700466 -0.374744,0.153398 -5.737105,2.102735 -5.784339,2.102735 -0.0209,0 -0.06721,-0.02045 -0.102905,-0.04546 z m 5.400505,-5.58007 c 0.05095,-0.04611 0.0534,-0.164272 0.0534,-2.574603 0,-2.309749 -0.0041,-2.530851 -0.04833,-2.579674 -0.04611,-0.05096 -0.164914,-0.0534 -2.595224,-0.0534 -2.333493,0 -2.550258,0.004 -2.586976,0.04829 -0.05969,0.07193 -0.05969,5.087499 0,5.159426 0.03672,0.04424 0.253129,0.04829 2.581902,0.04829 2.324219,0 2.546397,-0.0041 2.595225,-0.04833 z m -2.639131,-6.013353 c 0.759869,-0.156956 1.369591,-0.701669 1.631243,-1.457325 0.07361,-0.2126 0.08098,-0.271661 0.08199,-0.6569999 9.26e-4,-0.3646197 -0.0084,-0.4536599 -0.06734,-0.6413712 -0.185118,-0.5895234 -0.557356,-1.038606 -1.091183,-1.316445 -0.595975,-0.3101843 -1.375043,-0.3175185 -1.968748,-0.018547 -0.45111,0.2271739 -0.759777,0.5362523 -0.987721,0.9890311 -0.178728,0.3550179 -0.230473,0.6113039 -0.213078,1.055341 0.0227,0.579342 0.191332,0.989287 0.576974,1.402582 0.521487,0.55888 1.283416,0.799558 2.037871,0.643721 z m 2.588927,-4.2422973 c 0.18364,-0.081232 0.381519,-0.2756191 0.474937,-0.4665583 0.109211,-0.223221 0.114253,-0.556088 0.01188,-0.7843123 C 21.265096,6.4323772 21.045777,6.2174905 20.852788,6.130059 20.6379,6.032705 20.299408,6.040183 20.081328,6.147098 c -0.437076,0.2142782 -0.638301,0.7151212 -0.47731,1.1880057 0.08052,0.2365137 0.324159,0.4714372 0.573228,0.5527199 0.223923,0.073078 0.48479,0.064209 0.682396,-0.023204 z M 19.309153,6.243769 c 0.202002,-0.09883 0.376995,-0.2933939 0.458773,-0.5100823 0.08546,-0.2264384 0.06909,-0.5398268 -0.03929,-0.7520385 -0.09951,-0.1948497 -0.332327,-0.4025873 -0.521683,-0.4654814 -0.205669,-0.068313 -0.575852,-0.04785 -0.748824,0.041394 -0.309407,0.1596364 -0.481431,0.4400312 -0.497774,0.8113554 -0.0092,0.2101559 -0.0011,0.2592044 0.07005,0.417576 0.09697,0.2160799 0.299023,0.4097153 0.518051,0.4964721 0.217796,0.086267 0.537976,0.069771 0.760693,-0.039195 z m 3.187089,-0.01016 c 0.149645,-0.078661 0.340153,-0.2778866 0.426305,-0.445815 0.05434,-0.105926 0.06767,-0.1795172 0.06875,-0.3796004 0.0012,-0.2145586 -0.0098,-0.270854 -0.08074,-0.4153482 -0.09182,-0.1869811 -0.261181,-0.3499829 -0.45812,-0.4409149 -0.09758,-0.045056 -0.191525,-0.060899 -0.365,-0.061555 -0.304313,-0.00106 -0.486209,0.076756 -0.683689,0.2928302 -0.172365,0.188595 -0.236207,0.3611748 -0.235826,0.6374898 4.76e-4,0.3571584 0.17831,0.6408499 0.505239,0.8060743 0.170338,0.086085 0.195714,0.090649 0.443476,0.079772 0.19384,-0.00852 0.293449,-0.027646 0.3796,-0.072932 z m -1.597384,-1.58065 c 0.191083,-0.098872 0.346071,-0.254463 0.435446,-0.4371393 0.06787,-0.138729 0.08086,-0.2030042 0.08117,-0.4017487 3.44e-4,-0.2131351 -0.0098,-0.2564765 -0.101831,-0.4370387 -0.287554,-0.5639647 -1.033739,-0.6850645 -1.49041,-0.2418795 -0.183119,0.1777101 -0.273979,0.3987457 -0.274774,0.6684355 -5.82e-4,0.1908915 0.0122,0.2464884 0.09532,0.4153376 0.108279,0.2199481 0.271002,0.3723905 0.49298,0.4618408 0.19562,0.078827 0.583357,0.06468 0.762098,-0.027808 z M 17.788659,3.0779049 c 0.33274,-0.3341184 0.604982,-0.6233636 0.604982,-0.6427681 0,-0.078404 -0.118918,-0.4577239 -0.153124,-0.4884315 -0.04341,-0.03897 -0.371559,-0.1301115 -0.468457,-0.1301115 -0.04926,0 -0.23203,0.1655604 -0.672042,0.6087772 -0.332407,0.3348249 -0.604377,0.6240727 -0.604377,0.6427682 0,0.075922 0.118984,0.456692 0.153125,0.4900295 0.02017,0.019711 0.108945,0.055187 0.197275,0.078864 0.319916,0.085762 0.272201,0.1140672 0.942618,-0.5591278 z"
     id="path2" /></svg>
