<svg xmlns="http://www.w3.org/2000/svg" width="1010.32" height="1005.308"><path d="M566.667 902.746c0-106.303 0-106.303 7-107.927 158.861-36.854 257.23-197.272 218.964-357.082-1.814-7.576-3.298-14.267-3.298-14.87s13.35-8.45 29.667-17.44c16.317-8.989 42.867-23.671 59-32.628 110.448-61.315 96.447-55.902 102.493-39.622C1092.871 635.76 891.243 968.279 571 1008.504c-4.333.544-4.333.544-4.333-105.758m-138 103.96C106.307 949.98-79.682 627.008 36.198 325.182c6.289-16.378 1.271-17.084 40.469 5.698 20.782 12.08 62.16 35.937 108 62.27 47.033 27.02 42.25 21.706 37.22 41.362-41.158 160.832 60.088 326.115 221.082 360.913 3.636.786 3.636.786 3.682 106.768.05 118.606 1.875 108.006-17.984 104.511m286.666-705.768c-115.467-117.333-297.411-117.132-417.852.461-6.152 6.007-11.955 10.625-12.897 10.264s-21.108-11.858-44.815-25.548c-42.57-24.583-48.23-27.86-73.102-42.332-6.967-4.053-23.767-13.779-37.334-21.613-13.566-7.835-25.2-14.751-25.852-15.371-4.462-4.24 52.797-64.818 87.701-92.784C362.748-23.45 607.862-33.995 787.333 88.37c29.994 20.45 46.6 33.904 70.506 57.126 22.27 21.633 58.164 63.315 58.16 67.539 0 .941-38.95 23.054-78.541 44.59-4.835 2.63-26.491 14.603-48.125 26.606-47.24 26.21-57.789 31.918-58.666 31.743-.367-.073-7.267-6.84-15.334-15.036" style="fill:#fff" transform="translate(-1.562 -3.284)"/></svg>