<?xml version="1.0" encoding="UTF-8" standalone="no"?>
<svg
   version="1.1"
   id="svg1"
   width="1010.3199"
   height="1005.3082"
   viewBox="0 0 1010.3199 1005.3082"
   xmlns="http://www.w3.org/2000/svg"
   xmlns:svg="http://www.w3.org/2000/svg">
  <defs
     id="defs1" />
  <g
     id="g1"
     transform="translate(-1.5620565,-3.2838188)">
    <path
       style="fill:#ffffff"
       d="m 566.66666,902.7455 c 0,-106.30276 0,-106.30276 7,-107.92668 158.86172,-36.85414 257.2305,-197.27153 218.96463,-357.08211 -1.81388,-7.57537 -3.29797,-14.2665 -3.29797,-14.86919 0,-0.60268 13.35,-8.45063 29.66666,-17.43987 16.31667,-8.98924 42.86667,-23.67205 59,-32.62845 110.44819,-61.31521 96.4471,-55.9026 102.49345,-39.62242 112.37727,302.58298 -89.24999,635.10202 -409.49344,675.32712 -4.33333,0.5443 -4.33333,0.5443 -4.33333,-105.7584 z m -138,103.9599 C 106.30768,949.9807 -79.681867,627.00944 36.198433,325.18349 c 6.2882,-16.37848 1.27069,-17.08492 40.46823,5.69772 20.78242,12.07928 62.159637,35.93648 107.999997,62.27043 47.03339,27.01931 42.2511,21.70499 37.22082,41.36164 -41.15809,160.83216 60.08765,326.11448 221.08173,360.91295 3.63588,0.78589 3.63588,0.78589 3.68154,106.76821 0.0511,118.60546 1.87513,108.00546 -17.98409,104.51096 z M 715.33332,300.9377 C 599.86571,183.60522 417.92196,183.80611 297.48138,301.39907 c -6.1519,6.00645 -11.95572,10.62517 -12.89739,10.26382 -0.94166,-0.36136 -21.10829,-11.85792 -44.81472,-25.54792 C 197.19964,261.53185 191.53929,258.2541 166.66666,243.78336 159.7,239.73019 142.9,230.00406 129.33333,222.16974 c -13.56667,-7.83433 -25.20014,-14.75117 -25.85216,-15.37076 -4.462037,-4.24008 52.79697,-64.81792 87.70111,-92.78444 171.56571,-137.464938 416.68031,-148.009195 596.15104,-25.645028 29.99358,20.449798 46.59955,33.904608 70.50563,57.126468 22.27028,21.63287 58.16372,63.31457 58.16004,67.53907 -8.2e-4,0.94115 -38.95017,23.05405 -78.54119,44.59056 -4.83513,2.63019 -26.49115,14.6026 -48.12448,26.60535 -47.23975,26.20987 -57.78882,31.91769 -58.66667,31.74297 -0.36666,-0.073 -7.26666,-6.83928 -15.33333,-15.03623 z"
       id="path1" />
  </g>
</svg>
