<?xml version="1.0" encoding="UTF-8" standalone="no"?>
<svg
   width="32"
   height="32"
   viewBox="0 0 32 32"
   fill="none"
   version="1.1"
   id="svg1"
   xml:space="preserve"
   xmlns="http://www.w3.org/2000/svg"
   xmlns:svg="http://www.w3.org/2000/svg"><defs
     id="defs1" /><path
     style="fill:#ffffff;fill-opacity:1;stroke-width:0.028741"
     d="M 13.53656,30.402468 C 5.5506697,29.010948 0.27201968,21.379398 1.7470397,13.357908 c 0.16753,-0.91106 0.54591,-2.2064 0.81309,-2.78351 l 0.10403,-0.22471 2.63929,1.53077 c 1.4516,0.84193 2.64431,1.55487 2.65046,1.58431 0.006,0.0294 -0.0311,0.19988 -0.0827,0.37874 -1.28943,4.46601 1.7931,9.61607 6.2589303,10.45697 l 0.14305,0.0269 v 3.0863 3.08629 l -0.10519,-0.003 c -0.0578,-0.002 -0.342,-0.0442 -0.63143,-0.0946 z m 4.15025,-2.97982 0.01,-3.07735 0.40163,-0.10598 c 4.49109,-1.18515 7.20916,-5.78559 6.0651,-10.26543 -0.0537,-0.21021 -0.0848,-0.39497 -0.0691,-0.41056 0.0741,-0.0738 5.30872,-2.95067 5.34408,-2.93704 0.0223,0.009 0.12182,0.2466 0.22127,0.52897 2.69805,7.66064 -1.3173,16.03883 -8.94583,18.66583 -0.91351,0.31458 -2.49367,0.67891 -2.94453,0.67891 h -0.0922 z m 4.41479,-17.17601 c -3.18888,-3.4605499 -8.7057,-3.5240799 -12.07024,-0.13899 -0.3558703,0.35804 -0.3603703,0.36102 -0.4590003,0.30374 -0.0548,-0.0318 -1.22705,-0.7099099 -2.60502,-1.5068799 -1.37797,-0.79697 -2.52975,-1.47201 -2.55951,-1.50009 -0.0796,-0.0751 0.54109,-0.83349 1.33448,-1.63068 6.1219603,-6.15134004 16.1658803,-5.58827004 21.6024603,1.21107 0.23637,0.29562 0.43,0.55692 0.4303,0.58066 4.2e-4,0.0339 -5.30814,3.0126299 -5.36033,3.0077599 -0.007,-6.8e-4 -0.14825,-0.14765 -0.31314,-0.32659 z"
     id="path1" /></svg>
