<?xml version="1.0" encoding="UTF-8" standalone="no"?>
<svg
   width="32"
   height="32"
   viewBox="0 0 32 32"
   fill="none"
   version="1.1"
   id="svg3"
   xml:space="preserve"
   xmlns="http://www.w3.org/2000/svg"
   xmlns:svg="http://www.w3.org/2000/svg"><defs
     id="defs3" /><path
     d="M 4,2 C 4.3034484,0.93793047 4.895431,0 6,0 h 20 c 1.1046,0 1.696552,0.93793047 2,2 l 4,14 -4,14 c -0.303457,1.0621 -0.8954,2 -2,2 H 6 C 4.895431,32 4.3034571,31.0621 4,30 L 0,16 Z"
     fill="#ffffff"
     id="path1" /><g
     id="g3"
     transform="translate(0,-0.1366315)"><path
       d="m 9.000686,21.193603 c -0.615098,-1.62e-4 -1.113949,0.559128 -1.114144,1.24971 1.04e-4,0.690653 0.498983,1.25045 1.114144,1.25029 h 14.009481 c 0.615161,1.6e-4 1.11404,-0.559637 1.114144,-1.25029 -1.94e-4,-0.690581 -0.499047,-1.249871 -1.114144,-1.24971 z"
       style="fill:#000000;fill-opacity:1;stroke-width:0.0814641"
       id="path3" /><path
       d="m 9.049262,14.886373 c -0.6151,2.11e-4 -1.113769,0.560026 -1.113627,1.25029 1.06e-4,0.690066 0.498703,1.249498 1.113627,1.24971 h 14.009481 c 0.614924,-2.11e-4 1.113521,-0.559643 1.113627,-1.24971 1.42e-4,-0.690264 -0.498527,-1.250079 -1.113627,-1.25029 z"
       style="fill:#000000;fill-opacity:1;stroke-width:0.0814452"
       id="path2" /><path
       d="M 8.9417577,8.57966 C 8.3264313,8.5794995 7.827488,9.1394215 7.827631,9.8299495 7.827738,10.520279 8.3266083,11.079819 8.9417577,11.07966 H 22.951021 c 0.615151,1.62e-4 1.113504,-0.559379 1.11361,-1.2497105 1.43e-4,-0.690528 -0.498283,-1.2504522 -1.11361,-1.2502895 z"
       style="fill:#000000;fill-opacity:1;stroke-width:0.0814446"
       id="path1-5" /></g></svg>
