<?xml version="1.0" encoding="UTF-8" standalone="no"?>
<svg
   width="24"
   height="24"
   viewBox="0 0 192 192"
   version="1.1"
   id="svg1"
   xmlns="http://www.w3.org/2000/svg"
   xmlns:svg="http://www.w3.org/2000/svg">
  <defs
     id="defs1" />
  <path
     fill="currentColor"
     d="m 8,55.999998 h 33 a 32,32 0 0 0 62,0 h 81 a 8,8 0 0 0 0,-16 h -81 a 32,32 0 0 0 -62,0 H 8 a 8,8 0 0 0 0,16 m 64,-24 a 16,16 0 1 1 -16,16 16,16 0 0 1 16,-16 M 184,136 h -17 a 32,32 0 0 0 -62,0 H 8 a 8,8 0 0 0 0,16 h 97 a 32,32 0 0 0 62,0 h 17 a 8,8 0 0 0 0,-16 m -48,24 a 16,16 0 1 1 16,-16 16,16 0 0 1 -16,16"
     id="path1"
     style="fill:#ffffff" />
</svg>
