<?xml version="1.0" encoding="UTF-8" standalone="no"?>
<svg
   xml:space="preserve"
   width="32"
   height="32"
   fill="none"
   version="1.1"
   id="svg4"
   xmlns="http://www.w3.org/2000/svg"
   xmlns:svg="http://www.w3.org/2000/svg"><defs
     id="defs4" /><path
     fill="#ffffff"
     d="M 4,2 C 4.303,0.938 4.895,0 6,0 h 20 c 1.105,0 1.697,0.938 2,2 l 4,14 -4,14 c -0.303,1.062 -0.895,2 -2,2 H 6 C 4.895,32 4.303,31.062 4,30 L 0,16 Z"
     id="path1" /><path
     fill="currentColor"
     d="m 6.8333332,11.833334 h 3.4374998 a 3.3333333,3.3333333 0 0 0 6.458334,0 h 8.4375 a 0.83333333,0.83333333 0 0 0 0,-1.666666 h -8.4375 a 3.3333333,3.3333333 0 0 0 -6.458334,0 H 6.8333332 a 0.83333333,0.83333333 0 0 0 0,1.666666 M 13.5,9.3333346 A 1.6666667,1.6666667 0 1 1 11.833333,11.000001 1.6666667,1.6666667 0 0 1 13.5,9.3333346 M 25.166667,20.166668 h -1.770834 a 3.3333333,3.3333333 0 0 0 -6.458333,0 H 6.8333332 a 0.83333333,0.83333333 0 0 0 0,1.666666 H 16.9375 a 3.3333333,3.3333333 0 0 0 6.458333,0 h 1.770834 a 0.83333333,0.83333333 0 0 0 0,-1.666666 m -5,2.5 a 1.6666667,1.6666667 0 1 1 1.666666,-1.666667 1.6666667,1.6666667 0 0 1 -1.666666,1.666667"
     style="fill:#000000;fill-opacity:1;stroke-width:0.104167"
     id="path1-3" /></svg>
