<?xml version="1.0" encoding="UTF-8" standalone="no"?>
<svg
   width="32"
   height="32"
   viewBox="0 0 32 32"
   fill="none"
   version="1.1"
   id="svg3"
   xml:space="preserve"
   xmlns="http://www.w3.org/2000/svg"
   xmlns:svg="http://www.w3.org/2000/svg"><defs
     id="defs3" /><path
     d="M 4,2 C 4.3034484,0.93793047 4.895431,0 6,0 h 20 c 1.1046,0 1.696552,0.93793047 2,2 l 4,14 -4,14 c -0.303457,1.0621 -0.8954,2 -2,2 H 6 C 4.895431,32 4.3034571,31.0621 4,30 L 0,16 Z"
     fill="#ffffff"
     id="path1" /><g
     style="fill:none"
     id="g3"
     transform="translate(20.872161,35.028033)"><g
       id="g1"
       transform="translate(1.50011,1.50011)"
       style="fill:none"><g
         id="g4"
         transform="translate(-20.420767,-35.783801)"><path
           d="M 11.2913,12.349634 H 22.609472 V 23.668323 H 11.2913 V 13.367659 Z"
           style="fill:#000000;fill-opacity:1;stroke-width:0.076883"
           id="path3" /><path
           d="m 13.326835,14.385685 v 7.247103 h 7.247103 v -7.247103 z"
           style="fill:#ffffff;stroke-width:0.076883"
           id="path4" /><path
           d="m 5.4875205,6.8429933 v 0.9358602 9.4702225 h 4.4555418 v -1.87172 H 7.3592409 V 8.7147133 H 14.0224 v 2.5006227 h 1.87172 V 6.8429933 Z"
           style="fill:#000000;fill-opacity:1;stroke-width:0.076883"
           id="path1-2" /></g></g></g></svg>
