<?xml version="1.0" encoding="UTF-8" standalone="no"?>
<svg
   width="32"
   height="32"
   viewBox="0 0 32 32"
   fill="none"
   version="1.1"
   id="svg3"
   xml:space="preserve"
   xmlns="http://www.w3.org/2000/svg"
   xmlns:svg="http://www.w3.org/2000/svg"><defs
     id="defs3" /><path
     d="M 0,2 C 0,0.895431 0.895431,0 2,0 h 28 c 1.1046,0 2,0.895431 2,2 v 28 c 0,1.1046 -0.8954,2 -2,2 H 2 C 0.895431,32 0,31.1046 0,30 Z"
     fill="#ffffff"
     id="path1"
     style="fill:#ffffff;fill-opacity:1" /><g
     id="g1"><path
       d="M 12.343794,21.6 H 10.051196 V 17.136012 L 6.219717,10.4 h 2.669499 l 2.386762,4.48 2.402524,-4.48 h 2.496771 l -3.831479,6.752024 z"
       fill="#0e141b"
       id="path2"
       style="fill:#000000;fill-opacity:1;stroke-width:0.82963" /><path
       d="m 21.400897,10.4 c 1.302115,0 2.28379,0.254387 2.945025,0.763018 0.661234,0.508632 0.991781,1.164742 0.991781,1.968332 0,0.518738 -0.152603,0.981674 -0.457811,1.388522 -0.305065,0.406991 -0.747644,0.732413 -1.327452,0.97655 v 0.06107 c 0.681591,0.142497 1.220687,0.43233 1.617428,0.869784 0.406847,0.437454 0.610415,1.02737 0.610415,1.770032 0,0.681592 -0.198442,1.281757 -0.595183,1.800496 -0.396741,0.508631 -0.935837,0.905372 -1.617428,1.190223 C 22.896329,21.462628 22.153667,21.6 21.339971,21.6 c -0.793482,0 -1.546251,-0.106766 -2.258307,-0.320439 -0.712198,-0.213674 -1.307238,-0.518739 -1.785406,-0.91548 l 1.083458,-1.953242 c 0.732412,0.640879 1.637785,0.961318 2.716117,0.961318 0.589916,0 1.047727,-0.116873 1.373291,-0.350903 0.335671,-0.244137 0.503507,-0.579809 0.503507,-1.007013 0,-0.834196 -0.620522,-1.251294 -1.861566,-1.251294 h -1.49543 v -1.953099 h 1.312221 c 0.518881,0 0.920746,-0.09153 1.205455,-0.274744 0.2951,-0.193174 0.442579,-0.462793 0.442579,-0.808714 0,-0.325421 -0.147479,-0.589916 -0.442579,-0.79334 -0.284709,-0.203566 -0.686574,-0.305207 -1.205455,-0.305207 -0.416956,0 -0.829071,0.07118 -1.235919,0.213531 -0.406849,0.132247 -0.768001,0.315457 -1.083316,0.549345 l -1.098689,-1.69373 C 18.03892,11.269784 18.63396,10.949345 19.295195,10.735671 19.96668,10.51189 20.668486,10.4 21.400897,10.4 Z"
       fill="#0e141b"
       id="path3-5"
       style="fill:#000000;fill-opacity:1;stroke-width:1.42354" /></g></svg>
