<svg width="468.25" height="204.54" version="1.1" viewBox="0 0 123.89 54.119" xml:space="preserve" xmlns="http://www.w3.org/2000/svg"><path d="m13.38 4.423 2.4879 2.4879-0.20072 0.92736-0.92737 0.20072-2.4879-2.4879 0.20072-0.92737z" fill="none" stroke="#899099" stroke-width=".18" style="mix-blend-mode:normal"/><path d="m10.778 6.2106c-0.42112-0.073373-0.69948-0.47581-0.6217-0.89881 0.0088-0.048049 0.02879-0.11635 0.04287-0.14678l0.0055-0.011775 0.13918 0.080728c0.07654 0.044394 0.13944 0.081998 0.13976 0.083544 3.17e-4 0.00153-0.0017 0.010548-0.0045 0.019971-0.06799 0.23551 0.09455 0.50708 0.33005 0.55143l0.0076 0.00141v0.3255l-0.0055-1.575e-4c-0.0031-1.055e-4 -0.01802-0.0023-0.03329-0.00505zm0.21885-0.15713 5.29e-4 -0.16228 0.02118-0.00566c0.23683-0.062501 0.38016-0.30509 0.31983-0.54133-0.0029-0.01101-0.0045-0.020829-0.0037-0.021655 0.0039-0.00382 0.27994-0.1556 0.28181-0.15488 0.0011 4.74e-4 0.0063 0.012998 0.01163 0.027894 0.14228 0.40397-0.06946 0.84578-0.47174 0.9843-0.04817 0.016592-0.1315 0.0358-0.15528 0.0358h-0.0049zm0.23281-0.90574c-0.16816-0.18248-0.45908-0.18584-0.6365-0.00733-0.01877 0.018887-0.01901 0.01904-0.02421 0.016011-0.0029-0.00168-0.06471-0.037436-0.13737-0.07946-0.07267-0.042024-0.1334-0.077625-0.13497-0.079108-0.0042-0.00397 0.02854-0.04395 0.07038-0.085989 0.32283-0.32438 0.85248-0.29469 1.1392 0.063861 0.01254 0.015583 0.02268 0.029361 0.0227 0.030616 2.2e-5 0.00184-0.27991 0.15887-0.28267 0.15861-3.69e-4 -3.52e-5 -0.0078-0.00779-0.01652-0.017219z" fill="#899099" style="mix-blend-mode:normal"/><path d="m110.4 4.2901-2.5867 2.5867 0.20868 0.96419 0.96419 0.20869 2.5867-2.5867-0.20869-0.9642z" fill="none" stroke="#899099" stroke-width=".18" style="mix-blend-mode:normal"/><path d="m112.22 4.8682h0.29892a0.28986 0.28986 0 0 0 0.5616 0h0.73369a0.072464 0.072464 0 0 0 0-0.14491h-0.73369a0.28986 0.28986 0 0 0-0.5616 0h-0.29892a0.072464 0.072464 0 0 0 0 0.14491m0.5797-0.21739a0.14493 0.14493 0 1 1-0.14492 0.14493 0.14493 0.14493 0 0 1 0.14492-0.14493m1.0145 0.94203h-0.15399a0.28986 0.28986 0 0 0-0.56162 0h-0.87862a0.072464 0.072464 0 0 0 0 0.14491h0.87862a0.28986 0.28986 0 0 0 0.56162 0h0.15399a0.072464 0.072464 0 0 0 0-0.14491m-0.43476 0.21739a0.14493 0.14493 0 1 1 0.14493-0.14493 0.14493 0.14493 0 0 1-0.14493 0.14493" fill="#899099" style="mix-blend-mode:normal"/><g fill="none" stroke="#899099"><path d="m113.88 22.551a3.3162 3.3162 0 0 1-3.3162 3.3162 3.3162 3.3162 0 0 1-3.3162-3.3162 3.3162 3.3162 0 0 1 3.3162-3.3162 3.3162 3.3162 0 0 1 3.3162 3.3162z" stroke-width=".18" style="mix-blend-mode:normal"/><path d="m10.971 20.563v-2.4254c0-0.42334 0.34081-0.76414 0.76414-0.76414h1.7018c0.42334 0 0.76414 0.34081 0.76414 0.76414v2.4254c-0.0015 0.2461 0.12397 0.38022 0.37653 0.40237h2.4254c0.42334 0 0.76414 0.34081 0.76414 0.76414v1.7018c0 0.42334-0.34081 0.76414-0.76414 0.76414h-2.4254c-0.24376 0.01283-0.37788 0.13834-0.40237 0.37653v2.4254c0 0.42334-0.34081 0.76414-0.76414 0.76414h-1.7018c-0.42333 0-0.76414-0.34081-0.76414-0.76414v-2.4254c-0.018928-0.24376-0.14444-0.37788-0.37654-0.40237h-2.4254c-0.42334 0-0.76414-0.34081-0.76414-0.76414v-1.7018c0-0.42333 0.34081-0.76414 0.76414-0.76414h2.4254c0.26812-0.0098 0.40225-0.1353 0.40237-0.37653z" stroke-width=".22099" style="mix-blend-mode:normal"/><path d="m118.51 15.846c0 1.0678-0.86559 1.9333-1.9333 1.9333s-1.9333-0.86559-1.9333-1.9333c0-1.0678 0.86559-1.9333 1.9333-1.9333s1.9333 0.86559 1.9333 1.9333z" stroke-width=".2" style="mix-blend-mode:normal"/></g><path d="m117.44 16.712h-0.40529l-0.12236-0.34972h-0.69843l-0.11726 0.34972h-0.39l0.66784-1.8h0.37727zm-0.87942-1.3706-0.2447 0.72h0.49452z" fill="#8a9199" stroke-width=".13333" style="mix-blend-mode:normal"/><path d="m122.22 12.248c0 1.0678-0.86558 1.9333-1.9333 1.9333-1.0678 0-1.9333-0.86559-1.9333-1.9333 0-1.0678 0.86559-1.9333 1.9333-1.9333 1.0678 0 1.9333 0.86559 1.9333 1.9333z" fill="none" stroke="#899099" stroke-width=".2" style="mix-blend-mode:normal"/><path d="m120.74 12.155c0.23119 0.07029 0.34677 0.21772 0.34677 0.4423 0 0.16285-0.0595 0.28971-0.17857 0.38058-0.11904 0.09085-0.27861 0.13628-0.47874 0.13628h-0.7427v-1.8h0.67024c0.2122 0 0.36919 0.03943 0.47097 0.11828 0.1018 0.07886 0.15271 0.19029 0.15271 0.33429 0 0.08057-0.019 0.15428-0.0569 0.22115-0.0379 0.06685-0.0992 0.12256-0.18375 0.16713zm-0.66765-0.52714v0.43971h0.26136c0.0863 0 0.15268-0.0197 0.19926-0.05915 0.0466-0.04113 0.0699-0.09856 0.0699-0.17228 0-0.13885-0.0923-0.20828-0.27689-0.20828zm0.31829 1.1751c0.0966 0 0.16907-0.02143 0.21738-0.06428 0.05-0.04285 0.075-0.09943 0.075-0.16972 0-0.07543-0.0241-0.132-0.0725-0.16971-0.0483-0.03943-0.11817-0.05915-0.20961-0.05915h-0.32864v0.46286z" fill="#8a9199" style="mix-blend-mode:normal"/><g stroke-width=".2"><path d="m114.95 12.248c0 1.0678-0.8656 1.9333-1.9334 1.9333s-1.9333-0.86559-1.9333-1.9333c0-1.0678 0.86559-1.9333 1.9333-1.9333s1.9334 0.86559 1.9334 1.9333z" fill="none" stroke="#899099" style="mix-blend-mode:normal"/><path d="m113.35 11.315h0.47622l-0.62983 0.85628 0.68616 0.94372h-0.46085l-0.4199-0.65572-0.40197 0.65572h-0.45061l0.63752-0.93086-0.61192-0.86915h0.46342l0.35588 0.57858z" fill="#8a9199" style="mix-blend-mode:normal"/><path d="m118.51 8.7128c0 1.0678-0.86559 1.9333-1.9334 1.9333-1.0678 0-1.9333-0.86559-1.9333-1.9333 0-1.0678 0.86558-1.9333 1.9333-1.9333 1.0678 0 1.9334 0.86559 1.9334 1.9333z" fill="none" stroke="#899099" style="mix-blend-mode:normal"/></g><path d="m116.76 9.5794h-0.36846v-0.71743l-0.61578-1.0826h0.42903l0.38359 0.72 0.38613-0.72h0.40126l-0.61577 1.0852z" fill="#8a9199" style="mix-blend-mode:normal"/><g fill="none"><g stroke="#899099"><g stroke-width=".18"><path d="m114.21 22.551a3.6525 3.6525 0 0 1-3.6524 3.6525 3.6525 3.6525 0 0 1-3.6524-3.6525 3.6525 3.6525 0 0 1 3.6524-3.6525 3.6525 3.6525 0 0 1 3.6524 3.6525z" style="mix-blend-mode:normal"/><path d="m114.9 22.551a4.3384 4.3384 0 0 1-4.3384 4.3384 4.3384 4.3384 0 0 1-4.3384-4.3384 4.3384 4.3384 0 0 1 4.3384-4.3384 4.3384 4.3384 0 0 1 4.3384 4.3384z" style="mix-blend-mode:normal"/><path d="m10.043 12.212a3.3162 3.3162 0 0 1-3.3162 3.3162 3.3162 3.3162 0 0 1-3.3162-3.3162 3.3162 3.3162 0 0 1 3.3162-3.3162 3.3162 3.3162 0 0 1 3.3162 3.3162z" style="mix-blend-mode:normal"/><path d="m10.379 12.212a3.6525 3.6525 0 0 1-3.6524 3.6525 3.6525 3.6525 0 0 1-3.6524-3.6525 3.6525 3.6525 0 0 1 3.6524-3.6525 3.6525 3.6525 0 0 1 3.6524 3.6525z" style="mix-blend-mode:normal"/><path d="m11.065 12.212a4.3384 4.3384 0 0 1-4.3384 4.3384 4.3384 4.3384 0 0 1-4.3384-4.3384 4.3384 4.3384 0 0 1 4.3384-4.3384 4.3384 4.3384 0 0 1 4.3384 4.3384z" style="mix-blend-mode:normal"/></g><path d="m10.743 33.574 3.5184-1e-6 0.51382 0.79767-0.51382 0.79768h-3.5184l-0.51382-0.79768z" stroke-width=".18" style="mix-blend-mode:normal"/><path d="m10.743 39.537 3.5184-1e-6 0.51382 0.79767-0.51382 0.79768h-3.5184l-0.51382-0.79768z" stroke-width=".18" style="mix-blend-mode:normal"/></g><g stroke="#8a9199" stroke-linejoin="round" stroke-width=".18"><g stroke-linecap="round"><path d="m123.23 30.904 0.57474-0.66345v-9.4102l-0.53226-0.53227"/><path d="m123.24 20.16 0.56069-0.5607v-9.2664c1e-3 -2.4646-1.126-4.7942-3.0593-6.3228-0.97122-0.76643-2.1073-1.2966-3.3186-1.5485l-11.025-2.2952-0.63502 0.42951"/><path d="m104.92 53.238c0 0.13666 4e-3 0.27435 0.0411 0.39423 0.0366 0.11988 0.10583 0.22161 0.20002 0.28771 0.0942 0.06611 0.21339 0.0959 0.33841 0.0894s0.25586-0.04932 0.45349-0.12125l11.834-4.3075c0.39355-0.14317 0.78745-0.28771 1.1741-0.45726 0.39029-0.16933 0.76742-0.36751 1.1282-0.59289 0.36476-0.22987 0.70677-0.494 1.0214-0.78881 0.3158-0.29696 0.60282-0.62749 0.85252-0.98404 0.24925-0.35645 0.46135-0.73749 0.63296-1.1371 0.17092-0.39834 0.30073-0.81176 0.39184-1.23 0.0915-0.41821 0.1442-0.84122 0.17126-1.2629 0.0271-0.42164 0.0281-0.84087 0.0281-1.2598v-31.535c0-3.4892-2.4315-6.5489-5.8878-7.2685l-11.391-2.3716c-0.13187-0.027401-0.26613-0.050692-0.39423-0.039047-0.12845 0.011988-0.25072 0.05857-0.34731 0.13735-0.0966 0.078436-0.16715 0.18838-0.20483 0.31169-0.0377 0.12331-0.0421 0.25928-0.0421 0.39389v51.595c0 0.15653 5e-3 0.31374 0.0469 0.45075 0.0418 0.13701 0.12056 0.25346 0.22811 0.32881 0.11417 0.0762 0.2505 0.11212 0.38739 0.10207 0.14283-0.0075 0.29251-0.05652 0.43944-0.10995"/><path d="m18.94 53.238c0 0.13666-4e-3 0.27435-0.0411 0.39423-0.0366 0.11988-0.10584 0.22161-0.20003 0.28771-0.0942 0.06611-0.21338 0.0959-0.3384 0.0894s-0.25586-0.04932-0.45349-0.12125l-11.834-4.3075c-0.39355-0.14317-0.78744-0.28771-1.1741-0.45726-0.39029-0.16933-0.76741-0.36751-1.1282-0.59289-0.36476-0.22987-0.70677-0.494-1.0214-0.78881-0.3158-0.29696-0.60282-0.62749-0.85252-0.98404-0.24925-0.35645-0.46135-0.73749-0.63297-1.1371-0.17091-0.39834-0.30072-0.81176-0.39183-1.23-0.0914-0.41821-0.1442-0.84122-0.17126-1.2629-0.0271-0.42164-0.0281-0.84087-0.0281-1.2598v-31.535c0-3.4892 2.4315-6.5489 5.8878-7.2685l11.391-2.3716c0.13186-0.027401 0.26613-0.050692 0.39423-0.039047 0.12844 0.011988 0.25072 0.05857 0.34731 0.13735 0.0966 0.078436 0.16715 0.18838 0.20482 0.31169 0.0377 0.12331 0.0421 0.25928 0.0421 0.39389v51.595c0 0.15653-5e-3 0.31374-0.0469 0.45075-0.0418 0.13701-0.12057 0.25346-0.22812 0.32881-0.11416 0.0762-0.25049 0.11212-0.38738 0.10207-0.14283-0.0075-0.29251-0.05652-0.43945-0.10995"/><path d="m0.61287 10.106-0.523-0.55509c0.21057-2.1696 1.2943-4.1748 3.0216-5.5406 0.97122-0.76643 2.1073-1.2966 3.3186-1.5485l11.025-2.2952 0.63503 0.42951"/></g><path d="m105.89 29.221h11.906v11.906h-11.906z"/><path d="m24.002 2.8218h75.898c0.54415 0 0.98222 0.43807 0.98222 0.98222v46.736c0 0.54415-0.43807 0.98222-0.98222 0.98222h-75.898c-0.54415 0-0.98222-0.43807-0.98222-0.98222v-46.736c0-0.54415 0.43807-0.98222 0.98222-0.98222z"/><path d="m102.89 26.991a0.62425 0.62425 0 0 1-0.62425 0.62426 0.62425 0.62425 0 0 1-0.62426-0.62426 0.62425 0.62425 0 0 1 0.62426-0.62425 0.62425 0.62425 0 0 1 0.62425 0.62425z"/><path d="m19.92 0.09h84.015c0.54415 0 0.98223 0.43807 0.98223 0.98222v51.975c0 0.54415-0.43808 0.98222-0.98223 0.98222h-84.015c-0.54415 0-0.98222-0.43807-0.98222-0.98222v-51.975c0-0.54415 0.43807-0.98222 0.98222-0.98222z"/><path d="m21.859 1.336h80.185c1.0938 0 1.9744 0.88059 1.9744 1.9744v47.735c0 1.0938-0.88058 1.9744-1.9744 1.9744h-80.185c-1.0938 0-1.9744-0.88059-1.9744-1.9744v-47.735c0-1.0938 0.88059-1.9744 1.9744-1.9744z"/></g></g></svg>
