<svg version="1.1" viewBox="0 0 36 36" xmlns="http://www.w3.org/2000/svg">
 <path fill="#fff" d="m11.857 0c-0.066112 0.0019712-0.13251 0.015433-0.19922 0.029296l-7.6855 1.5996c-2.3318 0.48548-3.9727 2.5484-3.9727 4.9022v21.277c0 0.2826 0.0012481 0.56513 0.019531 0.84959 0.018256 0.28445 0.05357 0.56938 0.11523 0.85154 0.061467 0.28213 0.14836 0.56132 0.26367 0.83006 0.11578 0.26962 0.25957 0.5271 0.42773 0.76756 0.16846 0.24054 0.36312 0.46371 0.57617 0.66405 0.21225 0.19888 0.44144 0.37616 0.6875 0.53124 0.24343 0.15205 0.49841 0.28616 0.76172 0.40038 0.26089 0.11438 0.52747 0.212 0.79297 0.30859l7.9375 2.8886c0.0053 0.0019 0.01036 4e-3 0.01563 0.0059l0.0293 0.01172c0.13333 0.04853 0.2223 0.07764 0.30664 0.08203 0.08434 0.0044 0.16496-0.01595 0.22852-0.06055 0.06354-0.0446 0.11008-0.11443 0.13477-0.19531 0.02503-0.08088 0.02734-0.17342 0.02734-0.26562l-0.0039 2e-3c0.0014-0.03343 0.0039-0.06581 0.0039-0.09961v-34.81c0-0.090812-0.0019-0.18243-0.02734-0.26562-0.025419-0.083189-0.073507-0.15606-0.13868-0.20898-0.065164-0.053146-0.14772-0.085659-0.23438-0.093748-0.021601-0.0019639-0.044372-0.0026102-0.066405-0.0019531zm12.285 0c-0.02203-6.5712e-4 -0.04285-1.1161e-5 -0.06445 0.0019531-0.08666 0.0080875-0.16921 0.040602-0.23437 0.093748-0.06517 0.052916-0.11325 0.12579-0.13867 0.20898-0.02543 0.083189-0.0293 0.17481-0.0293 0.26562v34.808c0 0.03379 0.0025 0.06813 0.0039 0.10156l-0.0039-2e-3c0 0.0922 0.0042 0.18474 0.0293 0.26562 0.02469 0.08088 0.07122 0.15071 0.13477 0.19531 0.06355 0.0446 0.14416 0.06298 0.22852 0.05859 0.08434-0.0044 0.17137-0.0335 0.30469-0.08203l7.9844-2.9042c0.26551-0.09659 0.53014-0.19421 0.79102-0.30859 0.26331-0.11424 0.51829-0.24834 0.76172-0.40038 0.24608-0.15508 0.47722-0.33432 0.68945-0.53319 0.21305-0.20034 0.40576-0.42155 0.57422-0.66209 0.16816-0.24047 0.31196-0.49795 0.42773-0.76756 0.11531-0.26873 0.2022-0.54792 0.26367-0.83006 0.06173-0.28213 0.09893-0.56707 0.11719-0.85154 0.01828-0.2844 0.01758-0.56698 0.01758-0.84959v-21.277c0-2.3539-1.6389-4.4168-3.9707-4.9022l-7.6856-1.5996c-0.066722-0.013865-0.13507-0.027325-0.20117-0.029296zm3.2305 2.455 0.65039 0.14062 0.14062 0.65038-1.7441 1.7461-0.65039-0.14062-0.14062-0.65038zm-18.799 0.089842 1.6777 1.6777-0.13476 0.62694-0.62695 0.13476-1.6777-1.6777 0.13477-0.62694zm22.965 1.5898c0.72039 0 1.3047 0.58436 1.3047 1.3047 0 0.72037-0.58432 1.3047-1.3047 1.3047-0.72032 0-1.3047-0.58436-1.3047-1.3047 0-0.72037 0.58438-1.3047 1.3047-1.3047zm-27.453 0.73826c1.6164 5.7e-5 2.9258 1.3094 2.9258 2.9257-5.68e-5 1.6164-1.3094 2.9277-2.9258 2.9277-1.6165 1.36e-4 -2.9276-1.3111-2.9277-2.9277 5.74e-5 -1.6165 1.3111-2.9259 2.9277-2.9257zm0 0.68944c-1.2355 2.48e-5 -2.2383 1.0027-2.2383 2.2382 2.49e-5 1.2355 1.0027 2.2363 2.2383 2.2363 1.2355-2.5e-5 2.2363-1.0007 2.2363-2.2363-2.5e-5 -1.2355-1.0007-2.2382-2.2363-2.2382zm25.051 0.95701c0.72032 0 1.3047 0.58436 1.3047 1.3047 0 0.72037-0.58438 1.3047-1.3047 1.3047-0.72031 0-1.3027-0.58436-1.3027-1.3047 0-0.72037 0.58242-1.3047 1.3027-1.3047zm4.9062 0c0.72039 0 1.3047 0.58436 1.3047 1.3047 0 0.72037-0.58438 1.3047-1.3047 1.3047-0.72032 0-1.3047-0.58436-1.3047-1.3047 0-0.72037 0.58438-1.3047 1.3047-1.3047zm-2.5039 2.4277c0.72032 0 1.3047 0.58436 1.3047 1.3047 0 0.72037-0.58433 1.3027-1.3047 1.3027-0.72036 0-1.3047-0.58241-1.3047-1.3027 0-0.72037 0.58438-1.3047 1.3047-1.3047zm-24.076 2.3359h1.1484c0.28561 0 0.51562 0.22807 0.51562 0.51366v1.6367c-0.00101 0.16603 0.08352 0.25654 0.25391 0.27148h1.6367c0.2856 0 0.51562 0.23002 0.51562 0.51561v1.1484c0 0.28559-0.23002 0.51561-0.51562 0.51561h-1.6367c-0.16445 0.0087-0.25495 0.09321-0.27148 0.2539v1.6367c0 0.28559-0.23002 0.51561-0.51562 0.51561h-1.1484c-0.2856 0-0.51367-0.23002-0.51367-0.51561v-1.6367c-0.012771-0.16445-0.097324-0.25495-0.25391-0.27148h-1.6367c-0.28561 0-0.51562-0.23002-0.51562-0.51561v-1.1484c0-0.28559 0.23002-0.51561 0.51562-0.51561h1.6367c0.18089-0.0066 0.27139-0.09115 0.27148-0.2539v-1.6367c0-0.28559 0.22807-0.51366 0.51367-0.51366zm20.021 0.56444c1.6164 5.6e-5 2.9258 1.3113 2.9258 2.9277 1.35e-4 1.6165-1.3092 2.9256-2.9258 2.9257-1.6165-5.7e-5 -2.9279-1.3092-2.9277-2.9257 5.7e-5 -1.6164 1.3113-2.9277 2.9277-2.9277zm0 0.68944c-1.2356 2.4e-5 -2.2363 1.0027-2.2363 2.2382 2.5e-5 1.2355 1.0007 2.2363 2.2363 2.2363 1.2356-2.5e-5 2.2363-1.0007 2.2363-2.2363-2.5e-5 -1.2356-1.0007-2.2382-2.2363-2.2382zm-2.5332 6.7381h6.7949c0.34239 0 0.61914 0.2748 0.61914 0.61717v6.7967c0 0.34238-0.27675 0.61717-0.61914 0.61717h-6.7949c-0.34239 0-0.61914-0.27479-0.61914-0.61717v-6.7967c0-0.34237 0.27675-0.61717 0.61914-0.61717zm-18.156 2.9374h2.373l0.34766 0.5371-0.34766 0.53905h-2.373l-0.34766-0.53905zm0 4.0214h2.373l0.34766 0.53905-0.34766 0.5371h-2.373l-0.34766-0.5371z"/>
</svg>
