<svg width="207.95" height="204.79" version="1.1" viewBox="0 0 55.02 54.184" xml:space="preserve" xmlns="http://www.w3.org/2000/svg"><path d="m54.156 31.078 0.57474-0.66345v-9.4102l-0.53226-0.53227" fill="none" stroke="#889099" stroke-linecap="round" stroke-linejoin="round" stroke-width=".58"/><path d="m54.17 20.334 0.56069-0.5607v-9.2664c1e-3 -2.4646-1.126-4.7942-3.0593-6.3228-0.97122-0.76643-2.1073-1.2966-3.3186-1.5485l-11.024-2.2952-0.63502 0.42951" fill="none" stroke="#889099" stroke-linecap="round" stroke-linejoin="round" stroke-width=".58"/><path d="m18.498 0.82464c-0.09799 0.002922-0.19825 0.021307-0.29714 0.041858l-11.391 2.3714c-3.4563 0.71962-5.888 3.7791-5.888 7.2683v31.536c0 0.4189 0.001322 0.83824 0.028422 1.2599 0.02706 0.42164 0.07965 0.84425 0.17105 1.2625 0.09111 0.41821 0.2208 0.83156 0.39171 1.2299 0.17162 0.39966 0.38379 0.78096 0.63304 1.1374 0.2497 0.35656 0.53687 0.68696 0.85267 0.98392 0.31461 0.29481 0.65637 0.55923 1.0211 0.7891 0.36083 0.22538 0.73781 0.4234 1.1281 0.59273 0.3867 0.16954 0.78106 0.31417 1.1746 0.45734l11.765 4.2824c0.0078 0.0028 0.01545 0.0055 0.02326 0.0083l0.04547 0.01654c0.19763 0.07193 0.3287 0.11494 0.45372 0.12144s0.24428-0.02329 0.33848-0.0894c0.09419-0.06611 0.16339-0.16796 0.19999-0.28784 0.0371-0.11988 0.04082-0.25763 0.04082-0.39429l-0.0052 0.0026c0.0021-0.04955 0.0052-0.09874 0.0052-0.14883v-51.596c0-0.13461-0.0042-0.27047-0.04186-0.39378s-0.10855-0.23317-0.20515-0.31161c-0.09659-0.078778-0.21883-0.12547-0.34727-0.13746-0.03202-0.002911-0.06449-0.003558-0.09715-0.002584zm-4.8685 3.7719 2.4882 2.4877-0.20102 0.9276-0.92708 0.20051-2.4877-2.4877 0.2005-0.9276zm-6.6529 3.4505c2.3959 8.45e-5 4.3382 1.9423 4.3383 4.3383-8.4e-5 2.3959-1.9423 4.3382-4.3383 4.3383-2.3961 2.01e-4 -4.3387-1.9421-4.3388-4.3383 8.5e-5 -2.3961 1.9427-4.3385 4.3388-4.3383zm0 1.0222c-1.8314 3.67e-5 -3.3161 1.4847-3.3161 3.3161 3.68e-5 1.8314 1.4847 3.3161 3.3161 3.3161 1.8314-3.7e-5 3.3161-1.4847 3.3161-3.3161-3.7e-5 -1.8314-1.4847-3.3161-3.3161-3.3161zm5.008 8.4781h1.7022c0.42334 0 0.76378 0.34045 0.76378 0.76378v2.4257c-0.0015 0.2461 0.12416 0.3799 0.37672 0.40204h2.4252c0.42334 0 0.7643 0.34096 0.7643 0.7643v1.7017c0 0.42334-0.34096 0.7643-0.7643 0.7643h-2.4252c-0.24376 0.01283-0.37807 0.13853-0.40256 0.37672v2.4252c0 0.42334-0.34045 0.7643-0.76378 0.7643h-1.7022c-0.42333 0-0.76378-0.34096-0.76378-0.7643v-2.4252c-0.01893-0.24376-0.14462-0.37807-0.37672-0.40256h-2.4252c-0.42334 0-0.7643-0.34096-0.7643-0.7643v-1.7017c0-0.42333 0.34096-0.7643 0.7643-0.7643h2.4252c0.26812-0.0098 0.40243-0.13497 0.40256-0.37621v-2.4257c0-0.42334 0.34044-0.76378 0.76378-0.76378zm-0.99168 16.201h3.5187l0.51367 0.79737-0.51367 0.79789h-3.5187l-0.51367-0.79789zm0 5.963h3.5187l0.51367 0.79737-0.51367 0.79789h-3.5187l-0.51367-0.79789z" fill="#889099"/><path d="m0.86294 10.279-0.523-0.55509c0.21057-2.1696 1.2943-4.1748 3.0216-5.5406 0.97122-0.76643 2.1073-1.2966 3.3186-1.5485l11.025-2.2952 0.63503 0.42951" fill="none" stroke="#889099" stroke-linecap="round" stroke-linejoin="round" stroke-width=".68"/><path d="m36.538 0.82464c-0.03266-9.7403e-4 -0.06513-3.2755e-4 -0.09715 0.002584-0.12845 0.011988-0.25068 0.058682-0.34727 0.13746-0.0966 0.078436-0.16696 0.18831-0.20464 0.31161-0.0377 0.12331-0.04237 0.25917-0.04237 0.39378v51.596c0 0.05009 0.0031 0.09928 0.0052 0.14883l-0.0052-0.0026c0 0.13666 0.0042 0.27441 0.04134 0.39429 0.0366 0.11988 0.1058 0.22173 0.19999 0.28784 0.0942 0.06611 0.21346 0.0959 0.33848 0.0894s0.25558-0.04951 0.4532-0.12144l11.834-4.3072c0.39355-0.14317 0.7874-0.28779 1.1741-0.45734 0.39029-0.16933 0.76727-0.36735 1.1281-0.59273 0.36476-0.22987 0.70652-0.4943 1.0211-0.7891 0.3158-0.29696 0.60297-0.62737 0.85267-0.98392 0.24925-0.35645 0.46143-0.73774 0.63304-1.1374 0.17092-0.39834 0.3006-0.81169 0.39171-1.2299 0.0915-0.41821 0.14451-0.84083 0.17157-1.2625 0.0271-0.42164 0.02791-0.84098 0.02791-1.2599v-31.536c0-3.4892-2.4312-6.5487-5.8875-7.2683l-11.392-2.3714c-0.0989-0.020551-0.19916-0.038936-0.29714-0.041858zm4.7884 3.6391 0.96429 0.20877 0.20826 0.96377-2.5864 2.5869-0.96429-0.20877-0.20877-0.96429zm6.1748 2.4893c1.0678 0 1.9337 0.86547 1.9337 1.9332 0 1.0678-0.86598 1.9332-1.9337 1.9332-1.0677 0-1.9332-0.86547-1.9332-1.9332 0-1.0678 0.86548-1.9332 1.9332-1.9332zm-3.56 3.5352c1.0677 0 1.9332 0.86547 1.9332 1.9332 0 1.0678-0.86548 1.9332-1.9332 1.9332s-1.9332-0.86547-1.9332-1.9332c0-1.0678 0.86548-1.9332 1.9332-1.9332zm7.2714 0c1.0678 0 1.9332 0.86547 1.9332 1.9332 0 1.0678-0.86547 1.9332-1.9332 1.9332-1.0677 0-1.9332-0.86547-1.9332-1.9332 0-1.0678 0.86548-1.9332 1.9332-1.9332zm-3.7114 3.5977c1.0677 0 1.9337 0.86547 1.9337 1.9332 0 1.0678-0.86599 1.9332-1.9337 1.9332s-1.9332-0.86547-1.9332-1.9332c0-1.0678 0.86548-1.9332 1.9332-1.9332zm-6.0105 4.3c2.3959 8.4e-5 4.3382 1.9423 4.3383 4.3383 2.01e-4 2.3961-1.9421 4.3387-4.3383 4.3388-2.3961-8.4e-5 -4.3385-1.9427-4.3383-4.3388 8.4e-5 -2.3959 1.9423-4.3382 4.3383-4.3383zm0 1.0222c-1.8314 3.7e-5 -3.3161 1.4847-3.3161 3.3161 3.7e-5 1.8314 1.4847 3.3161 3.3161 3.3161 1.8314-3.7e-5 3.3161-1.4847 3.3161-3.3161-3.7e-5 -1.8314-1.4847-3.3161-3.3161-3.3161zm-3.7559 9.9865h10.074c0.50751 0 0.91571 0.40821 0.91571 0.91571v10.074c0 0.50751-0.4082 0.91623-0.91571 0.91623h-10.074c-0.50751 0-0.91623-0.40872-0.91623-0.91623v-10.074c0-0.5075 0.40872-0.91571 0.91623-0.91571z" fill="#889099"/></svg>
