<svg xmlns="http://www.w3.org/2000/svg" xml:space="preserve" width="89.79" height="90.709" viewBox="0 0 23.757 24"><path d="M.168 3.81a.01.01 0 0 1-.008-.015 3.58 3.58 0 0 1 1.256-1.963c.419-.331.917-.571 1.47-.686a.01.01 0 0 1 .013.008.01.01 0 0 1-.009.014 3.5 3.5 0 0 0-1.46.681A3.54 3.54 0 0 0 .182 3.801a.01.01 0 0 1-.014.008" style="color:#000;fill:#020202;stroke:#000;stroke-width:.150751;stroke-linecap:round;stroke-linejoin:round;stroke-dasharray:none;stroke-opacity:1;fill-opacity:1"/><path d="M.086 4.316a.01.01 0 0 1-.01-.013 4 4 0 0 1 .084-.508.01.01 0 0 1 .014-.008.01.01 0 0 1 .008.014 4 4 0 0 0-.083.504.01.01 0 0 1-.013.01M2.89 1.168a.01.01 0 0 1-.013-.009.01.01 0 0 1 .009-.013l4.29-.893A.01.01 0 0 1 7.19.26a.01.01 0 0 1-.009.014z" style="color:#000;fill:#020202;stroke:#000;stroke-width:.150751;stroke-linecap:round;stroke-linejoin:round;stroke-dasharray:none;stroke-opacity:1;fill-opacity:1"/><path d="M7.181.275a.01.01 0 0 1-.013-.01.01.01 0 0 1 .008-.012l.465-.097a.01.01 0 0 1 .013.009.01.01 0 0 1-.009.013zM2.226 6.641a.01.01 0 0 1-.012-.011.01.01 0 0 1 .012-.011h.001a.01.01 0 0 1 .012.011.01.01 0 0 1-.012.011zM7.979 23.881 2.724 21.97a.01.01 0 0 1-.006-.015.01.01 0 0 1 .014-.007l5.255 1.913a.01.01 0 0 1 .007.014.01.01 0 0 1-.015.007" style="color:#000;fill:#020202;stroke:#000;stroke-width:.150751;stroke-linecap:round;stroke-linejoin:round;stroke-dasharray:none;stroke-opacity:1;fill-opacity:1"/><path d="M2.724 21.969a9 9 0 0 1-.519-.203 4 4 0 0 1-.5-.262 3 3 0 0 1-.452-.35 2.83 2.83 0 0 1-.832-1.485 4 4 0 0 1-.076-.559 9 9 0 0 1-.012-.557.01.01 0 0 1 .011-.011.01.01 0 0 1 .011.011c0 .185 0 .37.013.555q.016.28.075.556.06.277.173.541a2.8 2.8 0 0 0 1.102 1.28q.24.15.496.26c.17.075.344.139.518.202a.01.01 0 0 1 .007.015.01.01 0 0 1-.015.007M8.152 23.924a.6.6 0 0 1-.173-.043.01.01 0 0 1-.007-.014.01.01 0 0 1 .015-.007c.056.02.113.039.166.042a.23.23 0 0 0 .143-.038.23.23 0 0 0 .084-.12.6.6 0 0 0 .017-.171.01.01 0 0 1 .011-.012.01.01 0 0 1 .012.012c0 .06-.002.122-.019.177a.25.25 0 0 1-.092.133.25.25 0 0 1-.157.041M3.066 6.911a1.456 1.456 0 0 1 0-2.911.01.01 0 0 1 .011.01.01.01 0 0 1-.01.012 1.433 1.433 0 1 0 0 2.867.01.01 0 0 1 .01.011.01.01 0 0 1-.01.011" style="color:#000;fill:#020202;stroke:#000;stroke-width:.150751;stroke-linecap:round;stroke-linejoin:round;stroke-dasharray:none;stroke-opacity:1;fill-opacity:1"/><path d="M3.066 6.911a.01.01 0 0 1-.011-.01.01.01 0 0 1 .011-.012 1.433 1.433 0 1 0 0-2.867.01.01 0 0 1-.011-.011A.01.01 0 0 1 3.066 4a1.456 1.456 0 0 1 0 2.911M.344 4.643a.01.01 0 0 1-.011-.011c0-1.546 1.077-2.901 2.608-3.22a.01.01 0 0 1 .013.009.01.01 0 0 1-.008.013 3.26 3.26 0 0 0-2.59 3.198.01.01 0 0 1-.012.011" style="color:#000;fill:#020202;stroke:#000;stroke-width:.150751;stroke-linecap:round;stroke-linejoin:round;stroke-dasharray:none;stroke-opacity:1;fill-opacity:1"/><path d="M.344 18.564a.01.01 0 0 1-.011-.011V4.632a.01.01 0 0 1 .011-.012.01.01 0 0 1 .011.012v13.921a.01.01 0 0 1-.01.011M2.946 1.434a.01.01 0 0 1-.014-.009.01.01 0 0 1 .009-.013L8.025.354a.01.01 0 0 1 .013.008.01.01 0 0 1-.01.014z" style="color:#000;fill:#020202;stroke:#000;stroke-width:.150751;stroke-linecap:round;stroke-linejoin:round;stroke-dasharray:none;stroke-opacity:1;fill-opacity:1"/><path d="M8.408.686a.01.01 0 0 1-.01-.01.5.5 0 0 0-.017-.15.24.24 0 0 0-.075-.115h0a.24.24 0 0 0-.128-.05.5.5 0 0 0-.15.015.01.01 0 0 1-.012-.009.01.01 0 0 1 .008-.013.5.5 0 0 1 .156-.016q.08.008.14.056a.26.26 0 0 1 .083.126c.015.05.017.103.017.155a.01.01 0 0 1-.012.011" style="color:#000;fill:#020202;stroke:#000;stroke-width:.150751;stroke-linecap:round;stroke-linejoin:round;stroke-dasharray:none;stroke-opacity:1;fill-opacity:1"/><path d="M8.408 23.584a.01.01 0 0 1-.01-.011V.675a.01.01 0 0 1 .01-.011.01.01 0 0 1 .012.011v22.898a.01.01 0 0 1-.012.01M.128 4.432a.14.14 0 0 1-.052-.129.01.01 0 0 1 .012-.01.01.01 0 0 1 .01.012c-.004.05.01.077.046.11a.01.01 0 0 1 0 .017.01.01 0 0 1-.016 0" style="color:#000;fill:#020202;stroke:#000;stroke-width:.150751;stroke-linecap:round;stroke-linejoin:round;stroke-dasharray:none;stroke-opacity:1;fill-opacity:1"/><path d="M.328 4.68a.01.01 0 0 1-.008-.005l-.094-.118-.1-.126a.01.01 0 0 1 .003-.016.01.01 0 0 1 .016.002l.098.126.095.118a.01.01 0 0 1-.002.016zM8.006.377 7.767.215A.01.01 0 0 1 7.764.2.01.01 0 0 1 7.78.197l.239.161a.01.01 0 0 1 .003.016.01.01 0 0 1-.016.003" style="color:#000;fill:#020202;stroke:#000;stroke-width:.150751;stroke-linecap:round;stroke-linejoin:round;stroke-dasharray:none;stroke-opacity:1;fill-opacity:1"/><path d="M7.774.217 7.766.214C7.727.18 7.697.167 7.646.178A.01.01 0 0 1 7.631.17a.01.01 0 0 1 .009-.013c.057-.012.099.004.14.042a.01.01 0 0 1 0 .016zM.168 3.81a.01.01 0 0 1-.008-.015 3.58 3.58 0 0 1 1.256-1.963c.419-.331.917-.571 1.47-.686a.01.01 0 0 1 .013.008.01.01 0 0 1-.009.014 3.5 3.5 0 0 0-1.46.681A3.54 3.54 0 0 0 .182 3.801a.01.01 0 0 1-.014.008" style="color:#000;fill:#020202;stroke:#000;stroke-width:.150751;stroke-linecap:round;stroke-linejoin:round;stroke-dasharray:none;stroke-opacity:1;fill-opacity:1"/><path d="M.086 4.316a.01.01 0 0 1-.01-.013 4 4 0 0 1 .084-.508.01.01 0 0 1 .014-.008.01.01 0 0 1 .008.014 4 4 0 0 0-.083.504.01.01 0 0 1-.013.01M2.89 1.168a.01.01 0 0 1-.013-.009.01.01 0 0 1 .009-.013l4.29-.893A.01.01 0 0 1 7.19.26a.01.01 0 0 1-.009.014z" style="color:#000;fill:#020202;stroke:#000;stroke-width:.150751;stroke-linecap:round;stroke-linejoin:round;stroke-dasharray:none;stroke-opacity:1;fill-opacity:1"/><path d="M7.181.275a.01.01 0 0 1-.013-.01.01.01 0 0 1 .008-.012l.465-.097a.01.01 0 0 1 .013.009.01.01 0 0 1-.009.013zM7.979 23.881 2.724 21.97a.01.01 0 0 1-.006-.015.01.01 0 0 1 .014-.007l5.255 1.913a.01.01 0 0 1 .007.014.01.01 0 0 1-.015.007" style="color:#000;fill:#020202;stroke:#000;stroke-width:.150751;stroke-linecap:round;stroke-linejoin:round;stroke-dasharray:none;stroke-opacity:1;fill-opacity:1"/><path d="M2.724 21.969a9 9 0 0 1-.519-.203 4 4 0 0 1-.5-.262 3 3 0 0 1-.452-.35 2.83 2.83 0 0 1-.832-1.485 4 4 0 0 1-.076-.559 9 9 0 0 1-.012-.557.01.01 0 0 1 .011-.011.01.01 0 0 1 .011.011c0 .185 0 .37.013.555q.016.28.075.556.06.277.173.541a2.8 2.8 0 0 0 1.102 1.28q.24.15.496.26c.17.075.344.139.518.202a.01.01 0 0 1 .007.015.01.01 0 0 1-.015.007M2.946 1.434a.01.01 0 0 1-.014-.009.01.01 0 0 1 .009-.013L8.025.354a.01.01 0 0 1 .013.008.01.01 0 0 1-.01.014z" style="color:#000;fill:#020202;stroke:#000;stroke-width:.150751;stroke-linecap:round;stroke-linejoin:round;stroke-dasharray:none;stroke-opacity:1;fill-opacity:1"/><path d="M8.408.686a.01.01 0 0 1-.01-.01.5.5 0 0 0-.017-.15.24.24 0 0 0-.075-.115h0a.24.24 0 0 0-.128-.05.5.5 0 0 0-.15.015.01.01 0 0 1-.012-.009.01.01 0 0 1 .008-.013.5.5 0 0 1 .156-.016q.08.008.14.056a.26.26 0 0 1 .083.126c.015.05.017.103.017.155a.01.01 0 0 1-.012.011" style="color:#000;fill:#020202;stroke:#000;stroke-width:.150751;stroke-linecap:round;stroke-linejoin:round;stroke-dasharray:none;stroke-opacity:1;fill-opacity:1"/><path d="M5.302 22.786a257 257 0 0 1-2.998-1.105C1.284 21.251.668 20.49.5 19.453.46 19.21.455 18.29.455 11.735c0-7.409 0-7.443.06-7.738a3.1 3.1 0 0 1 .82-1.552c.379-.396.777-.655 1.257-.816C2.76 1.573 8.072.444 8.168.444c.014 0 .051.026.083.059.058.058.059.097.059 11.623 0 7.916-.01 11.583-.03 11.622-.02.035-.06.056-.11.055-.044 0-1.334-.459-2.868-1.017zm1.232-4.464c.07-.082.228-.376.228-.424 0-.025-.054-.139-.12-.252l-.119-.207H4.728l-.122.213c-.067.117-.122.23-.122.25 0 .038.114.248.212.39l.055.081h.87c.792 0 .873-.005.913-.051zm0-2.628c.07-.082.228-.376.228-.424 0-.025-.054-.139-.12-.252l-.119-.207H4.73l-.123.215a1.4 1.4 0 0 0-.123.25c0 .037.116.25.212.389l.055.08h.87c.792 0 .873-.005.913-.051zm-.16-3.494.081-.07.015-.624.015-.623.623-.014.623-.015.07-.082c.07-.081.07-.086.07-.753v-.671L7.8 9.276c-.071-.071-.075-.072-.655-.072-.32 0-.603-.008-.629-.018-.04-.015-.046-.096-.046-.6 0-.616-.018-.715-.144-.783-.034-.018-.31-.03-.688-.03-.723 0-.78.014-.83.198-.018.06-.031.354-.031.653 0 .47-.007.547-.047.562-.025.01-.306.018-.624.018H3.53l-.077.077-.077.077v.655c0 .39.012.678.03.71.061.115.14.13.758.146l.599.014.014.599c.015.61.03.693.14.757.03.017.32.03.713.03.659.001.663 0 .744-.07zM3.745 7.532a2.21 2.21 0 0 0 1.401-1.408c.072-.212.08-.275.08-.672.001-.418-.003-.45-.09-.694a1.96 1.96 0 0 0-.521-.826 2.15 2.15 0 0 0-.876-.558c-.216-.075-.267-.081-.672-.08-.392 0-.461.008-.662.075-.365.122-.595.268-.888.562-.306.308-.466.59-.57 1.009-.082.326-.067.876.032 1.169.246.728.81 1.268 1.526 1.461.314.085.942.066 1.24-.038ZM6.868 3.74c.28-.07.27-.059.355-.413l.047-.199-.611-.612c-.337-.336-.635-.612-.664-.612-.07 0-.465.111-.493.139a1.5 1.5 0 0 0-.087.265l-.065.242.625.626c.344.345.63.626.635.626z" style="fill:#020202;stroke:#000;stroke-width:.029246;stroke-opacity:1;fill-opacity:1"/><path d="M20.15 3.453c-.021.005-.006.027.002.035l.268.401v.31c.01.014.03.004.045.007q.035.002.069-.001c.013-.01.004-.03.006-.043V3.89c.096-.14.196-.28.29-.422 0-.022-.027-.011-.041-.014-.03.002-.06-.002-.088.002q-.085.127-.168.254c-.017.019-.035.072-.05.07-.055-.096-.12-.187-.18-.28-.014-.016-.02-.051-.047-.045zm.021.023h.09q.102.153.2.311c.004.03.034.044.046.006.065-.108.137-.212.206-.318h.084q-.14.203-.28.407-.002.093 0 .187v.114h-.075v-.298q-.047-.075-.097-.149zM22.113 5.371c-.034-.026.03-.023.047-.024.018 0 .078-.018.054.014a.4.4 0 0 1-.101.01M21.954 5.371c-.019-.006-.009-.031-.011-.047V5.14c.02-.03.026.015.023.032v.188l-.004.008z" style="color:#000;fill:#020202;stroke:#000;stroke-width:.0882899;stroke-linecap:round;stroke-linejoin:round;stroke-dasharray:none;stroke-opacity:1;fill-opacity:1"/><path d="M21.954 5.371c-.03-.02.015-.026.032-.022q.067-.002.13 0c.022.023-.018.025-.033.023zM21.858 5.414c-.024-.023-.005-.069-.01-.101v-.26c.02-.03.025.015.022.032v.318l-.004.008z" style="color:#000;fill:#020202;stroke:#000;stroke-width:.0882899;stroke-linecap:round;stroke-linejoin:round;stroke-dasharray:none;stroke-opacity:1;fill-opacity:1"/><path d="M21.858 5.795c-.023-.018-.007-.059-.011-.087v-.305c.019-.031.026.01.023.027l-.001.354c.012.006-.017.011-.011.011M22.341 5.728c-.002-.03.038-.053.044-.086.018-.022-.002-.08.032-.077.008.03-.004.066-.015.095-.014.023-.031.072-.06.068" style="color:#000;fill:#020202;stroke:#000;stroke-width:.0882899;stroke-linecap:round;stroke-linejoin:round;stroke-dasharray:none;stroke-opacity:1;fill-opacity:1"/><path d="M22.136 5.795c-.033-.025.027-.023.045-.024.057-.004.118-.016.16-.059.045-.002-.009.043-.028.05a.4.4 0 0 1-.177.033" style="color:#000;fill:#020202;stroke:#000;stroke-width:.0882899;stroke-linecap:round;stroke-linejoin:round;stroke-dasharray:none;stroke-opacity:1;fill-opacity:1"/><path d="M21.858 5.795c-.03-.02.015-.025.032-.022h.246c.03.02-.015.025-.032.022zM22.282 5.41c-.042.001-.008-.043.013-.016.005.008-.003.019-.013.016M22.223 5.468c-.035-.017-.085.001-.111-.022.029-.025.084-.006.121.002.01.007.002.024-.01.02" style="color:#000;fill:#020202;stroke:#000;stroke-width:.0882899;stroke-linecap:round;stroke-linejoin:round;stroke-dasharray:none;stroke-opacity:1;fill-opacity:1"/><path d="M21.954 5.457c-.03-.02.015-.026.032-.023l.142.001c.02.023-.019.024-.034.022z" style="color:#000;fill:#020202;stroke:#000;stroke-width:.0882899;stroke-linecap:round;stroke-linejoin:round;stroke-dasharray:none;stroke-opacity:1;fill-opacity:1"/><path d="M21.954 5.708c-.019-.007-.009-.031-.011-.047v-.215c.019-.03.026.01.023.028l-.001.227a.01.01 0 0 1-.01.007" style="color:#000;fill:#020202;stroke:#000;stroke-width:.0882899;stroke-linecap:round;stroke-linejoin:round;stroke-dasharray:none;stroke-opacity:1;fill-opacity:1"/><path d="M21.954 5.708c-.03-.02.015-.026.032-.022h.15c.03.019-.011.026-.028.022z" style="color:#000;fill:#020202;stroke:#000;stroke-width:.0882899;stroke-linecap:round;stroke-linejoin:round;stroke-dasharray:none;stroke-opacity:1;fill-opacity:1"/><path d="M22.136 5.708c-.03-.02.015-.026.032-.022.016.001.032-.003.047.003.012.026-.024.019-.038.02z" style="color:#000;fill:#020202;stroke:#000;stroke-width:.0882899;stroke-linecap:round;stroke-linejoin:round;stroke-dasharray:none;stroke-opacity:1;fill-opacity:1"/><path d="M22.217 5.703c-.037-.018.027-.032.043-.041.032.02-.03.037-.043.041" style="color:#000;fill:#020202;stroke:#000;stroke-width:.0882899;stroke-linecap:round;stroke-linejoin:round;stroke-dasharray:none;stroke-opacity:1;fill-opacity:1"/><path d="M22.264 5.683c-.042-.005.015-.036.02-.056.04-.015.01.035-.008.047.002-.005-.012.014-.012.009" style="color:#000;fill:#020202;stroke:#000;stroke-width:.0882899;stroke-linecap:round;stroke-linejoin:round;stroke-dasharray:none;stroke-opacity:1;fill-opacity:1"/><path d="M22.289 5.643c-.01-.023.013-.053.012-.079.038-.008.015.081-.012.079" style="color:#000;fill:#020202;stroke:#000;stroke-width:.0882899;stroke-linecap:round;stroke-linejoin:round;stroke-dasharray:none;stroke-opacity:1;fill-opacity:1"/><path d="M22.309 5.584c-.02-.02-.012-.063-.034-.087.028-.025.044.04.045.064 0 .008.002.022-.011.023" style="color:#000;fill:#020202;stroke:#000;stroke-width:.0882899;stroke-linecap:round;stroke-linejoin:round;stroke-dasharray:none;stroke-opacity:1;fill-opacity:1"/><path d="M22.293 5.507c-.027-.002-.047-.037-.077-.045.01-.036.063.009.079.03a.01.01 0 0 1-.002.015M22.326 5.119c-.038-.009-.077-.05-.125-.05-.024-.011-.081.01-.078-.024.03-.007.06 0 .09.003.042.01.093.024.117.063.004.003-.006.006-.004.008" style="color:#000;fill:#020202;stroke:#000;stroke-width:.0882899;stroke-linecap:round;stroke-linejoin:round;stroke-dasharray:none;stroke-opacity:1;fill-opacity:1"/><path d="M21.859 5.064c-.03-.02.015-.025.032-.022h.24c.03.02-.015.025-.032.022zM22.214 5.36c-.04-.012.022-.03.032-.046.02-.027.034.012.01.021a.1.1 0 0 1-.042.026" style="color:#000;fill:#020202;stroke:#000;stroke-width:.0882899;stroke-linecap:round;stroke-linejoin:round;stroke-dasharray:none;stroke-opacity:1;fill-opacity:1"/><path d="M22.252 5.325c-.004-.025.02-.053.018-.08.036-.005.014.054 0 .074-.002.006-.01.011-.018.006" style="color:#000;fill:#020202;stroke:#000;stroke-width:.0882899;stroke-linecap:round;stroke-linejoin:round;stroke-dasharray:none;stroke-opacity:1;fill-opacity:1"/><path d="M22.278 5.264c-.021-.017-.012-.056-.028-.08.03-.02.04.044.04.068a.01.01 0 0 1-.012.012" style="color:#000;fill:#020202;stroke:#000;stroke-width:.0882899;stroke-linecap:round;stroke-linejoin:round;stroke-dasharray:none;stroke-opacity:1;fill-opacity:1"/><path d="M22.267 5.197c-.024-.003-.039-.035-.066-.042.008-.036.058.005.07.027a.01.01 0 0 1-.004.015" style="color:#000;fill:#020202;stroke:#000;stroke-width:.0882899;stroke-linecap:round;stroke-linejoin:round;stroke-dasharray:none;stroke-opacity:1;fill-opacity:1"/><path d="M22.208 5.16c-.035-.009-.072-.008-.108-.009-.032-.028.031-.024.05-.021.021.004.085-.003.067.03z" style="color:#000;fill:#020202;stroke:#000;stroke-width:.0882899;stroke-linecap:round;stroke-linejoin:round;stroke-dasharray:none;stroke-opacity:1;fill-opacity:1"/><path d="M21.954 5.151c-.03-.02.015-.026.032-.023h.114c.03.02-.011.027-.028.023zM22.409 5.584c-.023-.023-.009-.07-.032-.098a.17.17 0 0 0-.088-.073c-.022-.036.037-.014.05 0a.18.18 0 0 1 .081.16q-.002.01-.012.011" style="color:#000;fill:#020202;stroke:#000;stroke-width:.0882899;stroke-linecap:round;stroke-linejoin:round;stroke-dasharray:none;stroke-opacity:1;fill-opacity:1"/><path d="M17.822 11.435a.01.01 0 0 1-.011-.011.01.01 0 0 1 .011-.012 1.44 1.44 0 1 0 0-2.878.01.01 0 0 1-.011-.012.01.01 0 0 1 .011-.011 1.462 1.462 0 0 1 0 2.924" style="color:#000;fill:#020202;stroke:#000;stroke-width:.150751;stroke-linecap:round;stroke-linejoin:round;stroke-dasharray:none;stroke-opacity:1;fill-opacity:1"/><path d="M22.373 5.251c-.021-.032-.016-.088-.051-.12-.028-.015-.003-.048.014-.017a.2.2 0 0 1 .049.126c.002.002-.009.016-.012.011" style="color:#000;fill:#020202;stroke:#000;stroke-width:.0882899;stroke-linecap:round;stroke-linejoin:round;stroke-dasharray:none;stroke-opacity:1;fill-opacity:1"/><path d="M18.584 5.043c-.024.007 0 .03.008.041q.113.16.228.32-.138.188-.278.375c-.008.017.017.02.028.017q.053.002.104-.001.045-.058.087-.12c.042-.06.086-.116.125-.178l.208.296c.015.007.033 0 .05.003h.08c.022-.01-.003-.028-.009-.04q-.127-.178-.256-.356c.082-.115.17-.227.252-.34.007-.014-.011-.02-.022-.018-.033.001-.067-.002-.1.002q-.094.121-.184.245c-.019.045-.036-.026-.056-.043q-.071-.101-.144-.203c-.024-.003-.05 0-.073-.001h-.05zm.023.023h.086c.063.091.132.179.189.274.033.01.038-.05.061-.065l.159-.21h.076c-.08.11-.164.217-.242.328-.003.028.032.046.043.07l.22.31h-.09q-.11-.153-.215-.307c-.04.003-.048.07-.079.094l-.152.212h-.088c.09-.122.183-.243.27-.366-.008-.031-.038-.055-.054-.083q-.091-.13-.184-.257" style="color:#000;fill:#020202;stroke:#000;stroke-width:.0927042;stroke-linecap:round;stroke-linejoin:round;stroke-dasharray:none;stroke-opacity:1;fill-opacity:1"/><path d="M17.822 11.435a1.462 1.462 0 0 1 0-2.924.01.01 0 0 1 .011.011.01.01 0 0 1-.01.012 1.439 1.439 0 1 0 0 2.878.01.01 0 0 1 .01.012.01.01 0 0 1-.01.01M23.667 12.83a.01.01 0 0 1-.012-.012v-.11a.01.01 0 0 1 .012-.012.01.01 0 0 1 .01.011v.111a.01.01 0 0 1-.01.012" style="color:#000;fill:#020202;stroke:#000;stroke-width:.150751;stroke-linecap:round;stroke-linejoin:round;stroke-dasharray:none;stroke-opacity:1;fill-opacity:1"/><path d="M23.667 12.719a.01.01 0 0 1-.012-.012V9.341a.01.01 0 0 1 .012-.011.01.01 0 0 1 .01.01v3.367a.01.01 0 0 1-.01.012" style="color:#000;fill:#020202;stroke:#000;stroke-width:.150751;stroke-linecap:round;stroke-linejoin:round;stroke-dasharray:none;stroke-opacity:1;fill-opacity:1"/><path d="M23.667 9.352a.01.01 0 0 1-.012-.011v-.128a.01.01 0 0 1 .012-.011.01.01 0 0 1 .01.01v.129a.01.01 0 0 1-.01.011" style="color:#000;fill:#020202;stroke:#000;stroke-width:.150751;stroke-linecap:round;stroke-linejoin:round;stroke-dasharray:none;stroke-opacity:1;fill-opacity:1"/><path d="M23.413 12.985a.011.012 0 0 1-.012-.012v-4.01a.011.012 0 0 1 .012-.013.011.012 0 0 1 .011.013v4.01a.011.012 0 0 1-.011.012" style="color:#000;fill:#020202;stroke:#000;stroke-width:.156663;stroke-linecap:round;stroke-linejoin:round;stroke-dasharray:none;stroke-opacity:1;fill-opacity:1"/><path d="M23.667 13.378a.01.01 0 0 1-.012-.011v-.549a.01.01 0 0 1 .012-.01.01.01 0 0 1 .01.01v.549a.01.01 0 0 1-.01.011M23.413 13.671a.01.01 0 0 1-.012-.011v-.695a.01.01 0 0 1 .012-.011.01.01 0 0 1 .011.01v.696a.01.01 0 0 1-.011.011M23.658 9.22l-.234-.234a.01.01 0 0 1 0-.016.01.01 0 0 1 .015 0l.236.235a.01.01 0 0 1 0 .016.01.01 0 0 1-.017 0" style="color:#000;fill:#020202;stroke:#000;stroke-width:.150751;stroke-linecap:round;stroke-linejoin:round;stroke-dasharray:none;stroke-opacity:1;fill-opacity:1"/><path d="M20.433 6.867a.01.01 0 0 1-.006-.014.7.7 0 0 0 .037-.138.01.01 0 0 1 .014-.009.01.01 0 0 1 .009.014 1 1 0 0 1-.04.14.01.01 0 0 1-.014.007M20.285 7.01a.01.01 0 0 1-.006-.015l.023-.06.022-.059.023-.06.023-.058h0l.022-.06.024-.061a.01.01 0 0 1 .015-.007.01.01 0 0 1 .006.015l-.023.062-.023.06-.023.058-.022.06-.023.059-.023.059a.01.01 0 0 1-.015.006" style="color:#000;fill:#020202;stroke:#000;stroke-width:.0882899;stroke-linecap:round;stroke-linejoin:round;stroke-dasharray:none;stroke-opacity:1;fill-opacity:1"/><path d="M20.143 7.381a.01.01 0 0 1-.007-.014l.025-.065.023-.062.024-.06.023-.061.024-.062h0l.024-.062a.01.01 0 0 1 .014-.007.01.01 0 0 1 .007.015l-.024.062h0l-.024.062-.023.061h0l-.023.06-.024.062h0l-.025.065a.01.01 0 0 1-.014.006M20.427 6.652a.01.01 0 0 1-.012-.011.01.01 0 0 1 .012-.011h.104a.01.01 0 0 1 .011.01.01.01 0 0 1-.011.012h-.052z" style="color:#000;fill:#020202;stroke:#000;stroke-width:.0882899;stroke-linecap:round;stroke-linejoin:round;stroke-dasharray:none;stroke-opacity:1;fill-opacity:1"/><path d="M20.672 7.01a.01.01 0 0 1-.006-.007l-.024-.058-.023-.059-.024-.058-.024-.058-.024-.06-.027-.065a.01.01 0 0 1 .006-.015.01.01 0 0 1 .015.007l.026.064.025.06.024.058h0l.024.059.023.058.024.059a.01.01 0 0 1-.006.014z" style="color:#000;fill:#020202;stroke:#000;stroke-width:.0882899;stroke-linecap:round;stroke-linejoin:round;stroke-dasharray:none;stroke-opacity:1;fill-opacity:1"/><path d="m20.824 7.381-.006-.006-.027-.065-.025-.061-.024-.06-.025-.062-.025-.062-.026-.062a.01.01 0 0 1 .006-.015.01.01 0 0 1 .015.007l.025.062.026.062.025.06.024.061.025.061.027.065a.01.01 0 0 1-.006.015zM20.147 7.382a.01.01 0 0 1-.012-.011.01.01 0 0 1 .012-.011h.10200000000000001a.01.01 0 0 1 .011.01.01.01 0 0 1-.011.012h-.052zM20.572 7.01l-.005-.007-.01-.026-.01-.026h0l-.01-.026-.01-.026h0l-.01-.026a.01.01 0 0 1 .007-.014.01.01 0 0 1 .014.006l.01.026v0l.01.026.01.026v0l.01.026.01.026a.01.01 0 0 1-.007.014z" style="color:#000;fill:#020202;stroke:#000;stroke-width:.0882899;stroke-linecap:round;stroke-linejoin:round;stroke-dasharray:none;stroke-opacity:1;fill-opacity:1"/><path d="M20.609 7.081a.01.01 0 0 1-.015-.006l-.014-.037q-.008-.018-.013-.035a.01.01 0 0 1 .006-.015.01.01 0 0 1 .015.007l.013.035.014.037a.01.01 0 0 1-.006.014M20.532 6.88a.01.01 0 0 1-.015-.007l-.026-.072-.026-.08a.01.01 0 0 1 .007-.014.01.01 0 0 1 .015.007 2 2 0 0 0 .051.151.01.01 0 0 1-.006.015" style="color:#000;fill:#020202;stroke:#000;stroke-width:.0882899;stroke-linecap:round;stroke-linejoin:round;stroke-dasharray:none;stroke-opacity:1;fill-opacity:1"/><path d="M20.357 7.082a.01.01 0 0 1-.012-.011.01.01 0 0 1 .012-.012h.247a.01.01 0 0 1 .012.012.01.01 0 0 1-.012.011H20.4zM20.38 7.01a.01.01 0 0 1-.007-.015l.021-.057.011-.028h0l.011-.029.01-.028a.01.01 0 0 1 .015-.007.01.01 0 0 1 .007.015l-.01.028-.011.028v0l-.011.029-.011.028v0l-.01.029a.01.01 0 0 1-.015.006" style="color:#000;fill:#020202;stroke:#000;stroke-width:.0882899;stroke-linecap:round;stroke-linejoin:round;stroke-dasharray:none;stroke-opacity:1;fill-opacity:1"/><path d="M20.352 7.081a.01.01 0 0 1-.006-.014l.014-.036.013-.036a.01.01 0 0 1 .015-.007.01.01 0 0 1 .006.015l-.013.036-.014.036a.01.01 0 0 1-.015.006M20.72 7.382a.01.01 0 0 1-.012-.011.01.01 0 0 1 .011-.011h.109a.01.01 0 0 1 .012.01.01.01 0 0 1-.012.012h-.054z" style="color:#000;fill:#020202;stroke:#000;stroke-width:.0882899;stroke-linecap:round;stroke-linejoin:round;stroke-dasharray:none;stroke-opacity:1;fill-opacity:1"/><path d="M20.723 7.381a.01.01 0 0 1-.014-.006l-.028-.072-.029-.074-.029-.076a.01.01 0 0 1 .007-.014.01.01 0 0 1 .014.006l.03.076.028.074.028.072a.01.01 0 0 1-.007.014" style="color:#000;fill:#020202;stroke:#000;stroke-width:.0882899;stroke-linecap:round;stroke-linejoin:round;stroke-dasharray:none;stroke-opacity:1;fill-opacity:1"/><path d="M20.33 7.16a.01.01 0 0 1-.012-.01.01.01 0 0 1 .011-.012h.305a.01.01 0 0 1 .011.011.01.01 0 0 1-.011.012h-.227z" style="color:#000;fill:#020202;stroke:#000;stroke-width:.0882899;stroke-linecap:round;stroke-linejoin:round;stroke-dasharray:none;stroke-opacity:1;fill-opacity:1"/><path d="M20.245 7.381a.01.01 0 0 1-.007-.014l.03-.08.026-.074.025-.068a.01.01 0 0 1 .014-.006.01.01 0 0 1 .007.014l-.025.068v0l-.026.073-.03.08a.01.01 0 0 1-.014.007" style="color:#000;fill:#020202;stroke:#000;stroke-width:.0882899;stroke-linecap:round;stroke-linejoin:round;stroke-dasharray:none;stroke-opacity:1;fill-opacity:1"/><path d="M23.667 8.68a.01.01 0 0 1-.012-.01v-.13a.01.01 0 0 1 .012-.01.01.01 0 0 1 .01.01v.13a.01.01 0 0 1-.01.01M23.667 4.59a.01.01 0 0 1-.012-.011 3.55 3.55 0 0 0-1.346-2.783 3.5 3.5 0 0 0-1.46-.681.01.01 0 0 1-.01-.014.01.01 0 0 1 .014-.008 3.5 3.5 0 0 1 1.47.685 3.57 3.57 0 0 1 1.355 2.8.01.01 0 0 1-.011.012M16.521.214 16.408.19A.01.01 0 0 1 16.4.177a.01.01 0 0 1 .013-.009l.113.024a.01.01 0 0 1 .009.013.01.01 0 0 1-.014.009" style="color:#000;fill:#020202;stroke:#000;stroke-width:.150751;stroke-linecap:round;stroke-linejoin:round;stroke-dasharray:none;stroke-opacity:1;fill-opacity:1"/><path d="M20.849 1.115 16.52.214A.01.01 0 0 1 16.512.2a.01.01 0 0 1 .014-.008l4.327.9a.01.01 0 0 1 .009.014.01.01 0 0 1-.013.009" style="color:#000;fill:#020202;stroke:#000;stroke-width:.150751;stroke-linecap:round;stroke-linejoin:round;stroke-dasharray:none;stroke-opacity:1;fill-opacity:1"/><path d="M20.795 1.363 15.712.315a.013.013 0 0 1-.01-.015.013.013 0 0 1 .015-.01L20.8 1.337a.013.013 0 0 1 .01.015.013.013 0 0 1-.015.01" style="color:#000;fill:#020202;stroke:#000;stroke-width:.173907;stroke-linecap:round;stroke-linejoin:round;stroke-dasharray:none;stroke-opacity:1;fill-opacity:1"/><path d="M23.413 8.933a.011.012 0 0 1-.012-.012V4.58a.011.012 0 0 1 .012-.012.011.012 0 0 1 .011.012v4.342a.011.012 0 0 1-.011.012" style="color:#000;fill:#020202;stroke:#000;stroke-width:.15396;stroke-linecap:round;stroke-linejoin:round;stroke-dasharray:none;stroke-opacity:1;fill-opacity:1"/><path d="M23.41 8.925a.01.01 0 0 1 0-.016l.248-.248a.01.01 0 0 1 .017 0 .01.01 0 0 1 0 .016l-.248.248a.01.01 0 0 1-.016 0M16.408.19l-.426-.089a.01.01 0 0 1-.01-.013.01.01 0 0 1 .014-.009l.427.09a.01.01 0 0 1 .009.013.01.01 0 0 1-.014.008M23.413 4.59a.01.01 0 0 1-.012-.011 3.29 3.29 0 0 0-2.604-3.216.01.01 0 0 1-.009-.013.01.01 0 0 1 .013-.009 3.3 3.3 0 0 1 1.349.624 3.3 3.3 0 0 1 1.191 1.876q.084.365.083.738a.01.01 0 0 1-.011.01M23.667 8.552a.01.01 0 0 1-.012-.011V4.579a.01.01 0 0 1 .012-.012.01.01 0 0 1 .01.012V8.54a.01.01 0 0 1-.01.011M21.014 21.915A.01.01 0 0 1 21 21.91a.01.01 0 0 1 .007-.015c.173-.063.347-.127.517-.202q.257-.11.497-.26.24-.152.449-.347a2.8 2.8 0 0 0 .826-1.474q.059-.276.075-.556c.012-.185.012-.37.012-.555a.01.01 0 0 1 .012-.012.01.01 0 0 1 .01.012c0 .185 0 .37-.012.557a4 4 0 0 1-.075.559q-.06.278-.174.545a2.8 2.8 0 0 1-1.11 1.29q-.243.15-.5.262a9 9 0 0 1-.52.202" style="color:#000;fill:#020202;stroke:#000;stroke-width:.150751;stroke-linecap:round;stroke-linejoin:round;stroke-dasharray:none;stroke-opacity:1;fill-opacity:1"/><path d="M15.82 23.806a.01.01 0 0 1-.014-.007.01.01 0 0 1 .007-.015l5.194-1.89a.01.01 0 0 1 .014.007.01.01 0 0 1-.007.014zM15.587 23.871a.25.25 0 0 1-.157-.041.25.25 0 0 1-.092-.133.6.6 0 0 1-.019-.178.01.01 0 0 1 .011-.01.01.01 0 0 1 .011.01c0 .06.003.12.018.171.016.05.045.094.084.121q.062.04.142.038a.6.6 0 0 0 .167-.042.01.01 0 0 1 .014.006.01.01 0 0 1-.006.015.6.6 0 0 1-.173.043" style="color:#000;fill:#020202;stroke:#000;stroke-width:.150751;stroke-linecap:round;stroke-linejoin:round;stroke-dasharray:none;stroke-opacity:1;fill-opacity:1"/><path d="M22.269 5.405c-.02-.03.046-.037.057-.065.036-.028.025-.083.047-.112.025.015.005.055 0 .079a.2.2 0 0 1-.096.098z" style="color:#000;fill:#020202;stroke:#000;stroke-width:.0882899;stroke-linecap:round;stroke-linejoin:round;stroke-dasharray:none;stroke-opacity:1;fill-opacity:1"/><path d="M20.793 1.38 15.764.335a.01.01 0 0 1-.009-.013.01.01 0 0 1 .014-.01l5.029 1.048a.01.01 0 0 1 .008.013.01.01 0 0 1-.013.009" style="color:#000;fill:#020202;stroke:#000;stroke-width:.150751;stroke-linecap:round;stroke-linejoin:round;stroke-dasharray:none;stroke-opacity:1;fill-opacity:1"/><path d="M15.33.69a.01.01 0 0 1-.011-.012c0-.06.002-.121.019-.178a.3.3 0 0 1 .094-.142.3.3 0 0 1 .16-.064.6.6 0 0 1 .177.018.01.01 0 0 1 .009.013.01.01 0 0 1-.014.009.6.6 0 0 0-.17-.017.27.27 0 0 0-.148.058.27.27 0 0 0-.086.132.6.6 0 0 0-.018.17.01.01 0 0 1-.012.012M23.395 4.59a.01.01 0 0 1-.012-.011 3.26 3.26 0 0 0-2.59-3.198.01.01 0 0 1-.009-.013.01.01 0 0 1 .014-.01 3.285 3.285 0 0 1 2.608 3.22.01.01 0 0 1-.011.012" style="color:#000;fill:#020202;stroke:#000;stroke-width:.150751;stroke-linecap:round;stroke-linejoin:round;stroke-dasharray:none;stroke-opacity:1;fill-opacity:1"/><path d="M23.395 18.511a.01.01 0 0 1-.012-.011V4.579a.01.01 0 0 1 .012-.012.01.01 0 0 1 .01.012V18.5a.01.01 0 0 1-.01.011M15.33 23.466a.01.01 0 0 1-.011-.011V.678a.01.01 0 0 1 .011-.012.01.01 0 0 1 .011.012v22.777a.01.01 0 0 1-.01.01" style="color:#000;fill:#020202;stroke:#000;stroke-width:.150751;stroke-linecap:round;stroke-linejoin:round;stroke-dasharray:none;stroke-opacity:1;fill-opacity:1"/><path d="M15.623 23.855a.3.3 0 0 1-.178-.047.3.3 0 0 1-.105-.151.7.7 0 0 1-.021-.202.01.01 0 0 1 .011-.012.01.01 0 0 1 .011.012c0 .068.003.137.02.195a.26.26 0 0 0 .097.14.26.26 0 0 0 .164.042.7.7 0 0 0 .19-.048.01.01 0 0 1 .015.007.01.01 0 0 1-.007.015.7.7 0 0 1-.197.05M23.395 9.152a.01.01 0 0 1-.012-.012.01.01 0 0 1 .012-.011h.018a.01.01 0 0 1 .011.011.01.01 0 0 1-.011.012zM23.405 13.669a.01.01 0 0 1-.001-.017l.254-.292a.01.01 0 0 1 .016-.001.01.01 0 0 1 .001.015l-.254.293a.01.01 0 0 1-.016.002" style="color:#000;fill:#020202;stroke:#000;stroke-width:.150751;stroke-linecap:round;stroke-linejoin:round;stroke-dasharray:none;stroke-opacity:1;fill-opacity:1"/><path d="M15.703.317a.012.012 0 0 1-.016-.004.012.012 0 0 1 .003-.018l.287-.214a.012.012 0 0 1 .016.004.012.012 0 0 1-.003.017z" style="color:#000;fill:#020202;stroke:#000;stroke-width:.16209;stroke-linecap:round;stroke-linejoin:round;stroke-dasharray:none;stroke-opacity:1;fill-opacity:1"/><path d="M23.667 12.83a.01.01 0 0 1-.012-.012v-.11a.01.01 0 0 1 .012-.012.01.01 0 0 1 .01.011v.111a.01.01 0 0 1-.01.012" style="color:#000;fill:#020202;stroke:#000;stroke-width:.150751;stroke-linecap:round;stroke-linejoin:round;stroke-dasharray:none;stroke-opacity:1;fill-opacity:1"/><path d="M23.667 12.719a.01.01 0 0 1-.012-.012V9.341a.01.01 0 0 1 .012-.011.01.01 0 0 1 .01.01v3.367a.01.01 0 0 1-.01.012" style="color:#000;fill:#020202;stroke:#000;stroke-width:.150751;stroke-linecap:round;stroke-linejoin:round;stroke-dasharray:none;stroke-opacity:1;fill-opacity:1"/><path d="M23.667 9.352a.01.01 0 0 1-.012-.011v-.128a.01.01 0 0 1 .012-.011.01.01 0 0 1 .01.01v.129a.01.01 0 0 1-.01.011M23.667 13.378a.01.01 0 0 1-.012-.011v-.549a.01.01 0 0 1 .012-.01.01.01 0 0 1 .01.01v.549a.01.01 0 0 1-.01.011" style="color:#000;fill:#020202;stroke:#000;stroke-width:.150751;stroke-linecap:round;stroke-linejoin:round;stroke-dasharray:none;stroke-opacity:1;fill-opacity:1"/><path d="m23.657 9.22-.248-.247a.012.012 0 0 1 0-.017.012.012 0 0 1 .017 0l.248.248a.012.012 0 0 1 0 .017.012.012 0 0 1-.017 0" style="color:#000;fill:#020202;stroke:#000;stroke-width:.159243;stroke-linecap:round;stroke-linejoin:round;stroke-dasharray:none;stroke-opacity:1;fill-opacity:1"/><path d="M23.667 8.68a.01.01 0 0 1-.012-.01v-.13a.01.01 0 0 1 .012-.01.01.01 0 0 1 .01.01v.13a.01.01 0 0 1-.01.01M23.667 4.59a.01.01 0 0 1-.012-.011 3.55 3.55 0 0 0-1.346-2.783 3.5 3.5 0 0 0-1.46-.681.01.01 0 0 1-.01-.014.01.01 0 0 1 .014-.008 3.5 3.5 0 0 1 1.47.685 3.57 3.57 0 0 1 1.355 2.8.01.01 0 0 1-.011.012M16.521.214 16.408.19A.01.01 0 0 1 16.4.177a.01.01 0 0 1 .013-.009l.113.024a.01.01 0 0 1 .009.013.01.01 0 0 1-.014.009" style="color:#000;fill:#020202;stroke:#000;stroke-width:.150751;stroke-linecap:round;stroke-linejoin:round;stroke-dasharray:none;stroke-opacity:1;fill-opacity:1"/><path d="M20.849 1.115 16.52.214A.01.01 0 0 1 16.512.2a.01.01 0 0 1 .014-.008l4.327.9a.01.01 0 0 1 .009.014.01.01 0 0 1-.013.009M23.41 8.925a.01.01 0 0 1 0-.016l.248-.248a.01.01 0 0 1 .017 0 .01.01 0 0 1 0 .016l-.248.248a.01.01 0 0 1-.016 0M16.408.19l-.426-.089a.01.01 0 0 1-.01-.013.01.01 0 0 1 .014-.009l.427.09a.01.01 0 0 1 .009.013.01.01 0 0 1-.014.008M23.667 8.552a.01.01 0 0 1-.012-.011V4.579a.01.01 0 0 1 .012-.012.01.01 0 0 1 .01.012V8.54a.01.01 0 0 1-.01.011M21.014 21.915A.01.01 0 0 1 21 21.91a.01.01 0 0 1 .007-.015c.173-.063.347-.127.517-.202q.257-.11.497-.26.24-.152.449-.347a2.8 2.8 0 0 0 .826-1.474q.059-.276.075-.556c.012-.185.012-.37.012-.555a.01.01 0 0 1 .012-.012.01.01 0 0 1 .01.012c0 .185 0 .37-.012.557a4 4 0 0 1-.075.559q-.06.278-.174.545a2.8 2.8 0 0 1-1.11 1.29q-.243.15-.5.262a9 9 0 0 1-.52.202" style="color:#000;fill:#020202;stroke:#000;stroke-width:.150751;stroke-linecap:round;stroke-linejoin:round;stroke-dasharray:none;stroke-opacity:1;fill-opacity:1"/><path d="M15.82 23.806a.01.01 0 0 1-.014-.007.01.01 0 0 1 .007-.015l5.194-1.89a.01.01 0 0 1 .014.007.01.01 0 0 1-.007.014zM15.587 23.871a.25.25 0 0 1-.157-.041.25.25 0 0 1-.092-.133.6.6 0 0 1-.019-.178.01.01 0 0 1 .011-.01.01.01 0 0 1 .011.01c0 .06.003.12.018.171.016.05.045.094.084.121q.062.04.142.038a.6.6 0 0 0 .167-.042.01.01 0 0 1 .014.006.01.01 0 0 1-.006.015.6.6 0 0 1-.173.043M15.33.69a.01.01 0 0 1-.011-.012c0-.06.002-.121.019-.178a.3.3 0 0 1 .094-.142.3.3 0 0 1 .16-.064.6.6 0 0 1 .177.018.01.01 0 0 1 .009.013.01.01 0 0 1-.014.009.6.6 0 0 0-.17-.017.27.27 0 0 0-.148.058.27.27 0 0 0-.086.132.6.6 0 0 0-.018.17.01.01 0 0 1-.012.012" style="color:#000;fill:#020202;stroke:#000;stroke-width:.150751;stroke-linecap:round;stroke-linejoin:round;stroke-dasharray:none;stroke-opacity:1;fill-opacity:1"/><path d="M15.33 23.466a.01.01 0 0 1-.011-.011V.678a.01.01 0 0 1 .011-.012.01.01 0 0 1 .011.012v22.777a.01.01 0 0 1-.01.01" style="color:#000;fill:#020202;stroke:#000;stroke-width:.150751;stroke-linecap:round;stroke-linejoin:round;stroke-dasharray:none;stroke-opacity:1;fill-opacity:1"/><path d="M15.623 23.855a.3.3 0 0 1-.178-.047.3.3 0 0 1-.105-.151.7.7 0 0 1-.021-.202.01.01 0 0 1 .011-.012.01.01 0 0 1 .011.012c0 .068.003.137.02.195a.26.26 0 0 0 .097.14.26.26 0 0 0 .164.042.7.7 0 0 0 .19-.048.01.01 0 0 1 .015.007.01.01 0 0 1-.007.015.7.7 0 0 1-.197.05" style="color:#000;fill:#020202;stroke:#000;stroke-width:.150751;stroke-linecap:round;stroke-linejoin:round;stroke-dasharray:none;stroke-opacity:1;fill-opacity:1"/><path d="m15.51 23.7-.066-.045V12.083c0-11.173.002-11.573.054-11.62.069-.062.151-.06.48.01l2.605.542c1.285.266 2.432.516 2.55.555a3.21 3.21 0 0 1 2.098 2.378c.051.237.054.583.054 7.753 0 7.095-.003 7.518-.053 7.76-.13.643-.341 1.043-.78 1.482-.34.34-.604.515-1.055.7-.375.153-5.738 2.103-5.785 2.103a.25.25 0 0 1-.103-.046zm5.4-5.58c.05-.046.053-.164.053-2.574 0-2.31-.004-2.531-.048-2.58-.046-.051-.165-.053-2.595-.053-2.334 0-2.55.004-2.587.048-.06.072-.06 5.087 0 5.16.036.044.253.048 2.582.048 2.324 0 2.546-.005 2.595-.049zm-2.64-6.013a2.2 2.2 0 0 0 1.632-1.457c.074-.213.08-.272.082-.657 0-.365-.008-.454-.067-.642a2.17 2.17 0 0 0-1.092-1.316 2.24 2.24 0 0 0-1.968-.019c-.451.227-.76.536-.988.99-.179.354-.23.61-.213 1.055.023.579.191.989.577 1.402.521.56 1.283.8 2.038.644zm2.59-4.242a1.07 1.07 0 0 0 .475-.467c.109-.223.114-.556.011-.784a1.12 1.12 0 0 0-.493-.484 1 1 0 0 0-.772.017.96.96 0 0 0-.477 1.188c.08.237.324.472.573.553a1 1 0 0 0 .683-.023zm-1.55-1.621a.96.96 0 0 0 .458-.51 1 1 0 0 0-.04-.752c-.099-.195-.332-.403-.521-.466-.206-.068-.576-.048-.749.042-.31.16-.481.44-.498.81-.009.211 0 .26.07.418.097.217.3.41.518.497.218.086.538.07.761-.04zm3.186-.01c.15-.08.34-.278.427-.446.054-.106.067-.18.068-.38.001-.214-.01-.27-.08-.415a.98.98 0 0 0-.459-.441c-.097-.045-.191-.061-.365-.062-.304 0-.486.077-.683.293-.173.189-.236.361-.236.638 0 .357.178.64.505.806.17.086.196.09.444.08.193-.009.293-.028.38-.073zM20.9 4.653a1 1 0 0 0 .435-.437c.068-.139.081-.203.081-.402 0-.213-.01-.256-.101-.437a.936.936 0 0 0-1.49-.242.9.9 0 0 0-.276.669c0 .19.013.246.096.415q.16.329.493.462c.195.079.583.064.762-.028zm-3.11-1.575c.332-.334.605-.623.605-.643 0-.078-.12-.458-.153-.488-.044-.04-.372-.13-.469-.13-.05 0-.232.165-.672.608-.332.335-.604.624-.604.643 0 .076.119.457.153.49.02.02.109.055.197.079.32.086.272.114.943-.56z" style="fill:#020202;stroke:#000;stroke-width:.029246;stroke-opacity:1;fill-opacity:1"/></svg>