<svg xmlns="http://www.w3.org/2000/svg" xml:space="preserve" width="89.79" height="90.709" viewBox="0 0 23.757 24"><path d="M-96.602 247.914a.043.043 0 0 1-.032-.053 13.465 13.465 0 0 1 4.746-7.421 13.3 13.3 0 0 1 5.556-2.592.043.043 0 0 1 .05.032.043.043 0 0 1-.033.052 13.25 13.25 0 0 0-5.52 2.575 13.428 13.428 0 0 0-4.716 7.375.043.043 0 0 1-.051.032" style="color:#000;fill:#fff;stroke:#fff;stroke-width:.569769;stroke-linecap:round;stroke-linejoin:round;stroke-dasharray:none;stroke-opacity:1" transform="matrix(.26458 0 0 .26458 25.728 -61.785)"/><path d="M-96.913 249.828a.043.043 0 0 1-.039-.047 14 14 0 0 1 .14-1.06 13 13 0 0 1 .178-.86.043.043 0 0 1 .052-.03.043.043 0 0 1 .031.05 14 14 0 0 0-.315 1.908.043.043 0 0 1-.047.039M-86.315 237.932a.043.043 0 0 1-.05-.034.043.043 0 0 1 .033-.05l16.216-3.376a.043.043 0 0 1 .052.032.043.043 0 0 1-.034.051z" style="color:#000;fill:#fff;stroke:#fff;stroke-width:.569769;stroke-linecap:round;stroke-linejoin:round;stroke-dasharray:none;stroke-opacity:1" transform="matrix(.26458 0 0 .26458 25.728 -61.785)"/><path d="M-70.098 234.555a.043.043 0 0 1-.05-.033.043.043 0 0 1 .032-.05l1.755-.366a.043.043 0 0 1 .051.033.043.043 0 0 1-.033.051zM-88.826 258.618a.043.043 0 0 1-.044-.043.043.043 0 0 1 .044-.042h.006a.043.043 0 0 1 .042.042.043.043 0 0 1-.042.043zM-67.082 323.777l-19.86-7.229a.043.043 0 0 1-.026-.055.043.043 0 0 1 .055-.026l19.86 7.23a.043.043 0 0 1 .026.054.043.043 0 0 1-.055.026" style="color:#000;fill:#fff;stroke:#fff;stroke-width:.569769;stroke-linecap:round;stroke-linejoin:round;stroke-dasharray:none;stroke-opacity:1" transform="matrix(.26458 0 0 .26458 25.728 -61.785)"/><path d="M-86.942 316.548a33 33 0 0 1-1.962-.764 14 14 0 0 1-1.888-.992 11.3 11.3 0 0 1-1.71-1.322 10.7 10.7 0 0 1-1.428-1.648 10.7 10.7 0 0 1-1.062-1.906 11.4 11.4 0 0 1-.656-2.06c-.153-.7-.242-1.408-.287-2.112a33 33 0 0 1-.047-2.105.043.043 0 0 1 .044-.043.043.043 0 0 1 .042.043c0 .699.002 1.398.047 2.1.045.7.133 1.405.285 2.1a11.3 11.3 0 0 0 .652 2.044 10.602 10.602 0 0 0 2.468 3.526c.524.493 1.096.93 1.698 1.31s1.233.704 1.876.987a33 33 0 0 0 1.957.76.043.043 0 0 1 .026.057.043.043 0 0 1-.055.025M-66.428 323.94c-.217-.012-.439-.085-.654-.163a.043.043 0 0 1-.025-.055.043.043 0 0 1 .054-.026c.213.078.429.147.629.158.2.01.39-.039.539-.142a.86.86 0 0 0 .317-.456c.058-.193.067-.419.067-.646a.043.043 0 0 1 .042-.043.043.043 0 0 1 .044.043c0 .23-.007.462-.07.67a.95.95 0 0 1-.351.502.95.95 0 0 1-.592.158M-85.65 259.64a5.503 5.503 0 0 1 0-11.006.043.043 0 0 1 .042.042.043.043 0 0 1-.042.044 5.416 5.416 0 0 0-5.417 5.416 5.417 5.417 0 0 0 5.417 5.418.043.043 0 0 1 .042.043.043.043 0 0 1-.042.042" style="color:#000;fill:#fff;stroke:#fff;stroke-width:.569769;stroke-linecap:round;stroke-linejoin:round;stroke-dasharray:none;stroke-opacity:1" transform="matrix(.26458 0 0 .26458 25.728 -61.785)"/><path d="M-85.65 259.64a.043.043 0 0 1-.044-.043.043.043 0 0 1 .044-.043 5.418 5.418 0 1 0 0-10.834.043.043 0 0 1-.044-.044.043.043 0 0 1 .044-.042 5.503 5.503 0 0 1 0 11.005M-95.938 251.066a.043.043 0 0 1-.044-.044c0-5.842 4.072-10.963 9.858-12.168a.043.043 0 0 1 .052.032.043.043 0 0 1-.034.052c-5.747 1.196-9.79 6.282-9.79 12.084a.043.043 0 0 1-.042.044" style="color:#000;fill:#fff;stroke:#fff;stroke-width:.569769;stroke-linecap:round;stroke-linejoin:round;stroke-dasharray:none;stroke-opacity:1" transform="matrix(.26458 0 0 .26458 25.728 -61.785)"/><path d="M-95.938 303.682a.043.043 0 0 1-.044-.043v-52.617a.043.043 0 0 1 .044-.042.043.043 0 0 1 .042.042v52.617a.043.043 0 0 1-.042.043M-86.106 238.937a.043.043 0 0 1-.05-.033.043.043 0 0 1 .032-.05l19.214-4a.043.043 0 0 1 .05.033.043.043 0 0 1-.033.05z" style="color:#000;fill:#fff;stroke:#fff;stroke-width:.569769;stroke-linecap:round;stroke-linejoin:round;stroke-dasharray:none;stroke-opacity:1" transform="matrix(.26458 0 0 .26458 25.728 -61.785)"/><path d="M-65.459 236.111a.043.043 0 0 1-.042-.042c0-.195-.008-.39-.06-.563a.9.9 0 0 0-.285-.434h-.002a.9.9 0 0 0-.482-.19 2 2 0 0 0-.563.055.043.043 0 0 1-.05-.032.043.043 0 0 1 .033-.052 2 2 0 0 1 .588-.058c.195.018.381.09.53.211.147.12.256.29.313.476.057.187.063.39.063.587a.043.043 0 0 1-.043.042z" style="color:#000;fill:#fff;stroke:#fff;stroke-width:.569769;stroke-linecap:round;stroke-linejoin:round;stroke-dasharray:none;stroke-opacity:1" transform="matrix(.26458 0 0 .26458 25.728 -61.785)"/><path d="M-65.459 322.653a.043.043 0 0 1-.042-.043V236.07a.043.043 0 0 1 .042-.044.043.043 0 0 1 .044.044v86.541a.043.043 0 0 1-.044.043M-96.754 250.269c-.145-.136-.217-.28-.198-.488a.043.043 0 0 1 .047-.039.043.043 0 0 1 .04.047c-.018.186.035.291.169.417a.043.043 0 0 1 .002.062.043.043 0 0 1-.06 0z" style="color:#000;fill:#fff;stroke:#fff;stroke-width:.569769;stroke-linecap:round;stroke-linejoin:round;stroke-dasharray:none;stroke-opacity:1" transform="matrix(.26458 0 0 .26458 25.728 -61.785)"/><path d="M-96 251.203a.04.04 0 0 1-.029-.015q-.175-.217-.357-.447l-.374-.477a.043.043 0 0 1 .008-.06.043.043 0 0 1 .06.008q.19.245.373.476.182.229.357.446a.043.043 0 0 1-.006.06.04.04 0 0 1-.033.01zM-66.98 234.943l-.903-.612a.043.043 0 0 1-.011-.06.043.043 0 0 1 .059-.01l.903.61a.043.043 0 0 1 .01.06.043.043 0 0 1-.058.012" style="color:#000;fill:#fff;stroke:#fff;stroke-width:.569769;stroke-linecap:round;stroke-linejoin:round;stroke-dasharray:none;stroke-opacity:1" transform="matrix(.26458 0 0 .26458 25.728 -61.785)"/><path d="M-67.858 234.339a.04.04 0 0 1-.03-.011c-.146-.133-.26-.178-.455-.138a.043.043 0 0 1-.05-.033.043.043 0 0 1 .032-.051c.216-.046.374.015.53.158a.043.043 0 0 1 .004.061.04.04 0 0 1-.03.014zM-96.602 247.914a.043.043 0 0 1-.032-.053 13.465 13.465 0 0 1 4.746-7.421 13.3 13.3 0 0 1 5.556-2.592.043.043 0 0 1 .05.032.043.043 0 0 1-.033.052 13.25 13.25 0 0 0-5.52 2.575 13.428 13.428 0 0 0-4.716 7.375.043.043 0 0 1-.051.032" style="color:#000;fill:#fff;stroke:#fff;stroke-width:.569769;stroke-linecap:round;stroke-linejoin:round;stroke-dasharray:none;stroke-opacity:1" transform="matrix(.26458 0 0 .26458 25.728 -61.785)"/><path d="M-96.913 249.828a.043.043 0 0 1-.039-.047 14 14 0 0 1 .14-1.06 13 13 0 0 1 .178-.86.043.043 0 0 1 .052-.03.043.043 0 0 1 .031.05 14 14 0 0 0-.315 1.908.043.043 0 0 1-.047.039M-86.315 237.932a.043.043 0 0 1-.05-.034.043.043 0 0 1 .033-.05l16.216-3.376a.043.043 0 0 1 .052.032.043.043 0 0 1-.034.051z" style="color:#000;fill:#fff;stroke:#fff;stroke-width:.569769;stroke-linecap:round;stroke-linejoin:round;stroke-dasharray:none;stroke-opacity:1" transform="matrix(.26458 0 0 .26458 25.728 -61.785)"/><path d="M-70.098 234.555a.043.043 0 0 1-.05-.033.043.043 0 0 1 .032-.05l1.755-.366a.043.043 0 0 1 .051.033.043.043 0 0 1-.033.051zM-67.082 323.777l-19.86-7.229a.043.043 0 0 1-.026-.055.043.043 0 0 1 .055-.026l19.86 7.23a.043.043 0 0 1 .026.054.043.043 0 0 1-.055.026" style="color:#000;fill:#fff;stroke:#fff;stroke-width:.569769;stroke-linecap:round;stroke-linejoin:round;stroke-dasharray:none;stroke-opacity:1" transform="matrix(.26458 0 0 .26458 25.728 -61.785)"/><path d="M-86.942 316.548a33 33 0 0 1-1.962-.764 14 14 0 0 1-1.888-.992 11.3 11.3 0 0 1-1.71-1.322 10.7 10.7 0 0 1-1.428-1.648 10.7 10.7 0 0 1-1.062-1.906 11.4 11.4 0 0 1-.656-2.06c-.153-.7-.242-1.408-.287-2.112a33 33 0 0 1-.047-2.105.043.043 0 0 1 .044-.043.043.043 0 0 1 .042.043c0 .699.002 1.398.047 2.1.045.7.133 1.405.285 2.1a11.3 11.3 0 0 0 .652 2.044 10.602 10.602 0 0 0 2.468 3.526c.524.493 1.096.93 1.698 1.31s1.233.704 1.876.987a33 33 0 0 0 1.957.76.043.043 0 0 1 .026.057.043.043 0 0 1-.055.025M-86.106 238.937a.043.043 0 0 1-.05-.033.043.043 0 0 1 .032-.05l19.214-4a.043.043 0 0 1 .05.033.043.043 0 0 1-.033.05z" style="color:#000;fill:#fff;stroke:#fff;stroke-width:.569769;stroke-linecap:round;stroke-linejoin:round;stroke-dasharray:none;stroke-opacity:1" transform="matrix(.26458 0 0 .26458 25.728 -61.785)"/><path d="M-65.459 236.111a.043.043 0 0 1-.042-.042c0-.195-.008-.39-.06-.563a.9.9 0 0 0-.285-.434h-.002a.9.9 0 0 0-.482-.19 2 2 0 0 0-.563.055.043.043 0 0 1-.05-.032.043.043 0 0 1 .033-.052 2 2 0 0 1 .588-.058c.195.018.381.09.53.211.147.12.256.29.313.476.057.187.063.39.063.587a.043.043 0 0 1-.043.042z" style="color:#000;fill:#fff;stroke:#fff;stroke-width:.569769;stroke-linecap:round;stroke-linejoin:round;stroke-dasharray:none;stroke-opacity:1" transform="matrix(.26458 0 0 .26458 25.728 -61.785)"/><path d="M-77.2 319.636c-5.797-2.112-10.895-3.991-11.33-4.175-3.857-1.627-6.186-4.503-6.82-8.42-.149-.923-.17-4.4-.17-29.173 0-28 .001-28.13.228-29.245.457-2.242 1.473-4.165 3.098-5.865 1.432-1.498 2.939-2.476 4.753-3.085.634-.212 20.708-4.477 21.075-4.477.05 0 .191.1.313.22.22.22.22.369.22 43.932 0 29.92-.036 43.778-.114 43.924-.07.133-.227.212-.414.21-.164-.003-5.042-1.734-10.839-3.846zm4.656-16.87c.267-.312.862-1.42.862-1.605 0-.093-.203-.522-.45-.952l-.452-.782h-6.784l-.46.806c-.254.443-.462.869-.462.946 0 .144.43.938.8 1.476l.208.303h3.287c2.993 0 3.3-.017 3.451-.193zm0-9.933c.267-.311.862-1.42.862-1.604 0-.094-.203-.522-.45-.952l-.452-.783h-6.78l-.463.815c-.254.448-.463.873-.463.946 0 .137.439.941.8 1.467l.208.304h3.287c2.993 0 3.3-.017 3.451-.193zm-.606-13.206.31-.266.055-2.355.055-2.355 2.355-.056 2.355-.055.266-.31c.265-.307.266-.324.266-2.846v-2.538l-.27-.27c-.27-.27-.283-.271-2.475-.271-1.212 0-2.282-.03-2.378-.067-.15-.058-.174-.363-.174-2.268 0-2.329-.07-2.704-.546-2.96-.127-.067-1.173-.113-2.598-.113-2.735 0-2.948.05-3.141.745-.063.228-.115 1.34-.116 2.471 0 1.774-.024 2.067-.175 2.125-.096.037-1.157.067-2.358.067h-2.183l-.29.29-.292.292v2.475c0 1.476.046 2.56.113 2.686.232.433.532.49 2.867.547l2.263.056.055 2.262c.056 2.308.114 2.621.525 2.861.114.066 1.213.113 2.697.115 2.49.004 2.506.002 2.814-.262zm-9.932-17.641c2.571-.897 4.44-2.775 5.298-5.324.27-.8.297-1.04.301-2.539.004-1.578-.012-1.7-.34-2.622-.478-1.341-.944-2.08-1.97-3.123-1-1.017-1.998-1.652-3.311-2.109-.815-.283-1.01-.306-2.538-.304-1.481.002-1.745.032-2.502.286-1.38.462-2.25 1.013-3.358 2.125-1.158 1.163-1.761 2.23-2.157 3.812-.308 1.233-.25 3.312.124 4.418.93 2.751 3.06 4.792 5.766 5.524 1.189.321 3.563.248 4.687-.144zm11.8-14.335c1.058-.265 1.02-.22 1.341-1.56l.18-.75-2.311-2.313c-1.271-1.273-2.4-2.314-2.507-2.314-.268 0-1.76.419-1.864.524-.046.046-.195.497-.33 1.001l-.245.917 2.364 2.366c1.3 1.301 2.378 2.366 2.396 2.366s.457-.107.975-.237z" style="fill:#fff;stroke:#8a9199;stroke-width:.110536" transform="matrix(.26458 0 0 .26458 25.728 -61.785)"/><path d="M-43.085 246.568c-.076.018-.02.1.012.133l1.01 1.515c.002.39-.003.78.003 1.17.037.053.114.018.17.028.085-.003.173.006.258-.004.053-.036.016-.11.027-.162v-1.033c.362-.53.737-1.06 1.097-1.595-.002-.082-.105-.042-.158-.051-.11.005-.225-.01-.333.008-.22.316-.421.638-.633.958-.065.07-.135.274-.193.266-.206-.364-.451-.707-.676-1.062-.054-.059-.075-.191-.178-.17-.135 0-.271.003-.406-.001zm.083.085h.34c.253.392.516.778.756 1.178.016.112.13.164.174.023.246-.41.518-.8.777-1.202h.32c-.351.513-.708 1.02-1.056 1.536-.01.235-.001.473-.004.709v.43h-.281v-1.126c-.111-.194-.247-.373-.367-.562-.22-.328-.44-.661-.659-.986M-35.664 253.819c-.126-.1.112-.09.18-.092.067-.004.296-.07.204.053a1.4 1.4 0 0 1-.384.039M-36.262 253.819c-.073-.026-.033-.12-.044-.18v-.696c.08-.113.098.056.086.121v.713l-.012.03z" style="color:#000;fill:#fff;stroke:#fff;stroke-width:.333694;stroke-linecap:round;stroke-linejoin:round;stroke-dasharray:none;stroke-opacity:1" transform="matrix(.26458 0 0 .26458 31.549 -61.785)"/><path d="M-36.262 253.819c-.115-.077.056-.099.121-.086.165.002.33-.005.494.004.079.084-.071.09-.13.083zM-36.626 253.979c-.089-.087-.02-.259-.04-.381q-.002-.492 0-.982c.078-.113.098.056.086.121q-.002.6-.002 1.2l-.013.03z" style="color:#000;fill:#fff;stroke:#fff;stroke-width:.333694;stroke-linecap:round;stroke-linejoin:round;stroke-dasharray:none;stroke-opacity:1" transform="matrix(.26458 0 0 .26458 31.549 -61.785)"/><path d="M-36.627 255.42c-.086-.07-.024-.222-.042-.328v-1.156c.073-.116.102.041.087.105-.002.446 0 .892-.003 1.337.045.023-.064.043-.042.043M-34.8 255.167c-.007-.114.144-.2.165-.325.068-.085-.007-.307.12-.292.033.117-.013.248-.055.36-.051.085-.117.273-.23.257" style="color:#000;fill:#fff;stroke:#fff;stroke-width:.333694;stroke-linecap:round;stroke-linejoin:round;stroke-dasharray:none;stroke-opacity:1" transform="matrix(.26458 0 0 .26458 31.549 -61.785)"/><path d="M-35.576 255.42c-.122-.096.104-.089.172-.09.215-.018.446-.063.602-.223.172-.01-.033.161-.105.185-.204.108-.442.127-.669.129" style="color:#000;fill:#fff;stroke:#fff;stroke-width:.333694;stroke-linecap:round;stroke-linejoin:round;stroke-dasharray:none;stroke-opacity:1" transform="matrix(.26458 0 0 .26458 31.549 -61.785)"/><path d="M-36.627 255.42c-.113-.077.057-.096.121-.084h.93c.113.078-.056.096-.12.085zM-35.022 253.964c-.16.005-.034-.162.049-.061.019.03-.014.073-.049.061M-35.246 254.184c-.132-.063-.32.005-.42-.084.11-.092.32-.024.459.01.036.026.006.089-.04.074z" style="color:#000;fill:#fff;stroke:#fff;stroke-width:.333694;stroke-linecap:round;stroke-linejoin:round;stroke-dasharray:none;stroke-opacity:1" transform="matrix(.26458 0 0 .26458 31.549 -61.785)"/><path d="M-36.262 254.143c-.115-.077.056-.099.121-.086.179.002.358-.005.535.004.08.083-.07.09-.13.082z" style="color:#000;fill:#fff;stroke:#fff;stroke-width:.333694;stroke-linecap:round;stroke-linejoin:round;stroke-dasharray:none;stroke-opacity:1" transform="matrix(.26458 0 0 .26458 31.549 -61.785)"/><path d="M-36.262 255.093c-.073-.027-.033-.12-.044-.182v-.81c.072-.117.101.04.086.104-.001.287.004.574-.003.86a.04.04 0 0 1-.04.028z" style="color:#000;fill:#fff;stroke:#fff;stroke-width:.333694;stroke-linecap:round;stroke-linejoin:round;stroke-dasharray:none;stroke-opacity:1" transform="matrix(.26458 0 0 .26458 31.549 -61.785)"/><path d="M-36.262 255.093c-.115-.078.056-.099.121-.086h.565c.114.071-.041.1-.105.085z" style="color:#000;fill:#fff;stroke:#fff;stroke-width:.333694;stroke-linecap:round;stroke-linejoin:round;stroke-dasharray:none;stroke-opacity:1" transform="matrix(.26458 0 0 .26458 31.549 -61.785)"/><path d="M-35.576 255.093c-.115-.078.056-.099.122-.086.058.005.12-.012.176.012.046.097-.089.07-.144.073z" style="color:#000;fill:#fff;stroke:#fff;stroke-width:.333694;stroke-linecap:round;stroke-linejoin:round;stroke-dasharray:none;stroke-opacity:1" transform="matrix(.26458 0 0 .26458 31.549 -61.785)"/><path d="M-35.269 255.074c-.139-.069.102-.125.164-.157.118.076-.113.14-.164.157" style="color:#000;fill:#fff;stroke:#fff;stroke-width:.333694;stroke-linecap:round;stroke-linejoin:round;stroke-dasharray:none;stroke-opacity:1" transform="matrix(.26458 0 0 .26458 31.549 -61.785)"/><path d="M-35.09 254.995c-.161-.016.056-.134.076-.21.15-.057.035.132-.03.176.004-.016-.049.054-.046.034" style="color:#000;fill:#fff;stroke:#fff;stroke-width:.333694;stroke-linecap:round;stroke-linejoin:round;stroke-dasharray:none;stroke-opacity:1" transform="matrix(.26458 0 0 .26458 31.549 -61.785)"/><path d="M-34.997 254.844c-.034-.087.048-.198.045-.297.143-.031.057.307-.045.297" style="color:#000;fill:#fff;stroke:#fff;stroke-width:.333694;stroke-linecap:round;stroke-linejoin:round;stroke-dasharray:none;stroke-opacity:1" transform="matrix(.26458 0 0 .26458 31.549 -61.785)"/><path d="M-34.921 254.62c-.078-.074-.044-.237-.13-.328.107-.095.167.151.17.243.004.032.007.085-.04.085" style="color:#000;fill:#fff;stroke:#fff;stroke-width:.333694;stroke-linecap:round;stroke-linejoin:round;stroke-dasharray:none;stroke-opacity:1" transform="matrix(.26458 0 0 .26458 31.549 -61.785)"/><path d="M-34.983 254.33c-.103-.005-.178-.14-.289-.168.04-.137.236.032.296.109a.043.043 0 0 1-.007.06M-34.857 252.865c-.145-.035-.291-.193-.473-.188-.09-.043-.307.04-.293-.092.109-.027.227 0 .338.012.161.035.353.091.441.238.016.01-.021.022-.013.03" style="color:#000;fill:#fff;stroke:#fff;stroke-width:.333694;stroke-linecap:round;stroke-linejoin:round;stroke-dasharray:none;stroke-opacity:1" transform="matrix(.26458 0 0 .26458 31.549 -61.785)"/><path d="M-36.624 252.658c-.112-.078.057-.096.122-.085h.91c.112.078-.057.097-.122.085zM-35.279 253.779c-.154-.05.081-.114.119-.177.075-.102.13.044.04.08a.4.4 0 0 1-.159.097" style="color:#000;fill:#fff;stroke:#fff;stroke-width:.333694;stroke-linecap:round;stroke-linejoin:round;stroke-dasharray:none;stroke-opacity:1" transform="matrix(.26458 0 0 .26458 31.549 -61.785)"/><path d="M-35.136 253.641c-.015-.092.074-.197.067-.303.136-.015.054.207.004.28-.013.024-.045.045-.07.023" style="color:#000;fill:#fff;stroke:#fff;stroke-width:.333694;stroke-linecap:round;stroke-linejoin:round;stroke-dasharray:none;stroke-opacity:1" transform="matrix(.26458 0 0 .26458 31.549 -61.785)"/><path d="M-35.039 253.412c-.079-.063-.044-.21-.106-.299.115-.08.15.163.15.255 0 .023-.02.045-.044.044" style="color:#000;fill:#fff;stroke:#fff;stroke-width:.333694;stroke-linecap:round;stroke-linejoin:round;stroke-dasharray:none;stroke-opacity:1" transform="matrix(.26458 0 0 .26458 31.549 -61.785)"/><path d="M-35.081 253.16c-.09-.011-.146-.134-.247-.159.03-.137.217.02.26.1a.043.043 0 0 1-.013.06" style="color:#000;fill:#fff;stroke:#fff;stroke-width:.333694;stroke-linecap:round;stroke-linejoin:round;stroke-dasharray:none;stroke-opacity:1" transform="matrix(.26458 0 0 .26458 31.549 -61.785)"/><path d="M-35.302 253.022c-.133-.035-.273-.034-.41-.036-.121-.106.12-.09.191-.08.08.015.32-.011.25.113z" style="color:#000;fill:#fff;stroke:#fff;stroke-width:.333694;stroke-linecap:round;stroke-linejoin:round;stroke-dasharray:none;stroke-opacity:1" transform="matrix(.26458 0 0 .26458 31.549 -61.785)"/><path d="M-36.262 252.986c-.115-.077.056-.098.121-.086h.43c.115.071-.042.101-.106.086zM-34.545 254.624c-.085-.088-.032-.266-.12-.374a.63.63 0 0 0-.33-.275c-.083-.134.138-.05.186.001.207.125.314.368.307.605.003.03-.022.037-.043.043z" style="color:#000;fill:#fff;stroke:#fff;stroke-width:.333694;stroke-linecap:round;stroke-linejoin:round;stroke-dasharray:none;stroke-opacity:1" transform="matrix(.26458 0 0 .26458 31.549 -61.785)"/><path d="M-51.88 276.735a.043.043 0 0 1-.043-.042.043.043 0 0 1 .044-.044 5.44 5.44 0 0 0 5.439-5.44 5.44 5.44 0 0 0-5.44-5.44.043.043 0 0 1-.043-.042.043.043 0 0 1 .044-.043 5.526 5.526 0 0 1 0 11.051" style="color:#000;fill:#fff;stroke:#fff;stroke-width:.569769;stroke-linecap:round;stroke-linejoin:round;stroke-dasharray:none;stroke-opacity:1" transform="matrix(.26458 0 0 .26458 31.549 -61.785)"/><path d="M-34.68 253.364c-.079-.121-.06-.334-.194-.451-.104-.06-.01-.184.055-.07a.72.72 0 0 1 .183.478c.011.007-.03.06-.043.043" style="color:#000;fill:#fff;stroke:#fff;stroke-width:.333694;stroke-linecap:round;stroke-linejoin:round;stroke-dasharray:none;stroke-opacity:1" transform="matrix(.26458 0 0 .26458 31.549 -61.785)"/><path d="M-49.001 252.577c-.088.027 0 .116.03.156.288.402.573.807.864 1.207-.346.476-.703.946-1.051 1.42-.031.065.063.072.106.064.13-.004.262.007.39-.005.12-.142.22-.304.332-.453.157-.224.324-.44.47-.673.26.373.522.748.787 1.117.056.029.126.005.187.013q.152.002.304 0c.084-.038-.01-.107-.032-.148-.325-.448-.639-.904-.968-1.349.31-.434.638-.856.953-1.287.024-.049-.044-.076-.084-.064-.126.004-.254-.009-.377.007-.236.307-.473.612-.699.926-.07.17-.136-.099-.21-.162-.181-.255-.358-.517-.545-.767-.09-.015-.185 0-.276-.006h-.186zm.088.086h.327c.237.345.498.678.712 1.036.125.038.144-.188.232-.245q.298-.396.598-.793h.29c-.303.414-.62.82-.915 1.239-.014.104.122.173.16.267.277.39.558.778.834 1.169h-.344c-.272-.388-.55-.767-.811-1.159-.147.011-.181.261-.296.355q-.287.401-.576.802h-.333c.341-.462.691-.918 1.025-1.386-.032-.116-.147-.206-.206-.313-.233-.323-.463-.655-.697-.972" style="color:#000;fill:#fff;stroke:#fff;stroke-width:.350378;stroke-linecap:round;stroke-linejoin:round;stroke-dasharray:none;stroke-opacity:1" transform="matrix(.26458 0 0 .26458 31.549 -61.785)"/><path d="M-51.88 276.735a5.526 5.526 0 0 1 0-11.051.043.043 0 0 1 .043.043.043.043 0 0 1-.042.043 5.44 5.44 0 1 0 0 10.88.043.043 0 0 1 .042.043.043.043 0 0 1-.042.042M-29.79 282.008a.043.043 0 0 1-.044-.044v-.42a.043.043 0 0 1 .044-.042.043.043 0 0 1 .042.043v.42a.043.043 0 0 1-.042.043" style="color:#000;fill:#fff;stroke:#fff;stroke-width:.569769;stroke-linecap:round;stroke-linejoin:round;stroke-dasharray:none;stroke-opacity:1" transform="matrix(.26458 0 0 .26458 31.549 -61.785)"/><path d="M-29.79 281.588a.043.043 0 0 1-.044-.043V268.82a.043.043 0 0 1 .044-.042.043.043 0 0 1 .042.042v12.724a.043.043 0 0 1-.042.043" style="color:#000;fill:#fff;stroke:#fff;stroke-width:.569769;stroke-linecap:round;stroke-linejoin:round;stroke-dasharray:none;stroke-opacity:1" transform="matrix(.26458 0 0 .26458 31.549 -61.785)"/><path d="M-29.79 268.865a.043.043 0 0 1-.044-.044v-.484a.043.043 0 0 1 .044-.042.043.043 0 0 1 .042.042v.484a.043.043 0 0 1-.042.044" style="color:#000;fill:#fff;stroke:#fff;stroke-width:.569769;stroke-linecap:round;stroke-linejoin:round;stroke-dasharray:none;stroke-opacity:1" transform="matrix(.26458 0 0 .26458 31.549 -61.785)"/><path d="M-30.75 282.595a.043.046 0 0 1-.043-.045v-15.158a.043.046 0 0 1 .043-.047.043.046 0 0 1 .043.047v15.158a.043.046 0 0 1-.043.045" style="color:#000;fill:#fff;stroke:#fff;stroke-width:.592111;stroke-linecap:round;stroke-linejoin:round;stroke-dasharray:none;stroke-opacity:1" transform="matrix(.26458 0 0 .26458 31.549 -61.785)"/><path d="M-29.79 284.08a.043.043 0 0 1-.044-.042v-2.074a.043.043 0 0 1 .044-.042.043.043 0 0 1 .042.042v2.074a.043.043 0 0 1-.042.043M-30.75 285.188a.043.043 0 0 1-.043-.042v-2.628a.043.043 0 0 1 .043-.042.043.043 0 0 1 .043.042v2.627a.043.043 0 0 1-.043.043M-29.822 268.367l-.887-.887a.043.043 0 0 1 0-.062.043.043 0 0 1 .06 0l.889.889a.043.043 0 0 1 0 .06.043.043 0 0 1-.062 0" style="color:#000;fill:#fff;stroke:#fff;stroke-width:.569769;stroke-linecap:round;stroke-linejoin:round;stroke-dasharray:none;stroke-opacity:1" transform="matrix(.26458 0 0 .26458 31.549 -61.785)"/><path d="M-42.011 259.472a.043.043 0 0 1-.025-.055q.046-.122.082-.255.035-.13.06-.264a.043.043 0 0 1 .051-.034.043.043 0 0 1 .035.05q-.026.135-.063.27-.036.136-.085.264a.043.043 0 0 1-.055.024M-42.57 260.01a.043.043 0 0 1-.025-.057l.087-.223.086-.224.17-.445v-.001l.087-.225.09-.234a.043.043 0 0 1 .055-.025.043.043 0 0 1 .024.056l-.089.234-.086.225-.086.222-.085.223q-.043.113-.087.224l-.086.225a.043.043 0 0 1-.056.024z" style="color:#000;fill:#fff;stroke:#fff;stroke-width:.333694;stroke-linecap:round;stroke-linejoin:round;stroke-dasharray:none;stroke-opacity:1" transform="matrix(.26458 0 0 .26458 31.549 -61.785)"/><path d="M-43.109 261.416a.043.043 0 0 1-.025-.056l.095-.246.088-.232.088-.228q.044-.115.088-.232l.09-.233v-.001l.09-.233a.043.043 0 0 1 .056-.025.043.043 0 0 1 .024.055l-.09.234h.001l-.09.233q-.045.117-.088.233h0l-.089.228-.088.231v.001l-.095.246a.043.043 0 0 1-.054.025zM-42.036 258.659a.043.043 0 0 1-.042-.043.043.043 0 0 1 .042-.042h.394a.043.043 0 0 1 .042.042.043.043 0 0 1-.042.043h-.196z" style="color:#000;fill:#fff;stroke:#fff;stroke-width:.333694;stroke-linecap:round;stroke-linejoin:round;stroke-dasharray:none;stroke-opacity:1" transform="matrix(.26458 0 0 .26458 31.549 -61.785)"/><path d="M-41.107 260.01a.04.04 0 0 1-.024-.024l-.089-.221-.09-.221-.09-.221-.09-.22-.093-.227-.1-.243a.043.043 0 0 1 .024-.057.043.043 0 0 1 .056.025l.1.243.092.227.09.22h0l.09.22.09.221.09.221a.043.043 0 0 1-.024.056.04.04 0 0 1-.032 0" style="color:#000;fill:#fff;stroke:#fff;stroke-width:.333694;stroke-linecap:round;stroke-linejoin:round;stroke-dasharray:none;stroke-opacity:1" transform="matrix(.26458 0 0 .26458 31.549 -61.785)"/><path d="M-40.534 261.415a.04.04 0 0 1-.023-.023l-.1-.248-.095-.23-.093-.228-.094-.231-.096-.235-.096-.234a.043.043 0 0 1 .024-.056.043.043 0 0 1 .056.023l.096.235.096.234q.046.117.093.231l.093.228q.046.113.095.231l.1.247a.043.043 0 0 1-.023.056.04.04 0 0 1-.033 0M-43.094 261.418a.043.043 0 0 1-.042-.043.043.043 0 0 1 .042-.042h.385a.043.043 0 0 1 .044.042.043.043 0 0 1-.044.043h-.193zM-41.485 260.01a.04.04 0 0 1-.022-.025l-.038-.099-.037-.098h-.001l-.037-.098-.037-.097v-.001l-.037-.097a.043.043 0 0 1 .025-.055.043.043 0 0 1 .055.025l.038.097v0l.037.097.036.098v.001l.038.098.038.099a.043.043 0 0 1-.024.054.04.04 0 0 1-.034 0z" style="color:#000;fill:#fff;stroke:#fff;stroke-width:.333694;stroke-linecap:round;stroke-linejoin:round;stroke-dasharray:none;stroke-opacity:1" transform="matrix(.26458 0 0 .26458 31.549 -61.785)"/><path d="M-41.348 260.282a.043.043 0 0 1-.056-.026l-.053-.139-.05-.132a.043.043 0 0 1 .026-.056.043.043 0 0 1 .054.025l.05.133.053.139a.043.043 0 0 1-.024.056M-41.639 259.52a.043.043 0 0 1-.054-.025q-.05-.13-.1-.275a7 7 0 0 1-.099-.301.043.043 0 0 1 .03-.054.043.043 0 0 1 .053.03q.046.154.097.297.05.145.098.273a.043.043 0 0 1-.025.055" style="color:#000;fill:#fff;stroke:#fff;stroke-width:.333694;stroke-linecap:round;stroke-linejoin:round;stroke-dasharray:none;stroke-opacity:1" transform="matrix(.26458 0 0 .26458 31.549 -61.785)"/><path d="M-42.3 260.284a.043.043 0 0 1-.043-.043.043.043 0 0 1 .043-.043h.936a.043.043 0 0 1 .042.043.043.043 0 0 1-.042.043h-.776zM-42.213 260.01a.043.043 0 0 1-.025-.055 6 6 0 0 0 .08-.216l.042-.107v-.001l.04-.106.04-.107a.043.043 0 0 1 .055-.026.043.043 0 0 1 .025.055l-.04.108-.04.106v.001l-.041.107-.04.108v0l-.042.108a.043.043 0 0 1-.055.024" style="color:#000;fill:#fff;stroke:#fff;stroke-width:.333694;stroke-linecap:round;stroke-linejoin:round;stroke-dasharray:none;stroke-opacity:1" transform="matrix(.26458 0 0 .26458 31.549 -61.785)"/><path d="M-42.316 260.282a.043.043 0 0 1-.025-.056l.052-.134.05-.137a.043.043 0 0 1 .056-.026.043.043 0 0 1 .025.056l-.052.137-.05.134a.043.043 0 0 1-.056.026M-40.93 261.418a.043.043 0 0 1-.042-.043.043.043 0 0 1 .042-.042h.412a.043.043 0 0 1 .044.042.043.043 0 0 1-.044.043h-.205z" style="color:#000;fill:#fff;stroke:#fff;stroke-width:.333694;stroke-linecap:round;stroke-linejoin:round;stroke-dasharray:none;stroke-opacity:1" transform="matrix(.26458 0 0 .26458 31.549 -61.785)"/><path d="M-40.914 261.416a.043.043 0 0 1-.056-.025l-.105-.272-.108-.28-.11-.285a.043.043 0 0 1 .025-.056.043.043 0 0 1 .055.025l.11.285.108.28.105.272a.043.043 0 0 1-.024.056" style="color:#000;fill:#fff;stroke:#fff;stroke-width:.333694;stroke-linecap:round;stroke-linejoin:round;stroke-dasharray:none;stroke-opacity:1" transform="matrix(.26458 0 0 .26458 31.549 -61.785)"/><path d="M-42.404 260.58a.043.043 0 0 1-.043-.042.043.043 0 0 1 .043-.043h1.15a.043.043 0 0 1 .044.043.043.043 0 0 1-.044.043h-.857z" style="color:#000;fill:#fff;stroke:#fff;stroke-width:.333694;stroke-linecap:round;stroke-linejoin:round;stroke-dasharray:none;stroke-opacity:1" transform="matrix(.26458 0 0 .26458 31.549 -61.785)"/><path d="M-42.724 261.416a.043.043 0 0 1-.025-.055q.06-.16.111-.305.054-.144.1-.277l.094-.255a.043.043 0 0 1 .054-.026.043.043 0 0 1 .026.055l-.093.256v0l-.1.276-.112.305a.043.043 0 0 1-.054.026z" style="color:#000;fill:#fff;stroke:#fff;stroke-width:.333694;stroke-linecap:round;stroke-linejoin:round;stroke-dasharray:none;stroke-opacity:1" transform="matrix(.26458 0 0 .26458 31.549 -61.785)"/><path d="M-29.79 266.326a.043.043 0 0 1-.044-.044v-.484a.043.043 0 0 1 .044-.043.043.043 0 0 1 .042.043v.484a.043.043 0 0 1-.042.044M-29.79 250.864a.043.043 0 0 1-.044-.042 13.4 13.4 0 0 0-5.087-10.517 13.25 13.25 0 0 0-5.52-2.575.043.043 0 0 1-.033-.05.043.043 0 0 1 .05-.033 13.34 13.34 0 0 1 5.555 2.591 13.486 13.486 0 0 1 5.121 10.584.043.043 0 0 1-.042.042M-56.797 234.326l-.426-.09a.043.043 0 0 1-.033-.05.043.043 0 0 1 .05-.033l.427.088a.043.043 0 0 1 .033.052.043.043 0 0 1-.051.033" style="color:#000;fill:#fff;stroke:#fff;stroke-width:.569769;stroke-linecap:round;stroke-linejoin:round;stroke-dasharray:none;stroke-opacity:1" transform="matrix(.26458 0 0 .26458 31.549 -61.785)"/><path d="m-40.44 237.73-16.357-3.404a.043.043 0 0 1-.033-.051.043.043 0 0 1 .05-.034l16.356 3.406a.043.043 0 0 1 .033.05.043.043 0 0 1-.05.033" style="color:#000;fill:#fff;stroke:#fff;stroke-width:.569769;stroke-linecap:round;stroke-linejoin:round;stroke-dasharray:none;stroke-opacity:1" transform="matrix(.26458 0 0 .26458 31.549 -61.785)"/><path d="m-40.644 238.669-19.212-3.962a.05.05 0 0 1-.039-.057.05.05 0 0 1 .06-.039l19.21 3.962a.05.05 0 0 1 .039.059.05.05 0 0 1-.058.037z" style="color:#000;fill:#fff;stroke:#fff;stroke-width:.657287;stroke-linecap:round;stroke-linejoin:round;stroke-dasharray:none;stroke-opacity:1" transform="matrix(.26458 0 0 .26458 31.549 -61.785)"/><path d="M-30.75 267.28a.043.045 0 0 1-.043-.045v-16.411a.043.045 0 0 1 .043-.045.043.045 0 0 1 .043.045v16.411a.043.045 0 0 1-.043.045" style="color:#000;fill:#fff;stroke:#fff;stroke-width:.581896;stroke-linecap:round;stroke-linejoin:round;stroke-dasharray:none;stroke-opacity:1" transform="matrix(.26458 0 0 .26458 31.549 -61.785)"/><path d="M-30.757 267.249a.043.043 0 0 1 0-.062l.935-.935a.043.043 0 0 1 .062 0 .043.043 0 0 1 0 .061l-.936.936a.043.043 0 0 1-.061 0M-57.224 234.237l-1.611-.336a.043.043 0 0 1-.034-.05.043.043 0 0 1 .051-.034l1.612.336a.043.043 0 0 1 .034.051.043.043 0 0 1-.052.033M-30.75 250.864a.043.043 0 0 1-.043-.042 12.4 12.4 0 0 0-1.246-5.433 12.5 12.5 0 0 0-3.537-4.378 12.3 12.3 0 0 0-5.06-2.342.043.043 0 0 1-.034-.05.043.043 0 0 1 .05-.034 12.396 12.396 0 0 1 7.126 4.353 12.6 12.6 0 0 1 2.474 5.096c.21.92.313 1.853.313 2.788a.043.043 0 0 1-.043.042M-29.79 265.841a.043.043 0 0 1-.044-.043v-14.976a.043.043 0 0 1 .044-.044.043.043 0 0 1 .042.044v14.976a.043.043 0 0 1-.042.043M-39.815 316.347a.043.043 0 0 1-.054-.026.043.043 0 0 1 .025-.054c.657-.24 1.313-.48 1.957-.763a14 14 0 0 0 1.876-.985c.601-.38 1.174-.818 1.698-1.312a10.6 10.6 0 0 0 1.417-1.635 10.6 10.6 0 0 0 1.052-1.89c.284-.662.5-1.35.652-2.045s.24-1.398.284-2.1c.045-.701.047-1.4.047-2.099a.043.043 0 0 1 .043-.043.043.043 0 0 1 .042.043c0 .7-.002 1.4-.047 2.104a14 14 0 0 1-.286 2.114c-.152.7-.37 1.392-.656 2.06a10.7 10.7 0 0 1-1.06 1.905c-.419.597-.9 1.151-1.429 1.649-.528.497-1.104.938-1.71 1.321s-1.242.709-1.889.993a33 33 0 0 1-1.962.763" style="color:#000;fill:#fff;stroke:#fff;stroke-width:.569769;stroke-linecap:round;stroke-linejoin:round;stroke-dasharray:none;stroke-opacity:1" transform="matrix(.26458 0 0 .26458 31.549 -61.785)"/><path d="M-59.445 323.493a.043.043 0 0 1-.055-.026.043.043 0 0 1 .026-.056l19.63-7.144a.043.043 0 0 1 .055.025.043.043 0 0 1-.026.055zM-60.329 323.738a.94.94 0 0 1-.591-.156.94.94 0 0 1-.35-.502c-.063-.208-.07-.442-.07-.671a.043.043 0 0 1 .042-.042.043.043 0 0 1 .043.042c0 .227.008.453.067.645a.86.86 0 0 0 .318.458.86.86 0 0 0 .537.141c.2-.01.415-.08.63-.158a.043.043 0 0 1 .054.026.043.043 0 0 1-.026.054c-.216.079-.437.152-.654.163" style="color:#000;fill:#fff;stroke:#fff;stroke-width:.569769;stroke-linecap:round;stroke-linejoin:round;stroke-dasharray:none;stroke-opacity:1" transform="matrix(.26458 0 0 .26458 31.549 -61.785)"/><path d="M-35.074 253.947c-.074-.115.177-.14.218-.247.134-.106.094-.315.177-.422.093.054.018.208-.002.295a.7.7 0 0 1-.36.371z" style="color:#000;fill:#fff;stroke:#fff;stroke-width:.333694;stroke-linecap:round;stroke-linejoin:round;stroke-dasharray:none;stroke-opacity:1" transform="matrix(.26458 0 0 .26458 31.549 -61.785)"/><path d="m-40.65 238.736-19.007-3.957a.043.043 0 0 1-.033-.05.043.043 0 0 1 .05-.033l19.007 3.956a.043.043 0 0 1 .032.052.043.043 0 0 1-.05.032" style="color:#000;fill:#fff;stroke:#fff;stroke-width:.569769;stroke-linecap:round;stroke-linejoin:round;stroke-dasharray:none;stroke-opacity:1" transform="matrix(.26458 0 0 .26458 31.549 -61.785)"/><path d="M-61.298 236.122a.043.043 0 0 1-.042-.043c0-.226.006-.457.071-.67s.188-.404.356-.54c.169-.138.381-.219.603-.24s.449.02.67.067a.043.043 0 0 1 .033.05.043.043 0 0 1-.05.033c-.219-.045-.44-.083-.645-.064-.207.019-.403.094-.557.22a1.03 1.03 0 0 0-.327.5c-.06.198-.07.42-.07.644a.043.043 0 0 1-.042.043M-30.818 250.864a.043.043 0 0 1-.043-.042c0-5.802-4.043-10.89-9.79-12.086a.043.043 0 0 1-.033-.05.043.043 0 0 1 .051-.034c5.787 1.205 9.857 6.328 9.857 12.17a.043.043 0 0 1-.042.042" style="color:#000;fill:#fff;stroke:#fff;stroke-width:.569769;stroke-linecap:round;stroke-linejoin:round;stroke-dasharray:none;stroke-opacity:1" transform="matrix(.26458 0 0 .26458 31.549 -61.785)"/><path d="M-30.818 303.48a.043.043 0 0 1-.043-.042v-52.616a.043.043 0 0 1 .043-.044.043.043 0 0 1 .042.044v52.616a.043.043 0 0 1-.042.043M-61.298 322.207a.043.043 0 0 1-.042-.042v-86.086a.043.043 0 0 1 .042-.043.043.043 0 0 1 .043.043v86.086a.043.043 0 0 1-.043.042" style="color:#000;fill:#fff;stroke:#fff;stroke-width:.569769;stroke-linecap:round;stroke-linejoin:round;stroke-dasharray:none;stroke-opacity:1" transform="matrix(.26458 0 0 .26458 31.549 -61.785)"/><path d="M-60.19 323.678a1.07 1.07 0 0 1-.674-.177 1.07 1.07 0 0 1-.397-.572c-.073-.236-.08-.502-.08-.765a.043.043 0 0 1 .043-.042.043.043 0 0 1 .043.042c0 .26.009.519.077.74.067.22.193.407.364.526s.388.174.619.162.477-.092.721-.18a.043.043 0 0 1 .055.025.043.043 0 0 1-.026.056c-.246.09-.499.172-.746.185M-30.818 268.106a.043.043 0 0 1-.043-.042.043.043 0 0 1 .043-.044h.068a.043.043 0 0 1 .043.044.043.043 0 0 1-.043.042zM-30.778 285.178a.043.043 0 0 1-.005-.062l.96-1.106a.043.043 0 0 1 .06-.004.043.043 0 0 1 .005.06l-.96 1.108a.043.043 0 0 1-.06.004" style="color:#000;fill:#fff;stroke:#fff;stroke-width:.569769;stroke-linecap:round;stroke-linejoin:round;stroke-dasharray:none;stroke-opacity:1" transform="matrix(.26458 0 0 .26458 31.549 -61.785)"/><path d="M-59.888 234.714a.044.048 0 0 1-.06-.013.044.048 0 0 1 .01-.067l1.085-.81a.044.048 0 0 1 .062.013.044.048 0 0 1-.013.067z" style="color:#000;fill:#fff;stroke:#fff;stroke-width:.612625;stroke-linecap:round;stroke-linejoin:round;stroke-dasharray:none;stroke-opacity:1" transform="matrix(.26458 0 0 .26458 31.549 -61.785)"/><path d="M-29.79 282.008a.043.043 0 0 1-.044-.044v-.42a.043.043 0 0 1 .044-.042.043.043 0 0 1 .042.043v.42a.043.043 0 0 1-.042.043" style="color:#000;fill:#fff;stroke:#fff;stroke-width:.569769;stroke-linecap:round;stroke-linejoin:round;stroke-dasharray:none;stroke-opacity:1" transform="matrix(.26458 0 0 .26458 31.549 -61.785)"/><path d="M-29.79 281.588a.043.043 0 0 1-.044-.043V268.82a.043.043 0 0 1 .044-.042.043.043 0 0 1 .042.042v12.724a.043.043 0 0 1-.042.043" style="color:#000;fill:#fff;stroke:#fff;stroke-width:.569769;stroke-linecap:round;stroke-linejoin:round;stroke-dasharray:none;stroke-opacity:1" transform="matrix(.26458 0 0 .26458 31.549 -61.785)"/><path d="M-29.79 268.865a.043.043 0 0 1-.044-.044v-.484a.043.043 0 0 1 .044-.042.043.043 0 0 1 .042.042v.484a.043.043 0 0 1-.042.044M-29.79 284.08a.043.043 0 0 1-.044-.042v-2.074a.043.043 0 0 1 .044-.042.043.043 0 0 1 .042.042v2.074a.043.043 0 0 1-.042.043" style="color:#000;fill:#fff;stroke:#fff;stroke-width:.569769;stroke-linecap:round;stroke-linejoin:round;stroke-dasharray:none;stroke-opacity:1" transform="matrix(.26458 0 0 .26458 31.549 -61.785)"/><path d="m-29.826 268.366-.938-.936a.045.045 0 0 1 0-.065.045.045 0 0 1 .063 0l.94.938a.045.045 0 0 1 0 .063.045.045 0 0 1-.065 0" style="color:#000;fill:#fff;stroke:#fff;stroke-width:.601863;stroke-linecap:round;stroke-linejoin:round;stroke-dasharray:none;stroke-opacity:1" transform="matrix(.26458 0 0 .26458 31.549 -61.785)"/><path d="M-29.79 266.326a.043.043 0 0 1-.044-.044v-.484a.043.043 0 0 1 .044-.043.043.043 0 0 1 .042.043v.484a.043.043 0 0 1-.042.044M-29.79 250.864a.043.043 0 0 1-.044-.042 13.4 13.4 0 0 0-5.087-10.517 13.25 13.25 0 0 0-5.52-2.575.043.043 0 0 1-.033-.05.043.043 0 0 1 .05-.033 13.34 13.34 0 0 1 5.555 2.591 13.486 13.486 0 0 1 5.121 10.584.043.043 0 0 1-.042.042M-56.797 234.326l-.426-.09a.043.043 0 0 1-.033-.05.043.043 0 0 1 .05-.033l.427.088a.043.043 0 0 1 .033.052.043.043 0 0 1-.051.033" style="color:#000;fill:#fff;stroke:#fff;stroke-width:.569769;stroke-linecap:round;stroke-linejoin:round;stroke-dasharray:none;stroke-opacity:1" transform="matrix(.26458 0 0 .26458 31.549 -61.785)"/><path d="m-40.44 237.73-16.357-3.404a.043.043 0 0 1-.033-.051.043.043 0 0 1 .05-.034l16.356 3.406a.043.043 0 0 1 .033.05.043.043 0 0 1-.05.033M-30.757 267.249a.043.043 0 0 1 0-.062l.935-.935a.043.043 0 0 1 .062 0 .043.043 0 0 1 0 .061l-.936.936a.043.043 0 0 1-.061 0M-57.224 234.237l-1.611-.336a.043.043 0 0 1-.034-.05.043.043 0 0 1 .051-.034l1.612.336a.043.043 0 0 1 .034.051.043.043 0 0 1-.052.033M-29.79 265.841a.043.043 0 0 1-.044-.043v-14.976a.043.043 0 0 1 .044-.044.043.043 0 0 1 .042.044v14.976a.043.043 0 0 1-.042.043M-39.815 316.347a.043.043 0 0 1-.054-.026.043.043 0 0 1 .025-.054c.657-.24 1.313-.48 1.957-.763a14 14 0 0 0 1.876-.985c.601-.38 1.174-.818 1.698-1.312a10.6 10.6 0 0 0 1.417-1.635 10.6 10.6 0 0 0 1.052-1.89c.284-.662.5-1.35.652-2.045s.24-1.398.284-2.1c.045-.701.047-1.4.047-2.099a.043.043 0 0 1 .043-.043.043.043 0 0 1 .042.043c0 .7-.002 1.4-.047 2.104a14 14 0 0 1-.286 2.114c-.152.7-.37 1.392-.656 2.06a10.7 10.7 0 0 1-1.06 1.905c-.419.597-.9 1.151-1.429 1.649-.528.497-1.104.938-1.71 1.321s-1.242.709-1.889.993a33 33 0 0 1-1.962.763" style="color:#000;fill:#fff;stroke:#fff;stroke-width:.569769;stroke-linecap:round;stroke-linejoin:round;stroke-dasharray:none;stroke-opacity:1" transform="matrix(.26458 0 0 .26458 31.549 -61.785)"/><path d="M-59.445 323.493a.043.043 0 0 1-.055-.026.043.043 0 0 1 .026-.056l19.63-7.144a.043.043 0 0 1 .055.025.043.043 0 0 1-.026.055zM-60.329 323.738a.94.94 0 0 1-.591-.156.94.94 0 0 1-.35-.502c-.063-.208-.07-.442-.07-.671a.043.043 0 0 1 .042-.042.043.043 0 0 1 .043.042c0 .227.008.453.067.645a.86.86 0 0 0 .318.458.86.86 0 0 0 .537.141c.2-.01.415-.08.63-.158a.043.043 0 0 1 .054.026.043.043 0 0 1-.026.054c-.216.079-.437.152-.654.163M-61.298 236.122a.043.043 0 0 1-.042-.043c0-.226.006-.457.071-.67s.188-.404.356-.54c.169-.138.381-.219.603-.24s.449.02.67.067a.043.043 0 0 1 .033.05.043.043 0 0 1-.05.033c-.219-.045-.44-.083-.645-.064-.207.019-.403.094-.557.22a1.03 1.03 0 0 0-.327.5c-.06.198-.07.42-.07.644a.043.043 0 0 1-.042.043" style="color:#000;fill:#fff;stroke:#fff;stroke-width:.569769;stroke-linecap:round;stroke-linejoin:round;stroke-dasharray:none;stroke-opacity:1" transform="matrix(.26458 0 0 .26458 31.549 -61.785)"/><path d="M-61.298 322.207a.043.043 0 0 1-.042-.042v-86.086a.043.043 0 0 1 .042-.043.043.043 0 0 1 .043.043v86.086a.043.043 0 0 1-.043.042" style="color:#000;fill:#fff;stroke:#fff;stroke-width:.569769;stroke-linecap:round;stroke-linejoin:round;stroke-dasharray:none;stroke-opacity:1" transform="matrix(.26458 0 0 .26458 31.549 -61.785)"/><path d="M-60.19 323.678a1.07 1.07 0 0 1-.674-.177 1.07 1.07 0 0 1-.397-.572c-.073-.236-.08-.502-.08-.765a.043.043 0 0 1 .043-.042.043.043 0 0 1 .043.042c0 .26.009.519.077.74.067.22.193.407.364.526s.388.174.619.162.477-.092.721-.18a.043.043 0 0 1 .055.025.043.043 0 0 1-.026.056c-.246.09-.499.172-.746.185" style="color:#000;fill:#fff;stroke:#fff;stroke-width:.569769;stroke-linecap:round;stroke-linejoin:round;stroke-dasharray:none;stroke-opacity:1" transform="matrix(.26458 0 0 .26458 31.549 -61.785)"/><path d="m-60.62 323.093-.246-.171v-43.736c0-42.23.007-43.741.202-43.918.26-.236.572-.23 1.814.035.56.12 4.992 1.042 9.848 2.049s9.191 1.952 9.634 2.1c4.003 1.343 7.019 4.76 7.932 8.988.193.896.202 2.202.202 29.3 0 26.818-.01 28.417-.197 29.334-.495 2.428-1.29 3.94-2.948 5.596-1.289 1.289-2.284 1.95-3.99 2.648-1.417.58-21.684 7.947-21.863 7.947-.079 0-.254-.077-.389-.172zm20.41-21.09c.193-.174.202-.62.202-9.73 0-8.73-.015-9.566-.182-9.75-.175-.193-.624-.202-9.81-.202-8.819 0-9.638.015-9.777.182-.225.272-.225 19.229 0 19.5.14.168.957.183 9.759.183 8.784 0 9.624-.016 9.808-.183zm-9.974-22.727c2.872-.594 5.176-2.652 6.165-5.508.278-.804.306-1.027.31-2.483.004-1.379-.032-1.715-.255-2.425-.7-2.228-2.106-3.925-4.124-4.975-2.252-1.172-5.197-1.2-7.44-.07-1.706.858-2.872 2.027-3.734 3.738-.675 1.342-.87 2.31-.805 3.989.086 2.19.723 3.739 2.18 5.3 1.972 2.113 4.851 3.023 7.703 2.434zm9.785-16.034c.694-.307 1.442-1.042 1.795-1.764.413-.843.432-2.101.045-2.964-.308-.685-1.137-1.498-1.866-1.828-.812-.368-2.092-.34-2.916.064-1.652.81-2.412 2.703-1.804 4.49.304.894 1.225 1.782 2.167 2.09.846.276 1.832.242 2.579-.088zm-5.86-6.126c.763-.374 1.424-1.11 1.734-1.928.323-.856.26-2.04-.149-2.843-.376-.736-1.256-1.521-1.972-1.759-.777-.258-2.176-.18-2.83.157-1.17.603-1.82 1.663-1.881 3.066-.035.794-.004.98.265 1.578.366.817 1.13 1.549 1.958 1.877.823.326 2.033.264 2.875-.148zm12.045-.039c.566-.297 1.286-1.05 1.612-1.685.205-.4.255-.678.26-1.434.004-.811-.038-1.024-.306-1.57-.347-.707-.987-1.323-1.731-1.667-.369-.17-.724-.23-1.38-.232-1.15-.004-1.837.29-2.584 1.106-.651.713-.893 1.366-.891 2.41.002 1.35.674 2.422 1.91 3.046.643.326.74.343 1.676.302.732-.032 1.109-.105 1.434-.276zm-6.037-5.974a3.75 3.75 0 0 0 1.646-1.652c.256-.524.305-.767.307-1.518 0-.806-.037-.97-.385-1.652-1.087-2.132-3.907-2.59-5.633-.914-.693.671-1.036 1.507-1.039 2.526-.002.721.046.932.36 1.57.41.831 1.025 1.407 1.864 1.745.739.298 2.204.245 2.88-.105zm-11.755-5.953c1.257-1.263 2.286-2.356 2.286-2.43 0-.295-.449-1.73-.578-1.845-.164-.147-1.405-.492-1.77-.492-.187 0-.878.626-2.54 2.301-1.257 1.265-2.285 2.359-2.285 2.43 0 .286.45 1.725.579 1.851.076.075.411.209.745.298 1.21.325 1.029.432 3.563-2.113z" style="fill:#fff;stroke:#8a9199;stroke-width:.110536" transform="matrix(.26458 0 0 .26458 31.549 -61.785)"/></svg>