<?xml version="1.0" encoding="UTF-8" standalone="no"?>
<svg
   width="32"
   height="32"
   viewBox="0 0 32 32"
   fill="none"
   version="1.1"
   id="svg3"
   xml:space="preserve"
   xmlns="http://www.w3.org/2000/svg"
   xmlns:svg="http://www.w3.org/2000/svg"><defs
     id="defs3" /><path
     d="M 0,2 C 0,0.89543103 0.895431,0 2,0 h 24 c 1.1046,0 1.696552,0.93793047 2,2 l 4,14 -4,14 c -0.303457,1.0621 -0.8954,2 -2,2 H 2 C 0.895431,32 0,31.104601 0,30 V 16 Z"
     fill="#ffffff"
     id="path1" /><g
     style="fill:none"
     id="g4"
     transform="translate(-43.27912,4.0169166)"><g
       id="g5"
       transform="translate(42.056235,-4.6390666)"><path
         d="M 15.8417,22.2223 H 8.32166 v -11.2 h 2.35204 v 9.088 h 5.168 z"
         fill="#0e141b"
         id="path2" /><path
         d="m 23.966493,16.253976 c 1.438412,0.437381 2.157618,1.354703 2.157618,2.752048 0,1.013309 -0.370347,1.802619 -1.11104,2.368012 C 24.272378,21.939345 23.279477,22.222 22.034203,22.222 H 17.413 v -11.2 h 4.170382 c 1.320356,0 2.297162,0.24533 2.930501,0.735998 0.633339,0.490692 0.950092,1.184014 0.950092,2.080014 0,0.501345 -0.118139,0.959964 -0.354252,1.376024 -0.236196,0.415976 -0.617244,0.762595 -1.14323,1.03994 z m -4.154287,-3.27994 v 2.735952 h 1.62624 c 0.53677,0 0.950009,-0.122619 1.239881,-0.368024 0.28979,-0.25594 0.434726,-0.613262 0.434726,-1.071964 0,-0.863976 -0.574269,-1.295964 -1.722892,-1.295964 z m 1.980492,7.31194 c 0.601149,0 1.05197,-0.133321 1.352545,-0.399964 0.31136,-0.266643 0.466998,-0.618655 0.466998,-1.056036 0,-0.469321 -0.150328,-0.821333 -0.450903,-1.055952 C 22.860763,17.528702 22.426037,17.406 21.857077,17.406 h -2.044871 v 2.879976 z"
         fill="#0e141b"
         id="path2-0"
         style="stroke-width:0.82963" /></g></g></svg>
