<?xml version="1.0" encoding="UTF-8" standalone="no"?>
<svg
   width="32"
   height="32"
   viewBox="0 0 32 32"
   fill="none"
   version="1.1"
   id="svg3"
   xml:space="preserve"
   xmlns="http://www.w3.org/2000/svg"
   xmlns:svg="http://www.w3.org/2000/svg"><defs
     id="defs3" /><path
     d="M 0,2 C 0,0.895431 0.895431,0 2,0 h 28 c 1.1046,0 2,0.895431 2,2 v 28 c 0,1.1046 -0.8954,2 -2,2 H 2 C 0.895431,32 0,31.1046 0,30 Z"
     fill="#ffffff"
     id="path1"
     style="fill:#ffffff;fill-opacity:1" /><g
     id="g1"><path
       d="M 12.411194,21.6 H 10.118596 V 17.136012 L 6.287117,10.4 h 2.669499 l 2.386762,4.48 2.402524,-4.48 h 2.496771 l -3.831479,6.752024 z"
       fill="#0e141b"
       id="path2"
       style="fill:#000000;fill-opacity:1;stroke-width:0.82963" /><path
       d="m 20.773563,19.256206 h 4.93932 V 21.6 h -8.384292 v -2.233636 l 3.177599,-2.579886 c 0.492813,-0.408947 0.865086,-0.734028 1.116818,-0.975244 0.251732,-0.241215 0.445756,-0.487689 0.582072,-0.739286 0.146833,-0.251733 0.220182,-0.529623 0.220182,-0.833805 0,-0.471914 -0.183508,-0.828411 -0.550522,-1.069626 -0.356632,-0.241216 -0.81277,-0.361756 -1.36855,-0.361756 -0.419464,0 -0.833805,0.06283 -1.242752,0.188765 -0.408947,0.115282 -0.776096,0.272632 -1.101177,0.471914 L 17.2814,11.453851 C 17.78473,11.12877 18.345768,10.871914 18.964515,10.683148 19.593778,10.494383 20.264975,10.4 20.978104,10.4 c 1.321359,0 2.385727,0.27789 3.193239,0.83367 0.807512,0.545262 1.211201,1.352775 1.211201,2.422536 0,0.734028 -0.209665,1.405225 -0.629129,2.013454 -0.409082,0.597713 -1.043469,1.242752 -1.903431,1.934847 z"
       fill="#000000"
       id="path3"
       style="stroke-width:1.34833" /></g></svg>
