<svg xmlns="http://www.w3.org/2000/svg" width="1058" height="450"><defs><clipPath id="a"><path d="M1063 0v638H0V0z"/></clipPath><clipPath id="b"><path d="M35 0c19.33 0 35 15.67 35 35S54.33 70 35 70 0 54.33 0 35 15.67 0 35 0"/></clipPath><clipPath id="c"><path d="M36 0c18.778 0 34 15.222 34 34v2c0 18.778-15.222 34-34 34h-2C15.222 70 0 54.778 0 36v-2C0 15.222 15.222 0 34 0z"/></clipPath><clipPath id="d"><path d="M11 0c6.075 0 11 4.925 11 11s-4.925 11-11 11S0 17.075 0 11 4.925 0 11 0"/></clipPath><clipPath id="e"><path d="M55 0c7.302 0 13.46 4.89 15.38 11.575 13.868 4.8 24.79 15.91 29.331 29.896C105.195 44.008 109 49.56 109 56s-3.805 11.992-9.29 14.53c-4.7 14.475-16.234 25.87-30.796 30.376C66.162 105.74 60.962 109 55 109s-11.162-3.26-13.914-8.095c-14.4-4.455-25.84-15.648-30.638-29.894C4.348 68.754 0 62.885 0 56s4.349-12.754 10.45-15.01c4.632-13.76 15.462-24.67 29.17-29.416C41.54 4.891 47.698 0 55 0"/></clipPath><clipPath id="f"><path d="M55 77c8.837 0 16 7.163 16 16s-7.163 16-16 16-16-7.163-16-16 7.163-16 16-16m38-37c8.837 0 16 7.163 16 16s-7.163 16-16 16-16-7.163-16-16 7.163-16 16-16m-77 0c8.837 0 16 7.163 16 16s-7.163 16-16 16S0 64.837 0 56s7.163-16 16-16M55 0c8.837 0 16 7.163 16 16s-7.163 16-16 16-16-7.163-16-16S46.163 0 55 0"/></clipPath><clipPath id="g"><path d="M55 0c30.376 0 55 24.624 55 55s-24.624 55-55 55S0 85.376 0 55 24.624 0 55 0"/></clipPath><clipPath id="h"><path d="M50.977 0q4.62.234 8.34 1.387c3.719 1.153 5.056 1.658 10.493 5.756 5.437 4.097 12.98 10.34 12.98 13.595s-3.086 2.845-5.44 2.845H32.22q-10.073-.487-13.782-1.986c-3.71-1.498-6.21-2.323-10.238-6.427C4.172 11.065.167 6.425.006 3.4Q-.155.377 3.902 0Z"/></clipPath><clipPath id="i"><path d="M49.386 0q4.475.234 8.078 1.387c3.604 1.153 4.899 1.658 10.166 5.756 5.267 4.097 12.574 10.34 12.574 13.595 0 2.605-1.912 2.862-3.845 2.861l-.322-.002c-.375-.004-.747-.014-1.101-.014H31.213q-9.758-.487-13.352-1.986c-3.594-1.498-6.016-2.323-9.918-6.427C4.042 11.065.163 6.425.006 3.4Q-.15.377 3.78 0Z"/></clipPath><clipPath id="j"><path d="M33 0a3 3 0 0 1 3 3v30a3 3 0 0 1-3 3H3a3 3 0 0 1-3-3V3a3 3 0 0 1 3-3z"/></clipPath><clipPath id="k"><path d="M25 0c13.807 0 25 11.193 25 25S38.807 50 25 50 0 38.807 0 25 11.193 0 25 0"/></clipPath><clipPath id="l"><path d="M2.5 0a2.5 2.5 0 1 1 0 5 2.5 2.5 0 0 1 0-5m11 0a2.5 2.5 0 1 1 0 5 2.5 2.5 0 0 1 0-5"/></clipPath><clipPath id="m"><path d="M3 0a3 3 0 0 1 3 3v11a3 3 0 0 1-6 0V3a3 3 0 0 1 3-3m10 0a3 3 0 0 1 3 3v11a3 3 0 0 1-6 0V3a3 3 0 0 1 3-3m10 0a3 3 0 0 1 3 3v11a3 3 0 0 1-6 0V3a3 3 0 0 1 3-3"/></clipPath><clipPath id="n"><path d="M36.5 0A1.5 1.5 0 0 1 38 1.5V3H0V1.5A1.5 1.5 0 0 1 1.5 0zM100 3H59V1.5A1.5 1.5 0 0 1 60.5 0H99a1 1 0 0 1 1 1h4a1 1 0 0 1 1-1h38.5a1.5 1.5 0 0 1 1.5 1.5V3h-45"/></clipPath></defs><g clip-path="url(#a)" transform="translate(-3 -95)"><path fill="none" stroke="#9FAABA" stroke-miterlimit="10" stroke-width="2" d="M527.433 123.35h337v390.974h-337M527 114.164q177.568-.328 355.053 0c1.009.002 1.28-.034 1.936.661s.807 1.034.81 2.254q.402 204.479 0 409.142-.099 1.985-.81 2.817t-2.652.962H527m357.799-412.427c0-.607.04-1.934-.225-2.824-1.507-5.05-1.595-5.07-3.545-10.099-.326-.841-.634-1.386-1.008-1.682-.019-.015-.668-.574-1.949-.589q-16.174-.183-350.572 0m357.302 422.676c0 5.66-1.807 7.947-2.585 9.724s-2.411 3.992-4.094 3.992q-139.595 1.567-351.321 0"/><path fill="none" stroke="#9FAABA" stroke-miterlimit="10" stroke-width="2" d="M531.567 123.35h-337v390.974h337m.433-400.16q-177.568-.328-355.053 0c-1.009.002-1.28-.034-1.936.661s-.807 1.034-.81 2.254a103989 103989 0 0 0 0 409.142q.099 1.985.81 2.817t2.652.962H532M174.201 117.573c0-.607-.04-1.934.225-2.824 1.507-5.05 1.595-5.07 3.545-10.099.326-.841.634-1.386 1.008-1.682.019-.015.668-.574 1.949-.589q16.173-.183 350.572 0M174.198 525.055c0 5.66 1.807 7.947 2.585 9.724s2.411 3.992 4.094 3.992q139.594 1.567 351.321 0"/><g clip-path="url(#b)" transform="translate(909 313.288)"><path fill="none" stroke="#9FAABA" stroke-miterlimit="5" stroke-width="4" d="M35 0c19.33 0 35 15.67 35 35S54.33 70 35 70 0 54.33 0 35 15.67 0 35 0Z"/></g><g clip-path="url(#c)" transform="translate(73 177.288)"><path fill="none" stroke="#9FAABA" stroke-miterlimit="5" stroke-width="4" d="M34 0h2c18.778 0 34 15.222 34 34v2c0 18.778-15.222 34-34 34h-2C15.222 70 0 54.778 0 36v-2C0 15.222 15.222 0 34 0Z"/></g><g clip-path="url(#d)" transform="translate(132 476)"><path fill="none" stroke="#9FAABA" stroke-miterlimit="5" stroke-width="4" d="M11 22c6.075 0 11-4.925 11-11S17.075 0 11 0 0 4.925 0 11s4.925 11 11 11Z"/></g><g clip-path="url(#d)" transform="translate(905 476)"><path fill="none" stroke="#9FAABA" stroke-miterlimit="5" stroke-width="4" d="M11 22c6.075 0 11-4.925 11-11S17.075 0 11 0 0 4.925 0 11s4.925 11 11 11Z"/></g><g clip-path="url(#e)" transform="translate(903 162)"><path fill="none" stroke="#9FAABA" stroke-miterlimit="5" stroke-width="4" d="M55 0c7.302 0 13.46 4.89 15.38 11.575 13.868 4.8 24.79 15.91 29.331 29.896C105.195 44.008 109 49.56 109 56s-3.805 11.992-9.29 14.53c-4.7 14.475-16.234 25.87-30.796 30.376C66.162 105.74 60.962 109 55 109s-11.162-3.26-13.914-8.095c-14.4-4.455-25.84-15.648-30.638-29.894C4.348 68.754 0 62.885 0 56s4.349-12.754 10.45-15.01c4.632-13.76 15.462-24.67 29.17-29.416C41.54 4.891 47.698 0 55 0Z"/></g><g clip-path="url(#f)" transform="translate(903 162)"><path fill="none" stroke="#9FAABA" stroke-miterlimit="5" stroke-width="4" d="M55 32c8.837 0 16-7.163 16-16S63.837 0 55 0 39 7.163 39 16s7.163 16 16 16Zm38 40c8.837 0 16-7.163 16-16s-7.163-16-16-16-16 7.163-16 16 7.163 16 16 16Zm-77 0c8.837 0 16-7.163 16-16s-7.163-16-16-16S0 47.163 0 56s7.163 16 16 16Zm39 37c8.837 0 16-7.163 16-16s-7.163-16-16-16-16 7.163-16 16 7.163 16 16 16Z"/></g><path fill="none" stroke="#9FAABA" stroke-miterlimit="10" stroke-width="2" d="m103.137 331.646-10.293-9.696c-1.549-1.547-2.844-3.683-2.844-4.881v-16.536c0-.854.033-2.578.646-3.986.482-1.106 1.557-1.954 2.934-2.583 2.885-1.317 8.724-2.856 13.42-2.856l.443.005c4.615.091 10.182 1.575 12.977 2.851 1.377.629 2.452 1.477 2.934 2.583.613 1.408.646 3.132.646 3.986v16.536c0 1.198-1.295 3.334-2.845 4.88l-10.292 9.697c-1.485 1.411-2.716 1.458-3.863 1.458s-2.378-.047-3.863-1.458ZM103.137 348.562l-10.293 9.697c-1.549 1.546-2.844 3.683-2.844 4.88v16.536c0 .854.033 2.578.646 3.987.482 1.106 1.557 1.954 2.934 2.582 2.885 1.318 8.724 2.856 13.42 2.856l.443-.004c4.615-.092 10.182-1.575 12.977-2.852 1.377-.628 2.452-1.476 2.934-2.582.613-1.409.646-3.133.646-3.987V363.14c0-1.198-1.295-3.335-2.845-4.881l-10.292-9.697c-1.485-1.41-2.716-1.458-3.863-1.458s-2.378.047-3.863 1.458ZM98.542 337.241l-9.697-10.292c-1.546-1.55-3.682-2.845-4.88-2.845H67.429c-.854 0-2.578.034-3.986.647-1.106.481-1.954 1.556-2.583 2.933-1.318 2.885-2.856 8.724-2.856 13.42l.005.444c.091 4.614 1.575 10.182 2.85 12.976.63 1.377 1.478 2.452 2.584 2.934 1.408.613 3.132.646 3.986.646h16.536c1.198 0 3.334-1.295 4.88-2.844l9.697-10.293c1.411-1.485 1.458-2.715 1.458-3.863 0-1.147-.047-2.378-1.458-3.863ZM115.824 337.241l9.697-10.292c1.546-1.55 3.683-2.845 4.88-2.845h16.536c.854 0 2.578.034 3.987.647 1.106.481 1.954 1.556 2.582 2.933 1.318 2.885 2.856 8.724 2.856 13.42l-.004.444c-.092 4.614-1.575 10.182-2.852 12.976-.628 1.377-1.476 2.452-2.582 2.934-1.409.613-3.133.646-3.987.646h-16.535c-1.198 0-3.335-1.295-4.881-2.844l-9.697-10.293c-1.41-1.485-1.458-2.715-1.458-3.863 0-1.147.047-2.378 1.458-3.863Z"/><g clip-path="url(#g)" transform="translate(52 285)"><path fill="none" stroke="#9FAABA" stroke-miterlimit="5" stroke-width="4" d="M55 110C24.624 110 0 85.376 0 55S24.624 0 55 0s55 24.624 55 55-24.624 55-55 55Z"/></g><path fill="none" stroke="#9FAABA" stroke-miterlimit="10" stroke-width="2" d="M515.007 543.092h437.242s12.14.445 19.58-3.557c7.439-4.003 10.458-7.411 14.444-12.289 3.986-4.877 18.63-25.769 23.255-32.986s18.986-32.352 26.915-52.666c4.295-11.004 10.445-29.871 14.587-46.142 3.504-13.766 5.343-25.824 5.764-28.133 1.641-8.992 2.706-17.771 2.706-30.654 0-10.234-.327-25.308-1.258-40.668-.897-14.81-2.356-29.885-4.625-41.145-4.623-22.941-15.55-53.33-20.35-63.944s-16.109-31.431-21.642-40.31a2103 2103 0 0 0-8.551-13.612c-.585-.923-2.071-1.697-2.494-1.928-.424-.232-2.094-.767-3.882-.793a1949 1949 0 0 0-56.625 0q-10.461.313-16.424-2.385c-5.963-2.698-11.538-8.491-11.538-8.491l-24.573-22.223a6.1 6.1 0 0 0-2.385-1.332c-1.082-.325-2.539-.437-3.938-.458q-24.277-.375-366.208.155m486.263 406.85q-12.942 1.864-19.381 1.864h-41.69c-6.668 0-13.404.915-16.438 2.011-3.035 1.097-8.972 4.79-10.33 5.889-2.038 1.648-4.186 3.266-6.098 4.903q-8.78 7.515-23.305 22.06m123.012-400.5v-3.503c0-1.228-5.932-10.875-16.913-23.724-4.8-5.616-7.77-9.28-14.479-13.093q-6.707-3.814-21.017-4.57h-65.346q-.901.026-1.792.756-.89.73-1.078 1.597"/><g clip-path="url(#h)" transform="matrix(-1 0 0 1 985.588 511.791)"><path fill="none" stroke="#9FAABA" stroke-miterlimit="5" stroke-width="4" d="M8.2 15.17c4.026 4.104 6.527 4.929 10.237 6.427q3.71 1.498 13.782 1.986H77.35c2.353 0 5.438.411 5.438-2.845S75.247 11.24 69.81 7.143c-5.436-4.098-6.773-4.603-10.493-5.756Q55.596.234 50.977 0H3.902Q-.155.375.006 3.4C.167 6.426 4.172 11.066 8.2 15.17Z"/></g><path fill="none" stroke="#9FAABA" stroke-miterlimit="10" stroke-width="2" d="M996.698 134.265q-16.474-19.699-34.731-25.347t-73.604-6.63M531.5 543.092H107.91s-11.762.445-18.97-3.557c-7.206-4.003-10.131-7.411-13.993-12.289-3.861-4.877-18.047-25.769-22.528-32.986s-18.394-32.352-26.075-52.666c-4.16-11.004-10.119-29.871-14.131-46.142-3.396-13.766-5.177-25.824-5.585-28.133-1.59-8.992-2.621-17.771-2.621-30.654 0-10.234.316-25.308 1.218-40.668.87-14.81 2.283-29.885 4.482-41.145 4.478-22.941 15.064-53.33 19.714-63.944s15.605-31.431 20.966-40.31a2114 2114 0 0 1 8.284-13.612c.567-.923 2.006-1.697 2.417-1.928.41-.232 2.028-.767 3.76-.793a1829 1829 0 0 1 54.857 0q10.134.313 15.911-2.385c5.777-2.698 11.178-8.491 11.178-8.491s23.449-21.888 23.806-22.223a5.9 5.9 0 0 1 2.31-1.332c1.048-.325 2.46-.437 3.815-.458q23.52-.375 354.775.155M60.418 506.38q12.539 1.864 18.777 1.864h40.387c6.461 0 12.986.915 15.926 2.011s8.692 4.79 10.008 5.889c1.973 1.648 4.055 3.266 5.907 4.903q8.505 7.515 22.577 22.06m-119.171-400.5v-3.503c0-1.228 5.746-10.875 16.385-23.724 4.65-5.616 7.528-9.28 14.026-13.093q6.5-3.814 20.361-4.57h63.307q.873.026 1.735.756t1.045 1.597"/><g clip-path="url(#i)" transform="translate(75.611 511.791)"><path fill="none" stroke="#9FAABA" stroke-miterlimit="5" stroke-width="4" d="M7.943 15.17c3.902 4.104 6.324 4.929 9.918 6.427q3.594 1.498 13.352 1.986h43.723c2.28 0 5.268.411 5.268-2.845S72.897 11.24 67.63 7.143 61.068 2.54 57.464 1.387Q53.861.234 49.386 0H3.78Q-.15.375.006 3.4c.156 3.025 4.036 7.665 7.937 11.77Z"/></g><path fill="none" stroke="#9FAABA" stroke-miterlimit="10" stroke-width="2" d="M64.848 134.265q15.96-19.699 33.647-25.347t71.305-6.63"/><g clip-path="url(#j)" transform="translate(926 416)"><path fill="none" stroke="#9FAABA" stroke-miterlimit="5" stroke-width="4" d="M3 0h30a3 3 0 0 1 3 3v30a3 3 0 0 1-3 3H3a3 3 0 0 1-3-3V3a3 3 0 0 1 3-3Z"/></g><g clip-path="url(#k)" transform="translate(87 409)"><path fill="none" stroke="#9FAABA" stroke-miterlimit="5" stroke-width="4" d="M25 50c13.807 0 25-11.193 25-25S38.807 0 25 0 0 11.193 0 25s11.193 25 25 25Z"/></g><g clip-path="url(#l)" transform="translate(995 385)"><path fill="#9FAABA" d="M0 0h16v5H0z"/><path fill="none" stroke="#9FAABA" stroke-miterlimit="5" stroke-width="2" d="M2.5 5a2.5 2.5 0 1 0 0-5 2.5 2.5 0 0 0 0 5Zm11 0a2.5 2.5 0 1 0 0-5 2.5 2.5 0 0 0 0 5Z"/></g><g clip-path="url(#m)" transform="translate(940 474)"><path fill="#9FAABA" d="M0 0h26v17H0z"/><path fill="none" stroke="#9FAABA" stroke-miterlimit="5" stroke-width="2" d="M3 0a3 3 0 0 1 3 3v11a3 3 0 0 1-6 0V3a3 3 0 0 1 3-3Zm10 0a3 3 0 0 1 3 3v11a3 3 0 0 1-6 0V3a3 3 0 0 1 3-3Zm10 0a3 3 0 0 1 3 3v11a3 3 0 0 1-6 0V3a3 3 0 0 1 3-3Z"/></g><g clip-path="url(#m)" transform="translate(95 474)"><path fill="#9FAABA" d="M0 0h26v17H0z"/><path fill="none" stroke="#9FAABA" stroke-miterlimit="5" stroke-width="2" d="M3 0a3 3 0 0 1 3 3v11a3 3 0 0 1-6 0V3a3 3 0 0 1 3-3Zm10 0a3 3 0 0 1 3 3v11a3 3 0 0 1-6 0V3a3 3 0 0 1 3-3Zm10 0a3 3 0 0 1 3 3v11a3 3 0 0 1-6 0V3a3 3 0 0 1 3-3Z"/></g><g clip-path="url(#n)" transform="translate(263 96)"><path fill="#9FAABA" d="M0 0h145v3H0z"/></g><path fill="none" stroke="#9FAABA" stroke-miterlimit="10" d="M363 97h4v2h-4zm-39.5-1H362a1 1 0 0 1 1 1v2h-41v-1.5a1.5 1.5 0 0 1 1.5-1.5Zm44.5 0h38.5a1.5 1.5 0 0 1 1.5 1.5V99h-41v-2a1 1 0 0 1 1-1Zm-103.5 0h35a1.5 1.5 0 0 1 1.5 1.5V99h-38v-1.5a1.5 1.5 0 0 1 1.5-1.5Z"/></g></svg>