<?xml version="1.0" encoding="UTF-8"?><svg version="1.1" width="1058px" height="450px" viewBox="0 0 1058.0 450.0" xmlns="http://www.w3.org/2000/svg" xmlns:xlink="http://www.w3.org/1999/xlink"><defs><clipPath id="i0"><path d="M1063,0 L1063,638 L0,638 L0,0 L1063,0 Z"></path></clipPath><clipPath id="i1"><path d="M35,0 C54.3299662,-3.55085719e-15 70,15.6700338 70,35 C70,54.3299662 54.3299662,70 35,70 C15.6700338,70 1.18361906e-15,54.3299662 0,35 C-2.36723813e-15,15.6700338 15.6700338,2.36723813e-15 35,0 Z"></path></clipPath><clipPath id="i2"><path d="M36,0 C54.7776815,-3.44940413e-15 70,15.2223185 70,34 L70,36 C70,54.7776815 54.7776815,70 36,70 L34,70 C15.2223185,70 1.14980138e-15,54.7776815 0,36 L0,34 C-2.29960275e-15,15.2223185 15.2223185,2.29960275e-15 34,0 L36,0 Z"></path></clipPath><clipPath id="i3"><path d="M11,0 C17.0751322,0 22,4.92486775 22,11 C22,17.0751322 17.0751322,22 11,22 C4.92486775,22 0,17.0751322 0,11 C0,4.92486775 4.92486775,0 11,0 Z"></path></clipPath><clipPath id="i4"><path d="M55,0 C62.301552,0 68.46078,4.89087056 70.3802999,11.5752277 C84.2476682,16.3742977 95.1694245,27.4845168 99.711204,41.470678 C105.194662,44.0078105 109,49.5595132 109,56 C109,62.4404868 105.194662,67.9921895 99.7097048,70.5293901 C95.0105566,85.0047082 83.475793,96.3994371 68.9141449,100.906277 C66.1616415,105.739541 60.9615813,109 55,109 C49.0384187,109 43.8383585,105.739541 41.0857273,100.904531 C26.6861233,96.4495503 15.2463362,85.2572609 10.4481304,71.0110455 C4.34866986,68.7541987 0,62.8849425 0,56 C0,49.1150575 4.34866986,43.2458013 10.4491381,40.9891028 C15.0823476,27.2296328 25.9119247,16.3190559 39.6199531,11.5741323 C41.53922,4.89087056 47.698448,0 55,0 Z"></path></clipPath><clipPath id="i5"><path d="M55,77 C63.836556,77 71,84.163444 71,93 C71,101.836556 63.836556,109 55,109 C46.163444,109 39,101.836556 39,93 C39,84.163444 46.163444,77 55,77 Z M93,40 C101.836556,40 109,47.163444 109,56 C109,64.836556 101.836556,72 93,72 C84.163444,72 77,64.836556 77,56 C77,47.163444 84.163444,40 93,40 Z M16,40 C24.836556,40 32,47.163444 32,56 C32,64.836556 24.836556,72 16,72 C7.163444,72 0,64.836556 0,56 C0,47.163444 7.163444,40 16,40 Z M55,0 C63.836556,0 71,7.163444 71,16 C71,24.836556 63.836556,32 55,32 C46.163444,32 39,24.836556 39,16 C39,7.163444 46.163444,0 55,0 Z"></path></clipPath><clipPath id="i6"><path d="M55,0 C85.3756612,0 110,24.6243388 110,55 C110,85.3756612 85.3756612,110 55,110 C24.6243388,110 0,85.3756612 0,55 C0,24.6243388 24.6243388,0 55,0 Z"></path></clipPath><clipPath id="i7"><path d="M50.9771047,0 C54.0567601,0.155823768 56.8364962,0.618081379 59.316313,1.38677283 C63.0360383,2.53981001 64.3727093,3.04548064 69.809731,7.14261091 C75.2467527,11.2397412 82.78923,17.4824282 82.78923,20.7381992 C82.78923,23.9939703 79.7043237,23.582614 77.3505967,23.582614 L32.2188478,23.582614 C25.5039452,23.2578374 20.9098361,22.5959744 18.4365205,21.5970248 C14.7265472,20.0986005 12.2264291,19.2744713 8.19935371,15.1695268 C4.17227837,11.0645823 0.167393227,6.42498831 0.00616258794,3.40055143 C-0.101324505,1.38426018 1.19727078,0.250743038 3.90194846,0 Z"></path></clipPath><clipPath id="i8"><path d="M49.3855131,0 C52.3690164,0.155823768 55.0619644,0.618081379 57.4643572,1.38677283 C61.0679464,2.53981001 62.3628842,3.04548064 67.6301529,7.14261091 C72.8974216,11.2397412 80.20441,17.4824282 80.20441,20.7381992 C80.20441,23.3428161 78.2917122,23.6004714 76.3591503,23.5993489 L76.0371973,23.5971238 C75.6621282,23.5925678 75.2902839,23.582614 74.93558,23.582614 L31.2129208,23.582614 C24.7076688,23.2578374 20.2569956,22.5959744 17.8609011,21.5970248 C14.2667595,20.0986005 11.8446992,19.2744713 7.94335599,15.1695268 C4.04201277,11.0645823 0.162166927,6.42498831 0.0059701815,3.40055143 C-0.098160982,1.38426018 1.15988996,0.250743038 3.78012301,0 Z"></path></clipPath><clipPath id="i9"><path d="M33,0 C34.6568542,-3.04359188e-16 36,1.34314575 36,3 L36,33 C36,34.6568542 34.6568542,36 33,36 L3,36 C1.34314575,36 -7.86725357e-16,34.6568542 0,33 L0,3 C-2.02906125e-16,1.34314575 1.34314575,-6.85272294e-16 3,0 L33,0 Z"></path></clipPath><clipPath id="i10"><path d="M25,0 C38.8071187,0 50,11.1928813 50,25 C50,38.8071187 38.8071187,50 25,50 C11.1928813,50 0,38.8071187 0,25 C0,11.1928813 11.1928813,0 25,0 Z"></path></clipPath><clipPath id="i11"><path d="M2.5,0 C3.88071187,0 5,1.11928813 5,2.5 C5,3.88071187 3.88071187,5 2.5,5 C1.11928813,5 0,3.88071187 0,2.5 C0,1.11928813 1.11928813,0 2.5,0 Z M13.5,0 C14.8807119,0 16,1.11928813 16,2.5 C16,3.88071187 14.8807119,5 13.5,5 C12.1192881,5 11,3.88071187 11,2.5 C11,1.11928813 12.1192881,0 13.5,0 Z"></path></clipPath><clipPath id="i12"><path d="M3,0 C4.65685425,-3.04359188e-16 6,1.34314575 6,3 L6,14 C6,15.6568542 4.65685425,17 3,17 C1.34314575,17 1.01453063e-16,15.6568542 0,14 L0,3 C-2.02906125e-16,1.34314575 1.34314575,1.53517375e-15 3,0 Z M13,0 C14.6568542,-3.04359188e-16 16,1.34314575 16,3 L16,14 C16,15.6568542 14.6568542,17 13,17 C11.3431458,17 10,15.6568542 10,14 L10,3 C10,1.34314575 11.3431458,1.53517375e-15 13,0 Z M23,0 C24.6568542,-3.04359188e-16 26,1.34314575 26,3 L26,14 C26,15.6568542 24.6568542,17 23,17 C21.3431458,17 20,15.6568542 20,14 L20,3 C20,1.34314575 21.3431458,1.53517375e-15 23,0 Z"></path></clipPath><clipPath id="i13"><path d="M36.5,0 C37.3284271,-1.52179594e-16 38,0.671572875 38,1.5 L38,3 L0,3 L0,1.5 C-1.01453063e-16,0.671572875 0.671572875,1.01453063e-16 1.5,0 L36.5,0 Z M100,3 L59,3 L59,1.5 C59,0.671572875 59.6715729,1.01453063e-16 60.5,0 L99,0 C99.5522847,-1.01453063e-16 100,0.44771525 100,1 L104,1 C104,0.44771525 104.447715,-2.65431532e-16 105,0 L143.5,0 C144.328427,-1.52179594e-16 145,0.671572875 145,1.5 L145,3 L104,3 L100,3 Z"></path></clipPath></defs><g transform="translate(-3.0 -95.0)"><g clip-path="url(#i0)"><g transform="translate(4.006812242832552 96.0)"><g transform="translate(169.99318775716745 6.28777250737528)"><g transform="translate(711.0 0.0) scale(-1.0 1.0)"><path d="M357.56701,21.0620791 L20.5670096,21.0620791 L20.5670096,412.0365 L357.56701,412.0365 M358,11.8765654 C239.621872,11.6574482 121.270896,11.6574482 2.94706964,11.8765654 C1.93825897,11.8784336 1.66632753,11.8418128 1.01090103,12.5376534 C0.355474523,13.2334939 0.203621763,13.5709783 0.201219167,14.7917269 C-0.0670730556,151.109809 -0.0670730556,287.490365 0.201219167,423.933396 C0.266660283,425.25607 0.536554236,426.195068 1.01090103,426.750387 C1.48524782,427.305707 2.36936512,427.62632 3.66325292,427.712227 L358,427.712227 M0.201409639,15.2853261 C0.201409639,14.6777509 0.160773872,13.3514445 0.426329924,12.4615046 C1.93312983,7.41186857 2.02074722,7.39049064 3.97104185,2.3623808 C4.29732663,1.52117675 4.60459018,0.975887209 4.97948874,0.680179211 C4.99782389,0.665717031 5.64720693,0.105734332 6.92763786,0.0912811865 C17.7099968,-0.0304270622 134.567451,-0.0304270622 357.5,0.0912811865 M0.198382334,422.766944 C0.198382334,428.427453 2.00504285,430.714174 2.78321319,432.491441 C3.56138353,434.268708 5.19402609,436.483119 6.87684589,436.483119 C99.9398123,437.528312 217.046991,437.528312 358.198382,436.483119" stroke="#9FAABA" stroke-width="2" fill="none" stroke-miterlimit="10"></path></g><g transform=""><path d="M357.56701,21.0620791 L20.5670096,21.0620791 L20.5670096,412.0365 L357.56701,412.0365 M358,11.8765654 C239.621872,11.6574482 121.270896,11.6574482 2.94706964,11.8765654 C1.93825897,11.8784336 1.66632753,11.8418128 1.01090103,12.5376534 C0.355474523,13.2334939 0.203621763,13.5709783 0.201219167,14.7917269 C-0.0670730556,151.109809 -0.0670730556,287.490365 0.201219167,423.933396 C0.266660283,425.25607 0.536554236,426.195068 1.01090103,426.750387 C1.48524782,427.305707 2.36936512,427.62632 3.66325292,427.712227 L358,427.712227 M0.201409639,15.2853261 C0.201409639,14.6777509 0.160773872,13.3514445 0.426329924,12.4615046 C1.93312983,7.41186857 2.02074722,7.39049064 3.97104185,2.3623808 C4.29732663,1.52117675 4.60459018,0.975887209 4.97948874,0.680179211 C4.99782389,0.665717031 5.64720693,0.105734332 6.92763786,0.0912811865 C17.7099968,-0.0304270622 134.567451,-0.0304270622 357.5,0.0912811865 M0.198382334,422.766944 C0.198382334,428.427453 2.00504285,430.714174 2.78321319,432.491441 C3.56138353,434.268708 5.19402609,436.483119 6.87684589,436.483119 C99.9398123,437.528312 217.046991,437.528312 358.198382,436.483119" stroke="#9FAABA" stroke-width="2" fill="none" stroke-miterlimit="10"></path></g></g><g transform="translate(47.99318775716745 65.99999999999997)"><g transform="translate(857.0 151.2877725073753)"><g clip-path="url(#i1)"><path d="M35,0 C54.3299662,-3.55085719e-15 70,15.6700338 70,35 C70,54.3299662 54.3299662,70 35,70 C15.6700338,70 1.18361906e-15,54.3299662 0,35 C-2.36723813e-15,15.6700338 15.6700338,2.36723813e-15 35,0 Z" stroke="#9FAABA" stroke-width="4" fill="none" stroke-miterlimit="5"></path></g></g><g transform="translate(21.0 15.287772507375337)"><g clip-path="url(#i2)"><path d="M34,0 L36,0 C54.7776815,-3.44940413e-15 70,15.2223185 70,34 L70,36 C70,54.7776815 54.7776815,70 36,70 L34,70 C15.2223185,70 1.14980138e-15,54.7776815 0,36 L0,34 C-2.29960275e-15,15.2223185 15.2223185,2.29960275e-15 34,0 Z" stroke="#9FAABA" stroke-width="4" fill="none" stroke-miterlimit="5"></path></g></g><g transform="translate(80.0 314.0)"><g clip-path="url(#i3)"><path d="M11,22 C17.0751322,22 22,17.0751322 22,11 C22,4.92486775 17.0751322,0 11,0 C4.92486775,0 0,4.92486775 0,11 C0,17.0751322 4.92486775,22 11,22 Z" stroke="#9FAABA" stroke-width="4" fill="none" stroke-miterlimit="5"></path></g></g><g transform="translate(853.0 314.0)"><g clip-path="url(#i3)"><path d="M11,22 C17.0751322,22 22,17.0751322 22,11 C22,4.92486775 17.0751322,0 11,0 C4.92486775,0 0,4.92486775 0,11 C0,17.0751322 4.92486775,22 11,22 Z" stroke="#9FAABA" stroke-width="4" fill="none" stroke-miterlimit="5"></path></g></g><g transform="translate(851.0 2.842170943040401e-14)"><g clip-path="url(#i4)"><path d="M55,0 C62.301552,0 68.46078,4.89087056 70.3802999,11.5752277 C84.2476682,16.3742977 95.1694245,27.4845168 99.711204,41.470678 C105.194662,44.0078105 109,49.5595132 109,56 C109,62.4404868 105.194662,67.9921895 99.7097048,70.5293901 C95.0105566,85.0047082 83.475793,96.3994371 68.9141449,100.906277 C66.1616415,105.739541 60.9615813,109 55,109 C49.0384187,109 43.8383585,105.739541 41.0857273,100.904531 C26.6861233,96.4495503 15.2463362,85.2572609 10.4481304,71.0110455 C4.34866986,68.7541987 0,62.8849425 0,56 C0,49.1150575 4.34866986,43.2458013 10.4491381,40.9891028 C15.0823476,27.2296328 25.9119247,16.3190559 39.6199531,11.5741323 C41.53922,4.89087056 47.698448,0 55,0 Z" stroke="#9FAABA" stroke-width="4" fill="none" stroke-miterlimit="5"></path></g><g clip-path="url(#i5)"><path d="M55,32 C63.836556,32 71,24.836556 71,16 C71,7.163444 63.836556,0 55,0 C46.163444,0 39,7.163444 39,16 C39,24.836556 46.163444,32 55,32 Z M93,72 C101.836556,72 109,64.836556 109,56 C109,47.163444 101.836556,40 93,40 C84.163444,40 77,47.163444 77,56 C77,64.836556 84.163444,72 93,72 Z M16,72 C24.836556,72 32,64.836556 32,56 C32,47.163444 24.836556,40 16,40 C7.163444,40 0,47.163444 0,56 C0,64.836556 7.163444,72 16,72 Z M55,109 C63.836556,109 71,101.836556 71,93 C71,84.163444 63.836556,77 55,77 C46.163444,77 39,84.163444 39,93 C39,101.836556 46.163444,109 55,109 Z" stroke="#9FAABA" stroke-width="4" fill="none" stroke-miterlimit="5"></path></g></g><g transform="translate(0.0 123.00000000000003)"><g transform="translate(37.0 49.1041998309646) rotate(-90.00000000000001)"><g transform="translate(1.0001547268425384 0.9999983469895)"><path d="M1.45807858,13.1367934 L11.1545379,2.84449859 C12.7007388,1.29539448 14.8373105,-1.77635684e-15 16.0353002,-1.77635684e-15 L32.5707856,-1.77635684e-15 C33.4249338,-1.77635684e-15 35.1488028,0.0334728046 36.5572502,0.64644777 C37.6633058,1.1278178 38.5112192,2.20289523 39.1400107,3.57985768 C40.4574079,6.46476732 41.9957872,12.3042154 41.9957872,17 L41.991334,17.4434553 C41.8998543,22.0578648 40.4162392,27.6253861 39.1400107,30.4201423 C38.5112192,31.7971048 37.6633058,32.8721822 36.5572502,33.3535522 C35.1488028,33.9665272 33.4249338,34 32.5707856,34 L16.0353002,34 C14.8373105,34 12.7007388,32.7046055 11.1545379,31.1555014 L1.45807858,20.8632066 C0.0468389007,19.3778017 0,18.147312 0,17 C0,15.852688 0.0468389007,14.6221983 1.45807858,13.1367934 Z" stroke="#9FAABA" stroke-width="2" fill="none" stroke-miterlimit="10"></path></g></g><g transform="translate(37.0 61.10419983096456) rotate(-90.0) scale(-1.0 1.0)"><g transform="translate(1.0001547268425384 0.9999983469895)"><path d="M1.45807858,13.1367934 L11.1545379,2.84449859 C12.7007388,1.29539448 14.8373105,-1.77635684e-15 16.0353002,-1.77635684e-15 L32.5707856,-1.77635684e-15 C33.4249338,-1.77635684e-15 35.1488028,0.0334728046 36.5572502,0.64644777 C37.6633058,1.1278178 38.5112192,2.20289523 39.1400107,3.57985768 C40.4574079,6.46476732 41.9957872,12.3042154 41.9957872,17 L41.991334,17.4434553 C41.8998543,22.0578648 40.4162392,27.6253861 39.1400107,30.4201423 C38.5112192,31.7971048 37.6633058,32.8721822 36.5572502,33.3535522 C35.1488028,33.9665272 33.4249338,34 32.5707856,34 L16.0353002,34 C14.8373105,34 12.7007388,32.7046055 11.1545379,31.1555014 L1.45807858,20.8632066 C0.0468389007,19.3778017 0,18.147312 0,17 C0,15.852688 0.0468389007,14.6221983 1.45807858,13.1367934 Z" stroke="#9FAABA" stroke-width="2" fill="none" stroke-miterlimit="10"></path></g></g><g transform="translate(49.0 38.1041998309646) scale(-1.0 1.0)"><g transform="translate(1.0001547268425384 0.9999983469895)"><path d="M1.45807858,13.1367934 L11.1545379,2.84449859 C12.7007388,1.29539448 14.8373105,-1.77635684e-15 16.0353002,-1.77635684e-15 L32.5707856,-1.77635684e-15 C33.4249338,-1.77635684e-15 35.1488028,0.0334728046 36.5572502,0.64644777 C37.6633058,1.1278178 38.5112192,2.20289523 39.1400107,3.57985768 C40.4574079,6.46476732 41.9957872,12.3042154 41.9957872,17 L41.991334,17.4434553 C41.8998543,22.0578648 40.4162392,27.6253861 39.1400107,30.4201423 C38.5112192,31.7971048 37.6633058,32.8721822 36.5572502,33.3535522 C35.1488028,33.9665272 33.4249338,34 32.5707856,34 L16.0353002,34 C14.8373105,34 12.7007388,32.7046055 11.1545379,31.1555014 L1.45807858,20.8632066 C0.0468389007,19.3778017 0,18.147312 0,17 C0,15.852688 0.0468389007,14.6221983 1.45807858,13.1367934 Z" stroke="#9FAABA" stroke-width="2" fill="none" stroke-miterlimit="10"></path></g></g><g transform="translate(61.36620839179784 38.1041998309646)"><g transform="translate(1.0001547268425384 0.9999983469895)"><path d="M1.45807858,13.1367934 L11.1545379,2.84449859 C12.7007388,1.29539448 14.8373105,-1.77635684e-15 16.0353002,-1.77635684e-15 L32.5707856,-1.77635684e-15 C33.4249338,-1.77635684e-15 35.1488028,0.0334728046 36.5572502,0.64644777 C37.6633058,1.1278178 38.5112192,2.20289523 39.1400107,3.57985768 C40.4574079,6.46476732 41.9957872,12.3042154 41.9957872,17 L41.991334,17.4434553 C41.8998543,22.0578648 40.4162392,27.6253861 39.1400107,30.4201423 C38.5112192,31.7971048 37.6633058,32.8721822 36.5572502,33.3535522 C35.1488028,33.9665272 33.4249338,34 32.5707856,34 L16.0353002,34 C14.8373105,34 12.7007388,32.7046055 11.1545379,31.1555014 L1.45807858,20.8632066 C0.0468389007,19.3778017 0,18.147312 0,17 C0,15.852688 0.0468389007,14.6221983 1.45807858,13.1367934 Z" stroke="#9FAABA" stroke-width="2" fill="none" stroke-miterlimit="10"></path></g></g><g clip-path="url(#i6)"><path d="M55,110 C24.6243388,110 0,85.3756612 0,55 C0,24.6243388 24.6243388,0 55,0 C85.3756612,0 110,24.6243388 110,55 C110,85.3756612 85.3756612,110 55,110 Z" stroke="#9FAABA" stroke-width="4" fill="none" stroke-miterlimit="5"></path></g></g></g><g transform="translate(0.0 1.718097582586779)"><g transform="translate(1055.4931877571678 0.0) scale(-1.0 1.0)"><g transform=""><path d="M544.493188,445.374373 C252.998708,445.374373 107.251468,445.374373 107.251468,445.374373 C107.251468,445.374373 95.1102851,445.819017 87.6713572,441.816452 C80.2324293,437.813887 77.212516,434.40576 73.2266608,429.528258 C69.2408055,424.650755 54.5973535,403.75907 49.9722573,396.542344 C45.3471611,389.325618 30.9857271,364.190024 23.0569908,343.875989 C18.7620792,332.872093 12.6123596,314.004935 8.47022634,297.734354 C4.96566388,283.968195 3.12724973,271.909711 2.70598363,269.601341 C1.06498222,260.609309 0,251.829743 0,238.946593 C0,228.713231 0.326885064,213.639299 1.25786089,198.278827 C2.15541669,183.469764 3.61447061,168.394365 5.88343391,157.133617 C10.5058442,134.192834 21.4333726,103.803745 26.2330514,93.1900712 C31.0327302,82.5763975 42.3416544,61.7588695 47.8745801,52.8807487 C50.9014289,48.0238737 53.7519394,43.4861784 56.4261117,39.2676627 C57.0107734,38.3453568 58.4970053,37.5707826 58.9204885,37.3394794 C59.3439718,37.1081762 61.014412,36.5725585 62.8018666,36.5465157 C81.6252601,36.2722633 100.500168,36.2722633 119.426591,36.5465157 C126.401059,36.7555144 131.875849,35.9605793 135.850961,34.1617104 C141.813628,31.463407 147.389353,25.670625 147.389353,25.670625 C147.389353,25.670625 171.593224,3.78304846 171.962284,3.44742688 C172.380455,3.06714444 173.149419,2.47511025 174.346912,2.11541771 C175.42862,1.79050392 176.886029,1.67905981 178.284956,1.657491 C194.470016,1.4079479 316.539427,1.45967449 544.493188,1.81267077 M58.2295208,408.662251 C66.8575861,409.90565 73.3181578,410.527349 77.6112358,410.527349 C84.0508529,410.527349 98.5191737,410.527349 119.300074,410.527349 C125.969443,410.527349 132.704683,411.441427 135.739355,412.538356 C138.774027,413.635285 144.711463,417.327894 146.069812,418.426949 C148.106771,420.075075 150.255182,421.693141 152.167093,423.329451 C158.020666,428.339235 165.788873,435.69244 175.471712,445.389067 M52.4600353,44.8908289 C52.4600353,43.3733566 52.4600353,42.2052846 52.4600353,41.386613 C52.4600353,40.1586056 58.3916475,30.5118346 69.3730733,17.6627147 C74.1724146,12.0471133 77.1434382,8.38345979 83.8515215,4.56967492 C88.3235769,2.02715168 95.3292442,0.503926706 104.868523,0 L170.215177,0 C170.816203,0.0173772 171.413445,0.269340553 172.006902,0.755890058 C172.600359,1.24243956 172.95981,1.77482725 173.085255,2.35305311" stroke="#9FAABA" stroke-width="2" fill="none" stroke-miterlimit="10"></path></g><g transform="translate(73.91207227328493 414.0729108810732)"><g clip-path="url(#i7)"><path d="M8.19935371,15.1695268 C12.2264291,19.2744713 14.7265472,20.0986005 18.4365205,21.5970248 C20.9098361,22.5959744 25.5039452,23.2578374 32.2188478,23.582614 C60.737529,23.582614 75.7814453,23.582614 77.3505967,23.582614 C79.7043237,23.582614 82.78923,23.9939703 82.78923,20.7381992 C82.78923,17.4824282 75.2467527,11.2397412 69.809731,7.14261091 C64.3727093,3.04548064 63.0360383,2.53981001 59.316313,1.38677283 C56.8364962,0.618081379 54.0567601,0.155823768 50.9771047,0 L3.90194846,0 C1.19727078,0.250743038 -0.101324505,1.38426018 0.00616258794,3.40055143 C0.167393227,6.42498831 4.17227837,11.0645823 8.19935371,15.1695268 Z" stroke="#9FAABA" stroke-width="4" fill="none" stroke-miterlimit="5"></path></g></g><g transform="translate(62.80186657939025 4.569674924788529)"><path d="M0,31.9768408 C10.9829533,18.8445377 22.5600407,10.3957763 34.7312621,6.63055651 C46.9024835,2.8653367 71.4370542,0.6551512 108.334974,0" stroke="#9FAABA" stroke-width="2" fill="none" stroke-miterlimit="10"></path></g></g><g transform=""><path d="M527.493188,445.374373 C245.09966,445.374373 103.902896,445.374373 103.902896,445.374373 C103.902896,445.374373 92.1407808,445.819017 84.9341089,441.816452 C77.7274369,437.813887 74.8018104,434.40576 70.9404003,429.528258 C67.0789902,424.650755 52.8927316,403.75907 48.4120387,396.542344 C43.9313459,389.325618 30.0183002,364.190024 22.3371125,343.875989 C18.1762953,332.872093 12.2185804,314.004935 8.20577152,297.734354 C4.81062744,283.968195 3.02961169,271.909711 2.62149823,269.601341 C1.03173167,260.609309 0,251.829743 0,238.946593 C0,228.713231 0.316679158,213.639299 1.21858835,198.278827 C2.08812093,183.469764 3.50162071,168.394365 5.69974313,157.133617 C10.177834,134.192834 20.7641864,103.803745 25.414011,93.1900712 C30.0638357,82.5763975 41.0196762,61.7588695 46.3798546,52.8807487 C49.3122,48.0238737 52.0737128,43.4861784 54.6643928,39.2676627 C55.2308005,38.3453568 56.6706296,37.5707826 57.080891,37.3394794 C57.4911524,37.1081762 59.1094386,36.5725585 60.8410859,36.5465157 C79.0767811,36.2722633 97.3623826,36.2722633 115.69789,36.5465157 C122.454604,36.7555144 127.758462,35.9605793 131.609464,34.1617104 C137.385967,31.463407 142.787608,25.670625 142.787608,25.670625 C142.787608,25.670625 166.235793,3.78304846 166.59333,3.44742688 C166.998445,3.06714444 167.7434,2.47511025 168.903506,2.11541771 C169.951441,1.79050392 171.363348,1.67905981 172.718598,1.657491 C188.398333,1.4079479 306.656529,1.45967449 527.493188,1.81267077 M56.4114965,408.662251 C64.770179,409.90565 71.0290407,410.527349 75.1880815,410.527349 C81.4266428,410.527349 95.4432382,410.527349 115.575323,410.527349 C122.036464,410.527349 128.561418,411.441427 131.501343,412.538356 C134.441267,413.635285 140.193326,417.327894 141.509265,418.426949 C143.482627,420.075075 145.56396,421.693141 147.416178,423.329451 C153.086993,428.339235 160.612663,435.69244 169.993188,445.389067 M50.8221441,44.8908289 C50.8221441,43.3733566 50.8221441,42.2052846 50.8221441,41.386613 C50.8221441,40.1586056 56.5685613,30.5118346 67.2071284,17.6627147 C71.8566261,12.0471133 74.7348894,8.38345979 81.2335349,4.56967492 C85.5659652,2.02715168 92.3529036,0.503926706 101.59435,0 L164.90077,0 C165.483032,0.0173772 166.061627,0.269340553 166.636555,0.755890058 C167.211483,1.24243956 167.559712,1.77482725 167.68124,2.35305311" stroke="#9FAABA" stroke-width="2" fill="none" stroke-miterlimit="10"></path></g><g transform="translate(71.60441212822136 414.0729108810732)"><g clip-path="url(#i8)"><path d="M7.94335599,15.1695268 C11.8446992,19.2744713 14.2667595,20.0986005 17.8609011,21.5970248 C20.2569956,22.5959744 24.7076688,23.2578374 31.2129208,23.582614 C58.8412004,23.582614 73.4154201,23.582614 74.93558,23.582614 C77.2158197,23.582614 80.20441,23.9939703 80.20441,20.7381992 C80.20441,17.4824282 72.8974216,11.2397412 67.6301529,7.14261091 C62.3628842,3.04548064 61.0679464,2.53981001 57.4643572,1.38677283 C55.0619644,0.618081379 52.3690164,0.155823768 49.3855131,0 L3.78012301,0 C1.15988996,0.250743038 -0.098160982,1.38426018 0.0059701815,3.40055143 C0.162166927,6.42498831 4.04201277,11.0645823 7.94335599,15.1695268 Z" stroke="#9FAABA" stroke-width="4" fill="none" stroke-miterlimit="5"></path></g></g><g transform="translate(60.84108588303787 4.569674924788529)"><path d="M0,31.9768408 C10.6400469,18.8445377 21.855678,10.3957763 33.6468933,6.63055651 C45.4381085,2.8653367 69.2066683,0.6551512 104.952573,0" stroke="#9FAABA" stroke-width="2" fill="none" stroke-miterlimit="10"></path></g></g><g transform="translate(921.9931877571674 320.0)"><g clip-path="url(#i9)"><path d="M3,0 L33,0 C34.6568542,-3.04359188e-16 36,1.34314575 36,3 L36,33 C36,34.6568542 34.6568542,36 33,36 L3,36 C1.34314575,36 -7.86725357e-16,34.6568542 0,33 L0,3 C-2.02906125e-16,1.34314575 1.34314575,-6.85272294e-16 3,0 Z" stroke="#9FAABA" stroke-width="4" fill="none" stroke-miterlimit="5"></path></g></g><g transform="translate(82.99318775716745 313.0)"><g clip-path="url(#i10)"><path d="M25,50 C38.8071187,50 50,38.8071187 50,25 C50,11.1928813 38.8071187,0 25,0 C11.1928813,0 0,11.1928813 0,25 C0,38.8071187 11.1928813,50 25,50 Z" stroke="#9FAABA" stroke-width="4" fill="none" stroke-miterlimit="5"></path></g></g><g transform="translate(990.9931877571674 289.0)"><g clip-path="url(#i11)"><polygon points="0,0 16,0 16,5 0,5 0,0" stroke="none" fill="#9FAABA"></polygon><path d="M2.5,5 C3.88071187,5 5,3.88071187 5,2.5 C5,1.11928813 3.88071187,0 2.5,0 C1.11928813,0 0,1.11928813 0,2.5 C0,3.88071187 1.11928813,5 2.5,5 Z M13.5,5 C14.8807119,5 16,3.88071187 16,2.5 C16,1.11928813 14.8807119,0 13.5,0 C12.1192881,0 11,1.11928813 11,2.5 C11,3.88071187 12.1192881,5 13.5,5 Z" stroke="#9FAABA" stroke-width="2" fill="none" stroke-miterlimit="5"></path></g></g><g transform="translate(935.9931877571674 378.0)"><g clip-path="url(#i12)"><polygon points="0,0 26,0 26,17 0,17 0,0" stroke="none" fill="#9FAABA"></polygon><path d="M3,0 C4.65685425,-3.04359188e-16 6,1.34314575 6,3 L6,14 C6,15.6568542 4.65685425,17 3,17 C1.34314575,17 1.01453063e-16,15.6568542 0,14 L0,3 C-2.02906125e-16,1.34314575 1.34314575,1.53517375e-15 3,0 Z M13,0 C14.6568542,-3.04359188e-16 16,1.34314575 16,3 L16,14 C16,15.6568542 14.6568542,17 13,17 C11.3431458,17 10,15.6568542 10,14 L10,3 C10,1.34314575 11.3431458,1.53517375e-15 13,0 Z M23,0 C24.6568542,-3.04359188e-16 26,1.34314575 26,3 L26,14 C26,15.6568542 24.6568542,17 23,17 C21.3431458,17 20,15.6568542 20,14 L20,3 C20,1.34314575 21.3431458,1.53517375e-15 23,0 Z" stroke="#9FAABA" stroke-width="2" fill="none" stroke-miterlimit="5"></path></g></g><g transform="translate(90.99318775716745 378.0)"><g clip-path="url(#i12)"><polygon points="0,0 26,0 26,17 0,17 0,0" stroke="none" fill="#9FAABA"></polygon><path d="M3,0 C4.65685425,-3.04359188e-16 6,1.34314575 6,3 L6,14 C6,15.6568542 4.65685425,17 3,17 C1.34314575,17 1.01453063e-16,15.6568542 0,14 L0,3 C-2.02906125e-16,1.34314575 1.34314575,1.53517375e-15 3,0 Z M13,0 C14.6568542,-3.04359188e-16 16,1.34314575 16,3 L16,14 C16,15.6568542 14.6568542,17 13,17 C11.3431458,17 10,15.6568542 10,14 L10,3 C10,1.34314575 11.3431458,1.53517375e-15 13,0 Z M23,0 C24.6568542,-3.04359188e-16 26,1.34314575 26,3 L26,14 C26,15.6568542 24.6568542,17 23,17 C21.3431458,17 20,15.6568542 20,14 L20,3 C20,1.34314575 21.3431458,1.53517375e-15 23,0 Z" stroke="#9FAABA" stroke-width="2" fill="none" stroke-miterlimit="5"></path></g></g><g transform="translate(258.99318775716745 0.0)"><g clip-path="url(#i13)"><polygon points="0,0 145,0 145,3 0,3 0,0" stroke="none" fill="#9FAABA"></polygon></g><path d="M100,1 L104,1 L104,3 L100,3 L100,1 Z M60.5,0 L99,0 C99.5522847,-1.01453063e-16 100,0.44771525 100,1 L100,3 L100,3 L59,3 L59,1.5 C59,0.671572875 59.6715729,1.01453063e-16 60.5,0 Z M105,0 L143.5,0 C144.328427,-1.52179594e-16 145,0.671572875 145,1.5 L145,3 L145,3 L104,3 L104,1 C104,0.44771525 104.447715,-2.65431532e-16 105,0 Z M1.5,0 L36.5,0 C37.3284271,-1.52179594e-16 38,0.671572875 38,1.5 L38,3 L38,3 L0,3 L0,1.5 C-1.01453063e-16,0.671572875 0.671572875,1.01453063e-16 1.5,0 Z" stroke="#9FAABA" stroke-width="1" fill="none" stroke-miterlimit="10"></path></g></g></g></g></svg>