<svg width="32" height="32" version="1.1" xml:space="preserve" xmlns="http://www.w3.org/2000/svg"><path d="M2.033 5.922A2.03 2.03 0 0 0 0 7.955v9.906a2.03 2.03 0 0 0 2.033 2.034h27.934A2.03 2.03 0 0 0 32 17.86V7.955a2.03 2.03 0 0 0-2.033-2.033ZM16 8.475l5.166 4.568h-1.814v4.299h-6.704v-4.299h-1.814zm-.418 5.388h2.861v1.672h-2.861z" fill="#fff" stroke-width=".069111"/><path d="m4.65 26.078v-4.46h1.352v1.723h1.96v-1.721h1.35v4.459h-1.35v-1.926h-1.96v1.926zm5.609-0.919v-2.622q0-0.918 1.148-0.918h2.365q1.149 0 1.149 0.918v2.622q0 0.919-1.149 0.919h-2.365q-1.148 0-1.148-0.92m1.351-0.081q0 0.189 0.237 0.189h1.486q0.236 0 0.236-0.19v-2.459q0-0.189-0.236-0.189h-1.486q-0.237 0-0.237 0.19zm4.257 1.001v-4.46h1.655l1.385 3.115 1.385-3.114h1.656v4.459h-1.352v-2.351l-1.047 2.35h-1.284l-1.047-2.35v2.35zm7.02 0v-4.46h4.324v0.811h-2.973v0.912h2.635v0.811h-2.635v1.115h2.973v0.81z" fill="#fff"/></svg>
