<svg xmlns="http://www.w3.org/2000/svg" xmlns:xlink="http://www.w3.org/1999/xlink" xml:space="preserve" width="32" height="32"><defs><clipPath id="b" clipPathUnits="userSpaceOnUse"><use xlink:href="#a"/></clipPath></defs><path d="M9.307 11.682h11.895v8.619H9.307z" style="fill:#000;fill-opacity:1;stroke:none;stroke-width:1.32661"/><g clip-path="url(#b)"><path id="a" d="M10.498.036H18.4c1.027.081 1.683.36 2.188.785s.876.978 1.003 2.147c.281 6.027-.38 4.978.448 12.498.827 7.519 3.94 12.114 2.903 14.419-.563 1.251-1.732 1.846-2.903 2.008s-4.206 0-8.493 0c-.343 0-1.169-.29-1.872-.888s-2.929-4.772-4.06-14.092S6.494 2.39 8.387.821q.852-.815 2.11-.785m1.381 13.281h-1.85v5.989h4.738V17.83H11.88zm7.77-.102h-1.45l-3.032 3.603v1.368H18.2v1.12h1.45v-1.12h.751v-1.29h-.751zm-1.45 1.797v1.883h-1.602z" style="fill:#fff;fill-opacity:1;stroke-width:.0697158"/></g></svg>