<svg width="32" height="32" version="1.1" xml:space="preserve" xmlns="http://www.w3.org/2000/svg"><path id="a" d="m10.498 0.036h7.902c1.027 0.081 1.683 0.36 2.188 0.785s0.876 0.978 1.003 2.147c0.281 6.027-0.38 4.978 0.448 12.498 0.827 7.519 3.94 12.114 2.903 14.419-0.563 1.251-1.732 1.846-2.903 2.008s-4.206 0-8.493 0c-0.343 0-1.169-0.29-1.872-0.888s-2.929-4.772-4.06-14.092-1.12-14.523 0.773-16.092q0.852-0.815 2.11-0.785m1.381 13.281h-1.85v5.989h4.738v-1.476h-2.886zm7.77-0.102h-1.45l-3.032 3.603v1.368h3.034v1.12h1.45v-1.12h0.751v-1.29h-0.751zm-1.45 1.797v1.883h-1.602z" fill="#fff" stroke-width=".069716"/></svg>
