<svg width="32" height="16" version="1.1" xmlns="http://www.w3.org/2000/svg">
 <path d="m16 3.296v7e-3h13.9c0.10912 0 0.22227-2e-3 0.33696-4e-3l0.05747-9e-4 0.07437-8.9e-4 0.04966-3.9e-4 0.02483-1.3e-4h0.04966c0.76173 2e-3 1.5075 0.1136 1.5075 1.1406 0 1.2979-2.913 3.7866-5.0128 5.42-2.0998 1.6333-2.616 1.8349-4.0526 2.2946q-1.4366 0.45965-3.2207 0.55283h-3.7595v-7e-3h-13.9c-0.10912 0-0.22227 2e-3 -0.33696 4e-3l-0.057408 9e-4 -0.0576 7.7e-4 -0.02432 2.5e-4 -0.048512 3.9e-4h-0.072768l-0.045568-2.6e-4 -0.022784-2.6e-4 -0.04544-7e-4c-0.71872-0.01472-1.3891-0.16576-1.3891-1.1393 0-1.2979 2.913-3.7866 5.0128-5.42 2.0998-1.6333 2.6161-1.8349 4.0526-2.2946q1.4367-0.45965 3.2207-0.55283zm4.7483 2.9637h-0.58406v2.2115c0 0.46425 0.12979 0.81869 0.39437 1.0683 0.2496 0.23462 0.61402 0.35443 1.0883 0.35443q0.70387 0 1.0932-0.35943 0.38938-0.36691 0.38938-1.0633v-2.2115h-0.58406v2.2214c0 0.30951-0.07488 0.53415-0.21466 0.68391-0.14477 0.14476-0.3744 0.21964-0.6839 0.21964-0.3145 0-0.54413-0.0749-0.6839-0.21964-0.14477-0.14976-0.21466-0.3744-0.21466-0.68391zm-11.267 0h-0.6839v3.5643h0.58406v-2.4561h0.019968l1.0483 2.4561h0.50419l1.0483-2.4561h0.01997v2.4561h0.58406v-3.5643h-0.68391l-1.2081 2.7955h-0.01997zm6.3948 0h-2.5709v3.5643h2.6557v-0.4992h-2.0717v-1.0783h1.867v-0.4992h-1.867v-0.98842h1.9868zm1.218 0h-0.58406v3.5643h0.58406v-2.6058h0.01997l1.7821 2.6058h0.56909v-3.5643h-0.58906v2.5709h-0.01997z" fill="#fff" stroke-width=".064"/>
</svg>
