<?xml version="1.0" encoding="UTF-8" standalone="no"?>
<svg
   width="32"
   height="16"
   version="1.1"
   id="svg5"
   xmlns="http://www.w3.org/2000/svg"
   xmlns:svg="http://www.w3.org/2000/svg">
  <defs
     id="defs2">
    <clipPath
       id="a">
      <path
         d="M 500,0 V 500 H 0 V 0 Z"
         id="path1" />
    </clipPath>
    <clipPath
       id="b">
      <path
         d="m 250.712,0 v 0.104 h 217.18 c 1.705,0 3.473,-0.037 5.265,-0.067 l 0.898,-0.014 1.162,-0.014 0.776,-0.006 0.388,-0.002 h 0.776 c 11.902,0.03 23.555,1.775 23.555,17.821 0,20.28 -45.515,59.166 -78.325,84.687 -32.81,25.52 -40.875,28.67 -63.322,35.853 Q 336.618,145.544 308.742,147 H 250 v -0.105 H 32.82 c -1.705,0 -3.473,0.038 -5.265,0.068 l -0.897,0.014 -0.9,0.012 -0.38,0.004 -0.758,0.006 h -1.137 l -0.712,-0.004 -0.356,-0.004 -0.71,-0.011 C 10.475,146.75 0,144.39 0,129.178 0,108.898 45.515,70.012 78.325,44.491 111.135,18.971 119.201,15.821 141.647,8.638 Q 164.095,1.456 191.97,0 Z m 74.192,46.308 h -9.126 v 34.554 c 0,7.254 2.028,12.792 6.162,16.692 3.9,3.666 9.594,5.538 17.004,5.538 q 10.998,0 17.082,-5.616 6.084,-5.733 6.084,-16.614 V 46.308 h -9.126 v 34.71 c 0,4.836 -1.17,8.346 -3.354,10.686 -2.262,2.262 -5.85,3.432 -10.686,3.432 -4.914,0 -8.502,-1.17 -10.686,-3.432 -2.262,-2.34 -3.354,-5.85 -3.354,-10.686 z m -176.046,0 H 138.172 V 102 h 9.126 V 63.624 h 0.312 L 163.99,102 h 7.878 l 16.38,-38.376 h 0.312 V 102 h 9.126 V 46.308 H 187 l -18.876,43.68 h -0.312 z m 99.918,0 h -40.17 V 102 h 41.496 v -7.8 h -32.37 V 77.352 h 29.172 v -7.8 H 217.732 V 54.108 h 31.044 z m 19.032,0 h -9.126 V 102 h 9.126 V 61.284 h 0.312 L 295.966,102 h 8.892 V 46.308 h -9.204 v 40.17 h -0.312 z"
         id="path2" />
    </clipPath>
  </defs>
  <g
     clip-path="url(#a)"
     transform="translate(2.16e-4,-168)"
     id="g5">
    <path
       d="M 8.298,-2.836 H 24.346 V 2.743 H 8.298 Z"
       style="fill:#000000;stroke-width:1.32661"
       transform="translate(-0.712,176)"
       id="path3" />
    <g
       clip-path="url(#b)"
       transform="matrix(0.064,0,0,0.064,-0.046,171.296)"
       id="g4">
      <path
         fill="#ffffff"
         d="m 500.712,0 v 147 h -500 V 0 Z"
         id="path4" />
    </g>
  </g>
</svg>
