<svg xmlns="http://www.w3.org/2000/svg" width="32" height="32"><defs><clipPath id="a"><path d="M500 0v500H0V0Z"/></clipPath><clipPath id="b"><path d="M250.712 0v.104h217.18c1.705 0 3.473-.037 5.265-.067l.898-.014 1.162-.014.776-.006.388-.002h.776c11.902.03 23.555 1.775 23.555 17.821 0 20.28-45.515 59.166-78.325 84.687-32.81 25.52-40.875 28.67-63.322 35.853q-22.447 7.182-50.323 8.638H250v-.105H32.82c-1.705 0-3.473.038-5.265.068l-.897.014-.9.012-.38.004-.758.006h-1.137l-.712-.004-.356-.004-.71-.011C10.475 146.75 0 144.39 0 129.178c0-20.28 45.515-59.166 78.325-84.687 32.81-25.52 40.876-28.67 63.322-35.853Q164.095 1.456 191.97 0Zm74.192 46.308h-9.126v34.554c0 7.254 2.028 12.792 6.162 16.692 3.9 3.666 9.594 5.538 17.004 5.538q10.998 0 17.082-5.616 6.084-5.733 6.084-16.614V46.308h-9.126v34.71c0 4.836-1.17 8.346-3.354 10.686-2.262 2.262-5.85 3.432-10.686 3.432-4.914 0-8.502-1.17-10.686-3.432-2.262-2.34-3.354-5.85-3.354-10.686zm-176.046 0h-10.686V102h9.126V63.624h.312L163.99 102h7.878l16.38-38.376h.312V102h9.126V46.308H187l-18.876 43.68h-.312zm99.918 0h-40.17V102h41.496v-7.8h-32.37V77.352h29.172v-7.8h-29.172V54.108h31.044zm19.032 0h-9.126V102h9.126V61.284h.312L295.966 102h8.892V46.308h-9.204v40.17h-.312z"/></clipPath></defs><g clip-path="url(#a)" transform="translate(0 -160)"><path d="M8.298-2.836h16.048v5.579H8.298z" style="fill:#000;stroke-width:1.32661" transform="translate(-.712 176)"/><g clip-path="url(#b)" transform="translate(-.046 171.296)scale(.064)"><path fill="#fff" d="M500.712 0v147h-500V0z"/></g></g></svg>