<svg width="32" height="32" version="1.1" xml:space="preserve" xmlns="http://www.w3.org/2000/svg"><path d="m23.615 0.82158c1.8932 1.5691 1.9031 6.772 0.7718 16.093-1.1314 9.3206-3.3574 13.494-4.0605 14.093-0.70306 0.59869-1.529 0.88816-1.8721 0.88816-4.2873 0-7.3213 0.16196-8.4931 0-1.1718-0.16196-2.34-0.75646-2.9037-2.0084-1.0366-2.3048 2.0764-6.8999 2.9037-14.42 0.8273-7.5197 0.16642-6.4709 0.4476-12.499 0.12766-1.1682 0.49843-1.7214 1.0034-2.1463 0.50498-0.42494 1.1604-0.70424 2.1881-0.7856h7.9037q1.2589-0.029701 2.111 0.78554m-8.5828 12.572h-3.0844v5.9888h1.8587v-2.4306h0.16342q0.25322 0 0.45339 0.13888 0.14711 0.10625 0.335 0.46162l0.98863 1.8302h2.0916l-0.89465-1.7362q-0.0654-0.1308-0.25936-0.37175-0.1941-0.24102-0.29624-0.31458-0.15115-0.11037-0.48204-0.22059 0.41253-0.09398 0.64951-0.23698 0.37175-0.22457 0.58425-0.58621 0.21237-0.3615 0.21237-0.85993 0-0.57191-0.27776-0.97022-0.27783-0.39824-0.73129-0.54535-0.45339-0.14711-1.3113-0.14711m7.4391-0.10214h-1.4503l-3.0311 3.6031v1.3685h3.0311v1.1194h1.4502v-1.1194h0.75165v-1.2909h-0.75158zm-1.4503 1.7975v1.8833h-1.6012zm-6.4014-0.48616q0.50659 0 0.69037 0.15527 0.18385 0.1552 0.18385 0.4453 0 0.19612-0.11643 0.3472-0.11643 0.15108-0.30028 0.1879-0.36352 0.08171-0.49013 0.08171h-0.78031v-1.2173z" fill="#fff" stroke-width=".06972"/></svg>
