<svg xmlns="http://www.w3.org/2000/svg" xml:space="preserve" width="32" height="32"><defs><clipPath id="a"><path d="M240.484 11.282c27.154 22.506 27.297 97.131 11.07 230.817-16.228 133.686-48.156 193.543-58.24 202.13s-21.93 12.739-26.851 12.739c-61.493 0-105.01 2.323-121.817 0s-33.563-10.85-41.648-28.806C-11.87 395.104 32.78 329.196 44.646 221.34s2.387-92.812 6.42-179.272c1.831-16.756 7.149-24.69 14.392-30.785S82.102 1.182 96.842.015h113.364q18.057-.426 30.278 11.267M117.38 191.602H73.14V277.5H99.8v-34.863h2.344q3.632 0 6.503 1.992 2.11 1.524 4.805 6.621l14.18 26.25h30L144.8 252.598q-.938-1.876-3.72-5.332-2.784-3.457-4.249-4.512-2.168-1.583-6.914-3.164 5.917-1.348 9.316-3.399 5.332-3.221 8.38-8.408 3.046-5.185 3.046-12.334 0-8.203-3.984-13.916-3.985-5.712-10.489-7.822-6.503-2.11-18.808-2.11m106.7-1.465h-20.802l-43.476 51.68v19.628h43.476V277.5h20.801v-16.055h10.781V242.93h-10.78zm-20.802 25.781v27.012H180.31zm-91.816-6.973q7.266 0 9.902 2.227 2.637 2.226 2.637 6.387 0 2.813-1.67 4.98t-4.307 2.695q-5.214 1.172-7.03 1.172H99.8v-17.46z"/></clipPath></defs><path d="M10.874 12.062h12.679v8.643H10.874z" style="fill:#000;stroke-width:1.32661"/><g clip-path="url(#clipPath4)" transform="matrix(.06972 0 0 .06972 6.848 .035)"><g clip-path="url(#a)"><path fill="#fff" d="M0 458V0h262.562v458z"/></g><path fill="none" stroke="#fff" stroke-miterlimit="10" d="M210.206.015q18.057-.426 30.278 11.267c27.154 22.506 27.297 97.131 11.07 230.817-16.228 133.686-48.156 193.543-58.24 202.13s-21.93 12.739-26.851 12.739c-61.493 0-105.01 2.323-121.817 0s-33.563-10.85-41.648-28.806C-11.87 395.104 32.78 329.196 44.646 221.34s2.387-92.812 6.42-179.272c1.831-16.756 7.149-24.69 14.392-30.785S82.102 1.182 96.842.015Zm-92.827 191.587H73.14V277.5H99.8v-34.863h2.344q3.632 0 6.503 1.992 2.11 1.524 4.805 6.621l14.18 26.25h30L144.8 252.598q-.938-1.876-3.72-5.332-2.784-3.457-4.249-4.512-2.168-1.583-6.914-3.164 5.917-1.348 9.316-3.399 5.332-3.221 8.38-8.408 3.046-5.185 3.046-12.334 0-8.203-3.984-13.916-3.985-5.712-10.489-7.822-6.503-2.11-18.808-2.11zm106.7-1.465h-20.802l-43.476 51.68v19.628h43.476V277.5h20.801v-16.055h10.781V242.93h-10.78zm-20.802 25.781v27.012H180.31zm-91.816-6.973q7.266 0 9.902 2.227 2.637 2.226 2.637 6.387 0 2.813-1.67 4.98t-4.307 2.695q-5.214 1.172-7.03 1.172H99.8v-17.46z"/></g></svg>