<?xml version="1.0" encoding="UTF-8"?><svg version="1.1" width="500px" height="500px" viewBox="0 0 500.0 500.0" xmlns="http://www.w3.org/2000/svg" xmlns:xlink="http://www.w3.org/1999/xlink"><defs><clipPath id="i0"><path d="M500,0 L500,500 L0,500 L0,0 L500,0 Z"></path></clipPath><clipPath id="i1"><path d="M240.484442,11.2819273 C267.637986,33.787598 267.781199,108.413354 251.553748,242.099275 C235.326297,375.785196 203.398197,435.642472 193.314265,444.228775 C183.230333,452.815079 171.383506,456.967501 166.462518,456.967501 C104.969977,456.967501 61.4528187,459.290623 44.6461067,456.967501 C27.8393947,454.64438 11.0829365,446.118246 2.99829365,428.162135 C-11.8699001,395.103754 32.7792616,329.195733 44.6461067,221.339083 C56.5129518,113.482433 47.033306,128.527327 51.0662376,42.0670887 C52.8972505,25.3109407 58.2148871,17.3766246 65.4576738,11.2819273 C72.7004605,5.18723002 82.102446,1.18200488 96.841902,0.0150128017 L210.205942,0.0150128017 C222.243929,-0.269362347 232.336763,3.48627583 240.484442,11.2819273 Z M117.378906,191.601562 L73.140625,191.601562 L73.140625,277.5 L99.8007812,277.5 L99.8007812,242.636719 L102.144531,242.636719 C104.566406,242.636719 106.734375,243.300781 108.648438,244.628906 C110.054688,245.644531 111.65625,247.851562 113.453125,251.25 L127.632812,277.5 L157.632812,277.5 L144.800781,252.597656 C144.175781,251.347656 142.935547,249.570312 141.080078,247.265625 C139.224609,244.960938 137.808594,243.457031 136.832031,242.753906 C135.386719,241.699219 133.082031,240.644531 129.917969,239.589844 C133.863281,238.691406 136.96875,237.558594 139.234375,236.191406 C142.789062,234.042969 145.582031,231.240234 147.613281,227.783203 C149.644531,224.326172 150.660156,220.214844 150.660156,215.449219 C150.660156,209.980469 149.332031,205.341797 146.675781,201.533203 C144.019531,197.724609 140.523438,195.117188 136.1875,193.710938 C131.851562,192.304688 125.582031,191.601562 117.378906,191.601562 Z M224.078125,190.136719 L203.277344,190.136719 L159.800781,241.816406 L159.800781,261.445312 L203.277344,261.445312 L203.277344,277.5 L224.078125,277.5 L224.078125,261.445312 L234.859375,261.445312 L234.859375,242.929688 L224.078125,242.929688 L224.078125,190.136719 Z M203.277344,215.917969 L203.277344,242.929688 L180.308594,242.929688 L203.277344,215.917969 Z M111.460938,208.945312 C116.304688,208.945312 119.605469,209.6875 121.363281,211.171875 C123.121094,212.65625 124,214.785156 124,217.558594 C124,219.433594 123.443359,221.09375 122.330078,222.539062 C121.216797,223.984375 119.78125,224.882812 118.023438,225.234375 C114.546875,226.015625 112.203125,226.40625 110.992188,226.40625 L99.8007812,226.40625 L99.8007812,208.945312 L111.460938,208.945312 Z"></path></clipPath></defs><g clip-path="url(#i0)"><g transform="translate(123.99999999999994 20.5)"><g clip-path="url(#i1)"><polygon points="-4.6768702e-14,-1.11581857e-16 262.561602,-1.11581857e-16 262.561602,458 -4.6768702e-14,458 -4.6768702e-14,-1.11581857e-16" stroke="none" fill="#FFFFFF"></polygon></g><path d="M210.205942,0.0150128017 C222.243929,-0.269362347 232.336763,3.48627583 240.484442,11.2819273 C267.637986,33.787598 267.781199,108.413354 251.553748,242.099275 C235.326297,375.785196 203.398197,435.642472 193.314265,444.228775 C183.230333,452.815079 171.383506,456.967501 166.462518,456.967501 C104.969977,456.967501 61.4528187,459.290623 44.6461067,456.967501 C27.8393947,454.64438 11.0829365,446.118246 2.99829365,428.162135 C-11.8699001,395.103754 32.7792616,329.195733 44.6461067,221.339083 C56.5129518,113.482433 47.033306,128.527327 51.0662376,42.0670887 C52.8972505,25.3109407 58.2148871,17.3766246 65.4576738,11.2819273 C72.7004605,5.18723002 82.102446,1.18200488 96.841902,0.0150128017 Z M117.378906,191.601562 L73.140625,191.601562 L73.140625,277.5 L99.8007812,277.5 L99.8007812,242.636719 L102.144531,242.636719 C104.566406,242.636719 106.734375,243.300781 108.648438,244.628906 C110.054688,245.644531 111.65625,247.851562 113.453125,251.25 L127.632812,277.5 L157.632812,277.5 L144.800781,252.597656 C144.175781,251.347656 142.935547,249.570312 141.080078,247.265625 C139.224609,244.960938 137.808594,243.457031 136.832031,242.753906 C135.386719,241.699219 133.082031,240.644531 129.917969,239.589844 C133.863281,238.691406 136.96875,237.558594 139.234375,236.191406 C142.789062,234.042969 145.582031,231.240234 147.613281,227.783203 C149.644531,224.326172 150.660156,220.214844 150.660156,215.449219 C150.660156,209.980469 149.332031,205.341797 146.675781,201.533203 C144.019531,197.724609 140.523438,195.117188 136.1875,193.710938 C131.851562,192.304688 125.582031,191.601562 117.378906,191.601562 Z M224.078125,190.136719 L203.277344,190.136719 L159.800781,241.816406 L159.800781,261.445312 L203.277344,261.445312 L203.277344,277.5 L224.078125,277.5 L224.078125,261.445312 L234.859375,261.445312 L234.859375,242.929688 L224.078125,242.929688 L224.078125,190.136719 Z M203.277344,215.917969 L203.277344,242.929688 L180.308594,242.929688 L203.277344,215.917969 Z M111.460938,208.945312 C116.304688,208.945312 119.605469,209.6875 121.363281,211.171875 C123.121094,212.65625 124,214.785156 124,217.558594 C124,219.433594 123.443359,221.09375 122.330078,222.539062 C121.216797,223.984375 119.78125,224.882812 118.023438,225.234375 C114.546875,226.015625 112.203125,226.40625 110.992188,226.40625 L99.8007812,226.40625 L99.8007812,208.945312 L111.460938,208.945312 Z" stroke="#FFFFFF" stroke-width="1" fill="none" stroke-miterlimit="10"></path></g></g></svg>