<svg width="32" height="32" version="1.1" xml:space="preserve" xmlns="http://www.w3.org/2000/svg"><path d="m2.033 5.923a2.03 2.03 0 0 0-2.033 2.032v9.906c0 1.126 0.907 2.032 2.033 2.032h27.934a2.03 2.03 0 0 0 2.033-2.032v-9.906a2.03 2.03 0 0 0-2.033-2.032z" fill="#fff"/><path d="m0.941 26.078v-0.811h2.872q0.236 0 0.236-0.19v-0.736q0-0.189-0.236-0.189h-1.723q-1.149 0-1.149-0.919v-0.696q0-0.919 1.149-0.919h2.973v0.811h-2.534q-0.236 0-0.236 0.19v0.533q0 0.19 0.236 0.19h1.723q1.148 0 1.148 0.918v0.899q0 0.919-1.148 0.919zm5.333 0v-4.46h4.324v0.811h-2.973v0.912h2.635v0.811h-2.635v1.115h2.973v0.81zm5.133 0v-4.46h1.351v3.649h2.77v0.81zm4.723 0v-4.46h4.325v0.811h-2.973v0.912h2.635v0.811h-2.635v1.115h2.973v0.81zm5.134-0.919v-2.622q0-0.919 1.148-0.919h3.176v0.811h-2.736q-0.237 0-0.237 0.19v2.459q0 0.189 0.237 0.189h2.736v0.81h-3.176q-1.148 0-1.148-0.918m4.796-2.729v-0.812h4.999v0.811h-1.824v3.649h-1.352v-3.649z" fill="#fff"/></svg>
