<svg xmlns="http://www.w3.org/2000/svg" xml:space="preserve" width="32" height="32"><defs><clipPath id="a"><path d="M500 0v500H0V0Z"/></clipPath></defs><g clip-path="url(#a)" transform="translate(0 -160)"><text xml:space="preserve" x="52.919" y="223.768" style="font-style:normal;font-variant:normal;font-weight:400;font-stretch:normal;font-size:10.5833px;line-height:6.61458px;font-family:Xolonium;-inkscape-font-specification:Xolonium;text-align:center;letter-spacing:0;word-spacing:0;text-anchor:middle;fill:#000;fill-opacity:1;stroke:none;stroke-width:.264583px;stroke-linecap:butt;stroke-linejoin:miter;stroke-opacity:1" transform="matrix(.2612 0 0 .2612 -1.277 115.7)">                </text><path fill="#fff" d="M2.033 165.923A2.03 2.03 0 0 0 0 167.955v9.906c0 1.126.907 2.032 2.033 2.032h27.934A2.03 2.03 0 0 0 32 177.861v-9.906a2.03 2.03 0 0 0-2.033-2.032z"/><g fill="#fff" aria-label="SELECT"><path d="M.941 186.078v-.811h2.872q.236 0 .236-.19v-.736q0-.189-.236-.189H2.09q-1.149 0-1.149-.919v-.696q0-.919 1.149-.919h2.973v.811H2.529q-.236 0-.236.19v.533q0 .19.236.19h1.723q1.148 0 1.148.918v.899q0 .919-1.148.919zM6.274 186.078v-4.46h4.324v.811H7.625v.912h2.635v.811H7.625v1.115h2.973v.81zM11.407 186.078v-4.46h1.351v3.649h2.77v.81zM16.13 186.078v-4.46h4.325v.811h-2.973v.912h2.635v.811h-2.635v1.115h2.973v.81zM21.264 185.159v-2.622q0-.919 1.148-.919h3.176v.811h-2.736q-.237 0-.237.19v2.459q0 .189.237.189h2.736v.81h-3.176q-1.148 0-1.148-.918M26.06 182.43v-.812h4.999v.811h-1.824v3.649h-1.352v-3.649z"/></g></g></svg>