<?xml version="1.0" encoding="UTF-8" standalone="no"?>
<svg
   xml:space="preserve"
   width="32"
   height="32"
   version="1.1"
   id="svg4"
   xmlns="http://www.w3.org/2000/svg"
   xmlns:svg="http://www.w3.org/2000/svg"><defs
     id="defs4" /><path
     fill="#ffffff"
     d="M 2.033,5.923 A 2.03,2.03 0 0 0 0,7.955 v 9.906 c 0,1.126 0.907,2.032 2.033,2.032 H 29.967 A 2.03,2.03 0 0 0 32,17.861 V 7.955 A 2.03,2.03 0 0 0 29.967,5.923 Z m 11.176,1.506 5.582,5.479 -5.582,5.48 z"
     id="path1" /><path
     d="M 2.03371,5.920924 A 2.029524,2.029524 0 0 0 5.292e-4,7.954366 v 9.90601 A 2.0276956,2.0276956 0 0 0 2.03371,19.891728 h 27.93325 a 2.0276956,2.0276956 0 0 0 2.033181,-2.031352 V 7.954366 A 2.029524,2.029524 0 0 0 29.96696,5.9211852 Z m 11.175703,1.5060792 5.581844,5.4802368 -5.581844,5.47867 z"
     style="fill:#ffffff;stroke-width:0.2612"
     id="path2" /><path
     d="M 13.209152,7.4270032 V 18.38591 l 5.582105,-5.47867 z"
     style="fill:#000000;fill-opacity:1;stroke-width:0.2612"
     id="path3" /><g
     fill="#fff"
     aria-label="START"
     style="font-style:normal;font-variant:normal;font-weight:700;font-stretch:normal;font-size:25.8653px;line-height:16.1658px;font-family:Xolonium;-inkscape-font-specification:'Xolonium Bold';text-align:center;letter-spacing:0;word-spacing:0;text-anchor:middle;fill:#ffffff;fill-opacity:1;stroke:none;stroke-width:0.646633px;stroke-linecap:butt;stroke-linejoin:miter;stroke-opacity:1"
     id="g4"><path
       d="m 3.402,26.078 v -0.811 h 2.872 q 0.236,0 0.236,-0.19 v -0.736 q 0,-0.189 -0.236,-0.189 H 4.55 q -1.149,0 -1.149,-0.919 v -0.696 q 0,-0.919 1.149,-0.919 h 2.972 v 0.811 H 4.99 q -0.237,0 -0.237,0.19 v 0.533 q 0,0.19 0.237,0.19 h 1.723 q 1.148,0 1.148,0.918 v 0.899 q 0,0.919 -1.148,0.919 z M 8.2,22.43 v -0.812 h 4.999 v 0.811 h -1.825 v 3.649 h -1.35 v -3.649 z m 4.358,3.648 1.925,-4.46 h 1.69 l 1.925,4.46 h -1.324 l -0.406,-0.946 h -2.08 l -0.406,0.946 z m 2.08,-1.757 h 1.379 l -0.69,-1.588 z m 3.967,1.757 v -4.46 h 3.31 q 1.15,0 1.15,0.92 v 0.932 q 0,0.81 -0.913,0.918 l 1.115,1.69 h -1.46 l -1.114,-1.69 h -0.737 v 1.69 z m 1.351,-2.5 h 1.52 q 0.237,0 0.237,-0.19 v -0.77 q 0,-0.189 -0.237,-0.189 h -1.52 z m 3.642,-1.148 v -0.812 h 5 v 0.811 h -1.824 v 3.649 h -1.352 v -3.649 z"
       id="path4"
       style="fill:#ffffff;fill-opacity:1" /></g></svg>
