<svg width="32" height="32" version="1.1" xml:space="preserve" xmlns="http://www.w3.org/2000/svg"><path d="m2.033 5.923a2.03 2.03 0 0 0-2.033 2.032v9.906c0 1.126 0.907 2.032 2.033 2.032h27.934a2.03 2.03 0 0 0 2.033-2.032v-9.906a2.03 2.03 0 0 0-2.033-2.032zm11.176 1.506 5.582 5.479-5.582 5.48z" fill="#fff"/><path d="m3.402 26.078v-0.811h2.872q0.236 0 0.236-0.19v-0.736q0-0.189-0.236-0.189h-1.724q-1.149 0-1.149-0.919v-0.696q0-0.919 1.149-0.919h2.972v0.811h-2.532q-0.237 0-0.237 0.19v0.533q0 0.19 0.237 0.19h1.723q1.148 0 1.148 0.918v0.899q0 0.919-1.148 0.919zm4.798-3.648v-0.812h4.999v0.811h-1.825v3.649h-1.35v-3.649zm4.358 3.648 1.925-4.46h1.69l1.925 4.46h-1.324l-0.406-0.946h-2.08l-0.406 0.946zm2.08-1.757h1.379l-0.69-1.588zm3.967 1.757v-4.46h3.31q1.15 0 1.15 0.92v0.932q0 0.81-0.913 0.918l1.115 1.69h-1.46l-1.114-1.69h-0.737v1.69zm1.351-2.5h1.52q0.237 0 0.237-0.19v-0.77q0-0.189-0.237-0.189h-1.52zm3.642-1.148v-0.812h5v0.811h-1.824v3.649h-1.352v-3.649z" fill="#fff"/></svg>
