<svg width="158.71mm" height="66.47mm" version="1.1" viewBox="0 0 158.71 66.47" xml:space="preserve" xmlns="http://www.w3.org/2000/svg"><defs><clipPath id="clipPath607"><path transform="translate(-963.4 -649.44)" d="M 0,894.706 H 1133.858 V 0 H 0 Z"/></clipPath><clipPath id="clipPath609"><path transform="translate(-578.4 -560.72)" d="M 0,894.706 H 1133.858 V 0 H 0 Z"/></clipPath><clipPath id="clipPath611"><path transform="translate(-894.24 -561.97)" d="M 0,894.706 H 1133.858 V 0 H 0 Z"/></clipPath><clipPath id="clipPath613"><path transform="translate(-559.04 -594.75)" d="M 0,894.706 H 1133.858 V 0 H 0 Z"/></clipPath><clipPath id="clipPath615"><path transform="translate(-559.04 -610.33)" d="M 0,894.706 H 1133.858 V 0 H 0 Z"/></clipPath><clipPath id="clipPath617"><path transform="translate(-553.07 -608.12)" d="M 0,894.706 H 1133.858 V 0 H 0 Z"/></clipPath><clipPath id="clipPath619"><path transform="translate(-532.21 -602.55)" d="M 0,894.706 H 1133.858 V 0 H 0 Z"/></clipPath><clipPath id="clipPath621"><path transform="translate(-917.44 -700.5)" d="M 0,894.706 H 1133.858 V 0 H 0 Z"/></clipPath><clipPath id="clipPath623"><path transform="translate(-944.44 -700.5)" d="M 0,894.706 H 1133.858 V 0 H 0 Z"/></clipPath><clipPath id="clipPath625"><path transform="translate(-930.94 -714)" d="M 0,894.706 H 1133.858 V 0 H 0 Z"/></clipPath><clipPath id="clipPath627"><path transform="translate(-938.09 -679.86)" d="M 0,894.706 H 1133.858 V 0 H 0 Z"/></clipPath><clipPath id="clipPath629"><path transform="translate(-930.94 -682.05)" d="M 0,894.706 H 1133.858 V 0 H 0 Z"/></clipPath><clipPath id="clipPath631"><path transform="translate(-943.43 -695.55)" d="M 0,894.706 H 1133.858 V 0 H 0 Z"/></clipPath><clipPath id="clipPath633"><path transform="translate(-919.15 -690.04)" d="M 0,894.706 H 1133.858 V 0 H 0 Z"/></clipPath><clipPath id="clipPath635"><path transform="translate(-930.42 -703.34)" d="M 0,894.706 H 1133.858 V 0 H 0 Z"/></clipPath><clipPath id="clipPath637"><path transform="translate(-563.61 -608.27)" d="M 0,894.706 H 1133.858 V 0 H 0 Z"/></clipPath><clipPath id="clipPath639"><path transform="translate(-537.79 -599.92)" d="M 0,894.706 H 1133.858 V 0 H 0 Z"/></clipPath><clipPath id="clipPath641"><path transform="translate(-538.27 -604.12)" d="M 0,894.706 H 1133.858 V 0 H 0 Z"/></clipPath><clipPath id="clipPath643"><path transform="translate(-567.29 -596.19)" d="M 0,894.706 H 1133.858 V 0 H 0 Z"/></clipPath><clipPath id="clipPath645"><path transform="translate(-567.29 -594.46)" d="M 0,894.706 H 1133.858 V 0 H 0 Z"/></clipPath><clipPath id="clipPath647"><path transform="translate(-567.29 -592.73)" d="M 0,894.706 H 1133.858 V 0 H 0 Z"/></clipPath><clipPath id="clipPath649"><path transform="translate(-562.36 -609.96)" d="M 0,894.706 H 1133.858 V 0 H 0 Z"/></clipPath><clipPath id="clipPath651"><path transform="translate(-555.12 -605.01)" d="M 0,894.706 H 1133.858 V 0 H 0 Z"/></clipPath><clipPath id="clipPath653"><path transform="translate(-569.57 -650.25)" d="M 0,894.706 H 1133.858 V 0 H 0 Z"/></clipPath><clipPath id="clipPath655"><path transform="translate(-537.34 -636.48)" d="M 0,894.706 H 1133.858 V 0 H 0 Z"/></clipPath><clipPath id="clipPath657"><path transform="translate(-546.57 -659.47)" d="M 0,894.706 H 1133.858 V 0 H 0 Z"/></clipPath><clipPath id="clipPath659"><path transform="translate(-560.34 -627.25)" d="M 0,894.706 H 1133.858 V 0 H 0 Z"/></clipPath><clipPath id="clipPath661"><path transform="translate(-564.43 -641.16)" d="M 0,894.706 H 1133.858 V 0 H 0 Z"/></clipPath><clipPath id="clipPath663"><path transform="translate(-542.48 -641.16)" d="M 0,894.706 H 1133.858 V 0 H 0 Z"/></clipPath><clipPath id="clipPath665"><path transform="translate(-551.4 -654.2)" d="M 0,894.706 H 1133.858 V 0 H 0 Z"/></clipPath><clipPath id="clipPath667"><path transform="translate(-553.46 -628.68)" d="M 0,894.706 H 1133.858 V 0 H 0 Z"/></clipPath><clipPath id="clipPath669"><path transform="translate(0 -2.5e-5)" d="M 0,894.706 H 1133.858 V 0 H 0 Z"/></clipPath><clipPath id="clipPath671"><path transform="translate(0 -2.5e-5)" d="M 0,894.706 H 1133.858 V 0 H 0 Z"/></clipPath><clipPath id="clipPath673"><path transform="translate(0 -2.5e-5)" d="M 0,894.706 H 1133.858 V 0 H 0 Z"/></clipPath><clipPath id="clipPath675"><path transform="translate(-918.41 -610.33)" d="M 0,894.706 H 1133.858 V 0 H 0 Z"/></clipPath><clipPath id="clipPath677"><path transform="translate(-945.24 -602.55)" d="M 0,894.706 H 1133.858 V 0 H 0 Z"/></clipPath><clipPath id="clipPath679"><path transform="translate(-918.41 -594.75)" d="M 0,894.706 H 1133.858 V 0 H 0 Z"/></clipPath><clipPath id="clipPath681"><path transform="translate(-924.38 -608.12)" d="M 0,894.706 H 1133.858 V 0 H 0 Z"/></clipPath><clipPath id="clipPath683"><path transform="translate(-913.29 -608.79)" d="M 0,894.706 H 1133.858 V 0 H 0 Z"/></clipPath><clipPath id="clipPath685"><path transform="translate(-911.32 -608.79)" d="M 0,894.706 H 1133.858 V 0 H 0 Z"/></clipPath><clipPath id="clipPath687"><path transform="translate(-916.17 -608.79)" d="M 0,894.706 H 1133.858 V 0 H 0 Z"/></clipPath><clipPath id="clipPath689"><path transform="translate(-910.76 -593.2)" d="M 0,894.706 H 1133.858 V 0 H 0 Z"/></clipPath><clipPath id="clipPath691"><path transform="translate(-915.46 -593.2)" d="M 0,894.706 H 1133.858 V 0 H 0 Z"/></clipPath><clipPath id="clipPath693"><path transform="translate(-938.97 -601)" d="M 0,894.706 H 1133.858 V 0 H 0 Z"/></clipPath><clipPath id="clipPath695"><path transform="translate(-940.8 -603.65)" d="M 0,894.706 H 1133.858 V 0 H 0 Z"/></clipPath><clipPath id="clipPath697"><path transform="translate(-924.24 -601.03)" d="M 0,894.706 H 1133.858 V 0 H 0 Z"/></clipPath><clipPath id="clipPath699"><path transform="translate(-927.29 -601.03)" d="M 0,894.706 H 1133.858 V 0 H 0 Z"/></clipPath><clipPath id="clipPath701"><path transform="translate(-920.8 -601.12)" d="M 0,894.706 H 1133.858 V 0 H 0 Z"/></clipPath><clipPath id="clipPath703"><path transform="translate(-558.32 -693.31)" d="M 0,894.706 H 1133.858 V 0 H 0 Z"/></clipPath><clipPath id="clipPath705"><path transform="translate(-555.66 -693.31)" d="M 0,894.706 H 1133.858 V 0 H 0 Z"/></clipPath><clipPath id="clipPath709"><path transform="translate(-939.57 -643.2)" d="M 0,894.706 H 1133.858 V 0 H 0 Z"/></clipPath><clipPath id="clipPath711"><path transform="translate(-936.9 -643.2)" d="M 0,894.706 H 1133.858 V 0 H 0 Z"/></clipPath><clipPath id="clipPath713"><path transform="translate(-950 -737.01)" d="M 0,894.706 H 1133.858 V 0 H 0 Z"/></clipPath><clipPath id="clipPath715"><path transform="translate(-569.84 -746.61)" d="M 0,894.706 H 1133.858 V 0 H 0 Z"/></clipPath></defs><g transform="translate(-86.377 -42.32)"><path transform="matrix(.35278 0 0 -.35278 244.91 77.14)" d="m0 0s-2.911 67.298-3.41 73.62-7.32 9.4-7.32 9.4l-53.074 13.871h-321.26l-53.074-13.871s-6.821-3.078-7.32-9.4-3.41-73.62-3.41-73.62-0.084-22.044 0.831-29.781c0.915-7.736 5.199-31.111 7.32-37.35 2.122-6.239 5.615-8.735 13.851-10.981 8.235-2.246 41.802-11.105 41.802-11.105h321.26s33.566 8.859 41.801 11.105c8.236 2.246 11.73 4.742 13.851 10.981 2.122 6.239 6.405 29.614 7.32 37.35 0.915 7.737 0.832 29.781 0.832 29.781" clip-path="url(#clipPath607)" fill="none" stroke="#899099"/><path transform="matrix(.35278 0 0 -.35278 109.09 108.44)" d="m0 0h321.13c1.64 0.433 33.763 8.914 41.734 11.088 8.35 2.277 11.506 4.768 13.509 10.66 2.163 6.361 6.422 29.84 7.298 37.248 0.893 7.559 0.831 29.165 0.829 29.712-0.051 1.181-2.919 67.374-3.409 73.59-0.471 5.959-6.963 8.955-7.03 8.985l-52.931 13.827h-321.14l-53.011-13.855c0.014-2e-3 -6.479-3.01-6.949-8.957-0.492-6.24-3.38-72.929-3.409-73.601 0-0.201-0.072-22.083 0.829-29.701 0.877-7.41 5.135-30.891 7.297-37.248 2.003-5.892 5.16-8.383 13.509-10.66 7.971-2.174 40.093-10.655 41.735-11.088m321.26-0.998-321.46 0.017c-0.336 0.088-33.662 8.885-41.805 11.106-8.636 2.355-12.084 5.101-14.191 11.301-2.179 6.407-6.464 30.011-7.344 37.453-0.908 7.677-0.837 29.62-0.836 29.841 0.03 0.693 2.918 67.398 3.412 73.657 0.517 6.541 7.324 9.685 7.613 9.815l53.278 13.916h321.33l53.134-13.887c0.37-0.159 7.176-3.303 7.692-9.844 0.494-6.259 3.384-72.964 3.413-73.637v-0.02c1e-3 -0.221 0.072-22.164-0.837-29.841-0.879-7.44-5.162-31.043-7.342-37.453-2.109-6.2-5.556-8.946-14.192-11.301-8.144-2.221-41.47-11.018-41.805-11.106z" clip-path="url(#clipPath609)" fill="#8a9199"/><g fill="none" stroke="#899099"><path transform="matrix(.35278 0 0 -.35278 220.51 108)" d="m0 0h-310.75c-1.599 0-2.906 1.308-2.906 2.906v176.74c0 1.598 1.307 2.906 2.906 2.906h310.75c1.599 0 2.906-1.308 2.906-2.906v-176.74c0-1.598-1.307-2.906-2.906-2.906" clip-path="url(#clipPath611)"/><path transform="matrix(.35278 0 0 -.35278 102.25 96.434)" d="m0 0c0-3.079 2.496-5.575 5.575-5.575s5.575 2.496 5.575 5.575-2.496 5.576-5.575 5.576-5.575-2.497-5.575-5.576" clip-path="url(#clipPath613)"/><path transform="matrix(.35278 0 0 -.35278 102.25 90.935)" d="m0 0c0-3.079 2.496-5.576 5.575-5.576s5.575 2.497 5.575 5.576-2.496 5.575-5.575 5.575-5.575-2.496-5.575-5.575" clip-path="url(#clipPath615)"/><path transform="matrix(.35278 0 0 -.35278 100.15 91.716)" d="m0 0c-3.079 0-5.575-2.497-5.575-5.576s2.496-5.575 5.575-5.575 5.575 2.496 5.575 5.575-2.496 5.576-5.575 5.576" clip-path="url(#clipPath617)"/><path transform="matrix(.35278 0 0 -.35278 92.792 93.683)" d="m0 0c0-3.079 2.496-5.575 5.575-5.575s5.576 2.496 5.576 5.575-2.497 5.575-5.576 5.575-5.575-2.496-5.575-5.575" clip-path="url(#clipPath619)"/><path transform="matrix(.35278 0 0 -.35278 228.69 59.125)" d="m0 0c3.947 0 7.148-3.201 7.148-7.149s-3.201-7.149-7.148-7.149c-3.948 0-7.149 3.201-7.149 7.149s3.201 7.149 7.149 7.149" clip-path="url(#clipPath621)"/><path transform="matrix(.35278 0 0 -.35278 238.22 59.125)" d="m0 0c3.948 0 7.148-3.201 7.148-7.149s-3.2-7.149-7.148-7.149-7.148 3.201-7.148 7.149 3.2 7.149 7.148 7.149" clip-path="url(#clipPath623)"/><path transform="matrix(.35278 0 0 -.35278 233.45 54.363)" d="m0 0c-3.948 0-7.149-3.2-7.149-7.148 0-3.949 3.201-7.149 7.149-7.149s7.148 3.2 7.148 7.149c0 3.948-3.2 7.148-7.148 7.148" clip-path="url(#clipPath625)"/><path transform="matrix(.35278 0 0 -.35278 235.98 66.409)" d="m0 0c0-3.948-3.2-7.149-7.148-7.149-3.949 0-7.15 3.201-7.15 7.149s3.201 7.148 7.15 7.148c3.948 0 7.148-3.2 7.148-7.148" clip-path="url(#clipPath627)"/></g><g fill="#899099"><path transform="matrix(.35278 0 0 -.35278 233.45 65.636)" d="m0 0c-0.041 0-0.076-0.026-0.09-0.065l-0.216-0.656-0.601-1.529c-0.011-0.029-7e-3 -0.061 0.01-0.087 0.017-0.025 0.046-0.041 0.078-0.041h1.637c0.032 0 0.061 0.016 0.078 0.041 0.018 0.026 0.022 0.058 0.01 0.087l-0.6 1.529-0.216 0.656c-0.014 0.039-0.049 0.065-0.09 0.065m2.109-5.108c-0.062 0-0.119 0.039-0.14 0.097l-0.541 1.425c-0.015 0.036-0.049 0.06-0.088 0.06h-2.68c-0.039 0-0.074-0.024-0.089-0.06l-0.54-1.426c-0.022-0.057-0.079-0.096-0.14-0.096h-1.189c-0.051 0-0.097 0.025-0.125 0.067-0.027 0.041-0.033 0.094-0.014 0.141l2.614 6.326c0.023 0.056 0.078 0.093 0.139 0.093h1.367c0.062 0 0.116-0.037 0.139-0.092l2.615-6.327c0.019-0.047 0.013-0.1-0.014-0.142-0.028-0.041-0.075-0.066-0.125-0.066z" clip-path="url(#clipPath629)"/><path transform="matrix(.35278 0 0 -.35278 237.86 60.873)" d="m0 0c-0.052 0-0.094-0.042-0.094-0.094v-1.395c0-0.052 0.042-0.094 0.094-0.094h1.281c0.317 0 0.566 0.08 0.739 0.236 0.171 0.157 0.259 0.345 0.259 0.56 0 0.218-0.084 0.399-0.255 0.556-0.17 0.153-0.405 0.231-0.702 0.231zm0-2.656c-0.052 0-0.094-0.042-0.094-0.094v-1.515c0-0.052 0.042-0.094 0.094-0.094h1.434c0.345 0 0.611 0.079 0.794 0.236 0.185 0.159 0.275 0.357 0.275 0.606 0 0.25-0.092 0.451-0.279 0.616-0.189 0.163-0.467 0.245-0.83 0.245zm-1.317-2.85c-0.083 0-0.151 0.067-0.151 0.15v6.326c0 0.083 0.068 0.15 0.151 0.15h2.7c0.311 0 0.606-0.045 0.876-0.135 0.271-0.089 0.509-0.213 0.707-0.37 0.197-0.154 0.356-0.338 0.474-0.55 0.115-0.209 0.173-0.437 0.173-0.675 0-0.35-0.094-0.647-0.28-0.885-0.162-0.204-0.359-0.368-0.587-0.487-0.033-0.018-0.053-0.052-0.051-0.089s0.027-0.07 0.061-0.083c0.315-0.122 0.578-0.302 0.781-0.534 0.229-0.266 0.341-0.585 0.341-0.977 0-0.283-0.065-0.54-0.19-0.763-0.125-0.225-0.298-0.42-0.513-0.579-0.214-0.159-0.469-0.283-0.758-0.37-0.288-0.086-0.602-0.129-0.933-0.129z" clip-path="url(#clipPath631)"/><path transform="matrix(.35278 0 0 -.35278 229.3 62.816)" d="m0 0c-0.051 0-0.098 0.025-0.125 0.067l-1.506 2.264c-0.017 0.027-0.047 0.043-0.079 0.043-0.031 0-0.061-0.016-0.078-0.043l-1.506-2.264c-0.027-0.042-0.074-0.067-0.125-0.067h-1.343c-0.055 0-0.107 0.031-0.133 0.08-0.026 0.05-0.022 0.109 9e-3 0.155l2.192 3.173c0.023 0.031 0.023 0.074 0 0.107l-2.006 2.875c-0.033 0.047-0.037 0.105-0.01 0.156 0.025 0.05 0.076 0.08 0.133 0.08h1.33c0.052 0 0.099-0.025 0.125-0.067l1.334-2.04c0.017-0.027 0.047-0.043 0.078-0.043 0.032 0 0.062 0.016 0.079 0.043l1.332 2.039c0.028 0.043 0.075 0.068 0.127 0.068h1.33c0.056 0 0.108-0.031 0.133-0.081 0.026-0.049 0.022-0.109-0.01-0.156l-2.006-2.874c-0.023-0.033-0.023-0.076 0-0.107l2.191-3.171c0.032-0.047 0.036-0.107 0.01-0.156-0.026-0.05-0.078-0.081-0.133-0.081z" clip-path="url(#clipPath633)"/><path transform="matrix(.35278 0 0 -.35278 233.27 58.124)" d="m0 0c-0.083 0-0.15 0.067-0.15 0.15v2.932l-2.29 3.309c-0.033 0.046-0.037 0.105-0.01 0.155 0.025 0.049 0.077 0.08 0.133 0.08h1.271c0.051 0 0.097-0.025 0.125-0.067l1.373-2.068c0.018-0.027 0.047-0.042 0.079-0.042s0.062 0.016 0.079 0.043l1.323 2.065c0.028 0.044 0.075 0.069 0.127 0.069h1.292c0.056 0 0.107-0.03 0.133-0.079s0.023-0.109-8e-3 -0.155l-2.253-3.31v-2.932c0-0.083-0.068-0.15-0.151-0.15z" clip-path="url(#clipPath635)"/><path transform="matrix(.35278 0 0 -.35278 103.87 91.662)" d="m0 0h3.7c0.054 0 0.097 0.043 0.097 0.096v2.242c0 0.054-0.043 0.097-0.097 0.097h-3.7c-0.054 0-0.097-0.043-0.097-0.097v-2.242c0-0.053 0.043-0.096 0.097-0.096m3.813-0.577h-3.925c-0.31 0-0.561 0.251-0.561 0.561v2.466c0 0.31 0.251 0.561 0.561 0.561h3.925c0.309 0 0.56-0.251 0.56-0.561v-2.466c0-0.31-0.251-0.561-0.56-0.561" clip-path="url(#clipPath637)"/><path transform="matrix(.35278 0 0 -.35278 94.759 94.61)" d="m0 0c-1.448 0-2.627 1.179-2.627 2.628s1.179 2.628 2.627 2.628c1.449 0 2.628-1.179 2.628-2.628s-1.179-2.628-2.628-2.628m0 5.929c-1.819 0-3.301-1.481-3.301-3.301s1.482-3.301 3.301-3.301c1.82 0 3.301 1.481 3.301 3.301s-1.481 3.301-3.301 3.301" clip-path="url(#clipPath639)"/><path transform="matrix(.35278 0 0 -.35278 94.928 93.129)" d="m0 0c0-0.265-0.215-0.48-0.48-0.48-0.266 0-0.481 0.215-0.481 0.48 0 0.266 0.215 0.481 0.481 0.481 0.265 0 0.48-0.215 0.48-0.481" clip-path="url(#clipPath641)"/><path transform="matrix(.35278 0 0 -.35278 105.17 95.926)" d="m0 0h-5.364c-0.065 0-0.116 0.052-0.116 0.117v0.343c0 0.064 0.051 0.117 0.116 0.117h5.365c0.064 0 0.116-0.053 0.116-0.117v-0.343c0-0.065-0.053-0.117-0.117-0.117" clip-path="url(#clipPath643)"/><path transform="matrix(.35278 0 0 -.35278 105.17 96.536)" d="m0 0h-5.365c-0.065 0-0.116 0.052-0.116 0.117v0.343c0 0.065 0.051 0.117 0.116 0.117h5.365c0.064 0 0.116-0.052 0.116-0.117v-0.343c0-0.065-0.052-0.117-0.116-0.117" clip-path="url(#clipPath645)"/><path transform="matrix(.35278 0 0 -.35278 105.17 97.146)" d="m0 0h-5.365c-0.065 0-0.116 0.052-0.116 0.117v0.343c0 0.064 0.051 0.117 0.116 0.117h5.365c0.064 0 0.116-0.053 0.116-0.117v-0.343c0-0.065-0.052-0.117-0.116-0.117" clip-path="url(#clipPath647)"/><path transform="matrix(.35278 0 0 -.35278 103.43 91.066)" d="m0 0h-0.439c-0.053 0-0.096 0.043-0.096 0.096v2.242c0 0.053 0.043 0.097 0.096 0.097h3.701c0.052 0 0.095-0.044 0.095-0.097v-0.44h0.578v0.552c0 0.31-0.251 0.561-0.562 0.561h-3.925c-0.309 0-0.56-0.251-0.56-0.561v-2.466c0-0.31 0.251-0.561 0.56-0.561h0.552z" clip-path="url(#clipPath649)"/><path transform="matrix(.35278 0 0 -.35278 100.87 92.812)" d="m0 0h-0.481c-0.053 0-0.096-0.043-0.096-0.096v-1.845c0-0.053-0.043-0.096-0.096-0.096h-2.763c-0.053 0-0.096 0.043-0.096 0.096v1.845c0 0.053-0.043 0.096-0.096 0.096h-0.481c-0.053 0-0.096-0.043-0.096-0.096v-4.74c0-0.053 0.043-0.096 0.096-0.096h0.481c0.053 0 0.096 0.043 0.096 0.096v2.03c0 0.053 0.043 0.096 0.096 0.096h2.763c0.053 0 0.096-0.043 0.096-0.096v-2.03c0-0.053 0.043-0.096 0.096-0.096h0.481c0.053 0 0.096 0.043 0.096 0.096v4.74c0 0.053-0.043 0.096-0.096 0.096" clip-path="url(#clipPath651)"/></g><g fill="none" stroke="#899099"><path transform="matrix(.35278 0 0 -.35278 105.97 76.855)" d="m0 0h-7.322c-0.276 0-0.541-0.106-0.741-0.296l-5.633-5.375c-0.698-0.664-0.707-1.774-0.023-2.452l5.394-5.333c0.201-0.199 0.471-0.31 0.754-0.31h7.571s1.583-0.2 2.394 2.539c0.277 0.941 0.464 2.781 0.464 4.344s-0.187 3.404-0.464 4.344c-0.811 2.739-2.394 2.539-2.394 2.539" clip-path="url(#clipPath653)"/><path transform="matrix(.35278 0 0 -.35278 94.603 81.711)" d="m0 0h7.322c0.277 0 0.541 0.106 0.741 0.296l5.633 5.375c0.698 0.665 0.707 1.774 0.023 2.452l-5.394 5.333c-0.2 0.199-0.471 0.31-0.754 0.31h-7.571s-1.583 0.2-2.393-2.539c-0.278-0.94-0.465-2.781-0.465-4.344s0.187-3.403 0.465-4.344c0.81-2.739 2.393-2.539 2.393-2.539" clip-path="url(#clipPath655)"/><path transform="matrix(.35278 0 0 -.35278 97.858 73.6)" d="m0 0v-7.322c0-0.276 0.106-0.541 0.297-0.741l5.374-5.633c0.665-0.697 1.774-0.707 2.452-0.022l5.333 5.393c0.199 0.2 0.311 0.472 0.311 0.754v7.571s0.199 1.583-2.539 2.393c-0.941 0.278-2.782 0.465-4.344 0.465-1.564 0-3.404-0.187-4.345-0.465-2.738-0.81-2.539-2.393-2.539-2.393" clip-path="url(#clipPath657)"/><path transform="matrix(.35278 0 0 -.35278 102.71 84.967)" d="m0 0v7.322c0 0.276-0.106 0.541-0.297 0.741l-5.374 5.633c-0.665 0.697-1.774 0.707-2.452 0.022l-5.333-5.393c-0.199-0.2-0.311-0.471-0.311-0.754v-7.571s-0.199-1.583 2.539-2.393c0.942-0.278 2.782-0.465 4.345-0.465s3.404 0.187 4.344 0.465c2.738 0.81 2.539 2.393 2.539 2.393" clip-path="url(#clipPath659)"/></g><g fill="#899099"><path transform="matrix(.35278 0 0 -.35278 104.16 80.059)" d="m0 0c-0.023 0-0.048 6e-3 -0.069 0.019-0.043 0.024-0.07 0.07-0.07 0.12v4.12c0 0.05 0.027 0.095 0.07 0.12 0.021 0.013 0.046 0.019 0.069 0.019 0.024 0 0.048-6e-3 0.069-0.019l3.57-2.06c0.043-0.025 0.069-0.07 0.069-0.12s-0.026-0.095-0.069-0.12l-3.57-2.06c-0.021-0.013-0.045-0.019-0.069-0.019" clip-path="url(#clipPath661)"/><path transform="matrix(.35278 0 0 -.35278 96.415 80.059)" d="m0 0c-0.023 0-0.048 6e-3 -0.069 0.019l-3.569 2.06c-0.043 0.025-0.069 0.07-0.069 0.12s0.026 0.095 0.069 0.12l3.569 2.06c0.021 0.013 0.046 0.019 0.069 0.019 0.024 0 0.048-6e-3 0.069-0.019 0.043-0.025 0.07-0.07 0.07-0.12v-4.12c0-0.05-0.027-0.096-0.07-0.12-0.021-0.013-0.045-0.019-0.069-0.019" clip-path="url(#clipPath663)"/><path transform="matrix(.35278 0 0 -.35278 99.56 75.461)" d="m0 0c-0.05 0-0.096 0.026-0.12 0.069-0.026 0.043-0.026 0.096 0 0.139l2.06 3.568c0.025 0.043 0.071 0.069 0.12 0.069s0.095-0.026 0.12-0.069l2.061-3.568c0.025-0.043 0.025-0.096 0-0.139-0.024-0.043-0.071-0.069-0.12-0.069z" clip-path="url(#clipPath665)"/><path transform="matrix(.35278 0 0 -.35278 100.29 84.462)" d="m0 0c-0.049 0-0.095 0.026-0.119 0.069l-2.061 3.569c-0.025 0.043-0.025 0.096 0 0.138 0.025 0.043 0.071 0.07 0.12 0.07h4.122c0.048 0 0.095-0.027 0.12-0.07 0.024-0.043 0.024-0.095 0-0.138l-2.062-3.569c-0.024-0.043-0.07-0.069-0.12-0.069" clip-path="url(#clipPath667)"/></g><g fill="#8a9199"><path transform="matrix(.35278 0 0 -.35278 -94.961 306.25)" d="m619.82 746.46h-9.067v0.894h9.067z" clip-path="url(#clipPath669)"/><path transform="matrix(.35278 0 0 -.35278 -94.961 306.25)" d="m635.48 746.46h-9.088v1.685h9.088z" clip-path="url(#clipPath671)"/><path transform="matrix(.35278 0 0 -.35278 -94.961 306.25)" d="m651.33 746.46h-9.088v1.685h9.088z" clip-path="url(#clipPath673)"/></g><g fill="none" stroke="#899099"><path transform="matrix(.35278 0 0 -.35278 229.04 90.935)" d="m0 0c0-3.079-2.496-5.576-5.575-5.576s-5.575 2.497-5.575 5.576 2.496 5.575 5.575 5.575 5.575-2.496 5.575-5.575" clip-path="url(#clipPath675)"/><path transform="matrix(.35278 0 0 -.35278 238.5 93.683)" d="m0 0c0-3.079-2.496-5.575-5.575-5.575s-5.575 2.496-5.575 5.575 2.496 5.575 5.575 5.575 5.575-2.496 5.575-5.575" clip-path="url(#clipPath677)"/><path transform="matrix(.35278 0 0 -.35278 229.04 96.434)" d="m0 0c0-3.079-2.496-5.575-5.575-5.575s-5.575 2.496-5.575 5.575 2.496 5.576 5.575 5.576 5.575-2.497 5.575-5.576" clip-path="url(#clipPath679)"/><path transform="matrix(.35278 0 0 -.35278 231.14 91.716)" d="m0 0c-3.08 0-5.576-2.496-5.576-5.575s2.496-5.575 5.576-5.575c3.079 0 5.575 2.496 5.575 5.575s-2.496 5.575-5.575 5.575" clip-path="url(#clipPath681)"/></g><g fill="#899099"><path transform="matrix(.35278 0 0 -.35278 227.23 91.48)" d="m0 0c-0.053 0-0.096 0.043-0.096 0.096v2.898c0 0.053 0.043 0.096 0.096 0.096h0.385c0.053 0 0.096-0.043 0.096-0.096v-2.898c0-0.053-0.043-0.096-0.096-0.096z" clip-path="url(#clipPath683)"/><path transform="matrix(.35278 0 0 -.35278 226.53 91.48)" d="m0 0c-0.044 0-0.082 0.03-0.094 0.072l-0.414 1.635c-6e-3 0.026-0.029 0.043-0.055 0.043-0.027 0-0.05-0.017-0.057-0.043l-0.405-1.635c-0.011-0.042-0.049-0.072-0.093-0.072h-0.446c-0.043 0-0.082 0.03-0.093 0.072l-0.735 2.898c-6e-3 0.03-1e-3 0.059 0.018 0.083s0.046 0.037 0.076 0.037h0.397c0.044 0 0.082-0.03 0.093-0.072l0.415-1.639c6e-3 -0.025 0.03-0.043 0.056-0.043s0.05 0.018 0.057 0.043l0.406 1.639c0.011 0.042 0.049 0.072 0.093 0.072h0.443c0.044 0 0.082-0.03 0.094-0.072l0.416-1.641c6e-3 -0.026 0.029-0.044 0.056-0.044 0.026 0 0.049 0.018 0.056 0.044l0.407 1.641c0.011 0.042 0.049 0.072 0.093 0.072h0.398c0.029 0 0.057-0.013 0.076-0.037 0.018-0.024 0.024-0.053 0.016-0.082l-0.734-2.899c-0.011-0.042-0.05-0.072-0.094-0.072z" clip-path="url(#clipPath685)"/><path transform="matrix(.35278 0 0 -.35278 228.24 91.48)" d="m0 0c-0.034 0-0.066 0.018-0.083 0.048l-0.957 1.654c-0.01 0.018-0.028 0.028-0.05 0.028-4e-3 0-0.01 0-0.014-1e-3 -0.026-7e-3 -0.042-0.03-0.042-0.056v-1.577c0-0.053-0.044-0.096-0.097-0.096h-0.385c-0.053 0-0.096 0.043-0.096 0.096v2.898c0 0.053 0.043 0.096 0.096 0.096h0.397c0.035 0 0.066-0.018 0.084-0.048l0.951-1.646c0.01-0.018 0.029-0.028 0.05-0.028 4e-3 0 9e-3 0 0.015 2e-3 0.026 6e-3 0.042 0.029 0.042 0.055v1.569c0 0.053 0.043 0.096 0.097 0.096h0.385c0.052 0 0.095-0.043 0.095-0.096v-2.898c0-0.053-0.043-0.096-0.095-0.096z" clip-path="url(#clipPath687)"/><path transform="matrix(.35278 0 0 -.35278 226.33 96.978)" d="m0 0c-0.053 0-0.096 0.043-0.096 0.096v2.45c0 0.053-0.043 0.096-0.096 0.096h-0.722c-0.053 0-0.096 0.043-0.096 0.096v0.385c0 0.053 0.043 0.096 0.096 0.096h2.213c0.053 0 0.097-0.043 0.097-0.096v-0.385c0-0.053-0.044-0.096-0.097-0.096h-0.722c-0.054 0-0.097-0.043-0.097-0.096v-2.45c0-0.053-0.043-0.096-0.095-0.096z" clip-path="url(#clipPath689)"/><path transform="matrix(.35278 0 0 -.35278 227.99 96.978)" d="m0 0c-0.053 0-0.097 0.043-0.097 0.096v1.798c0 0.025-0.017 0.048-0.042 0.055-5e-3 2e-3 -9e-3 2e-3 -0.014 2e-3 -0.021 0-0.04-0.011-0.051-0.028l-0.69-1.192c-0.017-0.029-0.049-0.047-0.084-0.047h-0.289c-0.034 0-0.066 0.018-0.083 0.047l-0.691 1.194c-0.011 0.018-0.03 0.029-0.05 0.029-5e-3 0-0.01-1e-3 -0.015-2e-3 -0.025-7e-3 -0.042-0.03-0.042-0.056v-1.8c0-0.053-0.043-0.096-0.097-0.096h-0.384c-0.054 0-0.097 0.043-0.097 0.096v3.027c0 0.053 0.043 0.096 0.097 0.096h0.449c0.034 0 0.067-0.019 0.084-0.048l0.924-1.596c0.011-0.018 0.029-0.029 0.05-0.029 0.02 0 0.04 0.011 0.051 0.029l0.924 1.596c0.016 0.029 0.048 0.048 0.083 0.048h0.449c0.052 0 0.095-0.043 0.095-0.096v-3.027c0-0.053-0.043-0.096-0.095-0.096z" clip-path="url(#clipPath691)"/><path transform="matrix(.35278 0 0 -.35278 236.29 94.226)" d="m0 0c-0.031 0-0.061 0.015-0.08 0.041l-0.883 1.261c-0.01 0.014-0.026 0.024-0.045 0.025h-2e-3c-0.016 0-0.033-8e-3 -0.044-0.021l-0.366-0.429 2e-3 -0.785c-1e-3 -0.051-0.042-0.092-0.096-0.092h-0.386c-0.053 0-0.096 0.043-0.096 0.096v3.027c0 0.053 0.043 0.096 0.096 0.096h0.384c0.053 0 0.096-0.043 0.096-0.096v-1.2c0-0.024 0.016-0.046 0.038-0.055 7e-3 -2e-3 0.014-3e-3 0.02-3e-3 0.016 0 0.033 8e-3 0.044 0.02l1.109 1.3c0.018 0.022 0.044 0.034 0.072 0.034h0.505c0.037 0 0.071-0.022 0.088-0.056 0.015-0.034 0.01-0.074-0.015-0.102l-1.005-1.179c-0.018-0.021-0.019-0.049-3e-3 -0.071l1.162-1.66c0.02-0.029 0.023-0.068 7e-3 -0.099-0.017-0.032-0.05-0.052-0.086-0.052z" clip-path="url(#clipPath693)"/><path transform="matrix(.35278 0 0 -.35278 236.93 93.294)" d="m0 0c-0.031 0-0.058-0.026-0.058-0.058v-0.6c0-0.031 0.027-0.057 0.058-0.057h0.593c0.034 0 0.213 4e-3 0.31 0.092 0.085 0.077 0.126 0.159 0.126 0.252 0 0.208-0.172 0.371-0.389 0.371zm0-1.291c-0.031 0-0.058-0.025-0.058-0.057v-0.662c0-0.032 0.027-0.057 0.058-0.057h0.762c0.216 0 0.39 0.174 0.39 0.389 0 0.214-0.174 0.387-0.39 0.387zm-0.538-1.353c-0.053 0-0.097 0.043-0.097 0.096v3.027c0 0.053 0.044 0.096 0.097 0.096h1.178c0.531 0 0.964-0.433 0.964-0.965 0-0.151-0.04-0.3-0.115-0.431-0.02-0.037-0.049-0.067-0.08-0.1-0.012-0.012-0.017-0.029-0.016-0.046 3e-3 -0.017 0.01-0.032 0.025-0.042 0.187-0.13 0.309-0.392 0.309-0.669 0-0.531-0.432-0.965-0.963-0.966z" clip-path="url(#clipPath695)"/><path transform="matrix(.35278 0 0 -.35278 231.09 94.217)" d="m0 0c-0.136 0-0.266 0.019-0.388 0.057-0.123 0.038-0.237 0.097-0.34 0.172-0.103 0.077-0.193 0.171-0.268 0.28-0.061 0.088-0.111 0.188-0.151 0.299-0.018 0.047 5e-3 0.101 0.052 0.121l0.392 0.167c0.013 6e-3 0.025 8e-3 0.038 8e-3 0.036 0 0.071-0.021 0.088-0.057 0.058-0.132 0.121-0.229 0.196-0.307 0.097-0.097 0.227-0.147 0.386-0.147 0.059 0 0.116 8e-3 0.169 0.024 0.055 0.015 0.104 0.037 0.146 0.067 0.043 0.028 0.076 0.065 0.101 0.108 0.024 0.042 0.036 0.093 0.036 0.151 0 0.057-0.01 0.106-0.028 0.148-0.019 0.044-0.052 0.087-0.097 0.124-0.047 0.039-0.108 0.078-0.183 0.114-0.076 0.037-0.17 0.076-0.282 0.116l-0.189 0.07c-0.086 0.028-0.171 0.068-0.258 0.118-0.089 0.051-0.167 0.112-0.236 0.182-0.069 0.068-0.128 0.152-0.175 0.249-0.046 0.097-0.07 0.207-0.07 0.328 0 0.122 0.025 0.239 0.075 0.348 0.048 0.107 0.118 0.202 0.207 0.283 0.091 0.081 0.199 0.145 0.323 0.191 0.127 0.046 0.267 0.068 0.417 0.068 0.155 0 0.293-0.021 0.411-0.063 0.116-0.043 0.217-0.098 0.298-0.164 0.08-0.067 0.145-0.14 0.196-0.219 0.03-0.047 0.055-0.092 0.075-0.136 0.01-0.023 0.011-0.05 2e-3 -0.074-8e-3 -0.024-0.026-0.043-0.049-0.054l-0.367-0.167c-0.011-6e-3 -0.026-9e-3 -0.039-9e-3 -0.032 0-0.063 0.016-0.082 0.045-0.043 0.069-0.086 0.122-0.135 0.166-0.073 0.066-0.173 0.099-0.301 0.099-0.124 0-0.227-0.028-0.305-0.085-0.08-0.057-0.119-0.127-0.119-0.217 0-0.086 0.039-0.16 0.115-0.22 0.078-0.064 0.205-0.126 0.38-0.186l0.195-0.065c0.125-0.044 0.24-0.095 0.343-0.151 0.105-0.057 0.195-0.127 0.27-0.206 0.076-0.079 0.133-0.171 0.172-0.273 0.041-0.101 0.06-0.22 0.06-0.351 0-0.164-0.033-0.308-0.1-0.428-0.065-0.119-0.151-0.217-0.253-0.295-0.102-0.075-0.219-0.132-0.349-0.172-0.128-0.038-0.256-0.057-0.379-0.057" clip-path="url(#clipPath697)"/><path transform="matrix(.35278 0 0 -.35278 232.17 94.217)" d="m0 0c-0.196 0-0.383 0.043-0.552 0.127-0.167 0.083-0.315 0.2-0.44 0.347-0.123 0.146-0.222 0.321-0.293 0.52-0.072 0.199-0.109 0.417-0.109 0.647 0 0.231 0.037 0.449 0.109 0.647 0.07 0.2 0.17 0.375 0.293 0.52 0.123 0.146 0.271 0.262 0.44 0.347 0.169 0.084 0.356 0.127 0.552 0.127 0.213 0 0.402-0.044 0.563-0.132 0.151-0.081 0.31-0.228 0.439-0.403 0.016-0.021 0.021-0.047 0.017-0.074-5e-3 -0.026-0.02-0.048-0.041-0.063l-0.353-0.232c-0.017-0.011-0.035-0.016-0.054-0.016-0.029 0-0.058 0.013-0.077 0.039-0.043 0.059-0.097 0.126-0.17 0.176-0.096 0.069-0.182 0.095-0.317 0.101-0.094 0-0.213-0.033-0.296-0.082-0.094-0.055-0.162-0.104-0.236-0.193-0.079-0.09-0.141-0.201-0.187-0.329-0.045-0.127-0.068-0.273-0.068-0.433s0.023-0.306 0.068-0.433c0.045-0.128 0.108-0.239 0.186-0.329 0.077-0.09 0.141-0.152 0.248-0.201 0.099-0.047 0.221-0.052 0.269-0.052 0.187 0.01 0.259 0.038 0.36 0.101 0.091 0.057 0.172 0.133 0.242 0.227 0.015 0.021 0.039 0.035 0.064 0.039h0.014c0.02 0 0.041-6e-3 0.058-0.019l0.335-0.258c0.042-0.031 0.051-0.09 0.02-0.133-0.144-0.196-0.348-0.36-0.485-0.436-0.18-0.098-0.38-0.147-0.599-0.147" clip-path="url(#clipPath699)"/><path transform="matrix(.35278 0 0 -.35278 229.88 94.185)" d="m0 0c-0.053 0-0.096 0.043-0.096 0.096v2.914c0 0.053 0.043 0.096 0.096 0.096h1.585c0.053 0 0.097-0.043 0.097-0.096v-0.385c0-0.053-0.044-0.096-0.097-0.096h-1.046c-0.032 0-0.058-0.026-0.058-0.058v-0.572c0-0.032 0.026-0.058 0.058-0.058h0.961c0.054 0 0.097-0.043 0.097-0.096v-0.385c0-0.052-0.043-0.095-0.097-0.095h-0.961c-0.032 0-0.058-0.026-0.058-0.058v-0.572c0-0.032 0.026-0.058 0.058-0.058h1.046c0.053 0 0.097-0.043 0.097-0.096v-0.385c0-0.053-0.044-0.096-0.097-0.096z" clip-path="url(#clipPath701)"/></g><g fill="none" stroke="#899099"><path transform="matrix(.35278 0 0 -.35278 102 61.664)" d="m0 0c0-7.477-6.062-13.539-13.538-13.539-7.478 0-13.539 6.062-13.539 13.539 0 7.478 6.061 13.539 13.539 13.539 7.476 0 13.538-6.061 13.538-13.539" clip-path="url(#clipPath703)"/><path transform="matrix(.35278 0 0 -.35278 101.06 61.664)" d="m0 0c0-6.005-4.868-10.873-10.873-10.873-6.006 0-10.874 4.868-10.874 10.873s4.868 10.874 10.874 10.874c6.005 0 10.873-4.869 10.873-10.874" clip-path="url(#clipPath705)"/><path transform="matrix(.35278 0 0 -.35278 236.5 79.342)" d="m0 0c0-7.477-6.061-13.539-13.538-13.539-7.478 0-13.538 6.062-13.538 13.539 0 7.478 6.06 13.539 13.538 13.539 7.477 0 13.538-6.061 13.538-13.539" clip-path="url(#clipPath709)"/><path transform="matrix(.35278 0 0 -.35278 235.56 79.342)" d="m0 0c0-6.005-4.868-10.873-10.873-10.873s-10.873 4.868-10.873 10.873 4.868 10.874 10.873 10.874 10.873-4.869 10.873-10.874" clip-path="url(#clipPath711)"/><path transform="matrix(.35278 0 0 -.35278 240.18 46.248)" d="m0 0s-3.247 1.705-4.396 2.115c-19.955 7.119-27.699 7.708-27.699 7.708-2.995 0.665-7.926 1.309-9.63 0-0.963-0.74-1.274-2.216-1.274-2.216l44.235-11.78s0.387 0.306 0.52 1.788c0.102 1.147-1.756 2.385-1.756 2.385" clip-path="url(#clipPath713)"/><path transform="matrix(.35278 0 0 -.35278 106.07 42.859)" d="m0 0c-1.362 0.867-4.431 0.854-6.027 0.619 0 0-5.34-0.454-16.776-3.757-7.257-2.095-7.606-2.073-12.129-3.715 0 0-3.958-1.362-5.83-2.496-0.592-0.359-2.436-1.385-2.436-2.642 0-1.862 0.519-1.788 0.519-1.788l44.235 11.781s-0.087 1.063-1.556 1.998" clip-path="url(#clipPath715)"/></g></g></svg>
