<?xml version="1.0" encoding="UTF-8" standalone="no"?>
<!-- Created with Inkscape (http://www.inkscape.org/) -->

<svg
   width="158.70598mm"
   height="66.469749mm"
   viewBox="0 0 158.70598 66.469749"
   version="1.1"
   id="svg1"
   xml:space="preserve"
   xmlns="http://www.w3.org/2000/svg"
   xmlns:svg="http://www.w3.org/2000/svg"><defs
     id="defs1"><clipPath
       clipPathUnits="userSpaceOnUse"
       id="clipPath607"><path
         d="M 0,894.706 H 1133.858 V 0 H 0 Z"
         transform="translate(-963.39902,-649.43882)"
         id="path607" /></clipPath><clipPath
       clipPathUnits="userSpaceOnUse"
       id="clipPath609"><path
         d="M 0,894.706 H 1133.858 V 0 H 0 Z"
         transform="translate(-578.39701,-560.72111)"
         id="path609" /></clipPath><clipPath
       clipPathUnits="userSpaceOnUse"
       id="clipPath611"><path
         d="M 0,894.706 H 1133.858 V 0 H 0 Z"
         transform="translate(-894.23695,-561.96861)"
         id="path611" /></clipPath><clipPath
       clipPathUnits="userSpaceOnUse"
       id="clipPath613"><path
         d="M 0,894.706 H 1133.858 V 0 H 0 Z"
         transform="translate(-559.03571,-594.74601)"
         id="path613" /></clipPath><clipPath
       clipPathUnits="userSpaceOnUse"
       id="clipPath615"><path
         d="M 0,894.706 H 1133.858 V 0 H 0 Z"
         transform="translate(-559.03571,-610.33482)"
         id="path615" /></clipPath><clipPath
       clipPathUnits="userSpaceOnUse"
       id="clipPath617"><path
         d="M 0,894.706 H 1133.858 V 0 H 0 Z"
         transform="translate(-553.06501,-608.12192)"
         id="path617" /></clipPath><clipPath
       clipPathUnits="userSpaceOnUse"
       id="clipPath619"><path
         d="M 0,894.706 H 1133.858 V 0 H 0 Z"
         transform="translate(-532.21151,-602.54631)"
         id="path619" /></clipPath><clipPath
       clipPathUnits="userSpaceOnUse"
       id="clipPath621"><path
         d="M 0,894.706 H 1133.858 V 0 H 0 Z"
         transform="translate(-917.44202,-700.50432)"
         id="path621" /></clipPath><clipPath
       clipPathUnits="userSpaceOnUse"
       id="clipPath623"><path
         d="M 0,894.706 H 1133.858 V 0 H 0 Z"
         transform="translate(-944.44,-700.50432)"
         id="path623" /></clipPath><clipPath
       clipPathUnits="userSpaceOnUse"
       id="clipPath625"><path
         d="M 0,894.706 H 1133.858 V 0 H 0 Z"
         transform="translate(-930.94105,-714.00332)"
         id="path625" /></clipPath><clipPath
       clipPathUnits="userSpaceOnUse"
       id="clipPath627"><path
         d="M 0,894.706 H 1133.858 V 0 H 0 Z"
         transform="translate(-938.08945,-679.85631)"
         id="path627" /></clipPath><clipPath
       clipPathUnits="userSpaceOnUse"
       id="clipPath629"><path
         d="M 0,894.706 H 1133.858 V 0 H 0 Z"
         transform="translate(-930.94105,-682.04922)"
         id="path629" /></clipPath><clipPath
       clipPathUnits="userSpaceOnUse"
       id="clipPath631"><path
         d="M 0,894.706 H 1133.858 V 0 H 0 Z"
         transform="translate(-943.4341,-695.54871)"
         id="path631" /></clipPath><clipPath
       clipPathUnits="userSpaceOnUse"
       id="clipPath633"><path
         d="M 0,894.706 H 1133.858 V 0 H 0 Z"
         transform="translate(-919.1509,-690.04242)"
         id="path633" /></clipPath><clipPath
       clipPathUnits="userSpaceOnUse"
       id="clipPath635"><path
         d="M 0,894.706 H 1133.858 V 0 H 0 Z"
         transform="translate(-930.42445,-703.34222)"
         id="path635" /></clipPath><clipPath
       clipPathUnits="userSpaceOnUse"
       id="clipPath637"><path
         d="M 0,894.706 H 1133.858 V 0 H 0 Z"
         transform="translate(-563.60501,-608.27282)"
         id="path637" /></clipPath><clipPath
       clipPathUnits="userSpaceOnUse"
       id="clipPath639"><path
         d="M 0,894.706 H 1133.858 V 0 H 0 Z"
         transform="translate(-537.78671,-599.91831)"
         id="path639" /></clipPath><clipPath
       clipPathUnits="userSpaceOnUse"
       id="clipPath641"><path
         d="M 0,894.706 H 1133.858 V 0 H 0 Z"
         transform="translate(-538.26721,-604.11662)"
         id="path641" /></clipPath><clipPath
       clipPathUnits="userSpaceOnUse"
       id="clipPath643"><path
         d="M 0,894.706 H 1133.858 V 0 H 0 Z"
         transform="translate(-567.29251,-596.18792)"
         id="path643" /></clipPath><clipPath
       clipPathUnits="userSpaceOnUse"
       id="clipPath645"><path
         d="M 0,894.706 H 1133.858 V 0 H 0 Z"
         transform="translate(-567.29351,-594.45741)"
         id="path645" /></clipPath><clipPath
       clipPathUnits="userSpaceOnUse"
       id="clipPath647"><path
         d="M 0,894.706 H 1133.858 V 0 H 0 Z"
         transform="translate(-567.29351,-592.72742)"
         id="path647" /></clipPath><clipPath
       clipPathUnits="userSpaceOnUse"
       id="clipPath649"><path
         d="M 0,894.706 H 1133.858 V 0 H 0 Z"
         transform="translate(-562.35502,-609.96231)"
         id="path649" /></clipPath><clipPath
       clipPathUnits="userSpaceOnUse"
       id="clipPath651"><path
         d="M 0,894.706 H 1133.858 V 0 H 0 Z"
         transform="translate(-555.11971,-605.01261)"
         id="path651" /></clipPath><clipPath
       clipPathUnits="userSpaceOnUse"
       id="clipPath653"><path
         d="M 0,894.706 H 1133.858 V 0 H 0 Z"
         transform="translate(-569.56792,-650.24601)"
         id="path653" /></clipPath><clipPath
       clipPathUnits="userSpaceOnUse"
       id="clipPath655"><path
         d="M 0,894.706 H 1133.858 V 0 H 0 Z"
         transform="translate(-537.34432,-636.47991)"
         id="path655" /></clipPath><clipPath
       clipPathUnits="userSpaceOnUse"
       id="clipPath657"><path
         d="M 0,894.706 H 1133.858 V 0 H 0 Z"
         transform="translate(-546.57281,-659.47452)"
         id="path657" /></clipPath><clipPath
       clipPathUnits="userSpaceOnUse"
       id="clipPath659"><path
         d="M 0,894.706 H 1133.858 V 0 H 0 Z"
         transform="translate(-560.33941,-627.25131)"
         id="path659" /></clipPath><clipPath
       clipPathUnits="userSpaceOnUse"
       id="clipPath661"><path
         d="M 0,894.706 H 1133.858 V 0 H 0 Z"
         transform="translate(-564.42931,-641.16392)"
         id="path661" /></clipPath><clipPath
       clipPathUnits="userSpaceOnUse"
       id="clipPath663"><path
         d="M 0,894.706 H 1133.858 V 0 H 0 Z"
         transform="translate(-542.48302,-641.16392)"
         id="path663" /></clipPath><clipPath
       clipPathUnits="userSpaceOnUse"
       id="clipPath665"><path
         d="M 0,894.706 H 1133.858 V 0 H 0 Z"
         transform="translate(-551.39611,-654.19761)"
         id="path665" /></clipPath><clipPath
       clipPathUnits="userSpaceOnUse"
       id="clipPath667"><path
         d="M 0,894.706 H 1133.858 V 0 H 0 Z"
         transform="translate(-553.45561,-628.68302)"
         id="path667" /></clipPath><clipPath
       clipPathUnits="userSpaceOnUse"
       id="clipPath669"><path
         d="M 0,894.706 H 1133.858 V 0 H 0 Z"
         transform="translate(0,-2.5000001e-5)"
         id="path669" /></clipPath><clipPath
       clipPathUnits="userSpaceOnUse"
       id="clipPath671"><path
         d="M 0,894.706 H 1133.858 V 0 H 0 Z"
         transform="translate(0,-2.5000001e-5)"
         id="path671" /></clipPath><clipPath
       clipPathUnits="userSpaceOnUse"
       id="clipPath673"><path
         d="M 0,894.706 H 1133.858 V 0 H 0 Z"
         transform="translate(0,-2.5000001e-5)"
         id="path673" /></clipPath><clipPath
       clipPathUnits="userSpaceOnUse"
       id="clipPath675"><path
         d="M 0,894.706 H 1133.858 V 0 H 0 Z"
         transform="translate(-918.41275,-610.33482)"
         id="path675" /></clipPath><clipPath
       clipPathUnits="userSpaceOnUse"
       id="clipPath677"><path
         d="M 0,894.706 H 1133.858 V 0 H 0 Z"
         transform="translate(-945.2359,-602.54631)"
         id="path677" /></clipPath><clipPath
       clipPathUnits="userSpaceOnUse"
       id="clipPath679"><path
         d="M 0,894.706 H 1133.858 V 0 H 0 Z"
         transform="translate(-918.41275,-594.74601)"
         id="path679" /></clipPath><clipPath
       clipPathUnits="userSpaceOnUse"
       id="clipPath681"><path
         d="M 0,894.706 H 1133.858 V 0 H 0 Z"
         transform="translate(-924.38342,-608.12151)"
         id="path681" /></clipPath><clipPath
       clipPathUnits="userSpaceOnUse"
       id="clipPath683"><path
         d="M 0,894.706 H 1133.858 V 0 H 0 Z"
         transform="translate(-913.2916,-608.78991)"
         id="path683" /></clipPath><clipPath
       clipPathUnits="userSpaceOnUse"
       id="clipPath685"><path
         d="M 0,894.706 H 1133.858 V 0 H 0 Z"
         transform="translate(-911.31505,-608.78991)"
         id="path685" /></clipPath><clipPath
       clipPathUnits="userSpaceOnUse"
       id="clipPath687"><path
         d="M 0,894.706 H 1133.858 V 0 H 0 Z"
         transform="translate(-916.1695,-608.78991)"
         id="path687" /></clipPath><clipPath
       clipPathUnits="userSpaceOnUse"
       id="clipPath689"><path
         d="M 0,894.706 H 1133.858 V 0 H 0 Z"
         transform="translate(-910.7584,-593.20451)"
         id="path689" /></clipPath><clipPath
       clipPathUnits="userSpaceOnUse"
       id="clipPath691"><path
         d="M 0,894.706 H 1133.858 V 0 H 0 Z"
         transform="translate(-915.45565,-593.20451)"
         id="path691" /></clipPath><clipPath
       clipPathUnits="userSpaceOnUse"
       id="clipPath693"><path
         d="M 0,894.706 H 1133.858 V 0 H 0 Z"
         transform="translate(-938.97325,-601.00482)"
         id="path693" /></clipPath><clipPath
       clipPathUnits="userSpaceOnUse"
       id="clipPath695"><path
         d="M 0,894.706 H 1133.858 V 0 H 0 Z"
         transform="translate(-940.79642,-603.64881)"
         id="path695" /></clipPath><clipPath
       clipPathUnits="userSpaceOnUse"
       id="clipPath697"><path
         d="M 0,894.706 H 1133.858 V 0 H 0 Z"
         transform="translate(-924.23882,-601.03262)"
         id="path697" /></clipPath><clipPath
       clipPathUnits="userSpaceOnUse"
       id="clipPath699"><path
         d="M 0,894.706 H 1133.858 V 0 H 0 Z"
         transform="translate(-927.29065,-601.03262)"
         id="path699" /></clipPath><clipPath
       clipPathUnits="userSpaceOnUse"
       id="clipPath701"><path
         d="M 0,894.706 H 1133.858 V 0 H 0 Z"
         transform="translate(-920.80435,-601.12052)"
         id="path701" /></clipPath><clipPath
       clipPathUnits="userSpaceOnUse"
       id="clipPath703"><path
         d="M 0,894.706 H 1133.858 V 0 H 0 Z"
         transform="translate(-558.32092,-693.30651)"
         id="path703" /></clipPath><clipPath
       clipPathUnits="userSpaceOnUse"
       id="clipPath705"><path
         d="M 0,894.706 H 1133.858 V 0 H 0 Z"
         transform="translate(-555.65581,-693.30651)"
         id="path705" /></clipPath><clipPath
       clipPathUnits="userSpaceOnUse"
       id="clipPath709"><path
         d="M 0,894.706 H 1133.858 V 0 H 0 Z"
         transform="translate(-939.56792,-643.19622)"
         id="path709" /></clipPath><clipPath
       clipPathUnits="userSpaceOnUse"
       id="clipPath711"><path
         d="M 0,894.706 H 1133.858 V 0 H 0 Z"
         transform="translate(-936.90295,-643.19622)"
         id="path711" /></clipPath><clipPath
       clipPathUnits="userSpaceOnUse"
       id="clipPath713"><path
         d="M 0,894.706 H 1133.858 V 0 H 0 Z"
         transform="translate(-949.9996,-737.00672)"
         id="path713" /></clipPath><clipPath
       clipPathUnits="userSpaceOnUse"
       id="clipPath715"><path
         d="M 0,894.706 H 1133.858 V 0 H 0 Z"
         transform="translate(-569.84041,-746.61222)"
         id="path715" /></clipPath></defs><g
     id="layer1"
     transform="translate(-86.37654,-42.320287)"><path
       id="path606"
       d="m 0,0 c 0,0 -2.911,67.298 -3.41,73.62 -0.499,6.322 -7.32,9.4 -7.32,9.4 L -63.804,96.891 H -202.64 -246.23 -385.066 L -438.14,83.02 c 0,0 -6.821,-3.078 -7.32,-9.4 -0.499,-6.322 -3.41,-73.62 -3.41,-73.62 0,0 -0.084,-22.044 0.831,-29.781 0.915,-7.736 5.199,-31.111 7.32,-37.35 2.122,-6.239 5.615,-8.735 13.851,-10.981 8.235,-2.246 41.802,-11.105 41.802,-11.105 h 138.836 43.59 138.836 c 0,0 33.566,8.859 41.801,11.105 8.236,2.246 11.73,4.742 13.851,10.981 2.122,6.239 6.405,29.614 7.32,37.35 C 0.083,-22.044 0,0 0,0"
       style="fill:none;fill-opacity:1;fill-rule:nonzero;stroke:#899099;stroke-opacity:1"
       transform="matrix(0.35277776,0,0,-0.35277776,244.90522,77.139875)"
       clip-path="url(#clipPath607)" /><path
       id="path608"
       d="m 0,0 h 321.134 c 1.64,0.433 33.763,8.914 41.734,11.088 8.35,2.277 11.506,4.768 13.509,10.66 2.163,6.361 6.422,29.84 7.298,37.248 0.893,7.559 0.831,29.165 0.829,29.712 -0.051,1.181 -2.919,67.374 -3.409,73.59 -0.471,5.959 -6.963,8.955 -7.03,8.985 L 321.134,185.11 H -0.001 l -53.011,-13.855 c 0.014,-0.002 -6.479,-3.01 -6.949,-8.957 -0.492,-6.24 -3.38,-72.929 -3.409,-73.601 0,-0.201 -0.072,-22.083 0.829,-29.701 0.877,-7.41 5.135,-30.891 7.297,-37.248 2.003,-5.892 5.16,-8.383 13.509,-10.66 C -33.764,8.914 -1.642,0.433 0,0 M 321.263,-0.998 -0.192,-0.981 c -0.336,0.088 -33.662,8.885 -41.805,11.106 -8.636,2.355 -12.084,5.101 -14.191,11.301 -2.179,6.407 -6.464,30.011 -7.344,37.453 -0.908,7.677 -0.837,29.62 -0.836,29.841 0.03,0.693 2.918,67.398 3.412,73.657 0.517,6.541 7.324,9.685 7.613,9.815 l 53.278,13.916 h 321.328 l 53.134,-13.887 c 0.37,-0.159 7.176,-3.303 7.692,-9.844 0.494,-6.259 3.384,-72.964 3.413,-73.637 v -0.02 c 10e-4,-0.221 0.072,-22.164 -0.837,-29.841 -0.879,-7.44 -5.162,-31.043 -7.342,-37.453 -2.109,-6.2 -5.556,-8.946 -14.192,-11.301 -8.144,-2.221 -41.47,-11.018 -41.805,-11.106 z"
       style="fill:#8a9199;fill-opacity:1;fill-rule:nonzero;stroke:none"
       transform="matrix(0.35277776,0,0,-0.35277776,109.08507,108.43751)"
       clip-path="url(#clipPath609)" /><path
       id="path610"
       d="m 0,0 h -310.752 c -1.599,0 -2.906,1.308 -2.906,2.906 v 176.74 c 0,1.598 1.307,2.906 2.906,2.906 H 0 c 1.599,0 2.906,-1.308 2.906,-2.906 V 2.906 C 2.906,1.308 1.599,0 0,0"
       style="fill:none;fill-opacity:1;fill-rule:nonzero;stroke:#899099;stroke-opacity:1"
       transform="matrix(0.35277776,0,0,-0.35277776,220.50637,107.99742)"
       clip-path="url(#clipPath611)" /><path
       id="path612"
       d="m 0,0 c 0,-3.079 2.496,-5.575 5.575,-5.575 3.079,0 5.575,2.496 5.575,5.575 0,3.079 -2.496,5.576 -5.575,5.576 C 2.496,5.576 0,3.079 0,0"
       style="fill:none;fill-opacity:1;fill-rule:nonzero;stroke:#899099;stroke-opacity:1"
       transform="matrix(0.35277776,0,0,-0.35277776,102.25483,96.434281)"
       clip-path="url(#clipPath613)" /><path
       id="path614"
       d="m 0,0 c 0,-3.079 2.496,-5.576 5.575,-5.576 3.079,0 5.575,2.497 5.575,5.576 0,3.079 -2.496,5.575 -5.575,5.575 C 2.496,5.575 0,3.079 0,0"
       style="fill:none;fill-opacity:1;fill-rule:nonzero;stroke:#899099;stroke-opacity:1"
       transform="matrix(0.35277776,0,0,-0.35277776,102.25483,90.934898)"
       clip-path="url(#clipPath615)" /><path
       id="path616"
       d="m 0,0 c -3.079,0 -5.575,-2.497 -5.575,-5.576 0,-3.079 2.496,-5.575 5.575,-5.575 3.079,0 5.575,2.496 5.575,5.575 C 5.575,-2.497 3.079,0 0,0"
       style="fill:none;fill-opacity:1;fill-rule:nonzero;stroke:#899099;stroke-opacity:1"
       transform="matrix(0.35277776,0,0,-0.35277776,100.1485,91.715559)"
       clip-path="url(#clipPath617)" /><path
       id="path618"
       d="m 0,0 c 0,-3.079 2.496,-5.575 5.575,-5.575 3.079,0 5.576,2.496 5.576,5.575 0,3.079 -2.497,5.575 -5.576,5.575 C 2.496,5.575 0,3.079 0,0"
       style="fill:none;fill-opacity:1;fill-rule:nonzero;stroke:#899099;stroke-opacity:1"
       transform="matrix(0.35277776,0,0,-0.35277776,92.791849,93.682509)"
       clip-path="url(#clipPath619)" /><path
       id="path620"
       d="m 0,0 c 3.947,0 7.148,-3.201 7.148,-7.149 0,-3.948 -3.201,-7.149 -7.148,-7.149 -3.948,0 -7.149,3.201 -7.149,7.149 C -7.149,-3.201 -3.948,0 0,0"
       style="fill:none;fill-opacity:1;fill-rule:nonzero;stroke:#899099;stroke-opacity:1"
       transform="matrix(0.35277776,0,0,-0.35277776,228.69261,59.125103)"
       clip-path="url(#clipPath621)" /><path
       id="path622"
       d="m 0,0 c 3.948,0 7.148,-3.201 7.148,-7.149 0,-3.948 -3.2,-7.149 -7.148,-7.149 -3.948,0 -7.148,3.201 -7.148,7.149 C -7.148,-3.201 -3.948,0 0,0"
       style="fill:none;fill-opacity:1;fill-rule:nonzero;stroke:#899099;stroke-opacity:1"
       transform="matrix(0.35277776,0,0,-0.35277776,238.21689,59.125103)"
       clip-path="url(#clipPath623)" /><path
       id="path624"
       d="m 0,0 c -3.948,0 -7.149,-3.2 -7.149,-7.148 0,-3.949 3.201,-7.149 7.149,-7.149 3.948,0 7.148,3.2 7.148,7.149 C 7.148,-3.2 3.948,0 0,0"
       style="fill:none;fill-opacity:1;fill-rule:nonzero;stroke:#899099;stroke-opacity:1"
       transform="matrix(0.35277776,0,0,-0.35277776,233.45476,54.362955)"
       clip-path="url(#clipPath625)" /><path
       id="path626"
       d="m 0,0 c 0,-3.948 -3.2,-7.149 -7.148,-7.149 -3.949,0 -7.15,3.201 -7.15,7.149 0,3.948 3.201,7.148 7.15,7.148 C -3.2,7.148 0,3.948 0,0"
       style="fill:none;fill-opacity:1;fill-rule:nonzero;stroke:#899099;stroke-opacity:1"
       transform="matrix(0.35277776,0,0,-0.35277776,235.97656,66.409259)"
       clip-path="url(#clipPath627)" /><path
       id="path628"
       d="M 0,0 C -0.041,0 -0.076,-0.026 -0.09,-0.065 L -0.306,-0.721 -0.907,-2.25 c -0.011,-0.029 -0.007,-0.061 0.01,-0.087 0.017,-0.025 0.046,-0.041 0.078,-0.041 h 1.637 c 0.032,0 0.061,0.016 0.078,0.041 0.018,0.026 0.022,0.058 0.01,0.087 l -0.6,1.529 -0.216,0.656 C 0.076,-0.026 0.041,0 0,0 m 2.109,-5.108 c -0.062,0 -0.119,0.039 -0.14,0.097 l -0.541,1.425 c -0.015,0.036 -0.049,0.06 -0.088,0.06 h -2.68 c -0.039,0 -0.074,-0.024 -0.089,-0.06 l -0.54,-1.426 c -0.022,-0.057 -0.079,-0.096 -0.14,-0.096 h -1.189 c -0.051,0 -0.097,0.025 -0.125,0.067 C -3.45,-5 -3.456,-4.947 -3.437,-4.9 l 2.614,6.326 c 0.023,0.056 0.078,0.093 0.139,0.093 h 1.367 c 0.062,0 0.116,-0.037 0.139,-0.092 L 3.437,-4.9 C 3.456,-4.947 3.45,-5 3.423,-5.042 3.395,-5.083 3.348,-5.108 3.298,-5.108 Z"
       style="fill:#899099;fill-opacity:1;fill-rule:nonzero;stroke:none"
       transform="matrix(0.35277776,0,0,-0.35277776,233.45476,65.635652)"
       clip-path="url(#clipPath629)" /><path
       id="path630"
       d="m 0,0 c -0.052,0 -0.094,-0.042 -0.094,-0.094 v -1.395 c 0,-0.052 0.042,-0.094 0.094,-0.094 h 1.281 c 0.317,0 0.566,0.08 0.739,0.236 0.171,0.157 0.259,0.345 0.259,0.56 0,0.218 -0.084,0.399 -0.255,0.556 C 1.854,-0.078 1.619,0 1.322,0 Z m 0,-2.656 c -0.052,0 -0.094,-0.042 -0.094,-0.094 v -1.515 c 0,-0.052 0.042,-0.094 0.094,-0.094 h 1.434 c 0.345,0 0.611,0.079 0.794,0.236 0.185,0.159 0.275,0.357 0.275,0.606 0,0.25 -0.092,0.451 -0.279,0.616 -0.189,0.163 -0.467,0.245 -0.83,0.245 z m -1.317,-2.85 c -0.083,0 -0.151,0.067 -0.151,0.15 V 0.97 c 0,0.083 0.068,0.15 0.151,0.15 h 2.7 C 1.694,1.12 1.989,1.075 2.259,0.985 2.53,0.896 2.768,0.772 2.966,0.615 3.163,0.461 3.322,0.277 3.44,0.065 3.555,-0.144 3.613,-0.372 3.613,-0.61 3.613,-0.96 3.519,-1.257 3.333,-1.495 3.171,-1.699 2.974,-1.863 2.746,-1.982 2.713,-2 2.693,-2.034 2.695,-2.071 c 0.002,-0.037 0.027,-0.07 0.061,-0.083 0.315,-0.122 0.578,-0.302 0.781,-0.534 0.229,-0.266 0.341,-0.585 0.341,-0.977 0,-0.283 -0.065,-0.54 -0.19,-0.763 C 3.563,-4.653 3.39,-4.848 3.175,-5.007 2.961,-5.166 2.706,-5.29 2.417,-5.377 2.129,-5.463 1.815,-5.506 1.484,-5.506 Z"
       style="fill:#899099;fill-opacity:1;fill-rule:nonzero;stroke:none"
       transform="matrix(0.35277776,0,0,-0.35277776,237.86203,60.873329)"
       clip-path="url(#clipPath631)" /><path
       id="path632"
       d="m 0,0 c -0.051,0 -0.098,0.025 -0.125,0.067 l -1.506,2.264 c -0.017,0.027 -0.047,0.043 -0.079,0.043 -0.031,0 -0.061,-0.016 -0.078,-0.043 L -3.294,0.067 C -3.321,0.025 -3.368,0 -3.419,0 h -1.343 c -0.055,0 -0.107,0.031 -0.133,0.08 -0.026,0.05 -0.022,0.109 0.009,0.155 l 2.192,3.173 c 0.023,0.031 0.023,0.074 0,0.107 L -4.7,6.39 c -0.033,0.047 -0.037,0.105 -0.01,0.156 0.025,0.05 0.076,0.08 0.133,0.08 h 1.33 c 0.052,0 0.099,-0.025 0.125,-0.067 l 1.334,-2.04 c 0.017,-0.027 0.047,-0.043 0.078,-0.043 0.032,0 0.062,0.016 0.079,0.043 l 1.332,2.039 c 0.028,0.043 0.075,0.068 0.127,0.068 h 1.33 C 1.214,6.626 1.266,6.595 1.291,6.545 1.317,6.496 1.313,6.436 1.281,6.389 L -0.725,3.515 c -0.023,-0.033 -0.023,-0.076 0,-0.107 L 1.466,0.237 C 1.498,0.19 1.502,0.13 1.476,0.081 1.45,0.031 1.398,0 1.343,0 Z"
       style="fill:#899099;fill-opacity:1;fill-rule:nonzero;stroke:none"
       transform="matrix(0.35277776,0,0,-0.35277776,229.29546,62.815829)"
       clip-path="url(#clipPath633)" /><path
       id="path634"
       d="m 0,0 c -0.083,0 -0.15,0.067 -0.15,0.15 v 2.932 l -2.29,3.309 c -0.033,0.046 -0.037,0.105 -0.01,0.155 0.025,0.049 0.077,0.08 0.133,0.08 h 1.271 c 0.051,0 0.097,-0.025 0.125,-0.067 L 0.452,4.491 C 0.47,4.464 0.499,4.449 0.531,4.449 c 0.032,0 0.062,0.016 0.079,0.043 L 1.933,6.557 C 1.961,6.601 2.008,6.626 2.06,6.626 h 1.292 c 0.056,0 0.107,-0.03 0.133,-0.079 C 3.511,6.498 3.508,6.438 3.477,6.392 L 1.224,3.082 V 0.15 C 1.224,0.067 1.156,0 1.073,0 Z"
       style="fill:#899099;fill-opacity:1;fill-rule:nonzero;stroke:none"
       transform="matrix(0.35277776,0,0,-0.35277776,233.27252,58.123954)"
       clip-path="url(#clipPath635)" /><path
       id="path636"
       d="M 0,0 H 3.7 C 3.754,0 3.797,0.043 3.797,0.096 V 2.338 C 3.797,2.392 3.754,2.435 3.7,2.435 H 0 c -0.054,0 -0.097,-0.043 -0.097,-0.097 V 0.096 C -0.097,0.043 -0.054,0 0,0 m 3.813,-0.577 h -3.925 c -0.31,0 -0.561,0.251 -0.561,0.561 V 2.45 c 0,0.31 0.251,0.561 0.561,0.561 h 3.925 c 0.309,0 0.56,-0.251 0.56,-0.561 v -2.466 c 0,-0.31 -0.251,-0.561 -0.56,-0.561"
       style="fill:#899099;fill-opacity:1;fill-rule:nonzero;stroke:none"
       transform="matrix(0.35277776,0,0,-0.35277776,103.86678,91.662325)"
       clip-path="url(#clipPath637)" /><path
       id="path638"
       d="m 0,0 c -1.448,0 -2.627,1.179 -2.627,2.628 0,1.449 1.179,2.628 2.627,2.628 1.449,0 2.628,-1.179 2.628,-2.628 C 2.628,1.179 1.449,0 0,0 m 0,5.929 c -1.819,0 -3.301,-1.481 -3.301,-3.301 0,-1.82 1.482,-3.301 3.301,-3.301 1.82,0 3.301,1.481 3.301,3.301 0,1.82 -1.481,3.301 -3.301,3.301"
       style="fill:#899099;fill-opacity:1;fill-rule:nonzero;stroke:none"
       transform="matrix(0.35277776,0,0,-0.35277776,94.758656,94.609609)"
       clip-path="url(#clipPath639)" /><path
       id="path640"
       d="m 0,0 c 0,-0.265 -0.215,-0.48 -0.48,-0.48 -0.266,0 -0.481,0.215 -0.481,0.48 0,0.266 0.215,0.481 0.481,0.481 C -0.215,0.481 0,0.266 0,0"
       style="fill:#899099;fill-opacity:1;fill-rule:nonzero;stroke:none"
       transform="matrix(0.35277776,0,0,-0.35277776,94.928166,93.12854)"
       clip-path="url(#clipPath641)" /><path
       id="path642"
       d="M 0,0 H -5.364 C -5.429,0 -5.48,0.052 -5.48,0.117 V 0.46 c 0,0.064 0.051,0.117 0.116,0.117 h 5.365 c 0.064,0 0.116,-0.053 0.116,-0.117 V 0.117 C 0.117,0.052 0.064,0 0,0"
       style="fill:#899099;fill-opacity:1;fill-rule:nonzero;stroke:none"
       transform="matrix(0.35277776,0,0,-0.35277776,105.16765,95.925609)"
       clip-path="url(#clipPath643)" /><path
       id="path644"
       d="M 0,0 H -5.365 C -5.43,0 -5.481,0.052 -5.481,0.117 V 0.46 c 0,0.065 0.051,0.117 0.116,0.117 H 0 c 0.064,0 0.116,-0.052 0.116,-0.117 V 0.117 C 0.116,0.052 0.064,0 0,0"
       style="fill:#899099;fill-opacity:1;fill-rule:nonzero;stroke:none"
       transform="matrix(0.35277776,0,0,-0.35277776,105.168,96.536093)"
       clip-path="url(#clipPath645)" /><path
       id="path646"
       d="M 0,0 H -5.365 C -5.43,0 -5.481,0.052 -5.481,0.117 V 0.46 c 0,0.064 0.051,0.117 0.116,0.117 H 0 c 0.064,0 0.116,-0.053 0.116,-0.117 V 0.117 C 0.116,0.052 0.064,0 0,0"
       style="fill:#899099;fill-opacity:1;fill-rule:nonzero;stroke:none"
       transform="matrix(0.35277776,0,0,-0.35277776,105.168,97.146397)"
       clip-path="url(#clipPath647)" /><path
       id="path648"
       d="m 0,0 h -0.439 c -0.053,0 -0.096,0.043 -0.096,0.096 v 2.242 c 0,0.053 0.043,0.097 0.096,0.097 h 3.701 c 0.052,0 0.095,-0.044 0.095,-0.097 V 1.898 H 3.935 V 2.45 c 0,0.31 -0.251,0.561 -0.562,0.561 h -3.925 c -0.309,0 -0.56,-0.251 -0.56,-0.561 v -2.466 c 0,-0.31 0.251,-0.561 0.56,-0.561 H 0 Z"
       style="fill:#899099;fill-opacity:1;fill-rule:nonzero;stroke:none"
       transform="matrix(0.35277776,0,0,-0.35277776,103.42581,91.066309)"
       clip-path="url(#clipPath649)" /><path
       id="path650"
       d="m 0,0 h -0.481 c -0.053,0 -0.096,-0.043 -0.096,-0.096 v -1.845 c 0,-0.053 -0.043,-0.096 -0.096,-0.096 h -2.763 c -0.053,0 -0.096,0.043 -0.096,0.096 v 1.845 C -3.532,-0.043 -3.575,0 -3.628,0 h -0.481 c -0.053,0 -0.096,-0.043 -0.096,-0.096 v -4.74 c 0,-0.053 0.043,-0.096 0.096,-0.096 h 0.481 c 0.053,0 0.096,0.043 0.096,0.096 v 2.03 c 0,0.053 0.043,0.096 0.096,0.096 h 2.763 c 0.053,0 0.096,-0.043 0.096,-0.096 v -2.03 c 0,-0.053 0.043,-0.096 0.096,-0.096 H 0 c 0.053,0 0.096,0.043 0.096,0.096 v 4.74 C 0.096,-0.043 0.053,0 0,0"
       style="fill:#899099;fill-opacity:1;fill-rule:nonzero;stroke:none"
       transform="matrix(0.35277776,0,0,-0.35277776,100.87335,92.812453)"
       clip-path="url(#clipPath651)" /><path
       id="path652"
       d="m 0,0 h -7.322 c -0.276,0 -0.541,-0.106 -0.741,-0.296 l -5.633,-5.375 c -0.698,-0.664 -0.707,-1.774 -0.023,-2.452 l 5.394,-5.333 c 0.201,-0.199 0.471,-0.31 0.754,-0.31 H 0 c 0,0 1.583,-0.2 2.394,2.539 0.277,0.941 0.464,2.781 0.464,4.344 0,1.563 -0.187,3.404 -0.464,4.344 C 1.583,0.2 0,0 0,0"
       style="fill:none;fill-opacity:1;fill-rule:nonzero;stroke:#899099;stroke-opacity:1"
       transform="matrix(0.35277776,0,0,-0.35277776,105.97036,76.855115)"
       clip-path="url(#clipPath653)" /><path
       id="path654"
       d="m 0,0 h 7.322 c 0.277,0 0.541,0.106 0.741,0.296 l 5.633,5.375 c 0.698,0.665 0.707,1.774 0.023,2.452 l -5.394,5.333 c -0.2,0.199 -0.471,0.31 -0.754,0.31 H 0 c 0,0 -1.583,0.2 -2.393,-2.539 -0.278,-0.94 -0.465,-2.781 -0.465,-4.344 0,-1.563 0.187,-3.403 0.465,-4.344 C -1.583,-0.2 0,0 0,0"
       style="fill:none;fill-opacity:1;fill-rule:nonzero;stroke:#899099;stroke-opacity:1"
       transform="matrix(0.35277776,0,0,-0.35277776,94.602589,81.711489)"
       clip-path="url(#clipPath655)" /><path
       id="path656"
       d="m 0,0 v -7.322 c 0,-0.276 0.106,-0.541 0.297,-0.741 l 5.374,-5.633 c 0.665,-0.697 1.774,-0.707 2.452,-0.022 l 5.333,5.393 c 0.199,0.2 0.311,0.472 0.311,0.754 V 0 c 0,0 0.199,1.583 -2.539,2.393 C 10.287,2.671 8.446,2.858 6.884,2.858 5.32,2.858 3.48,2.671 2.539,2.393 -0.199,1.583 0,0 0,0"
       style="fill:none;fill-opacity:1;fill-rule:nonzero;stroke:#899099;stroke-opacity:1"
       transform="matrix(0.35277776,0,0,-0.35277776,97.858196,73.599504)"
       clip-path="url(#clipPath657)" /><path
       id="path658"
       d="m 0,0 v 7.322 c 0,0.276 -0.106,0.541 -0.297,0.741 l -5.374,5.633 c -0.665,0.697 -1.774,0.707 -2.452,0.022 l -5.333,-5.393 c -0.199,-0.2 -0.311,-0.471 -0.311,-0.754 V 0 c 0,0 -0.199,-1.583 2.539,-2.393 0.942,-0.278 2.782,-0.465 4.345,-0.465 1.563,0 3.404,0.187 4.344,0.465 C 0.199,-1.583 0,0 0,0"
       style="fill:none;fill-opacity:1;fill-rule:nonzero;stroke:#899099;stroke-opacity:1"
       transform="matrix(0.35277776,0,0,-0.35277776,102.71475,84.967134)"
       clip-path="url(#clipPath659)" /><path
       id="path660"
       d="m 0,0 c -0.023,0 -0.048,0.006 -0.069,0.019 -0.043,0.024 -0.07,0.07 -0.07,0.12 v 4.12 c 0,0.05 0.027,0.095 0.07,0.12 0.021,0.013 0.046,0.019 0.069,0.019 0.024,0 0.048,-0.006 0.069,-0.019 l 3.57,-2.06 C 3.682,2.294 3.708,2.249 3.708,2.199 3.708,2.149 3.682,2.104 3.639,2.079 L 0.069,0.019 C 0.048,0.006 0.024,0 0,0"
       style="fill:#899099;fill-opacity:1;fill-rule:nonzero;stroke:none"
       transform="matrix(0.35277776,0,0,-0.35277776,104.15757,80.059076)"
       clip-path="url(#clipPath661)" /><path
       id="path662"
       d="m 0,0 c -0.023,0 -0.048,0.006 -0.069,0.019 l -3.569,2.06 c -0.043,0.025 -0.069,0.07 -0.069,0.12 0,0.05 0.026,0.095 0.069,0.12 l 3.569,2.06 c 0.021,0.013 0.046,0.019 0.069,0.019 0.024,0 0.048,-0.006 0.069,-0.019 0.043,-0.025 0.07,-0.07 0.07,-0.12 V 0.139 C 0.139,0.089 0.112,0.043 0.069,0.019 0.048,0.006 0.024,0 0,0"
       style="fill:#899099;fill-opacity:1;fill-rule:nonzero;stroke:none"
       transform="matrix(0.35277776,0,0,-0.35277776,96.415408,80.059076)"
       clip-path="url(#clipPath663)" /><path
       id="path664"
       d="m 0,0 c -0.05,0 -0.096,0.026 -0.12,0.069 -0.026,0.043 -0.026,0.096 0,0.139 l 2.06,3.568 c 0.025,0.043 0.071,0.069 0.12,0.069 0.049,0 0.095,-0.026 0.12,-0.069 L 4.241,0.208 C 4.266,0.165 4.266,0.112 4.241,0.069 4.217,0.026 4.17,0 4.121,0 Z"
       style="fill:#899099;fill-opacity:1;fill-rule:nonzero;stroke:none"
       transform="matrix(0.35277776,0,0,-0.35277776,99.55975,75.461078)"
       clip-path="url(#clipPath665)" /><path
       id="path666"
       d="M 0,0 C -0.049,0 -0.095,0.026 -0.119,0.069 L -2.18,3.638 c -0.025,0.043 -0.025,0.096 0,0.138 0.025,0.043 0.071,0.07 0.12,0.07 h 4.122 c 0.048,0 0.095,-0.027 0.12,-0.07 0.024,-0.043 0.024,-0.095 0,-0.138 L 0.12,0.069 C 0.096,0.026 0.05,0 0,0"
       style="fill:#899099;fill-opacity:1;fill-rule:nonzero;stroke:none"
       transform="matrix(0.35277776,0,0,-0.35277776,100.2863,84.46206)"
       clip-path="url(#clipPath667)" /><path
       id="path668"
       d="m 619.822,746.455 h -9.067 v 0.894 h 9.067 z"
       style="fill:#8a9199;fill-opacity:1;fill-rule:nonzero;stroke:none"
       transform="matrix(0.35277776,0,0,-0.35277776,-94.960538,306.24744)"
       clip-path="url(#clipPath669)" /><path
       id="path670"
       d="m 635.481,746.455 h -9.088 v 1.685 h 9.088 z"
       style="fill:#8a9199;fill-opacity:1;fill-rule:nonzero;stroke:none"
       transform="matrix(0.35277776,0,0,-0.35277776,-94.960538,306.24744)"
       clip-path="url(#clipPath671)" /><path
       id="path672"
       d="m 651.328,746.455 h -9.088 v 1.685 h 9.088 z"
       style="fill:#8a9199;fill-opacity:1;fill-rule:nonzero;stroke:none"
       transform="matrix(0.35277776,0,0,-0.35277776,-94.960538,306.24744)"
       clip-path="url(#clipPath673)" /><path
       id="path674"
       d="m 0,0 c 0,-3.079 -2.496,-5.576 -5.575,-5.576 -3.079,0 -5.575,2.497 -5.575,5.576 0,3.079 2.496,5.575 5.575,5.575 C -2.496,5.575 0,3.079 0,0"
       style="fill:none;fill-opacity:1;fill-rule:nonzero;stroke:#899099;stroke-opacity:1"
       transform="matrix(0.35277776,0,0,-0.35277776,229.03506,90.934898)"
       clip-path="url(#clipPath675)" /><path
       id="path676"
       d="m 0,0 c 0,-3.079 -2.496,-5.575 -5.575,-5.575 -3.079,0 -5.575,2.496 -5.575,5.575 0,3.079 2.496,5.575 5.575,5.575 C -2.496,5.575 0,3.079 0,0"
       style="fill:none;fill-opacity:1;fill-rule:nonzero;stroke:#899099;stroke-opacity:1"
       transform="matrix(0.35277776,0,0,-0.35277776,238.49767,93.682509)"
       clip-path="url(#clipPath677)" /><path
       id="path678"
       d="m 0,0 c 0,-3.079 -2.496,-5.575 -5.575,-5.575 -3.079,0 -5.575,2.496 -5.575,5.575 0,3.079 2.496,5.576 5.575,5.576 C -2.496,5.576 0,3.079 0,0"
       style="fill:none;fill-opacity:1;fill-rule:nonzero;stroke:#899099;stroke-opacity:1"
       transform="matrix(0.35277776,0,0,-0.35277776,229.03506,96.434281)"
       clip-path="url(#clipPath679)" /><path
       id="path680"
       d="m 0,0 c -3.08,0 -5.576,-2.496 -5.576,-5.575 0,-3.079 2.496,-5.575 5.576,-5.575 3.079,0 5.575,2.496 5.575,5.575 C 5.575,-2.496 3.079,0 0,0"
       style="fill:none;fill-opacity:1;fill-rule:nonzero;stroke:#899099;stroke-opacity:1"
       transform="matrix(0.35277776,0,0,-0.35277776,231.14138,91.715702)"
       clip-path="url(#clipPath681)" /><path
       id="path682"
       d="m 0,0 c -0.053,0 -0.096,0.043 -0.096,0.096 v 2.898 c 0,0.053 0.043,0.096 0.096,0.096 h 0.385 c 0.053,0 0.096,-0.043 0.096,-0.096 V 0.096 C 0.481,0.043 0.438,0 0.385,0 Z"
       style="fill:#899099;fill-opacity:1;fill-rule:nonzero;stroke:none"
       transform="matrix(0.35277776,0,0,-0.35277776,227.22843,91.479906)"
       clip-path="url(#clipPath683)" /><path
       id="path684"
       d="M 0,0 C -0.044,0 -0.082,0.03 -0.094,0.072 L -0.508,1.707 C -0.514,1.733 -0.537,1.75 -0.563,1.75 -0.59,1.75 -0.613,1.733 -0.62,1.707 L -1.025,0.072 C -1.036,0.03 -1.074,0 -1.118,0 H -1.564 C -1.607,0 -1.646,0.03 -1.657,0.072 L -2.392,2.97 C -2.398,3 -2.393,3.029 -2.374,3.053 -2.355,3.077 -2.328,3.09 -2.298,3.09 h 0.397 c 0.044,0 0.082,-0.03 0.093,-0.072 l 0.415,-1.639 c 0.006,-0.025 0.03,-0.043 0.056,-0.043 0.026,0 0.05,0.018 0.057,0.043 l 0.406,1.639 c 0.011,0.042 0.049,0.072 0.093,0.072 h 0.443 c 0.044,0 0.082,-0.03 0.094,-0.072 L 0.172,1.377 C 0.178,1.351 0.201,1.333 0.228,1.333 c 0.026,0 0.049,0.018 0.056,0.044 L 0.691,3.018 C 0.702,3.06 0.74,3.09 0.784,3.09 H 1.182 C 1.211,3.09 1.239,3.077 1.258,3.053 1.276,3.029 1.282,3 1.274,2.971 L 0.54,0.072 C 0.529,0.03 0.49,0 0.446,0 Z"
       style="fill:#899099;fill-opacity:1;fill-rule:nonzero;stroke:none"
       transform="matrix(0.35277776,0,0,-0.35277776,226.53115,91.479906)"
       clip-path="url(#clipPath685)" /><path
       id="path686"
       d="M 0,0 C -0.034,0 -0.066,0.018 -0.083,0.048 L -1.04,1.702 C -1.05,1.72 -1.068,1.73 -1.09,1.73 -1.094,1.73 -1.1,1.73 -1.104,1.729 -1.13,1.722 -1.146,1.699 -1.146,1.673 V 0.096 C -1.146,0.043 -1.19,0 -1.243,0 h -0.385 c -0.053,0 -0.096,0.043 -0.096,0.096 v 2.898 c 0,0.053 0.043,0.096 0.096,0.096 h 0.397 c 0.035,0 0.066,-0.018 0.084,-0.048 l 0.951,-1.646 c 0.01,-0.018 0.029,-0.028 0.05,-0.028 0.004,0 0.009,0 0.015,0.002 0.026,0.006 0.042,0.029 0.042,0.055 v 1.569 c 0,0.053 0.043,0.096 0.097,0.096 h 0.385 c 0.052,0 0.095,-0.043 0.095,-0.096 V 0.096 C 0.488,0.043 0.445,0 0.393,0 Z"
       style="fill:#899099;fill-opacity:1;fill-rule:nonzero;stroke:none"
       transform="matrix(0.35277776,0,0,-0.35277776,228.24369,91.479906)"
       clip-path="url(#clipPath687)" /><path
       id="path688"
       d="m 0,0 c -0.053,0 -0.096,0.043 -0.096,0.096 v 2.45 c 0,0.053 -0.043,0.096 -0.096,0.096 h -0.722 c -0.053,0 -0.096,0.043 -0.096,0.096 v 0.385 c 0,0.053 0.043,0.096 0.096,0.096 h 2.213 c 0.053,0 0.097,-0.043 0.097,-0.096 V 2.738 C 1.396,2.685 1.352,2.642 1.299,2.642 H 0.577 C 0.523,2.642 0.48,2.599 0.48,2.546 V 0.096 C 0.48,0.043 0.437,0 0.385,0 Z"
       style="fill:#899099;fill-opacity:1;fill-rule:nonzero;stroke:none"
       transform="matrix(0.35277776,0,0,-0.35277776,226.33477,96.978087)"
       clip-path="url(#clipPath689)" /><path
       id="path690"
       d="m 0,0 c -0.053,0 -0.097,0.043 -0.097,0.096 v 1.798 c 0,0.025 -0.017,0.048 -0.042,0.055 -0.005,0.002 -0.009,0.002 -0.014,0.002 -0.021,0 -0.04,-0.011 -0.051,-0.028 L -0.894,0.731 C -0.911,0.702 -0.943,0.684 -0.978,0.684 h -0.289 c -0.034,0 -0.066,0.018 -0.083,0.047 l -0.691,1.194 c -0.011,0.018 -0.03,0.029 -0.05,0.029 -0.005,0 -0.01,-10e-4 -0.015,-0.002 -0.025,-0.007 -0.042,-0.03 -0.042,-0.056 v -1.8 C -2.148,0.043 -2.191,0 -2.245,0 h -0.384 c -0.054,0 -0.097,0.043 -0.097,0.096 v 3.027 c 0,0.053 0.043,0.096 0.097,0.096 h 0.449 c 0.034,0 0.067,-0.019 0.084,-0.048 l 0.924,-1.596 c 0.011,-0.018 0.029,-0.029 0.05,-0.029 0.02,0 0.04,0.011 0.051,0.029 l 0.924,1.596 c 0.016,0.029 0.048,0.048 0.083,0.048 H 0.385 C 0.437,3.219 0.48,3.176 0.48,3.123 V 0.096 C 0.48,0.043 0.437,0 0.385,0 Z"
       style="fill:#899099;fill-opacity:1;fill-rule:nonzero;stroke:none"
       transform="matrix(0.35277776,0,0,-0.35277776,227.99186,96.978087)"
       clip-path="url(#clipPath691)" /><path
       id="path692"
       d="m 0,0 c -0.031,0 -0.061,0.015 -0.08,0.041 l -0.883,1.261 c -0.01,0.014 -0.026,0.024 -0.045,0.025 H -1.01 c -0.016,0 -0.033,-0.008 -0.044,-0.021 L -1.42,0.877 -1.418,0.092 C -1.419,0.041 -1.46,0 -1.514,0 H -1.9 c -0.053,0 -0.096,0.043 -0.096,0.096 v 3.027 c 0,0.053 0.043,0.096 0.096,0.096 h 0.384 c 0.053,0 0.096,-0.043 0.096,-0.096 v -1.2 c 0,-0.024 0.016,-0.046 0.038,-0.055 0.007,-0.002 0.014,-0.003 0.02,-0.003 0.016,0 0.033,0.008 0.044,0.02 l 1.109,1.3 c 0.018,0.022 0.044,0.034 0.072,0.034 H 0.368 C 0.405,3.219 0.439,3.197 0.456,3.163 0.471,3.129 0.466,3.089 0.441,3.061 L -0.564,1.882 C -0.582,1.861 -0.583,1.833 -0.567,1.811 L 0.595,0.151 C 0.615,0.122 0.618,0.083 0.602,0.052 0.585,0.02 0.552,0 0.516,0 Z"
       style="fill:#899099;fill-opacity:1;fill-rule:nonzero;stroke:none"
       transform="matrix(0.35277776,0,0,-0.35277776,236.28835,94.226315)"
       clip-path="url(#clipPath693)" /><path
       id="path694"
       d="m 0,0 c -0.031,0 -0.058,-0.026 -0.058,-0.058 v -0.6 c 0,-0.031 0.027,-0.057 0.058,-0.057 h 0.593 c 0.034,0 0.213,0.004 0.31,0.092 0.085,0.077 0.126,0.159 0.126,0.252 C 1.029,-0.163 0.857,0 0.64,0 Z m 0,-1.291 c -0.031,0 -0.058,-0.025 -0.058,-0.057 V -2.01 c 0,-0.032 0.027,-0.057 0.058,-0.057 h 0.762 c 0.216,0 0.39,0.174 0.39,0.389 0,0.214 -0.174,0.387 -0.39,0.387 z m -0.538,-1.353 c -0.053,0 -0.097,0.043 -0.097,0.096 v 3.027 c 0,0.053 0.044,0.096 0.097,0.096 H 0.64 c 0.531,0 0.964,-0.433 0.964,-0.965 0,-0.151 -0.04,-0.3 -0.115,-0.431 -0.02,-0.037 -0.049,-0.067 -0.08,-0.1 -0.012,-0.012 -0.017,-0.029 -0.016,-0.046 0.003,-0.017 0.01,-0.032 0.025,-0.042 0.187,-0.13 0.309,-0.392 0.309,-0.669 0,-0.531 -0.432,-0.965 -0.963,-0.966 z"
       style="fill:#899099;fill-opacity:1;fill-rule:nonzero;stroke:none"
       transform="matrix(0.35277776,0,0,-0.35277776,236.93152,93.293571)"
       clip-path="url(#clipPath695)" /><path
       id="path696"
       d="m 0,0 c -0.136,0 -0.266,0.019 -0.388,0.057 -0.123,0.038 -0.237,0.097 -0.34,0.172 -0.103,0.077 -0.193,0.171 -0.268,0.28 -0.061,0.088 -0.111,0.188 -0.151,0.299 -0.018,0.047 0.005,0.101 0.052,0.121 l 0.392,0.167 c 0.013,0.006 0.025,0.008 0.038,0.008 0.036,0 0.071,-0.021 0.088,-0.057 0.058,-0.132 0.121,-0.229 0.196,-0.307 0.097,-0.097 0.227,-0.147 0.386,-0.147 0.059,0 0.116,0.008 0.169,0.024 C 0.229,0.632 0.278,0.654 0.32,0.684 0.363,0.712 0.396,0.749 0.421,0.792 0.445,0.834 0.457,0.885 0.457,0.943 0.457,1 0.447,1.049 0.429,1.091 0.41,1.135 0.377,1.178 0.332,1.215 0.285,1.254 0.224,1.293 0.149,1.329 0.073,1.366 -0.021,1.405 -0.133,1.445 l -0.189,0.07 c -0.086,0.028 -0.171,0.068 -0.258,0.118 -0.089,0.051 -0.167,0.112 -0.236,0.182 -0.069,0.068 -0.128,0.152 -0.175,0.249 -0.046,0.097 -0.07,0.207 -0.07,0.328 0,0.122 0.025,0.239 0.075,0.348 0.048,0.107 0.118,0.202 0.207,0.283 0.091,0.081 0.199,0.145 0.323,0.191 0.127,0.046 0.267,0.068 0.417,0.068 0.155,0 0.293,-0.021 0.411,-0.063 C 0.488,3.176 0.589,3.121 0.67,3.055 0.75,2.988 0.815,2.915 0.866,2.836 0.896,2.789 0.921,2.744 0.941,2.7 0.951,2.677 0.952,2.65 0.943,2.626 0.935,2.602 0.917,2.583 0.894,2.572 L 0.527,2.405 C 0.516,2.399 0.501,2.396 0.488,2.396 0.456,2.396 0.425,2.412 0.406,2.441 0.363,2.51 0.32,2.563 0.271,2.607 0.198,2.673 0.098,2.706 -0.03,2.706 c -0.124,0 -0.227,-0.028 -0.305,-0.085 -0.08,-0.057 -0.119,-0.127 -0.119,-0.217 0,-0.086 0.039,-0.16 0.115,-0.22 0.078,-0.064 0.205,-0.126 0.38,-0.186 L 0.236,1.933 C 0.361,1.889 0.476,1.838 0.579,1.782 0.684,1.725 0.774,1.655 0.849,1.576 0.925,1.497 0.982,1.405 1.021,1.303 1.062,1.202 1.081,1.083 1.081,0.952 1.081,0.788 1.048,0.644 0.981,0.524 0.916,0.405 0.83,0.307 0.728,0.229 0.626,0.154 0.509,0.097 0.379,0.057 0.251,0.019 0.123,0 0,0"
       style="fill:#899099;fill-opacity:1;fill-rule:nonzero;stroke:none"
       transform="matrix(0.35277776,0,0,-0.35277776,231.09037,94.216507)"
       clip-path="url(#clipPath697)" /><path
       id="path698"
       d="m 0,0 c -0.196,0 -0.383,0.043 -0.552,0.127 -0.167,0.083 -0.315,0.2 -0.44,0.347 -0.123,0.146 -0.222,0.321 -0.293,0.52 -0.072,0.199 -0.109,0.417 -0.109,0.647 0,0.231 0.037,0.449 0.109,0.647 0.07,0.2 0.17,0.375 0.293,0.52 0.123,0.146 0.271,0.262 0.44,0.347 C -0.383,3.239 -0.196,3.282 0,3.282 0.213,3.282 0.402,3.238 0.563,3.15 0.714,3.069 0.873,2.922 1.002,2.747 1.018,2.726 1.023,2.7 1.019,2.673 1.014,2.647 0.999,2.625 0.978,2.61 L 0.625,2.378 C 0.608,2.367 0.59,2.362 0.571,2.362 0.542,2.362 0.513,2.375 0.494,2.401 0.451,2.46 0.397,2.527 0.324,2.577 0.228,2.646 0.142,2.672 0.007,2.678 -0.087,2.678 -0.206,2.645 -0.289,2.596 -0.383,2.541 -0.451,2.492 -0.525,2.403 -0.604,2.313 -0.666,2.202 -0.712,2.074 -0.757,1.947 -0.78,1.801 -0.78,1.641 c 0,-0.16 0.023,-0.306 0.068,-0.433 0.045,-0.128 0.108,-0.239 0.186,-0.329 0.077,-0.09 0.141,-0.152 0.248,-0.201 0.099,-0.047 0.221,-0.052 0.269,-0.052 0.187,0.01 0.259,0.038 0.36,0.101 0.091,0.057 0.172,0.133 0.242,0.227 0.015,0.021 0.039,0.035 0.064,0.039 0.004,0 0.009,0 0.014,0 0.02,0 0.041,-0.006 0.058,-0.019 L 1.064,0.716 C 1.106,0.685 1.115,0.626 1.084,0.583 0.94,0.387 0.736,0.223 0.599,0.147 0.419,0.049 0.219,0 0,0"
       style="fill:#899099;fill-opacity:1;fill-rule:nonzero;stroke:none"
       transform="matrix(0.35277776,0,0,-0.35277776,232.16698,94.216507)"
       clip-path="url(#clipPath699)" /><path
       id="path700"
       d="M 0,0 C -0.053,0 -0.096,0.043 -0.096,0.096 V 3.01 c 0,0.053 0.043,0.096 0.096,0.096 h 1.585 c 0.053,0 0.097,-0.043 0.097,-0.096 V 2.625 C 1.682,2.572 1.638,2.529 1.585,2.529 H 0.539 C 0.507,2.529 0.481,2.503 0.481,2.471 V 1.899 c 0,-0.032 0.026,-0.058 0.058,-0.058 H 1.5 c 0.054,0 0.097,-0.043 0.097,-0.096 V 1.36 C 1.597,1.308 1.554,1.265 1.5,1.265 H 0.539 C 0.507,1.265 0.481,1.239 0.481,1.207 V 0.635 c 0,-0.032 0.026,-0.058 0.058,-0.058 h 1.046 c 0.053,0 0.097,-0.043 0.097,-0.096 V 0.096 C 1.682,0.043 1.638,0 1.585,0 Z"
       style="fill:#899099;fill-opacity:1;fill-rule:nonzero;stroke:none"
       transform="matrix(0.35277776,0,0,-0.35277776,229.87876,94.185498)"
       clip-path="url(#clipPath701)" /><path
       id="path702"
       d="m 0,0 c 0,-7.477 -6.062,-13.539 -13.538,-13.539 -7.478,0 -13.539,6.062 -13.539,13.539 0,7.478 6.061,13.539 13.539,13.539 C -6.062,13.539 0,7.478 0,0"
       style="fill:none;fill-opacity:1;fill-rule:nonzero;stroke:#899099;stroke-opacity:1"
       transform="matrix(0.35277776,0,0,-0.35277776,102.00267,61.664328)"
       clip-path="url(#clipPath703)" /><path
       id="path704"
       d="m 0,0 c 0,-6.005 -4.868,-10.873 -10.873,-10.873 -6.006,0 -10.874,4.868 -10.874,10.873 0,6.005 4.868,10.874 10.874,10.874 C -4.868,10.874 0,6.005 0,0"
       style="fill:none;fill-opacity:1;fill-rule:nonzero;stroke:#899099;stroke-opacity:1"
       transform="matrix(0.35277776,0,0,-0.35277776,101.06248,61.664328)"
       clip-path="url(#clipPath705)" /><path
       id="path708"
       d="m 0,0 c 0,-7.477 -6.061,-13.539 -13.538,-13.539 -7.478,0 -13.538,6.062 -13.538,13.539 0,7.478 6.06,13.539 13.538,13.539 C -6.061,13.539 0,7.478 0,0"
       style="fill:none;fill-opacity:1;fill-rule:nonzero;stroke:#899099;stroke-opacity:1"
       transform="matrix(0.35277776,0,0,-0.35277776,236.49813,79.342127)"
       clip-path="url(#clipPath709)" /><path
       id="path710"
       d="m 0,0 c 0,-6.005 -4.868,-10.873 -10.873,-10.873 -6.005,0 -10.873,4.868 -10.873,10.873 0,6.005 4.868,10.874 10.873,10.874 C -4.868,10.874 0,6.005 0,0"
       style="fill:none;fill-opacity:1;fill-rule:nonzero;stroke:#899099;stroke-opacity:1"
       transform="matrix(0.35277776,0,0,-0.35277776,235.55799,79.342127)"
       clip-path="url(#clipPath711)" /><path
       id="path712"
       d="m 0,0 c 0,0 -3.247,1.705 -4.396,2.115 -19.955,7.119 -27.699,7.708 -27.699,7.708 -2.995,0.665 -7.926,1.309 -9.63,0 -0.963,-0.74 -1.274,-2.216 -1.274,-2.216 L 1.236,-4.173 c 0,0 0.387,0.306 0.52,1.788 C 1.858,-1.238 0,0 0,0"
       style="fill:none;fill-opacity:1;fill-rule:nonzero;stroke:#899099;stroke-opacity:1"
       transform="matrix(0.35277776,0,0,-0.35277776,240.1782,46.247867)"
       clip-path="url(#clipPath713)" /><path
       id="path714"
       d="m 0,0 c -1.362,0.867 -4.431,0.854 -6.027,0.619 0,0 -5.34,-0.454 -16.776,-3.757 -7.257,-2.095 -7.606,-2.073 -12.129,-3.715 0,0 -3.958,-1.362 -5.83,-2.496 -0.592,-0.359 -2.436,-1.385 -2.436,-2.642 0,-1.862 0.519,-1.788 0.519,-1.788 L 1.556,-1.998 c 0,0 -0.087,1.063 -1.556,1.998"
       style="fill:none;fill-opacity:1;fill-rule:nonzero;stroke:#899099;stroke-opacity:1"
       transform="matrix(0.35277776,0,0,-0.35277776,106.06649,42.859261)"
       clip-path="url(#clipPath715)" /></g></svg>
